G04 #@! TF.GenerationSoftware,KiCad,Pcbnew,8.0.6*
G04 #@! TF.CreationDate,2024-11-03T10:51:14+01:00*
G04 #@! TF.ProjectId,pico_piano,7069636f-5f70-4696-916e-6f2e6b696361,rev?*
G04 #@! TF.SameCoordinates,Original*
G04 #@! TF.FileFunction,Copper,L2,Bot*
G04 #@! TF.FilePolarity,Positive*
%FSLAX46Y46*%
G04 Gerber Fmt 4.6, Leading zero omitted, Abs format (unit mm)*
G04 Created by KiCad (PCBNEW 8.0.6) date 2024-11-03 10:51:14*
%MOMM*%
%LPD*%
G01*
G04 APERTURE LIST*
G04 #@! TA.AperFunction,ComponentPad*
%ADD10C,2.000000*%
G04 #@! TD*
G04 #@! TA.AperFunction,ComponentPad*
%ADD11R,1.700000X1.700000*%
G04 #@! TD*
G04 #@! TA.AperFunction,ComponentPad*
%ADD12O,1.700000X1.700000*%
G04 #@! TD*
G04 #@! TA.AperFunction,ComponentPad*
%ADD13R,2.000000X2.000000*%
G04 #@! TD*
G04 #@! TA.AperFunction,ComponentPad*
%ADD14R,1.905000X2.000000*%
G04 #@! TD*
G04 #@! TA.AperFunction,ComponentPad*
%ADD15O,1.905000X2.000000*%
G04 #@! TD*
G04 #@! TA.AperFunction,ViaPad*
%ADD16C,0.600000*%
G04 #@! TD*
G04 #@! TA.AperFunction,Conductor*
%ADD17C,0.200000*%
G04 #@! TD*
G04 APERTURE END LIST*
D10*
X167250000Y-65750000D03*
X173750000Y-65750000D03*
X167250000Y-70250000D03*
X173750000Y-70250000D03*
X142000000Y-77750000D03*
X142000000Y-71250000D03*
X146500000Y-77750000D03*
X146500000Y-71250000D03*
X130250000Y-68250000D03*
X130250000Y-61750000D03*
X134750000Y-68250000D03*
X134750000Y-61750000D03*
X138250000Y-68250000D03*
X138250000Y-61750000D03*
X142750000Y-68250000D03*
X142750000Y-61750000D03*
D11*
X154500000Y-62500000D03*
D12*
X154500000Y-65040000D03*
X154500000Y-67580000D03*
D10*
X104500000Y-77750000D03*
X104500000Y-71250000D03*
X109000000Y-77750000D03*
X109000000Y-71250000D03*
X149500000Y-77750000D03*
X149500000Y-71250000D03*
X154000000Y-77750000D03*
X154000000Y-71250000D03*
X134500000Y-77750000D03*
X134500000Y-71250000D03*
X139000000Y-77750000D03*
X139000000Y-71250000D03*
X164250000Y-70250000D03*
X157750000Y-70250000D03*
X164250000Y-65750000D03*
X157750000Y-65750000D03*
X146250000Y-68250000D03*
X146250000Y-61750000D03*
X150750000Y-68250000D03*
X150750000Y-61750000D03*
X112250000Y-61750000D03*
X112250000Y-68250000D03*
X107750000Y-61750000D03*
X107750000Y-68250000D03*
D11*
X104960000Y-58000000D03*
D12*
X107500000Y-58000000D03*
X110040000Y-58000000D03*
D10*
X119500000Y-77750000D03*
X119500000Y-71250000D03*
X124000000Y-77750000D03*
X124000000Y-71250000D03*
X127000000Y-77750000D03*
X127000000Y-71250000D03*
X131500000Y-77750000D03*
X131500000Y-71250000D03*
X112000000Y-77750000D03*
X112000000Y-71250000D03*
X116500000Y-77750000D03*
X116500000Y-71250000D03*
D12*
X104500000Y-52780000D03*
X107040000Y-52780000D03*
D11*
X109580000Y-52780000D03*
D12*
X112120000Y-52780000D03*
X114660000Y-52780000D03*
X117200000Y-52780000D03*
X119740000Y-52780000D03*
D11*
X122280000Y-52780000D03*
D12*
X124820000Y-52780000D03*
X127360000Y-52780000D03*
X129900000Y-52780000D03*
X132440000Y-52780000D03*
D11*
X134980000Y-52780000D03*
D12*
X137520000Y-52780000D03*
X140060000Y-52780000D03*
X142600000Y-52780000D03*
X145140000Y-52780000D03*
D11*
X147680000Y-52780000D03*
D12*
X150220000Y-52780000D03*
X152760000Y-52780000D03*
X152760000Y-35000000D03*
X150220000Y-35000000D03*
D11*
X147680000Y-35000000D03*
D12*
X145140000Y-35000000D03*
X142600000Y-35000000D03*
X140060000Y-35000000D03*
X137520000Y-35000000D03*
D11*
X134980000Y-35000000D03*
D12*
X132440000Y-35000000D03*
X129900000Y-35000000D03*
X127360000Y-35000000D03*
X124820000Y-35000000D03*
D11*
X122280000Y-35000000D03*
D12*
X119740000Y-35000000D03*
X117200000Y-35000000D03*
X114660000Y-35000000D03*
X112120000Y-35000000D03*
D11*
X109580000Y-35000000D03*
D12*
X107040000Y-35000000D03*
X104500000Y-35000000D03*
X152530000Y-46430000D03*
D11*
X152530000Y-43890000D03*
D12*
X152530000Y-41350000D03*
D10*
X116500000Y-68250000D03*
X116500000Y-61750000D03*
X121000000Y-68250000D03*
X121000000Y-61750000D03*
X157750000Y-73250000D03*
X164250000Y-73250000D03*
X157750000Y-77750000D03*
X164250000Y-77750000D03*
X160015000Y-62000000D03*
X162555000Y-62000000D03*
X165095000Y-62000000D03*
X167635000Y-62000000D03*
D13*
X170175000Y-62000000D03*
D10*
X172715000Y-62000000D03*
D14*
X124000000Y-58000000D03*
D15*
X121460000Y-58000000D03*
X118920000Y-58000000D03*
D11*
X104500000Y-64500000D03*
D12*
X104500000Y-61960000D03*
D10*
X167250000Y-73250000D03*
X173750000Y-73250000D03*
X167250000Y-77750000D03*
X173750000Y-77750000D03*
D16*
X166500000Y-57500000D03*
X158000000Y-41500000D03*
X158000000Y-44000000D03*
X157500000Y-47500000D03*
X161500000Y-56500000D03*
X162500000Y-57000000D03*
X163500000Y-56000000D03*
X139000000Y-56500000D03*
X128000000Y-49000000D03*
X131000000Y-49000000D03*
X132000000Y-50000000D03*
X133000000Y-51000000D03*
D17*
X122280000Y-53220000D02*
X121250000Y-54250000D01*
X121460000Y-54960000D02*
X121460000Y-58000000D01*
X122280000Y-52780000D02*
X122280000Y-53220000D01*
X121250000Y-54250000D02*
X121250000Y-54750000D01*
X121250000Y-54750000D02*
X121460000Y-54960000D01*
X157750000Y-65750000D02*
X164250000Y-65750000D01*
X164500000Y-55500000D02*
X166500000Y-57500000D01*
X157000000Y-41500000D02*
X156850000Y-41350000D01*
X158000000Y-41500000D02*
X157000000Y-41500000D01*
X156850000Y-41350000D02*
X152530000Y-41350000D01*
X157890000Y-43890000D02*
X152530000Y-43890000D01*
X158000000Y-44000000D02*
X157890000Y-43890000D01*
X156930000Y-46430000D02*
X152530000Y-46430000D01*
X157500000Y-47500000D02*
X157500000Y-47000000D01*
X157500000Y-47000000D02*
X156930000Y-46430000D01*
X161500000Y-55500000D02*
X161500000Y-56500000D01*
X157050000Y-51450000D02*
X157100000Y-51500000D01*
X156600000Y-51000000D02*
X157050000Y-51450000D01*
X157100000Y-51500000D02*
X157500000Y-51500000D01*
X157500000Y-51500000D02*
X161500000Y-55500000D01*
X162500000Y-55500000D02*
X162500000Y-57000000D01*
X158000000Y-51000000D02*
X162500000Y-55500000D01*
X159500000Y-51500000D02*
X163000000Y-55000000D01*
X159500000Y-51000000D02*
X159500000Y-51500000D01*
X163000000Y-55000000D02*
X163000000Y-55500000D01*
X163000000Y-55500000D02*
X163500000Y-56000000D01*
X160015000Y-62000000D02*
X158500000Y-62000000D01*
X129900000Y-58900000D02*
X129900000Y-52780000D01*
X158500000Y-62000000D02*
X158500000Y-60500000D01*
X158500000Y-60500000D02*
X158000000Y-60000000D01*
X158000000Y-60000000D02*
X131000000Y-60000000D01*
X131000000Y-60000000D02*
X129900000Y-58900000D01*
X162555000Y-62000000D02*
X162555000Y-61055000D01*
X162555000Y-61055000D02*
X162000000Y-60500000D01*
X160500000Y-60500000D02*
X159500000Y-59500000D01*
X162000000Y-60500000D02*
X160500000Y-60500000D01*
X159500000Y-59500000D02*
X138000000Y-59500000D01*
X138000000Y-59500000D02*
X137500000Y-59000000D01*
X137500000Y-59000000D02*
X137520000Y-58980000D01*
X137520000Y-58980000D02*
X137520000Y-52780000D01*
X165095000Y-62000000D02*
X163095000Y-60000000D01*
X141500000Y-59000000D02*
X139000000Y-56500000D01*
X163095000Y-60000000D02*
X161000000Y-60000000D01*
X161000000Y-60000000D02*
X160000000Y-59000000D01*
X160000000Y-59000000D02*
X141500000Y-59000000D01*
X167635000Y-62000000D02*
X165235000Y-59600000D01*
X140000000Y-55000000D02*
X140060000Y-54940000D01*
X165235000Y-59600000D02*
X161500000Y-59600000D01*
X161500000Y-59600000D02*
X160400000Y-58500000D01*
X160400000Y-58500000D02*
X142500000Y-58500000D01*
X142500000Y-58500000D02*
X140000000Y-56000000D01*
X140000000Y-56000000D02*
X140000000Y-55000000D01*
X140060000Y-54940000D02*
X140060000Y-52780000D01*
X160500000Y-51000000D02*
X160500000Y-51500000D01*
X160500000Y-51500000D02*
X164500000Y-55500000D01*
X172715000Y-62000000D02*
X159215000Y-48500000D01*
X159215000Y-48500000D02*
X133000000Y-48500000D01*
X133000000Y-48500000D02*
X127500000Y-43000000D01*
X127500000Y-43000000D02*
X122000000Y-43000000D01*
X122000000Y-43000000D02*
X116000000Y-37000000D01*
X116000000Y-37000000D02*
X115000000Y-37000000D01*
X115000000Y-37000000D02*
X114660000Y-36660000D01*
X114660000Y-36660000D02*
X114660000Y-35000000D01*
X131000000Y-49000000D02*
X158500000Y-49000000D01*
X158500000Y-49000000D02*
X160500000Y-51000000D01*
X153500000Y-51000000D02*
X156600000Y-51000000D01*
X154500000Y-50000000D02*
X156500000Y-50000000D01*
X156500000Y-50000000D02*
X157000000Y-50000000D01*
X157000000Y-50000000D02*
X158000000Y-51000000D01*
X157900000Y-49400000D02*
X159500000Y-51000000D01*
X154465686Y-49400000D02*
X157900000Y-49400000D01*
X131448529Y-49400000D02*
X131248529Y-49600000D01*
X131248529Y-49600000D02*
X128600000Y-49600000D01*
X128600000Y-49600000D02*
X128000000Y-49000000D01*
X131448529Y-49400000D02*
X154465686Y-49400000D01*
X132000000Y-50000000D02*
X154500000Y-50000000D01*
X133000000Y-51000000D02*
X153500000Y-51000000D01*
X104500000Y-61960000D02*
X104500000Y-58460000D01*
X104500000Y-58460000D02*
X104960000Y-58000000D01*
X142000000Y-77750000D02*
X142000000Y-71250000D01*
X149500000Y-77750000D02*
X149500000Y-71250000D01*
X107750000Y-68250000D02*
X107750000Y-61750000D01*
X112000000Y-77750000D02*
X112000000Y-71250000D01*
X121000000Y-68250000D02*
X121000000Y-61750000D01*
X119500000Y-77750000D02*
X119500000Y-71250000D01*
X127000000Y-77750000D02*
X127000000Y-71250000D01*
X134500000Y-77750000D02*
X134500000Y-71250000D01*
X122500000Y-59500000D02*
X124000000Y-58000000D01*
X109000000Y-59500000D02*
X122500000Y-59500000D01*
X107500000Y-58000000D02*
X109000000Y-59500000D01*
X107500000Y-37500000D02*
X107000000Y-37000000D01*
X116000000Y-57000000D02*
X116000000Y-39000000D01*
X116000000Y-39000000D02*
X114500000Y-37500000D01*
X107040000Y-36460000D02*
X107040000Y-35000000D01*
X117000000Y-58000000D02*
X116000000Y-57000000D01*
X114500000Y-37500000D02*
X107500000Y-37500000D01*
X118920000Y-58000000D02*
X117000000Y-58000000D01*
X107000000Y-37000000D02*
X107000000Y-36500000D01*
X107000000Y-36500000D02*
X107040000Y-36460000D01*
X164250000Y-70250000D02*
X157750000Y-70250000D01*
X167250000Y-65750000D02*
X173750000Y-65750000D01*
X157750000Y-73250000D02*
X164250000Y-73250000D01*
X167250000Y-73250000D02*
X173750000Y-73250000D01*
G04 #@! TA.AperFunction,Conductor*
G36*
X174942539Y-31770185D02*
G01*
X174988294Y-31822989D01*
X174999500Y-31874500D01*
X174999500Y-64574059D01*
X174979815Y-64641098D01*
X174927011Y-64686853D01*
X174857853Y-64696797D01*
X174794297Y-64667772D01*
X174784271Y-64658042D01*
X174769747Y-64642265D01*
X174769744Y-64642262D01*
X174768248Y-64641098D01*
X174573509Y-64489526D01*
X174573507Y-64489525D01*
X174573506Y-64489524D01*
X174354811Y-64371172D01*
X174354802Y-64371169D01*
X174119616Y-64290429D01*
X173874335Y-64249500D01*
X173625665Y-64249500D01*
X173380383Y-64290429D01*
X173145197Y-64371169D01*
X173145188Y-64371172D01*
X172926493Y-64489524D01*
X172730257Y-64642261D01*
X172561833Y-64825217D01*
X172425827Y-65033391D01*
X172407440Y-65075311D01*
X172362483Y-65128796D01*
X172295747Y-65149486D01*
X172293884Y-65149500D01*
X168706116Y-65149500D01*
X168639077Y-65129815D01*
X168593322Y-65077011D01*
X168592560Y-65075311D01*
X168574172Y-65033391D01*
X168438166Y-64825217D01*
X168416557Y-64801744D01*
X168269744Y-64642262D01*
X168073509Y-64489526D01*
X168073507Y-64489525D01*
X168073506Y-64489524D01*
X167854811Y-64371172D01*
X167854802Y-64371169D01*
X167619616Y-64290429D01*
X167374335Y-64249500D01*
X167125665Y-64249500D01*
X166880383Y-64290429D01*
X166645197Y-64371169D01*
X166645188Y-64371172D01*
X166426493Y-64489524D01*
X166230257Y-64642261D01*
X166061833Y-64825217D01*
X165925827Y-65033391D01*
X165863282Y-65175979D01*
X165818325Y-65229464D01*
X165751589Y-65250154D01*
X165684261Y-65231479D01*
X165637718Y-65179368D01*
X165636170Y-65175978D01*
X165573731Y-65033630D01*
X165473434Y-64880116D01*
X164773787Y-65579764D01*
X164762518Y-65537708D01*
X164690110Y-65412292D01*
X164587708Y-65309890D01*
X164462292Y-65237482D01*
X164420235Y-65226212D01*
X165120057Y-64526390D01*
X165120056Y-64526389D01*
X165073229Y-64489943D01*
X164854614Y-64371635D01*
X164854603Y-64371630D01*
X164619493Y-64290916D01*
X164374293Y-64250000D01*
X164125707Y-64250000D01*
X163880506Y-64290916D01*
X163645396Y-64371630D01*
X163645390Y-64371632D01*
X163426761Y-64489949D01*
X163379942Y-64526388D01*
X163379942Y-64526390D01*
X164079765Y-65226212D01*
X164037708Y-65237482D01*
X163912292Y-65309890D01*
X163809890Y-65412292D01*
X163737482Y-65537708D01*
X163726212Y-65579764D01*
X163026564Y-64880116D01*
X162926267Y-65033632D01*
X162826412Y-65261282D01*
X162765387Y-65502261D01*
X162765385Y-65502270D01*
X162744859Y-65749994D01*
X162744859Y-65750005D01*
X162765385Y-65997729D01*
X162765387Y-65997738D01*
X162826412Y-66238717D01*
X162926266Y-66466364D01*
X163026564Y-66619882D01*
X163726212Y-65920234D01*
X163737482Y-65962292D01*
X163809890Y-66087708D01*
X163912292Y-66190110D01*
X164037708Y-66262518D01*
X164079765Y-66273787D01*
X163379942Y-66973609D01*
X163426768Y-67010055D01*
X163426770Y-67010056D01*
X163645385Y-67128364D01*
X163645396Y-67128369D01*
X163880506Y-67209083D01*
X164125707Y-67250000D01*
X164374293Y-67250000D01*
X164619493Y-67209083D01*
X164854603Y-67128369D01*
X164854614Y-67128364D01*
X165073228Y-67010057D01*
X165073231Y-67010055D01*
X165120056Y-66973609D01*
X164420234Y-66273787D01*
X164462292Y-66262518D01*
X164587708Y-66190110D01*
X164690110Y-66087708D01*
X164762518Y-65962292D01*
X164773787Y-65920235D01*
X165473434Y-66619882D01*
X165573732Y-66466367D01*
X165636170Y-66324022D01*
X165681125Y-66270536D01*
X165747861Y-66249845D01*
X165815189Y-66268519D01*
X165861733Y-66320629D01*
X165863282Y-66324020D01*
X165925827Y-66466608D01*
X166061833Y-66674782D01*
X166061836Y-66674785D01*
X166230256Y-66857738D01*
X166426491Y-67010474D01*
X166455899Y-67026389D01*
X166644332Y-67128364D01*
X166645190Y-67128828D01*
X166864141Y-67203994D01*
X166878964Y-67209083D01*
X166880386Y-67209571D01*
X167125665Y-67250500D01*
X167374335Y-67250500D01*
X167619614Y-67209571D01*
X167854810Y-67128828D01*
X168073509Y-67010474D01*
X168269744Y-66857738D01*
X168438164Y-66674785D01*
X168574173Y-66466607D01*
X168592560Y-66424689D01*
X168637517Y-66371204D01*
X168704253Y-66350514D01*
X168706116Y-66350500D01*
X172293884Y-66350500D01*
X172360923Y-66370185D01*
X172406678Y-66422989D01*
X172407440Y-66424689D01*
X172425827Y-66466608D01*
X172561833Y-66674782D01*
X172561836Y-66674785D01*
X172730256Y-66857738D01*
X172926491Y-67010474D01*
X172955899Y-67026389D01*
X173144332Y-67128364D01*
X173145190Y-67128828D01*
X173364141Y-67203994D01*
X173378964Y-67209083D01*
X173380386Y-67209571D01*
X173625665Y-67250500D01*
X173874335Y-67250500D01*
X174119614Y-67209571D01*
X174354810Y-67128828D01*
X174573509Y-67010474D01*
X174769744Y-66857738D01*
X174784270Y-66841958D01*
X174844155Y-66805967D01*
X174913993Y-66808066D01*
X174971610Y-66847589D01*
X174998713Y-66911988D01*
X174999500Y-66925940D01*
X174999500Y-69302690D01*
X174979815Y-69369729D01*
X174963181Y-69390371D01*
X174273787Y-70079764D01*
X174262518Y-70037708D01*
X174190110Y-69912292D01*
X174087708Y-69809890D01*
X173962292Y-69737482D01*
X173920235Y-69726212D01*
X174620057Y-69026390D01*
X174620056Y-69026389D01*
X174573229Y-68989943D01*
X174354614Y-68871635D01*
X174354603Y-68871630D01*
X174119493Y-68790916D01*
X173874293Y-68750000D01*
X173625707Y-68750000D01*
X173380506Y-68790916D01*
X173145396Y-68871630D01*
X173145390Y-68871632D01*
X172926761Y-68989949D01*
X172879942Y-69026388D01*
X172879942Y-69026390D01*
X173579765Y-69726212D01*
X173537708Y-69737482D01*
X173412292Y-69809890D01*
X173309890Y-69912292D01*
X173237482Y-70037708D01*
X173226212Y-70079764D01*
X172526564Y-69380116D01*
X172426267Y-69533632D01*
X172326412Y-69761282D01*
X172265387Y-70002261D01*
X172265385Y-70002270D01*
X172244859Y-70249994D01*
X172244859Y-70250005D01*
X172265385Y-70497729D01*
X172265387Y-70497738D01*
X172326412Y-70738717D01*
X172426266Y-70966364D01*
X172526564Y-71119882D01*
X173226212Y-70420234D01*
X173237482Y-70462292D01*
X173309890Y-70587708D01*
X173412292Y-70690110D01*
X173537708Y-70762518D01*
X173579765Y-70773787D01*
X172879942Y-71473609D01*
X172926768Y-71510055D01*
X172926770Y-71510056D01*
X173145385Y-71628364D01*
X173145396Y-71628369D01*
X173157294Y-71632454D01*
X173214309Y-71672839D01*
X173240440Y-71737639D01*
X173227389Y-71806279D01*
X173179300Y-71856967D01*
X173157296Y-71867016D01*
X173145191Y-71871171D01*
X173145188Y-71871172D01*
X172926493Y-71989524D01*
X172730257Y-72142261D01*
X172561833Y-72325217D01*
X172425827Y-72533391D01*
X172407440Y-72575311D01*
X172362483Y-72628796D01*
X172295747Y-72649486D01*
X172293884Y-72649500D01*
X168706116Y-72649500D01*
X168639077Y-72629815D01*
X168593322Y-72577011D01*
X168592560Y-72575311D01*
X168574172Y-72533391D01*
X168438166Y-72325217D01*
X168416557Y-72301744D01*
X168269744Y-72142262D01*
X168073509Y-71989526D01*
X168073507Y-71989525D01*
X168073506Y-71989524D01*
X167854811Y-71871172D01*
X167854802Y-71871169D01*
X167842705Y-71867016D01*
X167785690Y-71826631D01*
X167759559Y-71761831D01*
X167772610Y-71693191D01*
X167820699Y-71642504D01*
X167842707Y-71632453D01*
X167854608Y-71628367D01*
X167854614Y-71628364D01*
X168073228Y-71510057D01*
X168073231Y-71510055D01*
X168120056Y-71473609D01*
X167420234Y-70773787D01*
X167462292Y-70762518D01*
X167587708Y-70690110D01*
X167690110Y-70587708D01*
X167762518Y-70462292D01*
X167773787Y-70420235D01*
X168473434Y-71119882D01*
X168573731Y-70966369D01*
X168673587Y-70738717D01*
X168734612Y-70497738D01*
X168734614Y-70497729D01*
X168755141Y-70250005D01*
X168755141Y-70249994D01*
X168734614Y-70002270D01*
X168734612Y-70002261D01*
X168673587Y-69761282D01*
X168573731Y-69533630D01*
X168473434Y-69380116D01*
X167773787Y-70079764D01*
X167762518Y-70037708D01*
X167690110Y-69912292D01*
X167587708Y-69809890D01*
X167462292Y-69737482D01*
X167420235Y-69726212D01*
X168120057Y-69026390D01*
X168120056Y-69026389D01*
X168073229Y-68989943D01*
X167854614Y-68871635D01*
X167854603Y-68871630D01*
X167619493Y-68790916D01*
X167374293Y-68750000D01*
X167125707Y-68750000D01*
X166880506Y-68790916D01*
X166645396Y-68871630D01*
X166645390Y-68871632D01*
X166426761Y-68989949D01*
X166379942Y-69026388D01*
X166379942Y-69026390D01*
X167079765Y-69726212D01*
X167037708Y-69737482D01*
X166912292Y-69809890D01*
X166809890Y-69912292D01*
X166737482Y-70037708D01*
X166726212Y-70079764D01*
X166026564Y-69380116D01*
X165926267Y-69533632D01*
X165863829Y-69675978D01*
X165818873Y-69729464D01*
X165752137Y-69750154D01*
X165684809Y-69731479D01*
X165638266Y-69679369D01*
X165636717Y-69675978D01*
X165574173Y-69533393D01*
X165438166Y-69325217D01*
X165416557Y-69301744D01*
X165269744Y-69142262D01*
X165073509Y-68989526D01*
X165073507Y-68989525D01*
X165073506Y-68989524D01*
X164854811Y-68871172D01*
X164854802Y-68871169D01*
X164619616Y-68790429D01*
X164374335Y-68749500D01*
X164125665Y-68749500D01*
X163880383Y-68790429D01*
X163645197Y-68871169D01*
X163645188Y-68871172D01*
X163426493Y-68989524D01*
X163230257Y-69142261D01*
X163061833Y-69325217D01*
X162925827Y-69533391D01*
X162907440Y-69575311D01*
X162862483Y-69628796D01*
X162795747Y-69649486D01*
X162793884Y-69649500D01*
X159206116Y-69649500D01*
X159139077Y-69629815D01*
X159093322Y-69577011D01*
X159092560Y-69575311D01*
X159074172Y-69533391D01*
X158938166Y-69325217D01*
X158916557Y-69301744D01*
X158769744Y-69142262D01*
X158573509Y-68989526D01*
X158573507Y-68989525D01*
X158573506Y-68989524D01*
X158354811Y-68871172D01*
X158354802Y-68871169D01*
X158119616Y-68790429D01*
X157874335Y-68749500D01*
X157625665Y-68749500D01*
X157380383Y-68790429D01*
X157145197Y-68871169D01*
X157145188Y-68871172D01*
X156926493Y-68989524D01*
X156730257Y-69142261D01*
X156561833Y-69325217D01*
X156425826Y-69533393D01*
X156325936Y-69761118D01*
X156264892Y-70002175D01*
X156264890Y-70002187D01*
X156244357Y-70249994D01*
X156244357Y-70250005D01*
X156264890Y-70497812D01*
X156264892Y-70497824D01*
X156325936Y-70738881D01*
X156425826Y-70966606D01*
X156561833Y-71174782D01*
X156561836Y-71174785D01*
X156730256Y-71357738D01*
X156926491Y-71510474D01*
X156926493Y-71510475D01*
X157144332Y-71628364D01*
X157145190Y-71628828D01*
X157155682Y-71632430D01*
X157156524Y-71632719D01*
X157213539Y-71673106D01*
X157239668Y-71737906D01*
X157226615Y-71806546D01*
X157178526Y-71857233D01*
X157156524Y-71867281D01*
X157145191Y-71871171D01*
X157145188Y-71871172D01*
X156926493Y-71989524D01*
X156730257Y-72142261D01*
X156561833Y-72325217D01*
X156425826Y-72533393D01*
X156325936Y-72761118D01*
X156264892Y-73002175D01*
X156264890Y-73002187D01*
X156244357Y-73249994D01*
X156244357Y-73250005D01*
X156264890Y-73497812D01*
X156264892Y-73497824D01*
X156325936Y-73738881D01*
X156425826Y-73966606D01*
X156561833Y-74174782D01*
X156561836Y-74174785D01*
X156730256Y-74357738D01*
X156926491Y-74510474D01*
X157145190Y-74628828D01*
X157380386Y-74709571D01*
X157625665Y-74750500D01*
X157874335Y-74750500D01*
X158119614Y-74709571D01*
X158354810Y-74628828D01*
X158573509Y-74510474D01*
X158769744Y-74357738D01*
X158938164Y-74174785D01*
X159074173Y-73966607D01*
X159092560Y-73924689D01*
X159137517Y-73871204D01*
X159204253Y-73850514D01*
X159206116Y-73850500D01*
X162793884Y-73850500D01*
X162860923Y-73870185D01*
X162906678Y-73922989D01*
X162907440Y-73924689D01*
X162925827Y-73966608D01*
X163061833Y-74174782D01*
X163061836Y-74174785D01*
X163230256Y-74357738D01*
X163426491Y-74510474D01*
X163645190Y-74628828D01*
X163880386Y-74709571D01*
X164125665Y-74750500D01*
X164374335Y-74750500D01*
X164619614Y-74709571D01*
X164854810Y-74628828D01*
X165073509Y-74510474D01*
X165269744Y-74357738D01*
X165438164Y-74174785D01*
X165574173Y-73966607D01*
X165636444Y-73824644D01*
X165681400Y-73771158D01*
X165748136Y-73750468D01*
X165815464Y-73769143D01*
X165862007Y-73821253D01*
X165863556Y-73824644D01*
X165925826Y-73966606D01*
X166061833Y-74174782D01*
X166061836Y-74174785D01*
X166230256Y-74357738D01*
X166426491Y-74510474D01*
X166645190Y-74628828D01*
X166880386Y-74709571D01*
X167125665Y-74750500D01*
X167374335Y-74750500D01*
X167619614Y-74709571D01*
X167854810Y-74628828D01*
X168073509Y-74510474D01*
X168269744Y-74357738D01*
X168438164Y-74174785D01*
X168574173Y-73966607D01*
X168592560Y-73924689D01*
X168637517Y-73871204D01*
X168704253Y-73850514D01*
X168706116Y-73850500D01*
X172293884Y-73850500D01*
X172360923Y-73870185D01*
X172406678Y-73922989D01*
X172407440Y-73924689D01*
X172425827Y-73966608D01*
X172561833Y-74174782D01*
X172561836Y-74174785D01*
X172730256Y-74357738D01*
X172926491Y-74510474D01*
X173145190Y-74628828D01*
X173380386Y-74709571D01*
X173625665Y-74750500D01*
X173874335Y-74750500D01*
X174119614Y-74709571D01*
X174354810Y-74628828D01*
X174573509Y-74510474D01*
X174769744Y-74357738D01*
X174784270Y-74341958D01*
X174844155Y-74305967D01*
X174913993Y-74308066D01*
X174971610Y-74347589D01*
X174998713Y-74411988D01*
X174999500Y-74425940D01*
X174999500Y-76802690D01*
X174979815Y-76869729D01*
X174963181Y-76890371D01*
X174273787Y-77579765D01*
X174262518Y-77537708D01*
X174190110Y-77412292D01*
X174087708Y-77309890D01*
X173962292Y-77237482D01*
X173920235Y-77226212D01*
X174620057Y-76526390D01*
X174620056Y-76526389D01*
X174573229Y-76489943D01*
X174354614Y-76371635D01*
X174354603Y-76371630D01*
X174119493Y-76290916D01*
X173874293Y-76250000D01*
X173625707Y-76250000D01*
X173380506Y-76290916D01*
X173145396Y-76371630D01*
X173145390Y-76371632D01*
X172926761Y-76489949D01*
X172879942Y-76526388D01*
X172879942Y-76526390D01*
X173579765Y-77226212D01*
X173537708Y-77237482D01*
X173412292Y-77309890D01*
X173309890Y-77412292D01*
X173237482Y-77537708D01*
X173226212Y-77579764D01*
X172526564Y-76880116D01*
X172426267Y-77033632D01*
X172326412Y-77261282D01*
X172265387Y-77502261D01*
X172265385Y-77502270D01*
X172244859Y-77749994D01*
X172244859Y-77750005D01*
X172265385Y-77997729D01*
X172265387Y-77997738D01*
X172326412Y-78238717D01*
X172426266Y-78466364D01*
X172526564Y-78619882D01*
X173226212Y-77920234D01*
X173237482Y-77962292D01*
X173309890Y-78087708D01*
X173412292Y-78190110D01*
X173537708Y-78262518D01*
X173579765Y-78273787D01*
X172890371Y-78963181D01*
X172829048Y-78996666D01*
X172802690Y-78999500D01*
X168197309Y-78999500D01*
X168130270Y-78979815D01*
X168109628Y-78963181D01*
X167420234Y-78273787D01*
X167462292Y-78262518D01*
X167587708Y-78190110D01*
X167690110Y-78087708D01*
X167762518Y-77962292D01*
X167773787Y-77920235D01*
X168473434Y-78619882D01*
X168573731Y-78466369D01*
X168673587Y-78238717D01*
X168734612Y-77997738D01*
X168734614Y-77997729D01*
X168755141Y-77750005D01*
X168755141Y-77749994D01*
X168734614Y-77502270D01*
X168734612Y-77502261D01*
X168673587Y-77261282D01*
X168573731Y-77033630D01*
X168473434Y-76880116D01*
X167773787Y-77579764D01*
X167762518Y-77537708D01*
X167690110Y-77412292D01*
X167587708Y-77309890D01*
X167462292Y-77237482D01*
X167420235Y-77226212D01*
X168120057Y-76526390D01*
X168120056Y-76526389D01*
X168073229Y-76489943D01*
X167854614Y-76371635D01*
X167854603Y-76371630D01*
X167619493Y-76290916D01*
X167374293Y-76250000D01*
X167125707Y-76250000D01*
X166880506Y-76290916D01*
X166645396Y-76371630D01*
X166645390Y-76371632D01*
X166426761Y-76489949D01*
X166379942Y-76526388D01*
X166379942Y-76526390D01*
X167079765Y-77226212D01*
X167037708Y-77237482D01*
X166912292Y-77309890D01*
X166809890Y-77412292D01*
X166737482Y-77537708D01*
X166726212Y-77579764D01*
X166026564Y-76880116D01*
X165926267Y-77033632D01*
X165863556Y-77176601D01*
X165818600Y-77230087D01*
X165751864Y-77250777D01*
X165684536Y-77232102D01*
X165637993Y-77179992D01*
X165636444Y-77176601D01*
X165573731Y-77033630D01*
X165473434Y-76880116D01*
X164773787Y-77579764D01*
X164762518Y-77537708D01*
X164690110Y-77412292D01*
X164587708Y-77309890D01*
X164462292Y-77237482D01*
X164420235Y-77226212D01*
X165120057Y-76526390D01*
X165120056Y-76526389D01*
X165073229Y-76489943D01*
X164854614Y-76371635D01*
X164854603Y-76371630D01*
X164619493Y-76290916D01*
X164374293Y-76250000D01*
X164125707Y-76250000D01*
X163880506Y-76290916D01*
X163645396Y-76371630D01*
X163645390Y-76371632D01*
X163426761Y-76489949D01*
X163379942Y-76526388D01*
X163379942Y-76526390D01*
X164079765Y-77226212D01*
X164037708Y-77237482D01*
X163912292Y-77309890D01*
X163809890Y-77412292D01*
X163737482Y-77537708D01*
X163726212Y-77579764D01*
X163026564Y-76880116D01*
X162926267Y-77033632D01*
X162826412Y-77261282D01*
X162765387Y-77502261D01*
X162765385Y-77502270D01*
X162744859Y-77749994D01*
X162744859Y-77750005D01*
X162765385Y-77997729D01*
X162765387Y-77997738D01*
X162826412Y-78238717D01*
X162926266Y-78466364D01*
X163026564Y-78619882D01*
X163726212Y-77920234D01*
X163737482Y-77962292D01*
X163809890Y-78087708D01*
X163912292Y-78190110D01*
X164037708Y-78262518D01*
X164079765Y-78273787D01*
X163390371Y-78963181D01*
X163329048Y-78996666D01*
X163302690Y-78999500D01*
X158697309Y-78999500D01*
X158630270Y-78979815D01*
X158609628Y-78963181D01*
X157920234Y-78273787D01*
X157962292Y-78262518D01*
X158087708Y-78190110D01*
X158190110Y-78087708D01*
X158262518Y-77962292D01*
X158273787Y-77920235D01*
X158973434Y-78619882D01*
X159073731Y-78466369D01*
X159173587Y-78238717D01*
X159234612Y-77997738D01*
X159234614Y-77997729D01*
X159255141Y-77750005D01*
X159255141Y-77749994D01*
X159234614Y-77502270D01*
X159234612Y-77502261D01*
X159173587Y-77261282D01*
X159073731Y-77033630D01*
X158973434Y-76880116D01*
X158273787Y-77579764D01*
X158262518Y-77537708D01*
X158190110Y-77412292D01*
X158087708Y-77309890D01*
X157962292Y-77237482D01*
X157920235Y-77226212D01*
X158620057Y-76526390D01*
X158620056Y-76526389D01*
X158573229Y-76489943D01*
X158354614Y-76371635D01*
X158354603Y-76371630D01*
X158119493Y-76290916D01*
X157874293Y-76250000D01*
X157625707Y-76250000D01*
X157380506Y-76290916D01*
X157145396Y-76371630D01*
X157145390Y-76371632D01*
X156926761Y-76489949D01*
X156879942Y-76526388D01*
X156879942Y-76526390D01*
X157579765Y-77226212D01*
X157537708Y-77237482D01*
X157412292Y-77309890D01*
X157309890Y-77412292D01*
X157237482Y-77537708D01*
X157226212Y-77579764D01*
X156526564Y-76880116D01*
X156426267Y-77033632D01*
X156326412Y-77261282D01*
X156265387Y-77502261D01*
X156265385Y-77502270D01*
X156244859Y-77749994D01*
X156244859Y-77750005D01*
X156265385Y-77997729D01*
X156265387Y-77997738D01*
X156326412Y-78238717D01*
X156426266Y-78466364D01*
X156526564Y-78619882D01*
X157226212Y-77920234D01*
X157237482Y-77962292D01*
X157309890Y-78087708D01*
X157412292Y-78190110D01*
X157537708Y-78262518D01*
X157579765Y-78273787D01*
X156890371Y-78963181D01*
X156829048Y-78996666D01*
X156802690Y-78999500D01*
X154947309Y-78999500D01*
X154880270Y-78979815D01*
X154859628Y-78963181D01*
X154170234Y-78273787D01*
X154212292Y-78262518D01*
X154337708Y-78190110D01*
X154440110Y-78087708D01*
X154512518Y-77962292D01*
X154523787Y-77920235D01*
X155223434Y-78619882D01*
X155323731Y-78466369D01*
X155423587Y-78238717D01*
X155484612Y-77997738D01*
X155484614Y-77997729D01*
X155505141Y-77750005D01*
X155505141Y-77749994D01*
X155484614Y-77502270D01*
X155484612Y-77502261D01*
X155423587Y-77261282D01*
X155323731Y-77033630D01*
X155223434Y-76880116D01*
X154523787Y-77579764D01*
X154512518Y-77537708D01*
X154440110Y-77412292D01*
X154337708Y-77309890D01*
X154212292Y-77237482D01*
X154170235Y-77226212D01*
X154870057Y-76526390D01*
X154870056Y-76526389D01*
X154823229Y-76489943D01*
X154604614Y-76371635D01*
X154604603Y-76371630D01*
X154369493Y-76290916D01*
X154124293Y-76250000D01*
X153875707Y-76250000D01*
X153630506Y-76290916D01*
X153395396Y-76371630D01*
X153395390Y-76371632D01*
X153176761Y-76489949D01*
X153129942Y-76526388D01*
X153129942Y-76526390D01*
X153829765Y-77226212D01*
X153787708Y-77237482D01*
X153662292Y-77309890D01*
X153559890Y-77412292D01*
X153487482Y-77537708D01*
X153476212Y-77579764D01*
X152776564Y-76880116D01*
X152676267Y-77033632D01*
X152576412Y-77261282D01*
X152515387Y-77502261D01*
X152515385Y-77502270D01*
X152494859Y-77749994D01*
X152494859Y-77750005D01*
X152515385Y-77997729D01*
X152515387Y-77997738D01*
X152576412Y-78238717D01*
X152676266Y-78466364D01*
X152776564Y-78619882D01*
X153476212Y-77920234D01*
X153487482Y-77962292D01*
X153559890Y-78087708D01*
X153662292Y-78190110D01*
X153787708Y-78262518D01*
X153829765Y-78273787D01*
X153140371Y-78963181D01*
X153079048Y-78996666D01*
X153052690Y-78999500D01*
X150671934Y-78999500D01*
X150604895Y-78979815D01*
X150559140Y-78927011D01*
X150549196Y-78857853D01*
X150578221Y-78794297D01*
X150580681Y-78791542D01*
X150688164Y-78674785D01*
X150824173Y-78466607D01*
X150924063Y-78238881D01*
X150985108Y-77997821D01*
X151005643Y-77750000D01*
X150985108Y-77502179D01*
X150985107Y-77502175D01*
X150924063Y-77261118D01*
X150824173Y-77033393D01*
X150688166Y-76825217D01*
X150666557Y-76801744D01*
X150519744Y-76642262D01*
X150323509Y-76489526D01*
X150323507Y-76489525D01*
X150323506Y-76489524D01*
X150165482Y-76404006D01*
X150115892Y-76354786D01*
X150100500Y-76294951D01*
X150100500Y-72705048D01*
X150120185Y-72638009D01*
X150165481Y-72595993D01*
X150323509Y-72510474D01*
X150519744Y-72357738D01*
X150688164Y-72174785D01*
X150824173Y-71966607D01*
X150924063Y-71738881D01*
X150985108Y-71497821D01*
X150985116Y-71497729D01*
X151005643Y-71250005D01*
X151005643Y-71249994D01*
X152494859Y-71249994D01*
X152494859Y-71250005D01*
X152515385Y-71497729D01*
X152515387Y-71497738D01*
X152576412Y-71738717D01*
X152676266Y-71966364D01*
X152776564Y-72119882D01*
X153476212Y-71420234D01*
X153487482Y-71462292D01*
X153559890Y-71587708D01*
X153662292Y-71690110D01*
X153787708Y-71762518D01*
X153829765Y-71773787D01*
X153129942Y-72473609D01*
X153176768Y-72510055D01*
X153176770Y-72510056D01*
X153395385Y-72628364D01*
X153395396Y-72628369D01*
X153630506Y-72709083D01*
X153875707Y-72750000D01*
X154124293Y-72750000D01*
X154369493Y-72709083D01*
X154604603Y-72628369D01*
X154604614Y-72628364D01*
X154823228Y-72510057D01*
X154823231Y-72510055D01*
X154870056Y-72473609D01*
X154170234Y-71773787D01*
X154212292Y-71762518D01*
X154337708Y-71690110D01*
X154440110Y-71587708D01*
X154512518Y-71462292D01*
X154523787Y-71420235D01*
X155223434Y-72119882D01*
X155323731Y-71966369D01*
X155423587Y-71738717D01*
X155484612Y-71497738D01*
X155484614Y-71497729D01*
X155505141Y-71250005D01*
X155505141Y-71249994D01*
X155484614Y-71002270D01*
X155484612Y-71002261D01*
X155423587Y-70761282D01*
X155323731Y-70533630D01*
X155223434Y-70380116D01*
X154523787Y-71079764D01*
X154512518Y-71037708D01*
X154440110Y-70912292D01*
X154337708Y-70809890D01*
X154212292Y-70737482D01*
X154170235Y-70726212D01*
X154870057Y-70026390D01*
X154870056Y-70026389D01*
X154823229Y-69989943D01*
X154604614Y-69871635D01*
X154604603Y-69871630D01*
X154369493Y-69790916D01*
X154124293Y-69750000D01*
X153875707Y-69750000D01*
X153630506Y-69790916D01*
X153395396Y-69871630D01*
X153395390Y-69871632D01*
X153176761Y-69989949D01*
X153129942Y-70026388D01*
X153129942Y-70026390D01*
X153829765Y-70726212D01*
X153787708Y-70737482D01*
X153662292Y-70809890D01*
X153559890Y-70912292D01*
X153487482Y-71037708D01*
X153476212Y-71079764D01*
X152776564Y-70380116D01*
X152676267Y-70533632D01*
X152576412Y-70761282D01*
X152515387Y-71002261D01*
X152515385Y-71002270D01*
X152494859Y-71249994D01*
X151005643Y-71249994D01*
X150985109Y-71002187D01*
X150985107Y-71002175D01*
X150924063Y-70761118D01*
X150824173Y-70533393D01*
X150688166Y-70325217D01*
X150618928Y-70250005D01*
X150519744Y-70142262D01*
X150323509Y-69989526D01*
X150323507Y-69989525D01*
X150323506Y-69989524D01*
X150126101Y-69882694D01*
X150087115Y-69843999D01*
X150038977Y-69847624D01*
X150024617Y-69843641D01*
X149869616Y-69790429D01*
X149624335Y-69749500D01*
X149375665Y-69749500D01*
X149130383Y-69790429D01*
X148895197Y-69871169D01*
X148895188Y-69871172D01*
X148676493Y-69989524D01*
X148480257Y-70142261D01*
X148311833Y-70325217D01*
X148175827Y-70533391D01*
X148113282Y-70675979D01*
X148068325Y-70729464D01*
X148001589Y-70750154D01*
X147934261Y-70731479D01*
X147887718Y-70679368D01*
X147886170Y-70675978D01*
X147823731Y-70533630D01*
X147723434Y-70380116D01*
X147023787Y-71079764D01*
X147012518Y-71037708D01*
X146940110Y-70912292D01*
X146837708Y-70809890D01*
X146712292Y-70737482D01*
X146670235Y-70726212D01*
X147370057Y-70026390D01*
X147370056Y-70026389D01*
X147323229Y-69989943D01*
X147104614Y-69871635D01*
X147104603Y-69871630D01*
X146943979Y-69816487D01*
X146886963Y-69776101D01*
X146860833Y-69711301D01*
X146873885Y-69642662D01*
X146921974Y-69591974D01*
X146925225Y-69590151D01*
X147073228Y-69510056D01*
X147073231Y-69510055D01*
X147120056Y-69473609D01*
X146420234Y-68773787D01*
X146462292Y-68762518D01*
X146587708Y-68690110D01*
X146690110Y-68587708D01*
X146762518Y-68462292D01*
X146773787Y-68420235D01*
X147473434Y-69119882D01*
X147573731Y-68966369D01*
X147673587Y-68738717D01*
X147734612Y-68497738D01*
X147734614Y-68497729D01*
X147755141Y-68250005D01*
X147755141Y-68249994D01*
X149244357Y-68249994D01*
X149244357Y-68250005D01*
X149264890Y-68497812D01*
X149264892Y-68497824D01*
X149325936Y-68738881D01*
X149425826Y-68966606D01*
X149561833Y-69174782D01*
X149561836Y-69174785D01*
X149730256Y-69357738D01*
X149926491Y-69510474D01*
X149926494Y-69510476D01*
X149926496Y-69510477D01*
X150123897Y-69617305D01*
X150162883Y-69655999D01*
X150211022Y-69652375D01*
X150225382Y-69656358D01*
X150378964Y-69709083D01*
X150380386Y-69709571D01*
X150625665Y-69750500D01*
X150874335Y-69750500D01*
X151119614Y-69709571D01*
X151354810Y-69628828D01*
X151573509Y-69510474D01*
X151769744Y-69357738D01*
X151938164Y-69174785D01*
X152074173Y-68966607D01*
X152174063Y-68738881D01*
X152235108Y-68497821D01*
X152238052Y-68462292D01*
X152255643Y-68250005D01*
X152255643Y-68249994D01*
X152235109Y-68002187D01*
X152235107Y-68002175D01*
X152174063Y-67761118D01*
X152074173Y-67533393D01*
X151938166Y-67325217D01*
X151869384Y-67250500D01*
X151769744Y-67142262D01*
X151573509Y-66989526D01*
X151573507Y-66989525D01*
X151573506Y-66989524D01*
X151354811Y-66871172D01*
X151354802Y-66871169D01*
X151119616Y-66790429D01*
X150874335Y-66749500D01*
X150625665Y-66749500D01*
X150380383Y-66790429D01*
X150145197Y-66871169D01*
X150145188Y-66871172D01*
X149926493Y-66989524D01*
X149730257Y-67142261D01*
X149561833Y-67325217D01*
X149425826Y-67533393D01*
X149325936Y-67761118D01*
X149264892Y-68002175D01*
X149264890Y-68002187D01*
X149244357Y-68249994D01*
X147755141Y-68249994D01*
X147734614Y-68002270D01*
X147734612Y-68002261D01*
X147673587Y-67761282D01*
X147573731Y-67533630D01*
X147473434Y-67380116D01*
X146773787Y-68079764D01*
X146762518Y-68037708D01*
X146690110Y-67912292D01*
X146587708Y-67809890D01*
X146462292Y-67737482D01*
X146420235Y-67726212D01*
X147120057Y-67026390D01*
X147120056Y-67026389D01*
X147073229Y-66989943D01*
X146854614Y-66871635D01*
X146854603Y-66871630D01*
X146619493Y-66790916D01*
X146374293Y-66750000D01*
X146125707Y-66750000D01*
X145880506Y-66790916D01*
X145645396Y-66871630D01*
X145645390Y-66871632D01*
X145426761Y-66989949D01*
X145379942Y-67026388D01*
X145379942Y-67026390D01*
X146079765Y-67726212D01*
X146037708Y-67737482D01*
X145912292Y-67809890D01*
X145809890Y-67912292D01*
X145737482Y-68037708D01*
X145726212Y-68079764D01*
X145026564Y-67380116D01*
X144926267Y-67533632D01*
X144826412Y-67761282D01*
X144765387Y-68002261D01*
X144765385Y-68002270D01*
X144744859Y-68249994D01*
X144744859Y-68250005D01*
X144765385Y-68497729D01*
X144765387Y-68497738D01*
X144826412Y-68738717D01*
X144926266Y-68966364D01*
X145026564Y-69119882D01*
X145726212Y-68420234D01*
X145737482Y-68462292D01*
X145809890Y-68587708D01*
X145912292Y-68690110D01*
X146037708Y-68762518D01*
X146079765Y-68773787D01*
X145379942Y-69473609D01*
X145426768Y-69510055D01*
X145426770Y-69510056D01*
X145645385Y-69628364D01*
X145645396Y-69628369D01*
X145806020Y-69683512D01*
X145863035Y-69723898D01*
X145889166Y-69788697D01*
X145876114Y-69857337D01*
X145828026Y-69908025D01*
X145824775Y-69909848D01*
X145676761Y-69989949D01*
X145629942Y-70026388D01*
X145629942Y-70026390D01*
X146329765Y-70726212D01*
X146287708Y-70737482D01*
X146162292Y-70809890D01*
X146059890Y-70912292D01*
X145987482Y-71037708D01*
X145976212Y-71079764D01*
X145276564Y-70380116D01*
X145176267Y-70533632D01*
X145076412Y-70761282D01*
X145015387Y-71002261D01*
X145015385Y-71002270D01*
X144994859Y-71249994D01*
X144994859Y-71250005D01*
X145015385Y-71497729D01*
X145015387Y-71497738D01*
X145076412Y-71738717D01*
X145176266Y-71966364D01*
X145276564Y-72119882D01*
X145976212Y-71420234D01*
X145987482Y-71462292D01*
X146059890Y-71587708D01*
X146162292Y-71690110D01*
X146287708Y-71762518D01*
X146329765Y-71773787D01*
X145629942Y-72473609D01*
X145676768Y-72510055D01*
X145676770Y-72510056D01*
X145895385Y-72628364D01*
X145895396Y-72628369D01*
X146130506Y-72709083D01*
X146375707Y-72750000D01*
X146624293Y-72750000D01*
X146869493Y-72709083D01*
X147104603Y-72628369D01*
X147104614Y-72628364D01*
X147323228Y-72510057D01*
X147323231Y-72510055D01*
X147370056Y-72473609D01*
X146670234Y-71773787D01*
X146712292Y-71762518D01*
X146837708Y-71690110D01*
X146940110Y-71587708D01*
X147012518Y-71462292D01*
X147023787Y-71420235D01*
X147723434Y-72119882D01*
X147823732Y-71966367D01*
X147886170Y-71824022D01*
X147931125Y-71770536D01*
X147997861Y-71749845D01*
X148065189Y-71768519D01*
X148111733Y-71820629D01*
X148113282Y-71824020D01*
X148175827Y-71966608D01*
X148311833Y-72174782D01*
X148311836Y-72174785D01*
X148480256Y-72357738D01*
X148676491Y-72510474D01*
X148676494Y-72510476D01*
X148676496Y-72510477D01*
X148742609Y-72546255D01*
X148834517Y-72595993D01*
X148884108Y-72645212D01*
X148899500Y-72705048D01*
X148899500Y-76294951D01*
X148879815Y-76361990D01*
X148834518Y-76404006D01*
X148676493Y-76489524D01*
X148480257Y-76642261D01*
X148311833Y-76825217D01*
X148175827Y-77033391D01*
X148113282Y-77175979D01*
X148068325Y-77229464D01*
X148001589Y-77250154D01*
X147934261Y-77231479D01*
X147887718Y-77179368D01*
X147886170Y-77175978D01*
X147823731Y-77033630D01*
X147723434Y-76880116D01*
X147023787Y-77579764D01*
X147012518Y-77537708D01*
X146940110Y-77412292D01*
X146837708Y-77309890D01*
X146712292Y-77237482D01*
X146670235Y-77226212D01*
X147370057Y-76526390D01*
X147370056Y-76526389D01*
X147323229Y-76489943D01*
X147104614Y-76371635D01*
X147104603Y-76371630D01*
X146869493Y-76290916D01*
X146624293Y-76250000D01*
X146375707Y-76250000D01*
X146130506Y-76290916D01*
X145895396Y-76371630D01*
X145895390Y-76371632D01*
X145676761Y-76489949D01*
X145629942Y-76526388D01*
X145629942Y-76526390D01*
X146329765Y-77226212D01*
X146287708Y-77237482D01*
X146162292Y-77309890D01*
X146059890Y-77412292D01*
X145987482Y-77537708D01*
X145976212Y-77579764D01*
X145276564Y-76880116D01*
X145176267Y-77033632D01*
X145076412Y-77261282D01*
X145015387Y-77502261D01*
X145015385Y-77502270D01*
X144994859Y-77749994D01*
X144994859Y-77750005D01*
X145015385Y-77997729D01*
X145015387Y-77997738D01*
X145076412Y-78238717D01*
X145176266Y-78466364D01*
X145276564Y-78619882D01*
X145976212Y-77920234D01*
X145987482Y-77962292D01*
X146059890Y-78087708D01*
X146162292Y-78190110D01*
X146287708Y-78262518D01*
X146329765Y-78273787D01*
X145640371Y-78963181D01*
X145579048Y-78996666D01*
X145552690Y-78999500D01*
X143171934Y-78999500D01*
X143104895Y-78979815D01*
X143059140Y-78927011D01*
X143049196Y-78857853D01*
X143078221Y-78794297D01*
X143080681Y-78791542D01*
X143188164Y-78674785D01*
X143324173Y-78466607D01*
X143424063Y-78238881D01*
X143485108Y-77997821D01*
X143505643Y-77750000D01*
X143485108Y-77502179D01*
X143485107Y-77502175D01*
X143424063Y-77261118D01*
X143324173Y-77033393D01*
X143188166Y-76825217D01*
X143166557Y-76801744D01*
X143019744Y-76642262D01*
X142823509Y-76489526D01*
X142823507Y-76489525D01*
X142823506Y-76489524D01*
X142665482Y-76404006D01*
X142615892Y-76354786D01*
X142600500Y-76294951D01*
X142600500Y-72705048D01*
X142620185Y-72638009D01*
X142665481Y-72595993D01*
X142823509Y-72510474D01*
X143019744Y-72357738D01*
X143188164Y-72174785D01*
X143324173Y-71966607D01*
X143424063Y-71738881D01*
X143485108Y-71497821D01*
X143485116Y-71497729D01*
X143505643Y-71250005D01*
X143505643Y-71249994D01*
X143485109Y-71002187D01*
X143485107Y-71002175D01*
X143424063Y-70761118D01*
X143324173Y-70533393D01*
X143188166Y-70325217D01*
X143118928Y-70250005D01*
X143019744Y-70142262D01*
X142823509Y-69989526D01*
X142823507Y-69989525D01*
X142823506Y-69989524D01*
X142817395Y-69986217D01*
X142812474Y-69983554D01*
X142762885Y-69934335D01*
X142747777Y-69866119D01*
X142771947Y-69800563D01*
X142827723Y-69758482D01*
X142871493Y-69750500D01*
X142874335Y-69750500D01*
X143119614Y-69709571D01*
X143354810Y-69628828D01*
X143573509Y-69510474D01*
X143769744Y-69357738D01*
X143938164Y-69174785D01*
X144074173Y-68966607D01*
X144174063Y-68738881D01*
X144235108Y-68497821D01*
X144238052Y-68462292D01*
X144255643Y-68250005D01*
X144255643Y-68249994D01*
X144235109Y-68002187D01*
X144235107Y-68002175D01*
X144174063Y-67761118D01*
X144074173Y-67533393D01*
X143938166Y-67325217D01*
X143869384Y-67250500D01*
X143769744Y-67142262D01*
X143573509Y-66989526D01*
X143573507Y-66989525D01*
X143573506Y-66989524D01*
X143354811Y-66871172D01*
X143354802Y-66871169D01*
X143119616Y-66790429D01*
X142874335Y-66749500D01*
X142625665Y-66749500D01*
X142380383Y-66790429D01*
X142145197Y-66871169D01*
X142145188Y-66871172D01*
X141926493Y-66989524D01*
X141730257Y-67142261D01*
X141561833Y-67325217D01*
X141425826Y-67533393D01*
X141325936Y-67761118D01*
X141264892Y-68002175D01*
X141264890Y-68002187D01*
X141244357Y-68249994D01*
X141244357Y-68250005D01*
X141264890Y-68497812D01*
X141264892Y-68497824D01*
X141325936Y-68738881D01*
X141425826Y-68966606D01*
X141561833Y-69174782D01*
X141561836Y-69174785D01*
X141730256Y-69357738D01*
X141926491Y-69510474D01*
X141937525Y-69516445D01*
X141987115Y-69565665D01*
X142002223Y-69633881D01*
X141978053Y-69699437D01*
X141922277Y-69741518D01*
X141878507Y-69749500D01*
X141875665Y-69749500D01*
X141630383Y-69790429D01*
X141395197Y-69871169D01*
X141395188Y-69871172D01*
X141176493Y-69989524D01*
X140980257Y-70142261D01*
X140811833Y-70325217D01*
X140675827Y-70533391D01*
X140613282Y-70675979D01*
X140568325Y-70729464D01*
X140501589Y-70750154D01*
X140434261Y-70731479D01*
X140387718Y-70679368D01*
X140386170Y-70675978D01*
X140323731Y-70533630D01*
X140223434Y-70380116D01*
X139523787Y-71079764D01*
X139512518Y-71037708D01*
X139440110Y-70912292D01*
X139337708Y-70809890D01*
X139212292Y-70737482D01*
X139170235Y-70726212D01*
X139870057Y-70026390D01*
X139870056Y-70026389D01*
X139823229Y-69989943D01*
X139604614Y-69871635D01*
X139604603Y-69871630D01*
X139369493Y-69790916D01*
X139124293Y-69750000D01*
X139119518Y-69750000D01*
X139052479Y-69730315D01*
X139006724Y-69677511D01*
X138996780Y-69608353D01*
X139025805Y-69544797D01*
X139060500Y-69516945D01*
X139073232Y-69510054D01*
X139120056Y-69473609D01*
X138420234Y-68773787D01*
X138462292Y-68762518D01*
X138587708Y-68690110D01*
X138690110Y-68587708D01*
X138762518Y-68462292D01*
X138773787Y-68420235D01*
X139473434Y-69119882D01*
X139573731Y-68966369D01*
X139673587Y-68738717D01*
X139734612Y-68497738D01*
X139734614Y-68497729D01*
X139755141Y-68250005D01*
X139755141Y-68249994D01*
X139734614Y-68002270D01*
X139734612Y-68002261D01*
X139673587Y-67761282D01*
X139573731Y-67533630D01*
X139473434Y-67380116D01*
X138773787Y-68079764D01*
X138762518Y-68037708D01*
X138690110Y-67912292D01*
X138587708Y-67809890D01*
X138462292Y-67737482D01*
X138420235Y-67726212D01*
X139120057Y-67026390D01*
X139120056Y-67026389D01*
X139073229Y-66989943D01*
X138854614Y-66871635D01*
X138854603Y-66871630D01*
X138619493Y-66790916D01*
X138374293Y-66750000D01*
X138125707Y-66750000D01*
X137880506Y-66790916D01*
X137645396Y-66871630D01*
X137645390Y-66871632D01*
X137426761Y-66989949D01*
X137379942Y-67026388D01*
X137379942Y-67026390D01*
X138079765Y-67726212D01*
X138037708Y-67737482D01*
X137912292Y-67809890D01*
X137809890Y-67912292D01*
X137737482Y-68037708D01*
X137726212Y-68079764D01*
X137026564Y-67380116D01*
X136926267Y-67533632D01*
X136826412Y-67761282D01*
X136765387Y-68002261D01*
X136765385Y-68002270D01*
X136744859Y-68249994D01*
X136744859Y-68250005D01*
X136765385Y-68497729D01*
X136765387Y-68497738D01*
X136826412Y-68738717D01*
X136926266Y-68966364D01*
X137026564Y-69119882D01*
X137726212Y-68420234D01*
X137737482Y-68462292D01*
X137809890Y-68587708D01*
X137912292Y-68690110D01*
X138037708Y-68762518D01*
X138079765Y-68773787D01*
X137379942Y-69473609D01*
X137426768Y-69510055D01*
X137426770Y-69510056D01*
X137645385Y-69628364D01*
X137645396Y-69628369D01*
X137880506Y-69709083D01*
X138125707Y-69750000D01*
X138130483Y-69750000D01*
X138197522Y-69769685D01*
X138243277Y-69822489D01*
X138253221Y-69891647D01*
X138224196Y-69955203D01*
X138189501Y-69983055D01*
X138176761Y-69989949D01*
X138129942Y-70026388D01*
X138129942Y-70026390D01*
X138829765Y-70726212D01*
X138787708Y-70737482D01*
X138662292Y-70809890D01*
X138559890Y-70912292D01*
X138487482Y-71037708D01*
X138476212Y-71079764D01*
X137776564Y-70380116D01*
X137676267Y-70533632D01*
X137576412Y-70761282D01*
X137515387Y-71002261D01*
X137515385Y-71002270D01*
X137494859Y-71249994D01*
X137494859Y-71250005D01*
X137515385Y-71497729D01*
X137515387Y-71497738D01*
X137576412Y-71738717D01*
X137676266Y-71966364D01*
X137776564Y-72119882D01*
X138476212Y-71420234D01*
X138487482Y-71462292D01*
X138559890Y-71587708D01*
X138662292Y-71690110D01*
X138787708Y-71762518D01*
X138829765Y-71773787D01*
X138129942Y-72473609D01*
X138176768Y-72510055D01*
X138176770Y-72510056D01*
X138395385Y-72628364D01*
X138395396Y-72628369D01*
X138630506Y-72709083D01*
X138875707Y-72750000D01*
X139124293Y-72750000D01*
X139369493Y-72709083D01*
X139604603Y-72628369D01*
X139604614Y-72628364D01*
X139823228Y-72510057D01*
X139823231Y-72510055D01*
X139870056Y-72473609D01*
X139170234Y-71773787D01*
X139212292Y-71762518D01*
X139337708Y-71690110D01*
X139440110Y-71587708D01*
X139512518Y-71462292D01*
X139523787Y-71420235D01*
X140223434Y-72119882D01*
X140323732Y-71966367D01*
X140386170Y-71824022D01*
X140431125Y-71770536D01*
X140497861Y-71749845D01*
X140565189Y-71768519D01*
X140611733Y-71820629D01*
X140613282Y-71824020D01*
X140675827Y-71966608D01*
X140811833Y-72174782D01*
X140811836Y-72174785D01*
X140980256Y-72357738D01*
X141176491Y-72510474D01*
X141176494Y-72510476D01*
X141176496Y-72510477D01*
X141242609Y-72546255D01*
X141334517Y-72595993D01*
X141384108Y-72645212D01*
X141399500Y-72705048D01*
X141399500Y-76294951D01*
X141379815Y-76361990D01*
X141334518Y-76404006D01*
X141176493Y-76489524D01*
X140980257Y-76642261D01*
X140811833Y-76825217D01*
X140675827Y-77033391D01*
X140613282Y-77175979D01*
X140568325Y-77229464D01*
X140501589Y-77250154D01*
X140434261Y-77231479D01*
X140387718Y-77179368D01*
X140386170Y-77175978D01*
X140323731Y-77033630D01*
X140223434Y-76880116D01*
X139523787Y-77579764D01*
X139512518Y-77537708D01*
X139440110Y-77412292D01*
X139337708Y-77309890D01*
X139212292Y-77237482D01*
X139170235Y-77226212D01*
X139870057Y-76526390D01*
X139870056Y-76526389D01*
X139823229Y-76489943D01*
X139604614Y-76371635D01*
X139604603Y-76371630D01*
X139369493Y-76290916D01*
X139124293Y-76250000D01*
X138875707Y-76250000D01*
X138630506Y-76290916D01*
X138395396Y-76371630D01*
X138395390Y-76371632D01*
X138176761Y-76489949D01*
X138129942Y-76526388D01*
X138129942Y-76526390D01*
X138829765Y-77226212D01*
X138787708Y-77237482D01*
X138662292Y-77309890D01*
X138559890Y-77412292D01*
X138487482Y-77537708D01*
X138476212Y-77579764D01*
X137776564Y-76880116D01*
X137676267Y-77033632D01*
X137576412Y-77261282D01*
X137515387Y-77502261D01*
X137515385Y-77502270D01*
X137494859Y-77749994D01*
X137494859Y-77750005D01*
X137515385Y-77997729D01*
X137515387Y-77997738D01*
X137576412Y-78238717D01*
X137676266Y-78466364D01*
X137776564Y-78619882D01*
X138476212Y-77920234D01*
X138487482Y-77962292D01*
X138559890Y-78087708D01*
X138662292Y-78190110D01*
X138787708Y-78262518D01*
X138829765Y-78273787D01*
X138140371Y-78963181D01*
X138079048Y-78996666D01*
X138052690Y-78999500D01*
X135671934Y-78999500D01*
X135604895Y-78979815D01*
X135559140Y-78927011D01*
X135549196Y-78857853D01*
X135578221Y-78794297D01*
X135580681Y-78791542D01*
X135688164Y-78674785D01*
X135824173Y-78466607D01*
X135924063Y-78238881D01*
X135985108Y-77997821D01*
X136005643Y-77750000D01*
X135985108Y-77502179D01*
X135985107Y-77502175D01*
X135924063Y-77261118D01*
X135824173Y-77033393D01*
X135688166Y-76825217D01*
X135666557Y-76801744D01*
X135519744Y-76642262D01*
X135323509Y-76489526D01*
X135323507Y-76489525D01*
X135323506Y-76489524D01*
X135165482Y-76404006D01*
X135115892Y-76354786D01*
X135100500Y-76294951D01*
X135100500Y-72705048D01*
X135120185Y-72638009D01*
X135165481Y-72595993D01*
X135323509Y-72510474D01*
X135519744Y-72357738D01*
X135688164Y-72174785D01*
X135824173Y-71966607D01*
X135924063Y-71738881D01*
X135985108Y-71497821D01*
X135985116Y-71497729D01*
X136005643Y-71250005D01*
X136005643Y-71249994D01*
X135985109Y-71002187D01*
X135985107Y-71002175D01*
X135924063Y-70761118D01*
X135824173Y-70533393D01*
X135688166Y-70325217D01*
X135618928Y-70250005D01*
X135519744Y-70142262D01*
X135323509Y-69989526D01*
X135323507Y-69989525D01*
X135323506Y-69989524D01*
X135176467Y-69909951D01*
X135126877Y-69860731D01*
X135111769Y-69792515D01*
X135135939Y-69726959D01*
X135191715Y-69684878D01*
X135195222Y-69683615D01*
X135240419Y-69668098D01*
X135354810Y-69628828D01*
X135573509Y-69510474D01*
X135769744Y-69357738D01*
X135938164Y-69174785D01*
X136074173Y-68966607D01*
X136174063Y-68738881D01*
X136235108Y-68497821D01*
X136238052Y-68462292D01*
X136255643Y-68250005D01*
X136255643Y-68249994D01*
X136235109Y-68002187D01*
X136235107Y-68002175D01*
X136174063Y-67761118D01*
X136074173Y-67533393D01*
X135938166Y-67325217D01*
X135869384Y-67250500D01*
X135769744Y-67142262D01*
X135573509Y-66989526D01*
X135573507Y-66989525D01*
X135573506Y-66989524D01*
X135354811Y-66871172D01*
X135354802Y-66871169D01*
X135119616Y-66790429D01*
X134874335Y-66749500D01*
X134625665Y-66749500D01*
X134380383Y-66790429D01*
X134145197Y-66871169D01*
X134145188Y-66871172D01*
X133926493Y-66989524D01*
X133730257Y-67142261D01*
X133561833Y-67325217D01*
X133425826Y-67533393D01*
X133325936Y-67761118D01*
X133264892Y-68002175D01*
X133264890Y-68002187D01*
X133244357Y-68249994D01*
X133244357Y-68250005D01*
X133264890Y-68497812D01*
X133264892Y-68497824D01*
X133325936Y-68738881D01*
X133425826Y-68966606D01*
X133561833Y-69174782D01*
X133561836Y-69174785D01*
X133730256Y-69357738D01*
X133926491Y-69510474D01*
X133926494Y-69510476D01*
X133926496Y-69510477D01*
X133969283Y-69533632D01*
X134073122Y-69589827D01*
X134073531Y-69590048D01*
X134123122Y-69639267D01*
X134138230Y-69707484D01*
X134114060Y-69773040D01*
X134058284Y-69815121D01*
X134054778Y-69816384D01*
X133895194Y-69871170D01*
X133895188Y-69871172D01*
X133676493Y-69989524D01*
X133480257Y-70142261D01*
X133311833Y-70325217D01*
X133175827Y-70533391D01*
X133113282Y-70675979D01*
X133068325Y-70729464D01*
X133001589Y-70750154D01*
X132934261Y-70731479D01*
X132887718Y-70679368D01*
X132886170Y-70675978D01*
X132823731Y-70533630D01*
X132723434Y-70380116D01*
X132023787Y-71079764D01*
X132012518Y-71037708D01*
X131940110Y-70912292D01*
X131837708Y-70809890D01*
X131712292Y-70737482D01*
X131670235Y-70726212D01*
X132370057Y-70026390D01*
X132370056Y-70026389D01*
X132323229Y-69989943D01*
X132104614Y-69871635D01*
X132104603Y-69871630D01*
X131869493Y-69790916D01*
X131624293Y-69750000D01*
X131375707Y-69750000D01*
X131130504Y-69790916D01*
X130969827Y-69846077D01*
X130910801Y-69848740D01*
X130892108Y-69872390D01*
X130879452Y-69880258D01*
X130676761Y-69989949D01*
X130629942Y-70026388D01*
X130629942Y-70026390D01*
X131329765Y-70726212D01*
X131287708Y-70737482D01*
X131162292Y-70809890D01*
X131059890Y-70912292D01*
X130987482Y-71037708D01*
X130976212Y-71079764D01*
X130276564Y-70380116D01*
X130176267Y-70533632D01*
X130076412Y-70761282D01*
X130015387Y-71002261D01*
X130015385Y-71002270D01*
X129994859Y-71249994D01*
X129994859Y-71250005D01*
X130015385Y-71497729D01*
X130015387Y-71497738D01*
X130076412Y-71738717D01*
X130176266Y-71966364D01*
X130276564Y-72119882D01*
X130976212Y-71420234D01*
X130987482Y-71462292D01*
X131059890Y-71587708D01*
X131162292Y-71690110D01*
X131287708Y-71762518D01*
X131329765Y-71773787D01*
X130629942Y-72473609D01*
X130676768Y-72510055D01*
X130676770Y-72510056D01*
X130895385Y-72628364D01*
X130895396Y-72628369D01*
X131130506Y-72709083D01*
X131375707Y-72750000D01*
X131624293Y-72750000D01*
X131869493Y-72709083D01*
X132104603Y-72628369D01*
X132104614Y-72628364D01*
X132323228Y-72510057D01*
X132323231Y-72510055D01*
X132370056Y-72473609D01*
X131670234Y-71773787D01*
X131712292Y-71762518D01*
X131837708Y-71690110D01*
X131940110Y-71587708D01*
X132012518Y-71462292D01*
X132023787Y-71420235D01*
X132723434Y-72119882D01*
X132823732Y-71966367D01*
X132886170Y-71824022D01*
X132931125Y-71770536D01*
X132997861Y-71749845D01*
X133065189Y-71768519D01*
X133111733Y-71820629D01*
X133113282Y-71824020D01*
X133175827Y-71966608D01*
X133311833Y-72174782D01*
X133311836Y-72174785D01*
X133480256Y-72357738D01*
X133676491Y-72510474D01*
X133676494Y-72510476D01*
X133676496Y-72510477D01*
X133742609Y-72546255D01*
X133834517Y-72595993D01*
X133884108Y-72645212D01*
X133899500Y-72705048D01*
X133899500Y-76294951D01*
X133879815Y-76361990D01*
X133834518Y-76404006D01*
X133676493Y-76489524D01*
X133480257Y-76642261D01*
X133311833Y-76825217D01*
X133175827Y-77033391D01*
X133113282Y-77175979D01*
X133068325Y-77229464D01*
X133001589Y-77250154D01*
X132934261Y-77231479D01*
X132887718Y-77179368D01*
X132886170Y-77175978D01*
X132823731Y-77033630D01*
X132723434Y-76880116D01*
X132023787Y-77579764D01*
X132012518Y-77537708D01*
X131940110Y-77412292D01*
X131837708Y-77309890D01*
X131712292Y-77237482D01*
X131670235Y-77226212D01*
X132370057Y-76526390D01*
X132370056Y-76526389D01*
X132323229Y-76489943D01*
X132104614Y-76371635D01*
X132104603Y-76371630D01*
X131869493Y-76290916D01*
X131624293Y-76250000D01*
X131375707Y-76250000D01*
X131130506Y-76290916D01*
X130895396Y-76371630D01*
X130895390Y-76371632D01*
X130676761Y-76489949D01*
X130629942Y-76526388D01*
X130629942Y-76526390D01*
X131329765Y-77226212D01*
X131287708Y-77237482D01*
X131162292Y-77309890D01*
X131059890Y-77412292D01*
X130987482Y-77537708D01*
X130976212Y-77579764D01*
X130276564Y-76880116D01*
X130176267Y-77033632D01*
X130076412Y-77261282D01*
X130015387Y-77502261D01*
X130015385Y-77502270D01*
X129994859Y-77749994D01*
X129994859Y-77750005D01*
X130015385Y-77997729D01*
X130015387Y-77997738D01*
X130076412Y-78238717D01*
X130176266Y-78466364D01*
X130276564Y-78619882D01*
X130976212Y-77920234D01*
X130987482Y-77962292D01*
X131059890Y-78087708D01*
X131162292Y-78190110D01*
X131287708Y-78262518D01*
X131329765Y-78273787D01*
X130640371Y-78963181D01*
X130579048Y-78996666D01*
X130552690Y-78999500D01*
X128171934Y-78999500D01*
X128104895Y-78979815D01*
X128059140Y-78927011D01*
X128049196Y-78857853D01*
X128078221Y-78794297D01*
X128080681Y-78791542D01*
X128188164Y-78674785D01*
X128324173Y-78466607D01*
X128424063Y-78238881D01*
X128485108Y-77997821D01*
X128505643Y-77750000D01*
X128485108Y-77502179D01*
X128485107Y-77502175D01*
X128424063Y-77261118D01*
X128324173Y-77033393D01*
X128188166Y-76825217D01*
X128166557Y-76801744D01*
X128019744Y-76642262D01*
X127823509Y-76489526D01*
X127823507Y-76489525D01*
X127823506Y-76489524D01*
X127665482Y-76404006D01*
X127615892Y-76354786D01*
X127600500Y-76294951D01*
X127600500Y-72705048D01*
X127620185Y-72638009D01*
X127665481Y-72595993D01*
X127823509Y-72510474D01*
X128019744Y-72357738D01*
X128188164Y-72174785D01*
X128324173Y-71966607D01*
X128424063Y-71738881D01*
X128485108Y-71497821D01*
X128485116Y-71497729D01*
X128505643Y-71250005D01*
X128505643Y-71249994D01*
X128485109Y-71002187D01*
X128485107Y-71002175D01*
X128424063Y-70761118D01*
X128324173Y-70533393D01*
X128188166Y-70325217D01*
X128118928Y-70250005D01*
X128019744Y-70142262D01*
X127823509Y-69989526D01*
X127823507Y-69989525D01*
X127823506Y-69989524D01*
X127604811Y-69871172D01*
X127604802Y-69871169D01*
X127369616Y-69790429D01*
X127124335Y-69749500D01*
X126875665Y-69749500D01*
X126630383Y-69790429D01*
X126395197Y-69871169D01*
X126395188Y-69871172D01*
X126176493Y-69989524D01*
X125980257Y-70142261D01*
X125811833Y-70325217D01*
X125675827Y-70533391D01*
X125613282Y-70675979D01*
X125568325Y-70729464D01*
X125501589Y-70750154D01*
X125434261Y-70731479D01*
X125387718Y-70679368D01*
X125386170Y-70675978D01*
X125323731Y-70533630D01*
X125223434Y-70380116D01*
X124523787Y-71079764D01*
X124512518Y-71037708D01*
X124440110Y-70912292D01*
X124337708Y-70809890D01*
X124212292Y-70737482D01*
X124170235Y-70726212D01*
X124870057Y-70026390D01*
X124870056Y-70026389D01*
X124823229Y-69989943D01*
X124604614Y-69871635D01*
X124604603Y-69871630D01*
X124369493Y-69790916D01*
X124124293Y-69750000D01*
X123875707Y-69750000D01*
X123630506Y-69790916D01*
X123395396Y-69871630D01*
X123395390Y-69871632D01*
X123176761Y-69989949D01*
X123129942Y-70026388D01*
X123129942Y-70026390D01*
X123829765Y-70726212D01*
X123787708Y-70737482D01*
X123662292Y-70809890D01*
X123559890Y-70912292D01*
X123487482Y-71037708D01*
X123476212Y-71079764D01*
X122776564Y-70380116D01*
X122676267Y-70533632D01*
X122576412Y-70761282D01*
X122515387Y-71002261D01*
X122515385Y-71002270D01*
X122494859Y-71249994D01*
X122494859Y-71250005D01*
X122515385Y-71497729D01*
X122515387Y-71497738D01*
X122576412Y-71738717D01*
X122676266Y-71966364D01*
X122776564Y-72119882D01*
X123476212Y-71420234D01*
X123487482Y-71462292D01*
X123559890Y-71587708D01*
X123662292Y-71690110D01*
X123787708Y-71762518D01*
X123829765Y-71773787D01*
X123129942Y-72473609D01*
X123176768Y-72510055D01*
X123176770Y-72510056D01*
X123395385Y-72628364D01*
X123395396Y-72628369D01*
X123630506Y-72709083D01*
X123875707Y-72750000D01*
X124124293Y-72750000D01*
X124369493Y-72709083D01*
X124604603Y-72628369D01*
X124604614Y-72628364D01*
X124823228Y-72510057D01*
X124823231Y-72510055D01*
X124870056Y-72473609D01*
X124170234Y-71773787D01*
X124212292Y-71762518D01*
X124337708Y-71690110D01*
X124440110Y-71587708D01*
X124512518Y-71462292D01*
X124523787Y-71420235D01*
X125223434Y-72119882D01*
X125323732Y-71966367D01*
X125386170Y-71824022D01*
X125431125Y-71770536D01*
X125497861Y-71749845D01*
X125565189Y-71768519D01*
X125611733Y-71820629D01*
X125613282Y-71824020D01*
X125675827Y-71966608D01*
X125811833Y-72174782D01*
X125811836Y-72174785D01*
X125980256Y-72357738D01*
X126176491Y-72510474D01*
X126176494Y-72510476D01*
X126176496Y-72510477D01*
X126242609Y-72546255D01*
X126334517Y-72595993D01*
X126384108Y-72645212D01*
X126399500Y-72705048D01*
X126399500Y-76294951D01*
X126379815Y-76361990D01*
X126334518Y-76404006D01*
X126176493Y-76489524D01*
X125980257Y-76642261D01*
X125811833Y-76825217D01*
X125675827Y-77033391D01*
X125613282Y-77175979D01*
X125568325Y-77229464D01*
X125501589Y-77250154D01*
X125434261Y-77231479D01*
X125387718Y-77179368D01*
X125386170Y-77175978D01*
X125323731Y-77033630D01*
X125223434Y-76880116D01*
X124523787Y-77579764D01*
X124512518Y-77537708D01*
X124440110Y-77412292D01*
X124337708Y-77309890D01*
X124212292Y-77237482D01*
X124170235Y-77226212D01*
X124870057Y-76526390D01*
X124870056Y-76526389D01*
X124823229Y-76489943D01*
X124604614Y-76371635D01*
X124604603Y-76371630D01*
X124369493Y-76290916D01*
X124124293Y-76250000D01*
X123875707Y-76250000D01*
X123630506Y-76290916D01*
X123395396Y-76371630D01*
X123395390Y-76371632D01*
X123176761Y-76489949D01*
X123129942Y-76526388D01*
X123129942Y-76526390D01*
X123829765Y-77226212D01*
X123787708Y-77237482D01*
X123662292Y-77309890D01*
X123559890Y-77412292D01*
X123487482Y-77537708D01*
X123476212Y-77579764D01*
X122776564Y-76880116D01*
X122676267Y-77033632D01*
X122576412Y-77261282D01*
X122515387Y-77502261D01*
X122515385Y-77502270D01*
X122494859Y-77749994D01*
X122494859Y-77750005D01*
X122515385Y-77997729D01*
X122515387Y-77997738D01*
X122576412Y-78238717D01*
X122676266Y-78466364D01*
X122776564Y-78619882D01*
X123476212Y-77920234D01*
X123487482Y-77962292D01*
X123559890Y-78087708D01*
X123662292Y-78190110D01*
X123787708Y-78262518D01*
X123829765Y-78273787D01*
X123140371Y-78963181D01*
X123079048Y-78996666D01*
X123052690Y-78999500D01*
X120671934Y-78999500D01*
X120604895Y-78979815D01*
X120559140Y-78927011D01*
X120549196Y-78857853D01*
X120578221Y-78794297D01*
X120580681Y-78791542D01*
X120688164Y-78674785D01*
X120824173Y-78466607D01*
X120924063Y-78238881D01*
X120985108Y-77997821D01*
X121005643Y-77750000D01*
X120985108Y-77502179D01*
X120985107Y-77502175D01*
X120924063Y-77261118D01*
X120824173Y-77033393D01*
X120688166Y-76825217D01*
X120666557Y-76801744D01*
X120519744Y-76642262D01*
X120323509Y-76489526D01*
X120323507Y-76489525D01*
X120323506Y-76489524D01*
X120165482Y-76404006D01*
X120115892Y-76354786D01*
X120100500Y-76294951D01*
X120100500Y-72705048D01*
X120120185Y-72638009D01*
X120165481Y-72595993D01*
X120323509Y-72510474D01*
X120519744Y-72357738D01*
X120688164Y-72174785D01*
X120824173Y-71966607D01*
X120924063Y-71738881D01*
X120985108Y-71497821D01*
X120985116Y-71497729D01*
X121005643Y-71250005D01*
X121005643Y-71249994D01*
X120985109Y-71002187D01*
X120985107Y-71002175D01*
X120924063Y-70761118D01*
X120824173Y-70533393D01*
X120688166Y-70325217D01*
X120618928Y-70250005D01*
X120519744Y-70142262D01*
X120323509Y-69989526D01*
X120323507Y-69989525D01*
X120323506Y-69989524D01*
X120104811Y-69871172D01*
X120104802Y-69871169D01*
X119869616Y-69790429D01*
X119624335Y-69749500D01*
X119375665Y-69749500D01*
X119130383Y-69790429D01*
X118895197Y-69871169D01*
X118895188Y-69871172D01*
X118676493Y-69989524D01*
X118480257Y-70142261D01*
X118311833Y-70325217D01*
X118175827Y-70533391D01*
X118113282Y-70675979D01*
X118068325Y-70729464D01*
X118001589Y-70750154D01*
X117934261Y-70731479D01*
X117887718Y-70679368D01*
X117886170Y-70675978D01*
X117823731Y-70533630D01*
X117723434Y-70380116D01*
X117023787Y-71079764D01*
X117012518Y-71037708D01*
X116940110Y-70912292D01*
X116837708Y-70809890D01*
X116712292Y-70737482D01*
X116670235Y-70726212D01*
X117370057Y-70026390D01*
X117370056Y-70026389D01*
X117323229Y-69989943D01*
X117104614Y-69871635D01*
X117104604Y-69871630D01*
X117091934Y-69867281D01*
X117034919Y-69826896D01*
X117008788Y-69762096D01*
X117021839Y-69693456D01*
X117069928Y-69642769D01*
X117091934Y-69632719D01*
X117104604Y-69628369D01*
X117104614Y-69628364D01*
X117323228Y-69510057D01*
X117323231Y-69510055D01*
X117370056Y-69473609D01*
X116670234Y-68773787D01*
X116712292Y-68762518D01*
X116837708Y-68690110D01*
X116940110Y-68587708D01*
X117012518Y-68462292D01*
X117023787Y-68420235D01*
X117723434Y-69119882D01*
X117823731Y-68966369D01*
X117923587Y-68738717D01*
X117984612Y-68497738D01*
X117984614Y-68497729D01*
X118005141Y-68250005D01*
X118005141Y-68249994D01*
X117984614Y-68002270D01*
X117984612Y-68002261D01*
X117923587Y-67761282D01*
X117823731Y-67533630D01*
X117723434Y-67380116D01*
X117023787Y-68079764D01*
X117012518Y-68037708D01*
X116940110Y-67912292D01*
X116837708Y-67809890D01*
X116712292Y-67737482D01*
X116670235Y-67726212D01*
X117370057Y-67026390D01*
X117370056Y-67026389D01*
X117323229Y-66989943D01*
X117104614Y-66871635D01*
X117104603Y-66871630D01*
X116869493Y-66790916D01*
X116624293Y-66750000D01*
X116375707Y-66750000D01*
X116130506Y-66790916D01*
X115895396Y-66871630D01*
X115895390Y-66871632D01*
X115676761Y-66989949D01*
X115629942Y-67026388D01*
X115629942Y-67026390D01*
X116329765Y-67726212D01*
X116287708Y-67737482D01*
X116162292Y-67809890D01*
X116059890Y-67912292D01*
X115987482Y-68037708D01*
X115976212Y-68079764D01*
X115276564Y-67380116D01*
X115176267Y-67533632D01*
X115076412Y-67761282D01*
X115015387Y-68002261D01*
X115015385Y-68002270D01*
X114994859Y-68249994D01*
X114994859Y-68250005D01*
X115015385Y-68497729D01*
X115015387Y-68497738D01*
X115076412Y-68738717D01*
X115176266Y-68966364D01*
X115276564Y-69119882D01*
X115976212Y-68420234D01*
X115987482Y-68462292D01*
X116059890Y-68587708D01*
X116162292Y-68690110D01*
X116287708Y-68762518D01*
X116329765Y-68773787D01*
X115629942Y-69473609D01*
X115676768Y-69510055D01*
X115676770Y-69510056D01*
X115895385Y-69628364D01*
X115895389Y-69628366D01*
X115908067Y-69632719D01*
X115965082Y-69673106D01*
X115991211Y-69737906D01*
X115978159Y-69806546D01*
X115930069Y-69857233D01*
X115908067Y-69867281D01*
X115895390Y-69871633D01*
X115676761Y-69989949D01*
X115629942Y-70026388D01*
X115629942Y-70026390D01*
X116329765Y-70726212D01*
X116287708Y-70737482D01*
X116162292Y-70809890D01*
X116059890Y-70912292D01*
X115987482Y-71037708D01*
X115976212Y-71079764D01*
X115276564Y-70380116D01*
X115176267Y-70533632D01*
X115076412Y-70761282D01*
X115015387Y-71002261D01*
X115015385Y-71002270D01*
X114994859Y-71249994D01*
X114994859Y-71250005D01*
X115015385Y-71497729D01*
X115015387Y-71497738D01*
X115076412Y-71738717D01*
X115176266Y-71966364D01*
X115276564Y-72119882D01*
X115976212Y-71420234D01*
X115987482Y-71462292D01*
X116059890Y-71587708D01*
X116162292Y-71690110D01*
X116287708Y-71762518D01*
X116329765Y-71773787D01*
X115629942Y-72473609D01*
X115676768Y-72510055D01*
X115676770Y-72510056D01*
X115895385Y-72628364D01*
X115895396Y-72628369D01*
X116130506Y-72709083D01*
X116375707Y-72750000D01*
X116624293Y-72750000D01*
X116869493Y-72709083D01*
X117104603Y-72628369D01*
X117104614Y-72628364D01*
X117323228Y-72510057D01*
X117323231Y-72510055D01*
X117370056Y-72473609D01*
X116670234Y-71773787D01*
X116712292Y-71762518D01*
X116837708Y-71690110D01*
X116940110Y-71587708D01*
X117012518Y-71462292D01*
X117023787Y-71420235D01*
X117723434Y-72119882D01*
X117823732Y-71966367D01*
X117886170Y-71824022D01*
X117931125Y-71770536D01*
X117997861Y-71749845D01*
X118065189Y-71768519D01*
X118111733Y-71820629D01*
X118113282Y-71824020D01*
X118175827Y-71966608D01*
X118311833Y-72174782D01*
X118311836Y-72174785D01*
X118480256Y-72357738D01*
X118676491Y-72510474D01*
X118676494Y-72510476D01*
X118676496Y-72510477D01*
X118742609Y-72546255D01*
X118834517Y-72595993D01*
X118884108Y-72645212D01*
X118899500Y-72705048D01*
X118899500Y-76294951D01*
X118879815Y-76361990D01*
X118834518Y-76404006D01*
X118676493Y-76489524D01*
X118480257Y-76642261D01*
X118311833Y-76825217D01*
X118175827Y-77033391D01*
X118113282Y-77175979D01*
X118068325Y-77229464D01*
X118001589Y-77250154D01*
X117934261Y-77231479D01*
X117887718Y-77179368D01*
X117886170Y-77175978D01*
X117823731Y-77033630D01*
X117723434Y-76880116D01*
X117023787Y-77579764D01*
X117012518Y-77537708D01*
X116940110Y-77412292D01*
X116837708Y-77309890D01*
X116712292Y-77237482D01*
X116670235Y-77226212D01*
X117370057Y-76526390D01*
X117370056Y-76526389D01*
X117323229Y-76489943D01*
X117104614Y-76371635D01*
X117104603Y-76371630D01*
X116869493Y-76290916D01*
X116624293Y-76250000D01*
X116375707Y-76250000D01*
X116130506Y-76290916D01*
X115895396Y-76371630D01*
X115895390Y-76371632D01*
X115676761Y-76489949D01*
X115629942Y-76526388D01*
X115629942Y-76526390D01*
X116329765Y-77226212D01*
X116287708Y-77237482D01*
X116162292Y-77309890D01*
X116059890Y-77412292D01*
X115987482Y-77537708D01*
X115976212Y-77579764D01*
X115276564Y-76880116D01*
X115176267Y-77033632D01*
X115076412Y-77261282D01*
X115015387Y-77502261D01*
X115015385Y-77502270D01*
X114994859Y-77749994D01*
X114994859Y-77750005D01*
X115015385Y-77997729D01*
X115015387Y-77997738D01*
X115076412Y-78238717D01*
X115176266Y-78466364D01*
X115276564Y-78619882D01*
X115976212Y-77920234D01*
X115987482Y-77962292D01*
X116059890Y-78087708D01*
X116162292Y-78190110D01*
X116287708Y-78262518D01*
X116329765Y-78273787D01*
X115640371Y-78963181D01*
X115579048Y-78996666D01*
X115552690Y-78999500D01*
X113171934Y-78999500D01*
X113104895Y-78979815D01*
X113059140Y-78927011D01*
X113049196Y-78857853D01*
X113078221Y-78794297D01*
X113080681Y-78791542D01*
X113188164Y-78674785D01*
X113324173Y-78466607D01*
X113424063Y-78238881D01*
X113485108Y-77997821D01*
X113505643Y-77750000D01*
X113485108Y-77502179D01*
X113485107Y-77502175D01*
X113424063Y-77261118D01*
X113324173Y-77033393D01*
X113188166Y-76825217D01*
X113166557Y-76801744D01*
X113019744Y-76642262D01*
X112823509Y-76489526D01*
X112823507Y-76489525D01*
X112823506Y-76489524D01*
X112665482Y-76404006D01*
X112615892Y-76354786D01*
X112600500Y-76294951D01*
X112600500Y-72705048D01*
X112620185Y-72638009D01*
X112665481Y-72595993D01*
X112823509Y-72510474D01*
X113019744Y-72357738D01*
X113188164Y-72174785D01*
X113324173Y-71966607D01*
X113424063Y-71738881D01*
X113485108Y-71497821D01*
X113485116Y-71497729D01*
X113505643Y-71250005D01*
X113505643Y-71249994D01*
X113485109Y-71002187D01*
X113485107Y-71002175D01*
X113424063Y-70761118D01*
X113324173Y-70533393D01*
X113188166Y-70325217D01*
X113118928Y-70250005D01*
X113019744Y-70142262D01*
X112823509Y-69989526D01*
X112823508Y-69989525D01*
X112823505Y-69989523D01*
X112823503Y-69989522D01*
X112675869Y-69909627D01*
X112626278Y-69860407D01*
X112611170Y-69792191D01*
X112635340Y-69726635D01*
X112691116Y-69684554D01*
X112694623Y-69683291D01*
X112854604Y-69628369D01*
X112854614Y-69628364D01*
X113073228Y-69510057D01*
X113073231Y-69510055D01*
X113120056Y-69473609D01*
X112420234Y-68773787D01*
X112462292Y-68762518D01*
X112587708Y-68690110D01*
X112690110Y-68587708D01*
X112762518Y-68462292D01*
X112773787Y-68420235D01*
X113473434Y-69119882D01*
X113573731Y-68966369D01*
X113673587Y-68738717D01*
X113734612Y-68497738D01*
X113734614Y-68497729D01*
X113755141Y-68250005D01*
X113755141Y-68249994D01*
X113734614Y-68002270D01*
X113734612Y-68002261D01*
X113673587Y-67761282D01*
X113573731Y-67533630D01*
X113473434Y-67380116D01*
X112773787Y-68079764D01*
X112762518Y-68037708D01*
X112690110Y-67912292D01*
X112587708Y-67809890D01*
X112462292Y-67737482D01*
X112420235Y-67726212D01*
X113120057Y-67026390D01*
X113120056Y-67026389D01*
X113073229Y-66989943D01*
X112854614Y-66871635D01*
X112854603Y-66871630D01*
X112619493Y-66790916D01*
X112374293Y-66750000D01*
X112125707Y-66750000D01*
X111880506Y-66790916D01*
X111645396Y-66871630D01*
X111645390Y-66871632D01*
X111426761Y-66989949D01*
X111379942Y-67026388D01*
X111379942Y-67026390D01*
X112079765Y-67726212D01*
X112037708Y-67737482D01*
X111912292Y-67809890D01*
X111809890Y-67912292D01*
X111737482Y-68037708D01*
X111726212Y-68079764D01*
X111026564Y-67380116D01*
X110926267Y-67533632D01*
X110826412Y-67761282D01*
X110765387Y-68002261D01*
X110765385Y-68002270D01*
X110744859Y-68249994D01*
X110744859Y-68250005D01*
X110765385Y-68497729D01*
X110765387Y-68497738D01*
X110826412Y-68738717D01*
X110926266Y-68966364D01*
X111026564Y-69119882D01*
X111726212Y-68420234D01*
X111737482Y-68462292D01*
X111809890Y-68587708D01*
X111912292Y-68690110D01*
X112037708Y-68762518D01*
X112079765Y-68773787D01*
X111379942Y-69473609D01*
X111426768Y-69510055D01*
X111426770Y-69510056D01*
X111574175Y-69589827D01*
X111623766Y-69639046D01*
X111638874Y-69707263D01*
X111614704Y-69772818D01*
X111558928Y-69814900D01*
X111555422Y-69816163D01*
X111395194Y-69871170D01*
X111395188Y-69871172D01*
X111176493Y-69989524D01*
X110980257Y-70142261D01*
X110811833Y-70325217D01*
X110675827Y-70533391D01*
X110613282Y-70675979D01*
X110568325Y-70729464D01*
X110501589Y-70750154D01*
X110434261Y-70731479D01*
X110387718Y-70679368D01*
X110386170Y-70675978D01*
X110323731Y-70533630D01*
X110223434Y-70380116D01*
X109523787Y-71079764D01*
X109512518Y-71037708D01*
X109440110Y-70912292D01*
X109337708Y-70809890D01*
X109212292Y-70737482D01*
X109170235Y-70726212D01*
X109870057Y-70026390D01*
X109870056Y-70026389D01*
X109823229Y-69989943D01*
X109604614Y-69871635D01*
X109604603Y-69871630D01*
X109369493Y-69790916D01*
X109124293Y-69750000D01*
X108875707Y-69750000D01*
X108630510Y-69790915D01*
X108472704Y-69845090D01*
X108409916Y-69847922D01*
X108389432Y-69873838D01*
X108376775Y-69881705D01*
X108176765Y-69989945D01*
X108129942Y-70026388D01*
X108129942Y-70026390D01*
X108829765Y-70726212D01*
X108787708Y-70737482D01*
X108662292Y-70809890D01*
X108559890Y-70912292D01*
X108487482Y-71037708D01*
X108476212Y-71079764D01*
X107776564Y-70380116D01*
X107676267Y-70533632D01*
X107576412Y-70761282D01*
X107515387Y-71002261D01*
X107515385Y-71002270D01*
X107494859Y-71249994D01*
X107494859Y-71250005D01*
X107515385Y-71497729D01*
X107515387Y-71497738D01*
X107576412Y-71738717D01*
X107676266Y-71966364D01*
X107776564Y-72119882D01*
X108476212Y-71420234D01*
X108487482Y-71462292D01*
X108559890Y-71587708D01*
X108662292Y-71690110D01*
X108787708Y-71762518D01*
X108829765Y-71773787D01*
X108129942Y-72473609D01*
X108176768Y-72510055D01*
X108176770Y-72510056D01*
X108395385Y-72628364D01*
X108395396Y-72628369D01*
X108630506Y-72709083D01*
X108875707Y-72750000D01*
X109124293Y-72750000D01*
X109369493Y-72709083D01*
X109604603Y-72628369D01*
X109604614Y-72628364D01*
X109823228Y-72510057D01*
X109823231Y-72510055D01*
X109870056Y-72473609D01*
X109170234Y-71773787D01*
X109212292Y-71762518D01*
X109337708Y-71690110D01*
X109440110Y-71587708D01*
X109512518Y-71462292D01*
X109523787Y-71420235D01*
X110223434Y-72119882D01*
X110323732Y-71966367D01*
X110386170Y-71824022D01*
X110431125Y-71770536D01*
X110497861Y-71749845D01*
X110565189Y-71768519D01*
X110611733Y-71820629D01*
X110613282Y-71824020D01*
X110675827Y-71966608D01*
X110811833Y-72174782D01*
X110811836Y-72174785D01*
X110980256Y-72357738D01*
X111176491Y-72510474D01*
X111176494Y-72510476D01*
X111176496Y-72510477D01*
X111242609Y-72546255D01*
X111334517Y-72595993D01*
X111384108Y-72645212D01*
X111399500Y-72705048D01*
X111399500Y-76294951D01*
X111379815Y-76361990D01*
X111334518Y-76404006D01*
X111176493Y-76489524D01*
X110980257Y-76642261D01*
X110811833Y-76825217D01*
X110675827Y-77033391D01*
X110613282Y-77175979D01*
X110568325Y-77229464D01*
X110501589Y-77250154D01*
X110434261Y-77231479D01*
X110387718Y-77179368D01*
X110386170Y-77175978D01*
X110323731Y-77033630D01*
X110223434Y-76880116D01*
X109523787Y-77579764D01*
X109512518Y-77537708D01*
X109440110Y-77412292D01*
X109337708Y-77309890D01*
X109212292Y-77237482D01*
X109170235Y-77226212D01*
X109870057Y-76526390D01*
X109870056Y-76526389D01*
X109823229Y-76489943D01*
X109604614Y-76371635D01*
X109604603Y-76371630D01*
X109369493Y-76290916D01*
X109124293Y-76250000D01*
X108875707Y-76250000D01*
X108630506Y-76290916D01*
X108395396Y-76371630D01*
X108395390Y-76371632D01*
X108176761Y-76489949D01*
X108129942Y-76526388D01*
X108129942Y-76526390D01*
X108829765Y-77226212D01*
X108787708Y-77237482D01*
X108662292Y-77309890D01*
X108559890Y-77412292D01*
X108487482Y-77537708D01*
X108476212Y-77579764D01*
X107776564Y-76880116D01*
X107676267Y-77033632D01*
X107576412Y-77261282D01*
X107515387Y-77502261D01*
X107515385Y-77502270D01*
X107494859Y-77749994D01*
X107494859Y-77750005D01*
X107515385Y-77997729D01*
X107515387Y-77997738D01*
X107576412Y-78238717D01*
X107676266Y-78466364D01*
X107776564Y-78619882D01*
X108476212Y-77920234D01*
X108487482Y-77962292D01*
X108559890Y-78087708D01*
X108662292Y-78190110D01*
X108787708Y-78262518D01*
X108829765Y-78273787D01*
X108140371Y-78963181D01*
X108079048Y-78996666D01*
X108052690Y-78999500D01*
X105671934Y-78999500D01*
X105604895Y-78979815D01*
X105559140Y-78927011D01*
X105549196Y-78857853D01*
X105578221Y-78794297D01*
X105580681Y-78791542D01*
X105688164Y-78674785D01*
X105824173Y-78466607D01*
X105924063Y-78238881D01*
X105985108Y-77997821D01*
X106005643Y-77750000D01*
X105985108Y-77502179D01*
X105985107Y-77502175D01*
X105924063Y-77261118D01*
X105824173Y-77033393D01*
X105688166Y-76825217D01*
X105666557Y-76801744D01*
X105519744Y-76642262D01*
X105323509Y-76489526D01*
X105323507Y-76489525D01*
X105323506Y-76489524D01*
X105104811Y-76371172D01*
X105104802Y-76371169D01*
X104869616Y-76290429D01*
X104624335Y-76249500D01*
X104375665Y-76249500D01*
X104130383Y-76290429D01*
X103895197Y-76371169D01*
X103895188Y-76371172D01*
X103676493Y-76489524D01*
X103480257Y-76642261D01*
X103311836Y-76825215D01*
X103228309Y-76953063D01*
X103175162Y-76998419D01*
X103105931Y-77007843D01*
X103042595Y-76978341D01*
X103005264Y-76919281D01*
X103000500Y-76885241D01*
X103000500Y-72114758D01*
X103020185Y-72047719D01*
X103072989Y-72001964D01*
X103142147Y-71992020D01*
X103205703Y-72021045D01*
X103228309Y-72046937D01*
X103311833Y-72174782D01*
X103311836Y-72174785D01*
X103480256Y-72357738D01*
X103676491Y-72510474D01*
X103676493Y-72510475D01*
X103894332Y-72628364D01*
X103895190Y-72628828D01*
X104040596Y-72678746D01*
X104128964Y-72709083D01*
X104130386Y-72709571D01*
X104375665Y-72750500D01*
X104624335Y-72750500D01*
X104869614Y-72709571D01*
X105104810Y-72628828D01*
X105323509Y-72510474D01*
X105519744Y-72357738D01*
X105688164Y-72174785D01*
X105824173Y-71966607D01*
X105924063Y-71738881D01*
X105985108Y-71497821D01*
X105985116Y-71497729D01*
X106005643Y-71250005D01*
X106005643Y-71249994D01*
X105985109Y-71002187D01*
X105985107Y-71002175D01*
X105924063Y-70761118D01*
X105824173Y-70533393D01*
X105688166Y-70325217D01*
X105618928Y-70250005D01*
X105519744Y-70142262D01*
X105323509Y-69989526D01*
X105323507Y-69989525D01*
X105323506Y-69989524D01*
X105104811Y-69871172D01*
X105104802Y-69871169D01*
X104869616Y-69790429D01*
X104624335Y-69749500D01*
X104375665Y-69749500D01*
X104130383Y-69790429D01*
X103895197Y-69871169D01*
X103895188Y-69871172D01*
X103676493Y-69989524D01*
X103480257Y-70142261D01*
X103311836Y-70325215D01*
X103228309Y-70453063D01*
X103175162Y-70498419D01*
X103105931Y-70507843D01*
X103042595Y-70478341D01*
X103005264Y-70419281D01*
X103000500Y-70385241D01*
X103000500Y-65689269D01*
X103020185Y-65622230D01*
X103072989Y-65576475D01*
X103142147Y-65566531D01*
X103205703Y-65595556D01*
X103223766Y-65614958D01*
X103292809Y-65707187D01*
X103292812Y-65707190D01*
X103407906Y-65793350D01*
X103407913Y-65793354D01*
X103542620Y-65843596D01*
X103542627Y-65843598D01*
X103602155Y-65849999D01*
X103602172Y-65850000D01*
X104250000Y-65850000D01*
X104250000Y-64933012D01*
X104307007Y-64965925D01*
X104434174Y-65000000D01*
X104565826Y-65000000D01*
X104692993Y-64965925D01*
X104750000Y-64933012D01*
X104750000Y-65850000D01*
X105397828Y-65850000D01*
X105397844Y-65849999D01*
X105457372Y-65843598D01*
X105457379Y-65843596D01*
X105592086Y-65793354D01*
X105592093Y-65793350D01*
X105707187Y-65707190D01*
X105707190Y-65707187D01*
X105793350Y-65592093D01*
X105793354Y-65592086D01*
X105843596Y-65457379D01*
X105843598Y-65457372D01*
X105849999Y-65397844D01*
X105850000Y-65397827D01*
X105850000Y-64750000D01*
X104933012Y-64750000D01*
X104965925Y-64692993D01*
X105000000Y-64565826D01*
X105000000Y-64434174D01*
X104965925Y-64307007D01*
X104933012Y-64250000D01*
X105850000Y-64250000D01*
X105850000Y-63602172D01*
X105849999Y-63602155D01*
X105843598Y-63542627D01*
X105843596Y-63542620D01*
X105793354Y-63407913D01*
X105793350Y-63407906D01*
X105707190Y-63292812D01*
X105707187Y-63292809D01*
X105592093Y-63206649D01*
X105592088Y-63206646D01*
X105460528Y-63157577D01*
X105404595Y-63115705D01*
X105380178Y-63050241D01*
X105395030Y-62981968D01*
X105416175Y-62953720D01*
X105538495Y-62831401D01*
X105674035Y-62637830D01*
X105773903Y-62423663D01*
X105835063Y-62195408D01*
X105855659Y-61960000D01*
X105837285Y-61749994D01*
X106244357Y-61749994D01*
X106244357Y-61750000D01*
X106264890Y-61997812D01*
X106264892Y-61997824D01*
X106325936Y-62238881D01*
X106425826Y-62466606D01*
X106561833Y-62674782D01*
X106561836Y-62674785D01*
X106730256Y-62857738D01*
X106926491Y-63010474D01*
X106926494Y-63010476D01*
X106926496Y-63010477D01*
X106992609Y-63046255D01*
X107084517Y-63095993D01*
X107134108Y-63145212D01*
X107149500Y-63205048D01*
X107149500Y-66794951D01*
X107129815Y-66861990D01*
X107084518Y-66904006D01*
X106926493Y-66989524D01*
X106730257Y-67142261D01*
X106561833Y-67325217D01*
X106425826Y-67533393D01*
X106325936Y-67761118D01*
X106264892Y-68002175D01*
X106264890Y-68002187D01*
X106244357Y-68249994D01*
X106244357Y-68250005D01*
X106264890Y-68497812D01*
X106264892Y-68497824D01*
X106325936Y-68738881D01*
X106425826Y-68966606D01*
X106561833Y-69174782D01*
X106561836Y-69174785D01*
X106730256Y-69357738D01*
X106926491Y-69510474D01*
X106938448Y-69516945D01*
X107144332Y-69628364D01*
X107145190Y-69628828D01*
X107286999Y-69677511D01*
X107378964Y-69709083D01*
X107380386Y-69709571D01*
X107625665Y-69750500D01*
X107874335Y-69750500D01*
X108119614Y-69709571D01*
X108149133Y-69699437D01*
X108277496Y-69655369D01*
X108340282Y-69652536D01*
X108360769Y-69626620D01*
X108373411Y-69618761D01*
X108573509Y-69510474D01*
X108769744Y-69357738D01*
X108938164Y-69174785D01*
X109074173Y-68966607D01*
X109174063Y-68738881D01*
X109235108Y-68497821D01*
X109238052Y-68462292D01*
X109255643Y-68250005D01*
X109255643Y-68249994D01*
X109235109Y-68002187D01*
X109235107Y-68002175D01*
X109174063Y-67761118D01*
X109074173Y-67533393D01*
X108938166Y-67325217D01*
X108869384Y-67250500D01*
X108769744Y-67142262D01*
X108573509Y-66989526D01*
X108573507Y-66989525D01*
X108573506Y-66989524D01*
X108415482Y-66904006D01*
X108365892Y-66854786D01*
X108350500Y-66794951D01*
X108350500Y-63205048D01*
X108370185Y-63138009D01*
X108415481Y-63095993D01*
X108573509Y-63010474D01*
X108769744Y-62857738D01*
X108938164Y-62674785D01*
X109074173Y-62466607D01*
X109174063Y-62238881D01*
X109235108Y-61997821D01*
X109255643Y-61750000D01*
X109253537Y-61724586D01*
X109235109Y-61502187D01*
X109235107Y-61502175D01*
X109174063Y-61261118D01*
X109074173Y-61033393D01*
X108938166Y-60825217D01*
X108902029Y-60785962D01*
X108769744Y-60642262D01*
X108573509Y-60489526D01*
X108573507Y-60489525D01*
X108573506Y-60489524D01*
X108354811Y-60371172D01*
X108354802Y-60371169D01*
X108119616Y-60290429D01*
X107874335Y-60249500D01*
X107625665Y-60249500D01*
X107380383Y-60290429D01*
X107145197Y-60371169D01*
X107145188Y-60371172D01*
X106926493Y-60489524D01*
X106755971Y-60622247D01*
X106730256Y-60642262D01*
X106729750Y-60642812D01*
X106561833Y-60825217D01*
X106425826Y-61033393D01*
X106325936Y-61261118D01*
X106264892Y-61502175D01*
X106264890Y-61502187D01*
X106244357Y-61749994D01*
X105837285Y-61749994D01*
X105835063Y-61724592D01*
X105784988Y-61537708D01*
X105773905Y-61496344D01*
X105773904Y-61496343D01*
X105773903Y-61496337D01*
X105674035Y-61282171D01*
X105659409Y-61261282D01*
X105538494Y-61088597D01*
X105371402Y-60921506D01*
X105371395Y-60921501D01*
X105177831Y-60785965D01*
X105177826Y-60785962D01*
X105172091Y-60783288D01*
X105119653Y-60737113D01*
X105100500Y-60670908D01*
X105100500Y-59474499D01*
X105120185Y-59407460D01*
X105172989Y-59361705D01*
X105224500Y-59350499D01*
X105857871Y-59350499D01*
X105857872Y-59350499D01*
X105917483Y-59344091D01*
X106052331Y-59293796D01*
X106167546Y-59207546D01*
X106253796Y-59092331D01*
X106302810Y-58960916D01*
X106344681Y-58904984D01*
X106410145Y-58880566D01*
X106478418Y-58895417D01*
X106506673Y-58916569D01*
X106628599Y-59038495D01*
X106725384Y-59106265D01*
X106822165Y-59174032D01*
X106822167Y-59174033D01*
X106822170Y-59174035D01*
X107036337Y-59273903D01*
X107264592Y-59335063D01*
X107452918Y-59351539D01*
X107499999Y-59355659D01*
X107500000Y-59355659D01*
X107500001Y-59355659D01*
X107539234Y-59352226D01*
X107735408Y-59335063D01*
X107863757Y-59300672D01*
X107933606Y-59302335D01*
X107983531Y-59332766D01*
X108515139Y-59864374D01*
X108515149Y-59864385D01*
X108519479Y-59868715D01*
X108519480Y-59868716D01*
X108631284Y-59980520D01*
X108631286Y-59980521D01*
X108631290Y-59980524D01*
X108698765Y-60019480D01*
X108768216Y-60059577D01*
X108880019Y-60089534D01*
X108920942Y-60100500D01*
X108920943Y-60100500D01*
X111692081Y-60100500D01*
X111759120Y-60120185D01*
X111804875Y-60172989D01*
X111814819Y-60242147D01*
X111785794Y-60305703D01*
X111732344Y-60341781D01*
X111645396Y-60371630D01*
X111645390Y-60371632D01*
X111426761Y-60489949D01*
X111379942Y-60526388D01*
X111379942Y-60526390D01*
X112079765Y-61226212D01*
X112037708Y-61237482D01*
X111912292Y-61309890D01*
X111809890Y-61412292D01*
X111737482Y-61537708D01*
X111726212Y-61579764D01*
X111026564Y-60880116D01*
X110926267Y-61033632D01*
X110826412Y-61261282D01*
X110765387Y-61502261D01*
X110765385Y-61502270D01*
X110744859Y-61749994D01*
X110744859Y-61750000D01*
X110765385Y-61997729D01*
X110765387Y-61997738D01*
X110826412Y-62238717D01*
X110926266Y-62466364D01*
X111026564Y-62619882D01*
X111726212Y-61920234D01*
X111737482Y-61962292D01*
X111809890Y-62087708D01*
X111912292Y-62190110D01*
X112037708Y-62262518D01*
X112079765Y-62273787D01*
X111379942Y-62973609D01*
X111426768Y-63010055D01*
X111426770Y-63010056D01*
X111645385Y-63128364D01*
X111645396Y-63128369D01*
X111880506Y-63209083D01*
X112125707Y-63250000D01*
X112374293Y-63250000D01*
X112619493Y-63209083D01*
X112854603Y-63128369D01*
X112854614Y-63128364D01*
X113073228Y-63010057D01*
X113073231Y-63010055D01*
X113120056Y-62973609D01*
X112420234Y-62273787D01*
X112462292Y-62262518D01*
X112587708Y-62190110D01*
X112690110Y-62087708D01*
X112762518Y-61962292D01*
X112773787Y-61920235D01*
X113473434Y-62619882D01*
X113573731Y-62466369D01*
X113673587Y-62238717D01*
X113734612Y-61997738D01*
X113734614Y-61997729D01*
X113755141Y-61750000D01*
X113755141Y-61749994D01*
X113734614Y-61502270D01*
X113734612Y-61502261D01*
X113673587Y-61261282D01*
X113573731Y-61033630D01*
X113473434Y-60880116D01*
X112773787Y-61579764D01*
X112762518Y-61537708D01*
X112690110Y-61412292D01*
X112587708Y-61309890D01*
X112462292Y-61237482D01*
X112420235Y-61226212D01*
X113120057Y-60526390D01*
X113120056Y-60526389D01*
X113073229Y-60489943D01*
X112854614Y-60371635D01*
X112854603Y-60371630D01*
X112767656Y-60341781D01*
X112710641Y-60301395D01*
X112684510Y-60236596D01*
X112697562Y-60167956D01*
X112745651Y-60117268D01*
X112807919Y-60100500D01*
X115942081Y-60100500D01*
X116009120Y-60120185D01*
X116054875Y-60172989D01*
X116064819Y-60242147D01*
X116035794Y-60305703D01*
X115982344Y-60341781D01*
X115895396Y-60371630D01*
X115895390Y-60371632D01*
X115676761Y-60489949D01*
X115629942Y-60526388D01*
X115629942Y-60526390D01*
X116329765Y-61226212D01*
X116287708Y-61237482D01*
X116162292Y-61309890D01*
X116059890Y-61412292D01*
X115987482Y-61537708D01*
X115976212Y-61579764D01*
X115276564Y-60880116D01*
X115176267Y-61033632D01*
X115076412Y-61261282D01*
X115015387Y-61502261D01*
X115015385Y-61502270D01*
X114994859Y-61749994D01*
X114994859Y-61750000D01*
X115015385Y-61997729D01*
X115015387Y-61997738D01*
X115076412Y-62238717D01*
X115176266Y-62466364D01*
X115276564Y-62619882D01*
X115976212Y-61920234D01*
X115987482Y-61962292D01*
X116059890Y-62087708D01*
X116162292Y-62190110D01*
X116287708Y-62262518D01*
X116329765Y-62273787D01*
X115629942Y-62973609D01*
X115676768Y-63010055D01*
X115676770Y-63010056D01*
X115895385Y-63128364D01*
X115895396Y-63128369D01*
X116130506Y-63209083D01*
X116375707Y-63250000D01*
X116624293Y-63250000D01*
X116869493Y-63209083D01*
X117104603Y-63128369D01*
X117104614Y-63128364D01*
X117323228Y-63010057D01*
X117323231Y-63010055D01*
X117370056Y-62973609D01*
X116670234Y-62273787D01*
X116712292Y-62262518D01*
X116837708Y-62190110D01*
X116940110Y-62087708D01*
X117012518Y-61962292D01*
X117023787Y-61920235D01*
X117723434Y-62619882D01*
X117823731Y-62466369D01*
X117923587Y-62238717D01*
X117984612Y-61997738D01*
X117984614Y-61997729D01*
X118005141Y-61750000D01*
X118005141Y-61749994D01*
X117984614Y-61502270D01*
X117984612Y-61502261D01*
X117923587Y-61261282D01*
X117823731Y-61033630D01*
X117723434Y-60880116D01*
X117023787Y-61579764D01*
X117012518Y-61537708D01*
X116940110Y-61412292D01*
X116837708Y-61309890D01*
X116712292Y-61237482D01*
X116670235Y-61226212D01*
X117370057Y-60526390D01*
X117370056Y-60526389D01*
X117323229Y-60489943D01*
X117104614Y-60371635D01*
X117104603Y-60371630D01*
X117017656Y-60341781D01*
X116960641Y-60301395D01*
X116934510Y-60236596D01*
X116947562Y-60167956D01*
X116995651Y-60117268D01*
X117057919Y-60100500D01*
X120440539Y-60100500D01*
X120507578Y-60120185D01*
X120553333Y-60172989D01*
X120563277Y-60242147D01*
X120534252Y-60305703D01*
X120480802Y-60341781D01*
X120395197Y-60371169D01*
X120395188Y-60371172D01*
X120176493Y-60489524D01*
X120005971Y-60622247D01*
X119980256Y-60642262D01*
X119979750Y-60642812D01*
X119811833Y-60825217D01*
X119675826Y-61033393D01*
X119575936Y-61261118D01*
X119514892Y-61502175D01*
X119514890Y-61502187D01*
X119494357Y-61749994D01*
X119494357Y-61750000D01*
X119514890Y-61997812D01*
X119514892Y-61997824D01*
X119575936Y-62238881D01*
X119675826Y-62466606D01*
X119811833Y-62674782D01*
X119811836Y-62674785D01*
X119980256Y-62857738D01*
X120176491Y-63010474D01*
X120176494Y-63010476D01*
X120176496Y-63010477D01*
X120242609Y-63046255D01*
X120334517Y-63095993D01*
X120384108Y-63145212D01*
X120399500Y-63205048D01*
X120399500Y-66794951D01*
X120379815Y-66861990D01*
X120334518Y-66904006D01*
X120176493Y-66989524D01*
X119980257Y-67142261D01*
X119811833Y-67325217D01*
X119675826Y-67533393D01*
X119575936Y-67761118D01*
X119514892Y-68002175D01*
X119514890Y-68002187D01*
X119494357Y-68249994D01*
X119494357Y-68250005D01*
X119514890Y-68497812D01*
X119514892Y-68497824D01*
X119575936Y-68738881D01*
X119675826Y-68966606D01*
X119811833Y-69174782D01*
X119811836Y-69174785D01*
X119980256Y-69357738D01*
X120176491Y-69510474D01*
X120188448Y-69516945D01*
X120394332Y-69628364D01*
X120395190Y-69628828D01*
X120536999Y-69677511D01*
X120628964Y-69709083D01*
X120630386Y-69709571D01*
X120875665Y-69750500D01*
X121124335Y-69750500D01*
X121369614Y-69709571D01*
X121604810Y-69628828D01*
X121823509Y-69510474D01*
X122019744Y-69357738D01*
X122188164Y-69174785D01*
X122324173Y-68966607D01*
X122424063Y-68738881D01*
X122485108Y-68497821D01*
X122488052Y-68462292D01*
X122505643Y-68250005D01*
X122505643Y-68249994D01*
X128744859Y-68249994D01*
X128744859Y-68250005D01*
X128765385Y-68497729D01*
X128765387Y-68497738D01*
X128826412Y-68738717D01*
X128926266Y-68966364D01*
X129026564Y-69119882D01*
X129726212Y-68420234D01*
X129737482Y-68462292D01*
X129809890Y-68587708D01*
X129912292Y-68690110D01*
X130037708Y-68762518D01*
X130079765Y-68773787D01*
X129379942Y-69473609D01*
X129426768Y-69510055D01*
X129426770Y-69510056D01*
X129645385Y-69628364D01*
X129645396Y-69628369D01*
X129880506Y-69709083D01*
X130125707Y-69750000D01*
X130374293Y-69750000D01*
X130619493Y-69709083D01*
X130780171Y-69653922D01*
X130839196Y-69651258D01*
X130857892Y-69627608D01*
X130870548Y-69619741D01*
X131073228Y-69510057D01*
X131073231Y-69510055D01*
X131120056Y-69473609D01*
X130420234Y-68773787D01*
X130462292Y-68762518D01*
X130587708Y-68690110D01*
X130690110Y-68587708D01*
X130762518Y-68462292D01*
X130773787Y-68420235D01*
X131473434Y-69119882D01*
X131573731Y-68966369D01*
X131673587Y-68738717D01*
X131734612Y-68497738D01*
X131734614Y-68497729D01*
X131755141Y-68250005D01*
X131755141Y-68249994D01*
X131734614Y-68002270D01*
X131734612Y-68002261D01*
X131673587Y-67761282D01*
X131573731Y-67533630D01*
X131473434Y-67380116D01*
X130773787Y-68079764D01*
X130762518Y-68037708D01*
X130690110Y-67912292D01*
X130587708Y-67809890D01*
X130462292Y-67737482D01*
X130420235Y-67726212D01*
X131120057Y-67026390D01*
X131120056Y-67026389D01*
X131073229Y-66989943D01*
X130854614Y-66871635D01*
X130854603Y-66871630D01*
X130619493Y-66790916D01*
X130374293Y-66750000D01*
X130125707Y-66750000D01*
X129880506Y-66790916D01*
X129645396Y-66871630D01*
X129645390Y-66871632D01*
X129426761Y-66989949D01*
X129379942Y-67026388D01*
X129379942Y-67026390D01*
X130079765Y-67726212D01*
X130037708Y-67737482D01*
X129912292Y-67809890D01*
X129809890Y-67912292D01*
X129737482Y-68037708D01*
X129726212Y-68079764D01*
X129026564Y-67380116D01*
X128926267Y-67533632D01*
X128826412Y-67761282D01*
X128765387Y-68002261D01*
X128765385Y-68002270D01*
X128744859Y-68249994D01*
X122505643Y-68249994D01*
X122485109Y-68002187D01*
X122485107Y-68002175D01*
X122424063Y-67761118D01*
X122324173Y-67533393D01*
X122188166Y-67325217D01*
X122119384Y-67250500D01*
X122019744Y-67142262D01*
X121823509Y-66989526D01*
X121823507Y-66989525D01*
X121823506Y-66989524D01*
X121665482Y-66904006D01*
X121615892Y-66854786D01*
X121600500Y-66794951D01*
X121600500Y-65039999D01*
X153144341Y-65039999D01*
X153144341Y-65040000D01*
X153164936Y-65275403D01*
X153164938Y-65275413D01*
X153226094Y-65503655D01*
X153226096Y-65503659D01*
X153226097Y-65503663D01*
X153267333Y-65592093D01*
X153325965Y-65717830D01*
X153325967Y-65717834D01*
X153461501Y-65911395D01*
X153461506Y-65911402D01*
X153628597Y-66078493D01*
X153628603Y-66078498D01*
X153814158Y-66208425D01*
X153857783Y-66263002D01*
X153864977Y-66332500D01*
X153833454Y-66394855D01*
X153814158Y-66411575D01*
X153628597Y-66541505D01*
X153461505Y-66708597D01*
X153325965Y-66902169D01*
X153325964Y-66902171D01*
X153226098Y-67116335D01*
X153226094Y-67116344D01*
X153164938Y-67344586D01*
X153164936Y-67344596D01*
X153144341Y-67579999D01*
X153144341Y-67580000D01*
X153164936Y-67815403D01*
X153164938Y-67815413D01*
X153226094Y-68043655D01*
X153226096Y-68043659D01*
X153226097Y-68043663D01*
X153288549Y-68177591D01*
X153325965Y-68257830D01*
X153325967Y-68257834D01*
X153434281Y-68412521D01*
X153461505Y-68451401D01*
X153628599Y-68618495D01*
X153725384Y-68686265D01*
X153822165Y-68754032D01*
X153822167Y-68754033D01*
X153822170Y-68754035D01*
X154036337Y-68853903D01*
X154264592Y-68915063D01*
X154452918Y-68931539D01*
X154499999Y-68935659D01*
X154500000Y-68935659D01*
X154500001Y-68935659D01*
X154539234Y-68932226D01*
X154735408Y-68915063D01*
X154963663Y-68853903D01*
X155177830Y-68754035D01*
X155371401Y-68618495D01*
X155538495Y-68451401D01*
X155674035Y-68257830D01*
X155773903Y-68043663D01*
X155835063Y-67815408D01*
X155855659Y-67580000D01*
X155835063Y-67344592D01*
X155788626Y-67171285D01*
X155773905Y-67116344D01*
X155773904Y-67116343D01*
X155773903Y-67116337D01*
X155674035Y-66902171D01*
X155652652Y-66871632D01*
X155538494Y-66708597D01*
X155371402Y-66541506D01*
X155371396Y-66541501D01*
X155185842Y-66411575D01*
X155142217Y-66356998D01*
X155135023Y-66287500D01*
X155166546Y-66225145D01*
X155185842Y-66208425D01*
X155211998Y-66190110D01*
X155371401Y-66078495D01*
X155538495Y-65911401D01*
X155651514Y-65749994D01*
X156244859Y-65749994D01*
X156244859Y-65750005D01*
X156265385Y-65997729D01*
X156265387Y-65997738D01*
X156326412Y-66238717D01*
X156426266Y-66466364D01*
X156526564Y-66619882D01*
X157226212Y-65920234D01*
X157237482Y-65962292D01*
X157309890Y-66087708D01*
X157412292Y-66190110D01*
X157537708Y-66262518D01*
X157579765Y-66273787D01*
X156879942Y-66973609D01*
X156926768Y-67010055D01*
X156926770Y-67010056D01*
X157145385Y-67128364D01*
X157145396Y-67128369D01*
X157380506Y-67209083D01*
X157625707Y-67250000D01*
X157874293Y-67250000D01*
X158119493Y-67209083D01*
X158354603Y-67128369D01*
X158354614Y-67128364D01*
X158573228Y-67010057D01*
X158573231Y-67010055D01*
X158620056Y-66973609D01*
X157920234Y-66273787D01*
X157962292Y-66262518D01*
X158087708Y-66190110D01*
X158190110Y-66087708D01*
X158262518Y-65962292D01*
X158273787Y-65920235D01*
X158973434Y-66619882D01*
X159073731Y-66466369D01*
X159173587Y-66238717D01*
X159234612Y-65997738D01*
X159234614Y-65997729D01*
X159255141Y-65750005D01*
X159255141Y-65749994D01*
X159234614Y-65502270D01*
X159234612Y-65502261D01*
X159173587Y-65261282D01*
X159073731Y-65033630D01*
X158973434Y-64880116D01*
X158273787Y-65579764D01*
X158262518Y-65537708D01*
X158190110Y-65412292D01*
X158087708Y-65309890D01*
X157962292Y-65237482D01*
X157920235Y-65226212D01*
X158620057Y-64526390D01*
X158620056Y-64526389D01*
X158573229Y-64489943D01*
X158354614Y-64371635D01*
X158354603Y-64371630D01*
X158119493Y-64290916D01*
X157874293Y-64250000D01*
X157625707Y-64250000D01*
X157380506Y-64290916D01*
X157145396Y-64371630D01*
X157145390Y-64371632D01*
X156926761Y-64489949D01*
X156879942Y-64526388D01*
X156879942Y-64526390D01*
X157579765Y-65226212D01*
X157537708Y-65237482D01*
X157412292Y-65309890D01*
X157309890Y-65412292D01*
X157237482Y-65537708D01*
X157226212Y-65579764D01*
X156526564Y-64880116D01*
X156426267Y-65033632D01*
X156326412Y-65261282D01*
X156265387Y-65502261D01*
X156265385Y-65502270D01*
X156244859Y-65749994D01*
X155651514Y-65749994D01*
X155674035Y-65717830D01*
X155773903Y-65503663D01*
X155835063Y-65275408D01*
X155855659Y-65040000D01*
X155835063Y-64804592D01*
X155773903Y-64576337D01*
X155674035Y-64362171D01*
X155595492Y-64250000D01*
X155538496Y-64168600D01*
X155538495Y-64168599D01*
X155416567Y-64046671D01*
X155383084Y-63985351D01*
X155388068Y-63915659D01*
X155429939Y-63859725D01*
X155460915Y-63842810D01*
X155592331Y-63793796D01*
X155707546Y-63707546D01*
X155793796Y-63592331D01*
X155844091Y-63457483D01*
X155850500Y-63397873D01*
X155850499Y-61602128D01*
X155844091Y-61542517D01*
X155842297Y-61537708D01*
X155793797Y-61407671D01*
X155793793Y-61407664D01*
X155707547Y-61292455D01*
X155707544Y-61292452D01*
X155592335Y-61206206D01*
X155592328Y-61206202D01*
X155457482Y-61155908D01*
X155457483Y-61155908D01*
X155397883Y-61149501D01*
X155397881Y-61149500D01*
X155397873Y-61149500D01*
X155397864Y-61149500D01*
X153602129Y-61149500D01*
X153602123Y-61149501D01*
X153542516Y-61155908D01*
X153407671Y-61206202D01*
X153407664Y-61206206D01*
X153292455Y-61292452D01*
X153292452Y-61292455D01*
X153206206Y-61407664D01*
X153206202Y-61407671D01*
X153155908Y-61542517D01*
X153149501Y-61602116D01*
X153149501Y-61602123D01*
X153149500Y-61602135D01*
X153149500Y-63397870D01*
X153149501Y-63397876D01*
X153155908Y-63457483D01*
X153206202Y-63592328D01*
X153206206Y-63592335D01*
X153292452Y-63707544D01*
X153292455Y-63707547D01*
X153407664Y-63793793D01*
X153407671Y-63793797D01*
X153539081Y-63842810D01*
X153595015Y-63884681D01*
X153619432Y-63950145D01*
X153604580Y-64018418D01*
X153583430Y-64046673D01*
X153461503Y-64168600D01*
X153325965Y-64362169D01*
X153325964Y-64362171D01*
X153226098Y-64576335D01*
X153226094Y-64576344D01*
X153164938Y-64804586D01*
X153164936Y-64804596D01*
X153144341Y-65039999D01*
X121600500Y-65039999D01*
X121600500Y-63205048D01*
X121620185Y-63138009D01*
X121665481Y-63095993D01*
X121823509Y-63010474D01*
X122019744Y-62857738D01*
X122188164Y-62674785D01*
X122324173Y-62466607D01*
X122424063Y-62238881D01*
X122485108Y-61997821D01*
X122505643Y-61750000D01*
X122503537Y-61724586D01*
X122485109Y-61502187D01*
X122485107Y-61502175D01*
X122424063Y-61261118D01*
X122324173Y-61033393D01*
X122188166Y-60825217D01*
X122152029Y-60785962D01*
X122019744Y-60642262D01*
X121823509Y-60489526D01*
X121823507Y-60489525D01*
X121823506Y-60489524D01*
X121604811Y-60371172D01*
X121604802Y-60371169D01*
X121519198Y-60341781D01*
X121462183Y-60301396D01*
X121436052Y-60236596D01*
X121449103Y-60167956D01*
X121497192Y-60117269D01*
X121559461Y-60100500D01*
X122413331Y-60100500D01*
X122413347Y-60100501D01*
X122420943Y-60100501D01*
X122579054Y-60100501D01*
X122579057Y-60100501D01*
X122731785Y-60059577D01*
X122801233Y-60019481D01*
X122868716Y-59980520D01*
X122980520Y-59868716D01*
X122980520Y-59868714D01*
X122990724Y-59858511D01*
X122990728Y-59858506D01*
X123312416Y-59536818D01*
X123373739Y-59503333D01*
X123400097Y-59500499D01*
X125000371Y-59500499D01*
X125000372Y-59500499D01*
X125059983Y-59494091D01*
X125194831Y-59443796D01*
X125310046Y-59357546D01*
X125396296Y-59242331D01*
X125446591Y-59107483D01*
X125453000Y-59047873D01*
X125452999Y-56952128D01*
X125446591Y-56892517D01*
X125436912Y-56866567D01*
X125396297Y-56757671D01*
X125396293Y-56757664D01*
X125310047Y-56642455D01*
X125310044Y-56642452D01*
X125194835Y-56556206D01*
X125194828Y-56556202D01*
X125059982Y-56505908D01*
X125059983Y-56505908D01*
X125000383Y-56499501D01*
X125000381Y-56499500D01*
X125000373Y-56499500D01*
X125000364Y-56499500D01*
X122999629Y-56499500D01*
X122999623Y-56499501D01*
X122940016Y-56505908D01*
X122805171Y-56556202D01*
X122805164Y-56556206D01*
X122689955Y-56642452D01*
X122689952Y-56642455D01*
X122603706Y-56757664D01*
X122603702Y-56757671D01*
X122593127Y-56786026D01*
X122551256Y-56841960D01*
X122485791Y-56866377D01*
X122417518Y-56851525D01*
X122404060Y-56843011D01*
X122221279Y-56710213D01*
X122017568Y-56606417D01*
X121800124Y-56535765D01*
X121710000Y-56521490D01*
X121710000Y-57509252D01*
X121672292Y-57487482D01*
X121532409Y-57450000D01*
X121387591Y-57450000D01*
X121247708Y-57487482D01*
X121210000Y-57509252D01*
X121210000Y-56521490D01*
X121209999Y-56521490D01*
X121119875Y-56535765D01*
X120902431Y-56606417D01*
X120698723Y-56710211D01*
X120513757Y-56844597D01*
X120352097Y-57006257D01*
X120290627Y-57090864D01*
X120235297Y-57133529D01*
X120165684Y-57139508D01*
X120103889Y-57106902D01*
X120089991Y-57090864D01*
X120081413Y-57079057D01*
X120028286Y-57005934D01*
X119866566Y-56844214D01*
X119681538Y-56709783D01*
X119662299Y-56699980D01*
X119477755Y-56605950D01*
X119260248Y-56535278D01*
X119051792Y-56502262D01*
X119034354Y-56499500D01*
X118805646Y-56499500D01*
X118788208Y-56502262D01*
X118579753Y-56535278D01*
X118579750Y-56535278D01*
X118362244Y-56605950D01*
X118158461Y-56709783D01*
X118092550Y-56757671D01*
X117973434Y-56844214D01*
X117973432Y-56844216D01*
X117973431Y-56844216D01*
X117811716Y-57005931D01*
X117811716Y-57005932D01*
X117811714Y-57005934D01*
X117785135Y-57042517D01*
X117677283Y-57190961D01*
X117605525Y-57331795D01*
X117557550Y-57382591D01*
X117495040Y-57399500D01*
X117300098Y-57399500D01*
X117233059Y-57379815D01*
X117212417Y-57363181D01*
X116636819Y-56787583D01*
X116603334Y-56726260D01*
X116600500Y-56699902D01*
X116600500Y-54179105D01*
X116620185Y-54112066D01*
X116672989Y-54066311D01*
X116742147Y-54056367D01*
X116756584Y-54059328D01*
X116964592Y-54115063D01*
X117135319Y-54130000D01*
X117199999Y-54135659D01*
X117200000Y-54135659D01*
X117200001Y-54135659D01*
X117264681Y-54130000D01*
X117435408Y-54115063D01*
X117663663Y-54053903D01*
X117877830Y-53954035D01*
X118071401Y-53818495D01*
X118238495Y-53651401D01*
X118368425Y-53465842D01*
X118423002Y-53422217D01*
X118492500Y-53415023D01*
X118554855Y-53446546D01*
X118571575Y-53465842D01*
X118701500Y-53651395D01*
X118701505Y-53651401D01*
X118868599Y-53818495D01*
X118945135Y-53872086D01*
X119062165Y-53954032D01*
X119062167Y-53954033D01*
X119062170Y-53954035D01*
X119276337Y-54053903D01*
X119276343Y-54053904D01*
X119276344Y-54053905D01*
X119296591Y-54059330D01*
X119504592Y-54115063D01*
X119675319Y-54130000D01*
X119739999Y-54135659D01*
X119740000Y-54135659D01*
X119740001Y-54135659D01*
X119804681Y-54130000D01*
X119975408Y-54115063D01*
X120203663Y-54053903D01*
X120417830Y-53954035D01*
X120611401Y-53818495D01*
X120733717Y-53696178D01*
X120795036Y-53662696D01*
X120864728Y-53667680D01*
X120920662Y-53709551D01*
X120937577Y-53740528D01*
X120986646Y-53872088D01*
X120986649Y-53872093D01*
X121072809Y-53987187D01*
X121072812Y-53987190D01*
X121187906Y-54073350D01*
X121187913Y-54073354D01*
X121322620Y-54123596D01*
X121322627Y-54123598D01*
X121382155Y-54129999D01*
X121382172Y-54130000D01*
X122030000Y-54130000D01*
X122030000Y-53224560D01*
X122083147Y-53255245D01*
X122212857Y-53290000D01*
X122347143Y-53290000D01*
X122476853Y-53255245D01*
X122530000Y-53224560D01*
X122530000Y-54130000D01*
X123177828Y-54130000D01*
X123177844Y-54129999D01*
X123237372Y-54123598D01*
X123237379Y-54123596D01*
X123372086Y-54073354D01*
X123372093Y-54073350D01*
X123487187Y-53987190D01*
X123487190Y-53987187D01*
X123573350Y-53872093D01*
X123573354Y-53872086D01*
X123622422Y-53740529D01*
X123664293Y-53684595D01*
X123729757Y-53660178D01*
X123798030Y-53675030D01*
X123826285Y-53696181D01*
X123948599Y-53818495D01*
X124025135Y-53872086D01*
X124142165Y-53954032D01*
X124142167Y-53954033D01*
X124142170Y-53954035D01*
X124356337Y-54053903D01*
X124356343Y-54053904D01*
X124356344Y-54053905D01*
X124376591Y-54059330D01*
X124584592Y-54115063D01*
X124755319Y-54130000D01*
X124819999Y-54135659D01*
X124820000Y-54135659D01*
X124820001Y-54135659D01*
X124884681Y-54130000D01*
X125055408Y-54115063D01*
X125283663Y-54053903D01*
X125497830Y-53954035D01*
X125691401Y-53818495D01*
X125858495Y-53651401D01*
X125988425Y-53465842D01*
X126043002Y-53422217D01*
X126112500Y-53415023D01*
X126174855Y-53446546D01*
X126191575Y-53465842D01*
X126321500Y-53651395D01*
X126321505Y-53651401D01*
X126488599Y-53818495D01*
X126565135Y-53872086D01*
X126682165Y-53954032D01*
X126682167Y-53954033D01*
X126682170Y-53954035D01*
X126896337Y-54053903D01*
X126896343Y-54053904D01*
X126896344Y-54053905D01*
X126916591Y-54059330D01*
X127124592Y-54115063D01*
X127295319Y-54130000D01*
X127359999Y-54135659D01*
X127360000Y-54135659D01*
X127360001Y-54135659D01*
X127424681Y-54130000D01*
X127595408Y-54115063D01*
X127823663Y-54053903D01*
X128037830Y-53954035D01*
X128231401Y-53818495D01*
X128398495Y-53651401D01*
X128528425Y-53465842D01*
X128583002Y-53422217D01*
X128652500Y-53415023D01*
X128714855Y-53446546D01*
X128731575Y-53465842D01*
X128861500Y-53651395D01*
X128861505Y-53651401D01*
X129028599Y-53818495D01*
X129105135Y-53872086D01*
X129222165Y-53954032D01*
X129222167Y-53954033D01*
X129222170Y-53954035D01*
X129227898Y-53956706D01*
X129280339Y-54002872D01*
X129299500Y-54069090D01*
X129299500Y-58813330D01*
X129299499Y-58813348D01*
X129299499Y-58979054D01*
X129299498Y-58979054D01*
X129304977Y-58999500D01*
X129337126Y-59119481D01*
X129340424Y-59131787D01*
X129354279Y-59155784D01*
X129354280Y-59155786D01*
X129419477Y-59268712D01*
X129419481Y-59268717D01*
X129538349Y-59387585D01*
X129538355Y-59387590D01*
X130191090Y-60040325D01*
X130224575Y-60101648D01*
X130219591Y-60171340D01*
X130177719Y-60227273D01*
X130123819Y-60250315D01*
X129880506Y-60290916D01*
X129645396Y-60371630D01*
X129645390Y-60371632D01*
X129426761Y-60489949D01*
X129379942Y-60526388D01*
X129379942Y-60526390D01*
X130079765Y-61226212D01*
X130037708Y-61237482D01*
X129912292Y-61309890D01*
X129809890Y-61412292D01*
X129737482Y-61537708D01*
X129726212Y-61579764D01*
X129026564Y-60880116D01*
X128926267Y-61033632D01*
X128826412Y-61261282D01*
X128765387Y-61502261D01*
X128765385Y-61502270D01*
X128744859Y-61749994D01*
X128744859Y-61750000D01*
X128765385Y-61997729D01*
X128765387Y-61997738D01*
X128826412Y-62238717D01*
X128926266Y-62466364D01*
X129026564Y-62619882D01*
X129726212Y-61920234D01*
X129737482Y-61962292D01*
X129809890Y-62087708D01*
X129912292Y-62190110D01*
X130037708Y-62262518D01*
X130079765Y-62273787D01*
X129379942Y-62973609D01*
X129426768Y-63010055D01*
X129426770Y-63010056D01*
X129645385Y-63128364D01*
X129645396Y-63128369D01*
X129880506Y-63209083D01*
X130125707Y-63250000D01*
X130374293Y-63250000D01*
X130619493Y-63209083D01*
X130854603Y-63128369D01*
X130854614Y-63128364D01*
X131073228Y-63010057D01*
X131073231Y-63010055D01*
X131120056Y-62973609D01*
X130420234Y-62273787D01*
X130462292Y-62262518D01*
X130587708Y-62190110D01*
X130690110Y-62087708D01*
X130762518Y-61962292D01*
X130773787Y-61920234D01*
X131473434Y-62619882D01*
X131573731Y-62466369D01*
X131673587Y-62238717D01*
X131734612Y-61997738D01*
X131734614Y-61997729D01*
X131755141Y-61750000D01*
X131755141Y-61749994D01*
X131734614Y-61502270D01*
X131734612Y-61502261D01*
X131673587Y-61261282D01*
X131573732Y-61033632D01*
X131437770Y-60825525D01*
X131422082Y-60808484D01*
X131391159Y-60745829D01*
X131399019Y-60676403D01*
X131443166Y-60622247D01*
X131509583Y-60600556D01*
X131513311Y-60600500D01*
X133486009Y-60600500D01*
X133553048Y-60620185D01*
X133598803Y-60672989D01*
X133608747Y-60742147D01*
X133579722Y-60805703D01*
X133577239Y-60808482D01*
X133561836Y-60825214D01*
X133425826Y-61033393D01*
X133325936Y-61261118D01*
X133264892Y-61502175D01*
X133264890Y-61502187D01*
X133244357Y-61749994D01*
X133244357Y-61750000D01*
X133264890Y-61997812D01*
X133264892Y-61997824D01*
X133325936Y-62238881D01*
X133425826Y-62466606D01*
X133561833Y-62674782D01*
X133561836Y-62674785D01*
X133730256Y-62857738D01*
X133926491Y-63010474D01*
X133926493Y-63010475D01*
X134144332Y-63128364D01*
X134145190Y-63128828D01*
X134263713Y-63169517D01*
X134378964Y-63209083D01*
X134380386Y-63209571D01*
X134625665Y-63250500D01*
X134874335Y-63250500D01*
X135119614Y-63209571D01*
X135354810Y-63128828D01*
X135573509Y-63010474D01*
X135769744Y-62857738D01*
X135938164Y-62674785D01*
X136074173Y-62466607D01*
X136174063Y-62238881D01*
X136235108Y-61997821D01*
X136255643Y-61750000D01*
X136253537Y-61724586D01*
X136235109Y-61502187D01*
X136235107Y-61502175D01*
X136174063Y-61261118D01*
X136074173Y-61033393D01*
X136001073Y-60921505D01*
X135938164Y-60825215D01*
X135929311Y-60815598D01*
X135922761Y-60808482D01*
X135891839Y-60745828D01*
X135899699Y-60676402D01*
X135943847Y-60622246D01*
X136010264Y-60600556D01*
X136013991Y-60600500D01*
X136986689Y-60600500D01*
X137053728Y-60620185D01*
X137099483Y-60672989D01*
X137109427Y-60742147D01*
X137080402Y-60805703D01*
X137077918Y-60808484D01*
X137062229Y-60825525D01*
X136926267Y-61033632D01*
X136826412Y-61261282D01*
X136765387Y-61502261D01*
X136765385Y-61502270D01*
X136744859Y-61749994D01*
X136744859Y-61750000D01*
X136765385Y-61997729D01*
X136765387Y-61997738D01*
X136826412Y-62238717D01*
X136926266Y-62466364D01*
X137026564Y-62619882D01*
X137726212Y-61920233D01*
X137737482Y-61962292D01*
X137809890Y-62087708D01*
X137912292Y-62190110D01*
X138037708Y-62262518D01*
X138079765Y-62273787D01*
X137379942Y-62973609D01*
X137426768Y-63010055D01*
X137426770Y-63010056D01*
X137645385Y-63128364D01*
X137645396Y-63128369D01*
X137880506Y-63209083D01*
X138125707Y-63250000D01*
X138374293Y-63250000D01*
X138619493Y-63209083D01*
X138854603Y-63128369D01*
X138854614Y-63128364D01*
X139073228Y-63010057D01*
X139073231Y-63010055D01*
X139120056Y-62973609D01*
X138420234Y-62273787D01*
X138462292Y-62262518D01*
X138587708Y-62190110D01*
X138690110Y-62087708D01*
X138762518Y-61962292D01*
X138773787Y-61920235D01*
X139473434Y-62619882D01*
X139573731Y-62466369D01*
X139673587Y-62238717D01*
X139734612Y-61997738D01*
X139734614Y-61997729D01*
X139755141Y-61750000D01*
X139755141Y-61749994D01*
X139734614Y-61502270D01*
X139734612Y-61502261D01*
X139673587Y-61261282D01*
X139573732Y-61033632D01*
X139437770Y-60825525D01*
X139422082Y-60808484D01*
X139391159Y-60745829D01*
X139399019Y-60676403D01*
X139443166Y-60622247D01*
X139509583Y-60600556D01*
X139513311Y-60600500D01*
X141486009Y-60600500D01*
X141553048Y-60620185D01*
X141598803Y-60672989D01*
X141608747Y-60742147D01*
X141579722Y-60805703D01*
X141577239Y-60808482D01*
X141561836Y-60825214D01*
X141425826Y-61033393D01*
X141325936Y-61261118D01*
X141264892Y-61502175D01*
X141264890Y-61502187D01*
X141244357Y-61749994D01*
X141244357Y-61750000D01*
X141264890Y-61997812D01*
X141264892Y-61997824D01*
X141325936Y-62238881D01*
X141425826Y-62466606D01*
X141561833Y-62674782D01*
X141561836Y-62674785D01*
X141730256Y-62857738D01*
X141926491Y-63010474D01*
X141926493Y-63010475D01*
X142144332Y-63128364D01*
X142145190Y-63128828D01*
X142263713Y-63169517D01*
X142378964Y-63209083D01*
X142380386Y-63209571D01*
X142625665Y-63250500D01*
X142874335Y-63250500D01*
X143119614Y-63209571D01*
X143354810Y-63128828D01*
X143573509Y-63010474D01*
X143769744Y-62857738D01*
X143938164Y-62674785D01*
X144074173Y-62466607D01*
X144174063Y-62238881D01*
X144235108Y-61997821D01*
X144255643Y-61750000D01*
X144253537Y-61724586D01*
X144235109Y-61502187D01*
X144235107Y-61502175D01*
X144174063Y-61261118D01*
X144074173Y-61033393D01*
X144001073Y-60921505D01*
X143938164Y-60825215D01*
X143929311Y-60815598D01*
X143922761Y-60808482D01*
X143891839Y-60745828D01*
X143899699Y-60676402D01*
X143943847Y-60622246D01*
X144010264Y-60600556D01*
X144013991Y-60600500D01*
X144986689Y-60600500D01*
X145053728Y-60620185D01*
X145099483Y-60672989D01*
X145109427Y-60742147D01*
X145080402Y-60805703D01*
X145077918Y-60808484D01*
X145062229Y-60825525D01*
X144926267Y-61033632D01*
X144826412Y-61261282D01*
X144765387Y-61502261D01*
X144765385Y-61502270D01*
X144744859Y-61749994D01*
X144744859Y-61750000D01*
X144765385Y-61997729D01*
X144765387Y-61997738D01*
X144826412Y-62238717D01*
X144926266Y-62466364D01*
X145026564Y-62619882D01*
X145726212Y-61920233D01*
X145737482Y-61962292D01*
X145809890Y-62087708D01*
X145912292Y-62190110D01*
X146037708Y-62262518D01*
X146079765Y-62273787D01*
X145379942Y-62973609D01*
X145426768Y-63010055D01*
X145426770Y-63010056D01*
X145645385Y-63128364D01*
X145645396Y-63128369D01*
X145880506Y-63209083D01*
X146125707Y-63250000D01*
X146374293Y-63250000D01*
X146619493Y-63209083D01*
X146854603Y-63128369D01*
X146854614Y-63128364D01*
X147073228Y-63010057D01*
X147073231Y-63010055D01*
X147120056Y-62973609D01*
X146420234Y-62273787D01*
X146462292Y-62262518D01*
X146587708Y-62190110D01*
X146690110Y-62087708D01*
X146762518Y-61962292D01*
X146773787Y-61920235D01*
X147473434Y-62619882D01*
X147573731Y-62466369D01*
X147673587Y-62238717D01*
X147734612Y-61997738D01*
X147734614Y-61997729D01*
X147755141Y-61750000D01*
X147755141Y-61749994D01*
X147734614Y-61502270D01*
X147734612Y-61502261D01*
X147673587Y-61261282D01*
X147573732Y-61033632D01*
X147437770Y-60825525D01*
X147422082Y-60808484D01*
X147391159Y-60745829D01*
X147399019Y-60676403D01*
X147443166Y-60622247D01*
X147509583Y-60600556D01*
X147513311Y-60600500D01*
X149486009Y-60600500D01*
X149553048Y-60620185D01*
X149598803Y-60672989D01*
X149608747Y-60742147D01*
X149579722Y-60805703D01*
X149577239Y-60808482D01*
X149561836Y-60825214D01*
X149425826Y-61033393D01*
X149325936Y-61261118D01*
X149264892Y-61502175D01*
X149264890Y-61502187D01*
X149244357Y-61749994D01*
X149244357Y-61750000D01*
X149264890Y-61997812D01*
X149264892Y-61997824D01*
X149325936Y-62238881D01*
X149425826Y-62466606D01*
X149561833Y-62674782D01*
X149561836Y-62674785D01*
X149730256Y-62857738D01*
X149926491Y-63010474D01*
X149926493Y-63010475D01*
X150144332Y-63128364D01*
X150145190Y-63128828D01*
X150263713Y-63169517D01*
X150378964Y-63209083D01*
X150380386Y-63209571D01*
X150625665Y-63250500D01*
X150874335Y-63250500D01*
X151119614Y-63209571D01*
X151354810Y-63128828D01*
X151573509Y-63010474D01*
X151769744Y-62857738D01*
X151938164Y-62674785D01*
X152074173Y-62466607D01*
X152174063Y-62238881D01*
X152235108Y-61997821D01*
X152255643Y-61750000D01*
X152253537Y-61724586D01*
X152235109Y-61502187D01*
X152235107Y-61502175D01*
X152174063Y-61261118D01*
X152074173Y-61033393D01*
X152001073Y-60921505D01*
X151938164Y-60825215D01*
X151929311Y-60815598D01*
X151922761Y-60808482D01*
X151891839Y-60745828D01*
X151899699Y-60676402D01*
X151943847Y-60622246D01*
X152010264Y-60600556D01*
X152013991Y-60600500D01*
X157699903Y-60600500D01*
X157766942Y-60620185D01*
X157787584Y-60636819D01*
X157863181Y-60712416D01*
X157896666Y-60773739D01*
X157899500Y-60800097D01*
X157899500Y-62079057D01*
X157930678Y-62195413D01*
X157940423Y-62231783D01*
X157940426Y-62231790D01*
X158019475Y-62368709D01*
X158019479Y-62368714D01*
X158019480Y-62368716D01*
X158131284Y-62480520D01*
X158131286Y-62480521D01*
X158131290Y-62480524D01*
X158268209Y-62559573D01*
X158268216Y-62559577D01*
X158420943Y-62600500D01*
X158558884Y-62600500D01*
X158625923Y-62620185D01*
X158671678Y-62672989D01*
X158672440Y-62674689D01*
X158690827Y-62716608D01*
X158826833Y-62924782D01*
X158826836Y-62924785D01*
X158995256Y-63107738D01*
X159191491Y-63260474D01*
X159410190Y-63378828D01*
X159645386Y-63459571D01*
X159890665Y-63500500D01*
X160139335Y-63500500D01*
X160384614Y-63459571D01*
X160619810Y-63378828D01*
X160838509Y-63260474D01*
X161034744Y-63107738D01*
X161193771Y-62934988D01*
X161253657Y-62898999D01*
X161323495Y-62901099D01*
X161376228Y-62934988D01*
X161535256Y-63107738D01*
X161731491Y-63260474D01*
X161950190Y-63378828D01*
X162185386Y-63459571D01*
X162430665Y-63500500D01*
X162679335Y-63500500D01*
X162924614Y-63459571D01*
X163159810Y-63378828D01*
X163378509Y-63260474D01*
X163574744Y-63107738D01*
X163733771Y-62934988D01*
X163793657Y-62898999D01*
X163863495Y-62901099D01*
X163916228Y-62934988D01*
X164075256Y-63107738D01*
X164271491Y-63260474D01*
X164490190Y-63378828D01*
X164725386Y-63459571D01*
X164970665Y-63500500D01*
X165219335Y-63500500D01*
X165464614Y-63459571D01*
X165699810Y-63378828D01*
X165918509Y-63260474D01*
X166114744Y-63107738D01*
X166273771Y-62934988D01*
X166333657Y-62898999D01*
X166403495Y-62901099D01*
X166456228Y-62934988D01*
X166615256Y-63107738D01*
X166811491Y-63260474D01*
X167030190Y-63378828D01*
X167265386Y-63459571D01*
X167510665Y-63500500D01*
X167759335Y-63500500D01*
X168004614Y-63459571D01*
X168239810Y-63378828D01*
X168458509Y-63260474D01*
X168542201Y-63195333D01*
X168607192Y-63169692D01*
X168675732Y-63183258D01*
X168726057Y-63231726D01*
X168727290Y-63234361D01*
X168727396Y-63234304D01*
X168731649Y-63242093D01*
X168817809Y-63357187D01*
X168817812Y-63357190D01*
X168932906Y-63443350D01*
X168932913Y-63443354D01*
X169067620Y-63493596D01*
X169067627Y-63493598D01*
X169127155Y-63499999D01*
X169127172Y-63500000D01*
X169925000Y-63500000D01*
X169925000Y-62600001D01*
X169985402Y-62625021D01*
X170110981Y-62650000D01*
X170239019Y-62650000D01*
X170364598Y-62625021D01*
X170425000Y-62600001D01*
X170425000Y-63500000D01*
X171222828Y-63500000D01*
X171222844Y-63499999D01*
X171282372Y-63493598D01*
X171282379Y-63493596D01*
X171417086Y-63443354D01*
X171417093Y-63443350D01*
X171532187Y-63357190D01*
X171532190Y-63357187D01*
X171618350Y-63242093D01*
X171622604Y-63234304D01*
X171625816Y-63236057D01*
X171657183Y-63194029D01*
X171722612Y-63169517D01*
X171790906Y-63184269D01*
X171807795Y-63195330D01*
X171891491Y-63260474D01*
X172110190Y-63378828D01*
X172345386Y-63459571D01*
X172590665Y-63500500D01*
X172839335Y-63500500D01*
X173084614Y-63459571D01*
X173319810Y-63378828D01*
X173538509Y-63260474D01*
X173734744Y-63107738D01*
X173903164Y-62924785D01*
X174039173Y-62716607D01*
X174139063Y-62488881D01*
X174200108Y-62247821D01*
X174200849Y-62238881D01*
X174220643Y-62000005D01*
X174220643Y-61999994D01*
X174200109Y-61752187D01*
X174200107Y-61752175D01*
X174139063Y-61511118D01*
X174039173Y-61283393D01*
X173903166Y-61075217D01*
X173864664Y-61033393D01*
X173734744Y-60892262D01*
X173538509Y-60739526D01*
X173538507Y-60739525D01*
X173538506Y-60739524D01*
X173319811Y-60621172D01*
X173319802Y-60621169D01*
X173084616Y-60540429D01*
X172839335Y-60499500D01*
X172590665Y-60499500D01*
X172345382Y-60540429D01*
X172345380Y-60540429D01*
X172239393Y-60576815D01*
X172169595Y-60579965D01*
X172111450Y-60547215D01*
X159702590Y-48138355D01*
X159702588Y-48138352D01*
X159583717Y-48019481D01*
X159583716Y-48019480D01*
X159496904Y-47969360D01*
X159496904Y-47969359D01*
X159496900Y-47969358D01*
X159446785Y-47940423D01*
X159294057Y-47899499D01*
X159135943Y-47899499D01*
X159128347Y-47899499D01*
X159128331Y-47899500D01*
X158383063Y-47899500D01*
X158316024Y-47879815D01*
X158270269Y-47827011D01*
X158260325Y-47757853D01*
X158266022Y-47734545D01*
X158285366Y-47679262D01*
X158285369Y-47679249D01*
X158305565Y-47500003D01*
X158305565Y-47499996D01*
X158285369Y-47320750D01*
X158285368Y-47320745D01*
X158278597Y-47301395D01*
X158225789Y-47150478D01*
X158217125Y-47136690D01*
X158162771Y-47050185D01*
X158129816Y-46997738D01*
X158129815Y-46997737D01*
X158127555Y-46994903D01*
X158126665Y-46992724D01*
X158126111Y-46991842D01*
X158126265Y-46991744D01*
X158101146Y-46930216D01*
X158100781Y-46923070D01*
X158100501Y-46920945D01*
X158100501Y-46920943D01*
X158059577Y-46768216D01*
X158045782Y-46744322D01*
X157980524Y-46631290D01*
X157980518Y-46631282D01*
X157298717Y-45949481D01*
X157298709Y-45949475D01*
X157188194Y-45885670D01*
X157188193Y-45885669D01*
X157169630Y-45874952D01*
X157161785Y-45870423D01*
X157009057Y-45829499D01*
X156850943Y-45829499D01*
X156843347Y-45829499D01*
X156843331Y-45829500D01*
X153819091Y-45829500D01*
X153752052Y-45809815D01*
X153706711Y-45757909D01*
X153704037Y-45752175D01*
X153704034Y-45752170D01*
X153704033Y-45752169D01*
X153568495Y-45558599D01*
X153446567Y-45436671D01*
X153413084Y-45375351D01*
X153418068Y-45305659D01*
X153459939Y-45249725D01*
X153490915Y-45232810D01*
X153622331Y-45183796D01*
X153737546Y-45097546D01*
X153823796Y-44982331D01*
X153874091Y-44847483D01*
X153880500Y-44787873D01*
X153880500Y-44614500D01*
X153900185Y-44547461D01*
X153952989Y-44501706D01*
X154004500Y-44490500D01*
X157307059Y-44490500D01*
X157374098Y-44510185D01*
X157394740Y-44526818D01*
X157497738Y-44629816D01*
X157650478Y-44725789D01*
X157820745Y-44785368D01*
X157820750Y-44785369D01*
X157999996Y-44805565D01*
X158000000Y-44805565D01*
X158000004Y-44805565D01*
X158179249Y-44785369D01*
X158179252Y-44785368D01*
X158179255Y-44785368D01*
X158349522Y-44725789D01*
X158502262Y-44629816D01*
X158629816Y-44502262D01*
X158725789Y-44349522D01*
X158785368Y-44179255D01*
X158805565Y-44000000D01*
X158785368Y-43820745D01*
X158725789Y-43650478D01*
X158717206Y-43636819D01*
X158668671Y-43559576D01*
X158629816Y-43497738D01*
X158502262Y-43370184D01*
X158493033Y-43364385D01*
X158349523Y-43274211D01*
X158179254Y-43214631D01*
X158179249Y-43214630D01*
X158000004Y-43194435D01*
X157999996Y-43194435D01*
X157820750Y-43214630D01*
X157820745Y-43214631D01*
X157650476Y-43274211D01*
X157644239Y-43277216D01*
X157590429Y-43289500D01*
X154004499Y-43289500D01*
X153937460Y-43269815D01*
X153891705Y-43217011D01*
X153880499Y-43165500D01*
X153880499Y-42992129D01*
X153880498Y-42992123D01*
X153880497Y-42992116D01*
X153874091Y-42932517D01*
X153823796Y-42797669D01*
X153823795Y-42797668D01*
X153823793Y-42797664D01*
X153737547Y-42682455D01*
X153737544Y-42682452D01*
X153622335Y-42596206D01*
X153622328Y-42596202D01*
X153490917Y-42547189D01*
X153434983Y-42505318D01*
X153410566Y-42439853D01*
X153425418Y-42371580D01*
X153446563Y-42343332D01*
X153568495Y-42221401D01*
X153704035Y-42027830D01*
X153706707Y-42022097D01*
X153752878Y-41969658D01*
X153819091Y-41950500D01*
X156550069Y-41950500D01*
X156617108Y-41970185D01*
X156625557Y-41976125D01*
X156631280Y-41980516D01*
X156631284Y-41980520D01*
X156713228Y-42027830D01*
X156768215Y-42059577D01*
X156920943Y-42100501D01*
X156920946Y-42100501D01*
X157086653Y-42100501D01*
X157086669Y-42100500D01*
X157417588Y-42100500D01*
X157484627Y-42120185D01*
X157494903Y-42127555D01*
X157497736Y-42129814D01*
X157497738Y-42129816D01*
X157607705Y-42198913D01*
X157643494Y-42221401D01*
X157650478Y-42225789D01*
X157820745Y-42285368D01*
X157820750Y-42285369D01*
X157999996Y-42305565D01*
X158000000Y-42305565D01*
X158000004Y-42305565D01*
X158179249Y-42285369D01*
X158179252Y-42285368D01*
X158179255Y-42285368D01*
X158349522Y-42225789D01*
X158502262Y-42129816D01*
X158629816Y-42002262D01*
X158725789Y-41849522D01*
X158785368Y-41679255D01*
X158791898Y-41621300D01*
X158805565Y-41500003D01*
X158805565Y-41499996D01*
X158785369Y-41320750D01*
X158785368Y-41320745D01*
X158759572Y-41247024D01*
X158725789Y-41150478D01*
X158629816Y-40997738D01*
X158502262Y-40870184D01*
X158450025Y-40837361D01*
X158349523Y-40774211D01*
X158179254Y-40714631D01*
X158179249Y-40714630D01*
X158000004Y-40694435D01*
X157999996Y-40694435D01*
X157820750Y-40714630D01*
X157820745Y-40714631D01*
X157650476Y-40774211D01*
X157497736Y-40870185D01*
X157494903Y-40872445D01*
X157492724Y-40873334D01*
X157491842Y-40873889D01*
X157491744Y-40873734D01*
X157430217Y-40898855D01*
X157417588Y-40899500D01*
X157299931Y-40899500D01*
X157232892Y-40879815D01*
X157224443Y-40873875D01*
X157218718Y-40869482D01*
X157218716Y-40869480D01*
X157131904Y-40819360D01*
X157131904Y-40819359D01*
X157131900Y-40819358D01*
X157081785Y-40790423D01*
X156929057Y-40749499D01*
X156770943Y-40749499D01*
X156763347Y-40749499D01*
X156763331Y-40749500D01*
X153819091Y-40749500D01*
X153752052Y-40729815D01*
X153706711Y-40677909D01*
X153704037Y-40672175D01*
X153704034Y-40672170D01*
X153704033Y-40672169D01*
X153568495Y-40478599D01*
X153568494Y-40478597D01*
X153401402Y-40311506D01*
X153401395Y-40311501D01*
X153207834Y-40175967D01*
X153207830Y-40175965D01*
X153111589Y-40131087D01*
X152993663Y-40076097D01*
X152993659Y-40076096D01*
X152993655Y-40076094D01*
X152765413Y-40014938D01*
X152765403Y-40014936D01*
X152530001Y-39994341D01*
X152529999Y-39994341D01*
X152294596Y-40014936D01*
X152294586Y-40014938D01*
X152066344Y-40076094D01*
X152066335Y-40076098D01*
X151852171Y-40175964D01*
X151852169Y-40175965D01*
X151658597Y-40311505D01*
X151491505Y-40478597D01*
X151355965Y-40672169D01*
X151355964Y-40672171D01*
X151256098Y-40886335D01*
X151256094Y-40886344D01*
X151194938Y-41114586D01*
X151194936Y-41114596D01*
X151174341Y-41349999D01*
X151174341Y-41350000D01*
X151194936Y-41585403D01*
X151194938Y-41585413D01*
X151256094Y-41813655D01*
X151256096Y-41813659D01*
X151256097Y-41813663D01*
X151355965Y-42027830D01*
X151491501Y-42221396D01*
X151491506Y-42221402D01*
X151613430Y-42343326D01*
X151646915Y-42404649D01*
X151641931Y-42474341D01*
X151600059Y-42530274D01*
X151569083Y-42547189D01*
X151437669Y-42596203D01*
X151437664Y-42596206D01*
X151322455Y-42682452D01*
X151322452Y-42682455D01*
X151236206Y-42797664D01*
X151236202Y-42797671D01*
X151185908Y-42932517D01*
X151179501Y-42992116D01*
X151179501Y-42992123D01*
X151179500Y-42992135D01*
X151179500Y-44787870D01*
X151179501Y-44787876D01*
X151185908Y-44847483D01*
X151236202Y-44982328D01*
X151236206Y-44982335D01*
X151322452Y-45097544D01*
X151322455Y-45097547D01*
X151437664Y-45183793D01*
X151437671Y-45183797D01*
X151569081Y-45232810D01*
X151625015Y-45274681D01*
X151649432Y-45340145D01*
X151634580Y-45408418D01*
X151613430Y-45436673D01*
X151491503Y-45558600D01*
X151355965Y-45752169D01*
X151355964Y-45752171D01*
X151256098Y-45966335D01*
X151256094Y-45966344D01*
X151194938Y-46194586D01*
X151194936Y-46194596D01*
X151174341Y-46429999D01*
X151174341Y-46430000D01*
X151194936Y-46665403D01*
X151194938Y-46665413D01*
X151256094Y-46893655D01*
X151256096Y-46893659D01*
X151256097Y-46893663D01*
X151328839Y-47049658D01*
X151355965Y-47107830D01*
X151355967Y-47107834D01*
X151464281Y-47262521D01*
X151491505Y-47301401D01*
X151658599Y-47468495D01*
X151695848Y-47494577D01*
X151852165Y-47604032D01*
X151852167Y-47604033D01*
X151852170Y-47604035D01*
X151948422Y-47648918D01*
X151978874Y-47663118D01*
X152031313Y-47709290D01*
X152050465Y-47776484D01*
X152030249Y-47843365D01*
X151977084Y-47888700D01*
X151926469Y-47899500D01*
X133300098Y-47899500D01*
X133233059Y-47879815D01*
X133212417Y-47863181D01*
X127987590Y-42638355D01*
X127987588Y-42638352D01*
X127868717Y-42519481D01*
X127868716Y-42519480D01*
X127775219Y-42465500D01*
X127731785Y-42440423D01*
X127579057Y-42399499D01*
X127420943Y-42399499D01*
X127413347Y-42399499D01*
X127413331Y-42399500D01*
X122300097Y-42399500D01*
X122233058Y-42379815D01*
X122212416Y-42363181D01*
X116487590Y-36638355D01*
X116487588Y-36638352D01*
X116368717Y-36519481D01*
X116368716Y-36519480D01*
X116281904Y-36469360D01*
X116281904Y-36469359D01*
X116281900Y-36469358D01*
X116231785Y-36440423D01*
X116079057Y-36399499D01*
X115920943Y-36399499D01*
X115913347Y-36399499D01*
X115913331Y-36399500D01*
X115409110Y-36399500D01*
X115342071Y-36379815D01*
X115296316Y-36327011D01*
X115286372Y-36257853D01*
X115315397Y-36194297D01*
X115337987Y-36173925D01*
X115454865Y-36092086D01*
X115531401Y-36038495D01*
X115698495Y-35871401D01*
X115828425Y-35685842D01*
X115883002Y-35642217D01*
X115952500Y-35635023D01*
X116014855Y-35666546D01*
X116031575Y-35685842D01*
X116161500Y-35871395D01*
X116161505Y-35871401D01*
X116328599Y-36038495D01*
X116405135Y-36092086D01*
X116522165Y-36174032D01*
X116522167Y-36174033D01*
X116522170Y-36174035D01*
X116736337Y-36273903D01*
X116964592Y-36335063D01*
X117135319Y-36350000D01*
X117199999Y-36355659D01*
X117200000Y-36355659D01*
X117200001Y-36355659D01*
X117264681Y-36350000D01*
X117435408Y-36335063D01*
X117663663Y-36273903D01*
X117877830Y-36174035D01*
X118071401Y-36038495D01*
X118238495Y-35871401D01*
X118368425Y-35685842D01*
X118423002Y-35642217D01*
X118492500Y-35635023D01*
X118554855Y-35666546D01*
X118571575Y-35685842D01*
X118701500Y-35871395D01*
X118701505Y-35871401D01*
X118868599Y-36038495D01*
X118945135Y-36092086D01*
X119062165Y-36174032D01*
X119062167Y-36174033D01*
X119062170Y-36174035D01*
X119276337Y-36273903D01*
X119504592Y-36335063D01*
X119675319Y-36350000D01*
X119739999Y-36355659D01*
X119740000Y-36355659D01*
X119740001Y-36355659D01*
X119804681Y-36350000D01*
X119975408Y-36335063D01*
X120203663Y-36273903D01*
X120417830Y-36174035D01*
X120611401Y-36038495D01*
X120733717Y-35916178D01*
X120795036Y-35882696D01*
X120864728Y-35887680D01*
X120920662Y-35929551D01*
X120937577Y-35960528D01*
X120986646Y-36092088D01*
X120986649Y-36092093D01*
X121072809Y-36207187D01*
X121072812Y-36207190D01*
X121187906Y-36293350D01*
X121187913Y-36293354D01*
X121322620Y-36343596D01*
X121322627Y-36343598D01*
X121382155Y-36349999D01*
X121382172Y-36350000D01*
X122030000Y-36350000D01*
X122030000Y-35444560D01*
X122083147Y-35475245D01*
X122212857Y-35510000D01*
X122347143Y-35510000D01*
X122476853Y-35475245D01*
X122530000Y-35444560D01*
X122530000Y-36350000D01*
X123177828Y-36350000D01*
X123177844Y-36349999D01*
X123237372Y-36343598D01*
X123237379Y-36343596D01*
X123372086Y-36293354D01*
X123372093Y-36293350D01*
X123487187Y-36207190D01*
X123487190Y-36207187D01*
X123573350Y-36092093D01*
X123573354Y-36092086D01*
X123622422Y-35960529D01*
X123664293Y-35904595D01*
X123729757Y-35880178D01*
X123798030Y-35895030D01*
X123826285Y-35916181D01*
X123948599Y-36038495D01*
X124025135Y-36092086D01*
X124142165Y-36174032D01*
X124142167Y-36174033D01*
X124142170Y-36174035D01*
X124356337Y-36273903D01*
X124584592Y-36335063D01*
X124755319Y-36350000D01*
X124819999Y-36355659D01*
X124820000Y-36355659D01*
X124820001Y-36355659D01*
X124884681Y-36350000D01*
X125055408Y-36335063D01*
X125283663Y-36273903D01*
X125497830Y-36174035D01*
X125691401Y-36038495D01*
X125858495Y-35871401D01*
X125988425Y-35685842D01*
X126043002Y-35642217D01*
X126112500Y-35635023D01*
X126174855Y-35666546D01*
X126191575Y-35685842D01*
X126321500Y-35871395D01*
X126321505Y-35871401D01*
X126488599Y-36038495D01*
X126565135Y-36092086D01*
X126682165Y-36174032D01*
X126682167Y-36174033D01*
X126682170Y-36174035D01*
X126896337Y-36273903D01*
X127124592Y-36335063D01*
X127295319Y-36350000D01*
X127359999Y-36355659D01*
X127360000Y-36355659D01*
X127360001Y-36355659D01*
X127424681Y-36350000D01*
X127595408Y-36335063D01*
X127823663Y-36273903D01*
X128037830Y-36174035D01*
X128231401Y-36038495D01*
X128398495Y-35871401D01*
X128528425Y-35685842D01*
X128583002Y-35642217D01*
X128652500Y-35635023D01*
X128714855Y-35666546D01*
X128731575Y-35685842D01*
X128861500Y-35871395D01*
X128861505Y-35871401D01*
X129028599Y-36038495D01*
X129105135Y-36092086D01*
X129222165Y-36174032D01*
X129222167Y-36174033D01*
X129222170Y-36174035D01*
X129436337Y-36273903D01*
X129664592Y-36335063D01*
X129835319Y-36350000D01*
X129899999Y-36355659D01*
X129900000Y-36355659D01*
X129900001Y-36355659D01*
X129964681Y-36350000D01*
X130135408Y-36335063D01*
X130363663Y-36273903D01*
X130577830Y-36174035D01*
X130771401Y-36038495D01*
X130938495Y-35871401D01*
X131068425Y-35685842D01*
X131123002Y-35642217D01*
X131192500Y-35635023D01*
X131254855Y-35666546D01*
X131271575Y-35685842D01*
X131401500Y-35871395D01*
X131401505Y-35871401D01*
X131568599Y-36038495D01*
X131645135Y-36092086D01*
X131762165Y-36174032D01*
X131762167Y-36174033D01*
X131762170Y-36174035D01*
X131976337Y-36273903D01*
X132204592Y-36335063D01*
X132375319Y-36350000D01*
X132439999Y-36355659D01*
X132440000Y-36355659D01*
X132440001Y-36355659D01*
X132504681Y-36350000D01*
X132675408Y-36335063D01*
X132903663Y-36273903D01*
X133117830Y-36174035D01*
X133311401Y-36038495D01*
X133433717Y-35916178D01*
X133495036Y-35882696D01*
X133564728Y-35887680D01*
X133620662Y-35929551D01*
X133637577Y-35960528D01*
X133686646Y-36092088D01*
X133686649Y-36092093D01*
X133772809Y-36207187D01*
X133772812Y-36207190D01*
X133887906Y-36293350D01*
X133887913Y-36293354D01*
X134022620Y-36343596D01*
X134022627Y-36343598D01*
X134082155Y-36349999D01*
X134082172Y-36350000D01*
X134730000Y-36350000D01*
X134730000Y-35444560D01*
X134783147Y-35475245D01*
X134912857Y-35510000D01*
X135047143Y-35510000D01*
X135176853Y-35475245D01*
X135230000Y-35444560D01*
X135230000Y-36350000D01*
X135877828Y-36350000D01*
X135877844Y-36349999D01*
X135937372Y-36343598D01*
X135937379Y-36343596D01*
X136072086Y-36293354D01*
X136072093Y-36293350D01*
X136187187Y-36207190D01*
X136187190Y-36207187D01*
X136273350Y-36092093D01*
X136273354Y-36092086D01*
X136322422Y-35960529D01*
X136364293Y-35904595D01*
X136429757Y-35880178D01*
X136498030Y-35895030D01*
X136526285Y-35916181D01*
X136648599Y-36038495D01*
X136725135Y-36092086D01*
X136842165Y-36174032D01*
X136842167Y-36174033D01*
X136842170Y-36174035D01*
X137056337Y-36273903D01*
X137284592Y-36335063D01*
X137455319Y-36350000D01*
X137519999Y-36355659D01*
X137520000Y-36355659D01*
X137520001Y-36355659D01*
X137584681Y-36350000D01*
X137755408Y-36335063D01*
X137983663Y-36273903D01*
X138197830Y-36174035D01*
X138391401Y-36038495D01*
X138558495Y-35871401D01*
X138688425Y-35685842D01*
X138743002Y-35642217D01*
X138812500Y-35635023D01*
X138874855Y-35666546D01*
X138891575Y-35685842D01*
X139021500Y-35871395D01*
X139021505Y-35871401D01*
X139188599Y-36038495D01*
X139265135Y-36092086D01*
X139382165Y-36174032D01*
X139382167Y-36174033D01*
X139382170Y-36174035D01*
X139596337Y-36273903D01*
X139824592Y-36335063D01*
X139995319Y-36350000D01*
X140059999Y-36355659D01*
X140060000Y-36355659D01*
X140060001Y-36355659D01*
X140124681Y-36350000D01*
X140295408Y-36335063D01*
X140523663Y-36273903D01*
X140737830Y-36174035D01*
X140931401Y-36038495D01*
X141098495Y-35871401D01*
X141228425Y-35685842D01*
X141283002Y-35642217D01*
X141352500Y-35635023D01*
X141414855Y-35666546D01*
X141431575Y-35685842D01*
X141561500Y-35871395D01*
X141561505Y-35871401D01*
X141728599Y-36038495D01*
X141805135Y-36092086D01*
X141922165Y-36174032D01*
X141922167Y-36174033D01*
X141922170Y-36174035D01*
X142136337Y-36273903D01*
X142364592Y-36335063D01*
X142535319Y-36350000D01*
X142599999Y-36355659D01*
X142600000Y-36355659D01*
X142600001Y-36355659D01*
X142664681Y-36350000D01*
X142835408Y-36335063D01*
X143063663Y-36273903D01*
X143277830Y-36174035D01*
X143471401Y-36038495D01*
X143638495Y-35871401D01*
X143768425Y-35685842D01*
X143823002Y-35642217D01*
X143892500Y-35635023D01*
X143954855Y-35666546D01*
X143971575Y-35685842D01*
X144101500Y-35871395D01*
X144101505Y-35871401D01*
X144268599Y-36038495D01*
X144345135Y-36092086D01*
X144462165Y-36174032D01*
X144462167Y-36174033D01*
X144462170Y-36174035D01*
X144676337Y-36273903D01*
X144904592Y-36335063D01*
X145075319Y-36350000D01*
X145139999Y-36355659D01*
X145140000Y-36355659D01*
X145140001Y-36355659D01*
X145204681Y-36350000D01*
X145375408Y-36335063D01*
X145603663Y-36273903D01*
X145817830Y-36174035D01*
X146011401Y-36038495D01*
X146133717Y-35916178D01*
X146195036Y-35882696D01*
X146264728Y-35887680D01*
X146320662Y-35929551D01*
X146337577Y-35960528D01*
X146386646Y-36092088D01*
X146386649Y-36092093D01*
X146472809Y-36207187D01*
X146472812Y-36207190D01*
X146587906Y-36293350D01*
X146587913Y-36293354D01*
X146722620Y-36343596D01*
X146722627Y-36343598D01*
X146782155Y-36349999D01*
X146782172Y-36350000D01*
X147430000Y-36350000D01*
X147430000Y-35444560D01*
X147483147Y-35475245D01*
X147612857Y-35510000D01*
X147747143Y-35510000D01*
X147876853Y-35475245D01*
X147930000Y-35444560D01*
X147930000Y-36350000D01*
X148577828Y-36350000D01*
X148577844Y-36349999D01*
X148637372Y-36343598D01*
X148637379Y-36343596D01*
X148772086Y-36293354D01*
X148772093Y-36293350D01*
X148887187Y-36207190D01*
X148887190Y-36207187D01*
X148973350Y-36092093D01*
X148973354Y-36092086D01*
X149022422Y-35960529D01*
X149064293Y-35904595D01*
X149129757Y-35880178D01*
X149198030Y-35895030D01*
X149226285Y-35916181D01*
X149348599Y-36038495D01*
X149425135Y-36092086D01*
X149542165Y-36174032D01*
X149542167Y-36174033D01*
X149542170Y-36174035D01*
X149756337Y-36273903D01*
X149984592Y-36335063D01*
X150155319Y-36350000D01*
X150219999Y-36355659D01*
X150220000Y-36355659D01*
X150220001Y-36355659D01*
X150284681Y-36350000D01*
X150455408Y-36335063D01*
X150683663Y-36273903D01*
X150897830Y-36174035D01*
X151091401Y-36038495D01*
X151258495Y-35871401D01*
X151388425Y-35685842D01*
X151443002Y-35642217D01*
X151512500Y-35635023D01*
X151574855Y-35666546D01*
X151591575Y-35685842D01*
X151721500Y-35871395D01*
X151721505Y-35871401D01*
X151888599Y-36038495D01*
X151965135Y-36092086D01*
X152082165Y-36174032D01*
X152082167Y-36174033D01*
X152082170Y-36174035D01*
X152296337Y-36273903D01*
X152524592Y-36335063D01*
X152695319Y-36350000D01*
X152759999Y-36355659D01*
X152760000Y-36355659D01*
X152760001Y-36355659D01*
X152824681Y-36350000D01*
X152995408Y-36335063D01*
X153223663Y-36273903D01*
X153437830Y-36174035D01*
X153631401Y-36038495D01*
X153798495Y-35871401D01*
X153934035Y-35677830D01*
X154033903Y-35463663D01*
X154095063Y-35235408D01*
X154115659Y-35000000D01*
X154095063Y-34764592D01*
X154046888Y-34584799D01*
X154033905Y-34536344D01*
X154033904Y-34536343D01*
X154033903Y-34536337D01*
X153934035Y-34322171D01*
X153928425Y-34314158D01*
X153798494Y-34128597D01*
X153631402Y-33961506D01*
X153631395Y-33961501D01*
X153437834Y-33825967D01*
X153437830Y-33825965D01*
X153366727Y-33792809D01*
X153223663Y-33726097D01*
X153223659Y-33726096D01*
X153223655Y-33726094D01*
X152995413Y-33664938D01*
X152995403Y-33664936D01*
X152760001Y-33644341D01*
X152759999Y-33644341D01*
X152524596Y-33664936D01*
X152524586Y-33664938D01*
X152296344Y-33726094D01*
X152296335Y-33726098D01*
X152082171Y-33825964D01*
X152082169Y-33825965D01*
X151888597Y-33961505D01*
X151721505Y-34128597D01*
X151591575Y-34314158D01*
X151536998Y-34357783D01*
X151467500Y-34364977D01*
X151405145Y-34333454D01*
X151388425Y-34314158D01*
X151258494Y-34128597D01*
X151091402Y-33961506D01*
X151091395Y-33961501D01*
X150897834Y-33825967D01*
X150897830Y-33825965D01*
X150826727Y-33792809D01*
X150683663Y-33726097D01*
X150683659Y-33726096D01*
X150683655Y-33726094D01*
X150455413Y-33664938D01*
X150455403Y-33664936D01*
X150220001Y-33644341D01*
X150219999Y-33644341D01*
X149984596Y-33664936D01*
X149984586Y-33664938D01*
X149756344Y-33726094D01*
X149756335Y-33726098D01*
X149542171Y-33825964D01*
X149542169Y-33825965D01*
X149348600Y-33961503D01*
X149226284Y-34083819D01*
X149164961Y-34117303D01*
X149095269Y-34112319D01*
X149039336Y-34070447D01*
X149022421Y-34039470D01*
X148973354Y-33907913D01*
X148973350Y-33907906D01*
X148887190Y-33792812D01*
X148887187Y-33792809D01*
X148772093Y-33706649D01*
X148772086Y-33706645D01*
X148637379Y-33656403D01*
X148637372Y-33656401D01*
X148577844Y-33650000D01*
X147930000Y-33650000D01*
X147930000Y-34555439D01*
X147876853Y-34524755D01*
X147747143Y-34490000D01*
X147612857Y-34490000D01*
X147483147Y-34524755D01*
X147430000Y-34555439D01*
X147430000Y-33650000D01*
X146782155Y-33650000D01*
X146722627Y-33656401D01*
X146722620Y-33656403D01*
X146587913Y-33706645D01*
X146587906Y-33706649D01*
X146472812Y-33792809D01*
X146472809Y-33792812D01*
X146386649Y-33907906D01*
X146386645Y-33907913D01*
X146337578Y-34039470D01*
X146295707Y-34095404D01*
X146230242Y-34119821D01*
X146161969Y-34104969D01*
X146133715Y-34083819D01*
X146089366Y-34039470D01*
X146011401Y-33961505D01*
X146011397Y-33961502D01*
X146011396Y-33961501D01*
X145817834Y-33825967D01*
X145817830Y-33825965D01*
X145746727Y-33792809D01*
X145603663Y-33726097D01*
X145603659Y-33726096D01*
X145603655Y-33726094D01*
X145375413Y-33664938D01*
X145375403Y-33664936D01*
X145140001Y-33644341D01*
X145139999Y-33644341D01*
X144904596Y-33664936D01*
X144904586Y-33664938D01*
X144676344Y-33726094D01*
X144676335Y-33726098D01*
X144462171Y-33825964D01*
X144462169Y-33825965D01*
X144268597Y-33961505D01*
X144101505Y-34128597D01*
X143971575Y-34314158D01*
X143916998Y-34357783D01*
X143847500Y-34364977D01*
X143785145Y-34333454D01*
X143768425Y-34314158D01*
X143638494Y-34128597D01*
X143471402Y-33961506D01*
X143471395Y-33961501D01*
X143277834Y-33825967D01*
X143277830Y-33825965D01*
X143206727Y-33792809D01*
X143063663Y-33726097D01*
X143063659Y-33726096D01*
X143063655Y-33726094D01*
X142835413Y-33664938D01*
X142835403Y-33664936D01*
X142600001Y-33644341D01*
X142599999Y-33644341D01*
X142364596Y-33664936D01*
X142364586Y-33664938D01*
X142136344Y-33726094D01*
X142136335Y-33726098D01*
X141922171Y-33825964D01*
X141922169Y-33825965D01*
X141728597Y-33961505D01*
X141561505Y-34128597D01*
X141431575Y-34314158D01*
X141376998Y-34357783D01*
X141307500Y-34364977D01*
X141245145Y-34333454D01*
X141228425Y-34314158D01*
X141098494Y-34128597D01*
X140931402Y-33961506D01*
X140931395Y-33961501D01*
X140737834Y-33825967D01*
X140737830Y-33825965D01*
X140666727Y-33792809D01*
X140523663Y-33726097D01*
X140523659Y-33726096D01*
X140523655Y-33726094D01*
X140295413Y-33664938D01*
X140295403Y-33664936D01*
X140060001Y-33644341D01*
X140059999Y-33644341D01*
X139824596Y-33664936D01*
X139824586Y-33664938D01*
X139596344Y-33726094D01*
X139596335Y-33726098D01*
X139382171Y-33825964D01*
X139382169Y-33825965D01*
X139188597Y-33961505D01*
X139021505Y-34128597D01*
X138891575Y-34314158D01*
X138836998Y-34357783D01*
X138767500Y-34364977D01*
X138705145Y-34333454D01*
X138688425Y-34314158D01*
X138558494Y-34128597D01*
X138391402Y-33961506D01*
X138391395Y-33961501D01*
X138197834Y-33825967D01*
X138197830Y-33825965D01*
X138126727Y-33792809D01*
X137983663Y-33726097D01*
X137983659Y-33726096D01*
X137983655Y-33726094D01*
X137755413Y-33664938D01*
X137755403Y-33664936D01*
X137520001Y-33644341D01*
X137519999Y-33644341D01*
X137284596Y-33664936D01*
X137284586Y-33664938D01*
X137056344Y-33726094D01*
X137056335Y-33726098D01*
X136842171Y-33825964D01*
X136842169Y-33825965D01*
X136648600Y-33961503D01*
X136526284Y-34083819D01*
X136464961Y-34117303D01*
X136395269Y-34112319D01*
X136339336Y-34070447D01*
X136322421Y-34039470D01*
X136273354Y-33907913D01*
X136273350Y-33907906D01*
X136187190Y-33792812D01*
X136187187Y-33792809D01*
X136072093Y-33706649D01*
X136072086Y-33706645D01*
X135937379Y-33656403D01*
X135937372Y-33656401D01*
X135877844Y-33650000D01*
X135230000Y-33650000D01*
X135230000Y-34555439D01*
X135176853Y-34524755D01*
X135047143Y-34490000D01*
X134912857Y-34490000D01*
X134783147Y-34524755D01*
X134730000Y-34555439D01*
X134730000Y-33650000D01*
X134082155Y-33650000D01*
X134022627Y-33656401D01*
X134022620Y-33656403D01*
X133887913Y-33706645D01*
X133887906Y-33706649D01*
X133772812Y-33792809D01*
X133772809Y-33792812D01*
X133686649Y-33907906D01*
X133686645Y-33907913D01*
X133637578Y-34039470D01*
X133595707Y-34095404D01*
X133530242Y-34119821D01*
X133461969Y-34104969D01*
X133433715Y-34083819D01*
X133389366Y-34039470D01*
X133311401Y-33961505D01*
X133311397Y-33961502D01*
X133311396Y-33961501D01*
X133117834Y-33825967D01*
X133117830Y-33825965D01*
X133046727Y-33792809D01*
X132903663Y-33726097D01*
X132903659Y-33726096D01*
X132903655Y-33726094D01*
X132675413Y-33664938D01*
X132675403Y-33664936D01*
X132440001Y-33644341D01*
X132439999Y-33644341D01*
X132204596Y-33664936D01*
X132204586Y-33664938D01*
X131976344Y-33726094D01*
X131976335Y-33726098D01*
X131762171Y-33825964D01*
X131762169Y-33825965D01*
X131568597Y-33961505D01*
X131401505Y-34128597D01*
X131271575Y-34314158D01*
X131216998Y-34357783D01*
X131147500Y-34364977D01*
X131085145Y-34333454D01*
X131068425Y-34314158D01*
X130938494Y-34128597D01*
X130771402Y-33961506D01*
X130771395Y-33961501D01*
X130577834Y-33825967D01*
X130577830Y-33825965D01*
X130506727Y-33792809D01*
X130363663Y-33726097D01*
X130363659Y-33726096D01*
X130363655Y-33726094D01*
X130135413Y-33664938D01*
X130135403Y-33664936D01*
X129900001Y-33644341D01*
X129899999Y-33644341D01*
X129664596Y-33664936D01*
X129664586Y-33664938D01*
X129436344Y-33726094D01*
X129436335Y-33726098D01*
X129222171Y-33825964D01*
X129222169Y-33825965D01*
X129028597Y-33961505D01*
X128861505Y-34128597D01*
X128731575Y-34314158D01*
X128676998Y-34357783D01*
X128607500Y-34364977D01*
X128545145Y-34333454D01*
X128528425Y-34314158D01*
X128398494Y-34128597D01*
X128231402Y-33961506D01*
X128231395Y-33961501D01*
X128037834Y-33825967D01*
X128037830Y-33825965D01*
X127966727Y-33792809D01*
X127823663Y-33726097D01*
X127823659Y-33726096D01*
X127823655Y-33726094D01*
X127595413Y-33664938D01*
X127595403Y-33664936D01*
X127360001Y-33644341D01*
X127359999Y-33644341D01*
X127124596Y-33664936D01*
X127124586Y-33664938D01*
X126896344Y-33726094D01*
X126896335Y-33726098D01*
X126682171Y-33825964D01*
X126682169Y-33825965D01*
X126488597Y-33961505D01*
X126321505Y-34128597D01*
X126191575Y-34314158D01*
X126136998Y-34357783D01*
X126067500Y-34364977D01*
X126005145Y-34333454D01*
X125988425Y-34314158D01*
X125858494Y-34128597D01*
X125691402Y-33961506D01*
X125691395Y-33961501D01*
X125497834Y-33825967D01*
X125497830Y-33825965D01*
X125426727Y-33792809D01*
X125283663Y-33726097D01*
X125283659Y-33726096D01*
X125283655Y-33726094D01*
X125055413Y-33664938D01*
X125055403Y-33664936D01*
X124820001Y-33644341D01*
X124819999Y-33644341D01*
X124584596Y-33664936D01*
X124584586Y-33664938D01*
X124356344Y-33726094D01*
X124356335Y-33726098D01*
X124142171Y-33825964D01*
X124142169Y-33825965D01*
X123948600Y-33961503D01*
X123826284Y-34083819D01*
X123764961Y-34117303D01*
X123695269Y-34112319D01*
X123639336Y-34070447D01*
X123622421Y-34039470D01*
X123573354Y-33907913D01*
X123573350Y-33907906D01*
X123487190Y-33792812D01*
X123487187Y-33792809D01*
X123372093Y-33706649D01*
X123372086Y-33706645D01*
X123237379Y-33656403D01*
X123237372Y-33656401D01*
X123177844Y-33650000D01*
X122530000Y-33650000D01*
X122530000Y-34555439D01*
X122476853Y-34524755D01*
X122347143Y-34490000D01*
X122212857Y-34490000D01*
X122083147Y-34524755D01*
X122030000Y-34555439D01*
X122030000Y-33650000D01*
X121382155Y-33650000D01*
X121322627Y-33656401D01*
X121322620Y-33656403D01*
X121187913Y-33706645D01*
X121187906Y-33706649D01*
X121072812Y-33792809D01*
X121072809Y-33792812D01*
X120986649Y-33907906D01*
X120986645Y-33907913D01*
X120937578Y-34039470D01*
X120895707Y-34095404D01*
X120830242Y-34119821D01*
X120761969Y-34104969D01*
X120733715Y-34083819D01*
X120689366Y-34039470D01*
X120611401Y-33961505D01*
X120611397Y-33961502D01*
X120611396Y-33961501D01*
X120417834Y-33825967D01*
X120417830Y-33825965D01*
X120346727Y-33792809D01*
X120203663Y-33726097D01*
X120203659Y-33726096D01*
X120203655Y-33726094D01*
X119975413Y-33664938D01*
X119975403Y-33664936D01*
X119740001Y-33644341D01*
X119739999Y-33644341D01*
X119504596Y-33664936D01*
X119504586Y-33664938D01*
X119276344Y-33726094D01*
X119276335Y-33726098D01*
X119062171Y-33825964D01*
X119062169Y-33825965D01*
X118868597Y-33961505D01*
X118701505Y-34128597D01*
X118571575Y-34314158D01*
X118516998Y-34357783D01*
X118447500Y-34364977D01*
X118385145Y-34333454D01*
X118368425Y-34314158D01*
X118238494Y-34128597D01*
X118071402Y-33961506D01*
X118071395Y-33961501D01*
X117877834Y-33825967D01*
X117877830Y-33825965D01*
X117806727Y-33792809D01*
X117663663Y-33726097D01*
X117663659Y-33726096D01*
X117663655Y-33726094D01*
X117435413Y-33664938D01*
X117435403Y-33664936D01*
X117200001Y-33644341D01*
X117199999Y-33644341D01*
X116964596Y-33664936D01*
X116964586Y-33664938D01*
X116736344Y-33726094D01*
X116736335Y-33726098D01*
X116522171Y-33825964D01*
X116522169Y-33825965D01*
X116328597Y-33961505D01*
X116161505Y-34128597D01*
X116031575Y-34314158D01*
X115976998Y-34357783D01*
X115907500Y-34364977D01*
X115845145Y-34333454D01*
X115828425Y-34314158D01*
X115698494Y-34128597D01*
X115531402Y-33961506D01*
X115531395Y-33961501D01*
X115337834Y-33825967D01*
X115337830Y-33825965D01*
X115266727Y-33792809D01*
X115123663Y-33726097D01*
X115123659Y-33726096D01*
X115123655Y-33726094D01*
X114895413Y-33664938D01*
X114895403Y-33664936D01*
X114660001Y-33644341D01*
X114659999Y-33644341D01*
X114424596Y-33664936D01*
X114424586Y-33664938D01*
X114196344Y-33726094D01*
X114196335Y-33726098D01*
X113982171Y-33825964D01*
X113982169Y-33825965D01*
X113788597Y-33961505D01*
X113621505Y-34128597D01*
X113491575Y-34314158D01*
X113436998Y-34357783D01*
X113367500Y-34364977D01*
X113305145Y-34333454D01*
X113288425Y-34314158D01*
X113158494Y-34128597D01*
X112991402Y-33961506D01*
X112991395Y-33961501D01*
X112797834Y-33825967D01*
X112797830Y-33825965D01*
X112726727Y-33792809D01*
X112583663Y-33726097D01*
X112583659Y-33726096D01*
X112583655Y-33726094D01*
X112355413Y-33664938D01*
X112355403Y-33664936D01*
X112120001Y-33644341D01*
X112119999Y-33644341D01*
X111884596Y-33664936D01*
X111884586Y-33664938D01*
X111656344Y-33726094D01*
X111656335Y-33726098D01*
X111442171Y-33825964D01*
X111442169Y-33825965D01*
X111248600Y-33961503D01*
X111126284Y-34083819D01*
X111064961Y-34117303D01*
X110995269Y-34112319D01*
X110939336Y-34070447D01*
X110922421Y-34039470D01*
X110873354Y-33907913D01*
X110873350Y-33907906D01*
X110787190Y-33792812D01*
X110787187Y-33792809D01*
X110672093Y-33706649D01*
X110672086Y-33706645D01*
X110537379Y-33656403D01*
X110537372Y-33656401D01*
X110477844Y-33650000D01*
X109830000Y-33650000D01*
X109830000Y-34555439D01*
X109776853Y-34524755D01*
X109647143Y-34490000D01*
X109512857Y-34490000D01*
X109383147Y-34524755D01*
X109330000Y-34555439D01*
X109330000Y-33650000D01*
X108682155Y-33650000D01*
X108622627Y-33656401D01*
X108622620Y-33656403D01*
X108487913Y-33706645D01*
X108487906Y-33706649D01*
X108372812Y-33792809D01*
X108372809Y-33792812D01*
X108286649Y-33907906D01*
X108286645Y-33907913D01*
X108237578Y-34039470D01*
X108195707Y-34095404D01*
X108130242Y-34119821D01*
X108061969Y-34104969D01*
X108033715Y-34083819D01*
X107989366Y-34039470D01*
X107911401Y-33961505D01*
X107911397Y-33961502D01*
X107911396Y-33961501D01*
X107717834Y-33825967D01*
X107717830Y-33825965D01*
X107646727Y-33792809D01*
X107503663Y-33726097D01*
X107503659Y-33726096D01*
X107503655Y-33726094D01*
X107275413Y-33664938D01*
X107275403Y-33664936D01*
X107040001Y-33644341D01*
X107039999Y-33644341D01*
X106804596Y-33664936D01*
X106804586Y-33664938D01*
X106576344Y-33726094D01*
X106576335Y-33726098D01*
X106362171Y-33825964D01*
X106362169Y-33825965D01*
X106168597Y-33961505D01*
X106001505Y-34128597D01*
X105871575Y-34314158D01*
X105816998Y-34357783D01*
X105747500Y-34364977D01*
X105685145Y-34333454D01*
X105668425Y-34314158D01*
X105538494Y-34128597D01*
X105371402Y-33961506D01*
X105371395Y-33961501D01*
X105177834Y-33825967D01*
X105177830Y-33825965D01*
X105106727Y-33792809D01*
X104963663Y-33726097D01*
X104963659Y-33726096D01*
X104963655Y-33726094D01*
X104735413Y-33664938D01*
X104735403Y-33664936D01*
X104500001Y-33644341D01*
X104499999Y-33644341D01*
X104264596Y-33664936D01*
X104264586Y-33664938D01*
X104036344Y-33726094D01*
X104036335Y-33726098D01*
X103822171Y-33825964D01*
X103822169Y-33825965D01*
X103628597Y-33961505D01*
X103461505Y-34128597D01*
X103325965Y-34322169D01*
X103325964Y-34322171D01*
X103236882Y-34513208D01*
X103190709Y-34565647D01*
X103123516Y-34584799D01*
X103056635Y-34564583D01*
X103011300Y-34511418D01*
X103000500Y-34460803D01*
X103000500Y-31874500D01*
X103020185Y-31807461D01*
X103072989Y-31761706D01*
X103124500Y-31750500D01*
X174875500Y-31750500D01*
X174942539Y-31770185D01*
G37*
G04 #@! TD.AperFunction*
G04 #@! TA.AperFunction,Conductor*
G36*
X110223434Y-78619882D02*
G01*
X110323732Y-78466367D01*
X110386170Y-78324022D01*
X110431125Y-78270536D01*
X110497861Y-78249845D01*
X110565189Y-78268519D01*
X110611733Y-78320629D01*
X110613282Y-78324020D01*
X110675827Y-78466608D01*
X110811833Y-78674782D01*
X110811836Y-78674785D01*
X110919296Y-78791518D01*
X110950218Y-78854171D01*
X110942358Y-78923598D01*
X110898211Y-78977753D01*
X110831793Y-78999444D01*
X110828066Y-78999500D01*
X109947309Y-78999500D01*
X109880270Y-78979815D01*
X109859628Y-78963181D01*
X109170234Y-78273787D01*
X109212292Y-78262518D01*
X109337708Y-78190110D01*
X109440110Y-78087708D01*
X109512518Y-77962292D01*
X109523787Y-77920235D01*
X110223434Y-78619882D01*
G37*
G04 #@! TD.AperFunction*
G04 #@! TA.AperFunction,Conductor*
G36*
X117723434Y-78619882D02*
G01*
X117823732Y-78466367D01*
X117886170Y-78324022D01*
X117931125Y-78270536D01*
X117997861Y-78249845D01*
X118065189Y-78268519D01*
X118111733Y-78320629D01*
X118113282Y-78324020D01*
X118175827Y-78466608D01*
X118311833Y-78674782D01*
X118311836Y-78674785D01*
X118419296Y-78791518D01*
X118450218Y-78854171D01*
X118442358Y-78923598D01*
X118398211Y-78977753D01*
X118331793Y-78999444D01*
X118328066Y-78999500D01*
X117447309Y-78999500D01*
X117380270Y-78979815D01*
X117359628Y-78963181D01*
X116670234Y-78273787D01*
X116712292Y-78262518D01*
X116837708Y-78190110D01*
X116940110Y-78087708D01*
X117012518Y-77962292D01*
X117023787Y-77920235D01*
X117723434Y-78619882D01*
G37*
G04 #@! TD.AperFunction*
G04 #@! TA.AperFunction,Conductor*
G36*
X125223434Y-78619882D02*
G01*
X125323732Y-78466367D01*
X125386170Y-78324022D01*
X125431125Y-78270536D01*
X125497861Y-78249845D01*
X125565189Y-78268519D01*
X125611733Y-78320629D01*
X125613282Y-78324020D01*
X125675827Y-78466608D01*
X125811833Y-78674782D01*
X125811836Y-78674785D01*
X125919296Y-78791518D01*
X125950218Y-78854171D01*
X125942358Y-78923598D01*
X125898211Y-78977753D01*
X125831793Y-78999444D01*
X125828066Y-78999500D01*
X124947309Y-78999500D01*
X124880270Y-78979815D01*
X124859628Y-78963181D01*
X124170234Y-78273787D01*
X124212292Y-78262518D01*
X124337708Y-78190110D01*
X124440110Y-78087708D01*
X124512518Y-77962292D01*
X124523787Y-77920235D01*
X125223434Y-78619882D01*
G37*
G04 #@! TD.AperFunction*
G04 #@! TA.AperFunction,Conductor*
G36*
X132723434Y-78619882D02*
G01*
X132823732Y-78466367D01*
X132886170Y-78324022D01*
X132931125Y-78270536D01*
X132997861Y-78249845D01*
X133065189Y-78268519D01*
X133111733Y-78320629D01*
X133113282Y-78324020D01*
X133175827Y-78466608D01*
X133311833Y-78674782D01*
X133311836Y-78674785D01*
X133419296Y-78791518D01*
X133450218Y-78854171D01*
X133442358Y-78923598D01*
X133398211Y-78977753D01*
X133331793Y-78999444D01*
X133328066Y-78999500D01*
X132447309Y-78999500D01*
X132380270Y-78979815D01*
X132359628Y-78963181D01*
X131670234Y-78273787D01*
X131712292Y-78262518D01*
X131837708Y-78190110D01*
X131940110Y-78087708D01*
X132012518Y-77962292D01*
X132023787Y-77920235D01*
X132723434Y-78619882D01*
G37*
G04 #@! TD.AperFunction*
G04 #@! TA.AperFunction,Conductor*
G36*
X140223434Y-78619882D02*
G01*
X140323732Y-78466367D01*
X140386170Y-78324022D01*
X140431125Y-78270536D01*
X140497861Y-78249845D01*
X140565189Y-78268519D01*
X140611733Y-78320629D01*
X140613282Y-78324020D01*
X140675827Y-78466608D01*
X140811833Y-78674782D01*
X140811836Y-78674785D01*
X140919296Y-78791518D01*
X140950218Y-78854171D01*
X140942358Y-78923598D01*
X140898211Y-78977753D01*
X140831793Y-78999444D01*
X140828066Y-78999500D01*
X139947309Y-78999500D01*
X139880270Y-78979815D01*
X139859628Y-78963181D01*
X139170234Y-78273787D01*
X139212292Y-78262518D01*
X139337708Y-78190110D01*
X139440110Y-78087708D01*
X139512518Y-77962292D01*
X139523787Y-77920235D01*
X140223434Y-78619882D01*
G37*
G04 #@! TD.AperFunction*
G04 #@! TA.AperFunction,Conductor*
G36*
X147723434Y-78619882D02*
G01*
X147823732Y-78466367D01*
X147886170Y-78324022D01*
X147931125Y-78270536D01*
X147997861Y-78249845D01*
X148065189Y-78268519D01*
X148111733Y-78320629D01*
X148113282Y-78324020D01*
X148175827Y-78466608D01*
X148311833Y-78674782D01*
X148311836Y-78674785D01*
X148419296Y-78791518D01*
X148450218Y-78854171D01*
X148442358Y-78923598D01*
X148398211Y-78977753D01*
X148331793Y-78999444D01*
X148328066Y-78999500D01*
X147447309Y-78999500D01*
X147380270Y-78979815D01*
X147359628Y-78963181D01*
X146670234Y-78273787D01*
X146712292Y-78262518D01*
X146837708Y-78190110D01*
X146940110Y-78087708D01*
X147012518Y-77962292D01*
X147023787Y-77920235D01*
X147723434Y-78619882D01*
G37*
G04 #@! TD.AperFunction*
G04 #@! TA.AperFunction,Conductor*
G36*
X166737482Y-77962292D02*
G01*
X166809890Y-78087708D01*
X166912292Y-78190110D01*
X167037708Y-78262518D01*
X167079765Y-78273787D01*
X166390371Y-78963181D01*
X166329048Y-78996666D01*
X166302690Y-78999500D01*
X165197309Y-78999500D01*
X165130270Y-78979815D01*
X165109628Y-78963181D01*
X164420234Y-78273787D01*
X164462292Y-78262518D01*
X164587708Y-78190110D01*
X164690110Y-78087708D01*
X164762518Y-77962292D01*
X164773787Y-77920235D01*
X165473434Y-78619882D01*
X165573731Y-78466369D01*
X165636444Y-78323398D01*
X165681400Y-78269912D01*
X165748136Y-78249222D01*
X165815463Y-78267896D01*
X165862007Y-78320006D01*
X165863556Y-78323398D01*
X165926266Y-78466364D01*
X166026564Y-78619882D01*
X166726212Y-77920234D01*
X166737482Y-77962292D01*
G37*
G04 #@! TD.AperFunction*
G04 #@! TA.AperFunction,Conductor*
G36*
X166737482Y-70462292D02*
G01*
X166809890Y-70587708D01*
X166912292Y-70690110D01*
X167037708Y-70762518D01*
X167079765Y-70773787D01*
X166379942Y-71473609D01*
X166426768Y-71510055D01*
X166426770Y-71510056D01*
X166645385Y-71628364D01*
X166645396Y-71628369D01*
X166657294Y-71632454D01*
X166714309Y-71672839D01*
X166740440Y-71737639D01*
X166727389Y-71806279D01*
X166679300Y-71856967D01*
X166657296Y-71867016D01*
X166645191Y-71871171D01*
X166645188Y-71871172D01*
X166426493Y-71989524D01*
X166230257Y-72142261D01*
X166061833Y-72325217D01*
X165925826Y-72533393D01*
X165863556Y-72675355D01*
X165818600Y-72728841D01*
X165751864Y-72749531D01*
X165684536Y-72730856D01*
X165637993Y-72678746D01*
X165636444Y-72675355D01*
X165574173Y-72533393D01*
X165438166Y-72325217D01*
X165416557Y-72301744D01*
X165269744Y-72142262D01*
X165073509Y-71989526D01*
X165073507Y-71989525D01*
X165073506Y-71989524D01*
X164854811Y-71871172D01*
X164854802Y-71871169D01*
X164843477Y-71867281D01*
X164786462Y-71826896D01*
X164760331Y-71762096D01*
X164773382Y-71693456D01*
X164821471Y-71642768D01*
X164843477Y-71632719D01*
X164847235Y-71631428D01*
X164854810Y-71628828D01*
X165073509Y-71510474D01*
X165269744Y-71357738D01*
X165438164Y-71174785D01*
X165574173Y-70966607D01*
X165636717Y-70824020D01*
X165681673Y-70770535D01*
X165748409Y-70749845D01*
X165815737Y-70768520D01*
X165862280Y-70820630D01*
X165863829Y-70824021D01*
X165926266Y-70966364D01*
X166026564Y-71119882D01*
X166726212Y-70420234D01*
X166737482Y-70462292D01*
G37*
G04 #@! TD.AperFunction*
G04 #@! TA.AperFunction,Conductor*
G36*
X174963181Y-71109628D02*
G01*
X174996666Y-71170951D01*
X174999500Y-71197309D01*
X174999500Y-72074059D01*
X174979815Y-72141098D01*
X174927011Y-72186853D01*
X174857853Y-72196797D01*
X174794297Y-72167772D01*
X174784271Y-72158042D01*
X174769747Y-72142265D01*
X174769744Y-72142262D01*
X174648275Y-72047719D01*
X174573509Y-71989526D01*
X174573507Y-71989525D01*
X174573506Y-71989524D01*
X174354811Y-71871172D01*
X174354802Y-71871169D01*
X174342705Y-71867016D01*
X174285690Y-71826631D01*
X174259559Y-71761831D01*
X174272610Y-71693191D01*
X174320699Y-71642504D01*
X174342707Y-71632453D01*
X174354608Y-71628367D01*
X174354614Y-71628364D01*
X174573228Y-71510057D01*
X174573231Y-71510055D01*
X174620056Y-71473609D01*
X173920234Y-70773787D01*
X173962292Y-70762518D01*
X174087708Y-70690110D01*
X174190110Y-70587708D01*
X174262518Y-70462292D01*
X174273787Y-70420234D01*
X174963181Y-71109628D01*
G37*
G04 #@! TD.AperFunction*
G04 #@! TA.AperFunction,Conductor*
G36*
X103205703Y-53225483D02*
G01*
X103236881Y-53266790D01*
X103261319Y-53319196D01*
X103325965Y-53457830D01*
X103325967Y-53457834D01*
X103434281Y-53612521D01*
X103461505Y-53651401D01*
X103628599Y-53818495D01*
X103705135Y-53872086D01*
X103822165Y-53954032D01*
X103822167Y-53954033D01*
X103822170Y-53954035D01*
X104036337Y-54053903D01*
X104036343Y-54053904D01*
X104036344Y-54053905D01*
X104056591Y-54059330D01*
X104264592Y-54115063D01*
X104435319Y-54130000D01*
X104499999Y-54135659D01*
X104500000Y-54135659D01*
X104500001Y-54135659D01*
X104564681Y-54130000D01*
X104735408Y-54115063D01*
X104963663Y-54053903D01*
X105177830Y-53954035D01*
X105371401Y-53818495D01*
X105538495Y-53651401D01*
X105668425Y-53465842D01*
X105723002Y-53422217D01*
X105792500Y-53415023D01*
X105854855Y-53446546D01*
X105871575Y-53465842D01*
X106001500Y-53651395D01*
X106001505Y-53651401D01*
X106168599Y-53818495D01*
X106245135Y-53872086D01*
X106362165Y-53954032D01*
X106362167Y-53954033D01*
X106362170Y-53954035D01*
X106576337Y-54053903D01*
X106576343Y-54053904D01*
X106576344Y-54053905D01*
X106596591Y-54059330D01*
X106804592Y-54115063D01*
X106975319Y-54130000D01*
X107039999Y-54135659D01*
X107040000Y-54135659D01*
X107040001Y-54135659D01*
X107104681Y-54130000D01*
X107275408Y-54115063D01*
X107503663Y-54053903D01*
X107717830Y-53954035D01*
X107911401Y-53818495D01*
X108033717Y-53696178D01*
X108095036Y-53662696D01*
X108164728Y-53667680D01*
X108220662Y-53709551D01*
X108237577Y-53740528D01*
X108286646Y-53872088D01*
X108286649Y-53872093D01*
X108372809Y-53987187D01*
X108372812Y-53987190D01*
X108487906Y-54073350D01*
X108487913Y-54073354D01*
X108622620Y-54123596D01*
X108622627Y-54123598D01*
X108682155Y-54129999D01*
X108682172Y-54130000D01*
X109330000Y-54130000D01*
X109330000Y-53224560D01*
X109383147Y-53255245D01*
X109512857Y-53290000D01*
X109647143Y-53290000D01*
X109776853Y-53255245D01*
X109830000Y-53224560D01*
X109830000Y-54130000D01*
X110477828Y-54130000D01*
X110477844Y-54129999D01*
X110537372Y-54123598D01*
X110537379Y-54123596D01*
X110672086Y-54073354D01*
X110672093Y-54073350D01*
X110787187Y-53987190D01*
X110787190Y-53987187D01*
X110873350Y-53872093D01*
X110873354Y-53872086D01*
X110922422Y-53740529D01*
X110964293Y-53684595D01*
X111029757Y-53660178D01*
X111098030Y-53675030D01*
X111126285Y-53696181D01*
X111248599Y-53818495D01*
X111325135Y-53872086D01*
X111442165Y-53954032D01*
X111442167Y-53954033D01*
X111442170Y-53954035D01*
X111656337Y-54053903D01*
X111656343Y-54053904D01*
X111656344Y-54053905D01*
X111676591Y-54059330D01*
X111884592Y-54115063D01*
X112055319Y-54130000D01*
X112119999Y-54135659D01*
X112120000Y-54135659D01*
X112120001Y-54135659D01*
X112184681Y-54130000D01*
X112355408Y-54115063D01*
X112583663Y-54053903D01*
X112797830Y-53954035D01*
X112991401Y-53818495D01*
X113158495Y-53651401D01*
X113288425Y-53465842D01*
X113343002Y-53422217D01*
X113412500Y-53415023D01*
X113474855Y-53446546D01*
X113491575Y-53465842D01*
X113621500Y-53651395D01*
X113621505Y-53651401D01*
X113788599Y-53818495D01*
X113865135Y-53872086D01*
X113982165Y-53954032D01*
X113982167Y-53954033D01*
X113982170Y-53954035D01*
X114196337Y-54053903D01*
X114196343Y-54053904D01*
X114196344Y-54053905D01*
X114216591Y-54059330D01*
X114424592Y-54115063D01*
X114595319Y-54130000D01*
X114659999Y-54135659D01*
X114660000Y-54135659D01*
X114660001Y-54135659D01*
X114724681Y-54130000D01*
X114895408Y-54115063D01*
X115123663Y-54053903D01*
X115223098Y-54007535D01*
X115292172Y-53997044D01*
X115355956Y-54025563D01*
X115394196Y-54084040D01*
X115399500Y-54119918D01*
X115399500Y-56913330D01*
X115399499Y-56913348D01*
X115399499Y-57079054D01*
X115399498Y-57079054D01*
X115440424Y-57231789D01*
X115440425Y-57231790D01*
X115461455Y-57268214D01*
X115461456Y-57268216D01*
X115519475Y-57368709D01*
X115519481Y-57368717D01*
X115638349Y-57487585D01*
X115638354Y-57487589D01*
X116631284Y-58480520D01*
X116631286Y-58480521D01*
X116631290Y-58480524D01*
X116751628Y-58550000D01*
X116768216Y-58559577D01*
X116920943Y-58600501D01*
X116920945Y-58600501D01*
X117086654Y-58600501D01*
X117086670Y-58600500D01*
X117495040Y-58600500D01*
X117562079Y-58620185D01*
X117605525Y-58668205D01*
X117631511Y-58719205D01*
X117644407Y-58787874D01*
X117618131Y-58852614D01*
X117561025Y-58892872D01*
X117521026Y-58899500D01*
X111297022Y-58899500D01*
X111229983Y-58879815D01*
X111184228Y-58827011D01*
X111174284Y-58757853D01*
X111195447Y-58704377D01*
X111214032Y-58677834D01*
X111214031Y-58677834D01*
X111214035Y-58677830D01*
X111313903Y-58463663D01*
X111375063Y-58235408D01*
X111395659Y-58000000D01*
X111375063Y-57764592D01*
X111313903Y-57536337D01*
X111214035Y-57322171D01*
X111208425Y-57314158D01*
X111078494Y-57128597D01*
X110911402Y-56961506D01*
X110911395Y-56961501D01*
X110717834Y-56825967D01*
X110717830Y-56825965D01*
X110656922Y-56797563D01*
X110503663Y-56726097D01*
X110503659Y-56726096D01*
X110503655Y-56726094D01*
X110275413Y-56664938D01*
X110275403Y-56664936D01*
X110040001Y-56644341D01*
X110039999Y-56644341D01*
X109804596Y-56664936D01*
X109804586Y-56664938D01*
X109576344Y-56726094D01*
X109576337Y-56726096D01*
X109576337Y-56726097D01*
X109562816Y-56732401D01*
X109362171Y-56825964D01*
X109362169Y-56825965D01*
X109168597Y-56961505D01*
X109001505Y-57128597D01*
X108871575Y-57314158D01*
X108816998Y-57357783D01*
X108747500Y-57364977D01*
X108685145Y-57333454D01*
X108668425Y-57314158D01*
X108538494Y-57128597D01*
X108371402Y-56961506D01*
X108371395Y-56961501D01*
X108177834Y-56825967D01*
X108177830Y-56825965D01*
X108116922Y-56797563D01*
X107963663Y-56726097D01*
X107963659Y-56726096D01*
X107963655Y-56726094D01*
X107735413Y-56664938D01*
X107735403Y-56664936D01*
X107500001Y-56644341D01*
X107499999Y-56644341D01*
X107264596Y-56664936D01*
X107264586Y-56664938D01*
X107036344Y-56726094D01*
X107036337Y-56726096D01*
X107036337Y-56726097D01*
X107022816Y-56732401D01*
X106822171Y-56825964D01*
X106822169Y-56825965D01*
X106628600Y-56961503D01*
X106506673Y-57083430D01*
X106445350Y-57116914D01*
X106375658Y-57111930D01*
X106319725Y-57070058D01*
X106302810Y-57039081D01*
X106253797Y-56907671D01*
X106253793Y-56907664D01*
X106167547Y-56792455D01*
X106167544Y-56792452D01*
X106052335Y-56706206D01*
X106052328Y-56706202D01*
X105917482Y-56655908D01*
X105917483Y-56655908D01*
X105857883Y-56649501D01*
X105857881Y-56649500D01*
X105857873Y-56649500D01*
X105857864Y-56649500D01*
X104062129Y-56649500D01*
X104062123Y-56649501D01*
X104002516Y-56655908D01*
X103867671Y-56706202D01*
X103867664Y-56706206D01*
X103752455Y-56792452D01*
X103752452Y-56792455D01*
X103666206Y-56907664D01*
X103666202Y-56907671D01*
X103615908Y-57042517D01*
X103609501Y-57102116D01*
X103609500Y-57102135D01*
X103609500Y-58897870D01*
X103609501Y-58897876D01*
X103615908Y-58957483D01*
X103666202Y-59092328D01*
X103666206Y-59092335D01*
X103713705Y-59155784D01*
X103752454Y-59207546D01*
X103849811Y-59280428D01*
X103891682Y-59336361D01*
X103899500Y-59379694D01*
X103899500Y-60670908D01*
X103879815Y-60737947D01*
X103827914Y-60783286D01*
X103822173Y-60785963D01*
X103822169Y-60785965D01*
X103628597Y-60921505D01*
X103461505Y-61088597D01*
X103325965Y-61282169D01*
X103325964Y-61282171D01*
X103236882Y-61473208D01*
X103190709Y-61525647D01*
X103123516Y-61544799D01*
X103056635Y-61524583D01*
X103011300Y-61471418D01*
X103000500Y-61420803D01*
X103000500Y-53319196D01*
X103020185Y-53252157D01*
X103072989Y-53206402D01*
X103142147Y-53196458D01*
X103205703Y-53225483D01*
G37*
G04 #@! TD.AperFunction*
G04 #@! TA.AperFunction,Conductor*
G36*
X156366942Y-51620185D02*
G01*
X156387584Y-51636819D01*
X156612409Y-51861644D01*
X156612412Y-51861648D01*
X156619480Y-51868716D01*
X156659363Y-51908599D01*
X156731284Y-51980520D01*
X156731286Y-51980521D01*
X156731290Y-51980524D01*
X156868209Y-52059573D01*
X156868216Y-52059577D01*
X157020943Y-52100501D01*
X157020945Y-52100501D01*
X157186654Y-52100501D01*
X157186670Y-52100500D01*
X157199903Y-52100500D01*
X157266942Y-52120185D01*
X157287584Y-52136819D01*
X160863181Y-55712416D01*
X160896666Y-55773739D01*
X160899500Y-55800097D01*
X160899500Y-55917587D01*
X160879815Y-55984626D01*
X160872450Y-55994896D01*
X160870186Y-55997734D01*
X160774211Y-56150476D01*
X160714631Y-56320745D01*
X160714630Y-56320750D01*
X160694435Y-56499996D01*
X160694435Y-56500003D01*
X160714630Y-56679249D01*
X160714631Y-56679254D01*
X160774211Y-56849523D01*
X160844575Y-56961506D01*
X160870184Y-57002262D01*
X160997738Y-57129816D01*
X161150478Y-57225789D01*
X161320742Y-57285367D01*
X161320745Y-57285368D01*
X161320750Y-57285369D01*
X161499996Y-57305565D01*
X161500000Y-57305565D01*
X161500003Y-57305565D01*
X161652862Y-57288342D01*
X161721684Y-57300396D01*
X161771740Y-57345590D01*
X161856523Y-57480520D01*
X161870184Y-57502262D01*
X161997738Y-57629816D01*
X162150478Y-57725789D01*
X162261371Y-57764592D01*
X162320745Y-57785368D01*
X162320750Y-57785369D01*
X162499996Y-57805565D01*
X162500000Y-57805565D01*
X162500004Y-57805565D01*
X162679249Y-57785369D01*
X162679252Y-57785368D01*
X162679255Y-57785368D01*
X162849522Y-57725789D01*
X163002262Y-57629816D01*
X163129816Y-57502262D01*
X163225789Y-57349522D01*
X163285368Y-57179255D01*
X163285369Y-57179249D01*
X163305565Y-57000003D01*
X163305565Y-56999997D01*
X163298285Y-56935389D01*
X163310339Y-56866567D01*
X163357688Y-56815188D01*
X163425298Y-56797563D01*
X163435385Y-56798284D01*
X163461857Y-56801267D01*
X163499998Y-56805565D01*
X163500000Y-56805565D01*
X163500004Y-56805565D01*
X163679249Y-56785369D01*
X163679252Y-56785368D01*
X163679255Y-56785368D01*
X163849522Y-56725789D01*
X164002262Y-56629816D01*
X164129816Y-56502262D01*
X164225789Y-56349522D01*
X164231762Y-56332449D01*
X164272482Y-56275674D01*
X164337434Y-56249924D01*
X164405996Y-56263379D01*
X164436486Y-56285721D01*
X165669298Y-57518533D01*
X165702783Y-57579856D01*
X165704837Y-57592330D01*
X165714630Y-57679249D01*
X165774210Y-57849521D01*
X165805614Y-57899500D01*
X165870184Y-58002262D01*
X165997738Y-58129816D01*
X166011323Y-58138352D01*
X166128997Y-58212292D01*
X166150478Y-58225789D01*
X166320745Y-58285368D01*
X166320750Y-58285369D01*
X166499996Y-58305565D01*
X166500000Y-58305565D01*
X166500004Y-58305565D01*
X166679249Y-58285369D01*
X166679252Y-58285368D01*
X166679255Y-58285368D01*
X166849522Y-58225789D01*
X167002262Y-58129816D01*
X167129816Y-58002262D01*
X167225789Y-57849522D01*
X167285368Y-57679255D01*
X167285368Y-57679254D01*
X167287494Y-57673179D01*
X167328216Y-57616403D01*
X167393169Y-57590655D01*
X167461730Y-57604111D01*
X167492217Y-57626452D01*
X170154084Y-60288319D01*
X170187569Y-60349642D01*
X170182585Y-60419334D01*
X170140713Y-60475267D01*
X170075249Y-60499684D01*
X170066403Y-60500000D01*
X169127155Y-60500000D01*
X169067627Y-60506401D01*
X169067620Y-60506403D01*
X168932913Y-60556645D01*
X168932906Y-60556649D01*
X168817812Y-60642809D01*
X168817809Y-60642812D01*
X168731649Y-60757906D01*
X168727396Y-60765696D01*
X168724217Y-60763960D01*
X168692596Y-60806135D01*
X168627113Y-60830502D01*
X168558851Y-60815598D01*
X168542199Y-60804665D01*
X168536330Y-60800097D01*
X168458509Y-60739526D01*
X168458507Y-60739525D01*
X168458506Y-60739524D01*
X168239811Y-60621172D01*
X168239802Y-60621169D01*
X168004616Y-60540429D01*
X167759335Y-60499500D01*
X167510665Y-60499500D01*
X167265382Y-60540429D01*
X167265380Y-60540429D01*
X167159393Y-60576815D01*
X167089595Y-60579965D01*
X167031450Y-60547215D01*
X165722590Y-59238355D01*
X165722588Y-59238352D01*
X165603717Y-59119481D01*
X165603716Y-59119480D01*
X165516904Y-59069360D01*
X165516904Y-59069359D01*
X165516900Y-59069358D01*
X165466785Y-59040423D01*
X165314057Y-58999499D01*
X165155943Y-58999499D01*
X165148347Y-58999499D01*
X165148331Y-58999500D01*
X161800097Y-58999500D01*
X161733058Y-58979815D01*
X161712416Y-58963181D01*
X160887590Y-58138355D01*
X160887588Y-58138352D01*
X160768717Y-58019481D01*
X160768716Y-58019480D01*
X160676764Y-57966392D01*
X160631785Y-57940423D01*
X160479057Y-57899499D01*
X160320943Y-57899499D01*
X160313347Y-57899499D01*
X160313331Y-57899500D01*
X142800097Y-57899500D01*
X142733058Y-57879815D01*
X142712416Y-57863181D01*
X140636819Y-55787584D01*
X140603334Y-55726261D01*
X140600500Y-55699903D01*
X140600500Y-55238053D01*
X140617115Y-55176050D01*
X140619575Y-55171788D01*
X140619574Y-55171788D01*
X140619577Y-55171785D01*
X140660501Y-55019057D01*
X140660501Y-54860943D01*
X140660501Y-54853348D01*
X140660500Y-54853330D01*
X140660500Y-54069090D01*
X140680185Y-54002051D01*
X140732101Y-53956706D01*
X140737830Y-53954035D01*
X140931401Y-53818495D01*
X141098495Y-53651401D01*
X141228425Y-53465842D01*
X141283002Y-53422217D01*
X141352500Y-53415023D01*
X141414855Y-53446546D01*
X141431575Y-53465842D01*
X141561500Y-53651395D01*
X141561505Y-53651401D01*
X141728599Y-53818495D01*
X141805135Y-53872086D01*
X141922165Y-53954032D01*
X141922167Y-53954033D01*
X141922170Y-53954035D01*
X142136337Y-54053903D01*
X142136343Y-54053904D01*
X142136344Y-54053905D01*
X142156591Y-54059330D01*
X142364592Y-54115063D01*
X142535319Y-54130000D01*
X142599999Y-54135659D01*
X142600000Y-54135659D01*
X142600001Y-54135659D01*
X142664681Y-54130000D01*
X142835408Y-54115063D01*
X143063663Y-54053903D01*
X143277830Y-53954035D01*
X143471401Y-53818495D01*
X143638495Y-53651401D01*
X143768425Y-53465842D01*
X143823002Y-53422217D01*
X143892500Y-53415023D01*
X143954855Y-53446546D01*
X143971575Y-53465842D01*
X144101500Y-53651395D01*
X144101505Y-53651401D01*
X144268599Y-53818495D01*
X144345135Y-53872086D01*
X144462165Y-53954032D01*
X144462167Y-53954033D01*
X144462170Y-53954035D01*
X144676337Y-54053903D01*
X144676343Y-54053904D01*
X144676344Y-54053905D01*
X144696591Y-54059330D01*
X144904592Y-54115063D01*
X145075319Y-54130000D01*
X145139999Y-54135659D01*
X145140000Y-54135659D01*
X145140001Y-54135659D01*
X145204681Y-54130000D01*
X145375408Y-54115063D01*
X145603663Y-54053903D01*
X145817830Y-53954035D01*
X146011401Y-53818495D01*
X146133717Y-53696178D01*
X146195036Y-53662696D01*
X146264728Y-53667680D01*
X146320662Y-53709551D01*
X146337577Y-53740528D01*
X146386646Y-53872088D01*
X146386649Y-53872093D01*
X146472809Y-53987187D01*
X146472812Y-53987190D01*
X146587906Y-54073350D01*
X146587913Y-54073354D01*
X146722620Y-54123596D01*
X146722627Y-54123598D01*
X146782155Y-54129999D01*
X146782172Y-54130000D01*
X147430000Y-54130000D01*
X147430000Y-53224560D01*
X147483147Y-53255245D01*
X147612857Y-53290000D01*
X147747143Y-53290000D01*
X147876853Y-53255245D01*
X147930000Y-53224560D01*
X147930000Y-54130000D01*
X148577828Y-54130000D01*
X148577844Y-54129999D01*
X148637372Y-54123598D01*
X148637379Y-54123596D01*
X148772086Y-54073354D01*
X148772093Y-54073350D01*
X148887187Y-53987190D01*
X148887190Y-53987187D01*
X148973350Y-53872093D01*
X148973354Y-53872086D01*
X149022422Y-53740529D01*
X149064293Y-53684595D01*
X149129757Y-53660178D01*
X149198030Y-53675030D01*
X149226285Y-53696181D01*
X149348599Y-53818495D01*
X149425135Y-53872086D01*
X149542165Y-53954032D01*
X149542167Y-53954033D01*
X149542170Y-53954035D01*
X149756337Y-54053903D01*
X149756343Y-54053904D01*
X149756344Y-54053905D01*
X149776591Y-54059330D01*
X149984592Y-54115063D01*
X150155319Y-54130000D01*
X150219999Y-54135659D01*
X150220000Y-54135659D01*
X150220001Y-54135659D01*
X150284681Y-54130000D01*
X150455408Y-54115063D01*
X150683663Y-54053903D01*
X150897830Y-53954035D01*
X151091401Y-53818495D01*
X151258495Y-53651401D01*
X151388425Y-53465842D01*
X151443002Y-53422217D01*
X151512500Y-53415023D01*
X151574855Y-53446546D01*
X151591575Y-53465842D01*
X151721500Y-53651395D01*
X151721505Y-53651401D01*
X151888599Y-53818495D01*
X151965135Y-53872086D01*
X152082165Y-53954032D01*
X152082167Y-53954033D01*
X152082170Y-53954035D01*
X152296337Y-54053903D01*
X152296343Y-54053904D01*
X152296344Y-54053905D01*
X152316591Y-54059330D01*
X152524592Y-54115063D01*
X152695319Y-54130000D01*
X152759999Y-54135659D01*
X152760000Y-54135659D01*
X152760001Y-54135659D01*
X152824681Y-54130000D01*
X152995408Y-54115063D01*
X153223663Y-54053903D01*
X153437830Y-53954035D01*
X153631401Y-53818495D01*
X153798495Y-53651401D01*
X153934035Y-53457830D01*
X154033903Y-53243663D01*
X154095063Y-53015408D01*
X154115659Y-52780000D01*
X154095063Y-52544592D01*
X154046888Y-52364799D01*
X154033905Y-52316344D01*
X154033904Y-52316343D01*
X154033903Y-52316337D01*
X153934035Y-52102171D01*
X153928424Y-52094158D01*
X153798496Y-51908600D01*
X153751540Y-51861644D01*
X153702075Y-51812179D01*
X153668592Y-51750859D01*
X153673576Y-51681167D01*
X153715447Y-51625233D01*
X153780911Y-51600816D01*
X153789758Y-51600500D01*
X156299903Y-51600500D01*
X156366942Y-51620185D01*
G37*
G04 #@! TD.AperFunction*
G04 #@! TA.AperFunction,Conductor*
G36*
X135230000Y-54130000D02*
G01*
X135877828Y-54130000D01*
X135877844Y-54129999D01*
X135937372Y-54123598D01*
X135937379Y-54123596D01*
X136072086Y-54073354D01*
X136072093Y-54073350D01*
X136187187Y-53987190D01*
X136187190Y-53987187D01*
X136273350Y-53872093D01*
X136273354Y-53872086D01*
X136322422Y-53740529D01*
X136364293Y-53684595D01*
X136429757Y-53660178D01*
X136498030Y-53675030D01*
X136526285Y-53696181D01*
X136648599Y-53818495D01*
X136725135Y-53872086D01*
X136842165Y-53954032D01*
X136842167Y-53954033D01*
X136842170Y-53954035D01*
X136847898Y-53956706D01*
X136900339Y-54002872D01*
X136919500Y-54069090D01*
X136919500Y-58829973D01*
X136915275Y-58862066D01*
X136899499Y-58920943D01*
X136899499Y-59079054D01*
X136899498Y-59079054D01*
X136907116Y-59107483D01*
X136940289Y-59231286D01*
X136942527Y-59239636D01*
X136940186Y-59240263D01*
X136946346Y-59297505D01*
X136915077Y-59359987D01*
X136854991Y-59395645D01*
X136824314Y-59399500D01*
X131300097Y-59399500D01*
X131233058Y-59379815D01*
X131212416Y-59363181D01*
X130536819Y-58687584D01*
X130503334Y-58626261D01*
X130500500Y-58599903D01*
X130500500Y-54069090D01*
X130520185Y-54002051D01*
X130572101Y-53956706D01*
X130577830Y-53954035D01*
X130771401Y-53818495D01*
X130938495Y-53651401D01*
X131068425Y-53465842D01*
X131123002Y-53422217D01*
X131192500Y-53415023D01*
X131254855Y-53446546D01*
X131271575Y-53465842D01*
X131401500Y-53651395D01*
X131401505Y-53651401D01*
X131568599Y-53818495D01*
X131645135Y-53872086D01*
X131762165Y-53954032D01*
X131762167Y-53954033D01*
X131762170Y-53954035D01*
X131976337Y-54053903D01*
X131976343Y-54053904D01*
X131976344Y-54053905D01*
X131996591Y-54059330D01*
X132204592Y-54115063D01*
X132375319Y-54130000D01*
X132439999Y-54135659D01*
X132440000Y-54135659D01*
X132440001Y-54135659D01*
X132504681Y-54130000D01*
X132675408Y-54115063D01*
X132903663Y-54053903D01*
X133117830Y-53954035D01*
X133311401Y-53818495D01*
X133433717Y-53696178D01*
X133495036Y-53662696D01*
X133564728Y-53667680D01*
X133620662Y-53709551D01*
X133637577Y-53740528D01*
X133686646Y-53872088D01*
X133686649Y-53872093D01*
X133772809Y-53987187D01*
X133772812Y-53987190D01*
X133887906Y-54073350D01*
X133887913Y-54073354D01*
X134022620Y-54123596D01*
X134022627Y-54123598D01*
X134082155Y-54129999D01*
X134082172Y-54130000D01*
X134730000Y-54130000D01*
X134730000Y-53224560D01*
X134783147Y-53255245D01*
X134912857Y-53290000D01*
X135047143Y-53290000D01*
X135176853Y-53255245D01*
X135230000Y-53224560D01*
X135230000Y-54130000D01*
G37*
G04 #@! TD.AperFunction*
G04 #@! TA.AperFunction,Conductor*
G36*
X103205703Y-35445483D02*
G01*
X103236881Y-35486790D01*
X103261319Y-35539196D01*
X103325965Y-35677830D01*
X103325967Y-35677834D01*
X103434281Y-35832521D01*
X103461505Y-35871401D01*
X103628599Y-36038495D01*
X103705135Y-36092086D01*
X103822165Y-36174032D01*
X103822167Y-36174033D01*
X103822170Y-36174035D01*
X104036337Y-36273903D01*
X104264592Y-36335063D01*
X104435319Y-36350000D01*
X104499999Y-36355659D01*
X104500000Y-36355659D01*
X104500001Y-36355659D01*
X104564681Y-36350000D01*
X104735408Y-36335063D01*
X104963663Y-36273903D01*
X105177830Y-36174035D01*
X105371401Y-36038495D01*
X105538495Y-35871401D01*
X105668425Y-35685842D01*
X105723002Y-35642217D01*
X105792500Y-35635023D01*
X105854855Y-35666546D01*
X105871575Y-35685842D01*
X106001500Y-35871395D01*
X106001505Y-35871401D01*
X106168599Y-36038495D01*
X106245135Y-36092086D01*
X106362165Y-36174032D01*
X106366856Y-36176740D01*
X106365944Y-36178318D01*
X106412295Y-36219118D01*
X106431455Y-36286309D01*
X106427234Y-36317434D01*
X106399499Y-36420943D01*
X106399499Y-36589046D01*
X106399500Y-36589059D01*
X106399500Y-36913330D01*
X106399499Y-36913348D01*
X106399499Y-37079054D01*
X106399498Y-37079054D01*
X106399499Y-37079057D01*
X106440423Y-37231785D01*
X106457002Y-37260500D01*
X106519480Y-37368716D01*
X106631284Y-37480520D01*
X106631285Y-37480521D01*
X107131284Y-37980520D01*
X107131286Y-37980521D01*
X107131290Y-37980524D01*
X107268209Y-38059573D01*
X107268216Y-38059577D01*
X107420943Y-38100501D01*
X107420945Y-38100501D01*
X107586654Y-38100501D01*
X107586670Y-38100500D01*
X114199903Y-38100500D01*
X114266942Y-38120185D01*
X114287584Y-38136819D01*
X115363181Y-39212416D01*
X115396666Y-39273739D01*
X115399500Y-39300097D01*
X115399500Y-51440081D01*
X115379815Y-51507120D01*
X115327011Y-51552875D01*
X115257853Y-51562819D01*
X115223095Y-51552463D01*
X115216701Y-51549481D01*
X115123663Y-51506097D01*
X115123659Y-51506096D01*
X115123655Y-51506094D01*
X114895413Y-51444938D01*
X114895403Y-51444936D01*
X114660001Y-51424341D01*
X114659999Y-51424341D01*
X114424596Y-51444936D01*
X114424586Y-51444938D01*
X114196344Y-51506094D01*
X114196335Y-51506098D01*
X113982171Y-51605964D01*
X113982169Y-51605965D01*
X113788597Y-51741505D01*
X113621505Y-51908597D01*
X113491575Y-52094158D01*
X113436998Y-52137783D01*
X113367500Y-52144977D01*
X113305145Y-52113454D01*
X113288425Y-52094158D01*
X113158494Y-51908597D01*
X112991402Y-51741506D01*
X112991395Y-51741501D01*
X112797834Y-51605967D01*
X112797830Y-51605965D01*
X112683978Y-51552875D01*
X112583663Y-51506097D01*
X112583659Y-51506096D01*
X112583655Y-51506094D01*
X112355413Y-51444938D01*
X112355403Y-51444936D01*
X112120001Y-51424341D01*
X112119999Y-51424341D01*
X111884596Y-51444936D01*
X111884586Y-51444938D01*
X111656344Y-51506094D01*
X111656335Y-51506098D01*
X111442171Y-51605964D01*
X111442169Y-51605965D01*
X111248600Y-51741503D01*
X111126284Y-51863819D01*
X111064961Y-51897303D01*
X110995269Y-51892319D01*
X110939336Y-51850447D01*
X110922421Y-51819470D01*
X110873354Y-51687913D01*
X110873350Y-51687906D01*
X110787190Y-51572812D01*
X110787187Y-51572809D01*
X110672093Y-51486649D01*
X110672086Y-51486645D01*
X110537379Y-51436403D01*
X110537372Y-51436401D01*
X110477844Y-51430000D01*
X109830000Y-51430000D01*
X109830000Y-52335439D01*
X109776853Y-52304755D01*
X109647143Y-52270000D01*
X109512857Y-52270000D01*
X109383147Y-52304755D01*
X109330000Y-52335439D01*
X109330000Y-51430000D01*
X108682155Y-51430000D01*
X108622627Y-51436401D01*
X108622620Y-51436403D01*
X108487913Y-51486645D01*
X108487906Y-51486649D01*
X108372812Y-51572809D01*
X108372809Y-51572812D01*
X108286649Y-51687906D01*
X108286645Y-51687913D01*
X108237578Y-51819470D01*
X108195707Y-51875404D01*
X108130242Y-51899821D01*
X108061969Y-51884969D01*
X108033715Y-51863819D01*
X107975599Y-51805703D01*
X107911401Y-51741505D01*
X107911397Y-51741502D01*
X107911396Y-51741501D01*
X107717834Y-51605967D01*
X107717830Y-51605965D01*
X107603978Y-51552875D01*
X107503663Y-51506097D01*
X107503659Y-51506096D01*
X107503655Y-51506094D01*
X107275413Y-51444938D01*
X107275403Y-51444936D01*
X107040001Y-51424341D01*
X107039999Y-51424341D01*
X106804596Y-51444936D01*
X106804586Y-51444938D01*
X106576344Y-51506094D01*
X106576335Y-51506098D01*
X106362171Y-51605964D01*
X106362169Y-51605965D01*
X106168597Y-51741505D01*
X106001505Y-51908597D01*
X105871575Y-52094158D01*
X105816998Y-52137783D01*
X105747500Y-52144977D01*
X105685145Y-52113454D01*
X105668425Y-52094158D01*
X105538494Y-51908597D01*
X105371402Y-51741506D01*
X105371395Y-51741501D01*
X105177834Y-51605967D01*
X105177830Y-51605965D01*
X105063978Y-51552875D01*
X104963663Y-51506097D01*
X104963659Y-51506096D01*
X104963655Y-51506094D01*
X104735413Y-51444938D01*
X104735403Y-51444936D01*
X104500001Y-51424341D01*
X104499999Y-51424341D01*
X104264596Y-51444936D01*
X104264586Y-51444938D01*
X104036344Y-51506094D01*
X104036335Y-51506098D01*
X103822171Y-51605964D01*
X103822169Y-51605965D01*
X103628597Y-51741505D01*
X103461505Y-51908597D01*
X103325965Y-52102169D01*
X103325964Y-52102171D01*
X103236882Y-52293208D01*
X103190709Y-52345647D01*
X103123516Y-52364799D01*
X103056635Y-52344583D01*
X103011300Y-52291418D01*
X103000500Y-52240803D01*
X103000500Y-46880062D01*
X103020185Y-46813023D01*
X103072989Y-46767268D01*
X103142147Y-46757324D01*
X103205703Y-46786349D01*
X103243477Y-46845127D01*
X103244706Y-46849622D01*
X103300842Y-47071300D01*
X103394075Y-47283848D01*
X103521016Y-47478147D01*
X103521019Y-47478151D01*
X103521021Y-47478153D01*
X103678216Y-47648913D01*
X103678219Y-47648915D01*
X103678222Y-47648918D01*
X103861365Y-47791464D01*
X103861371Y-47791468D01*
X103861374Y-47791470D01*
X104065497Y-47901936D01*
X104177606Y-47940423D01*
X104285015Y-47977297D01*
X104285017Y-47977297D01*
X104285019Y-47977298D01*
X104513951Y-48015500D01*
X104513952Y-48015500D01*
X104746048Y-48015500D01*
X104746049Y-48015500D01*
X104974981Y-47977298D01*
X105194503Y-47901936D01*
X105398626Y-47791470D01*
X105581784Y-47648913D01*
X105738979Y-47478153D01*
X105865924Y-47283849D01*
X105959157Y-47071300D01*
X106016134Y-46846305D01*
X106021102Y-46786349D01*
X106035300Y-46615006D01*
X106035300Y-46614993D01*
X106016135Y-46383702D01*
X106016133Y-46383691D01*
X105998737Y-46314997D01*
X106404723Y-46314997D01*
X106404723Y-46315002D01*
X106423793Y-46532975D01*
X106423793Y-46532979D01*
X106480422Y-46744322D01*
X106480424Y-46744326D01*
X106480425Y-46744330D01*
X106500019Y-46786349D01*
X106572897Y-46942638D01*
X106572898Y-46942639D01*
X106698402Y-47121877D01*
X106853123Y-47276598D01*
X107032361Y-47402102D01*
X107230670Y-47494575D01*
X107230676Y-47494576D01*
X107230677Y-47494577D01*
X107261364Y-47502799D01*
X107442023Y-47551207D01*
X107624926Y-47567208D01*
X107659998Y-47570277D01*
X107660000Y-47570277D01*
X107660002Y-47570277D01*
X107688254Y-47567805D01*
X107877977Y-47551207D01*
X108089330Y-47494575D01*
X108287639Y-47402102D01*
X108466877Y-47276598D01*
X108621598Y-47121877D01*
X108747102Y-46942639D01*
X108839575Y-46744330D01*
X108896207Y-46532977D01*
X108915277Y-46315000D01*
X108896207Y-46097023D01*
X108839575Y-45885670D01*
X108747102Y-45687362D01*
X108747100Y-45687359D01*
X108747099Y-45687357D01*
X108621599Y-45508124D01*
X108550148Y-45436673D01*
X108466877Y-45353402D01*
X108318811Y-45249725D01*
X108287638Y-45227897D01*
X108188484Y-45181661D01*
X108089330Y-45135425D01*
X108089326Y-45135424D01*
X108089322Y-45135422D01*
X107877977Y-45078793D01*
X107660002Y-45059723D01*
X107659998Y-45059723D01*
X107514682Y-45072436D01*
X107442023Y-45078793D01*
X107442020Y-45078793D01*
X107230677Y-45135422D01*
X107230668Y-45135426D01*
X107032361Y-45227898D01*
X107032357Y-45227900D01*
X106853121Y-45353402D01*
X106698402Y-45508121D01*
X106572900Y-45687357D01*
X106572898Y-45687361D01*
X106542678Y-45752169D01*
X106480426Y-45885669D01*
X106480422Y-45885677D01*
X106423793Y-46097020D01*
X106423793Y-46097024D01*
X106404723Y-46314997D01*
X105998737Y-46314997D01*
X105959157Y-46158699D01*
X105865924Y-45946151D01*
X105738983Y-45751852D01*
X105738980Y-45751849D01*
X105738979Y-45751847D01*
X105581784Y-45581087D01*
X105581779Y-45581083D01*
X105581777Y-45581081D01*
X105398634Y-45438535D01*
X105398628Y-45438531D01*
X105194504Y-45328064D01*
X105194495Y-45328061D01*
X104974984Y-45252702D01*
X104803282Y-45224050D01*
X104746049Y-45214500D01*
X104513951Y-45214500D01*
X104468164Y-45222140D01*
X104285015Y-45252702D01*
X104065504Y-45328061D01*
X104065495Y-45328064D01*
X103861371Y-45438531D01*
X103861365Y-45438535D01*
X103678222Y-45581081D01*
X103678219Y-45581084D01*
X103521016Y-45751852D01*
X103394075Y-45946151D01*
X103300843Y-46158698D01*
X103244706Y-46380378D01*
X103209166Y-46440533D01*
X103146746Y-46471925D01*
X103077262Y-46464587D01*
X103022777Y-46420848D01*
X103000588Y-46354595D01*
X103000500Y-46349937D01*
X103000500Y-41430062D01*
X103020185Y-41363023D01*
X103072989Y-41317268D01*
X103142147Y-41307324D01*
X103205703Y-41336349D01*
X103243477Y-41395127D01*
X103244706Y-41399622D01*
X103300842Y-41621300D01*
X103394075Y-41833848D01*
X103521016Y-42028147D01*
X103521019Y-42028151D01*
X103521021Y-42028153D01*
X103678216Y-42198913D01*
X103678219Y-42198915D01*
X103678222Y-42198918D01*
X103861365Y-42341464D01*
X103861371Y-42341468D01*
X103861374Y-42341470D01*
X104065497Y-42451936D01*
X104130761Y-42474341D01*
X104285015Y-42527297D01*
X104285017Y-42527297D01*
X104285019Y-42527298D01*
X104513951Y-42565500D01*
X104513952Y-42565500D01*
X104746048Y-42565500D01*
X104746049Y-42565500D01*
X104974981Y-42527298D01*
X105194503Y-42451936D01*
X105398626Y-42341470D01*
X105581784Y-42198913D01*
X105738979Y-42028153D01*
X105865924Y-41833849D01*
X105959157Y-41621300D01*
X105998738Y-41465000D01*
X106404723Y-41465000D01*
X106423467Y-41679255D01*
X106423793Y-41682975D01*
X106423793Y-41682979D01*
X106480422Y-41894322D01*
X106480424Y-41894326D01*
X106480425Y-41894330D01*
X106515551Y-41969658D01*
X106572897Y-42092638D01*
X106572898Y-42092639D01*
X106698402Y-42271877D01*
X106853123Y-42426598D01*
X107032361Y-42552102D01*
X107230670Y-42644575D01*
X107442023Y-42701207D01*
X107624926Y-42717208D01*
X107659998Y-42720277D01*
X107660000Y-42720277D01*
X107660002Y-42720277D01*
X107688254Y-42717805D01*
X107877977Y-42701207D01*
X108089330Y-42644575D01*
X108287639Y-42552102D01*
X108466877Y-42426598D01*
X108621598Y-42271877D01*
X108747102Y-42092639D01*
X108839575Y-41894330D01*
X108896207Y-41682977D01*
X108915277Y-41465000D01*
X108896207Y-41247023D01*
X108839575Y-41035670D01*
X108747102Y-40837362D01*
X108747100Y-40837359D01*
X108747099Y-40837357D01*
X108621599Y-40658124D01*
X108621596Y-40658121D01*
X108466877Y-40503402D01*
X108287639Y-40377898D01*
X108287640Y-40377898D01*
X108287638Y-40377897D01*
X108188484Y-40331661D01*
X108089330Y-40285425D01*
X108089326Y-40285424D01*
X108089322Y-40285422D01*
X107877977Y-40228793D01*
X107660002Y-40209723D01*
X107659998Y-40209723D01*
X107514682Y-40222436D01*
X107442023Y-40228793D01*
X107442020Y-40228793D01*
X107230677Y-40285422D01*
X107230668Y-40285426D01*
X107032361Y-40377898D01*
X107032357Y-40377900D01*
X106853121Y-40503402D01*
X106698402Y-40658121D01*
X106572900Y-40837357D01*
X106572898Y-40837361D01*
X106480426Y-41035668D01*
X106480422Y-41035677D01*
X106423793Y-41247020D01*
X106423793Y-41247024D01*
X106407780Y-41430062D01*
X106404723Y-41465000D01*
X105998738Y-41465000D01*
X106016134Y-41396305D01*
X106023507Y-41307324D01*
X106035300Y-41165006D01*
X106035300Y-41164993D01*
X106016135Y-40933702D01*
X106016133Y-40933691D01*
X105959157Y-40708699D01*
X105865924Y-40496151D01*
X105738983Y-40301852D01*
X105738980Y-40301849D01*
X105738979Y-40301847D01*
X105581784Y-40131087D01*
X105581779Y-40131083D01*
X105581777Y-40131081D01*
X105398634Y-39988535D01*
X105398628Y-39988531D01*
X105194504Y-39878064D01*
X105194495Y-39878061D01*
X104974984Y-39802702D01*
X104803282Y-39774050D01*
X104746049Y-39764500D01*
X104513951Y-39764500D01*
X104468164Y-39772140D01*
X104285015Y-39802702D01*
X104065504Y-39878061D01*
X104065495Y-39878064D01*
X103861371Y-39988531D01*
X103861365Y-39988535D01*
X103678222Y-40131081D01*
X103678219Y-40131084D01*
X103521016Y-40301852D01*
X103394075Y-40496151D01*
X103300843Y-40708698D01*
X103244706Y-40930378D01*
X103209166Y-40990533D01*
X103146746Y-41021925D01*
X103077262Y-41014587D01*
X103022777Y-40970848D01*
X103000588Y-40904595D01*
X103000500Y-40899937D01*
X103000500Y-35539196D01*
X103020185Y-35472157D01*
X103072989Y-35426402D01*
X103142147Y-35416458D01*
X103205703Y-35445483D01*
G37*
G04 #@! TD.AperFunction*
G04 #@! TA.AperFunction,Conductor*
G36*
X116732515Y-38581799D02*
G01*
X116734626Y-38583861D01*
X121515139Y-43364374D01*
X121515149Y-43364385D01*
X121519479Y-43368715D01*
X121519480Y-43368716D01*
X121631284Y-43480520D01*
X121631286Y-43480521D01*
X121631290Y-43480524D01*
X121768209Y-43559573D01*
X121768216Y-43559577D01*
X121880019Y-43589534D01*
X121920942Y-43600500D01*
X121920943Y-43600500D01*
X127199903Y-43600500D01*
X127266942Y-43620185D01*
X127287584Y-43636819D01*
X131838583Y-48187819D01*
X131872068Y-48249142D01*
X131867084Y-48318834D01*
X131825212Y-48374767D01*
X131759748Y-48399184D01*
X131750902Y-48399500D01*
X131582412Y-48399500D01*
X131515373Y-48379815D01*
X131505097Y-48372445D01*
X131502263Y-48370185D01*
X131502262Y-48370184D01*
X131420539Y-48318834D01*
X131349523Y-48274211D01*
X131179254Y-48214631D01*
X131179249Y-48214630D01*
X131000004Y-48194435D01*
X130999996Y-48194435D01*
X130820750Y-48214630D01*
X130820745Y-48214631D01*
X130650476Y-48274211D01*
X130497737Y-48370184D01*
X130370184Y-48497737D01*
X130274210Y-48650478D01*
X130214630Y-48820750D01*
X130206898Y-48889383D01*
X130179832Y-48953797D01*
X130122237Y-48993352D01*
X130083678Y-48999500D01*
X128916321Y-48999500D01*
X128849282Y-48979815D01*
X128803527Y-48927011D01*
X128793101Y-48889383D01*
X128785368Y-48820745D01*
X128725789Y-48650478D01*
X128629816Y-48497738D01*
X128502262Y-48370184D01*
X128349523Y-48274211D01*
X128179254Y-48214631D01*
X128179249Y-48214630D01*
X128000004Y-48194435D01*
X127999996Y-48194435D01*
X127820750Y-48214630D01*
X127820745Y-48214631D01*
X127650476Y-48274211D01*
X127497737Y-48370184D01*
X127370184Y-48497737D01*
X127274211Y-48650476D01*
X127214631Y-48820745D01*
X127214630Y-48820750D01*
X127194435Y-48999996D01*
X127194435Y-49000003D01*
X127214630Y-49179249D01*
X127214631Y-49179254D01*
X127274211Y-49349523D01*
X127370184Y-49502262D01*
X127497738Y-49629816D01*
X127650478Y-49725789D01*
X127820745Y-49785368D01*
X127907669Y-49795161D01*
X127972080Y-49822226D01*
X127981465Y-49830700D01*
X128115139Y-49964374D01*
X128115149Y-49964385D01*
X128119479Y-49968715D01*
X128119480Y-49968716D01*
X128231284Y-50080520D01*
X128318095Y-50130639D01*
X128318097Y-50130641D01*
X128356151Y-50152611D01*
X128368215Y-50159577D01*
X128520943Y-50200500D01*
X128679057Y-50200500D01*
X131134083Y-50200500D01*
X131201122Y-50220185D01*
X131246877Y-50272989D01*
X131251125Y-50283546D01*
X131274210Y-50349521D01*
X131274211Y-50349522D01*
X131370184Y-50502262D01*
X131497738Y-50629816D01*
X131650478Y-50725789D01*
X131820745Y-50785368D01*
X131820750Y-50785369D01*
X131999996Y-50805565D01*
X132000000Y-50805565D01*
X132000002Y-50805565D01*
X132029449Y-50802246D01*
X132064610Y-50798285D01*
X132133432Y-50810339D01*
X132184811Y-50857688D01*
X132202436Y-50925298D01*
X132201714Y-50935388D01*
X132194435Y-50999995D01*
X132194435Y-51000003D01*
X132214630Y-51179249D01*
X132214632Y-51179257D01*
X132254629Y-51293562D01*
X132258190Y-51363341D01*
X132223461Y-51423968D01*
X132169680Y-51454291D01*
X131976344Y-51506094D01*
X131976335Y-51506098D01*
X131762171Y-51605964D01*
X131762169Y-51605965D01*
X131568597Y-51741505D01*
X131401505Y-51908597D01*
X131271575Y-52094158D01*
X131216998Y-52137783D01*
X131147500Y-52144977D01*
X131085145Y-52113454D01*
X131068425Y-52094158D01*
X130938494Y-51908597D01*
X130771402Y-51741506D01*
X130771395Y-51741501D01*
X130577834Y-51605967D01*
X130577830Y-51605965D01*
X130463978Y-51552875D01*
X130363663Y-51506097D01*
X130363659Y-51506096D01*
X130363655Y-51506094D01*
X130135413Y-51444938D01*
X130135403Y-51444936D01*
X129900001Y-51424341D01*
X129899999Y-51424341D01*
X129664596Y-51444936D01*
X129664586Y-51444938D01*
X129436344Y-51506094D01*
X129436335Y-51506098D01*
X129222171Y-51605964D01*
X129222169Y-51605965D01*
X129028597Y-51741505D01*
X128861505Y-51908597D01*
X128731575Y-52094158D01*
X128676998Y-52137783D01*
X128607500Y-52144977D01*
X128545145Y-52113454D01*
X128528425Y-52094158D01*
X128398494Y-51908597D01*
X128231402Y-51741506D01*
X128231395Y-51741501D01*
X128037834Y-51605967D01*
X128037830Y-51605965D01*
X127923978Y-51552875D01*
X127823663Y-51506097D01*
X127823659Y-51506096D01*
X127823655Y-51506094D01*
X127595413Y-51444938D01*
X127595403Y-51444936D01*
X127360001Y-51424341D01*
X127359999Y-51424341D01*
X127124596Y-51444936D01*
X127124586Y-51444938D01*
X126896344Y-51506094D01*
X126896335Y-51506098D01*
X126682171Y-51605964D01*
X126682169Y-51605965D01*
X126488597Y-51741505D01*
X126321505Y-51908597D01*
X126191575Y-52094158D01*
X126136998Y-52137783D01*
X126067500Y-52144977D01*
X126005145Y-52113454D01*
X125988425Y-52094158D01*
X125858494Y-51908597D01*
X125691402Y-51741506D01*
X125691395Y-51741501D01*
X125497834Y-51605967D01*
X125497830Y-51605965D01*
X125383978Y-51552875D01*
X125283663Y-51506097D01*
X125283659Y-51506096D01*
X125283655Y-51506094D01*
X125055413Y-51444938D01*
X125055403Y-51444936D01*
X124820001Y-51424341D01*
X124819999Y-51424341D01*
X124584596Y-51444936D01*
X124584586Y-51444938D01*
X124356344Y-51506094D01*
X124356335Y-51506098D01*
X124142171Y-51605964D01*
X124142169Y-51605965D01*
X123948600Y-51741503D01*
X123826284Y-51863819D01*
X123764961Y-51897303D01*
X123695269Y-51892319D01*
X123639336Y-51850447D01*
X123622421Y-51819470D01*
X123573354Y-51687913D01*
X123573350Y-51687906D01*
X123487190Y-51572812D01*
X123487187Y-51572809D01*
X123372093Y-51486649D01*
X123372086Y-51486645D01*
X123237379Y-51436403D01*
X123237372Y-51436401D01*
X123177844Y-51430000D01*
X122530000Y-51430000D01*
X122530000Y-52335439D01*
X122476853Y-52304755D01*
X122347143Y-52270000D01*
X122212857Y-52270000D01*
X122083147Y-52304755D01*
X122030000Y-52335439D01*
X122030000Y-51430000D01*
X121382155Y-51430000D01*
X121322627Y-51436401D01*
X121322620Y-51436403D01*
X121187913Y-51486645D01*
X121187906Y-51486649D01*
X121072812Y-51572809D01*
X121072809Y-51572812D01*
X120986649Y-51687906D01*
X120986645Y-51687913D01*
X120937578Y-51819470D01*
X120895707Y-51875404D01*
X120830242Y-51899821D01*
X120761969Y-51884969D01*
X120733715Y-51863819D01*
X120675599Y-51805703D01*
X120611401Y-51741505D01*
X120611397Y-51741502D01*
X120611396Y-51741501D01*
X120417834Y-51605967D01*
X120417830Y-51605965D01*
X120303978Y-51552875D01*
X120203663Y-51506097D01*
X120203659Y-51506096D01*
X120203655Y-51506094D01*
X119975413Y-51444938D01*
X119975403Y-51444936D01*
X119740001Y-51424341D01*
X119739999Y-51424341D01*
X119504596Y-51444936D01*
X119504586Y-51444938D01*
X119276344Y-51506094D01*
X119276335Y-51506098D01*
X119062171Y-51605964D01*
X119062169Y-51605965D01*
X118868597Y-51741505D01*
X118701505Y-51908597D01*
X118571575Y-52094158D01*
X118516998Y-52137783D01*
X118447500Y-52144977D01*
X118385145Y-52113454D01*
X118368425Y-52094158D01*
X118238494Y-51908597D01*
X118071402Y-51741506D01*
X118071395Y-51741501D01*
X117877834Y-51605967D01*
X117877830Y-51605965D01*
X117763978Y-51552875D01*
X117663663Y-51506097D01*
X117663659Y-51506096D01*
X117663655Y-51506094D01*
X117435413Y-51444938D01*
X117435403Y-51444936D01*
X117200001Y-51424341D01*
X117199999Y-51424341D01*
X116964596Y-51444936D01*
X116964586Y-51444938D01*
X116756593Y-51500669D01*
X116686743Y-51499006D01*
X116628881Y-51459843D01*
X116601377Y-51395614D01*
X116600500Y-51380894D01*
X116600500Y-38920945D01*
X116600500Y-38920943D01*
X116559577Y-38768216D01*
X116539557Y-38733541D01*
X116523085Y-38665642D01*
X116545938Y-38599615D01*
X116600859Y-38556424D01*
X116670412Y-38549783D01*
X116732515Y-38581799D01*
G37*
G04 #@! TD.AperFunction*
G04 #@! TA.AperFunction,Conductor*
G36*
X109830000Y-36350000D02*
G01*
X110477828Y-36350000D01*
X110477844Y-36349999D01*
X110537372Y-36343598D01*
X110537379Y-36343596D01*
X110672086Y-36293354D01*
X110672093Y-36293350D01*
X110787187Y-36207190D01*
X110787190Y-36207187D01*
X110873350Y-36092093D01*
X110873354Y-36092086D01*
X110922422Y-35960529D01*
X110964293Y-35904595D01*
X111029757Y-35880178D01*
X111098030Y-35895030D01*
X111126285Y-35916181D01*
X111248599Y-36038495D01*
X111325135Y-36092086D01*
X111442165Y-36174032D01*
X111442167Y-36174033D01*
X111442170Y-36174035D01*
X111656337Y-36273903D01*
X111884592Y-36335063D01*
X112055319Y-36350000D01*
X112119999Y-36355659D01*
X112120000Y-36355659D01*
X112120001Y-36355659D01*
X112184681Y-36350000D01*
X112355408Y-36335063D01*
X112583663Y-36273903D01*
X112797830Y-36174035D01*
X112991401Y-36038495D01*
X113158495Y-35871401D01*
X113288425Y-35685842D01*
X113343002Y-35642217D01*
X113412500Y-35635023D01*
X113474855Y-35666546D01*
X113491575Y-35685842D01*
X113621500Y-35871395D01*
X113621505Y-35871401D01*
X113788599Y-36038495D01*
X113865135Y-36092086D01*
X113982165Y-36174032D01*
X113982167Y-36174033D01*
X113982170Y-36174035D01*
X113987898Y-36176706D01*
X114040339Y-36222872D01*
X114059500Y-36289090D01*
X114059500Y-36573330D01*
X114059499Y-36573348D01*
X114059499Y-36739054D01*
X114059498Y-36739054D01*
X114059499Y-36739057D01*
X114060664Y-36743408D01*
X114059002Y-36813256D01*
X114019840Y-36871119D01*
X113955611Y-36898623D01*
X113940890Y-36899500D01*
X107800098Y-36899500D01*
X107733059Y-36879815D01*
X107712417Y-36863181D01*
X107637825Y-36788589D01*
X107604340Y-36727266D01*
X107605732Y-36668813D01*
X107629276Y-36580946D01*
X107629277Y-36580943D01*
X107640501Y-36539057D01*
X107640501Y-36380942D01*
X107640501Y-36373347D01*
X107640500Y-36373329D01*
X107640500Y-36289090D01*
X107660185Y-36222051D01*
X107712101Y-36176706D01*
X107717830Y-36174035D01*
X107911401Y-36038495D01*
X108033717Y-35916178D01*
X108095036Y-35882696D01*
X108164728Y-35887680D01*
X108220662Y-35929551D01*
X108237577Y-35960528D01*
X108286646Y-36092088D01*
X108286649Y-36092093D01*
X108372809Y-36207187D01*
X108372812Y-36207190D01*
X108487906Y-36293350D01*
X108487913Y-36293354D01*
X108622620Y-36343596D01*
X108622627Y-36343598D01*
X108682155Y-36349999D01*
X108682172Y-36350000D01*
X109330000Y-36350000D01*
X109330000Y-35444560D01*
X109383147Y-35475245D01*
X109512857Y-35510000D01*
X109647143Y-35510000D01*
X109776853Y-35475245D01*
X109830000Y-35444560D01*
X109830000Y-36350000D01*
G37*
G04 #@! TD.AperFunction*
M02*
