M48
; DRILL file {KiCad 8.0.6} date 2024-11-03T10:52:13+0100
; FORMAT={-:-/ absolute / metric / decimal}
; #@! TF.CreationDate,2024-11-03T10:52:13+01:00
; #@! TF.GenerationSoftware,Kicad,Pcbnew,8.0.6
; #@! TF.FileFunction,Plated,1,2,PTH
FMAT,2
METRIC
; #@! TA.AperFunction,Plated,PTH,ViaDrill
T1C0.300
; #@! TA.AperFunction,Plated,PTH,ComponentDrill
T2C1.000
; #@! TA.AperFunction,Plated,PTH,ComponentDrill
T3C1.020
; #@! TA.AperFunction,Plated,PTH,ComponentDrill
T4C1.100
; #@! TA.AperFunction,Plated,PTH,ComponentDrill
T5C1.200
; #@! TA.AperFunction,Plated,PTH,ComponentDrill
T6C1.300
%
G90
G05
T1
X128.0Y-49.0
X131.0Y-49.0
X132.0Y-50.0
X133.0Y-51.0
X139.0Y-56.5
X157.5Y-47.5
X158.0Y-41.5
X158.0Y-44.0
X161.5Y-56.5
X162.5Y-57.0
X163.5Y-56.0
X166.5Y-57.5
T2
X104.5Y-61.96
X104.5Y-64.5
X104.96Y-58.0
X107.5Y-58.0
X110.04Y-58.0
X154.5Y-62.5
X154.5Y-65.04
X154.5Y-67.58
X160.015Y-62.0
X162.555Y-62.0
T3
X104.5Y-35.0
X104.5Y-52.78
X107.04Y-35.0
X107.04Y-52.78
X109.58Y-35.0
X109.58Y-52.78
X112.12Y-35.0
X112.12Y-52.78
X114.66Y-35.0
X114.66Y-52.78
X117.2Y-35.0
X117.2Y-52.78
X119.74Y-35.0
X119.74Y-52.78
X122.28Y-35.0
X122.28Y-52.78
X124.82Y-35.0
X124.82Y-52.78
X127.36Y-35.0
X127.36Y-52.78
X129.9Y-35.0
X129.9Y-52.78
X132.44Y-35.0
X132.44Y-52.78
X134.98Y-35.0
X134.98Y-52.78
X137.52Y-35.0
X137.52Y-52.78
X140.06Y-35.0
X140.06Y-52.78
X142.6Y-35.0
X142.6Y-52.78
X145.14Y-35.0
X145.14Y-52.78
X147.68Y-35.0
X147.68Y-52.78
X150.22Y-35.0
X150.22Y-52.78
X152.53Y-41.35
X152.53Y-43.89
X152.53Y-46.43
X152.76Y-35.0
X152.76Y-52.78
T4
X104.5Y-71.25
X104.5Y-77.75
X107.75Y-61.75
X107.75Y-68.25
X109.0Y-71.25
X109.0Y-77.75
X112.0Y-71.25
X112.0Y-77.75
X112.25Y-61.75
X112.25Y-68.25
X116.5Y-61.75
X116.5Y-68.25
X116.5Y-71.25
X116.5Y-77.75
X118.92Y-58.0
X119.5Y-71.25
X119.5Y-77.75
X121.0Y-61.75
X121.0Y-68.25
X121.46Y-58.0
X124.0Y-58.0
X124.0Y-71.25
X124.0Y-77.75
X127.0Y-71.25
X127.0Y-77.75
X130.25Y-61.75
X130.25Y-68.25
X131.5Y-71.25
X131.5Y-77.75
X134.5Y-71.25
X134.5Y-77.75
X134.75Y-61.75
X134.75Y-68.25
X138.25Y-61.75
X138.25Y-68.25
X139.0Y-71.25
X139.0Y-77.75
X142.0Y-71.25
X142.0Y-77.75
X142.75Y-61.75
X142.75Y-68.25
X146.25Y-61.75
X146.25Y-68.25
X146.5Y-71.25
X146.5Y-77.75
X149.5Y-71.25
X149.5Y-77.75
X150.75Y-61.75
X150.75Y-68.25
X154.0Y-71.25
X154.0Y-77.75
X157.75Y-65.75
X157.75Y-70.25
X157.75Y-73.25
X157.75Y-77.75
X164.25Y-65.75
X164.25Y-70.25
X164.25Y-73.25
X164.25Y-77.75
X167.25Y-65.75
X167.25Y-70.25
X167.25Y-73.25
X167.25Y-77.75
X173.75Y-65.75
X173.75Y-70.25
X173.75Y-73.25
X173.75Y-77.75
T5
X165.095Y-62.0
X167.635Y-62.0
X172.715Y-62.0
T6
X170.175Y-62.0
M30
