G04 #@! TF.GenerationSoftware,KiCad,Pcbnew,8.0.6*
G04 #@! TF.CreationDate,2024-11-03T10:51:14+01:00*
G04 #@! TF.ProjectId,pico_piano,7069636f-5f70-4696-916e-6f2e6b696361,rev?*
G04 #@! TF.SameCoordinates,Original*
G04 #@! TF.FileFunction,Copper,L1,Top*
G04 #@! TF.FilePolarity,Positive*
%FSLAX46Y46*%
G04 Gerber Fmt 4.6, Leading zero omitted, Abs format (unit mm)*
G04 Created by KiCad (PCBNEW 8.0.6) date 2024-11-03 10:51:14*
%MOMM*%
%LPD*%
G01*
G04 APERTURE LIST*
G04 #@! TA.AperFunction,ComponentPad*
%ADD10C,2.000000*%
G04 #@! TD*
G04 #@! TA.AperFunction,ComponentPad*
%ADD11R,1.700000X1.700000*%
G04 #@! TD*
G04 #@! TA.AperFunction,ComponentPad*
%ADD12O,1.700000X1.700000*%
G04 #@! TD*
G04 #@! TA.AperFunction,SMDPad,CuDef*
%ADD13R,1.700000X3.500000*%
G04 #@! TD*
G04 #@! TA.AperFunction,SMDPad,CuDef*
%ADD14R,3.500000X1.700000*%
G04 #@! TD*
G04 #@! TA.AperFunction,ComponentPad*
%ADD15R,2.000000X2.000000*%
G04 #@! TD*
G04 #@! TA.AperFunction,ComponentPad*
%ADD16R,1.905000X2.000000*%
G04 #@! TD*
G04 #@! TA.AperFunction,ComponentPad*
%ADD17O,1.905000X2.000000*%
G04 #@! TD*
G04 #@! TA.AperFunction,ViaPad*
%ADD18C,0.600000*%
G04 #@! TD*
G04 #@! TA.AperFunction,Conductor*
%ADD19C,0.200000*%
G04 #@! TD*
G04 APERTURE END LIST*
D10*
X167250000Y-65750000D03*
X173750000Y-65750000D03*
X167250000Y-70250000D03*
X173750000Y-70250000D03*
X142000000Y-77750000D03*
X142000000Y-71250000D03*
X146500000Y-77750000D03*
X146500000Y-71250000D03*
X130250000Y-68250000D03*
X130250000Y-61750000D03*
X134750000Y-68250000D03*
X134750000Y-61750000D03*
X138250000Y-68250000D03*
X138250000Y-61750000D03*
X142750000Y-68250000D03*
X142750000Y-61750000D03*
D11*
X154500000Y-62500000D03*
D12*
X154500000Y-65040000D03*
X154500000Y-67580000D03*
D10*
X104500000Y-77750000D03*
X104500000Y-71250000D03*
X109000000Y-77750000D03*
X109000000Y-71250000D03*
X149500000Y-77750000D03*
X149500000Y-71250000D03*
X154000000Y-77750000D03*
X154000000Y-71250000D03*
X134500000Y-77750000D03*
X134500000Y-71250000D03*
X139000000Y-77750000D03*
X139000000Y-71250000D03*
X164250000Y-70250000D03*
X157750000Y-70250000D03*
X164250000Y-65750000D03*
X157750000Y-65750000D03*
X146250000Y-68250000D03*
X146250000Y-61750000D03*
X150750000Y-68250000D03*
X150750000Y-61750000D03*
X112250000Y-61750000D03*
X112250000Y-68250000D03*
X107750000Y-61750000D03*
X107750000Y-68250000D03*
D11*
X104960000Y-58000000D03*
D12*
X107500000Y-58000000D03*
X110040000Y-58000000D03*
D10*
X119500000Y-77750000D03*
X119500000Y-71250000D03*
X124000000Y-77750000D03*
X124000000Y-71250000D03*
X127000000Y-77750000D03*
X127000000Y-71250000D03*
X131500000Y-77750000D03*
X131500000Y-71250000D03*
X112000000Y-77750000D03*
X112000000Y-71250000D03*
X116500000Y-77750000D03*
X116500000Y-71250000D03*
D12*
X104500000Y-52780000D03*
D13*
X104500000Y-53680000D03*
D12*
X107040000Y-52780000D03*
D13*
X107040000Y-53680000D03*
D11*
X109580000Y-52780000D03*
D13*
X109580000Y-53680000D03*
D12*
X112120000Y-52780000D03*
D13*
X112120000Y-53680000D03*
D12*
X114660000Y-52780000D03*
D13*
X114660000Y-53680000D03*
D12*
X117200000Y-52780000D03*
D13*
X117200000Y-53680000D03*
D12*
X119740000Y-52780000D03*
D13*
X119740000Y-53680000D03*
D11*
X122280000Y-52780000D03*
D13*
X122280000Y-53680000D03*
D12*
X124820000Y-52780000D03*
D13*
X124820000Y-53680000D03*
D12*
X127360000Y-52780000D03*
D13*
X127360000Y-53680000D03*
D12*
X129900000Y-52780000D03*
D13*
X129900000Y-53680000D03*
D12*
X132440000Y-52780000D03*
D13*
X132440000Y-53680000D03*
D11*
X134980000Y-52780000D03*
D13*
X134980000Y-53680000D03*
D12*
X137520000Y-52780000D03*
D13*
X137520000Y-53680000D03*
D12*
X140060000Y-52780000D03*
D13*
X140060000Y-53680000D03*
D12*
X142600000Y-52780000D03*
D13*
X142600000Y-53680000D03*
D12*
X145140000Y-52780000D03*
D13*
X145140000Y-53680000D03*
D11*
X147680000Y-52780000D03*
D13*
X147680000Y-53680000D03*
D12*
X150220000Y-52780000D03*
D13*
X150220000Y-53680000D03*
D12*
X152760000Y-52780000D03*
D13*
X152760000Y-53680000D03*
D12*
X152760000Y-35000000D03*
D13*
X152760000Y-34100000D03*
D12*
X150220000Y-35000000D03*
D13*
X150220000Y-34100000D03*
D11*
X147680000Y-35000000D03*
D13*
X147680000Y-34100000D03*
D12*
X145140000Y-35000000D03*
D13*
X145140000Y-34100000D03*
D12*
X142600000Y-35000000D03*
D13*
X142600000Y-34100000D03*
D12*
X140060000Y-35000000D03*
D13*
X140060000Y-34100000D03*
D12*
X137520000Y-35000000D03*
D13*
X137520000Y-34100000D03*
D11*
X134980000Y-35000000D03*
D13*
X134980000Y-34100000D03*
D12*
X132440000Y-35000000D03*
D13*
X132440000Y-34100000D03*
D12*
X129900000Y-35000000D03*
D13*
X129900000Y-34100000D03*
D12*
X127360000Y-35000000D03*
D13*
X127360000Y-34100000D03*
D12*
X124820000Y-35000000D03*
D13*
X124820000Y-34100000D03*
D11*
X122280000Y-35000000D03*
D13*
X122280000Y-34100000D03*
D12*
X119740000Y-35000000D03*
D13*
X119740000Y-34100000D03*
D12*
X117200000Y-35000000D03*
D13*
X117200000Y-34100000D03*
D12*
X114660000Y-35000000D03*
D13*
X114660000Y-34100000D03*
D12*
X112120000Y-35000000D03*
D13*
X112120000Y-34100000D03*
D11*
X109580000Y-35000000D03*
D13*
X109580000Y-34100000D03*
D12*
X107040000Y-35000000D03*
D13*
X107040000Y-34100000D03*
D12*
X104500000Y-35000000D03*
D13*
X104500000Y-34100000D03*
D12*
X152530000Y-46430000D03*
D14*
X153430000Y-46430000D03*
D11*
X152530000Y-43890000D03*
D14*
X153430000Y-43890000D03*
D12*
X152530000Y-41350000D03*
D14*
X153430000Y-41350000D03*
D10*
X116500000Y-68250000D03*
X116500000Y-61750000D03*
X121000000Y-68250000D03*
X121000000Y-61750000D03*
X157750000Y-73250000D03*
X164250000Y-73250000D03*
X157750000Y-77750000D03*
X164250000Y-77750000D03*
X160015000Y-62000000D03*
X162555000Y-62000000D03*
X165095000Y-62000000D03*
X167635000Y-62000000D03*
D15*
X170175000Y-62000000D03*
D10*
X172715000Y-62000000D03*
D16*
X124000000Y-58000000D03*
D17*
X121460000Y-58000000D03*
X118920000Y-58000000D03*
D11*
X104500000Y-64500000D03*
D12*
X104500000Y-61960000D03*
D10*
X167250000Y-73250000D03*
X173750000Y-73250000D03*
X167250000Y-77750000D03*
X173750000Y-77750000D03*
D18*
X166500000Y-57500000D03*
X158000000Y-41500000D03*
X158000000Y-44000000D03*
X157500000Y-47500000D03*
X161500000Y-56500000D03*
X162500000Y-57000000D03*
X163500000Y-56000000D03*
X139000000Y-56500000D03*
X128000000Y-49000000D03*
X131000000Y-49000000D03*
X132000000Y-50000000D03*
X133000000Y-51000000D03*
D19*
X170175000Y-62000000D02*
X170175000Y-66675000D01*
X170175000Y-66675000D02*
X173750000Y-70250000D01*
X109580000Y-35000000D02*
X109580000Y-35830000D01*
X109580000Y-35830000D02*
X110250000Y-36500000D01*
X110250000Y-36500000D02*
X121500000Y-36500000D01*
X121500000Y-36500000D02*
X122280000Y-35720000D01*
X122280000Y-35720000D02*
X122280000Y-35000000D01*
X154750000Y-66250000D02*
X154916346Y-66250000D01*
X154750000Y-66250000D02*
X154500000Y-66500000D01*
X154500000Y-66500000D02*
X154500000Y-67580000D01*
X154916346Y-66250000D02*
X155750000Y-65416346D01*
X155750000Y-65416346D02*
X155750000Y-64500000D01*
X155750000Y-64500000D02*
X156565686Y-63684314D01*
X156565686Y-63684314D02*
X156565686Y-61565686D01*
X156565686Y-61565686D02*
X158600000Y-59531372D01*
X158600000Y-59531372D02*
X158600000Y-42100000D01*
X158600000Y-42100000D02*
X158000000Y-41500000D01*
X168000000Y-59000000D02*
X173000000Y-59000000D01*
X166500000Y-57500000D02*
X168000000Y-59000000D01*
X174750000Y-60750000D02*
X174750000Y-61500000D01*
X174750000Y-61500000D02*
X174750000Y-64750000D01*
X173000000Y-59000000D02*
X174750000Y-60750000D01*
X104500000Y-77750000D02*
X104500000Y-71250000D01*
X159345150Y-59700000D02*
X160300000Y-59700000D01*
X157500000Y-63500000D02*
X157500000Y-61545150D01*
X159500000Y-65500000D02*
X157500000Y-63500000D01*
X159500000Y-67500000D02*
X159500000Y-65500000D01*
X159000000Y-68000000D02*
X159500000Y-67500000D01*
X156000000Y-68500000D02*
X156500000Y-68000000D01*
X156000000Y-74000000D02*
X156000000Y-68500000D01*
X156500000Y-68000000D02*
X159000000Y-68000000D01*
X157000000Y-75000000D02*
X156000000Y-74000000D01*
X165500000Y-75000000D02*
X157000000Y-75000000D01*
X160300000Y-59700000D02*
X161000000Y-59000000D01*
X157500000Y-61545150D02*
X159345150Y-59700000D01*
X167250000Y-73250000D02*
X165500000Y-75000000D01*
X161000000Y-59000000D02*
X161000000Y-57000000D01*
X161000000Y-57000000D02*
X161500000Y-56500000D01*
X162500000Y-57000000D02*
X161500000Y-58000000D01*
X160500000Y-65500000D02*
X160500000Y-68000000D01*
X161500000Y-58000000D02*
X161500000Y-59500000D01*
X156450000Y-71950000D02*
X157750000Y-73250000D01*
X161500000Y-59500000D02*
X160900000Y-60100000D01*
X160500000Y-68000000D02*
X160000000Y-68500000D01*
X160900000Y-60100000D02*
X159510836Y-60100000D01*
X160000000Y-68500000D02*
X156950000Y-68500000D01*
X159510836Y-60100000D02*
X158000000Y-61610836D01*
X158000000Y-61610836D02*
X158000000Y-63000000D01*
X158000000Y-63000000D02*
X160500000Y-65500000D01*
X156950000Y-68500000D02*
X156450000Y-69000000D01*
X156450000Y-69000000D02*
X156450000Y-71950000D01*
X162500000Y-60000000D02*
X162500000Y-58500000D01*
X162000000Y-60500000D02*
X162500000Y-60000000D01*
X159676522Y-60500000D02*
X162000000Y-60500000D01*
X158715000Y-61461522D02*
X159676522Y-60500000D01*
X160107500Y-64392500D02*
X158715000Y-63000000D01*
X159000000Y-69000000D02*
X160500000Y-69000000D01*
X161392500Y-64392500D02*
X160107500Y-64392500D01*
X161500000Y-64500000D02*
X161392500Y-64392500D01*
X161500000Y-68000000D02*
X161500000Y-64500000D01*
X160500000Y-69000000D02*
X161500000Y-68000000D01*
X162500000Y-58500000D02*
X163500000Y-57500000D01*
X158715000Y-63000000D02*
X158715000Y-61461522D01*
X157750000Y-70250000D02*
X159000000Y-69000000D01*
X163500000Y-57500000D02*
X163500000Y-56000000D01*
X149500000Y-71250000D02*
X150750000Y-71250000D01*
X150750000Y-71250000D02*
X152500000Y-69500000D01*
X156500000Y-58000000D02*
X156500000Y-38740000D01*
X152500000Y-69500000D02*
X152500000Y-61979899D01*
X152500000Y-61979899D02*
X153239950Y-61239949D01*
X153239950Y-61239949D02*
X153260051Y-61239949D01*
X153260051Y-61239949D02*
X156500000Y-58000000D01*
X156500000Y-38740000D02*
X152760000Y-35000000D01*
X158100000Y-44100000D02*
X158000000Y-44000000D01*
X158100000Y-59465686D02*
X158100000Y-44100000D01*
X156032843Y-61532843D02*
X158100000Y-59465686D01*
X154500000Y-65040000D02*
X156032843Y-63507157D01*
X156032843Y-63507157D02*
X156032843Y-61532843D01*
X154500000Y-62500000D02*
X157500000Y-59500000D01*
X157500000Y-59500000D02*
X157500000Y-47500000D01*
X174750000Y-64750000D02*
X173750000Y-65750000D01*
X139000000Y-56500000D02*
X133000000Y-56500000D01*
X132440000Y-55940000D02*
X132440000Y-52780000D01*
X133000000Y-56500000D02*
X132440000Y-55940000D01*
X134750000Y-68250000D02*
X134750000Y-61750000D01*
X142750000Y-68250000D02*
X142750000Y-61750000D01*
X150750000Y-68250000D02*
X150750000Y-61750000D01*
X104500000Y-52780000D02*
X105780000Y-51500000D01*
X113500000Y-49500000D02*
X126500000Y-49500000D01*
X105780000Y-51500000D02*
X107500000Y-51500000D01*
X107500000Y-51500000D02*
X108500000Y-50500000D01*
X108500000Y-50500000D02*
X112500000Y-50500000D01*
X112500000Y-50500000D02*
X113500000Y-49500000D01*
X126500000Y-49500000D02*
X127000000Y-49000000D01*
X127000000Y-49000000D02*
X128000000Y-49000000D01*
X107040000Y-52780000D02*
X108820000Y-51000000D01*
X108820000Y-51000000D02*
X113000000Y-51000000D01*
X113000000Y-51000000D02*
X114000000Y-50000000D01*
X114000000Y-50000000D02*
X129000000Y-50000000D01*
X129000000Y-50000000D02*
X130000000Y-49000000D01*
X130000000Y-49000000D02*
X131000000Y-49000000D01*
X114400000Y-50500000D02*
X129500000Y-50500000D01*
X112120000Y-52780000D02*
X114400000Y-50500000D01*
X129500000Y-50500000D02*
X130000000Y-50000000D01*
X130000000Y-50000000D02*
X132000000Y-50000000D01*
X116500000Y-51000000D02*
X117500000Y-51000000D01*
X114660000Y-52780000D02*
X114720000Y-52780000D01*
X114720000Y-52780000D02*
X116500000Y-51000000D01*
X117500000Y-51000000D02*
X133000000Y-51000000D01*
X112000000Y-71250000D02*
X114500000Y-68750000D01*
X114500000Y-68750000D02*
X114500000Y-59565686D01*
X119000000Y-56000000D02*
X123160000Y-56000000D01*
X124820000Y-54340000D02*
X124820000Y-52780000D01*
X114500000Y-59565686D02*
X117565686Y-56500000D01*
X117565686Y-56500000D02*
X118500000Y-56500000D01*
X118500000Y-56500000D02*
X119000000Y-56000000D01*
X123160000Y-56000000D02*
X124820000Y-54340000D01*
X104500000Y-71250000D02*
X104500000Y-69661522D01*
X104500000Y-69661522D02*
X106000000Y-68161522D01*
X117200000Y-55734314D02*
X117200000Y-52780000D01*
X106000000Y-68161522D02*
X106000000Y-61000000D01*
X106000000Y-61000000D02*
X107400000Y-59600000D01*
X113334314Y-59600000D02*
X117200000Y-55734314D01*
X107400000Y-59600000D02*
X113334314Y-59600000D01*
X121000000Y-61750000D02*
X123000000Y-61750000D01*
X123000000Y-61750000D02*
X126000000Y-58750000D01*
X126000000Y-58750000D02*
X126000000Y-54140000D01*
X126000000Y-54140000D02*
X127360000Y-52780000D01*
X134500000Y-71250000D02*
X136950000Y-68800000D01*
X139565686Y-59500000D02*
X142065686Y-57000000D01*
X144500000Y-57000000D02*
X145000000Y-56500000D01*
X136950000Y-68800000D02*
X136950000Y-60050000D01*
X152760000Y-54340000D02*
X152760000Y-52780000D01*
X136950000Y-60050000D02*
X137500000Y-59500000D01*
X145000000Y-56500000D02*
X149000000Y-56500000D01*
X149000000Y-56500000D02*
X149500000Y-56000000D01*
X151100000Y-56000000D02*
X152760000Y-54340000D01*
X137500000Y-59500000D02*
X139565686Y-59500000D01*
X149500000Y-56000000D02*
X151100000Y-56000000D01*
X142065686Y-57000000D02*
X144500000Y-57000000D01*
X142750000Y-61750000D02*
X146000000Y-58500000D01*
X146000000Y-58500000D02*
X153500000Y-58500000D01*
X153500000Y-58500000D02*
X155000000Y-57000000D01*
X155000000Y-57000000D02*
X155000000Y-52000000D01*
X155000000Y-52000000D02*
X152000000Y-49000000D01*
X152000000Y-49000000D02*
X147000000Y-49000000D01*
X147000000Y-49000000D02*
X144500000Y-46500000D01*
X144500000Y-46500000D02*
X144500000Y-36900000D01*
X144500000Y-36900000D02*
X142600000Y-35000000D01*
X142000000Y-71250000D02*
X144500000Y-68750000D01*
X144500000Y-68750000D02*
X144500000Y-61000000D01*
X144500000Y-61000000D02*
X146500000Y-59000000D01*
X155500000Y-51500000D02*
X152500000Y-48500000D01*
X146500000Y-59000000D02*
X154000000Y-59000000D01*
X155500000Y-57500000D02*
X155500000Y-51500000D01*
X154000000Y-59000000D02*
X155500000Y-57500000D01*
X152500000Y-48500000D02*
X147500000Y-48500000D01*
X147500000Y-48500000D02*
X145140000Y-46140000D01*
X145140000Y-46140000D02*
X145140000Y-35000000D01*
X156000000Y-39000000D02*
X153500000Y-36500000D01*
X156000000Y-57914213D02*
X156000000Y-39000000D01*
X153500000Y-36500000D02*
X151000000Y-36500000D01*
X152164213Y-61750000D02*
X156000000Y-57914213D01*
X150750000Y-61750000D02*
X152164213Y-61750000D01*
X151000000Y-36500000D02*
X150220000Y-35720000D01*
X119740000Y-54340000D02*
X119740000Y-52780000D01*
X113500000Y-60000000D02*
X117770000Y-55730000D01*
X107750000Y-61750000D02*
X109500000Y-60000000D01*
X118350000Y-55730000D02*
X119740000Y-54340000D01*
X109500000Y-60000000D02*
X113500000Y-60000000D01*
X117770000Y-55730000D02*
X118350000Y-55730000D01*
X142600000Y-54340000D02*
X142600000Y-52780000D01*
X138940000Y-58000000D02*
X142600000Y-54340000D01*
X123000000Y-70000000D02*
X123000000Y-65000000D01*
X130000000Y-58000000D02*
X138940000Y-58000000D01*
X121750000Y-71250000D02*
X123000000Y-70000000D01*
X123000000Y-65000000D02*
X130000000Y-58000000D01*
X119500000Y-71250000D02*
X121750000Y-71250000D01*
X139005685Y-58500000D02*
X139105685Y-58400000D01*
X127000000Y-62000000D02*
X130500000Y-58500000D01*
X145140000Y-54340000D02*
X145140000Y-52780000D01*
X127000000Y-71250000D02*
X127000000Y-62000000D01*
X139105685Y-58400000D02*
X139105686Y-58400000D01*
X141500000Y-56005685D02*
X141505685Y-56000000D01*
X130500000Y-58500000D02*
X139005685Y-58500000D01*
X139105686Y-58400000D02*
X141500000Y-56005685D01*
X141505685Y-56000000D02*
X143480000Y-56000000D01*
X143480000Y-56000000D02*
X145140000Y-54340000D01*
X134750000Y-59750000D02*
X135500000Y-59000000D01*
X134750000Y-61750000D02*
X134750000Y-59750000D01*
X150220000Y-54340000D02*
X150220000Y-52780000D01*
X150220000Y-54280000D02*
X150220000Y-52780000D01*
X148500000Y-56000000D02*
X150220000Y-54280000D01*
X142000000Y-56500000D02*
X144000000Y-56500000D01*
X135500000Y-59000000D02*
X139500000Y-59000000D01*
X139500000Y-59000000D02*
X142000000Y-56500000D01*
X144500000Y-56000000D02*
X148500000Y-56000000D01*
X144000000Y-56500000D02*
X144500000Y-56000000D01*
G04 #@! TA.AperFunction,Conductor*
G36*
X134317941Y-59120185D02*
G01*
X134363696Y-59172989D01*
X134373640Y-59242147D01*
X134344615Y-59305703D01*
X134338583Y-59312181D01*
X134269481Y-59381282D01*
X134269479Y-59381285D01*
X134262110Y-59394049D01*
X134221308Y-59464722D01*
X134219361Y-59468094D01*
X134219359Y-59468096D01*
X134190425Y-59518209D01*
X134190424Y-59518210D01*
X134190423Y-59518215D01*
X134149499Y-59670943D01*
X134149499Y-59670945D01*
X134149499Y-59839046D01*
X134149500Y-59839059D01*
X134149500Y-60294951D01*
X134129815Y-60361990D01*
X134084518Y-60404006D01*
X133926493Y-60489524D01*
X133744359Y-60631285D01*
X133730256Y-60642262D01*
X133729750Y-60642812D01*
X133561833Y-60825217D01*
X133425826Y-61033393D01*
X133325936Y-61261118D01*
X133264892Y-61502175D01*
X133264890Y-61502187D01*
X133244357Y-61749994D01*
X133244357Y-61750005D01*
X133264890Y-61997812D01*
X133264892Y-61997824D01*
X133325936Y-62238881D01*
X133425826Y-62466606D01*
X133561833Y-62674782D01*
X133561836Y-62674785D01*
X133730256Y-62857738D01*
X133926491Y-63010474D01*
X133926494Y-63010476D01*
X133926496Y-63010477D01*
X133992609Y-63046255D01*
X134084517Y-63095993D01*
X134134108Y-63145212D01*
X134149500Y-63205048D01*
X134149500Y-66794951D01*
X134129815Y-66861990D01*
X134084518Y-66904006D01*
X133926493Y-66989524D01*
X133730257Y-67142261D01*
X133561833Y-67325217D01*
X133425826Y-67533393D01*
X133325936Y-67761118D01*
X133264892Y-68002175D01*
X133264890Y-68002187D01*
X133244357Y-68249994D01*
X133244357Y-68250005D01*
X133264890Y-68497812D01*
X133264892Y-68497824D01*
X133325936Y-68738881D01*
X133425826Y-68966606D01*
X133561833Y-69174782D01*
X133594245Y-69209991D01*
X133730256Y-69357738D01*
X133926491Y-69510474D01*
X133926494Y-69510476D01*
X133926496Y-69510477D01*
X133969283Y-69533632D01*
X134073122Y-69589827D01*
X134073531Y-69590048D01*
X134123122Y-69639267D01*
X134138230Y-69707484D01*
X134114060Y-69773040D01*
X134058284Y-69815121D01*
X134054778Y-69816384D01*
X133895194Y-69871170D01*
X133895188Y-69871172D01*
X133676493Y-69989524D01*
X133480257Y-70142261D01*
X133311833Y-70325217D01*
X133175827Y-70533391D01*
X133113282Y-70675979D01*
X133068325Y-70729464D01*
X133001589Y-70750154D01*
X132934261Y-70731479D01*
X132887718Y-70679368D01*
X132886170Y-70675978D01*
X132823731Y-70533630D01*
X132723434Y-70380116D01*
X132023787Y-71079764D01*
X132012518Y-71037708D01*
X131940110Y-70912292D01*
X131837708Y-70809890D01*
X131712292Y-70737482D01*
X131670235Y-70726212D01*
X132370057Y-70026390D01*
X132370056Y-70026389D01*
X132323229Y-69989943D01*
X132104614Y-69871635D01*
X132104603Y-69871630D01*
X131869493Y-69790916D01*
X131624293Y-69750000D01*
X131375707Y-69750000D01*
X131130504Y-69790916D01*
X130969827Y-69846077D01*
X130910801Y-69848740D01*
X130892108Y-69872390D01*
X130879452Y-69880258D01*
X130676761Y-69989949D01*
X130629942Y-70026388D01*
X130629942Y-70026390D01*
X131329765Y-70726212D01*
X131287708Y-70737482D01*
X131162292Y-70809890D01*
X131059890Y-70912292D01*
X130987482Y-71037708D01*
X130976212Y-71079764D01*
X130276564Y-70380116D01*
X130176267Y-70533632D01*
X130076412Y-70761282D01*
X130015387Y-71002261D01*
X130015385Y-71002270D01*
X129994859Y-71249994D01*
X129994859Y-71250005D01*
X130015385Y-71497729D01*
X130015387Y-71497738D01*
X130076412Y-71738717D01*
X130176266Y-71966364D01*
X130276564Y-72119882D01*
X130976212Y-71420234D01*
X130987482Y-71462292D01*
X131059890Y-71587708D01*
X131162292Y-71690110D01*
X131287708Y-71762518D01*
X131329765Y-71773787D01*
X130629942Y-72473609D01*
X130676768Y-72510055D01*
X130676770Y-72510056D01*
X130895385Y-72628364D01*
X130895396Y-72628369D01*
X131130506Y-72709083D01*
X131375707Y-72750000D01*
X131624293Y-72750000D01*
X131869493Y-72709083D01*
X132104603Y-72628369D01*
X132104614Y-72628364D01*
X132323228Y-72510057D01*
X132323231Y-72510055D01*
X132370056Y-72473609D01*
X131670234Y-71773787D01*
X131712292Y-71762518D01*
X131837708Y-71690110D01*
X131940110Y-71587708D01*
X132012518Y-71462292D01*
X132023787Y-71420235D01*
X132723434Y-72119882D01*
X132823732Y-71966367D01*
X132886170Y-71824022D01*
X132931125Y-71770536D01*
X132997861Y-71749845D01*
X133065189Y-71768519D01*
X133111733Y-71820629D01*
X133113282Y-71824020D01*
X133175827Y-71966608D01*
X133311833Y-72174782D01*
X133322945Y-72186853D01*
X133480256Y-72357738D01*
X133676491Y-72510474D01*
X133676493Y-72510475D01*
X133894332Y-72628364D01*
X133895190Y-72628828D01*
X134040596Y-72678746D01*
X134128964Y-72709083D01*
X134130386Y-72709571D01*
X134375665Y-72750500D01*
X134624335Y-72750500D01*
X134869614Y-72709571D01*
X135104810Y-72628828D01*
X135323509Y-72510474D01*
X135519744Y-72357738D01*
X135688164Y-72174785D01*
X135824173Y-71966607D01*
X135924063Y-71738881D01*
X135985108Y-71497821D01*
X135985939Y-71487792D01*
X136005643Y-71250005D01*
X136005643Y-71249994D01*
X135985109Y-71002187D01*
X135985108Y-71002183D01*
X135985108Y-71002179D01*
X135976038Y-70966364D01*
X135923992Y-70760839D01*
X135926616Y-70691018D01*
X135956514Y-70642719D01*
X137159506Y-69439727D01*
X137220825Y-69406245D01*
X137290517Y-69411229D01*
X137323346Y-69429558D01*
X137426768Y-69510055D01*
X137426771Y-69510057D01*
X137645385Y-69628364D01*
X137645396Y-69628369D01*
X137880506Y-69709083D01*
X138125707Y-69750000D01*
X138130483Y-69750000D01*
X138197522Y-69769685D01*
X138243277Y-69822489D01*
X138253221Y-69891647D01*
X138224196Y-69955203D01*
X138189501Y-69983055D01*
X138176761Y-69989949D01*
X138129942Y-70026388D01*
X138129942Y-70026390D01*
X138829765Y-70726212D01*
X138787708Y-70737482D01*
X138662292Y-70809890D01*
X138559890Y-70912292D01*
X138487482Y-71037708D01*
X138476212Y-71079764D01*
X137776564Y-70380116D01*
X137676267Y-70533632D01*
X137576412Y-70761282D01*
X137515387Y-71002261D01*
X137515385Y-71002270D01*
X137494859Y-71249994D01*
X137494859Y-71250005D01*
X137515385Y-71497729D01*
X137515387Y-71497738D01*
X137576412Y-71738717D01*
X137676266Y-71966364D01*
X137776564Y-72119882D01*
X138476212Y-71420234D01*
X138487482Y-71462292D01*
X138559890Y-71587708D01*
X138662292Y-71690110D01*
X138787708Y-71762518D01*
X138829765Y-71773787D01*
X138129942Y-72473609D01*
X138176768Y-72510055D01*
X138176770Y-72510056D01*
X138395385Y-72628364D01*
X138395396Y-72628369D01*
X138630506Y-72709083D01*
X138875707Y-72750000D01*
X139124293Y-72750000D01*
X139369493Y-72709083D01*
X139604603Y-72628369D01*
X139604614Y-72628364D01*
X139823228Y-72510057D01*
X139823231Y-72510055D01*
X139870056Y-72473609D01*
X139170234Y-71773787D01*
X139212292Y-71762518D01*
X139337708Y-71690110D01*
X139440110Y-71587708D01*
X139512518Y-71462292D01*
X139523787Y-71420235D01*
X140223434Y-72119882D01*
X140323732Y-71966367D01*
X140386170Y-71824022D01*
X140431125Y-71770536D01*
X140497861Y-71749845D01*
X140565189Y-71768519D01*
X140611733Y-71820629D01*
X140613282Y-71824020D01*
X140675827Y-71966608D01*
X140811833Y-72174782D01*
X140822945Y-72186853D01*
X140980256Y-72357738D01*
X141176491Y-72510474D01*
X141176493Y-72510475D01*
X141394332Y-72628364D01*
X141395190Y-72628828D01*
X141540596Y-72678746D01*
X141628964Y-72709083D01*
X141630386Y-72709571D01*
X141875665Y-72750500D01*
X142124335Y-72750500D01*
X142369614Y-72709571D01*
X142604810Y-72628828D01*
X142823509Y-72510474D01*
X143019744Y-72357738D01*
X143188164Y-72174785D01*
X143324173Y-71966607D01*
X143424063Y-71738881D01*
X143485108Y-71497821D01*
X143485939Y-71487792D01*
X143505643Y-71250005D01*
X143505643Y-71249994D01*
X143485109Y-71002187D01*
X143485108Y-71002183D01*
X143485108Y-71002179D01*
X143476038Y-70966364D01*
X143423992Y-70760839D01*
X143426616Y-70691018D01*
X143456514Y-70642719D01*
X144858506Y-69240728D01*
X144858511Y-69240724D01*
X144868714Y-69230520D01*
X144868716Y-69230520D01*
X144942042Y-69157194D01*
X145003365Y-69123709D01*
X145023876Y-69122570D01*
X145726212Y-68420233D01*
X145737482Y-68462292D01*
X145809890Y-68587708D01*
X145912292Y-68690110D01*
X146037708Y-68762518D01*
X146079765Y-68773787D01*
X145379942Y-69473609D01*
X145426768Y-69510055D01*
X145426770Y-69510056D01*
X145645385Y-69628364D01*
X145645396Y-69628369D01*
X145806020Y-69683512D01*
X145863035Y-69723898D01*
X145889166Y-69788697D01*
X145876114Y-69857337D01*
X145828026Y-69908025D01*
X145824775Y-69909848D01*
X145676761Y-69989949D01*
X145629942Y-70026388D01*
X145629942Y-70026390D01*
X146329765Y-70726212D01*
X146287708Y-70737482D01*
X146162292Y-70809890D01*
X146059890Y-70912292D01*
X145987482Y-71037708D01*
X145976212Y-71079764D01*
X145276564Y-70380116D01*
X145176267Y-70533632D01*
X145076412Y-70761282D01*
X145015387Y-71002261D01*
X145015385Y-71002270D01*
X144994859Y-71249994D01*
X144994859Y-71250005D01*
X145015385Y-71497729D01*
X145015387Y-71497738D01*
X145076412Y-71738717D01*
X145176266Y-71966364D01*
X145276564Y-72119882D01*
X145976212Y-71420234D01*
X145987482Y-71462292D01*
X146059890Y-71587708D01*
X146162292Y-71690110D01*
X146287708Y-71762518D01*
X146329765Y-71773787D01*
X145629942Y-72473609D01*
X145676768Y-72510055D01*
X145676770Y-72510056D01*
X145895385Y-72628364D01*
X145895396Y-72628369D01*
X146130506Y-72709083D01*
X146375707Y-72750000D01*
X146624293Y-72750000D01*
X146869493Y-72709083D01*
X147104603Y-72628369D01*
X147104614Y-72628364D01*
X147323228Y-72510057D01*
X147323231Y-72510055D01*
X147370056Y-72473609D01*
X146670234Y-71773787D01*
X146712292Y-71762518D01*
X146837708Y-71690110D01*
X146940110Y-71587708D01*
X147012518Y-71462292D01*
X147023787Y-71420235D01*
X147723434Y-72119882D01*
X147823732Y-71966367D01*
X147886170Y-71824022D01*
X147931125Y-71770536D01*
X147997861Y-71749845D01*
X148065189Y-71768519D01*
X148111733Y-71820629D01*
X148113282Y-71824020D01*
X148175827Y-71966608D01*
X148311833Y-72174782D01*
X148322945Y-72186853D01*
X148480256Y-72357738D01*
X148676491Y-72510474D01*
X148676493Y-72510475D01*
X148894332Y-72628364D01*
X148895190Y-72628828D01*
X149040596Y-72678746D01*
X149128964Y-72709083D01*
X149130386Y-72709571D01*
X149375665Y-72750500D01*
X149624335Y-72750500D01*
X149869614Y-72709571D01*
X150104810Y-72628828D01*
X150323509Y-72510474D01*
X150519744Y-72357738D01*
X150688164Y-72174785D01*
X150824173Y-71966607D01*
X150857307Y-71891068D01*
X150902262Y-71837582D01*
X150938769Y-71821102D01*
X150981785Y-71809577D01*
X151031904Y-71780639D01*
X151118716Y-71730520D01*
X151230520Y-71618716D01*
X151230520Y-71618714D01*
X151240728Y-71608507D01*
X151240729Y-71608504D01*
X152510545Y-70338690D01*
X152571867Y-70305206D01*
X152641559Y-70310190D01*
X152697492Y-70352062D01*
X152721909Y-70417526D01*
X152707057Y-70485799D01*
X152702034Y-70494193D01*
X152676267Y-70533631D01*
X152576412Y-70761282D01*
X152515387Y-71002261D01*
X152515385Y-71002270D01*
X152494859Y-71249994D01*
X152494859Y-71250005D01*
X152515385Y-71497729D01*
X152515387Y-71497738D01*
X152576412Y-71738717D01*
X152676266Y-71966364D01*
X152776564Y-72119882D01*
X153476212Y-71420233D01*
X153487482Y-71462292D01*
X153559890Y-71587708D01*
X153662292Y-71690110D01*
X153787708Y-71762518D01*
X153829765Y-71773787D01*
X153129942Y-72473609D01*
X153176768Y-72510055D01*
X153176770Y-72510056D01*
X153395385Y-72628364D01*
X153395396Y-72628369D01*
X153630506Y-72709083D01*
X153875707Y-72750000D01*
X154124293Y-72750000D01*
X154369493Y-72709083D01*
X154604603Y-72628369D01*
X154604614Y-72628364D01*
X154823228Y-72510057D01*
X154823231Y-72510055D01*
X154870056Y-72473609D01*
X154170234Y-71773787D01*
X154212292Y-71762518D01*
X154337708Y-71690110D01*
X154440110Y-71587708D01*
X154512518Y-71462292D01*
X154523787Y-71420235D01*
X155223434Y-72119882D01*
X155262708Y-72115809D01*
X155331420Y-72128472D01*
X155382379Y-72176274D01*
X155399500Y-72239147D01*
X155399500Y-73913330D01*
X155399499Y-73913348D01*
X155399499Y-74079054D01*
X155399498Y-74079054D01*
X155440424Y-74231789D01*
X155440425Y-74231790D01*
X155456787Y-74260129D01*
X155456788Y-74260130D01*
X155519477Y-74368712D01*
X155519481Y-74368717D01*
X155638349Y-74487585D01*
X155638354Y-74487589D01*
X156631284Y-75480520D01*
X156631286Y-75480521D01*
X156631290Y-75480524D01*
X156768209Y-75559573D01*
X156768216Y-75559577D01*
X156920943Y-75600501D01*
X156920945Y-75600501D01*
X157086654Y-75600501D01*
X157086670Y-75600500D01*
X165413331Y-75600500D01*
X165413347Y-75600501D01*
X165420943Y-75600501D01*
X165579054Y-75600501D01*
X165579057Y-75600501D01*
X165731785Y-75559577D01*
X165781904Y-75530639D01*
X165868716Y-75480520D01*
X165980520Y-75368716D01*
X165980520Y-75368714D01*
X165990728Y-75358507D01*
X165990730Y-75358504D01*
X166646452Y-74702781D01*
X166707773Y-74669298D01*
X166774392Y-74673182D01*
X166846350Y-74697886D01*
X166880385Y-74709571D01*
X167125665Y-74750500D01*
X167374335Y-74750500D01*
X167619614Y-74709571D01*
X167854810Y-74628828D01*
X168073509Y-74510474D01*
X168269744Y-74357738D01*
X168438164Y-74174785D01*
X168574173Y-73966607D01*
X168674063Y-73738881D01*
X168735108Y-73497821D01*
X168755643Y-73250000D01*
X168735108Y-73002179D01*
X168674063Y-72761119D01*
X168660788Y-72730856D01*
X168574173Y-72533393D01*
X168438166Y-72325217D01*
X168416557Y-72301744D01*
X168269744Y-72142262D01*
X168073509Y-71989526D01*
X168073507Y-71989525D01*
X168073506Y-71989524D01*
X167854811Y-71871172D01*
X167854802Y-71871169D01*
X167842705Y-71867016D01*
X167785690Y-71826631D01*
X167759559Y-71761831D01*
X167772610Y-71693191D01*
X167820699Y-71642504D01*
X167842707Y-71632453D01*
X167854608Y-71628367D01*
X167854614Y-71628364D01*
X168073228Y-71510057D01*
X168073231Y-71510055D01*
X168120056Y-71473609D01*
X167420234Y-70773787D01*
X167462292Y-70762518D01*
X167587708Y-70690110D01*
X167690110Y-70587708D01*
X167762518Y-70462292D01*
X167773787Y-70420235D01*
X168473434Y-71119882D01*
X168573731Y-70966369D01*
X168673587Y-70738717D01*
X168734612Y-70497738D01*
X168734614Y-70497729D01*
X168755141Y-70250005D01*
X168755141Y-70249994D01*
X168734614Y-70002270D01*
X168734612Y-70002261D01*
X168673587Y-69761282D01*
X168573731Y-69533630D01*
X168473434Y-69380116D01*
X167773787Y-70079764D01*
X167762518Y-70037708D01*
X167690110Y-69912292D01*
X167587708Y-69809890D01*
X167462292Y-69737482D01*
X167420235Y-69726212D01*
X168120057Y-69026390D01*
X168120056Y-69026389D01*
X168073229Y-68989943D01*
X167854614Y-68871635D01*
X167854603Y-68871630D01*
X167619493Y-68790916D01*
X167374293Y-68750000D01*
X167125707Y-68750000D01*
X166880506Y-68790916D01*
X166645396Y-68871630D01*
X166645390Y-68871632D01*
X166426761Y-68989949D01*
X166379942Y-69026388D01*
X166379942Y-69026390D01*
X167079765Y-69726212D01*
X167037708Y-69737482D01*
X166912292Y-69809890D01*
X166809890Y-69912292D01*
X166737482Y-70037708D01*
X166726212Y-70079764D01*
X166026564Y-69380116D01*
X165926267Y-69533632D01*
X165863829Y-69675978D01*
X165818873Y-69729464D01*
X165752137Y-69750154D01*
X165684809Y-69731479D01*
X165638266Y-69679369D01*
X165636717Y-69675978D01*
X165574173Y-69533393D01*
X165438165Y-69325216D01*
X165408329Y-69292806D01*
X165269744Y-69142262D01*
X165073509Y-68989526D01*
X165073507Y-68989525D01*
X165073506Y-68989524D01*
X164854811Y-68871172D01*
X164854802Y-68871169D01*
X164619616Y-68790429D01*
X164374335Y-68749500D01*
X164125665Y-68749500D01*
X163880383Y-68790429D01*
X163645197Y-68871169D01*
X163645188Y-68871172D01*
X163426493Y-68989524D01*
X163255556Y-69122570D01*
X163230256Y-69142262D01*
X163196423Y-69179014D01*
X163061835Y-69325216D01*
X162925826Y-69533393D01*
X162825936Y-69761118D01*
X162764892Y-70002175D01*
X162764890Y-70002187D01*
X162744357Y-70249994D01*
X162744357Y-70250005D01*
X162764890Y-70497812D01*
X162764892Y-70497824D01*
X162825936Y-70738881D01*
X162925826Y-70966606D01*
X163061833Y-71174782D01*
X163061836Y-71174785D01*
X163230256Y-71357738D01*
X163426491Y-71510474D01*
X163426493Y-71510475D01*
X163644332Y-71628364D01*
X163645190Y-71628828D01*
X163655682Y-71632430D01*
X163656524Y-71632719D01*
X163713539Y-71673106D01*
X163739668Y-71737906D01*
X163726615Y-71806546D01*
X163678526Y-71857233D01*
X163656524Y-71867281D01*
X163645191Y-71871171D01*
X163645188Y-71871172D01*
X163426493Y-71989524D01*
X163230257Y-72142261D01*
X163061833Y-72325217D01*
X162925826Y-72533393D01*
X162825936Y-72761118D01*
X162764892Y-73002175D01*
X162764890Y-73002187D01*
X162744357Y-73249994D01*
X162744357Y-73250005D01*
X162764890Y-73497812D01*
X162764892Y-73497824D01*
X162825936Y-73738881D01*
X162925826Y-73966606D01*
X163061836Y-74174785D01*
X163077239Y-74191518D01*
X163108161Y-74254172D01*
X163100301Y-74323598D01*
X163056153Y-74377754D01*
X162989736Y-74399444D01*
X162986009Y-74399500D01*
X159013991Y-74399500D01*
X158946952Y-74379815D01*
X158901197Y-74327011D01*
X158891253Y-74257853D01*
X158920278Y-74194297D01*
X158922761Y-74191518D01*
X158929617Y-74184068D01*
X158938164Y-74174785D01*
X159074173Y-73966607D01*
X159174063Y-73738881D01*
X159235108Y-73497821D01*
X159255643Y-73250000D01*
X159235108Y-73002179D01*
X159174063Y-72761119D01*
X159160788Y-72730856D01*
X159074173Y-72533393D01*
X158938166Y-72325217D01*
X158916557Y-72301744D01*
X158769744Y-72142262D01*
X158573509Y-71989526D01*
X158573507Y-71989525D01*
X158573506Y-71989524D01*
X158354811Y-71871172D01*
X158354802Y-71871169D01*
X158343477Y-71867281D01*
X158286462Y-71826896D01*
X158260331Y-71762096D01*
X158273382Y-71693456D01*
X158321471Y-71642768D01*
X158343477Y-71632719D01*
X158347235Y-71631428D01*
X158354810Y-71628828D01*
X158573509Y-71510474D01*
X158769744Y-71357738D01*
X158938164Y-71174785D01*
X159074173Y-70966607D01*
X159174063Y-70738881D01*
X159235108Y-70497821D01*
X159241616Y-70419281D01*
X159255643Y-70250005D01*
X159255643Y-70249994D01*
X159235109Y-70002187D01*
X159235107Y-70002175D01*
X159198402Y-69857233D01*
X159174063Y-69761119D01*
X159174062Y-69761118D01*
X159173992Y-69760839D01*
X159176617Y-69691019D01*
X159206523Y-69642711D01*
X159212424Y-69636811D01*
X159273750Y-69603332D01*
X159300098Y-69600500D01*
X160413331Y-69600500D01*
X160413347Y-69600501D01*
X160420943Y-69600501D01*
X160579054Y-69600501D01*
X160579057Y-69600501D01*
X160731785Y-69559577D01*
X160801233Y-69519481D01*
X160868716Y-69480520D01*
X160980520Y-69368716D01*
X160980520Y-69368714D01*
X160990724Y-69358511D01*
X160990727Y-69358506D01*
X161980520Y-68368716D01*
X162059577Y-68231784D01*
X162100501Y-68079057D01*
X162100501Y-67920942D01*
X162100501Y-67913347D01*
X162100500Y-67913329D01*
X162100500Y-65749994D01*
X162744859Y-65749994D01*
X162744859Y-65750005D01*
X162765385Y-65997729D01*
X162765387Y-65997738D01*
X162826412Y-66238717D01*
X162926266Y-66466364D01*
X163026564Y-66619882D01*
X163726212Y-65920234D01*
X163737482Y-65962292D01*
X163809890Y-66087708D01*
X163912292Y-66190110D01*
X164037708Y-66262518D01*
X164079765Y-66273787D01*
X163379942Y-66973609D01*
X163426768Y-67010055D01*
X163426770Y-67010056D01*
X163645385Y-67128364D01*
X163645396Y-67128369D01*
X163880506Y-67209083D01*
X164125707Y-67250000D01*
X164374293Y-67250000D01*
X164619493Y-67209083D01*
X164854603Y-67128369D01*
X164854614Y-67128364D01*
X165073228Y-67010057D01*
X165073231Y-67010055D01*
X165120056Y-66973609D01*
X164420234Y-66273787D01*
X164462292Y-66262518D01*
X164587708Y-66190110D01*
X164690110Y-66087708D01*
X164762518Y-65962292D01*
X164773787Y-65920235D01*
X165473434Y-66619882D01*
X165573732Y-66466367D01*
X165636170Y-66324022D01*
X165681125Y-66270536D01*
X165747861Y-66249845D01*
X165815189Y-66268519D01*
X165861733Y-66320629D01*
X165863282Y-66324020D01*
X165925827Y-66466608D01*
X166061833Y-66674782D01*
X166061836Y-66674785D01*
X166230256Y-66857738D01*
X166426491Y-67010474D01*
X166455899Y-67026389D01*
X166644332Y-67128364D01*
X166645190Y-67128828D01*
X166848443Y-67198605D01*
X166878964Y-67209083D01*
X166880386Y-67209571D01*
X167125665Y-67250500D01*
X167374335Y-67250500D01*
X167619614Y-67209571D01*
X167854810Y-67128828D01*
X168073509Y-67010474D01*
X168269744Y-66857738D01*
X168438164Y-66674785D01*
X168574173Y-66466607D01*
X168674063Y-66238881D01*
X168735108Y-65997821D01*
X168737082Y-65974000D01*
X168755643Y-65750005D01*
X168755643Y-65749994D01*
X168735109Y-65502187D01*
X168735107Y-65502175D01*
X168674063Y-65261118D01*
X168574173Y-65033393D01*
X168438166Y-64825217D01*
X168367759Y-64748735D01*
X168269744Y-64642262D01*
X168073509Y-64489526D01*
X168073507Y-64489525D01*
X168073506Y-64489524D01*
X167854811Y-64371172D01*
X167854802Y-64371169D01*
X167619616Y-64290429D01*
X167374335Y-64249500D01*
X167125665Y-64249500D01*
X166880383Y-64290429D01*
X166645197Y-64371169D01*
X166645188Y-64371172D01*
X166426493Y-64489524D01*
X166230257Y-64642261D01*
X166061833Y-64825217D01*
X165925827Y-65033391D01*
X165863282Y-65175979D01*
X165818325Y-65229464D01*
X165751589Y-65250154D01*
X165684261Y-65231479D01*
X165637718Y-65179368D01*
X165636170Y-65175978D01*
X165573731Y-65033630D01*
X165473434Y-64880116D01*
X164773787Y-65579764D01*
X164762518Y-65537708D01*
X164690110Y-65412292D01*
X164587708Y-65309890D01*
X164462292Y-65237482D01*
X164420235Y-65226212D01*
X165120057Y-64526390D01*
X165120056Y-64526389D01*
X165073229Y-64489943D01*
X164854614Y-64371635D01*
X164854603Y-64371630D01*
X164619493Y-64290916D01*
X164374293Y-64250000D01*
X164125707Y-64250000D01*
X163880506Y-64290916D01*
X163645396Y-64371630D01*
X163645390Y-64371632D01*
X163426761Y-64489949D01*
X163379942Y-64526388D01*
X163379942Y-64526390D01*
X164079765Y-65226212D01*
X164037708Y-65237482D01*
X163912292Y-65309890D01*
X163809890Y-65412292D01*
X163737482Y-65537708D01*
X163726212Y-65579764D01*
X163026564Y-64880116D01*
X162926267Y-65033632D01*
X162826412Y-65261282D01*
X162765387Y-65502261D01*
X162765385Y-65502270D01*
X162744859Y-65749994D01*
X162100500Y-65749994D01*
X162100500Y-64589059D01*
X162100501Y-64589046D01*
X162100501Y-64420945D01*
X162100501Y-64420943D01*
X162059577Y-64268215D01*
X162030639Y-64218095D01*
X161980520Y-64131284D01*
X161868716Y-64019480D01*
X161761216Y-63911980D01*
X161761214Y-63911979D01*
X161761209Y-63911975D01*
X161643629Y-63844091D01*
X161643629Y-63844090D01*
X161643624Y-63844089D01*
X161636875Y-63840192D01*
X161624286Y-63832923D01*
X161586103Y-63822692D01*
X161471557Y-63791999D01*
X161313443Y-63791999D01*
X161305847Y-63791999D01*
X161305831Y-63792000D01*
X160407597Y-63792000D01*
X160340558Y-63772315D01*
X160319916Y-63755681D01*
X160245743Y-63681508D01*
X160212258Y-63620185D01*
X160217242Y-63550493D01*
X160259114Y-63494560D01*
X160313014Y-63471518D01*
X160384614Y-63459571D01*
X160619810Y-63378828D01*
X160838509Y-63260474D01*
X161034744Y-63107738D01*
X161193771Y-62934988D01*
X161253657Y-62898999D01*
X161323495Y-62901099D01*
X161376228Y-62934988D01*
X161535256Y-63107738D01*
X161731491Y-63260474D01*
X161950190Y-63378828D01*
X162185386Y-63459571D01*
X162430665Y-63500500D01*
X162679335Y-63500500D01*
X162924614Y-63459571D01*
X163159810Y-63378828D01*
X163378509Y-63260474D01*
X163574744Y-63107738D01*
X163733771Y-62934988D01*
X163793657Y-62898999D01*
X163863495Y-62901099D01*
X163916228Y-62934988D01*
X164075256Y-63107738D01*
X164271491Y-63260474D01*
X164490190Y-63378828D01*
X164725386Y-63459571D01*
X164970665Y-63500500D01*
X165219335Y-63500500D01*
X165464614Y-63459571D01*
X165699810Y-63378828D01*
X165918509Y-63260474D01*
X166114744Y-63107738D01*
X166273771Y-62934988D01*
X166333657Y-62898999D01*
X166403495Y-62901099D01*
X166456228Y-62934988D01*
X166615256Y-63107738D01*
X166811491Y-63260474D01*
X167030190Y-63378828D01*
X167265386Y-63459571D01*
X167510665Y-63500500D01*
X167759335Y-63500500D01*
X168004614Y-63459571D01*
X168239810Y-63378828D01*
X168458509Y-63260474D01*
X168542201Y-63195333D01*
X168607192Y-63169692D01*
X168675732Y-63183258D01*
X168726057Y-63231726D01*
X168727290Y-63234361D01*
X168727396Y-63234304D01*
X168731649Y-63242093D01*
X168817809Y-63357187D01*
X168817812Y-63357190D01*
X168932906Y-63443350D01*
X168932913Y-63443354D01*
X169067620Y-63493596D01*
X169067627Y-63493598D01*
X169127155Y-63499999D01*
X169127172Y-63500000D01*
X169925000Y-63500000D01*
X169925000Y-62600001D01*
X169985402Y-62625021D01*
X170110981Y-62650000D01*
X170239019Y-62650000D01*
X170364598Y-62625021D01*
X170425000Y-62600001D01*
X170425000Y-63500000D01*
X171222828Y-63500000D01*
X171222844Y-63499999D01*
X171282372Y-63493598D01*
X171282379Y-63493596D01*
X171417086Y-63443354D01*
X171417093Y-63443350D01*
X171532187Y-63357190D01*
X171532190Y-63357187D01*
X171618350Y-63242093D01*
X171622604Y-63234304D01*
X171625816Y-63236057D01*
X171657183Y-63194029D01*
X171722612Y-63169517D01*
X171790906Y-63184269D01*
X171807795Y-63195330D01*
X171891491Y-63260474D01*
X172110190Y-63378828D01*
X172345386Y-63459571D01*
X172590665Y-63500500D01*
X172839335Y-63500500D01*
X173084614Y-63459571D01*
X173319810Y-63378828D01*
X173538509Y-63260474D01*
X173734744Y-63107738D01*
X173903164Y-62924785D01*
X173921691Y-62896427D01*
X173974836Y-62851070D01*
X174044067Y-62841646D01*
X174107404Y-62871147D01*
X174144736Y-62930207D01*
X174149500Y-62964248D01*
X174149500Y-64149009D01*
X174129815Y-64216048D01*
X174077011Y-64261803D01*
X174007853Y-64271747D01*
X174005091Y-64271318D01*
X173874335Y-64249500D01*
X173625665Y-64249500D01*
X173380383Y-64290429D01*
X173145197Y-64371169D01*
X173145188Y-64371172D01*
X172926493Y-64489524D01*
X172730257Y-64642261D01*
X172561833Y-64825217D01*
X172425826Y-65033393D01*
X172325936Y-65261118D01*
X172264892Y-65502175D01*
X172264890Y-65502187D01*
X172244357Y-65749994D01*
X172244357Y-65750005D01*
X172264890Y-65997812D01*
X172264892Y-65997824D01*
X172325936Y-66238881D01*
X172425826Y-66466606D01*
X172561833Y-66674782D01*
X172561836Y-66674785D01*
X172730256Y-66857738D01*
X172926491Y-67010474D01*
X172955899Y-67026389D01*
X173144332Y-67128364D01*
X173145190Y-67128828D01*
X173348443Y-67198605D01*
X173378964Y-67209083D01*
X173380386Y-67209571D01*
X173625665Y-67250500D01*
X173874335Y-67250500D01*
X174119614Y-67209571D01*
X174354810Y-67128828D01*
X174573509Y-67010474D01*
X174769744Y-66857738D01*
X174784270Y-66841958D01*
X174844155Y-66805967D01*
X174913993Y-66808066D01*
X174971610Y-66847589D01*
X174998713Y-66911988D01*
X174999500Y-66925940D01*
X174999500Y-69302690D01*
X174979815Y-69369729D01*
X174963181Y-69390371D01*
X174273787Y-70079764D01*
X174262518Y-70037708D01*
X174190110Y-69912292D01*
X174087708Y-69809890D01*
X173962292Y-69737482D01*
X173920235Y-69726212D01*
X174620057Y-69026390D01*
X174620056Y-69026389D01*
X174573229Y-68989943D01*
X174354614Y-68871635D01*
X174354603Y-68871630D01*
X174119493Y-68790916D01*
X173874293Y-68750000D01*
X173625707Y-68750000D01*
X173380506Y-68790916D01*
X173145396Y-68871630D01*
X173145390Y-68871632D01*
X172926761Y-68989949D01*
X172879942Y-69026388D01*
X172879942Y-69026390D01*
X173579765Y-69726212D01*
X173537708Y-69737482D01*
X173412292Y-69809890D01*
X173309890Y-69912292D01*
X173237482Y-70037708D01*
X173226212Y-70079764D01*
X172526564Y-69380116D01*
X172426267Y-69533632D01*
X172326412Y-69761282D01*
X172265387Y-70002261D01*
X172265385Y-70002270D01*
X172244859Y-70249994D01*
X172244859Y-70250005D01*
X172265385Y-70497729D01*
X172265387Y-70497738D01*
X172326412Y-70738717D01*
X172426266Y-70966364D01*
X172526564Y-71119882D01*
X173226212Y-70420234D01*
X173237482Y-70462292D01*
X173309890Y-70587708D01*
X173412292Y-70690110D01*
X173537708Y-70762518D01*
X173579765Y-70773787D01*
X172879942Y-71473609D01*
X172926768Y-71510055D01*
X172926770Y-71510056D01*
X173145385Y-71628364D01*
X173145396Y-71628369D01*
X173157294Y-71632454D01*
X173214309Y-71672839D01*
X173240440Y-71737639D01*
X173227389Y-71806279D01*
X173179300Y-71856967D01*
X173157296Y-71867016D01*
X173145191Y-71871171D01*
X173145188Y-71871172D01*
X172926493Y-71989524D01*
X172730257Y-72142261D01*
X172561833Y-72325217D01*
X172425826Y-72533393D01*
X172325936Y-72761118D01*
X172264892Y-73002175D01*
X172264890Y-73002187D01*
X172244357Y-73249994D01*
X172244357Y-73250005D01*
X172264890Y-73497812D01*
X172264892Y-73497824D01*
X172325936Y-73738881D01*
X172425826Y-73966606D01*
X172561833Y-74174782D01*
X172561836Y-74174785D01*
X172730256Y-74357738D01*
X172926491Y-74510474D01*
X173145190Y-74628828D01*
X173380386Y-74709571D01*
X173625665Y-74750500D01*
X173874335Y-74750500D01*
X174119614Y-74709571D01*
X174354810Y-74628828D01*
X174573509Y-74510474D01*
X174769744Y-74357738D01*
X174784270Y-74341958D01*
X174844155Y-74305967D01*
X174913993Y-74308066D01*
X174971610Y-74347589D01*
X174998713Y-74411988D01*
X174999500Y-74425940D01*
X174999500Y-76802690D01*
X174979815Y-76869729D01*
X174963181Y-76890371D01*
X174273787Y-77579765D01*
X174262518Y-77537708D01*
X174190110Y-77412292D01*
X174087708Y-77309890D01*
X173962292Y-77237482D01*
X173920235Y-77226212D01*
X174620057Y-76526390D01*
X174620056Y-76526389D01*
X174573229Y-76489943D01*
X174354614Y-76371635D01*
X174354603Y-76371630D01*
X174119493Y-76290916D01*
X173874293Y-76250000D01*
X173625707Y-76250000D01*
X173380506Y-76290916D01*
X173145396Y-76371630D01*
X173145390Y-76371632D01*
X172926761Y-76489949D01*
X172879942Y-76526388D01*
X172879942Y-76526390D01*
X173579765Y-77226212D01*
X173537708Y-77237482D01*
X173412292Y-77309890D01*
X173309890Y-77412292D01*
X173237482Y-77537708D01*
X173226212Y-77579764D01*
X172526564Y-76880116D01*
X172426267Y-77033632D01*
X172326412Y-77261282D01*
X172265387Y-77502261D01*
X172265385Y-77502270D01*
X172244859Y-77749994D01*
X172244859Y-77750005D01*
X172265385Y-77997729D01*
X172265387Y-77997738D01*
X172326412Y-78238717D01*
X172426266Y-78466364D01*
X172526564Y-78619882D01*
X173226212Y-77920234D01*
X173237482Y-77962292D01*
X173309890Y-78087708D01*
X173412292Y-78190110D01*
X173537708Y-78262518D01*
X173579765Y-78273787D01*
X172890371Y-78963181D01*
X172829048Y-78996666D01*
X172802690Y-78999500D01*
X168197309Y-78999500D01*
X168130270Y-78979815D01*
X168109628Y-78963181D01*
X167420234Y-78273787D01*
X167462292Y-78262518D01*
X167587708Y-78190110D01*
X167690110Y-78087708D01*
X167762518Y-77962292D01*
X167773787Y-77920235D01*
X168473434Y-78619882D01*
X168573731Y-78466369D01*
X168673587Y-78238717D01*
X168734612Y-77997738D01*
X168734614Y-77997729D01*
X168755141Y-77750005D01*
X168755141Y-77749994D01*
X168734614Y-77502270D01*
X168734612Y-77502261D01*
X168673587Y-77261282D01*
X168573731Y-77033630D01*
X168473434Y-76880116D01*
X167773787Y-77579764D01*
X167762518Y-77537708D01*
X167690110Y-77412292D01*
X167587708Y-77309890D01*
X167462292Y-77237482D01*
X167420235Y-77226212D01*
X168120057Y-76526390D01*
X168120056Y-76526389D01*
X168073229Y-76489943D01*
X167854614Y-76371635D01*
X167854603Y-76371630D01*
X167619493Y-76290916D01*
X167374293Y-76250000D01*
X167125707Y-76250000D01*
X166880506Y-76290916D01*
X166645396Y-76371630D01*
X166645390Y-76371632D01*
X166426761Y-76489949D01*
X166379942Y-76526388D01*
X166379942Y-76526390D01*
X167079765Y-77226212D01*
X167037708Y-77237482D01*
X166912292Y-77309890D01*
X166809890Y-77412292D01*
X166737482Y-77537708D01*
X166726212Y-77579764D01*
X166026564Y-76880116D01*
X165926267Y-77033632D01*
X165863556Y-77176601D01*
X165818600Y-77230087D01*
X165751864Y-77250777D01*
X165684536Y-77232102D01*
X165637993Y-77179992D01*
X165636444Y-77176601D01*
X165573731Y-77033630D01*
X165473434Y-76880116D01*
X164773787Y-77579764D01*
X164762518Y-77537708D01*
X164690110Y-77412292D01*
X164587708Y-77309890D01*
X164462292Y-77237482D01*
X164420235Y-77226212D01*
X165120057Y-76526390D01*
X165120056Y-76526389D01*
X165073229Y-76489943D01*
X164854614Y-76371635D01*
X164854603Y-76371630D01*
X164619493Y-76290916D01*
X164374293Y-76250000D01*
X164125707Y-76250000D01*
X163880506Y-76290916D01*
X163645396Y-76371630D01*
X163645390Y-76371632D01*
X163426761Y-76489949D01*
X163379942Y-76526388D01*
X163379942Y-76526390D01*
X164079765Y-77226212D01*
X164037708Y-77237482D01*
X163912292Y-77309890D01*
X163809890Y-77412292D01*
X163737482Y-77537708D01*
X163726212Y-77579764D01*
X163026564Y-76880116D01*
X162926267Y-77033632D01*
X162826412Y-77261282D01*
X162765387Y-77502261D01*
X162765385Y-77502270D01*
X162744859Y-77749994D01*
X162744859Y-77750005D01*
X162765385Y-77997729D01*
X162765387Y-77997738D01*
X162826412Y-78238717D01*
X162926266Y-78466364D01*
X163026564Y-78619882D01*
X163726212Y-77920234D01*
X163737482Y-77962292D01*
X163809890Y-78087708D01*
X163912292Y-78190110D01*
X164037708Y-78262518D01*
X164079765Y-78273787D01*
X163390371Y-78963181D01*
X163329048Y-78996666D01*
X163302690Y-78999500D01*
X158697309Y-78999500D01*
X158630270Y-78979815D01*
X158609628Y-78963181D01*
X157920234Y-78273787D01*
X157962292Y-78262518D01*
X158087708Y-78190110D01*
X158190110Y-78087708D01*
X158262518Y-77962292D01*
X158273787Y-77920235D01*
X158973434Y-78619882D01*
X159073731Y-78466369D01*
X159173587Y-78238717D01*
X159234612Y-77997738D01*
X159234614Y-77997729D01*
X159255141Y-77750005D01*
X159255141Y-77749994D01*
X159234614Y-77502270D01*
X159234612Y-77502261D01*
X159173587Y-77261282D01*
X159073731Y-77033630D01*
X158973434Y-76880116D01*
X158273787Y-77579764D01*
X158262518Y-77537708D01*
X158190110Y-77412292D01*
X158087708Y-77309890D01*
X157962292Y-77237482D01*
X157920235Y-77226212D01*
X158620057Y-76526390D01*
X158620056Y-76526389D01*
X158573229Y-76489943D01*
X158354614Y-76371635D01*
X158354603Y-76371630D01*
X158119493Y-76290916D01*
X157874293Y-76250000D01*
X157625707Y-76250000D01*
X157380506Y-76290916D01*
X157145396Y-76371630D01*
X157145390Y-76371632D01*
X156926761Y-76489949D01*
X156879942Y-76526388D01*
X156879942Y-76526390D01*
X157579765Y-77226212D01*
X157537708Y-77237482D01*
X157412292Y-77309890D01*
X157309890Y-77412292D01*
X157237482Y-77537708D01*
X157226212Y-77579764D01*
X156526564Y-76880116D01*
X156426267Y-77033632D01*
X156326412Y-77261282D01*
X156265387Y-77502261D01*
X156265385Y-77502270D01*
X156244859Y-77749994D01*
X156244859Y-77750005D01*
X156265385Y-77997729D01*
X156265387Y-77997738D01*
X156326412Y-78238717D01*
X156426266Y-78466364D01*
X156526564Y-78619882D01*
X157226212Y-77920234D01*
X157237482Y-77962292D01*
X157309890Y-78087708D01*
X157412292Y-78190110D01*
X157537708Y-78262518D01*
X157579765Y-78273787D01*
X156890371Y-78963181D01*
X156829048Y-78996666D01*
X156802690Y-78999500D01*
X154947309Y-78999500D01*
X154880270Y-78979815D01*
X154859628Y-78963181D01*
X154170234Y-78273787D01*
X154212292Y-78262518D01*
X154337708Y-78190110D01*
X154440110Y-78087708D01*
X154512518Y-77962292D01*
X154523787Y-77920235D01*
X155223434Y-78619882D01*
X155323731Y-78466369D01*
X155423587Y-78238717D01*
X155484612Y-77997738D01*
X155484614Y-77997729D01*
X155505141Y-77750005D01*
X155505141Y-77749994D01*
X155484614Y-77502270D01*
X155484612Y-77502261D01*
X155423587Y-77261282D01*
X155323731Y-77033630D01*
X155223434Y-76880116D01*
X154523787Y-77579764D01*
X154512518Y-77537708D01*
X154440110Y-77412292D01*
X154337708Y-77309890D01*
X154212292Y-77237482D01*
X154170235Y-77226212D01*
X154870057Y-76526390D01*
X154870056Y-76526389D01*
X154823229Y-76489943D01*
X154604614Y-76371635D01*
X154604603Y-76371630D01*
X154369493Y-76290916D01*
X154124293Y-76250000D01*
X153875707Y-76250000D01*
X153630506Y-76290916D01*
X153395396Y-76371630D01*
X153395390Y-76371632D01*
X153176761Y-76489949D01*
X153129942Y-76526388D01*
X153129942Y-76526390D01*
X153829765Y-77226212D01*
X153787708Y-77237482D01*
X153662292Y-77309890D01*
X153559890Y-77412292D01*
X153487482Y-77537708D01*
X153476212Y-77579764D01*
X152776564Y-76880116D01*
X152676267Y-77033632D01*
X152576412Y-77261282D01*
X152515387Y-77502261D01*
X152515385Y-77502270D01*
X152494859Y-77749994D01*
X152494859Y-77750005D01*
X152515385Y-77997729D01*
X152515387Y-77997738D01*
X152576412Y-78238717D01*
X152676266Y-78466364D01*
X152776564Y-78619882D01*
X153476212Y-77920234D01*
X153487482Y-77962292D01*
X153559890Y-78087708D01*
X153662292Y-78190110D01*
X153787708Y-78262518D01*
X153829765Y-78273787D01*
X153140371Y-78963181D01*
X153079048Y-78996666D01*
X153052690Y-78999500D01*
X150671934Y-78999500D01*
X150604895Y-78979815D01*
X150559140Y-78927011D01*
X150549196Y-78857853D01*
X150578221Y-78794297D01*
X150580681Y-78791542D01*
X150688164Y-78674785D01*
X150824173Y-78466607D01*
X150924063Y-78238881D01*
X150985108Y-77997821D01*
X151005643Y-77750000D01*
X150985108Y-77502179D01*
X150985107Y-77502175D01*
X150924063Y-77261118D01*
X150824173Y-77033393D01*
X150688166Y-76825217D01*
X150666557Y-76801744D01*
X150519744Y-76642262D01*
X150323509Y-76489526D01*
X150323507Y-76489525D01*
X150323506Y-76489524D01*
X150104811Y-76371172D01*
X150104802Y-76371169D01*
X149869616Y-76290429D01*
X149624335Y-76249500D01*
X149375665Y-76249500D01*
X149130383Y-76290429D01*
X148895197Y-76371169D01*
X148895188Y-76371172D01*
X148676493Y-76489524D01*
X148480257Y-76642261D01*
X148311833Y-76825217D01*
X148175827Y-77033391D01*
X148113282Y-77175979D01*
X148068325Y-77229464D01*
X148001589Y-77250154D01*
X147934261Y-77231479D01*
X147887718Y-77179368D01*
X147886170Y-77175978D01*
X147823731Y-77033630D01*
X147723434Y-76880116D01*
X147023787Y-77579764D01*
X147012518Y-77537708D01*
X146940110Y-77412292D01*
X146837708Y-77309890D01*
X146712292Y-77237482D01*
X146670235Y-77226212D01*
X147370057Y-76526390D01*
X147370056Y-76526389D01*
X147323229Y-76489943D01*
X147104614Y-76371635D01*
X147104603Y-76371630D01*
X146869493Y-76290916D01*
X146624293Y-76250000D01*
X146375707Y-76250000D01*
X146130506Y-76290916D01*
X145895396Y-76371630D01*
X145895390Y-76371632D01*
X145676761Y-76489949D01*
X145629942Y-76526388D01*
X145629942Y-76526390D01*
X146329765Y-77226212D01*
X146287708Y-77237482D01*
X146162292Y-77309890D01*
X146059890Y-77412292D01*
X145987482Y-77537708D01*
X145976212Y-77579764D01*
X145276564Y-76880116D01*
X145176267Y-77033632D01*
X145076412Y-77261282D01*
X145015387Y-77502261D01*
X145015385Y-77502270D01*
X144994859Y-77749994D01*
X144994859Y-77750005D01*
X145015385Y-77997729D01*
X145015387Y-77997738D01*
X145076412Y-78238717D01*
X145176266Y-78466364D01*
X145276564Y-78619882D01*
X145976212Y-77920234D01*
X145987482Y-77962292D01*
X146059890Y-78087708D01*
X146162292Y-78190110D01*
X146287708Y-78262518D01*
X146329765Y-78273787D01*
X145640371Y-78963181D01*
X145579048Y-78996666D01*
X145552690Y-78999500D01*
X143171934Y-78999500D01*
X143104895Y-78979815D01*
X143059140Y-78927011D01*
X143049196Y-78857853D01*
X143078221Y-78794297D01*
X143080681Y-78791542D01*
X143188164Y-78674785D01*
X143324173Y-78466607D01*
X143424063Y-78238881D01*
X143485108Y-77997821D01*
X143505643Y-77750000D01*
X143485108Y-77502179D01*
X143485107Y-77502175D01*
X143424063Y-77261118D01*
X143324173Y-77033393D01*
X143188166Y-76825217D01*
X143166557Y-76801744D01*
X143019744Y-76642262D01*
X142823509Y-76489526D01*
X142823507Y-76489525D01*
X142823506Y-76489524D01*
X142604811Y-76371172D01*
X142604802Y-76371169D01*
X142369616Y-76290429D01*
X142124335Y-76249500D01*
X141875665Y-76249500D01*
X141630383Y-76290429D01*
X141395197Y-76371169D01*
X141395188Y-76371172D01*
X141176493Y-76489524D01*
X140980257Y-76642261D01*
X140811833Y-76825217D01*
X140675827Y-77033391D01*
X140613282Y-77175979D01*
X140568325Y-77229464D01*
X140501589Y-77250154D01*
X140434261Y-77231479D01*
X140387718Y-77179368D01*
X140386170Y-77175978D01*
X140323731Y-77033630D01*
X140223434Y-76880116D01*
X139523787Y-77579764D01*
X139512518Y-77537708D01*
X139440110Y-77412292D01*
X139337708Y-77309890D01*
X139212292Y-77237482D01*
X139170235Y-77226212D01*
X139870057Y-76526390D01*
X139870056Y-76526389D01*
X139823229Y-76489943D01*
X139604614Y-76371635D01*
X139604603Y-76371630D01*
X139369493Y-76290916D01*
X139124293Y-76250000D01*
X138875707Y-76250000D01*
X138630506Y-76290916D01*
X138395396Y-76371630D01*
X138395390Y-76371632D01*
X138176761Y-76489949D01*
X138129942Y-76526388D01*
X138129942Y-76526390D01*
X138829765Y-77226212D01*
X138787708Y-77237482D01*
X138662292Y-77309890D01*
X138559890Y-77412292D01*
X138487482Y-77537708D01*
X138476212Y-77579764D01*
X137776564Y-76880116D01*
X137676267Y-77033632D01*
X137576412Y-77261282D01*
X137515387Y-77502261D01*
X137515385Y-77502270D01*
X137494859Y-77749994D01*
X137494859Y-77750005D01*
X137515385Y-77997729D01*
X137515387Y-77997738D01*
X137576412Y-78238717D01*
X137676266Y-78466364D01*
X137776564Y-78619882D01*
X138476212Y-77920234D01*
X138487482Y-77962292D01*
X138559890Y-78087708D01*
X138662292Y-78190110D01*
X138787708Y-78262518D01*
X138829765Y-78273787D01*
X138140371Y-78963181D01*
X138079048Y-78996666D01*
X138052690Y-78999500D01*
X135671934Y-78999500D01*
X135604895Y-78979815D01*
X135559140Y-78927011D01*
X135549196Y-78857853D01*
X135578221Y-78794297D01*
X135580681Y-78791542D01*
X135688164Y-78674785D01*
X135824173Y-78466607D01*
X135924063Y-78238881D01*
X135985108Y-77997821D01*
X136005643Y-77750000D01*
X135985108Y-77502179D01*
X135985107Y-77502175D01*
X135924063Y-77261118D01*
X135824173Y-77033393D01*
X135688166Y-76825217D01*
X135666557Y-76801744D01*
X135519744Y-76642262D01*
X135323509Y-76489526D01*
X135323507Y-76489525D01*
X135323506Y-76489524D01*
X135104811Y-76371172D01*
X135104802Y-76371169D01*
X134869616Y-76290429D01*
X134624335Y-76249500D01*
X134375665Y-76249500D01*
X134130383Y-76290429D01*
X133895197Y-76371169D01*
X133895188Y-76371172D01*
X133676493Y-76489524D01*
X133480257Y-76642261D01*
X133311833Y-76825217D01*
X133175827Y-77033391D01*
X133113282Y-77175979D01*
X133068325Y-77229464D01*
X133001589Y-77250154D01*
X132934261Y-77231479D01*
X132887718Y-77179368D01*
X132886170Y-77175978D01*
X132823731Y-77033630D01*
X132723434Y-76880116D01*
X132023787Y-77579764D01*
X132012518Y-77537708D01*
X131940110Y-77412292D01*
X131837708Y-77309890D01*
X131712292Y-77237482D01*
X131670235Y-77226212D01*
X132370057Y-76526390D01*
X132370056Y-76526389D01*
X132323229Y-76489943D01*
X132104614Y-76371635D01*
X132104603Y-76371630D01*
X131869493Y-76290916D01*
X131624293Y-76250000D01*
X131375707Y-76250000D01*
X131130506Y-76290916D01*
X130895396Y-76371630D01*
X130895390Y-76371632D01*
X130676761Y-76489949D01*
X130629942Y-76526388D01*
X130629942Y-76526390D01*
X131329765Y-77226212D01*
X131287708Y-77237482D01*
X131162292Y-77309890D01*
X131059890Y-77412292D01*
X130987482Y-77537708D01*
X130976212Y-77579764D01*
X130276564Y-76880116D01*
X130176267Y-77033632D01*
X130076412Y-77261282D01*
X130015387Y-77502261D01*
X130015385Y-77502270D01*
X129994859Y-77749994D01*
X129994859Y-77750005D01*
X130015385Y-77997729D01*
X130015387Y-77997738D01*
X130076412Y-78238717D01*
X130176266Y-78466364D01*
X130276564Y-78619882D01*
X130976212Y-77920234D01*
X130987482Y-77962292D01*
X131059890Y-78087708D01*
X131162292Y-78190110D01*
X131287708Y-78262518D01*
X131329765Y-78273787D01*
X130640371Y-78963181D01*
X130579048Y-78996666D01*
X130552690Y-78999500D01*
X128171934Y-78999500D01*
X128104895Y-78979815D01*
X128059140Y-78927011D01*
X128049196Y-78857853D01*
X128078221Y-78794297D01*
X128080681Y-78791542D01*
X128188164Y-78674785D01*
X128324173Y-78466607D01*
X128424063Y-78238881D01*
X128485108Y-77997821D01*
X128505643Y-77750000D01*
X128485108Y-77502179D01*
X128485107Y-77502175D01*
X128424063Y-77261118D01*
X128324173Y-77033393D01*
X128188166Y-76825217D01*
X128166557Y-76801744D01*
X128019744Y-76642262D01*
X127823509Y-76489526D01*
X127823507Y-76489525D01*
X127823506Y-76489524D01*
X127604811Y-76371172D01*
X127604802Y-76371169D01*
X127369616Y-76290429D01*
X127124335Y-76249500D01*
X126875665Y-76249500D01*
X126630383Y-76290429D01*
X126395197Y-76371169D01*
X126395188Y-76371172D01*
X126176493Y-76489524D01*
X125980257Y-76642261D01*
X125811833Y-76825217D01*
X125675827Y-77033391D01*
X125613282Y-77175979D01*
X125568325Y-77229464D01*
X125501589Y-77250154D01*
X125434261Y-77231479D01*
X125387718Y-77179368D01*
X125386170Y-77175978D01*
X125323731Y-77033630D01*
X125223434Y-76880116D01*
X124523787Y-77579764D01*
X124512518Y-77537708D01*
X124440110Y-77412292D01*
X124337708Y-77309890D01*
X124212292Y-77237482D01*
X124170235Y-77226212D01*
X124870057Y-76526390D01*
X124870056Y-76526389D01*
X124823229Y-76489943D01*
X124604614Y-76371635D01*
X124604603Y-76371630D01*
X124369493Y-76290916D01*
X124124293Y-76250000D01*
X123875707Y-76250000D01*
X123630506Y-76290916D01*
X123395396Y-76371630D01*
X123395390Y-76371632D01*
X123176761Y-76489949D01*
X123129942Y-76526388D01*
X123129942Y-76526390D01*
X123829765Y-77226212D01*
X123787708Y-77237482D01*
X123662292Y-77309890D01*
X123559890Y-77412292D01*
X123487482Y-77537708D01*
X123476212Y-77579764D01*
X122776564Y-76880116D01*
X122676267Y-77033632D01*
X122576412Y-77261282D01*
X122515387Y-77502261D01*
X122515385Y-77502270D01*
X122494859Y-77749994D01*
X122494859Y-77750005D01*
X122515385Y-77997729D01*
X122515387Y-77997738D01*
X122576412Y-78238717D01*
X122676266Y-78466364D01*
X122776564Y-78619882D01*
X123476212Y-77920234D01*
X123487482Y-77962292D01*
X123559890Y-78087708D01*
X123662292Y-78190110D01*
X123787708Y-78262518D01*
X123829765Y-78273787D01*
X123140371Y-78963181D01*
X123079048Y-78996666D01*
X123052690Y-78999500D01*
X120671934Y-78999500D01*
X120604895Y-78979815D01*
X120559140Y-78927011D01*
X120549196Y-78857853D01*
X120578221Y-78794297D01*
X120580681Y-78791542D01*
X120688164Y-78674785D01*
X120824173Y-78466607D01*
X120924063Y-78238881D01*
X120985108Y-77997821D01*
X121005643Y-77750000D01*
X120985108Y-77502179D01*
X120985107Y-77502175D01*
X120924063Y-77261118D01*
X120824173Y-77033393D01*
X120688166Y-76825217D01*
X120666557Y-76801744D01*
X120519744Y-76642262D01*
X120323509Y-76489526D01*
X120323507Y-76489525D01*
X120323506Y-76489524D01*
X120104811Y-76371172D01*
X120104802Y-76371169D01*
X119869616Y-76290429D01*
X119624335Y-76249500D01*
X119375665Y-76249500D01*
X119130383Y-76290429D01*
X118895197Y-76371169D01*
X118895188Y-76371172D01*
X118676493Y-76489524D01*
X118480257Y-76642261D01*
X118311833Y-76825217D01*
X118175827Y-77033391D01*
X118113282Y-77175979D01*
X118068325Y-77229464D01*
X118001589Y-77250154D01*
X117934261Y-77231479D01*
X117887718Y-77179368D01*
X117886170Y-77175978D01*
X117823731Y-77033630D01*
X117723434Y-76880116D01*
X117023787Y-77579764D01*
X117012518Y-77537708D01*
X116940110Y-77412292D01*
X116837708Y-77309890D01*
X116712292Y-77237482D01*
X116670235Y-77226212D01*
X117370057Y-76526390D01*
X117370056Y-76526389D01*
X117323229Y-76489943D01*
X117104614Y-76371635D01*
X117104603Y-76371630D01*
X116869493Y-76290916D01*
X116624293Y-76250000D01*
X116375707Y-76250000D01*
X116130506Y-76290916D01*
X115895396Y-76371630D01*
X115895390Y-76371632D01*
X115676761Y-76489949D01*
X115629942Y-76526388D01*
X115629942Y-76526390D01*
X116329765Y-77226212D01*
X116287708Y-77237482D01*
X116162292Y-77309890D01*
X116059890Y-77412292D01*
X115987482Y-77537708D01*
X115976212Y-77579764D01*
X115276564Y-76880116D01*
X115176267Y-77033632D01*
X115076412Y-77261282D01*
X115015387Y-77502261D01*
X115015385Y-77502270D01*
X114994859Y-77749994D01*
X114994859Y-77750005D01*
X115015385Y-77997729D01*
X115015387Y-77997738D01*
X115076412Y-78238717D01*
X115176266Y-78466364D01*
X115276564Y-78619882D01*
X115976212Y-77920234D01*
X115987482Y-77962292D01*
X116059890Y-78087708D01*
X116162292Y-78190110D01*
X116287708Y-78262518D01*
X116329765Y-78273787D01*
X115640371Y-78963181D01*
X115579048Y-78996666D01*
X115552690Y-78999500D01*
X113171934Y-78999500D01*
X113104895Y-78979815D01*
X113059140Y-78927011D01*
X113049196Y-78857853D01*
X113078221Y-78794297D01*
X113080681Y-78791542D01*
X113188164Y-78674785D01*
X113324173Y-78466607D01*
X113424063Y-78238881D01*
X113485108Y-77997821D01*
X113505643Y-77750000D01*
X113485108Y-77502179D01*
X113485107Y-77502175D01*
X113424063Y-77261118D01*
X113324173Y-77033393D01*
X113188166Y-76825217D01*
X113166557Y-76801744D01*
X113019744Y-76642262D01*
X112823509Y-76489526D01*
X112823507Y-76489525D01*
X112823506Y-76489524D01*
X112604811Y-76371172D01*
X112604802Y-76371169D01*
X112369616Y-76290429D01*
X112124335Y-76249500D01*
X111875665Y-76249500D01*
X111630383Y-76290429D01*
X111395197Y-76371169D01*
X111395188Y-76371172D01*
X111176493Y-76489524D01*
X110980257Y-76642261D01*
X110811833Y-76825217D01*
X110675827Y-77033391D01*
X110613282Y-77175979D01*
X110568325Y-77229464D01*
X110501589Y-77250154D01*
X110434261Y-77231479D01*
X110387718Y-77179368D01*
X110386170Y-77175978D01*
X110323731Y-77033630D01*
X110223434Y-76880116D01*
X109523787Y-77579764D01*
X109512518Y-77537708D01*
X109440110Y-77412292D01*
X109337708Y-77309890D01*
X109212292Y-77237482D01*
X109170235Y-77226212D01*
X109870057Y-76526390D01*
X109870056Y-76526389D01*
X109823229Y-76489943D01*
X109604614Y-76371635D01*
X109604603Y-76371630D01*
X109369493Y-76290916D01*
X109124293Y-76250000D01*
X108875707Y-76250000D01*
X108630506Y-76290916D01*
X108395396Y-76371630D01*
X108395390Y-76371632D01*
X108176761Y-76489949D01*
X108129942Y-76526388D01*
X108129942Y-76526390D01*
X108829765Y-77226212D01*
X108787708Y-77237482D01*
X108662292Y-77309890D01*
X108559890Y-77412292D01*
X108487482Y-77537708D01*
X108476212Y-77579764D01*
X107776564Y-76880116D01*
X107676267Y-77033632D01*
X107576412Y-77261282D01*
X107515387Y-77502261D01*
X107515385Y-77502270D01*
X107494859Y-77749994D01*
X107494859Y-77750005D01*
X107515385Y-77997729D01*
X107515387Y-77997738D01*
X107576412Y-78238717D01*
X107676266Y-78466364D01*
X107776564Y-78619882D01*
X108476212Y-77920234D01*
X108487482Y-77962292D01*
X108559890Y-78087708D01*
X108662292Y-78190110D01*
X108787708Y-78262518D01*
X108829765Y-78273787D01*
X108140371Y-78963181D01*
X108079048Y-78996666D01*
X108052690Y-78999500D01*
X105671934Y-78999500D01*
X105604895Y-78979815D01*
X105559140Y-78927011D01*
X105549196Y-78857853D01*
X105578221Y-78794297D01*
X105580681Y-78791542D01*
X105688164Y-78674785D01*
X105824173Y-78466607D01*
X105924063Y-78238881D01*
X105985108Y-77997821D01*
X106005643Y-77750000D01*
X105985108Y-77502179D01*
X105985107Y-77502175D01*
X105924063Y-77261118D01*
X105824173Y-77033393D01*
X105688166Y-76825217D01*
X105666557Y-76801744D01*
X105519744Y-76642262D01*
X105323509Y-76489526D01*
X105323507Y-76489525D01*
X105323506Y-76489524D01*
X105165482Y-76404006D01*
X105115892Y-76354786D01*
X105100500Y-76294951D01*
X105100500Y-72705048D01*
X105120185Y-72638009D01*
X105165481Y-72595993D01*
X105323509Y-72510474D01*
X105519744Y-72357738D01*
X105688164Y-72174785D01*
X105824173Y-71966607D01*
X105924063Y-71738881D01*
X105985108Y-71497821D01*
X105985939Y-71487792D01*
X106005643Y-71250005D01*
X106005643Y-71249994D01*
X105985109Y-71002187D01*
X105985107Y-71002175D01*
X105924063Y-70761118D01*
X105824173Y-70533393D01*
X105688166Y-70325217D01*
X105666487Y-70301667D01*
X105519744Y-70142262D01*
X105438538Y-70079057D01*
X105323511Y-69989527D01*
X105323506Y-69989524D01*
X105273625Y-69962530D01*
X105224034Y-69913311D01*
X105208926Y-69845094D01*
X105233096Y-69779538D01*
X105244954Y-69765801D01*
X106181122Y-68829633D01*
X106242443Y-68796150D01*
X106312135Y-68801134D01*
X106368068Y-68843006D01*
X106382357Y-68867506D01*
X106425826Y-68966606D01*
X106561833Y-69174782D01*
X106594245Y-69209991D01*
X106730256Y-69357738D01*
X106926491Y-69510474D01*
X106968842Y-69533393D01*
X107144332Y-69628364D01*
X107145190Y-69628828D01*
X107286999Y-69677511D01*
X107378964Y-69709083D01*
X107380386Y-69709571D01*
X107625665Y-69750500D01*
X107874335Y-69750500D01*
X108119614Y-69709571D01*
X108147493Y-69700000D01*
X108277496Y-69655369D01*
X108340282Y-69652536D01*
X108360769Y-69626620D01*
X108373411Y-69618761D01*
X108573509Y-69510474D01*
X108769744Y-69357738D01*
X108938164Y-69174785D01*
X109074173Y-68966607D01*
X109174063Y-68738881D01*
X109235108Y-68497821D01*
X109238052Y-68462292D01*
X109255643Y-68250005D01*
X109255643Y-68249994D01*
X109235109Y-68002187D01*
X109235107Y-68002175D01*
X109174063Y-67761118D01*
X109074173Y-67533393D01*
X108938166Y-67325217D01*
X108869384Y-67250500D01*
X108769744Y-67142262D01*
X108573509Y-66989526D01*
X108573507Y-66989525D01*
X108573506Y-66989524D01*
X108354811Y-66871172D01*
X108354802Y-66871169D01*
X108119616Y-66790429D01*
X107874335Y-66749500D01*
X107625665Y-66749500D01*
X107380383Y-66790429D01*
X107145197Y-66871169D01*
X107145188Y-66871172D01*
X106926493Y-66989524D01*
X106800662Y-67087463D01*
X106735668Y-67113105D01*
X106667128Y-67099538D01*
X106616803Y-67051070D01*
X106600500Y-66989609D01*
X106600500Y-63010390D01*
X106620185Y-62943351D01*
X106672989Y-62897596D01*
X106742147Y-62887652D01*
X106800660Y-62912535D01*
X106926491Y-63010474D01*
X107063702Y-63084729D01*
X107144332Y-63128364D01*
X107145190Y-63128828D01*
X107263713Y-63169517D01*
X107378964Y-63209083D01*
X107380386Y-63209571D01*
X107625665Y-63250500D01*
X107874335Y-63250500D01*
X108119614Y-63209571D01*
X108354810Y-63128828D01*
X108573509Y-63010474D01*
X108769744Y-62857738D01*
X108938164Y-62674785D01*
X109074173Y-62466607D01*
X109174063Y-62238881D01*
X109235108Y-61997821D01*
X109253459Y-61776358D01*
X109255643Y-61750005D01*
X109255643Y-61749994D01*
X109235109Y-61502187D01*
X109235108Y-61502183D01*
X109235108Y-61502179D01*
X109233318Y-61495112D01*
X109173992Y-61260839D01*
X109176616Y-61191018D01*
X109206512Y-61142721D01*
X109712418Y-60636816D01*
X109773740Y-60603334D01*
X109800098Y-60600500D01*
X110986689Y-60600500D01*
X111053728Y-60620185D01*
X111099483Y-60672989D01*
X111109427Y-60742147D01*
X111080402Y-60805703D01*
X111077918Y-60808484D01*
X111062229Y-60825525D01*
X110926267Y-61033632D01*
X110826412Y-61261282D01*
X110765387Y-61502261D01*
X110765385Y-61502270D01*
X110744859Y-61749994D01*
X110744859Y-61750005D01*
X110765385Y-61997729D01*
X110765387Y-61997738D01*
X110826412Y-62238717D01*
X110926266Y-62466364D01*
X111026564Y-62619882D01*
X111726212Y-61920233D01*
X111737482Y-61962292D01*
X111809890Y-62087708D01*
X111912292Y-62190110D01*
X112037708Y-62262518D01*
X112079765Y-62273787D01*
X111379942Y-62973609D01*
X111426768Y-63010055D01*
X111426770Y-63010056D01*
X111645385Y-63128364D01*
X111645396Y-63128369D01*
X111880506Y-63209083D01*
X112125707Y-63250000D01*
X112374293Y-63250000D01*
X112619493Y-63209083D01*
X112854603Y-63128369D01*
X112854614Y-63128364D01*
X113073228Y-63010057D01*
X113073231Y-63010055D01*
X113120056Y-62973609D01*
X112420234Y-62273787D01*
X112462292Y-62262518D01*
X112587708Y-62190110D01*
X112690110Y-62087708D01*
X112762518Y-61962292D01*
X112773787Y-61920235D01*
X113473434Y-62619882D01*
X113573731Y-62466369D01*
X113661944Y-62265263D01*
X113706900Y-62211777D01*
X113773636Y-62191087D01*
X113840963Y-62209761D01*
X113887507Y-62261871D01*
X113899500Y-62315073D01*
X113899500Y-67684926D01*
X113879815Y-67751965D01*
X113827011Y-67797720D01*
X113757853Y-67807664D01*
X113694297Y-67778639D01*
X113661944Y-67734736D01*
X113573731Y-67533630D01*
X113473434Y-67380116D01*
X112773787Y-68079764D01*
X112762518Y-68037708D01*
X112690110Y-67912292D01*
X112587708Y-67809890D01*
X112462292Y-67737482D01*
X112420235Y-67726212D01*
X113120057Y-67026390D01*
X113120056Y-67026389D01*
X113073229Y-66989943D01*
X112854614Y-66871635D01*
X112854603Y-66871630D01*
X112619493Y-66790916D01*
X112374293Y-66750000D01*
X112125707Y-66750000D01*
X111880506Y-66790916D01*
X111645396Y-66871630D01*
X111645390Y-66871632D01*
X111426761Y-66989949D01*
X111379942Y-67026388D01*
X111379942Y-67026390D01*
X112079765Y-67726212D01*
X112037708Y-67737482D01*
X111912292Y-67809890D01*
X111809890Y-67912292D01*
X111737482Y-68037708D01*
X111726212Y-68079764D01*
X111026564Y-67380116D01*
X110926267Y-67533632D01*
X110826412Y-67761282D01*
X110765387Y-68002261D01*
X110765385Y-68002270D01*
X110744859Y-68249994D01*
X110744859Y-68250005D01*
X110765385Y-68497729D01*
X110765387Y-68497738D01*
X110826412Y-68738717D01*
X110926266Y-68966364D01*
X111026564Y-69119882D01*
X111726212Y-68420234D01*
X111737482Y-68462292D01*
X111809890Y-68587708D01*
X111912292Y-68690110D01*
X112037708Y-68762518D01*
X112079765Y-68773787D01*
X111379942Y-69473609D01*
X111426768Y-69510055D01*
X111426770Y-69510056D01*
X111574175Y-69589827D01*
X111623766Y-69639046D01*
X111638874Y-69707263D01*
X111614704Y-69772818D01*
X111558928Y-69814900D01*
X111555422Y-69816163D01*
X111395194Y-69871170D01*
X111395188Y-69871172D01*
X111176493Y-69989524D01*
X110980257Y-70142261D01*
X110811833Y-70325217D01*
X110675827Y-70533391D01*
X110613282Y-70675979D01*
X110568325Y-70729464D01*
X110501589Y-70750154D01*
X110434261Y-70731479D01*
X110387718Y-70679368D01*
X110386170Y-70675978D01*
X110323731Y-70533630D01*
X110223434Y-70380116D01*
X109523787Y-71079764D01*
X109512518Y-71037708D01*
X109440110Y-70912292D01*
X109337708Y-70809890D01*
X109212292Y-70737482D01*
X109170235Y-70726212D01*
X109870057Y-70026390D01*
X109870056Y-70026389D01*
X109823229Y-69989943D01*
X109604614Y-69871635D01*
X109604603Y-69871630D01*
X109369493Y-69790916D01*
X109124293Y-69750000D01*
X108875707Y-69750000D01*
X108630510Y-69790915D01*
X108472704Y-69845090D01*
X108409916Y-69847922D01*
X108389432Y-69873838D01*
X108376775Y-69881705D01*
X108176765Y-69989945D01*
X108129942Y-70026388D01*
X108129942Y-70026390D01*
X108829765Y-70726212D01*
X108787708Y-70737482D01*
X108662292Y-70809890D01*
X108559890Y-70912292D01*
X108487482Y-71037708D01*
X108476212Y-71079764D01*
X107776564Y-70380116D01*
X107676267Y-70533632D01*
X107576412Y-70761282D01*
X107515387Y-71002261D01*
X107515385Y-71002270D01*
X107494859Y-71249994D01*
X107494859Y-71250005D01*
X107515385Y-71497729D01*
X107515387Y-71497738D01*
X107576412Y-71738717D01*
X107676266Y-71966364D01*
X107776564Y-72119882D01*
X108476212Y-71420234D01*
X108487482Y-71462292D01*
X108559890Y-71587708D01*
X108662292Y-71690110D01*
X108787708Y-71762518D01*
X108829765Y-71773787D01*
X108129942Y-72473609D01*
X108176768Y-72510055D01*
X108176770Y-72510056D01*
X108395385Y-72628364D01*
X108395396Y-72628369D01*
X108630506Y-72709083D01*
X108875707Y-72750000D01*
X109124293Y-72750000D01*
X109369493Y-72709083D01*
X109604603Y-72628369D01*
X109604614Y-72628364D01*
X109823228Y-72510057D01*
X109823231Y-72510055D01*
X109870056Y-72473609D01*
X109170234Y-71773787D01*
X109212292Y-71762518D01*
X109337708Y-71690110D01*
X109440110Y-71587708D01*
X109512518Y-71462292D01*
X109523787Y-71420235D01*
X110223434Y-72119882D01*
X110323732Y-71966367D01*
X110386170Y-71824022D01*
X110431125Y-71770536D01*
X110497861Y-71749845D01*
X110565189Y-71768519D01*
X110611733Y-71820629D01*
X110613282Y-71824020D01*
X110675827Y-71966608D01*
X110811833Y-72174782D01*
X110822945Y-72186853D01*
X110980256Y-72357738D01*
X111176491Y-72510474D01*
X111176493Y-72510475D01*
X111394332Y-72628364D01*
X111395190Y-72628828D01*
X111540596Y-72678746D01*
X111628964Y-72709083D01*
X111630386Y-72709571D01*
X111875665Y-72750500D01*
X112124335Y-72750500D01*
X112369614Y-72709571D01*
X112604810Y-72628828D01*
X112823509Y-72510474D01*
X113019744Y-72357738D01*
X113188164Y-72174785D01*
X113324173Y-71966607D01*
X113424063Y-71738881D01*
X113485108Y-71497821D01*
X113485939Y-71487792D01*
X113505643Y-71250005D01*
X113505643Y-71249994D01*
X113485109Y-71002187D01*
X113485108Y-71002183D01*
X113485108Y-71002179D01*
X113476038Y-70966364D01*
X113423992Y-70760839D01*
X113426616Y-70691018D01*
X113456514Y-70642719D01*
X114858506Y-69240728D01*
X114858511Y-69240724D01*
X114868714Y-69230520D01*
X114868716Y-69230520D01*
X114980520Y-69118716D01*
X115018183Y-69053480D01*
X115068749Y-69005266D01*
X115137356Y-68992042D01*
X115202221Y-69018010D01*
X115229379Y-69047660D01*
X115276564Y-69119882D01*
X115976212Y-68420234D01*
X115987482Y-68462292D01*
X116059890Y-68587708D01*
X116162292Y-68690110D01*
X116287708Y-68762518D01*
X116329765Y-68773787D01*
X115629942Y-69473609D01*
X115676768Y-69510055D01*
X115676770Y-69510056D01*
X115895385Y-69628364D01*
X115895389Y-69628366D01*
X115908067Y-69632719D01*
X115965082Y-69673106D01*
X115991211Y-69737906D01*
X115978159Y-69806546D01*
X115930069Y-69857233D01*
X115908067Y-69867281D01*
X115895390Y-69871633D01*
X115676761Y-69989949D01*
X115629942Y-70026388D01*
X115629942Y-70026390D01*
X116329765Y-70726212D01*
X116287708Y-70737482D01*
X116162292Y-70809890D01*
X116059890Y-70912292D01*
X115987482Y-71037708D01*
X115976212Y-71079764D01*
X115276564Y-70380116D01*
X115176267Y-70533632D01*
X115076412Y-70761282D01*
X115015387Y-71002261D01*
X115015385Y-71002270D01*
X114994859Y-71249994D01*
X114994859Y-71250005D01*
X115015385Y-71497729D01*
X115015387Y-71497738D01*
X115076412Y-71738717D01*
X115176266Y-71966364D01*
X115276564Y-72119882D01*
X115976212Y-71420234D01*
X115987482Y-71462292D01*
X116059890Y-71587708D01*
X116162292Y-71690110D01*
X116287708Y-71762518D01*
X116329765Y-71773787D01*
X115629942Y-72473609D01*
X115676768Y-72510055D01*
X115676770Y-72510056D01*
X115895385Y-72628364D01*
X115895396Y-72628369D01*
X116130506Y-72709083D01*
X116375707Y-72750000D01*
X116624293Y-72750000D01*
X116869493Y-72709083D01*
X117104603Y-72628369D01*
X117104614Y-72628364D01*
X117323228Y-72510057D01*
X117323231Y-72510055D01*
X117370056Y-72473609D01*
X116670234Y-71773787D01*
X116712292Y-71762518D01*
X116837708Y-71690110D01*
X116940110Y-71587708D01*
X117012518Y-71462292D01*
X117023787Y-71420235D01*
X117723434Y-72119882D01*
X117823732Y-71966367D01*
X117886170Y-71824022D01*
X117931125Y-71770536D01*
X117997861Y-71749845D01*
X118065189Y-71768519D01*
X118111733Y-71820629D01*
X118113282Y-71824020D01*
X118175827Y-71966608D01*
X118311833Y-72174782D01*
X118322945Y-72186853D01*
X118480256Y-72357738D01*
X118676491Y-72510474D01*
X118676493Y-72510475D01*
X118894332Y-72628364D01*
X118895190Y-72628828D01*
X119040596Y-72678746D01*
X119128964Y-72709083D01*
X119130386Y-72709571D01*
X119375665Y-72750500D01*
X119624335Y-72750500D01*
X119869614Y-72709571D01*
X120104810Y-72628828D01*
X120323509Y-72510474D01*
X120519744Y-72357738D01*
X120688164Y-72174785D01*
X120824173Y-71966607D01*
X120842560Y-71924689D01*
X120887517Y-71871204D01*
X120954253Y-71850514D01*
X120956116Y-71850500D01*
X121663331Y-71850500D01*
X121663347Y-71850501D01*
X121670943Y-71850501D01*
X121829054Y-71850501D01*
X121829057Y-71850501D01*
X121981785Y-71809577D01*
X122031904Y-71780639D01*
X122118716Y-71730520D01*
X122230520Y-71618716D01*
X122230520Y-71618714D01*
X122240728Y-71608507D01*
X122240730Y-71608504D01*
X122327958Y-71521275D01*
X122389279Y-71487792D01*
X122458971Y-71492776D01*
X122514904Y-71534648D01*
X122535842Y-71578517D01*
X122576408Y-71738707D01*
X122576411Y-71738715D01*
X122676266Y-71966364D01*
X122776564Y-72119882D01*
X123476212Y-71420233D01*
X123487482Y-71462292D01*
X123559890Y-71587708D01*
X123662292Y-71690110D01*
X123787708Y-71762518D01*
X123829765Y-71773787D01*
X123129942Y-72473609D01*
X123176768Y-72510055D01*
X123176770Y-72510056D01*
X123395385Y-72628364D01*
X123395396Y-72628369D01*
X123630506Y-72709083D01*
X123875707Y-72750000D01*
X124124293Y-72750000D01*
X124369493Y-72709083D01*
X124604603Y-72628369D01*
X124604614Y-72628364D01*
X124823228Y-72510057D01*
X124823231Y-72510055D01*
X124870056Y-72473609D01*
X124170234Y-71773787D01*
X124212292Y-71762518D01*
X124337708Y-71690110D01*
X124440110Y-71587708D01*
X124512518Y-71462292D01*
X124523787Y-71420235D01*
X125223434Y-72119882D01*
X125323732Y-71966367D01*
X125386170Y-71824022D01*
X125431125Y-71770536D01*
X125497861Y-71749845D01*
X125565189Y-71768519D01*
X125611733Y-71820629D01*
X125613282Y-71824020D01*
X125675827Y-71966608D01*
X125811833Y-72174782D01*
X125822945Y-72186853D01*
X125980256Y-72357738D01*
X126176491Y-72510474D01*
X126176493Y-72510475D01*
X126394332Y-72628364D01*
X126395190Y-72628828D01*
X126540596Y-72678746D01*
X126628964Y-72709083D01*
X126630386Y-72709571D01*
X126875665Y-72750500D01*
X127124335Y-72750500D01*
X127369614Y-72709571D01*
X127604810Y-72628828D01*
X127823509Y-72510474D01*
X128019744Y-72357738D01*
X128188164Y-72174785D01*
X128324173Y-71966607D01*
X128424063Y-71738881D01*
X128485108Y-71497821D01*
X128485939Y-71487792D01*
X128505643Y-71250005D01*
X128505643Y-71249994D01*
X128485109Y-71002187D01*
X128485107Y-71002175D01*
X128424063Y-70761118D01*
X128324173Y-70533393D01*
X128188166Y-70325217D01*
X128118928Y-70250005D01*
X128019744Y-70142262D01*
X127823509Y-69989526D01*
X127823507Y-69989525D01*
X127823506Y-69989524D01*
X127665482Y-69904006D01*
X127615892Y-69854786D01*
X127600500Y-69794951D01*
X127600500Y-68249994D01*
X128744859Y-68249994D01*
X128744859Y-68250005D01*
X128765385Y-68497729D01*
X128765387Y-68497738D01*
X128826412Y-68738717D01*
X128926266Y-68966364D01*
X129026564Y-69119882D01*
X129726212Y-68420234D01*
X129737482Y-68462292D01*
X129809890Y-68587708D01*
X129912292Y-68690110D01*
X130037708Y-68762518D01*
X130079765Y-68773787D01*
X129379942Y-69473609D01*
X129426768Y-69510055D01*
X129426770Y-69510056D01*
X129645385Y-69628364D01*
X129645396Y-69628369D01*
X129880506Y-69709083D01*
X130125707Y-69750000D01*
X130374293Y-69750000D01*
X130619493Y-69709083D01*
X130780171Y-69653922D01*
X130839196Y-69651258D01*
X130857892Y-69627608D01*
X130870548Y-69619741D01*
X131073228Y-69510057D01*
X131073231Y-69510055D01*
X131120056Y-69473609D01*
X130420234Y-68773787D01*
X130462292Y-68762518D01*
X130587708Y-68690110D01*
X130690110Y-68587708D01*
X130762518Y-68462292D01*
X130773787Y-68420235D01*
X131473434Y-69119882D01*
X131573731Y-68966369D01*
X131673587Y-68738717D01*
X131734612Y-68497738D01*
X131734614Y-68497729D01*
X131755141Y-68250005D01*
X131755141Y-68249994D01*
X131734614Y-68002270D01*
X131734612Y-68002261D01*
X131673587Y-67761282D01*
X131573731Y-67533630D01*
X131473434Y-67380116D01*
X130773787Y-68079764D01*
X130762518Y-68037708D01*
X130690110Y-67912292D01*
X130587708Y-67809890D01*
X130462292Y-67737482D01*
X130420235Y-67726212D01*
X131120057Y-67026390D01*
X131120056Y-67026389D01*
X131073229Y-66989943D01*
X130854614Y-66871635D01*
X130854603Y-66871630D01*
X130619493Y-66790916D01*
X130374293Y-66750000D01*
X130125707Y-66750000D01*
X129880506Y-66790916D01*
X129645396Y-66871630D01*
X129645390Y-66871632D01*
X129426761Y-66989949D01*
X129379942Y-67026388D01*
X129379942Y-67026390D01*
X130079765Y-67726212D01*
X130037708Y-67737482D01*
X129912292Y-67809890D01*
X129809890Y-67912292D01*
X129737482Y-68037708D01*
X129726212Y-68079764D01*
X129026564Y-67380116D01*
X128926267Y-67533632D01*
X128826412Y-67761282D01*
X128765387Y-68002261D01*
X128765385Y-68002270D01*
X128744859Y-68249994D01*
X127600500Y-68249994D01*
X127600500Y-62300097D01*
X127620185Y-62233058D01*
X127636819Y-62212416D01*
X128099241Y-61749994D01*
X128588837Y-61260397D01*
X128650158Y-61226914D01*
X128719849Y-61231898D01*
X128775783Y-61273770D01*
X128800200Y-61339234D01*
X128796722Y-61378520D01*
X128765387Y-61502257D01*
X128765385Y-61502270D01*
X128744859Y-61749994D01*
X128744859Y-61750005D01*
X128765385Y-61997729D01*
X128765387Y-61997738D01*
X128826412Y-62238717D01*
X128926266Y-62466364D01*
X129026564Y-62619882D01*
X129726212Y-61920233D01*
X129737482Y-61962292D01*
X129809890Y-62087708D01*
X129912292Y-62190110D01*
X130037708Y-62262518D01*
X130079765Y-62273787D01*
X129379942Y-62973609D01*
X129426768Y-63010055D01*
X129426770Y-63010056D01*
X129645385Y-63128364D01*
X129645396Y-63128369D01*
X129880506Y-63209083D01*
X130125707Y-63250000D01*
X130374293Y-63250000D01*
X130619493Y-63209083D01*
X130854603Y-63128369D01*
X130854614Y-63128364D01*
X131073228Y-63010057D01*
X131073231Y-63010055D01*
X131120056Y-62973609D01*
X130420234Y-62273787D01*
X130462292Y-62262518D01*
X130587708Y-62190110D01*
X130690110Y-62087708D01*
X130762518Y-61962292D01*
X130773787Y-61920235D01*
X131473434Y-62619882D01*
X131573731Y-62466369D01*
X131673587Y-62238717D01*
X131734612Y-61997738D01*
X131734614Y-61997729D01*
X131755141Y-61750005D01*
X131755141Y-61749994D01*
X131734614Y-61502270D01*
X131734612Y-61502261D01*
X131673587Y-61261282D01*
X131573731Y-61033630D01*
X131473434Y-60880116D01*
X130773787Y-61579764D01*
X130762518Y-61537708D01*
X130690110Y-61412292D01*
X130587708Y-61309890D01*
X130462292Y-61237482D01*
X130420233Y-61226212D01*
X131120057Y-60526389D01*
X131073229Y-60489943D01*
X130854614Y-60371635D01*
X130854603Y-60371630D01*
X130619493Y-60290916D01*
X130374293Y-60250000D01*
X130125706Y-60250000D01*
X129875575Y-60291739D01*
X129806210Y-60283357D01*
X129752388Y-60238804D01*
X129731198Y-60172225D01*
X129749366Y-60104759D01*
X129767481Y-60081753D01*
X130712416Y-59136819D01*
X130773739Y-59103334D01*
X130800097Y-59100500D01*
X134250902Y-59100500D01*
X134317941Y-59120185D01*
G37*
G04 #@! TD.AperFunction*
G04 #@! TA.AperFunction,Conductor*
G36*
X110223434Y-78619882D02*
G01*
X110323732Y-78466367D01*
X110386170Y-78324022D01*
X110431125Y-78270536D01*
X110497861Y-78249845D01*
X110565189Y-78268519D01*
X110611733Y-78320629D01*
X110613282Y-78324020D01*
X110675827Y-78466608D01*
X110811833Y-78674782D01*
X110811836Y-78674785D01*
X110919296Y-78791518D01*
X110950218Y-78854171D01*
X110942358Y-78923598D01*
X110898211Y-78977753D01*
X110831793Y-78999444D01*
X110828066Y-78999500D01*
X109947309Y-78999500D01*
X109880270Y-78979815D01*
X109859628Y-78963181D01*
X109170234Y-78273787D01*
X109212292Y-78262518D01*
X109337708Y-78190110D01*
X109440110Y-78087708D01*
X109512518Y-77962292D01*
X109523787Y-77920235D01*
X110223434Y-78619882D01*
G37*
G04 #@! TD.AperFunction*
G04 #@! TA.AperFunction,Conductor*
G36*
X117723434Y-78619882D02*
G01*
X117823732Y-78466367D01*
X117886170Y-78324022D01*
X117931125Y-78270536D01*
X117997861Y-78249845D01*
X118065189Y-78268519D01*
X118111733Y-78320629D01*
X118113282Y-78324020D01*
X118175827Y-78466608D01*
X118311833Y-78674782D01*
X118311836Y-78674785D01*
X118419296Y-78791518D01*
X118450218Y-78854171D01*
X118442358Y-78923598D01*
X118398211Y-78977753D01*
X118331793Y-78999444D01*
X118328066Y-78999500D01*
X117447309Y-78999500D01*
X117380270Y-78979815D01*
X117359628Y-78963181D01*
X116670234Y-78273787D01*
X116712292Y-78262518D01*
X116837708Y-78190110D01*
X116940110Y-78087708D01*
X117012518Y-77962292D01*
X117023787Y-77920235D01*
X117723434Y-78619882D01*
G37*
G04 #@! TD.AperFunction*
G04 #@! TA.AperFunction,Conductor*
G36*
X125223434Y-78619882D02*
G01*
X125323732Y-78466367D01*
X125386170Y-78324022D01*
X125431125Y-78270536D01*
X125497861Y-78249845D01*
X125565189Y-78268519D01*
X125611733Y-78320629D01*
X125613282Y-78324020D01*
X125675827Y-78466608D01*
X125811833Y-78674782D01*
X125811836Y-78674785D01*
X125919296Y-78791518D01*
X125950218Y-78854171D01*
X125942358Y-78923598D01*
X125898211Y-78977753D01*
X125831793Y-78999444D01*
X125828066Y-78999500D01*
X124947309Y-78999500D01*
X124880270Y-78979815D01*
X124859628Y-78963181D01*
X124170234Y-78273787D01*
X124212292Y-78262518D01*
X124337708Y-78190110D01*
X124440110Y-78087708D01*
X124512518Y-77962292D01*
X124523787Y-77920235D01*
X125223434Y-78619882D01*
G37*
G04 #@! TD.AperFunction*
G04 #@! TA.AperFunction,Conductor*
G36*
X132723434Y-78619882D02*
G01*
X132823732Y-78466367D01*
X132886170Y-78324022D01*
X132931125Y-78270536D01*
X132997861Y-78249845D01*
X133065189Y-78268519D01*
X133111733Y-78320629D01*
X133113282Y-78324020D01*
X133175827Y-78466608D01*
X133311833Y-78674782D01*
X133311836Y-78674785D01*
X133419296Y-78791518D01*
X133450218Y-78854171D01*
X133442358Y-78923598D01*
X133398211Y-78977753D01*
X133331793Y-78999444D01*
X133328066Y-78999500D01*
X132447309Y-78999500D01*
X132380270Y-78979815D01*
X132359628Y-78963181D01*
X131670234Y-78273787D01*
X131712292Y-78262518D01*
X131837708Y-78190110D01*
X131940110Y-78087708D01*
X132012518Y-77962292D01*
X132023787Y-77920235D01*
X132723434Y-78619882D01*
G37*
G04 #@! TD.AperFunction*
G04 #@! TA.AperFunction,Conductor*
G36*
X140223434Y-78619882D02*
G01*
X140323732Y-78466367D01*
X140386170Y-78324022D01*
X140431125Y-78270536D01*
X140497861Y-78249845D01*
X140565189Y-78268519D01*
X140611733Y-78320629D01*
X140613282Y-78324020D01*
X140675827Y-78466608D01*
X140811833Y-78674782D01*
X140811836Y-78674785D01*
X140919296Y-78791518D01*
X140950218Y-78854171D01*
X140942358Y-78923598D01*
X140898211Y-78977753D01*
X140831793Y-78999444D01*
X140828066Y-78999500D01*
X139947309Y-78999500D01*
X139880270Y-78979815D01*
X139859628Y-78963181D01*
X139170234Y-78273787D01*
X139212292Y-78262518D01*
X139337708Y-78190110D01*
X139440110Y-78087708D01*
X139512518Y-77962292D01*
X139523787Y-77920235D01*
X140223434Y-78619882D01*
G37*
G04 #@! TD.AperFunction*
G04 #@! TA.AperFunction,Conductor*
G36*
X147723434Y-78619882D02*
G01*
X147823732Y-78466367D01*
X147886170Y-78324022D01*
X147931125Y-78270536D01*
X147997861Y-78249845D01*
X148065189Y-78268519D01*
X148111733Y-78320629D01*
X148113282Y-78324020D01*
X148175827Y-78466608D01*
X148311833Y-78674782D01*
X148311836Y-78674785D01*
X148419296Y-78791518D01*
X148450218Y-78854171D01*
X148442358Y-78923598D01*
X148398211Y-78977753D01*
X148331793Y-78999444D01*
X148328066Y-78999500D01*
X147447309Y-78999500D01*
X147380270Y-78979815D01*
X147359628Y-78963181D01*
X146670234Y-78273787D01*
X146712292Y-78262518D01*
X146837708Y-78190110D01*
X146940110Y-78087708D01*
X147012518Y-77962292D01*
X147023787Y-77920235D01*
X147723434Y-78619882D01*
G37*
G04 #@! TD.AperFunction*
G04 #@! TA.AperFunction,Conductor*
G36*
X166737482Y-77962292D02*
G01*
X166809890Y-78087708D01*
X166912292Y-78190110D01*
X167037708Y-78262518D01*
X167079765Y-78273787D01*
X166390371Y-78963181D01*
X166329048Y-78996666D01*
X166302690Y-78999500D01*
X165197309Y-78999500D01*
X165130270Y-78979815D01*
X165109628Y-78963181D01*
X164420234Y-78273787D01*
X164462292Y-78262518D01*
X164587708Y-78190110D01*
X164690110Y-78087708D01*
X164762518Y-77962292D01*
X164773787Y-77920235D01*
X165473434Y-78619882D01*
X165573731Y-78466369D01*
X165636444Y-78323398D01*
X165681400Y-78269912D01*
X165748136Y-78249222D01*
X165815463Y-78267896D01*
X165862007Y-78320006D01*
X165863556Y-78323398D01*
X165926266Y-78466364D01*
X166026564Y-78619882D01*
X166726212Y-77920234D01*
X166737482Y-77962292D01*
G37*
G04 #@! TD.AperFunction*
G04 #@! TA.AperFunction,Conductor*
G36*
X166737482Y-70462292D02*
G01*
X166809890Y-70587708D01*
X166912292Y-70690110D01*
X167037708Y-70762518D01*
X167079765Y-70773787D01*
X166379942Y-71473609D01*
X166426768Y-71510055D01*
X166426770Y-71510056D01*
X166645385Y-71628364D01*
X166645396Y-71628369D01*
X166657294Y-71632454D01*
X166714309Y-71672839D01*
X166740440Y-71737639D01*
X166727389Y-71806279D01*
X166679300Y-71856967D01*
X166657296Y-71867016D01*
X166645191Y-71871171D01*
X166645188Y-71871172D01*
X166426493Y-71989524D01*
X166230257Y-72142261D01*
X166061833Y-72325217D01*
X165925826Y-72533393D01*
X165863556Y-72675355D01*
X165818600Y-72728841D01*
X165751864Y-72749531D01*
X165684536Y-72730856D01*
X165637993Y-72678746D01*
X165636444Y-72675355D01*
X165574173Y-72533393D01*
X165438166Y-72325217D01*
X165416557Y-72301744D01*
X165269744Y-72142262D01*
X165073509Y-71989526D01*
X165073507Y-71989525D01*
X165073506Y-71989524D01*
X164854811Y-71871172D01*
X164854802Y-71871169D01*
X164843477Y-71867281D01*
X164786462Y-71826896D01*
X164760331Y-71762096D01*
X164773382Y-71693456D01*
X164821471Y-71642768D01*
X164843477Y-71632719D01*
X164847235Y-71631428D01*
X164854810Y-71628828D01*
X165073509Y-71510474D01*
X165269744Y-71357738D01*
X165438164Y-71174785D01*
X165574173Y-70966607D01*
X165636717Y-70824020D01*
X165681673Y-70770535D01*
X165748409Y-70749845D01*
X165815737Y-70768520D01*
X165862280Y-70820630D01*
X165863829Y-70824021D01*
X165926266Y-70966364D01*
X166026564Y-71119882D01*
X166726212Y-70420234D01*
X166737482Y-70462292D01*
G37*
G04 #@! TD.AperFunction*
G04 #@! TA.AperFunction,Conductor*
G36*
X174963181Y-71109628D02*
G01*
X174996666Y-71170951D01*
X174999500Y-71197309D01*
X174999500Y-72074059D01*
X174979815Y-72141098D01*
X174927011Y-72186853D01*
X174857853Y-72196797D01*
X174794297Y-72167772D01*
X174784271Y-72158042D01*
X174769747Y-72142265D01*
X174769744Y-72142262D01*
X174648275Y-72047719D01*
X174573509Y-71989526D01*
X174573507Y-71989525D01*
X174573506Y-71989524D01*
X174354811Y-71871172D01*
X174354802Y-71871169D01*
X174342705Y-71867016D01*
X174285690Y-71826631D01*
X174259559Y-71761831D01*
X174272610Y-71693191D01*
X174320699Y-71642504D01*
X174342707Y-71632453D01*
X174354608Y-71628367D01*
X174354614Y-71628364D01*
X174573228Y-71510057D01*
X174573231Y-71510055D01*
X174620056Y-71473609D01*
X173920234Y-70773787D01*
X173962292Y-70762518D01*
X174087708Y-70690110D01*
X174190110Y-70587708D01*
X174262518Y-70462292D01*
X174273787Y-70420234D01*
X174963181Y-71109628D01*
G37*
G04 #@! TD.AperFunction*
G04 #@! TA.AperFunction,Conductor*
G36*
X131229425Y-55786855D02*
G01*
X131244303Y-55796416D01*
X131342844Y-55870184D01*
X131347668Y-55873795D01*
X131347671Y-55873797D01*
X131386637Y-55888330D01*
X131482517Y-55924091D01*
X131542127Y-55930500D01*
X131720621Y-55930499D01*
X131787660Y-55950183D01*
X131833415Y-56002987D01*
X131840396Y-56022405D01*
X131880423Y-56171787D01*
X131884736Y-56179256D01*
X131884737Y-56179257D01*
X131959477Y-56308712D01*
X131959479Y-56308715D01*
X131959480Y-56308716D01*
X132071284Y-56420520D01*
X132071285Y-56420521D01*
X132631284Y-56980520D01*
X132631286Y-56980521D01*
X132631290Y-56980524D01*
X132768209Y-57059573D01*
X132768212Y-57059575D01*
X132768216Y-57059577D01*
X132920943Y-57100501D01*
X132920945Y-57100501D01*
X133086654Y-57100501D01*
X133086670Y-57100500D01*
X138417588Y-57100500D01*
X138484627Y-57120185D01*
X138494903Y-57127555D01*
X138497736Y-57129814D01*
X138497738Y-57129816D01*
X138562496Y-57170506D01*
X138608787Y-57222841D01*
X138619435Y-57291894D01*
X138591060Y-57355743D01*
X138532670Y-57394115D01*
X138496524Y-57399500D01*
X130086669Y-57399500D01*
X130086653Y-57399499D01*
X130079057Y-57399499D01*
X129920943Y-57399499D01*
X129813587Y-57428265D01*
X129768210Y-57440424D01*
X129768209Y-57440425D01*
X129718096Y-57469359D01*
X129718095Y-57469360D01*
X129686707Y-57487482D01*
X129631285Y-57519479D01*
X129631282Y-57519481D01*
X122519479Y-64631284D01*
X122491797Y-64679232D01*
X122480096Y-64699500D01*
X122440423Y-64768215D01*
X122399499Y-64920943D01*
X122399499Y-64920945D01*
X122399499Y-65089046D01*
X122399500Y-65089059D01*
X122399500Y-67237002D01*
X122379815Y-67304041D01*
X122327011Y-67349796D01*
X122257853Y-67359740D01*
X122194297Y-67330715D01*
X122184270Y-67320985D01*
X122131263Y-67263404D01*
X122019744Y-67142262D01*
X121823509Y-66989526D01*
X121823507Y-66989525D01*
X121823506Y-66989524D01*
X121604811Y-66871172D01*
X121604802Y-66871169D01*
X121369616Y-66790429D01*
X121124335Y-66749500D01*
X120875665Y-66749500D01*
X120630383Y-66790429D01*
X120395197Y-66871169D01*
X120395188Y-66871172D01*
X120176493Y-66989524D01*
X119980257Y-67142261D01*
X119811833Y-67325217D01*
X119675826Y-67533393D01*
X119575936Y-67761118D01*
X119514892Y-68002175D01*
X119514890Y-68002187D01*
X119494357Y-68249994D01*
X119494357Y-68250005D01*
X119514890Y-68497812D01*
X119514892Y-68497824D01*
X119575936Y-68738881D01*
X119675826Y-68966606D01*
X119811833Y-69174782D01*
X119844245Y-69209991D01*
X119980256Y-69357738D01*
X120176491Y-69510474D01*
X120218842Y-69533393D01*
X120394332Y-69628364D01*
X120395190Y-69628828D01*
X120536999Y-69677511D01*
X120628964Y-69709083D01*
X120630386Y-69709571D01*
X120875665Y-69750500D01*
X121124335Y-69750500D01*
X121369614Y-69709571D01*
X121604810Y-69628828D01*
X121823509Y-69510474D01*
X122019744Y-69357738D01*
X122184272Y-69179012D01*
X122244157Y-69143024D01*
X122313995Y-69145124D01*
X122371611Y-69184648D01*
X122398713Y-69249047D01*
X122399500Y-69262997D01*
X122399500Y-69699903D01*
X122379815Y-69766942D01*
X122363181Y-69787584D01*
X121537584Y-70613181D01*
X121476261Y-70646666D01*
X121449903Y-70649500D01*
X120956116Y-70649500D01*
X120889077Y-70629815D01*
X120843322Y-70577011D01*
X120842560Y-70575311D01*
X120824172Y-70533391D01*
X120688166Y-70325217D01*
X120618928Y-70250005D01*
X120519744Y-70142262D01*
X120323509Y-69989526D01*
X120323507Y-69989525D01*
X120323506Y-69989524D01*
X120104811Y-69871172D01*
X120104802Y-69871169D01*
X119869616Y-69790429D01*
X119624335Y-69749500D01*
X119375665Y-69749500D01*
X119130383Y-69790429D01*
X118895197Y-69871169D01*
X118895188Y-69871172D01*
X118676493Y-69989524D01*
X118480257Y-70142261D01*
X118311833Y-70325217D01*
X118175827Y-70533391D01*
X118113282Y-70675979D01*
X118068325Y-70729464D01*
X118001589Y-70750154D01*
X117934261Y-70731479D01*
X117887718Y-70679368D01*
X117886170Y-70675978D01*
X117823731Y-70533630D01*
X117723434Y-70380116D01*
X117023787Y-71079764D01*
X117012518Y-71037708D01*
X116940110Y-70912292D01*
X116837708Y-70809890D01*
X116712292Y-70737482D01*
X116670235Y-70726212D01*
X117370057Y-70026390D01*
X117370056Y-70026389D01*
X117323229Y-69989943D01*
X117104614Y-69871635D01*
X117104604Y-69871630D01*
X117091934Y-69867281D01*
X117034919Y-69826896D01*
X117008788Y-69762096D01*
X117021839Y-69693456D01*
X117069928Y-69642769D01*
X117091934Y-69632719D01*
X117104604Y-69628369D01*
X117104614Y-69628364D01*
X117323228Y-69510057D01*
X117323231Y-69510055D01*
X117370056Y-69473609D01*
X116670234Y-68773787D01*
X116712292Y-68762518D01*
X116837708Y-68690110D01*
X116940110Y-68587708D01*
X117012518Y-68462292D01*
X117023787Y-68420235D01*
X117723434Y-69119882D01*
X117823731Y-68966369D01*
X117923587Y-68738717D01*
X117984612Y-68497738D01*
X117984614Y-68497729D01*
X118005141Y-68250005D01*
X118005141Y-68249994D01*
X117984614Y-68002270D01*
X117984612Y-68002261D01*
X117923587Y-67761282D01*
X117823731Y-67533630D01*
X117723434Y-67380116D01*
X117023787Y-68079764D01*
X117012518Y-68037708D01*
X116940110Y-67912292D01*
X116837708Y-67809890D01*
X116712292Y-67737482D01*
X116670235Y-67726212D01*
X117370057Y-67026390D01*
X117370056Y-67026389D01*
X117323229Y-66989943D01*
X117104614Y-66871635D01*
X117104603Y-66871630D01*
X116869493Y-66790916D01*
X116624293Y-66750000D01*
X116375707Y-66750000D01*
X116130506Y-66790916D01*
X115895396Y-66871630D01*
X115895390Y-66871632D01*
X115676761Y-66989949D01*
X115629942Y-67026388D01*
X115629942Y-67026390D01*
X116329765Y-67726212D01*
X116287708Y-67737482D01*
X116162292Y-67809890D01*
X116059890Y-67912292D01*
X115987482Y-68037708D01*
X115976212Y-68079764D01*
X115276564Y-67380117D01*
X115237291Y-67384190D01*
X115168579Y-67371525D01*
X115117621Y-67323723D01*
X115100500Y-67260851D01*
X115100500Y-62739147D01*
X115120185Y-62672108D01*
X115172989Y-62626353D01*
X115237292Y-62615809D01*
X115276564Y-62619882D01*
X115976212Y-61920234D01*
X115987482Y-61962292D01*
X116059890Y-62087708D01*
X116162292Y-62190110D01*
X116287708Y-62262518D01*
X116329765Y-62273787D01*
X115629942Y-62973609D01*
X115676768Y-63010055D01*
X115676770Y-63010056D01*
X115895385Y-63128364D01*
X115895396Y-63128369D01*
X116130506Y-63209083D01*
X116375707Y-63250000D01*
X116624293Y-63250000D01*
X116869493Y-63209083D01*
X117104603Y-63128369D01*
X117104614Y-63128364D01*
X117323228Y-63010057D01*
X117323231Y-63010055D01*
X117370056Y-62973609D01*
X116670234Y-62273787D01*
X116712292Y-62262518D01*
X116837708Y-62190110D01*
X116940110Y-62087708D01*
X117012518Y-61962292D01*
X117023787Y-61920235D01*
X117723434Y-62619882D01*
X117823731Y-62466369D01*
X117923587Y-62238717D01*
X117984612Y-61997738D01*
X117984614Y-61997729D01*
X118005141Y-61750005D01*
X118005141Y-61749994D01*
X117984614Y-61502270D01*
X117984612Y-61502261D01*
X117923587Y-61261282D01*
X117823731Y-61033630D01*
X117723434Y-60880116D01*
X117023787Y-61579764D01*
X117012518Y-61537708D01*
X116940110Y-61412292D01*
X116837708Y-61309890D01*
X116712292Y-61237482D01*
X116670235Y-61226212D01*
X117370057Y-60526390D01*
X117370056Y-60526389D01*
X117323229Y-60489943D01*
X117104614Y-60371635D01*
X117104603Y-60371630D01*
X116869493Y-60290916D01*
X116624293Y-60250000D01*
X116375707Y-60250000D01*
X116130506Y-60290916D01*
X115895396Y-60371630D01*
X115895390Y-60371632D01*
X115676761Y-60489949D01*
X115629942Y-60526388D01*
X115629942Y-60526390D01*
X116329765Y-61226212D01*
X116287708Y-61237482D01*
X116162292Y-61309890D01*
X116059890Y-61412292D01*
X115987482Y-61537708D01*
X115976212Y-61579764D01*
X115276564Y-60880117D01*
X115237291Y-60884190D01*
X115168579Y-60871525D01*
X115117621Y-60823723D01*
X115100500Y-60760851D01*
X115100500Y-59865783D01*
X115120185Y-59798744D01*
X115136819Y-59778102D01*
X116202505Y-58712416D01*
X117270584Y-57644336D01*
X117331905Y-57610853D01*
X117401597Y-57615837D01*
X117457530Y-57657709D01*
X117481947Y-57723173D01*
X117480736Y-57751416D01*
X117467000Y-57838145D01*
X117467000Y-58161853D01*
X117502778Y-58387746D01*
X117502778Y-58387749D01*
X117573450Y-58605255D01*
X117638569Y-58733058D01*
X117677283Y-58809038D01*
X117811714Y-58994066D01*
X117973434Y-59155786D01*
X118158462Y-59290217D01*
X118304025Y-59364385D01*
X118362244Y-59394049D01*
X118579751Y-59464721D01*
X118579752Y-59464721D01*
X118579755Y-59464722D01*
X118805646Y-59500500D01*
X118805647Y-59500500D01*
X119034353Y-59500500D01*
X119034354Y-59500500D01*
X119260245Y-59464722D01*
X119260248Y-59464721D01*
X119260249Y-59464721D01*
X119477755Y-59394049D01*
X119477755Y-59394048D01*
X119477758Y-59394048D01*
X119681538Y-59290217D01*
X119866566Y-59155786D01*
X120028286Y-58994066D01*
X120089992Y-58909134D01*
X120145319Y-58866470D01*
X120214932Y-58860491D01*
X120276727Y-58893096D01*
X120290626Y-58909135D01*
X120352097Y-58993741D01*
X120352097Y-58993742D01*
X120513757Y-59155402D01*
X120698723Y-59289788D01*
X120902429Y-59393582D01*
X121119871Y-59464234D01*
X121210000Y-59478509D01*
X121210000Y-58490747D01*
X121247708Y-58512518D01*
X121387591Y-58550000D01*
X121532409Y-58550000D01*
X121672292Y-58512518D01*
X121710000Y-58490747D01*
X121710000Y-59478508D01*
X121800128Y-59464234D01*
X122017570Y-59393582D01*
X122221276Y-59289788D01*
X122404059Y-59156988D01*
X122469865Y-59133508D01*
X122537919Y-59149333D01*
X122586614Y-59199439D01*
X122593127Y-59213974D01*
X122603701Y-59242326D01*
X122603706Y-59242335D01*
X122689952Y-59357544D01*
X122689955Y-59357547D01*
X122805164Y-59443793D01*
X122805171Y-59443797D01*
X122940017Y-59494091D01*
X122940016Y-59494091D01*
X122946944Y-59494835D01*
X122999627Y-59500500D01*
X124100902Y-59500499D01*
X124167941Y-59520184D01*
X124213696Y-59572987D01*
X124223640Y-59642146D01*
X124194615Y-59705702D01*
X124188583Y-59712180D01*
X122787584Y-61113181D01*
X122726261Y-61146666D01*
X122699903Y-61149500D01*
X122456116Y-61149500D01*
X122389077Y-61129815D01*
X122343322Y-61077011D01*
X122342560Y-61075311D01*
X122324172Y-61033391D01*
X122188166Y-60825217D01*
X122133373Y-60765696D01*
X122019744Y-60642262D01*
X121823509Y-60489526D01*
X121823507Y-60489525D01*
X121823506Y-60489524D01*
X121604811Y-60371172D01*
X121604802Y-60371169D01*
X121369616Y-60290429D01*
X121124335Y-60249500D01*
X120875665Y-60249500D01*
X120630383Y-60290429D01*
X120395197Y-60371169D01*
X120395188Y-60371172D01*
X120176493Y-60489524D01*
X119994359Y-60631285D01*
X119980256Y-60642262D01*
X119979750Y-60642812D01*
X119811833Y-60825217D01*
X119675826Y-61033393D01*
X119575936Y-61261118D01*
X119514892Y-61502175D01*
X119514890Y-61502187D01*
X119494357Y-61749994D01*
X119494357Y-61750005D01*
X119514890Y-61997812D01*
X119514892Y-61997824D01*
X119575936Y-62238881D01*
X119675826Y-62466606D01*
X119811833Y-62674782D01*
X119811836Y-62674785D01*
X119980256Y-62857738D01*
X120176491Y-63010474D01*
X120176493Y-63010475D01*
X120394332Y-63128364D01*
X120395190Y-63128828D01*
X120513713Y-63169517D01*
X120628964Y-63209083D01*
X120630386Y-63209571D01*
X120875665Y-63250500D01*
X121124335Y-63250500D01*
X121369614Y-63209571D01*
X121604810Y-63128828D01*
X121823509Y-63010474D01*
X122019744Y-62857738D01*
X122188164Y-62674785D01*
X122324173Y-62466607D01*
X122342560Y-62424689D01*
X122387517Y-62371204D01*
X122454253Y-62350514D01*
X122456116Y-62350500D01*
X122913331Y-62350500D01*
X122913347Y-62350501D01*
X122920943Y-62350501D01*
X123079054Y-62350501D01*
X123079057Y-62350501D01*
X123231785Y-62309577D01*
X123281904Y-62280639D01*
X123368716Y-62230520D01*
X123480520Y-62118716D01*
X123480520Y-62118714D01*
X123490728Y-62108507D01*
X123490729Y-62108504D01*
X126480520Y-59118716D01*
X126559577Y-58981784D01*
X126600501Y-58829057D01*
X126600501Y-58670942D01*
X126600501Y-58663347D01*
X126600500Y-58663329D01*
X126600500Y-56054499D01*
X126620185Y-55987460D01*
X126672989Y-55941705D01*
X126724500Y-55930499D01*
X128257871Y-55930499D01*
X128257872Y-55930499D01*
X128317483Y-55924091D01*
X128452331Y-55873796D01*
X128555690Y-55796421D01*
X128621152Y-55772004D01*
X128689425Y-55786855D01*
X128704303Y-55796416D01*
X128802844Y-55870184D01*
X128807668Y-55873795D01*
X128807671Y-55873797D01*
X128942517Y-55924091D01*
X128942516Y-55924091D01*
X128949444Y-55924835D01*
X129002127Y-55930500D01*
X130797872Y-55930499D01*
X130857483Y-55924091D01*
X130992331Y-55873796D01*
X131095690Y-55796421D01*
X131161152Y-55772004D01*
X131229425Y-55786855D01*
G37*
G04 #@! TD.AperFunction*
G04 #@! TA.AperFunction,Conductor*
G36*
X126318834Y-62632915D02*
G01*
X126374767Y-62674787D01*
X126399184Y-62740251D01*
X126399500Y-62749097D01*
X126399500Y-69794951D01*
X126379815Y-69861990D01*
X126334518Y-69904006D01*
X126176493Y-69989524D01*
X125980257Y-70142261D01*
X125811833Y-70325217D01*
X125675827Y-70533391D01*
X125613282Y-70675979D01*
X125568325Y-70729464D01*
X125501589Y-70750154D01*
X125434261Y-70731479D01*
X125387718Y-70679368D01*
X125386170Y-70675978D01*
X125323731Y-70533630D01*
X125223434Y-70380116D01*
X124523787Y-71079764D01*
X124512518Y-71037708D01*
X124440110Y-70912292D01*
X124337708Y-70809890D01*
X124212292Y-70737482D01*
X124170233Y-70726212D01*
X124870057Y-70026389D01*
X124823229Y-69989943D01*
X124604614Y-69871635D01*
X124604603Y-69871630D01*
X124369493Y-69790916D01*
X124124293Y-69750000D01*
X123875707Y-69750000D01*
X123744910Y-69771826D01*
X123675544Y-69763444D01*
X123621722Y-69718891D01*
X123600532Y-69652312D01*
X123600500Y-69649517D01*
X123600500Y-65300097D01*
X123620185Y-65233058D01*
X123636819Y-65212416D01*
X126187819Y-62661416D01*
X126249142Y-62627931D01*
X126318834Y-62632915D01*
G37*
G04 #@! TD.AperFunction*
G04 #@! TA.AperFunction,Conductor*
G36*
X154315702Y-52165383D02*
G01*
X154322180Y-52171415D01*
X154363181Y-52212416D01*
X154396666Y-52273739D01*
X154399500Y-52300097D01*
X154399500Y-56699903D01*
X154379815Y-56766942D01*
X154363181Y-56787584D01*
X153287584Y-57863181D01*
X153226261Y-57896666D01*
X153199903Y-57899500D01*
X145920943Y-57899500D01*
X145768213Y-57940423D01*
X145723236Y-57966392D01*
X145723235Y-57966392D01*
X145631287Y-58019477D01*
X145631282Y-58019481D01*
X145519478Y-58131286D01*
X143353548Y-60297215D01*
X143292225Y-60330700D01*
X143225604Y-60326815D01*
X143119616Y-60290429D01*
X142874335Y-60249500D01*
X142625665Y-60249500D01*
X142380383Y-60290429D01*
X142145197Y-60371169D01*
X142145188Y-60371172D01*
X141926493Y-60489524D01*
X141744359Y-60631285D01*
X141730256Y-60642262D01*
X141729750Y-60642812D01*
X141561833Y-60825217D01*
X141425826Y-61033393D01*
X141325936Y-61261118D01*
X141264892Y-61502175D01*
X141264890Y-61502187D01*
X141244357Y-61749994D01*
X141244357Y-61750005D01*
X141264890Y-61997812D01*
X141264892Y-61997824D01*
X141325936Y-62238881D01*
X141425826Y-62466606D01*
X141561833Y-62674782D01*
X141561836Y-62674785D01*
X141730256Y-62857738D01*
X141926491Y-63010474D01*
X141926494Y-63010476D01*
X141926496Y-63010477D01*
X141992609Y-63046255D01*
X142084517Y-63095993D01*
X142134108Y-63145212D01*
X142149500Y-63205048D01*
X142149500Y-66794951D01*
X142129815Y-66861990D01*
X142084518Y-66904006D01*
X141926493Y-66989524D01*
X141730257Y-67142261D01*
X141561833Y-67325217D01*
X141425826Y-67533393D01*
X141325936Y-67761118D01*
X141264892Y-68002175D01*
X141264890Y-68002187D01*
X141244357Y-68249994D01*
X141244357Y-68250005D01*
X141264890Y-68497812D01*
X141264892Y-68497824D01*
X141325936Y-68738881D01*
X141425826Y-68966606D01*
X141561833Y-69174782D01*
X141594245Y-69209991D01*
X141730256Y-69357738D01*
X141926491Y-69510474D01*
X141937525Y-69516445D01*
X141987115Y-69565665D01*
X142002223Y-69633881D01*
X141978053Y-69699437D01*
X141922277Y-69741518D01*
X141878507Y-69749500D01*
X141875665Y-69749500D01*
X141630383Y-69790429D01*
X141395197Y-69871169D01*
X141395188Y-69871172D01*
X141176493Y-69989524D01*
X140980257Y-70142261D01*
X140811833Y-70325217D01*
X140675827Y-70533391D01*
X140613282Y-70675979D01*
X140568325Y-70729464D01*
X140501589Y-70750154D01*
X140434261Y-70731479D01*
X140387718Y-70679368D01*
X140386170Y-70675978D01*
X140323731Y-70533630D01*
X140223434Y-70380116D01*
X139523787Y-71079764D01*
X139512518Y-71037708D01*
X139440110Y-70912292D01*
X139337708Y-70809890D01*
X139212292Y-70737482D01*
X139170235Y-70726212D01*
X139870057Y-70026390D01*
X139870056Y-70026389D01*
X139823229Y-69989943D01*
X139604614Y-69871635D01*
X139604603Y-69871630D01*
X139369493Y-69790916D01*
X139124293Y-69750000D01*
X139119518Y-69750000D01*
X139052479Y-69730315D01*
X139006724Y-69677511D01*
X138996780Y-69608353D01*
X139025805Y-69544797D01*
X139060500Y-69516945D01*
X139073232Y-69510054D01*
X139120056Y-69473609D01*
X138420234Y-68773787D01*
X138462292Y-68762518D01*
X138587708Y-68690110D01*
X138690110Y-68587708D01*
X138762518Y-68462292D01*
X138773787Y-68420235D01*
X139473434Y-69119882D01*
X139573731Y-68966369D01*
X139673587Y-68738717D01*
X139734612Y-68497738D01*
X139734614Y-68497729D01*
X139755141Y-68250005D01*
X139755141Y-68249994D01*
X139734614Y-68002270D01*
X139734612Y-68002261D01*
X139673587Y-67761282D01*
X139573731Y-67533630D01*
X139473434Y-67380116D01*
X138773787Y-68079764D01*
X138762518Y-68037708D01*
X138690110Y-67912292D01*
X138587708Y-67809890D01*
X138462292Y-67737482D01*
X138420234Y-67726212D01*
X139120057Y-67026389D01*
X139073229Y-66989943D01*
X138854614Y-66871635D01*
X138854603Y-66871630D01*
X138619493Y-66790916D01*
X138374293Y-66750000D01*
X138125707Y-66750000D01*
X137880506Y-66790916D01*
X137714763Y-66847816D01*
X137644964Y-66850966D01*
X137584543Y-66815880D01*
X137552682Y-66753697D01*
X137550500Y-66730535D01*
X137550500Y-63269464D01*
X137570185Y-63202425D01*
X137622989Y-63156670D01*
X137692147Y-63146726D01*
X137714763Y-63152183D01*
X137880506Y-63209083D01*
X138125707Y-63250000D01*
X138374293Y-63250000D01*
X138619493Y-63209083D01*
X138854603Y-63128369D01*
X138854614Y-63128364D01*
X139073228Y-63010057D01*
X139073231Y-63010055D01*
X139120056Y-62973609D01*
X138420234Y-62273787D01*
X138462292Y-62262518D01*
X138587708Y-62190110D01*
X138690110Y-62087708D01*
X138762518Y-61962292D01*
X138773787Y-61920235D01*
X139473434Y-62619882D01*
X139573731Y-62466369D01*
X139673587Y-62238717D01*
X139734612Y-61997738D01*
X139734614Y-61997729D01*
X139755141Y-61750005D01*
X139755141Y-61749994D01*
X139734614Y-61502270D01*
X139734612Y-61502261D01*
X139673587Y-61261282D01*
X139573731Y-61033630D01*
X139473434Y-60880116D01*
X138773787Y-61579764D01*
X138762518Y-61537708D01*
X138690110Y-61412292D01*
X138587708Y-61309890D01*
X138462292Y-61237482D01*
X138420234Y-61226212D01*
X139120057Y-60526389D01*
X139073229Y-60489943D01*
X138854614Y-60371635D01*
X138854603Y-60371630D01*
X138767656Y-60341781D01*
X138710641Y-60301395D01*
X138684510Y-60236596D01*
X138697562Y-60167956D01*
X138745651Y-60117268D01*
X138807919Y-60100500D01*
X139479017Y-60100500D01*
X139479033Y-60100501D01*
X139486629Y-60100501D01*
X139644740Y-60100501D01*
X139644743Y-60100501D01*
X139797471Y-60059577D01*
X139797473Y-60059575D01*
X139797475Y-60059575D01*
X139797476Y-60059574D01*
X139856904Y-60025263D01*
X139934402Y-59980520D01*
X140046206Y-59868716D01*
X140046206Y-59868714D01*
X140056410Y-59858511D01*
X140056413Y-59858506D01*
X142278102Y-57636819D01*
X142339425Y-57603334D01*
X142365783Y-57600500D01*
X144413331Y-57600500D01*
X144413347Y-57600501D01*
X144420943Y-57600501D01*
X144579054Y-57600501D01*
X144579057Y-57600501D01*
X144731785Y-57559577D01*
X144781904Y-57530639D01*
X144868716Y-57480520D01*
X144980520Y-57368716D01*
X144980521Y-57368714D01*
X145212418Y-57136816D01*
X145273740Y-57103334D01*
X145300098Y-57100500D01*
X148913331Y-57100500D01*
X148913347Y-57100501D01*
X148920943Y-57100501D01*
X149079054Y-57100501D01*
X149079057Y-57100501D01*
X149231785Y-57059577D01*
X149301233Y-57019481D01*
X149368716Y-56980520D01*
X149480520Y-56868716D01*
X149480521Y-56868714D01*
X149712418Y-56636816D01*
X149773740Y-56603334D01*
X149800098Y-56600500D01*
X151013331Y-56600500D01*
X151013347Y-56600501D01*
X151020943Y-56600501D01*
X151179054Y-56600501D01*
X151179057Y-56600501D01*
X151331785Y-56559577D01*
X151401233Y-56519481D01*
X151468716Y-56480520D01*
X151580520Y-56368716D01*
X151580520Y-56368714D01*
X151590724Y-56358511D01*
X151590728Y-56358506D01*
X151982416Y-55966818D01*
X152043739Y-55933333D01*
X152070097Y-55930499D01*
X153657871Y-55930499D01*
X153657872Y-55930499D01*
X153717483Y-55924091D01*
X153852331Y-55873796D01*
X153967546Y-55787546D01*
X154053796Y-55672331D01*
X154104091Y-55537483D01*
X154110500Y-55477873D01*
X154110499Y-52844386D01*
X154110971Y-52833579D01*
X154115659Y-52780000D01*
X154115659Y-52779999D01*
X154110971Y-52726418D01*
X154110499Y-52715610D01*
X154110499Y-52259096D01*
X154130184Y-52192057D01*
X154182988Y-52146302D01*
X154252146Y-52136358D01*
X154315702Y-52165383D01*
G37*
G04 #@! TD.AperFunction*
G04 #@! TA.AperFunction,Conductor*
G36*
X153232155Y-59620185D02*
G01*
X153277910Y-59672989D01*
X153287854Y-59742147D01*
X153258829Y-59805703D01*
X153252797Y-59812181D01*
X152165316Y-60899660D01*
X152103993Y-60933145D01*
X152034301Y-60928161D01*
X151978368Y-60886289D01*
X151973826Y-60879800D01*
X151938168Y-60825220D01*
X151938165Y-60825217D01*
X151938164Y-60825215D01*
X151769744Y-60642262D01*
X151573509Y-60489526D01*
X151573507Y-60489525D01*
X151573506Y-60489524D01*
X151354811Y-60371172D01*
X151354802Y-60371169D01*
X151119616Y-60290429D01*
X150874335Y-60249500D01*
X150625665Y-60249500D01*
X150380383Y-60290429D01*
X150145197Y-60371169D01*
X150145188Y-60371172D01*
X149926493Y-60489524D01*
X149744359Y-60631285D01*
X149730256Y-60642262D01*
X149729750Y-60642812D01*
X149561833Y-60825217D01*
X149425826Y-61033393D01*
X149325936Y-61261118D01*
X149264892Y-61502175D01*
X149264890Y-61502187D01*
X149244357Y-61749994D01*
X149244357Y-61750005D01*
X149264890Y-61997812D01*
X149264892Y-61997824D01*
X149325936Y-62238881D01*
X149425826Y-62466606D01*
X149561833Y-62674782D01*
X149561836Y-62674785D01*
X149730256Y-62857738D01*
X149926491Y-63010474D01*
X149926494Y-63010476D01*
X149926496Y-63010477D01*
X149992609Y-63046255D01*
X150084517Y-63095993D01*
X150134108Y-63145212D01*
X150149500Y-63205048D01*
X150149500Y-66794951D01*
X150129815Y-66861990D01*
X150084518Y-66904006D01*
X149926493Y-66989524D01*
X149730257Y-67142261D01*
X149561833Y-67325217D01*
X149425826Y-67533393D01*
X149325936Y-67761118D01*
X149264892Y-68002175D01*
X149264890Y-68002187D01*
X149244357Y-68249994D01*
X149244357Y-68250005D01*
X149264890Y-68497812D01*
X149264892Y-68497824D01*
X149325936Y-68738881D01*
X149425826Y-68966606D01*
X149561833Y-69174782D01*
X149594245Y-69209991D01*
X149730256Y-69357738D01*
X149926491Y-69510474D01*
X149926494Y-69510476D01*
X149926496Y-69510477D01*
X150123897Y-69617305D01*
X150162883Y-69655999D01*
X150211022Y-69652375D01*
X150225382Y-69656358D01*
X150378964Y-69709083D01*
X150380386Y-69709571D01*
X150625665Y-69750500D01*
X150874335Y-69750500D01*
X151119614Y-69709571D01*
X151119615Y-69709570D01*
X151123813Y-69708870D01*
X151193178Y-69717252D01*
X151247000Y-69761805D01*
X151268190Y-69828384D01*
X151250022Y-69895850D01*
X151231903Y-69918860D01*
X150845398Y-70305365D01*
X150784075Y-70338850D01*
X150714383Y-70333866D01*
X150666488Y-70301667D01*
X150519747Y-70142265D01*
X150519744Y-70142262D01*
X150385413Y-70037708D01*
X150323509Y-69989526D01*
X150323507Y-69989525D01*
X150323506Y-69989524D01*
X150126101Y-69882694D01*
X150087115Y-69843999D01*
X150038977Y-69847624D01*
X150024617Y-69843641D01*
X149869616Y-69790429D01*
X149624335Y-69749500D01*
X149375665Y-69749500D01*
X149130383Y-69790429D01*
X148895197Y-69871169D01*
X148895188Y-69871172D01*
X148676493Y-69989524D01*
X148480257Y-70142261D01*
X148311833Y-70325217D01*
X148175827Y-70533391D01*
X148113282Y-70675979D01*
X148068325Y-70729464D01*
X148001589Y-70750154D01*
X147934261Y-70731479D01*
X147887718Y-70679368D01*
X147886170Y-70675978D01*
X147823731Y-70533630D01*
X147723434Y-70380116D01*
X147023787Y-71079764D01*
X147012518Y-71037708D01*
X146940110Y-70912292D01*
X146837708Y-70809890D01*
X146712292Y-70737482D01*
X146670235Y-70726212D01*
X147370057Y-70026390D01*
X147370056Y-70026389D01*
X147323229Y-69989943D01*
X147104614Y-69871635D01*
X147104603Y-69871630D01*
X146943979Y-69816487D01*
X146886963Y-69776101D01*
X146860833Y-69711301D01*
X146873885Y-69642662D01*
X146921974Y-69591974D01*
X146925225Y-69590151D01*
X147073228Y-69510056D01*
X147073231Y-69510055D01*
X147120056Y-69473609D01*
X146420234Y-68773787D01*
X146462292Y-68762518D01*
X146587708Y-68690110D01*
X146690110Y-68587708D01*
X146762518Y-68462292D01*
X146773787Y-68420235D01*
X147473434Y-69119882D01*
X147573731Y-68966369D01*
X147673587Y-68738717D01*
X147734612Y-68497738D01*
X147734614Y-68497729D01*
X147755141Y-68250005D01*
X147755141Y-68249994D01*
X147734614Y-68002270D01*
X147734612Y-68002261D01*
X147673587Y-67761282D01*
X147573731Y-67533630D01*
X147473434Y-67380116D01*
X146773787Y-68079764D01*
X146762518Y-68037708D01*
X146690110Y-67912292D01*
X146587708Y-67809890D01*
X146462292Y-67737482D01*
X146420233Y-67726212D01*
X147120057Y-67026389D01*
X147073229Y-66989943D01*
X146854614Y-66871635D01*
X146854603Y-66871630D01*
X146619493Y-66790916D01*
X146374293Y-66750000D01*
X146125707Y-66750000D01*
X145880506Y-66790916D01*
X145645396Y-66871630D01*
X145645385Y-66871635D01*
X145426771Y-66989942D01*
X145426769Y-66989943D01*
X145300662Y-67088097D01*
X145235668Y-67113739D01*
X145167128Y-67100172D01*
X145116803Y-67051704D01*
X145100500Y-66990243D01*
X145100500Y-63009756D01*
X145120185Y-62942717D01*
X145172989Y-62896962D01*
X145242147Y-62887018D01*
X145300663Y-62911903D01*
X145426768Y-63010055D01*
X145426771Y-63010057D01*
X145645385Y-63128364D01*
X145645396Y-63128369D01*
X145880506Y-63209083D01*
X146125707Y-63250000D01*
X146374293Y-63250000D01*
X146619493Y-63209083D01*
X146854603Y-63128369D01*
X146854614Y-63128364D01*
X147073228Y-63010057D01*
X147073231Y-63010055D01*
X147120056Y-62973609D01*
X146420234Y-62273787D01*
X146462292Y-62262518D01*
X146587708Y-62190110D01*
X146690110Y-62087708D01*
X146762518Y-61962292D01*
X146773787Y-61920235D01*
X147473434Y-62619882D01*
X147573731Y-62466369D01*
X147673587Y-62238717D01*
X147734612Y-61997738D01*
X147734614Y-61997729D01*
X147755141Y-61750005D01*
X147755141Y-61749994D01*
X147734614Y-61502270D01*
X147734612Y-61502261D01*
X147673587Y-61261282D01*
X147573731Y-61033630D01*
X147473434Y-60880116D01*
X146773787Y-61579764D01*
X146762518Y-61537708D01*
X146690110Y-61412292D01*
X146587708Y-61309890D01*
X146462292Y-61237482D01*
X146420234Y-61226212D01*
X147120057Y-60526389D01*
X147073229Y-60489943D01*
X146854614Y-60371635D01*
X146854603Y-60371630D01*
X146619493Y-60290916D01*
X146376180Y-60250314D01*
X146313295Y-60219863D01*
X146276855Y-60160248D01*
X146278431Y-60090396D01*
X146308905Y-60040329D01*
X146712416Y-59636819D01*
X146773739Y-59603334D01*
X146800097Y-59600500D01*
X153165116Y-59600500D01*
X153232155Y-59620185D01*
G37*
G04 #@! TD.AperFunction*
G04 #@! TA.AperFunction,Conductor*
G36*
X153305703Y-68235397D02*
G01*
X153326074Y-68257986D01*
X153461505Y-68451401D01*
X153628599Y-68618495D01*
X153725384Y-68686265D01*
X153822165Y-68754032D01*
X153822167Y-68754033D01*
X153822170Y-68754035D01*
X154036337Y-68853903D01*
X154264592Y-68915063D01*
X154452918Y-68931539D01*
X154499999Y-68935659D01*
X154500000Y-68935659D01*
X154500001Y-68935659D01*
X154539234Y-68932226D01*
X154735408Y-68915063D01*
X154963663Y-68853903D01*
X155177830Y-68754035D01*
X155204377Y-68735446D01*
X155270580Y-68713119D01*
X155338348Y-68730128D01*
X155386162Y-68781075D01*
X155399500Y-68837021D01*
X155399500Y-70260851D01*
X155379815Y-70327890D01*
X155327011Y-70373645D01*
X155262709Y-70384190D01*
X155223434Y-70380116D01*
X154523787Y-71079764D01*
X154512518Y-71037708D01*
X154440110Y-70912292D01*
X154337708Y-70809890D01*
X154212292Y-70737482D01*
X154170233Y-70726212D01*
X154870057Y-70026389D01*
X154823229Y-69989943D01*
X154604614Y-69871635D01*
X154604603Y-69871630D01*
X154369493Y-69790916D01*
X154124293Y-69750000D01*
X153875707Y-69750000D01*
X153630506Y-69790916D01*
X153395396Y-69871630D01*
X153395385Y-69871635D01*
X153175201Y-69990792D01*
X153106873Y-70005387D01*
X153041501Y-69980724D01*
X152999840Y-69924633D01*
X152995118Y-69854923D01*
X153008795Y-69819741D01*
X153059577Y-69731784D01*
X153100501Y-69579057D01*
X153100501Y-69420942D01*
X153100501Y-69413347D01*
X153100500Y-69413329D01*
X153100500Y-68329110D01*
X153120185Y-68262071D01*
X153172989Y-68216316D01*
X153242147Y-68206372D01*
X153305703Y-68235397D01*
G37*
G04 #@! TD.AperFunction*
G04 #@! TA.AperFunction,Conductor*
G36*
X104750000Y-65850000D02*
G01*
X105275500Y-65850000D01*
X105342539Y-65869685D01*
X105388294Y-65922489D01*
X105399500Y-65974000D01*
X105399500Y-67861424D01*
X105379815Y-67928463D01*
X105363181Y-67949105D01*
X104019481Y-69292804D01*
X104019477Y-69292809D01*
X104000770Y-69325213D01*
X104000769Y-69325215D01*
X103940423Y-69429737D01*
X103899499Y-69582465D01*
X103899499Y-69582467D01*
X103899499Y-69750568D01*
X103899500Y-69750581D01*
X103899500Y-69794951D01*
X103879815Y-69861990D01*
X103834518Y-69904006D01*
X103676493Y-69989524D01*
X103480257Y-70142261D01*
X103311836Y-70325215D01*
X103228309Y-70453063D01*
X103175162Y-70498419D01*
X103105931Y-70507843D01*
X103042595Y-70478341D01*
X103005264Y-70419281D01*
X103000500Y-70385241D01*
X103000500Y-65689269D01*
X103020185Y-65622230D01*
X103072989Y-65576475D01*
X103142147Y-65566531D01*
X103205703Y-65595556D01*
X103223766Y-65614958D01*
X103292809Y-65707187D01*
X103292812Y-65707190D01*
X103407906Y-65793350D01*
X103407913Y-65793354D01*
X103542620Y-65843596D01*
X103542627Y-65843598D01*
X103602155Y-65849999D01*
X103602172Y-65850000D01*
X104250000Y-65850000D01*
X104250000Y-64933012D01*
X104307007Y-64965925D01*
X104434174Y-65000000D01*
X104565826Y-65000000D01*
X104692993Y-64965925D01*
X104750000Y-64933012D01*
X104750000Y-65850000D01*
G37*
G04 #@! TD.AperFunction*
G04 #@! TA.AperFunction,Conductor*
G36*
X157237482Y-65962292D02*
G01*
X157309890Y-66087708D01*
X157412292Y-66190110D01*
X157537708Y-66262518D01*
X157579763Y-66273787D01*
X156879942Y-66973609D01*
X156926768Y-67010055D01*
X156926770Y-67010056D01*
X157145385Y-67128364D01*
X157145396Y-67128369D01*
X157232344Y-67158219D01*
X157289359Y-67198605D01*
X157315490Y-67263404D01*
X157302438Y-67332044D01*
X157254349Y-67382732D01*
X157192081Y-67399500D01*
X156586670Y-67399500D01*
X156586654Y-67399499D01*
X156579058Y-67399499D01*
X156420943Y-67399499D01*
X156344579Y-67419961D01*
X156268214Y-67440423D01*
X156268209Y-67440426D01*
X156131290Y-67519475D01*
X156131282Y-67519481D01*
X156060995Y-67589767D01*
X155999672Y-67623252D01*
X155929980Y-67618266D01*
X155874047Y-67576394D01*
X155849787Y-67512894D01*
X155835063Y-67344592D01*
X155785125Y-67158219D01*
X155773905Y-67116344D01*
X155773904Y-67116343D01*
X155773903Y-67116337D01*
X155674035Y-66902171D01*
X155673925Y-66902013D01*
X155538494Y-66708597D01*
X155510419Y-66680522D01*
X155476934Y-66619199D01*
X155481918Y-66549507D01*
X155510416Y-66505163D01*
X156061054Y-65954527D01*
X156122376Y-65921043D01*
X156192068Y-65926027D01*
X156248001Y-65967899D01*
X156268940Y-66011768D01*
X156326412Y-66238717D01*
X156426266Y-66466364D01*
X156526564Y-66619882D01*
X157226212Y-65920234D01*
X157237482Y-65962292D01*
G37*
G04 #@! TD.AperFunction*
G04 #@! TA.AperFunction,Conductor*
G36*
X109830000Y-55930000D02*
G01*
X110477828Y-55930000D01*
X110477844Y-55929999D01*
X110537372Y-55923598D01*
X110537379Y-55923596D01*
X110672086Y-55873354D01*
X110672089Y-55873352D01*
X110775271Y-55796110D01*
X110840735Y-55771692D01*
X110909008Y-55786543D01*
X110923888Y-55796105D01*
X110972366Y-55832396D01*
X111027668Y-55873795D01*
X111027671Y-55873797D01*
X111162517Y-55924091D01*
X111162516Y-55924091D01*
X111169444Y-55924835D01*
X111222127Y-55930500D01*
X113017872Y-55930499D01*
X113077483Y-55924091D01*
X113212331Y-55873796D01*
X113315690Y-55796421D01*
X113381152Y-55772004D01*
X113449425Y-55786855D01*
X113464303Y-55796416D01*
X113562844Y-55870184D01*
X113567668Y-55873795D01*
X113567671Y-55873797D01*
X113702517Y-55924091D01*
X113702516Y-55924091D01*
X113709444Y-55924835D01*
X113762127Y-55930500D01*
X115557872Y-55930499D01*
X115617483Y-55924091D01*
X115752331Y-55873796D01*
X115855690Y-55796421D01*
X115921152Y-55772004D01*
X115989425Y-55786855D01*
X116004303Y-55796416D01*
X116036809Y-55820750D01*
X116052366Y-55832396D01*
X116094236Y-55888330D01*
X116099220Y-55958022D01*
X116065735Y-56019343D01*
X113121898Y-58963181D01*
X113060575Y-58996666D01*
X113034217Y-58999500D01*
X111227001Y-58999500D01*
X111159962Y-58979815D01*
X111114207Y-58927011D01*
X111104263Y-58857853D01*
X111125426Y-58804376D01*
X111214035Y-58677830D01*
X111313903Y-58463663D01*
X111375063Y-58235408D01*
X111395659Y-58000000D01*
X111375063Y-57764592D01*
X111313903Y-57536337D01*
X111214035Y-57322171D01*
X111213036Y-57320743D01*
X111078494Y-57128597D01*
X110911402Y-56961506D01*
X110911395Y-56961501D01*
X110717834Y-56825967D01*
X110717830Y-56825965D01*
X110674378Y-56805703D01*
X110503663Y-56726097D01*
X110503659Y-56726096D01*
X110503655Y-56726094D01*
X110275413Y-56664938D01*
X110275403Y-56664936D01*
X110040001Y-56644341D01*
X110039999Y-56644341D01*
X109804596Y-56664936D01*
X109804586Y-56664938D01*
X109576344Y-56726094D01*
X109576335Y-56726098D01*
X109362171Y-56825964D01*
X109362169Y-56825965D01*
X109168597Y-56961505D01*
X109001505Y-57128597D01*
X108871575Y-57314158D01*
X108816998Y-57357783D01*
X108747500Y-57364977D01*
X108685145Y-57333454D01*
X108668425Y-57314158D01*
X108538494Y-57128597D01*
X108371402Y-56961506D01*
X108371395Y-56961501D01*
X108177834Y-56825967D01*
X108177830Y-56825965D01*
X108134378Y-56805703D01*
X107963663Y-56726097D01*
X107963659Y-56726096D01*
X107963655Y-56726094D01*
X107735413Y-56664938D01*
X107735403Y-56664936D01*
X107500001Y-56644341D01*
X107499999Y-56644341D01*
X107264596Y-56664936D01*
X107264586Y-56664938D01*
X107036344Y-56726094D01*
X107036335Y-56726098D01*
X106822171Y-56825964D01*
X106822169Y-56825965D01*
X106628600Y-56961503D01*
X106506673Y-57083430D01*
X106445350Y-57116914D01*
X106375658Y-57111930D01*
X106319725Y-57070058D01*
X106302810Y-57039081D01*
X106253797Y-56907671D01*
X106253793Y-56907664D01*
X106167547Y-56792455D01*
X106167544Y-56792452D01*
X106052335Y-56706206D01*
X106052328Y-56706202D01*
X105917482Y-56655908D01*
X105917483Y-56655908D01*
X105857883Y-56649501D01*
X105857881Y-56649500D01*
X105857873Y-56649500D01*
X105857864Y-56649500D01*
X104062129Y-56649500D01*
X104062123Y-56649501D01*
X104002516Y-56655908D01*
X103867671Y-56706202D01*
X103867664Y-56706206D01*
X103752455Y-56792452D01*
X103752452Y-56792455D01*
X103666206Y-56907664D01*
X103666202Y-56907671D01*
X103615908Y-57042517D01*
X103609501Y-57102116D01*
X103609500Y-57102135D01*
X103609500Y-58897870D01*
X103609501Y-58897876D01*
X103615908Y-58957483D01*
X103666202Y-59092328D01*
X103666206Y-59092335D01*
X103752452Y-59207544D01*
X103752455Y-59207547D01*
X103867664Y-59293793D01*
X103867671Y-59293797D01*
X104002517Y-59344091D01*
X104002516Y-59344091D01*
X104009444Y-59344835D01*
X104062127Y-59350500D01*
X105857872Y-59350499D01*
X105917483Y-59344091D01*
X106052331Y-59293796D01*
X106167546Y-59207546D01*
X106253796Y-59092331D01*
X106302810Y-58960916D01*
X106344681Y-58904984D01*
X106410145Y-58880566D01*
X106478418Y-58895417D01*
X106506673Y-58916569D01*
X106628597Y-59038493D01*
X106628603Y-59038498D01*
X106792023Y-59152926D01*
X106835648Y-59207503D01*
X106842842Y-59277001D01*
X106811319Y-59339356D01*
X106808581Y-59342182D01*
X105631286Y-60519478D01*
X105519481Y-60631282D01*
X105519480Y-60631284D01*
X105479518Y-60700501D01*
X105465207Y-60725286D01*
X105440422Y-60768215D01*
X105437315Y-60775719D01*
X105435795Y-60775089D01*
X105404394Y-60826595D01*
X105341543Y-60857118D01*
X105272169Y-60848816D01*
X105249873Y-60836410D01*
X105177830Y-60785965D01*
X105177831Y-60785965D01*
X105177829Y-60785964D01*
X105070746Y-60736031D01*
X104963663Y-60686097D01*
X104963659Y-60686096D01*
X104963655Y-60686094D01*
X104735413Y-60624938D01*
X104735403Y-60624936D01*
X104500001Y-60604341D01*
X104499999Y-60604341D01*
X104264596Y-60624936D01*
X104264586Y-60624938D01*
X104036344Y-60686094D01*
X104036335Y-60686098D01*
X103822171Y-60785964D01*
X103822169Y-60785965D01*
X103628597Y-60921505D01*
X103461505Y-61088597D01*
X103325965Y-61282169D01*
X103325964Y-61282171D01*
X103236882Y-61473208D01*
X103190709Y-61525647D01*
X103123516Y-61544799D01*
X103056635Y-61524583D01*
X103011300Y-61471418D01*
X103000500Y-61420803D01*
X103000500Y-55770102D01*
X103020185Y-55703063D01*
X103072989Y-55657308D01*
X103142147Y-55647364D01*
X103205703Y-55676389D01*
X103223762Y-55695786D01*
X103292454Y-55787546D01*
X103304311Y-55796422D01*
X103407664Y-55873793D01*
X103407671Y-55873797D01*
X103542517Y-55924091D01*
X103542516Y-55924091D01*
X103549444Y-55924835D01*
X103602127Y-55930500D01*
X105397872Y-55930499D01*
X105457483Y-55924091D01*
X105592331Y-55873796D01*
X105695690Y-55796421D01*
X105761152Y-55772004D01*
X105829425Y-55786855D01*
X105844303Y-55796416D01*
X105942844Y-55870184D01*
X105947668Y-55873795D01*
X105947671Y-55873797D01*
X106082517Y-55924091D01*
X106082516Y-55924091D01*
X106089444Y-55924835D01*
X106142127Y-55930500D01*
X107937872Y-55930499D01*
X107997483Y-55924091D01*
X108132331Y-55873796D01*
X108236106Y-55796109D01*
X108301570Y-55771692D01*
X108369843Y-55786543D01*
X108384729Y-55796110D01*
X108487910Y-55873352D01*
X108487913Y-55873354D01*
X108622620Y-55923596D01*
X108622627Y-55923598D01*
X108682155Y-55929999D01*
X108682172Y-55930000D01*
X109330000Y-55930000D01*
X109330000Y-53224560D01*
X109383147Y-53255245D01*
X109512857Y-53290000D01*
X109647143Y-53290000D01*
X109776853Y-53255245D01*
X109830000Y-53224560D01*
X109830000Y-55930000D01*
G37*
G04 #@! TD.AperFunction*
G04 #@! TA.AperFunction,Conductor*
G36*
X174942539Y-31770185D02*
G01*
X174988294Y-31822989D01*
X174999500Y-31874500D01*
X174999500Y-59850902D01*
X174979815Y-59917941D01*
X174927011Y-59963696D01*
X174857853Y-59973640D01*
X174794297Y-59944615D01*
X174787819Y-59938583D01*
X173487590Y-58638355D01*
X173487588Y-58638352D01*
X173368717Y-58519481D01*
X173368716Y-58519480D01*
X173272037Y-58463663D01*
X173272036Y-58463662D01*
X173231783Y-58440422D01*
X173175881Y-58425443D01*
X173079057Y-58399499D01*
X172920943Y-58399499D01*
X172913347Y-58399499D01*
X172913331Y-58399500D01*
X168300097Y-58399500D01*
X168233058Y-58379815D01*
X168212416Y-58363181D01*
X167330700Y-57481465D01*
X167297215Y-57420142D01*
X167295163Y-57407686D01*
X167285368Y-57320745D01*
X167225789Y-57150478D01*
X167129816Y-56997738D01*
X167002262Y-56870184D01*
X166960931Y-56844214D01*
X166849523Y-56774211D01*
X166679254Y-56714631D01*
X166679249Y-56714630D01*
X166500004Y-56694435D01*
X166499996Y-56694435D01*
X166320750Y-56714630D01*
X166320745Y-56714631D01*
X166150476Y-56774211D01*
X165997737Y-56870184D01*
X165870184Y-56997737D01*
X165774211Y-57150476D01*
X165714631Y-57320745D01*
X165714630Y-57320750D01*
X165694435Y-57499996D01*
X165694435Y-57500003D01*
X165714630Y-57679249D01*
X165714631Y-57679254D01*
X165774211Y-57849523D01*
X165805614Y-57899500D01*
X165870184Y-58002262D01*
X165997738Y-58129816D01*
X166150478Y-58225789D01*
X166320745Y-58285368D01*
X166407669Y-58295161D01*
X166472080Y-58322226D01*
X166481465Y-58330700D01*
X167515139Y-59364374D01*
X167515149Y-59364385D01*
X167519479Y-59368715D01*
X167519480Y-59368716D01*
X167631284Y-59480520D01*
X167631286Y-59480521D01*
X167631290Y-59480524D01*
X167768209Y-59559573D01*
X167768216Y-59559577D01*
X167880019Y-59589534D01*
X167920942Y-59600500D01*
X167920943Y-59600500D01*
X172699903Y-59600500D01*
X172766942Y-59620185D01*
X172787584Y-59636819D01*
X173713200Y-60562435D01*
X173746685Y-60623758D01*
X173741701Y-60693450D01*
X173699829Y-60749383D01*
X173634365Y-60773800D01*
X173566092Y-60758948D01*
X173549358Y-60747970D01*
X173541876Y-60742147D01*
X173538509Y-60739526D01*
X173538508Y-60739525D01*
X173319811Y-60621172D01*
X173319802Y-60621169D01*
X173084616Y-60540429D01*
X172839335Y-60499500D01*
X172590665Y-60499500D01*
X172345383Y-60540429D01*
X172110197Y-60621169D01*
X172110188Y-60621172D01*
X171906955Y-60731157D01*
X171891491Y-60739526D01*
X171847456Y-60773800D01*
X171807800Y-60804665D01*
X171742805Y-60830307D01*
X171674265Y-60816740D01*
X171623941Y-60768271D01*
X171622709Y-60765638D01*
X171622604Y-60765696D01*
X171618350Y-60757906D01*
X171532190Y-60642812D01*
X171532187Y-60642809D01*
X171417093Y-60556649D01*
X171417086Y-60556645D01*
X171282379Y-60506403D01*
X171282372Y-60506401D01*
X171222844Y-60500000D01*
X170425000Y-60500000D01*
X170425000Y-61399998D01*
X170364598Y-61374979D01*
X170239019Y-61350000D01*
X170110981Y-61350000D01*
X169985402Y-61374979D01*
X169925000Y-61399998D01*
X169925000Y-60500000D01*
X169127155Y-60500000D01*
X169067627Y-60506401D01*
X169067620Y-60506403D01*
X168932913Y-60556645D01*
X168932906Y-60556649D01*
X168817812Y-60642809D01*
X168817809Y-60642812D01*
X168731649Y-60757906D01*
X168727396Y-60765696D01*
X168724217Y-60763960D01*
X168692596Y-60806135D01*
X168627113Y-60830502D01*
X168558851Y-60815598D01*
X168542199Y-60804665D01*
X168518173Y-60785965D01*
X168458509Y-60739526D01*
X168458507Y-60739525D01*
X168458506Y-60739524D01*
X168239811Y-60621172D01*
X168239802Y-60621169D01*
X168004616Y-60540429D01*
X167759335Y-60499500D01*
X167510665Y-60499500D01*
X167265383Y-60540429D01*
X167030197Y-60621169D01*
X167030188Y-60621172D01*
X166811493Y-60739524D01*
X166615257Y-60892261D01*
X166456230Y-61065010D01*
X166396342Y-61101001D01*
X166326504Y-61098900D01*
X166273770Y-61065010D01*
X166212759Y-60998735D01*
X166114744Y-60892262D01*
X165918509Y-60739526D01*
X165918507Y-60739525D01*
X165918506Y-60739524D01*
X165699811Y-60621172D01*
X165699802Y-60621169D01*
X165464616Y-60540429D01*
X165219335Y-60499500D01*
X164970665Y-60499500D01*
X164725383Y-60540429D01*
X164490197Y-60621169D01*
X164490188Y-60621172D01*
X164271493Y-60739524D01*
X164075257Y-60892261D01*
X163916230Y-61065010D01*
X163856342Y-61101001D01*
X163786504Y-61098900D01*
X163733770Y-61065010D01*
X163672759Y-60998735D01*
X163574744Y-60892262D01*
X163378509Y-60739526D01*
X163378507Y-60739525D01*
X163378506Y-60739524D01*
X163159811Y-60621172D01*
X163159805Y-60621170D01*
X163026283Y-60575331D01*
X162969268Y-60534945D01*
X162943138Y-60470145D01*
X162956190Y-60401505D01*
X162978869Y-60370366D01*
X162980520Y-60368716D01*
X163059577Y-60231784D01*
X163100501Y-60079057D01*
X163100501Y-59920942D01*
X163100501Y-59913347D01*
X163100500Y-59913329D01*
X163100500Y-58800097D01*
X163120185Y-58733058D01*
X163136819Y-58712416D01*
X163527009Y-58322226D01*
X163980520Y-57868716D01*
X164059577Y-57731784D01*
X164100501Y-57579057D01*
X164100501Y-57420942D01*
X164100501Y-57413347D01*
X164100500Y-57413329D01*
X164100500Y-56582412D01*
X164120185Y-56515373D01*
X164127555Y-56505097D01*
X164129810Y-56502267D01*
X164129816Y-56502262D01*
X164225789Y-56349522D01*
X164285368Y-56179255D01*
X164285369Y-56179249D01*
X164305565Y-56000003D01*
X164305565Y-55999996D01*
X164285369Y-55820750D01*
X164285368Y-55820745D01*
X164276748Y-55796110D01*
X164225789Y-55650478D01*
X164223832Y-55647364D01*
X164129815Y-55497737D01*
X164002262Y-55370184D01*
X163849523Y-55274211D01*
X163679254Y-55214631D01*
X163679249Y-55214630D01*
X163500004Y-55194435D01*
X163499996Y-55194435D01*
X163320750Y-55214630D01*
X163320745Y-55214631D01*
X163150476Y-55274211D01*
X162997737Y-55370184D01*
X162870184Y-55497737D01*
X162774211Y-55650476D01*
X162714631Y-55820745D01*
X162714630Y-55820750D01*
X162694435Y-55999996D01*
X162694435Y-56000004D01*
X162701714Y-56064611D01*
X162689659Y-56133433D01*
X162642310Y-56184812D01*
X162574699Y-56202436D01*
X162564611Y-56201714D01*
X162500004Y-56194435D01*
X162499996Y-56194435D01*
X162347136Y-56211657D01*
X162278314Y-56199602D01*
X162228259Y-56154409D01*
X162143391Y-56019343D01*
X162129816Y-55997738D01*
X162002262Y-55870184D01*
X161942123Y-55832396D01*
X161849523Y-55774211D01*
X161679254Y-55714631D01*
X161679249Y-55714630D01*
X161500004Y-55694435D01*
X161499996Y-55694435D01*
X161320750Y-55714630D01*
X161320745Y-55714631D01*
X161150476Y-55774211D01*
X160997737Y-55870184D01*
X160870184Y-55997737D01*
X160774210Y-56150478D01*
X160714630Y-56320750D01*
X160704837Y-56407666D01*
X160677770Y-56472080D01*
X160669299Y-56481462D01*
X160624237Y-56526524D01*
X160624212Y-56526552D01*
X160519480Y-56631284D01*
X160476225Y-56706204D01*
X160440423Y-56768215D01*
X160399499Y-56920943D01*
X160399499Y-56920945D01*
X160399499Y-57089046D01*
X160399500Y-57089059D01*
X160399500Y-58699903D01*
X160379815Y-58766942D01*
X160363181Y-58787584D01*
X160087584Y-59063181D01*
X160026261Y-59096666D01*
X159999903Y-59099500D01*
X159324500Y-59099500D01*
X159257461Y-59079815D01*
X159211706Y-59027011D01*
X159200500Y-58975500D01*
X159200500Y-42020943D01*
X159195494Y-42002263D01*
X159195493Y-42002259D01*
X159159577Y-41868215D01*
X159101714Y-41767994D01*
X159080520Y-41731284D01*
X158968716Y-41619480D01*
X158968715Y-41619479D01*
X158964385Y-41615149D01*
X158964374Y-41615139D01*
X158830700Y-41481465D01*
X158797215Y-41420142D01*
X158795163Y-41407686D01*
X158785368Y-41320745D01*
X158725789Y-41150478D01*
X158629816Y-40997738D01*
X158502262Y-40870184D01*
X158450025Y-40837361D01*
X158349523Y-40774211D01*
X158179254Y-40714631D01*
X158179249Y-40714630D01*
X158000004Y-40694435D01*
X157999996Y-40694435D01*
X157820750Y-40714630D01*
X157820745Y-40714631D01*
X157650476Y-40774211D01*
X157497737Y-40870184D01*
X157370182Y-40997739D01*
X157329493Y-41062496D01*
X157277158Y-41108787D01*
X157208105Y-41119434D01*
X157144257Y-41091059D01*
X157105885Y-41032669D01*
X157100500Y-40996523D01*
X157100500Y-38829060D01*
X157100501Y-38829047D01*
X157100501Y-38660944D01*
X157059576Y-38508214D01*
X157059573Y-38508209D01*
X156980524Y-38371290D01*
X156980518Y-38371282D01*
X154146818Y-35537582D01*
X154113333Y-35476259D01*
X154110499Y-35449901D01*
X154110499Y-35064383D01*
X154110971Y-35053574D01*
X154115659Y-34999999D01*
X154110971Y-34946424D01*
X154110499Y-34935615D01*
X154110499Y-32302129D01*
X154110498Y-32302123D01*
X154104091Y-32242516D01*
X154053797Y-32107671D01*
X154053793Y-32107664D01*
X153967547Y-31992455D01*
X153942582Y-31973766D01*
X153900712Y-31917832D01*
X153895728Y-31848140D01*
X153929214Y-31786818D01*
X153990538Y-31753333D01*
X154016894Y-31750500D01*
X174875500Y-31750500D01*
X174942539Y-31770185D01*
G37*
G04 #@! TD.AperFunction*
G04 #@! TA.AperFunction,Conductor*
G36*
X122530000Y-53806000D02*
G01*
X122510315Y-53873039D01*
X122457511Y-53918794D01*
X122406000Y-53930000D01*
X122154000Y-53930000D01*
X122086961Y-53910315D01*
X122041206Y-53857511D01*
X122030000Y-53806000D01*
X122030000Y-53224560D01*
X122083147Y-53255245D01*
X122212857Y-53290000D01*
X122347143Y-53290000D01*
X122476853Y-53255245D01*
X122530000Y-53224560D01*
X122530000Y-53806000D01*
G37*
G04 #@! TD.AperFunction*
G04 #@! TA.AperFunction,Conductor*
G36*
X135230000Y-53806000D02*
G01*
X135210315Y-53873039D01*
X135157511Y-53918794D01*
X135106000Y-53930000D01*
X134854000Y-53930000D01*
X134786961Y-53910315D01*
X134741206Y-53857511D01*
X134730000Y-53806000D01*
X134730000Y-53224560D01*
X134783147Y-53255245D01*
X134912857Y-53290000D01*
X135047143Y-53290000D01*
X135176853Y-53255245D01*
X135230000Y-53224560D01*
X135230000Y-53806000D01*
G37*
G04 #@! TD.AperFunction*
G04 #@! TA.AperFunction,Conductor*
G36*
X147930000Y-53806000D02*
G01*
X147910315Y-53873039D01*
X147857511Y-53918794D01*
X147806000Y-53930000D01*
X147554000Y-53930000D01*
X147486961Y-53910315D01*
X147441206Y-53857511D01*
X147430000Y-53806000D01*
X147430000Y-53224560D01*
X147483147Y-53255245D01*
X147612857Y-53290000D01*
X147747143Y-53290000D01*
X147876853Y-53255245D01*
X147930000Y-53224560D01*
X147930000Y-53806000D01*
G37*
G04 #@! TD.AperFunction*
G04 #@! TA.AperFunction,Conductor*
G36*
X109773039Y-51620185D02*
G01*
X109818794Y-51672989D01*
X109830000Y-51724500D01*
X109830000Y-52335439D01*
X109776853Y-52304755D01*
X109647143Y-52270000D01*
X109512857Y-52270000D01*
X109383147Y-52304755D01*
X109330000Y-52335439D01*
X109330000Y-51724500D01*
X109349685Y-51657461D01*
X109402489Y-51611706D01*
X109454000Y-51600500D01*
X109706000Y-51600500D01*
X109773039Y-51620185D01*
G37*
G04 #@! TD.AperFunction*
G04 #@! TA.AperFunction,Conductor*
G36*
X122473039Y-51620185D02*
G01*
X122518794Y-51672989D01*
X122530000Y-51724500D01*
X122530000Y-52335439D01*
X122476853Y-52304755D01*
X122347143Y-52270000D01*
X122212857Y-52270000D01*
X122083147Y-52304755D01*
X122030000Y-52335439D01*
X122030000Y-51724500D01*
X122049685Y-51657461D01*
X122102489Y-51611706D01*
X122154000Y-51600500D01*
X122406000Y-51600500D01*
X122473039Y-51620185D01*
G37*
G04 #@! TD.AperFunction*
G04 #@! TA.AperFunction,Conductor*
G36*
X135230000Y-36350000D02*
G01*
X135877828Y-36350000D01*
X135877844Y-36349999D01*
X135937372Y-36343598D01*
X135937379Y-36343596D01*
X136072086Y-36293354D01*
X136072089Y-36293352D01*
X136175271Y-36216110D01*
X136240735Y-36191692D01*
X136309008Y-36206543D01*
X136323888Y-36216105D01*
X136427076Y-36293352D01*
X136427668Y-36293795D01*
X136427671Y-36293797D01*
X136562517Y-36344091D01*
X136562516Y-36344091D01*
X136569444Y-36344835D01*
X136622127Y-36350500D01*
X137455613Y-36350499D01*
X137466422Y-36350971D01*
X137520000Y-36355659D01*
X137573578Y-36350971D01*
X137584387Y-36350499D01*
X138417871Y-36350499D01*
X138417872Y-36350499D01*
X138477483Y-36344091D01*
X138612331Y-36293796D01*
X138715690Y-36216421D01*
X138781152Y-36192004D01*
X138849425Y-36206855D01*
X138864303Y-36216416D01*
X138967076Y-36293352D01*
X138967668Y-36293795D01*
X138967671Y-36293797D01*
X139102517Y-36344091D01*
X139102516Y-36344091D01*
X139109444Y-36344835D01*
X139162127Y-36350500D01*
X139995613Y-36350499D01*
X140006422Y-36350971D01*
X140060000Y-36355659D01*
X140113578Y-36350971D01*
X140124387Y-36350499D01*
X140957871Y-36350499D01*
X140957872Y-36350499D01*
X141017483Y-36344091D01*
X141152331Y-36293796D01*
X141255690Y-36216421D01*
X141321152Y-36192004D01*
X141389425Y-36206855D01*
X141404303Y-36216416D01*
X141507076Y-36293352D01*
X141507668Y-36293795D01*
X141507671Y-36293797D01*
X141642517Y-36344091D01*
X141642516Y-36344091D01*
X141649444Y-36344835D01*
X141702127Y-36350500D01*
X142535613Y-36350499D01*
X142546422Y-36350971D01*
X142600000Y-36355659D01*
X142653578Y-36350971D01*
X142664387Y-36350499D01*
X143049901Y-36350499D01*
X143116940Y-36370184D01*
X143137582Y-36386818D01*
X143863181Y-37112416D01*
X143896666Y-37173739D01*
X143899500Y-37200097D01*
X143899500Y-46413330D01*
X143899499Y-46413348D01*
X143899499Y-46579054D01*
X143899498Y-46579054D01*
X143899499Y-46579057D01*
X143940423Y-46731785D01*
X143940424Y-46731786D01*
X143945457Y-46740504D01*
X144019477Y-46868712D01*
X144019481Y-46868717D01*
X144138349Y-46987585D01*
X144138355Y-46987590D01*
X146515139Y-49364374D01*
X146515149Y-49364385D01*
X146519479Y-49368715D01*
X146519480Y-49368716D01*
X146631284Y-49480520D01*
X146718095Y-49530639D01*
X146718097Y-49530641D01*
X146756151Y-49552611D01*
X146768215Y-49559577D01*
X146920943Y-49600501D01*
X146920946Y-49600501D01*
X147086653Y-49600501D01*
X147086669Y-49600500D01*
X151699903Y-49600500D01*
X151766942Y-49620185D01*
X151787584Y-49636819D01*
X153368583Y-51217819D01*
X153402068Y-51279142D01*
X153397084Y-51348834D01*
X153355212Y-51404767D01*
X153289748Y-51429184D01*
X153280902Y-51429500D01*
X152824383Y-51429500D01*
X152813576Y-51429028D01*
X152760002Y-51424341D01*
X152759999Y-51424341D01*
X152732154Y-51426777D01*
X152706421Y-51429028D01*
X152695616Y-51429500D01*
X151862129Y-51429500D01*
X151862123Y-51429501D01*
X151802516Y-51435908D01*
X151667671Y-51486202D01*
X151667669Y-51486203D01*
X151564311Y-51563578D01*
X151498847Y-51587995D01*
X151430574Y-51573144D01*
X151415689Y-51563578D01*
X151312330Y-51486203D01*
X151312328Y-51486202D01*
X151177482Y-51435908D01*
X151177483Y-51435908D01*
X151117883Y-51429501D01*
X151117881Y-51429500D01*
X151117873Y-51429500D01*
X151117865Y-51429500D01*
X150284383Y-51429500D01*
X150273576Y-51429028D01*
X150220002Y-51424341D01*
X150219999Y-51424341D01*
X150192154Y-51426777D01*
X150166421Y-51429028D01*
X150155616Y-51429500D01*
X149322129Y-51429500D01*
X149322123Y-51429501D01*
X149262516Y-51435908D01*
X149127671Y-51486202D01*
X149127669Y-51486204D01*
X149023894Y-51563890D01*
X148958430Y-51588307D01*
X148890157Y-51573456D01*
X148875272Y-51563890D01*
X148772088Y-51486646D01*
X148772086Y-51486645D01*
X148637379Y-51436403D01*
X148637372Y-51436401D01*
X148577844Y-51430000D01*
X147930000Y-51430000D01*
X147930000Y-52335439D01*
X147876853Y-52304755D01*
X147747143Y-52270000D01*
X147612857Y-52270000D01*
X147483147Y-52304755D01*
X147430000Y-52335439D01*
X147430000Y-51430000D01*
X146782155Y-51430000D01*
X146722627Y-51436401D01*
X146722620Y-51436403D01*
X146587913Y-51486645D01*
X146587910Y-51486647D01*
X146484727Y-51563890D01*
X146419262Y-51588307D01*
X146350989Y-51573455D01*
X146336105Y-51563889D01*
X146232335Y-51486206D01*
X146232328Y-51486202D01*
X146097482Y-51435908D01*
X146097483Y-51435908D01*
X146037883Y-51429501D01*
X146037881Y-51429500D01*
X146037873Y-51429500D01*
X146037865Y-51429500D01*
X145204383Y-51429500D01*
X145193576Y-51429028D01*
X145140002Y-51424341D01*
X145139999Y-51424341D01*
X145112154Y-51426777D01*
X145086421Y-51429028D01*
X145075616Y-51429500D01*
X144242129Y-51429500D01*
X144242123Y-51429501D01*
X144182516Y-51435908D01*
X144047671Y-51486202D01*
X144047669Y-51486203D01*
X143944311Y-51563578D01*
X143878847Y-51587995D01*
X143810574Y-51573144D01*
X143795689Y-51563578D01*
X143692330Y-51486203D01*
X143692328Y-51486202D01*
X143557482Y-51435908D01*
X143557483Y-51435908D01*
X143497883Y-51429501D01*
X143497881Y-51429500D01*
X143497873Y-51429500D01*
X143497865Y-51429500D01*
X142664383Y-51429500D01*
X142653576Y-51429028D01*
X142600002Y-51424341D01*
X142599999Y-51424341D01*
X142572154Y-51426777D01*
X142546421Y-51429028D01*
X142535616Y-51429500D01*
X141702129Y-51429500D01*
X141702123Y-51429501D01*
X141642516Y-51435908D01*
X141507671Y-51486202D01*
X141507669Y-51486203D01*
X141404311Y-51563578D01*
X141338847Y-51587995D01*
X141270574Y-51573144D01*
X141255689Y-51563578D01*
X141152330Y-51486203D01*
X141152328Y-51486202D01*
X141017482Y-51435908D01*
X141017483Y-51435908D01*
X140957883Y-51429501D01*
X140957881Y-51429500D01*
X140957873Y-51429500D01*
X140957865Y-51429500D01*
X140124383Y-51429500D01*
X140113576Y-51429028D01*
X140060002Y-51424341D01*
X140059999Y-51424341D01*
X140032154Y-51426777D01*
X140006421Y-51429028D01*
X139995616Y-51429500D01*
X139162129Y-51429500D01*
X139162123Y-51429501D01*
X139102516Y-51435908D01*
X138967671Y-51486202D01*
X138967669Y-51486203D01*
X138864311Y-51563578D01*
X138798847Y-51587995D01*
X138730574Y-51573144D01*
X138715689Y-51563578D01*
X138612330Y-51486203D01*
X138612328Y-51486202D01*
X138477482Y-51435908D01*
X138477483Y-51435908D01*
X138417883Y-51429501D01*
X138417881Y-51429500D01*
X138417873Y-51429500D01*
X138417865Y-51429500D01*
X137584383Y-51429500D01*
X137573576Y-51429028D01*
X137520002Y-51424341D01*
X137519999Y-51424341D01*
X137492154Y-51426777D01*
X137466421Y-51429028D01*
X137455616Y-51429500D01*
X136622129Y-51429500D01*
X136622123Y-51429501D01*
X136562516Y-51435908D01*
X136427671Y-51486202D01*
X136427669Y-51486204D01*
X136323894Y-51563890D01*
X136258430Y-51588307D01*
X136190157Y-51573456D01*
X136175272Y-51563890D01*
X136072088Y-51486646D01*
X136072086Y-51486645D01*
X135937379Y-51436403D01*
X135937372Y-51436401D01*
X135877844Y-51430000D01*
X135230000Y-51430000D01*
X135230000Y-52335439D01*
X135176853Y-52304755D01*
X135047143Y-52270000D01*
X134912857Y-52270000D01*
X134783147Y-52304755D01*
X134730000Y-52335439D01*
X134730000Y-51430000D01*
X134082155Y-51430000D01*
X134022627Y-51436401D01*
X134022620Y-51436403D01*
X133893955Y-51484392D01*
X133824263Y-51489376D01*
X133762940Y-51455891D01*
X133729456Y-51394567D01*
X133733581Y-51327255D01*
X133785366Y-51179262D01*
X133785369Y-51179249D01*
X133805565Y-51000003D01*
X133805565Y-50999996D01*
X133785369Y-50820750D01*
X133785368Y-50820745D01*
X133725788Y-50650476D01*
X133629815Y-50497737D01*
X133502262Y-50370184D01*
X133349523Y-50274211D01*
X133179254Y-50214631D01*
X133179249Y-50214630D01*
X133000004Y-50194435D01*
X132999996Y-50194435D01*
X132935388Y-50201714D01*
X132866566Y-50189659D01*
X132815187Y-50142310D01*
X132797563Y-50074699D01*
X132798285Y-50064610D01*
X132805565Y-50000002D01*
X132805565Y-49999996D01*
X132785369Y-49820750D01*
X132785368Y-49820745D01*
X132725788Y-49650476D01*
X132629815Y-49497737D01*
X132502262Y-49370184D01*
X132349523Y-49274211D01*
X132179254Y-49214631D01*
X132179249Y-49214630D01*
X132000004Y-49194435D01*
X131999996Y-49194435D01*
X131935388Y-49201714D01*
X131866566Y-49189659D01*
X131815187Y-49142310D01*
X131797563Y-49074699D01*
X131798285Y-49064610D01*
X131798848Y-49059619D01*
X131805565Y-49000000D01*
X131798852Y-48940423D01*
X131785369Y-48820750D01*
X131785368Y-48820745D01*
X131725788Y-48650476D01*
X131629815Y-48497737D01*
X131502262Y-48370184D01*
X131349523Y-48274211D01*
X131179254Y-48214631D01*
X131179249Y-48214630D01*
X131000004Y-48194435D01*
X130999996Y-48194435D01*
X130820750Y-48214630D01*
X130820745Y-48214631D01*
X130650476Y-48274211D01*
X130497736Y-48370185D01*
X130494903Y-48372445D01*
X130492724Y-48373334D01*
X130491842Y-48373889D01*
X130491744Y-48373734D01*
X130430217Y-48398855D01*
X130417588Y-48399500D01*
X130086670Y-48399500D01*
X130086654Y-48399499D01*
X130079058Y-48399499D01*
X129920943Y-48399499D01*
X129844579Y-48419961D01*
X129768214Y-48440423D01*
X129768209Y-48440426D01*
X129631290Y-48519475D01*
X129631282Y-48519481D01*
X129012309Y-49138454D01*
X128950986Y-49171939D01*
X128881294Y-49166955D01*
X128825361Y-49125083D01*
X128800944Y-49059619D01*
X128801407Y-49036896D01*
X128805565Y-49000000D01*
X128798852Y-48940423D01*
X128785369Y-48820750D01*
X128785368Y-48820745D01*
X128725788Y-48650476D01*
X128629815Y-48497737D01*
X128502262Y-48370184D01*
X128349523Y-48274211D01*
X128179254Y-48214631D01*
X128179249Y-48214630D01*
X128000004Y-48194435D01*
X127999996Y-48194435D01*
X127820750Y-48214630D01*
X127820745Y-48214631D01*
X127650476Y-48274211D01*
X127497736Y-48370185D01*
X127494903Y-48372445D01*
X127492724Y-48373334D01*
X127491842Y-48373889D01*
X127491744Y-48373734D01*
X127430217Y-48398855D01*
X127417588Y-48399500D01*
X127086670Y-48399500D01*
X127086654Y-48399499D01*
X127079058Y-48399499D01*
X126920943Y-48399499D01*
X126844579Y-48419961D01*
X126768214Y-48440423D01*
X126768209Y-48440426D01*
X126631290Y-48519475D01*
X126631282Y-48519481D01*
X126287584Y-48863181D01*
X126226261Y-48896666D01*
X126199903Y-48899500D01*
X113586670Y-48899500D01*
X113586654Y-48899499D01*
X113579058Y-48899499D01*
X113420943Y-48899499D01*
X113344579Y-48919961D01*
X113268214Y-48940423D01*
X113268209Y-48940426D01*
X113131290Y-49019475D01*
X113131282Y-49019481D01*
X112287584Y-49863181D01*
X112226261Y-49896666D01*
X112199903Y-49899500D01*
X108586670Y-49899500D01*
X108586654Y-49899499D01*
X108579058Y-49899499D01*
X108420943Y-49899499D01*
X108344579Y-49919961D01*
X108268214Y-49940423D01*
X108268209Y-49940426D01*
X108131290Y-50019475D01*
X108131282Y-50019481D01*
X107287584Y-50863181D01*
X107226261Y-50896666D01*
X107199903Y-50899500D01*
X105700940Y-50899500D01*
X105660019Y-50910464D01*
X105660019Y-50910465D01*
X105622751Y-50920451D01*
X105548214Y-50940423D01*
X105548209Y-50940426D01*
X105411290Y-51019475D01*
X105411282Y-51019481D01*
X105037583Y-51393181D01*
X104976260Y-51426666D01*
X104949902Y-51429500D01*
X104564383Y-51429500D01*
X104553576Y-51429028D01*
X104500002Y-51424341D01*
X104499999Y-51424341D01*
X104472154Y-51426777D01*
X104446421Y-51429028D01*
X104435616Y-51429500D01*
X103602129Y-51429500D01*
X103602123Y-51429501D01*
X103542516Y-51435908D01*
X103407671Y-51486202D01*
X103407664Y-51486206D01*
X103292455Y-51572452D01*
X103292452Y-51572455D01*
X103223766Y-51664208D01*
X103167832Y-51706079D01*
X103098141Y-51711063D01*
X103036818Y-51677577D01*
X103003334Y-51616254D01*
X103000500Y-51589897D01*
X103000500Y-46880062D01*
X103020185Y-46813023D01*
X103072989Y-46767268D01*
X103142147Y-46757324D01*
X103205703Y-46786349D01*
X103243477Y-46845127D01*
X103244706Y-46849622D01*
X103300842Y-47071300D01*
X103394075Y-47283848D01*
X103521016Y-47478147D01*
X103521019Y-47478151D01*
X103521021Y-47478153D01*
X103678216Y-47648913D01*
X103678219Y-47648915D01*
X103678222Y-47648918D01*
X103861365Y-47791464D01*
X103861371Y-47791468D01*
X103861374Y-47791470D01*
X104065497Y-47901936D01*
X104177606Y-47940423D01*
X104285015Y-47977297D01*
X104285017Y-47977297D01*
X104285019Y-47977298D01*
X104513951Y-48015500D01*
X104513952Y-48015500D01*
X104746048Y-48015500D01*
X104746049Y-48015500D01*
X104974981Y-47977298D01*
X105194503Y-47901936D01*
X105398626Y-47791470D01*
X105401533Y-47789208D01*
X105546683Y-47676233D01*
X105581784Y-47648913D01*
X105738979Y-47478153D01*
X105865924Y-47283849D01*
X105959157Y-47071300D01*
X106016134Y-46846305D01*
X106024584Y-46744330D01*
X106035300Y-46615006D01*
X106035300Y-46614993D01*
X106016135Y-46383702D01*
X106016133Y-46383691D01*
X105998737Y-46314997D01*
X106404723Y-46314997D01*
X106404723Y-46315002D01*
X106423793Y-46532975D01*
X106423793Y-46532979D01*
X106480422Y-46744322D01*
X106480424Y-46744326D01*
X106480425Y-46744330D01*
X106494359Y-46774211D01*
X106572897Y-46942638D01*
X106572898Y-46942639D01*
X106698402Y-47121877D01*
X106853123Y-47276598D01*
X107032361Y-47402102D01*
X107230670Y-47494575D01*
X107442023Y-47551207D01*
X107624926Y-47567208D01*
X107659998Y-47570277D01*
X107660000Y-47570277D01*
X107660002Y-47570277D01*
X107688254Y-47567805D01*
X107877977Y-47551207D01*
X108089330Y-47494575D01*
X108287639Y-47402102D01*
X108466877Y-47276598D01*
X108621598Y-47121877D01*
X108747102Y-46942639D01*
X108839575Y-46744330D01*
X108896207Y-46532977D01*
X108915277Y-46315000D01*
X108896207Y-46097023D01*
X108839575Y-45885670D01*
X108747102Y-45687362D01*
X108747100Y-45687359D01*
X108747099Y-45687357D01*
X108621599Y-45508124D01*
X108552005Y-45438530D01*
X108466877Y-45353402D01*
X108287639Y-45227898D01*
X108287640Y-45227898D01*
X108287638Y-45227897D01*
X108142031Y-45160000D01*
X108089330Y-45135425D01*
X108089326Y-45135424D01*
X108089322Y-45135422D01*
X107877977Y-45078793D01*
X107660002Y-45059723D01*
X107659998Y-45059723D01*
X107514682Y-45072436D01*
X107442023Y-45078793D01*
X107442020Y-45078793D01*
X107230677Y-45135422D01*
X107230668Y-45135426D01*
X107032361Y-45227898D01*
X107032357Y-45227900D01*
X106853121Y-45353402D01*
X106698402Y-45508121D01*
X106572900Y-45687357D01*
X106572898Y-45687361D01*
X106480426Y-45885668D01*
X106480422Y-45885677D01*
X106423793Y-46097020D01*
X106423793Y-46097024D01*
X106404723Y-46314997D01*
X105998737Y-46314997D01*
X105959157Y-46158699D01*
X105865924Y-45946151D01*
X105738983Y-45751852D01*
X105738980Y-45751849D01*
X105738979Y-45751847D01*
X105581784Y-45581087D01*
X105581779Y-45581083D01*
X105581777Y-45581081D01*
X105398634Y-45438535D01*
X105398628Y-45438531D01*
X105194504Y-45328064D01*
X105194495Y-45328061D01*
X104974984Y-45252702D01*
X104793715Y-45222454D01*
X104746049Y-45214500D01*
X104513951Y-45214500D01*
X104484431Y-45219426D01*
X104285015Y-45252702D01*
X104065504Y-45328061D01*
X104065495Y-45328064D01*
X103861371Y-45438531D01*
X103861365Y-45438535D01*
X103678222Y-45581081D01*
X103678219Y-45581084D01*
X103521016Y-45751852D01*
X103394075Y-45946151D01*
X103300843Y-46158698D01*
X103244706Y-46380378D01*
X103209166Y-46440533D01*
X103146746Y-46471925D01*
X103077262Y-46464587D01*
X103022777Y-46420848D01*
X103000588Y-46354595D01*
X103000500Y-46349937D01*
X103000500Y-41430062D01*
X103020185Y-41363023D01*
X103072989Y-41317268D01*
X103142147Y-41307324D01*
X103205703Y-41336349D01*
X103243477Y-41395127D01*
X103244706Y-41399622D01*
X103300842Y-41621300D01*
X103394075Y-41833848D01*
X103521016Y-42028147D01*
X103521019Y-42028151D01*
X103521021Y-42028153D01*
X103678216Y-42198913D01*
X103678219Y-42198915D01*
X103678222Y-42198918D01*
X103861365Y-42341464D01*
X103861371Y-42341468D01*
X103861374Y-42341470D01*
X103874799Y-42348735D01*
X104047748Y-42442331D01*
X104065497Y-42451936D01*
X104179487Y-42491068D01*
X104285015Y-42527297D01*
X104285017Y-42527297D01*
X104285019Y-42527298D01*
X104513951Y-42565500D01*
X104513952Y-42565500D01*
X104746048Y-42565500D01*
X104746049Y-42565500D01*
X104974981Y-42527298D01*
X105194503Y-42451936D01*
X105398626Y-42341470D01*
X105425998Y-42320166D01*
X105518884Y-42247870D01*
X105581784Y-42198913D01*
X105738979Y-42028153D01*
X105865924Y-41833849D01*
X105959157Y-41621300D01*
X105998738Y-41465000D01*
X106404723Y-41465000D01*
X106423467Y-41679255D01*
X106423793Y-41682975D01*
X106423793Y-41682979D01*
X106480422Y-41894322D01*
X106480424Y-41894326D01*
X106480425Y-41894330D01*
X106526661Y-41993484D01*
X106572897Y-42092638D01*
X106572898Y-42092639D01*
X106698402Y-42271877D01*
X106853123Y-42426598D01*
X107032361Y-42552102D01*
X107230670Y-42644575D01*
X107442023Y-42701207D01*
X107624926Y-42717208D01*
X107659998Y-42720277D01*
X107660000Y-42720277D01*
X107660002Y-42720277D01*
X107688254Y-42717805D01*
X107877977Y-42701207D01*
X108089330Y-42644575D01*
X108287639Y-42552102D01*
X108466877Y-42426598D01*
X108621598Y-42271877D01*
X108747102Y-42092639D01*
X108839575Y-41894330D01*
X108896207Y-41682977D01*
X108915277Y-41465000D01*
X108896207Y-41247023D01*
X108859167Y-41108787D01*
X108839577Y-41035677D01*
X108839576Y-41035676D01*
X108839575Y-41035670D01*
X108747102Y-40837362D01*
X108747100Y-40837359D01*
X108747099Y-40837357D01*
X108621599Y-40658124D01*
X108621596Y-40658121D01*
X108466877Y-40503402D01*
X108287639Y-40377898D01*
X108287640Y-40377898D01*
X108287638Y-40377897D01*
X108188484Y-40331661D01*
X108089330Y-40285425D01*
X108089326Y-40285424D01*
X108089322Y-40285422D01*
X107877977Y-40228793D01*
X107660002Y-40209723D01*
X107659998Y-40209723D01*
X107514682Y-40222436D01*
X107442023Y-40228793D01*
X107442020Y-40228793D01*
X107230677Y-40285422D01*
X107230668Y-40285426D01*
X107032361Y-40377898D01*
X107032357Y-40377900D01*
X106853121Y-40503402D01*
X106698402Y-40658121D01*
X106572900Y-40837357D01*
X106572898Y-40837361D01*
X106480426Y-41035668D01*
X106480422Y-41035677D01*
X106423793Y-41247020D01*
X106423793Y-41247024D01*
X106405967Y-41450784D01*
X106404723Y-41465000D01*
X105998738Y-41465000D01*
X106016134Y-41396305D01*
X106023507Y-41307324D01*
X106035300Y-41165006D01*
X106035300Y-41164993D01*
X106016135Y-40933702D01*
X106016133Y-40933691D01*
X105959157Y-40708699D01*
X105865924Y-40496151D01*
X105738983Y-40301852D01*
X105738980Y-40301849D01*
X105738979Y-40301847D01*
X105581784Y-40131087D01*
X105581779Y-40131083D01*
X105581777Y-40131081D01*
X105398634Y-39988535D01*
X105398628Y-39988531D01*
X105194504Y-39878064D01*
X105194495Y-39878061D01*
X104974984Y-39802702D01*
X104803282Y-39774050D01*
X104746049Y-39764500D01*
X104513951Y-39764500D01*
X104468164Y-39772140D01*
X104285015Y-39802702D01*
X104065504Y-39878061D01*
X104065495Y-39878064D01*
X103861371Y-39988531D01*
X103861365Y-39988535D01*
X103678222Y-40131081D01*
X103678219Y-40131084D01*
X103521016Y-40301852D01*
X103394075Y-40496151D01*
X103300843Y-40708698D01*
X103244706Y-40930378D01*
X103209166Y-40990533D01*
X103146746Y-41021925D01*
X103077262Y-41014587D01*
X103022777Y-40970848D01*
X103000588Y-40904595D01*
X103000500Y-40899937D01*
X103000500Y-36190102D01*
X103020185Y-36123063D01*
X103072989Y-36077308D01*
X103142147Y-36067364D01*
X103205703Y-36096389D01*
X103223762Y-36115786D01*
X103292454Y-36207546D01*
X103304311Y-36216422D01*
X103407664Y-36293793D01*
X103407671Y-36293797D01*
X103542517Y-36344091D01*
X103542516Y-36344091D01*
X103549444Y-36344835D01*
X103602127Y-36350500D01*
X104435613Y-36350499D01*
X104446422Y-36350971D01*
X104500000Y-36355659D01*
X104553578Y-36350971D01*
X104564387Y-36350499D01*
X105397871Y-36350499D01*
X105397872Y-36350499D01*
X105457483Y-36344091D01*
X105592331Y-36293796D01*
X105695690Y-36216421D01*
X105761152Y-36192004D01*
X105829425Y-36206855D01*
X105844303Y-36216416D01*
X105947076Y-36293352D01*
X105947668Y-36293795D01*
X105947671Y-36293797D01*
X106082517Y-36344091D01*
X106082516Y-36344091D01*
X106089444Y-36344835D01*
X106142127Y-36350500D01*
X106975613Y-36350499D01*
X106986422Y-36350971D01*
X107040000Y-36355659D01*
X107093578Y-36350971D01*
X107104387Y-36350499D01*
X107937871Y-36350499D01*
X107937872Y-36350499D01*
X107997483Y-36344091D01*
X108132331Y-36293796D01*
X108236106Y-36216109D01*
X108301570Y-36191692D01*
X108369843Y-36206543D01*
X108384729Y-36216110D01*
X108487910Y-36293352D01*
X108487913Y-36293354D01*
X108622620Y-36343596D01*
X108622627Y-36343598D01*
X108682155Y-36349999D01*
X108682172Y-36350000D01*
X109330000Y-36350000D01*
X109330000Y-35444560D01*
X109383147Y-35475245D01*
X109512857Y-35510000D01*
X109647143Y-35510000D01*
X109776853Y-35475245D01*
X109830000Y-35444560D01*
X109830000Y-36350000D01*
X110477828Y-36350000D01*
X110477844Y-36349999D01*
X110537372Y-36343598D01*
X110537379Y-36343596D01*
X110672086Y-36293354D01*
X110672089Y-36293352D01*
X110775271Y-36216110D01*
X110840735Y-36191692D01*
X110909008Y-36206543D01*
X110923888Y-36216105D01*
X111027076Y-36293352D01*
X111027668Y-36293795D01*
X111027671Y-36293797D01*
X111162517Y-36344091D01*
X111162516Y-36344091D01*
X111169444Y-36344835D01*
X111222127Y-36350500D01*
X112055613Y-36350499D01*
X112066422Y-36350971D01*
X112120000Y-36355659D01*
X112173578Y-36350971D01*
X112184387Y-36350499D01*
X113017871Y-36350499D01*
X113017872Y-36350499D01*
X113077483Y-36344091D01*
X113212331Y-36293796D01*
X113315690Y-36216421D01*
X113381152Y-36192004D01*
X113449425Y-36206855D01*
X113464303Y-36216416D01*
X113567076Y-36293352D01*
X113567668Y-36293795D01*
X113567671Y-36293797D01*
X113702517Y-36344091D01*
X113702516Y-36344091D01*
X113709444Y-36344835D01*
X113762127Y-36350500D01*
X114595613Y-36350499D01*
X114606422Y-36350971D01*
X114660000Y-36355659D01*
X114713578Y-36350971D01*
X114724387Y-36350499D01*
X115557871Y-36350499D01*
X115557872Y-36350499D01*
X115617483Y-36344091D01*
X115752331Y-36293796D01*
X115855690Y-36216421D01*
X115921152Y-36192004D01*
X115989425Y-36206855D01*
X116004303Y-36216416D01*
X116107076Y-36293352D01*
X116107668Y-36293795D01*
X116107671Y-36293797D01*
X116242517Y-36344091D01*
X116242516Y-36344091D01*
X116249444Y-36344835D01*
X116302127Y-36350500D01*
X117135613Y-36350499D01*
X117146422Y-36350971D01*
X117200000Y-36355659D01*
X117253578Y-36350971D01*
X117264387Y-36350499D01*
X118097871Y-36350499D01*
X118097872Y-36350499D01*
X118157483Y-36344091D01*
X118292331Y-36293796D01*
X118395690Y-36216421D01*
X118461152Y-36192004D01*
X118529425Y-36206855D01*
X118544303Y-36216416D01*
X118647076Y-36293352D01*
X118647668Y-36293795D01*
X118647671Y-36293797D01*
X118782517Y-36344091D01*
X118782516Y-36344091D01*
X118789444Y-36344835D01*
X118842127Y-36350500D01*
X119675613Y-36350499D01*
X119686422Y-36350971D01*
X119740000Y-36355659D01*
X119793578Y-36350971D01*
X119804387Y-36350499D01*
X120637871Y-36350499D01*
X120637872Y-36350499D01*
X120697483Y-36344091D01*
X120832331Y-36293796D01*
X120936106Y-36216109D01*
X121001570Y-36191692D01*
X121069843Y-36206543D01*
X121084729Y-36216110D01*
X121187910Y-36293352D01*
X121187913Y-36293354D01*
X121322620Y-36343596D01*
X121322627Y-36343598D01*
X121382155Y-36349999D01*
X121382172Y-36350000D01*
X122030000Y-36350000D01*
X122030000Y-35444560D01*
X122083147Y-35475245D01*
X122212857Y-35510000D01*
X122347143Y-35510000D01*
X122476853Y-35475245D01*
X122530000Y-35444560D01*
X122530000Y-36350000D01*
X123177828Y-36350000D01*
X123177844Y-36349999D01*
X123237372Y-36343598D01*
X123237379Y-36343596D01*
X123372086Y-36293354D01*
X123372089Y-36293352D01*
X123475271Y-36216110D01*
X123540735Y-36191692D01*
X123609008Y-36206543D01*
X123623888Y-36216105D01*
X123727076Y-36293352D01*
X123727668Y-36293795D01*
X123727671Y-36293797D01*
X123862517Y-36344091D01*
X123862516Y-36344091D01*
X123869444Y-36344835D01*
X123922127Y-36350500D01*
X124755613Y-36350499D01*
X124766422Y-36350971D01*
X124820000Y-36355659D01*
X124873578Y-36350971D01*
X124884387Y-36350499D01*
X125717871Y-36350499D01*
X125717872Y-36350499D01*
X125777483Y-36344091D01*
X125912331Y-36293796D01*
X126015690Y-36216421D01*
X126081152Y-36192004D01*
X126149425Y-36206855D01*
X126164303Y-36216416D01*
X126267076Y-36293352D01*
X126267668Y-36293795D01*
X126267671Y-36293797D01*
X126402517Y-36344091D01*
X126402516Y-36344091D01*
X126409444Y-36344835D01*
X126462127Y-36350500D01*
X127295613Y-36350499D01*
X127306422Y-36350971D01*
X127360000Y-36355659D01*
X127413578Y-36350971D01*
X127424387Y-36350499D01*
X128257871Y-36350499D01*
X128257872Y-36350499D01*
X128317483Y-36344091D01*
X128452331Y-36293796D01*
X128555690Y-36216421D01*
X128621152Y-36192004D01*
X128689425Y-36206855D01*
X128704303Y-36216416D01*
X128807076Y-36293352D01*
X128807668Y-36293795D01*
X128807671Y-36293797D01*
X128942517Y-36344091D01*
X128942516Y-36344091D01*
X128949444Y-36344835D01*
X129002127Y-36350500D01*
X129835613Y-36350499D01*
X129846422Y-36350971D01*
X129900000Y-36355659D01*
X129953578Y-36350971D01*
X129964387Y-36350499D01*
X130797871Y-36350499D01*
X130797872Y-36350499D01*
X130857483Y-36344091D01*
X130992331Y-36293796D01*
X131095690Y-36216421D01*
X131161152Y-36192004D01*
X131229425Y-36206855D01*
X131244303Y-36216416D01*
X131347076Y-36293352D01*
X131347668Y-36293795D01*
X131347671Y-36293797D01*
X131482517Y-36344091D01*
X131482516Y-36344091D01*
X131489444Y-36344835D01*
X131542127Y-36350500D01*
X132375613Y-36350499D01*
X132386422Y-36350971D01*
X132440000Y-36355659D01*
X132493578Y-36350971D01*
X132504387Y-36350499D01*
X133337871Y-36350499D01*
X133337872Y-36350499D01*
X133397483Y-36344091D01*
X133532331Y-36293796D01*
X133636106Y-36216109D01*
X133701570Y-36191692D01*
X133769843Y-36206543D01*
X133784729Y-36216110D01*
X133887910Y-36293352D01*
X133887913Y-36293354D01*
X134022620Y-36343596D01*
X134022627Y-36343598D01*
X134082155Y-36349999D01*
X134082172Y-36350000D01*
X134730000Y-36350000D01*
X134730000Y-35444560D01*
X134783147Y-35475245D01*
X134912857Y-35510000D01*
X135047143Y-35510000D01*
X135176853Y-35475245D01*
X135230000Y-35444560D01*
X135230000Y-36350000D01*
G37*
G04 #@! TD.AperFunction*
G04 #@! TA.AperFunction,Conductor*
G36*
X147930000Y-36350000D02*
G01*
X148577828Y-36350000D01*
X148577844Y-36349999D01*
X148637372Y-36343598D01*
X148637379Y-36343596D01*
X148772086Y-36293354D01*
X148772089Y-36293352D01*
X148875271Y-36216110D01*
X148940735Y-36191692D01*
X149009008Y-36206543D01*
X149023888Y-36216105D01*
X149127076Y-36293352D01*
X149127668Y-36293795D01*
X149127671Y-36293797D01*
X149172618Y-36310561D01*
X149262517Y-36344091D01*
X149322127Y-36350500D01*
X149949902Y-36350499D01*
X150016941Y-36370183D01*
X150037582Y-36386817D01*
X150631284Y-36980520D01*
X150631286Y-36980521D01*
X150631290Y-36980524D01*
X150768209Y-37059573D01*
X150768216Y-37059577D01*
X150920943Y-37100501D01*
X150920945Y-37100501D01*
X151086654Y-37100501D01*
X151086670Y-37100500D01*
X153199903Y-37100500D01*
X153266942Y-37120185D01*
X153287584Y-37136819D01*
X155363181Y-39212416D01*
X155396666Y-39273739D01*
X155399500Y-39300097D01*
X155399500Y-39879906D01*
X155379815Y-39946945D01*
X155327011Y-39992700D01*
X155262247Y-40003195D01*
X155227873Y-39999500D01*
X155227867Y-39999500D01*
X152594385Y-39999500D01*
X152583578Y-39999028D01*
X152530001Y-39994341D01*
X152529997Y-39994341D01*
X152476419Y-39999028D01*
X152465613Y-39999500D01*
X151632129Y-39999500D01*
X151632123Y-39999501D01*
X151572516Y-40005908D01*
X151437671Y-40056202D01*
X151437664Y-40056206D01*
X151322455Y-40142452D01*
X151322452Y-40142455D01*
X151236206Y-40257664D01*
X151236202Y-40257671D01*
X151185908Y-40392517D01*
X151179501Y-40452116D01*
X151179500Y-40452135D01*
X151179500Y-41285616D01*
X151179028Y-41296423D01*
X151174341Y-41349997D01*
X151174341Y-41350002D01*
X151179028Y-41403576D01*
X151179500Y-41414383D01*
X151179500Y-42247870D01*
X151179501Y-42247876D01*
X151185908Y-42307483D01*
X151236202Y-42442328D01*
X151236203Y-42442330D01*
X151313578Y-42545689D01*
X151337995Y-42611153D01*
X151323144Y-42679426D01*
X151313578Y-42694309D01*
X151303168Y-42708216D01*
X151236203Y-42797669D01*
X151236202Y-42797671D01*
X151185908Y-42932517D01*
X151179501Y-42992116D01*
X151179500Y-42992135D01*
X151179500Y-44787870D01*
X151179501Y-44787876D01*
X151185908Y-44847483D01*
X151236202Y-44982328D01*
X151236203Y-44982330D01*
X151236204Y-44982331D01*
X151308415Y-45078793D01*
X151313578Y-45085689D01*
X151337995Y-45151153D01*
X151323144Y-45219426D01*
X151313578Y-45234311D01*
X151236203Y-45337669D01*
X151236202Y-45337671D01*
X151185908Y-45472517D01*
X151179501Y-45532116D01*
X151179500Y-45532135D01*
X151179500Y-46365616D01*
X151179028Y-46376423D01*
X151174341Y-46429997D01*
X151174341Y-46430002D01*
X151179028Y-46483576D01*
X151179500Y-46494383D01*
X151179500Y-47327870D01*
X151179501Y-47327876D01*
X151185908Y-47387483D01*
X151236202Y-47522328D01*
X151236206Y-47522335D01*
X151272096Y-47570277D01*
X151322454Y-47637546D01*
X151374135Y-47676234D01*
X151416005Y-47732167D01*
X151420989Y-47801859D01*
X151387504Y-47863182D01*
X151326180Y-47896666D01*
X151299823Y-47899500D01*
X147800097Y-47899500D01*
X147733058Y-47879815D01*
X147712416Y-47863181D01*
X145776819Y-45927584D01*
X145743334Y-45866261D01*
X145740500Y-45839903D01*
X145740500Y-36474499D01*
X145760185Y-36407460D01*
X145812989Y-36361705D01*
X145864500Y-36350499D01*
X146037871Y-36350499D01*
X146037872Y-36350499D01*
X146097483Y-36344091D01*
X146232331Y-36293796D01*
X146336106Y-36216109D01*
X146401570Y-36191692D01*
X146469843Y-36206543D01*
X146484729Y-36216110D01*
X146587910Y-36293352D01*
X146587913Y-36293354D01*
X146722620Y-36343596D01*
X146722627Y-36343598D01*
X146782155Y-36349999D01*
X146782172Y-36350000D01*
X147430000Y-36350000D01*
X147430000Y-35444560D01*
X147483147Y-35475245D01*
X147612857Y-35510000D01*
X147747143Y-35510000D01*
X147876853Y-35475245D01*
X147930000Y-35444560D01*
X147930000Y-36350000D01*
G37*
G04 #@! TD.AperFunction*
G04 #@! TA.AperFunction,Conductor*
G36*
X109773039Y-33869685D02*
G01*
X109818794Y-33922489D01*
X109830000Y-33974000D01*
X109830000Y-34555439D01*
X109776853Y-34524755D01*
X109647143Y-34490000D01*
X109512857Y-34490000D01*
X109383147Y-34524755D01*
X109330000Y-34555439D01*
X109330000Y-33974000D01*
X109349685Y-33906961D01*
X109402489Y-33861206D01*
X109454000Y-33850000D01*
X109706000Y-33850000D01*
X109773039Y-33869685D01*
G37*
G04 #@! TD.AperFunction*
G04 #@! TA.AperFunction,Conductor*
G36*
X122473039Y-33869685D02*
G01*
X122518794Y-33922489D01*
X122530000Y-33974000D01*
X122530000Y-34555439D01*
X122476853Y-34524755D01*
X122347143Y-34490000D01*
X122212857Y-34490000D01*
X122083147Y-34524755D01*
X122030000Y-34555439D01*
X122030000Y-33974000D01*
X122049685Y-33906961D01*
X122102489Y-33861206D01*
X122154000Y-33850000D01*
X122406000Y-33850000D01*
X122473039Y-33869685D01*
G37*
G04 #@! TD.AperFunction*
G04 #@! TA.AperFunction,Conductor*
G36*
X135173039Y-33869685D02*
G01*
X135218794Y-33922489D01*
X135230000Y-33974000D01*
X135230000Y-34555439D01*
X135176853Y-34524755D01*
X135047143Y-34490000D01*
X134912857Y-34490000D01*
X134783147Y-34524755D01*
X134730000Y-34555439D01*
X134730000Y-33974000D01*
X134749685Y-33906961D01*
X134802489Y-33861206D01*
X134854000Y-33850000D01*
X135106000Y-33850000D01*
X135173039Y-33869685D01*
G37*
G04 #@! TD.AperFunction*
G04 #@! TA.AperFunction,Conductor*
G36*
X147873039Y-33869685D02*
G01*
X147918794Y-33922489D01*
X147930000Y-33974000D01*
X147930000Y-34555439D01*
X147876853Y-34524755D01*
X147747143Y-34490000D01*
X147612857Y-34490000D01*
X147483147Y-34524755D01*
X147430000Y-34555439D01*
X147430000Y-33974000D01*
X147449685Y-33906961D01*
X147502489Y-33861206D01*
X147554000Y-33850000D01*
X147806000Y-33850000D01*
X147873039Y-33869685D01*
G37*
G04 #@! TD.AperFunction*
M02*
