%TF.GenerationSoftware,KiCad,Pcbnew,8.0.7*%
%TF.CreationDate,2025-04-18T20:19:49+02:00*%
%TF.ProjectId,midi_pedals,6d696469-5f70-4656-9461-6c732e6b6963,rev?*%
%TF.SameCoordinates,Original*%
%TF.FileFunction,Copper,L2,Bot*%
%TF.FilePolarity,Positive*%
%FSLAX46Y46*%
G04 Gerber Fmt 4.6, Leading zero omitted, Abs format (unit mm)*
G04 Created by KiCad (PCBNEW 8.0.7) date 2025-04-18 20:19:49*
%MOMM*%
%LPD*%
G01*
G04 APERTURE LIST*
%TA.AperFunction,ComponentPad*%
%ADD10O,1.300000X2.100000*%
%TD*%
%TA.AperFunction,ComponentPad*%
%ADD11R,1.700000X1.700000*%
%TD*%
%TA.AperFunction,ComponentPad*%
%ADD12O,1.700000X1.700000*%
%TD*%
%TA.AperFunction,Conductor*%
%ADD13C,0.200000*%
%TD*%
G04 APERTURE END LIST*
D10*
%TO.P,JACK4,0*%
%TO.N,unconnected-(JACK4-Pad0)*%
X173500000Y-78500000D03*
%TO.P,JACK4,1,Sleeve*%
%TO.N,GND*%
X189500000Y-78500000D03*
%TO.P,JACK4,2*%
%TO.N,unconnected-(JACK4-Pad2)*%
X173500000Y-72000000D03*
%TO.P,JACK4,3,Ring*%
%TO.N,unconnected-(JACK4-Ring-Pad3)*%
X189500000Y-72000000D03*
%TO.P,JACK4,4*%
%TO.N,unconnected-(JACK4-Pad4)*%
X173500000Y-65500000D03*
%TO.P,JACK4,5,Tip*%
%TO.N,/JACK3*%
X189500000Y-65500000D03*
%TD*%
%TO.P,JACK3,0*%
%TO.N,unconnected-(JACK3-Pad0)*%
X151450000Y-78500000D03*
%TO.P,JACK3,1,Sleeve*%
%TO.N,GND*%
X167450000Y-78500000D03*
%TO.P,JACK3,2*%
%TO.N,unconnected-(JACK3-Pad2)*%
X151450000Y-72000000D03*
%TO.P,JACK3,3,Ring*%
%TO.N,unconnected-(JACK3-Ring-Pad3)*%
X167450000Y-72000000D03*
%TO.P,JACK3,4*%
%TO.N,unconnected-(JACK3-Pad4)*%
X151450000Y-65500000D03*
%TO.P,JACK3,5,Tip*%
%TO.N,/JACK2*%
X167450000Y-65500000D03*
%TD*%
%TO.P,JACK2,0*%
%TO.N,unconnected-(JACK2-Pad0)*%
X129400000Y-78500000D03*
%TO.P,JACK2,1,Sleeve*%
%TO.N,GND*%
X145400000Y-78500000D03*
%TO.P,JACK2,2*%
%TO.N,unconnected-(JACK2-Pad2)*%
X129400000Y-72000000D03*
%TO.P,JACK2,3,Ring*%
%TO.N,unconnected-(JACK2-Ring-Pad3)*%
X145400000Y-72000000D03*
%TO.P,JACK2,4*%
%TO.N,unconnected-(JACK2-Pad4)*%
X129400000Y-65500000D03*
%TO.P,JACK2,5,Tip*%
%TO.N,/JACK1*%
X145400000Y-65500000D03*
%TD*%
%TO.P,JACK1,0*%
%TO.N,unconnected-(JACK1-Pad0)*%
X107350000Y-78500000D03*
%TO.P,JACK1,1,Sleeve*%
%TO.N,GND*%
X123350000Y-78500000D03*
%TO.P,JACK1,2*%
%TO.N,unconnected-(JACK1-Pad2)*%
X107350000Y-72000000D03*
%TO.P,JACK1,3,Ring*%
%TO.N,unconnected-(JACK1-Ring-Pad3)*%
X123350000Y-72000000D03*
%TO.P,JACK1,4*%
%TO.N,unconnected-(JACK1-Pad4)*%
X107350000Y-65500000D03*
%TO.P,JACK1,5,Tip*%
%TO.N,/JACK0*%
X123350000Y-65500000D03*
%TD*%
D11*
%TO.P,SW2,1*%
%TO.N,/TOGGLE1*%
X174000000Y-42500000D03*
D12*
%TO.P,SW2,2*%
%TO.N,GND*%
X176540000Y-42500000D03*
%TO.P,SW2,3*%
%TO.N,N/C*%
X179080000Y-42500000D03*
%TD*%
D11*
%TO.P,SW1,1*%
%TO.N,/TOGGLE0*%
X174000000Y-37900000D03*
D12*
%TO.P,SW1,2*%
%TO.N,GND*%
X176540000Y-37900000D03*
%TO.P,SW1,3*%
%TO.N,N/C*%
X179080000Y-37900000D03*
%TD*%
%TO.P,U1,1,GPIO0*%
%TO.N,/JACK0*%
X104840000Y-53890000D03*
%TO.P,U1,2,GPIO1*%
%TO.N,/JACK1*%
X107380000Y-53890000D03*
D11*
%TO.P,U1,3,GND*%
%TO.N,GND*%
X109920000Y-53890000D03*
D12*
%TO.P,U1,4,GPIO2*%
%TO.N,/JACK2*%
X112460000Y-53890000D03*
%TO.P,U1,5,GPIO3*%
%TO.N,/JACK3*%
X115000000Y-53890000D03*
%TO.P,U1,6,GPIO4*%
%TO.N,unconnected-(U1-GPIO4-Pad6)*%
X117540000Y-53890000D03*
%TO.P,U1,7,GPIO5*%
%TO.N,unconnected-(U1-GPIO5-Pad7)*%
X120080000Y-53890000D03*
D11*
%TO.P,U1,8,GND*%
%TO.N,GND*%
X122620000Y-53890000D03*
D12*
%TO.P,U1,9,GPIO6*%
%TO.N,unconnected-(U1-GPIO6-Pad9)*%
X125160000Y-53890000D03*
%TO.P,U1,10,GPIO7*%
%TO.N,unconnected-(U1-GPIO7-Pad10)*%
X127700000Y-53890000D03*
%TO.P,U1,11,GPIO8*%
%TO.N,unconnected-(U1-GPIO8-Pad11)*%
X130240000Y-53890000D03*
%TO.P,U1,12,GPIO9*%
%TO.N,unconnected-(U1-GPIO9-Pad12)*%
X132780000Y-53890000D03*
D11*
%TO.P,U1,13,GND*%
%TO.N,GND*%
X135320000Y-53890000D03*
D12*
%TO.P,U1,14,GPIO10*%
%TO.N,unconnected-(U1-GPIO10-Pad14)*%
X137860000Y-53890000D03*
%TO.P,U1,15,GPIO11*%
%TO.N,unconnected-(U1-GPIO11-Pad15)*%
X140400000Y-53890000D03*
%TO.P,U1,16,GPIO12*%
%TO.N,/TOGGLE0*%
X142940000Y-53890000D03*
%TO.P,U1,17,GPIO13*%
%TO.N,/TOGGLE1*%
X145480000Y-53890000D03*
D11*
%TO.P,U1,18,GND*%
%TO.N,GND*%
X148020000Y-53890000D03*
D12*
%TO.P,U1,19,GPIO14*%
%TO.N,/TOGGLE2*%
X150560000Y-53890000D03*
%TO.P,U1,20,GPIO15*%
%TO.N,/TOGGLE3*%
X153100000Y-53890000D03*
%TO.P,U1,21,GPIO16*%
%TO.N,unconnected-(U1-GPIO16-Pad21)*%
X153100000Y-36110000D03*
%TO.P,U1,22,GPIO17*%
%TO.N,unconnected-(U1-GPIO17-Pad22)*%
X150560000Y-36110000D03*
D11*
%TO.P,U1,23,GND*%
%TO.N,GND*%
X148020000Y-36110000D03*
D12*
%TO.P,U1,24,GPIO18*%
%TO.N,unconnected-(U1-GPIO18-Pad24)*%
X145480000Y-36110000D03*
%TO.P,U1,25,GPIO19*%
%TO.N,unconnected-(U1-GPIO19-Pad25)*%
X142940000Y-36110000D03*
%TO.P,U1,26,GPIO20*%
%TO.N,unconnected-(U1-GPIO20-Pad26)*%
X140400000Y-36110000D03*
%TO.P,U1,27,GPIO21*%
%TO.N,unconnected-(U1-GPIO21-Pad27)*%
X137860000Y-36110000D03*
D11*
%TO.P,U1,28,GND*%
%TO.N,GND*%
X135320000Y-36110000D03*
D12*
%TO.P,U1,29,GPIO22*%
%TO.N,unconnected-(U1-GPIO22-Pad29)*%
X132780000Y-36110000D03*
%TO.P,U1,30,RUN*%
%TO.N,unconnected-(U1-RUN-Pad30)*%
X130240000Y-36110000D03*
%TO.P,U1,31,GPIO26_ADC0*%
%TO.N,unconnected-(U1-GPIO26_ADC0-Pad31)*%
X127700000Y-36110000D03*
%TO.P,U1,32,GPIO27_ADC1*%
%TO.N,unconnected-(U1-GPIO27_ADC1-Pad32)*%
X125160000Y-36110000D03*
D11*
%TO.P,U1,33,AGND*%
%TO.N,GND*%
X122620000Y-36110000D03*
D12*
%TO.P,U1,34,GPIO28_ADC2*%
%TO.N,unconnected-(U1-GPIO28_ADC2-Pad34)*%
X120080000Y-36110000D03*
%TO.P,U1,35,ADC_VREF*%
%TO.N,unconnected-(U1-ADC_VREF-Pad35)*%
X117540000Y-36110000D03*
%TO.P,U1,36,3V3*%
%TO.N,unconnected-(U1-3V3-Pad36)*%
X115000000Y-36110000D03*
%TO.P,U1,37,3V3_EN*%
%TO.N,unconnected-(U1-3V3_EN-Pad37)*%
X112460000Y-36110000D03*
D11*
%TO.P,U1,38,GND*%
%TO.N,GND*%
X109920000Y-36110000D03*
D12*
%TO.P,U1,39,VSYS*%
%TO.N,unconnected-(U1-VSYS-Pad39)*%
X107380000Y-36110000D03*
%TO.P,U1,40,VBUS*%
%TO.N,unconnected-(U1-VBUS-Pad40)*%
X104840000Y-36110000D03*
%TO.P,U1,41,SWCLK*%
%TO.N,Net-(J1-Pin_1)*%
X152870000Y-47540000D03*
D11*
%TO.P,U1,42,GND*%
%TO.N,Net-(J1-Pin_2)*%
X152870000Y-45000000D03*
D12*
%TO.P,U1,43,SWDIO*%
%TO.N,Net-(J1-Pin_3)*%
X152870000Y-42460000D03*
%TD*%
D11*
%TO.P,SW4,1*%
%TO.N,/TOGGLE3*%
X174000000Y-51500000D03*
D12*
%TO.P,SW4,2*%
%TO.N,GND*%
X176540000Y-51500000D03*
%TO.P,SW4,3*%
%TO.N,N/C*%
X179080000Y-51500000D03*
%TD*%
D11*
%TO.P,J1,1,Pin_1*%
%TO.N,Net-(J1-Pin_1)*%
X167000000Y-26025000D03*
D12*
%TO.P,J1,2,Pin_2*%
%TO.N,Net-(J1-Pin_2)*%
X164460000Y-26025000D03*
%TO.P,J1,3,Pin_3*%
%TO.N,Net-(J1-Pin_3)*%
X161920000Y-26025000D03*
%TD*%
D11*
%TO.P,SW3,1*%
%TO.N,/TOGGLE2*%
X174000000Y-47100000D03*
D12*
%TO.P,SW3,2*%
%TO.N,GND*%
X176540000Y-47100000D03*
%TO.P,SW3,3*%
%TO.N,N/C*%
X179080000Y-47100000D03*
%TD*%
D13*
%TO.N,/TOGGLE0*%
X142940000Y-53890000D02*
X142940000Y-52687919D01*
X142940000Y-52687919D02*
X145627919Y-50000000D01*
X145627919Y-50000000D02*
X155000000Y-50000000D01*
X155000000Y-50000000D02*
X167100000Y-37900000D01*
X167100000Y-37900000D02*
X174000000Y-37900000D01*
%TO.N,/TOGGLE3*%
X163000000Y-51500000D02*
X174000000Y-51500000D01*
X153100000Y-53890000D02*
X160610000Y-53890000D01*
X160610000Y-53890000D02*
X163000000Y-51500000D01*
%TO.N,/TOGGLE2*%
X174000000Y-47100000D02*
X159900000Y-47100000D01*
X159900000Y-47100000D02*
X156000000Y-51000000D01*
X156000000Y-51000000D02*
X152000000Y-51000000D01*
X152000000Y-51000000D02*
X150560000Y-52440000D01*
X150560000Y-52440000D02*
X150560000Y-53890000D01*
%TO.N,/TOGGLE1*%
X145480000Y-53890000D02*
X145480000Y-50920000D01*
X146000000Y-50400000D02*
X155600000Y-50400000D01*
X145480000Y-50920000D02*
X146000000Y-50400000D01*
X155600000Y-50400000D02*
X163500000Y-42500000D01*
X163500000Y-42500000D02*
X174000000Y-42500000D01*
%TO.N,/JACK3*%
X115000000Y-53890000D02*
X115000000Y-58000000D01*
X115000000Y-58000000D02*
X117000000Y-60000000D01*
X117000000Y-60000000D02*
X174000000Y-60000000D01*
X174000000Y-60000000D02*
X179500000Y-65500000D01*
X179500000Y-65500000D02*
X189500000Y-65500000D01*
%TO.N,/JACK2*%
X112460000Y-53890000D02*
X112460000Y-58000000D01*
X112460000Y-58000000D02*
X116460000Y-62000000D01*
X116460000Y-62000000D02*
X163950000Y-62000000D01*
X163950000Y-62000000D02*
X167450000Y-65500000D01*
%TO.N,/JACK1*%
X107380000Y-58380000D02*
X112000000Y-63000000D01*
X107380000Y-53890000D02*
X107380000Y-58380000D01*
X112000000Y-63000000D02*
X142900000Y-63000000D01*
X142900000Y-63000000D02*
X145400000Y-65500000D01*
%TO.N,/JACK0*%
X123350000Y-65500000D02*
X111500000Y-65500000D01*
X111500000Y-65500000D02*
X104840000Y-58840000D01*
X104840000Y-58840000D02*
X104840000Y-53890000D01*
%TD*%
%TA.AperFunction,Conductor*%
%TO.N,GND*%
G36*
X161516742Y-24520185D02*
G01*
X161562497Y-24572989D01*
X161572441Y-24642147D01*
X161543416Y-24705703D01*
X161484638Y-24743477D01*
X161481796Y-24744275D01*
X161456344Y-24751094D01*
X161456335Y-24751098D01*
X161242171Y-24850964D01*
X161242169Y-24850965D01*
X161048597Y-24986505D01*
X160881505Y-25153597D01*
X160745965Y-25347169D01*
X160745964Y-25347171D01*
X160646098Y-25561335D01*
X160646094Y-25561344D01*
X160584938Y-25789586D01*
X160584936Y-25789596D01*
X160564341Y-26024999D01*
X160564341Y-26025000D01*
X160584936Y-26260403D01*
X160584938Y-26260413D01*
X160646094Y-26488655D01*
X160646096Y-26488659D01*
X160646097Y-26488663D01*
X160650000Y-26497032D01*
X160745965Y-26702830D01*
X160745967Y-26702834D01*
X160774755Y-26743947D01*
X160881505Y-26896401D01*
X161048599Y-27063495D01*
X161145384Y-27131265D01*
X161242165Y-27199032D01*
X161242167Y-27199033D01*
X161242170Y-27199035D01*
X161456337Y-27298903D01*
X161684592Y-27360063D01*
X161861034Y-27375500D01*
X161919999Y-27380659D01*
X161920000Y-27380659D01*
X161920001Y-27380659D01*
X161978966Y-27375500D01*
X162155408Y-27360063D01*
X162383663Y-27298903D01*
X162597830Y-27199035D01*
X162791401Y-27063495D01*
X162958495Y-26896401D01*
X163088425Y-26710842D01*
X163143002Y-26667217D01*
X163212500Y-26660023D01*
X163274855Y-26691546D01*
X163291575Y-26710842D01*
X163421500Y-26896395D01*
X163421505Y-26896401D01*
X163588599Y-27063495D01*
X163685384Y-27131265D01*
X163782165Y-27199032D01*
X163782167Y-27199033D01*
X163782170Y-27199035D01*
X163996337Y-27298903D01*
X164224592Y-27360063D01*
X164401034Y-27375500D01*
X164459999Y-27380659D01*
X164460000Y-27380659D01*
X164460001Y-27380659D01*
X164518966Y-27375500D01*
X164695408Y-27360063D01*
X164923663Y-27298903D01*
X165137830Y-27199035D01*
X165331401Y-27063495D01*
X165453329Y-26941566D01*
X165514648Y-26908084D01*
X165584340Y-26913068D01*
X165640274Y-26954939D01*
X165657189Y-26985917D01*
X165706202Y-27117328D01*
X165706206Y-27117335D01*
X165792452Y-27232544D01*
X165792455Y-27232547D01*
X165907664Y-27318793D01*
X165907671Y-27318797D01*
X166042517Y-27369091D01*
X166042516Y-27369091D01*
X166049444Y-27369835D01*
X166102127Y-27375500D01*
X167897872Y-27375499D01*
X167957483Y-27369091D01*
X168092331Y-27318796D01*
X168207546Y-27232546D01*
X168293796Y-27117331D01*
X168344091Y-26982483D01*
X168350500Y-26922873D01*
X168350499Y-25127128D01*
X168344091Y-25067517D01*
X168342810Y-25064083D01*
X168293797Y-24932671D01*
X168293793Y-24932664D01*
X168207547Y-24817455D01*
X168207544Y-24817452D01*
X168085231Y-24725888D01*
X168086752Y-24723855D01*
X168046823Y-24683925D01*
X168031972Y-24615652D01*
X168056390Y-24550188D01*
X168112324Y-24508318D01*
X168155656Y-24500500D01*
X190934108Y-24500500D01*
X190996249Y-24500500D01*
X191003736Y-24500726D01*
X191293796Y-24518271D01*
X191308657Y-24520075D01*
X191590798Y-24571780D01*
X191605335Y-24575363D01*
X191879172Y-24660695D01*
X191893163Y-24666000D01*
X192154743Y-24783727D01*
X192167989Y-24790680D01*
X192413465Y-24939075D01*
X192425776Y-24947573D01*
X192645884Y-25120016D01*
X192651573Y-25124473D01*
X192662781Y-25134403D01*
X192865596Y-25337218D01*
X192875526Y-25348426D01*
X192900525Y-25380335D01*
X193042336Y-25561344D01*
X193052422Y-25574217D01*
X193060928Y-25586540D01*
X193209316Y-25832004D01*
X193216275Y-25845263D01*
X193333997Y-26106831D01*
X193339306Y-26120832D01*
X193424635Y-26394663D01*
X193428219Y-26409201D01*
X193479923Y-26691340D01*
X193481728Y-26706205D01*
X193499274Y-26996263D01*
X193499500Y-27003750D01*
X193499500Y-79996249D01*
X193499274Y-80003736D01*
X193481728Y-80293794D01*
X193479923Y-80308659D01*
X193428219Y-80590798D01*
X193424635Y-80605336D01*
X193339306Y-80879167D01*
X193333997Y-80893168D01*
X193216275Y-81154736D01*
X193209316Y-81167995D01*
X193060928Y-81413459D01*
X193052422Y-81425782D01*
X192875526Y-81651573D01*
X192865596Y-81662781D01*
X192662781Y-81865596D01*
X192651573Y-81875526D01*
X192425782Y-82052422D01*
X192413459Y-82060928D01*
X192167995Y-82209316D01*
X192154736Y-82216275D01*
X191893168Y-82333997D01*
X191879167Y-82339306D01*
X191605336Y-82424635D01*
X191590798Y-82428219D01*
X191308659Y-82479923D01*
X191293794Y-82481728D01*
X191003736Y-82499274D01*
X190996249Y-82499500D01*
X106003751Y-82499500D01*
X105996264Y-82499274D01*
X105706205Y-82481728D01*
X105691340Y-82479923D01*
X105409201Y-82428219D01*
X105394663Y-82424635D01*
X105120832Y-82339306D01*
X105106831Y-82333997D01*
X104845263Y-82216275D01*
X104832004Y-82209316D01*
X104586540Y-82060928D01*
X104574217Y-82052422D01*
X104348426Y-81875526D01*
X104337218Y-81865596D01*
X104134403Y-81662781D01*
X104124473Y-81651573D01*
X103947573Y-81425776D01*
X103939075Y-81413465D01*
X103790680Y-81167989D01*
X103783727Y-81154743D01*
X103666000Y-80893163D01*
X103660693Y-80879167D01*
X103575364Y-80605336D01*
X103571780Y-80590798D01*
X103520076Y-80308659D01*
X103518271Y-80293794D01*
X103500726Y-80003736D01*
X103500500Y-79996249D01*
X103500500Y-78009448D01*
X106199500Y-78009448D01*
X106199500Y-78990551D01*
X106227829Y-79169410D01*
X106283787Y-79341636D01*
X106283788Y-79341639D01*
X106366006Y-79502997D01*
X106472441Y-79649494D01*
X106472445Y-79649499D01*
X106600500Y-79777554D01*
X106600505Y-79777558D01*
X106659214Y-79820212D01*
X106747006Y-79883996D01*
X106845356Y-79934108D01*
X106908360Y-79966211D01*
X106908363Y-79966212D01*
X106994476Y-79994191D01*
X107080591Y-80022171D01*
X107163429Y-80035291D01*
X107259449Y-80050500D01*
X107259454Y-80050500D01*
X107440551Y-80050500D01*
X107527259Y-80036765D01*
X107619409Y-80022171D01*
X107791639Y-79966211D01*
X107952994Y-79883996D01*
X108099501Y-79777553D01*
X108227553Y-79649501D01*
X108333996Y-79502994D01*
X108416211Y-79341639D01*
X108472171Y-79169409D01*
X108488723Y-79064905D01*
X108500500Y-78990551D01*
X108500500Y-78878711D01*
X113649500Y-78878711D01*
X113649500Y-79121288D01*
X113681161Y-79361785D01*
X113743947Y-79596104D01*
X113819108Y-79777558D01*
X113836776Y-79820212D01*
X113958064Y-80030289D01*
X113958066Y-80030292D01*
X113958067Y-80030293D01*
X114105733Y-80222736D01*
X114105739Y-80222743D01*
X114277256Y-80394260D01*
X114277262Y-80394265D01*
X114469711Y-80541936D01*
X114679788Y-80663224D01*
X114903900Y-80756054D01*
X115138211Y-80818838D01*
X115318586Y-80842584D01*
X115378711Y-80850500D01*
X115378712Y-80850500D01*
X115621289Y-80850500D01*
X115669388Y-80844167D01*
X115861789Y-80818838D01*
X116096100Y-80756054D01*
X116320212Y-80663224D01*
X116530289Y-80541936D01*
X116722738Y-80394265D01*
X116894265Y-80222738D01*
X117041936Y-80030289D01*
X117163224Y-79820212D01*
X117256054Y-79596100D01*
X117318838Y-79361789D01*
X117350500Y-79121288D01*
X117350500Y-78878712D01*
X117318838Y-78638211D01*
X117256054Y-78403900D01*
X117163224Y-78179788D01*
X117064904Y-78009493D01*
X122200000Y-78009493D01*
X122200000Y-78250000D01*
X123000000Y-78250000D01*
X123000000Y-78750000D01*
X122200000Y-78750000D01*
X122200000Y-78990506D01*
X122228317Y-79169293D01*
X122284251Y-79341444D01*
X122284252Y-79341447D01*
X122366434Y-79502734D01*
X122472823Y-79649169D01*
X122600830Y-79777176D01*
X122747265Y-79883565D01*
X122908552Y-79965747D01*
X122908555Y-79965748D01*
X123080699Y-80021680D01*
X123080712Y-80021683D01*
X123100000Y-80024738D01*
X123100000Y-79094975D01*
X123135095Y-79130070D01*
X123214905Y-79176148D01*
X123303922Y-79200000D01*
X123396078Y-79200000D01*
X123485095Y-79176148D01*
X123564905Y-79130070D01*
X123600000Y-79094975D01*
X123600000Y-80024737D01*
X123619287Y-80021683D01*
X123619300Y-80021680D01*
X123791444Y-79965748D01*
X123791447Y-79965747D01*
X123952734Y-79883565D01*
X124099169Y-79777176D01*
X124227176Y-79649169D01*
X124333565Y-79502734D01*
X124415747Y-79341447D01*
X124415748Y-79341444D01*
X124471682Y-79169293D01*
X124500000Y-78990506D01*
X124500000Y-78750000D01*
X123700000Y-78750000D01*
X123700000Y-78250000D01*
X124500000Y-78250000D01*
X124500000Y-78009493D01*
X124499993Y-78009448D01*
X128249500Y-78009448D01*
X128249500Y-78990551D01*
X128277829Y-79169410D01*
X128333787Y-79341636D01*
X128333788Y-79341639D01*
X128416006Y-79502997D01*
X128522441Y-79649494D01*
X128522445Y-79649499D01*
X128650500Y-79777554D01*
X128650505Y-79777558D01*
X128709214Y-79820212D01*
X128797006Y-79883996D01*
X128895356Y-79934108D01*
X128958360Y-79966211D01*
X128958363Y-79966212D01*
X129044476Y-79994191D01*
X129130591Y-80022171D01*
X129213429Y-80035291D01*
X129309449Y-80050500D01*
X129309454Y-80050500D01*
X129490551Y-80050500D01*
X129577259Y-80036765D01*
X129669409Y-80022171D01*
X129841639Y-79966211D01*
X130002994Y-79883996D01*
X130149501Y-79777553D01*
X130277553Y-79649501D01*
X130383996Y-79502994D01*
X130466211Y-79341639D01*
X130522171Y-79169409D01*
X130538723Y-79064905D01*
X130550500Y-78990551D01*
X130550500Y-78009493D01*
X144250000Y-78009493D01*
X144250000Y-78250000D01*
X145050000Y-78250000D01*
X145050000Y-78750000D01*
X144250000Y-78750000D01*
X144250000Y-78990506D01*
X144278317Y-79169293D01*
X144334251Y-79341444D01*
X144334252Y-79341447D01*
X144416434Y-79502734D01*
X144522823Y-79649169D01*
X144650830Y-79777176D01*
X144797265Y-79883565D01*
X144958552Y-79965747D01*
X144958555Y-79965748D01*
X145130699Y-80021680D01*
X145130712Y-80021683D01*
X145150000Y-80024738D01*
X145150000Y-79094975D01*
X145185095Y-79130070D01*
X145264905Y-79176148D01*
X145353922Y-79200000D01*
X145446078Y-79200000D01*
X145535095Y-79176148D01*
X145614905Y-79130070D01*
X145650000Y-79094975D01*
X145650000Y-80024737D01*
X145669287Y-80021683D01*
X145669300Y-80021680D01*
X145841444Y-79965748D01*
X145841447Y-79965747D01*
X146002734Y-79883565D01*
X146149169Y-79777176D01*
X146277176Y-79649169D01*
X146383565Y-79502734D01*
X146465747Y-79341447D01*
X146465748Y-79341444D01*
X146521682Y-79169293D01*
X146550000Y-78990506D01*
X146550000Y-78750000D01*
X145750000Y-78750000D01*
X145750000Y-78250000D01*
X146550000Y-78250000D01*
X146550000Y-78009493D01*
X146549993Y-78009448D01*
X150299500Y-78009448D01*
X150299500Y-78990551D01*
X150327829Y-79169410D01*
X150383787Y-79341636D01*
X150383788Y-79341639D01*
X150466006Y-79502997D01*
X150572441Y-79649494D01*
X150572445Y-79649499D01*
X150700500Y-79777554D01*
X150700505Y-79777558D01*
X150759214Y-79820212D01*
X150847006Y-79883996D01*
X150945356Y-79934108D01*
X151008360Y-79966211D01*
X151008363Y-79966212D01*
X151094476Y-79994191D01*
X151180591Y-80022171D01*
X151263429Y-80035291D01*
X151359449Y-80050500D01*
X151359454Y-80050500D01*
X151540551Y-80050500D01*
X151627259Y-80036765D01*
X151719409Y-80022171D01*
X151891639Y-79966211D01*
X152052994Y-79883996D01*
X152199501Y-79777553D01*
X152327553Y-79649501D01*
X152433996Y-79502994D01*
X152516211Y-79341639D01*
X152572171Y-79169409D01*
X152588723Y-79064905D01*
X152600500Y-78990551D01*
X152600500Y-78009493D01*
X166300000Y-78009493D01*
X166300000Y-78250000D01*
X167100000Y-78250000D01*
X167100000Y-78750000D01*
X166300000Y-78750000D01*
X166300000Y-78990506D01*
X166328317Y-79169293D01*
X166384251Y-79341444D01*
X166384252Y-79341447D01*
X166466434Y-79502734D01*
X166572823Y-79649169D01*
X166700830Y-79777176D01*
X166847265Y-79883565D01*
X167008552Y-79965747D01*
X167008555Y-79965748D01*
X167180699Y-80021680D01*
X167180712Y-80021683D01*
X167200000Y-80024738D01*
X167200000Y-79094975D01*
X167235095Y-79130070D01*
X167314905Y-79176148D01*
X167403922Y-79200000D01*
X167496078Y-79200000D01*
X167585095Y-79176148D01*
X167664905Y-79130070D01*
X167700000Y-79094975D01*
X167700000Y-80024737D01*
X167719287Y-80021683D01*
X167719300Y-80021680D01*
X167891444Y-79965748D01*
X167891447Y-79965747D01*
X168052734Y-79883565D01*
X168199169Y-79777176D01*
X168327176Y-79649169D01*
X168433565Y-79502734D01*
X168515747Y-79341447D01*
X168515748Y-79341444D01*
X168571682Y-79169293D01*
X168600000Y-78990506D01*
X168600000Y-78750000D01*
X167800000Y-78750000D01*
X167800000Y-78250000D01*
X168600000Y-78250000D01*
X168600000Y-78009493D01*
X168599993Y-78009448D01*
X172349500Y-78009448D01*
X172349500Y-78990551D01*
X172377829Y-79169410D01*
X172433787Y-79341636D01*
X172433788Y-79341639D01*
X172516006Y-79502997D01*
X172622441Y-79649494D01*
X172622445Y-79649499D01*
X172750500Y-79777554D01*
X172750505Y-79777558D01*
X172809214Y-79820212D01*
X172897006Y-79883996D01*
X172995356Y-79934108D01*
X173058360Y-79966211D01*
X173058363Y-79966212D01*
X173144476Y-79994191D01*
X173230591Y-80022171D01*
X173313429Y-80035291D01*
X173409449Y-80050500D01*
X173409454Y-80050500D01*
X173590551Y-80050500D01*
X173677259Y-80036765D01*
X173769409Y-80022171D01*
X173941639Y-79966211D01*
X174102994Y-79883996D01*
X174249501Y-79777553D01*
X174377553Y-79649501D01*
X174483996Y-79502994D01*
X174566211Y-79341639D01*
X174622171Y-79169409D01*
X174638723Y-79064905D01*
X174650500Y-78990551D01*
X174650500Y-78878711D01*
X179649500Y-78878711D01*
X179649500Y-79121288D01*
X179681161Y-79361785D01*
X179743947Y-79596104D01*
X179819108Y-79777558D01*
X179836776Y-79820212D01*
X179958064Y-80030289D01*
X179958066Y-80030292D01*
X179958067Y-80030293D01*
X180105733Y-80222736D01*
X180105739Y-80222743D01*
X180277256Y-80394260D01*
X180277262Y-80394265D01*
X180469711Y-80541936D01*
X180679788Y-80663224D01*
X180903900Y-80756054D01*
X181138211Y-80818838D01*
X181318586Y-80842584D01*
X181378711Y-80850500D01*
X181378712Y-80850500D01*
X181621289Y-80850500D01*
X181669388Y-80844167D01*
X181861789Y-80818838D01*
X182096100Y-80756054D01*
X182320212Y-80663224D01*
X182530289Y-80541936D01*
X182722738Y-80394265D01*
X182894265Y-80222738D01*
X183041936Y-80030289D01*
X183163224Y-79820212D01*
X183256054Y-79596100D01*
X183318838Y-79361789D01*
X183350500Y-79121288D01*
X183350500Y-78878712D01*
X183318838Y-78638211D01*
X183256054Y-78403900D01*
X183163224Y-78179788D01*
X183064904Y-78009493D01*
X188350000Y-78009493D01*
X188350000Y-78250000D01*
X189150000Y-78250000D01*
X189150000Y-78750000D01*
X188350000Y-78750000D01*
X188350000Y-78990506D01*
X188378317Y-79169293D01*
X188434251Y-79341444D01*
X188434252Y-79341447D01*
X188516434Y-79502734D01*
X188622823Y-79649169D01*
X188750830Y-79777176D01*
X188897265Y-79883565D01*
X189058552Y-79965747D01*
X189058555Y-79965748D01*
X189230699Y-80021680D01*
X189230712Y-80021683D01*
X189250000Y-80024738D01*
X189250000Y-79094975D01*
X189285095Y-79130070D01*
X189364905Y-79176148D01*
X189453922Y-79200000D01*
X189546078Y-79200000D01*
X189635095Y-79176148D01*
X189714905Y-79130070D01*
X189750000Y-79094975D01*
X189750000Y-80024737D01*
X189769287Y-80021683D01*
X189769300Y-80021680D01*
X189941444Y-79965748D01*
X189941447Y-79965747D01*
X190102734Y-79883565D01*
X190249169Y-79777176D01*
X190377176Y-79649169D01*
X190483565Y-79502734D01*
X190565747Y-79341447D01*
X190565748Y-79341444D01*
X190621682Y-79169293D01*
X190650000Y-78990506D01*
X190650000Y-78750000D01*
X189850000Y-78750000D01*
X189850000Y-78250000D01*
X190650000Y-78250000D01*
X190650000Y-78009493D01*
X190621682Y-77830706D01*
X190565748Y-77658555D01*
X190565747Y-77658552D01*
X190483565Y-77497265D01*
X190377176Y-77350830D01*
X190249169Y-77222823D01*
X190102734Y-77116434D01*
X189941447Y-77034252D01*
X189941441Y-77034250D01*
X189769295Y-76978318D01*
X189769285Y-76978315D01*
X189750000Y-76975260D01*
X189750000Y-77905025D01*
X189714905Y-77869930D01*
X189635095Y-77823852D01*
X189546078Y-77800000D01*
X189453922Y-77800000D01*
X189364905Y-77823852D01*
X189285095Y-77869930D01*
X189250000Y-77905025D01*
X189250000Y-76975260D01*
X189230714Y-76978315D01*
X189230704Y-76978318D01*
X189058558Y-77034250D01*
X189058552Y-77034252D01*
X188897265Y-77116434D01*
X188750830Y-77222823D01*
X188622823Y-77350830D01*
X188516434Y-77497265D01*
X188434252Y-77658552D01*
X188434251Y-77658555D01*
X188378317Y-77830706D01*
X188350000Y-78009493D01*
X183064904Y-78009493D01*
X183041936Y-77969711D01*
X182930015Y-77823852D01*
X182894266Y-77777263D01*
X182894260Y-77777256D01*
X182722743Y-77605739D01*
X182722736Y-77605733D01*
X182530293Y-77458067D01*
X182530292Y-77458066D01*
X182530289Y-77458064D01*
X182320212Y-77336776D01*
X182320205Y-77336773D01*
X182096104Y-77243947D01*
X181861785Y-77181161D01*
X181621289Y-77149500D01*
X181621288Y-77149500D01*
X181378712Y-77149500D01*
X181378711Y-77149500D01*
X181138214Y-77181161D01*
X180903895Y-77243947D01*
X180679794Y-77336773D01*
X180679785Y-77336777D01*
X180469706Y-77458067D01*
X180277263Y-77605733D01*
X180277256Y-77605739D01*
X180105739Y-77777256D01*
X180105733Y-77777263D01*
X179958067Y-77969706D01*
X179836777Y-78179785D01*
X179836773Y-78179794D01*
X179743947Y-78403895D01*
X179681161Y-78638214D01*
X179649500Y-78878711D01*
X174650500Y-78878711D01*
X174650500Y-78009448D01*
X174634019Y-77905397D01*
X174622171Y-77830591D01*
X174566211Y-77658361D01*
X174566211Y-77658360D01*
X174537740Y-77602484D01*
X174483996Y-77497006D01*
X174455703Y-77458064D01*
X174377558Y-77350505D01*
X174377554Y-77350500D01*
X174249499Y-77222445D01*
X174249494Y-77222441D01*
X174102997Y-77116006D01*
X174102996Y-77116005D01*
X174102994Y-77116004D01*
X174051300Y-77089664D01*
X173941639Y-77033788D01*
X173941636Y-77033787D01*
X173769410Y-76977829D01*
X173590551Y-76949500D01*
X173590546Y-76949500D01*
X173409454Y-76949500D01*
X173409449Y-76949500D01*
X173230589Y-76977829D01*
X173058363Y-77033787D01*
X173058360Y-77033788D01*
X172897002Y-77116006D01*
X172750505Y-77222441D01*
X172750500Y-77222445D01*
X172622445Y-77350500D01*
X172622441Y-77350505D01*
X172516006Y-77497002D01*
X172433788Y-77658360D01*
X172433787Y-77658363D01*
X172377829Y-77830589D01*
X172349500Y-78009448D01*
X168599993Y-78009448D01*
X168571682Y-77830706D01*
X168515748Y-77658555D01*
X168515747Y-77658552D01*
X168433565Y-77497265D01*
X168327176Y-77350830D01*
X168199169Y-77222823D01*
X168052734Y-77116434D01*
X167891447Y-77034252D01*
X167891441Y-77034250D01*
X167719295Y-76978318D01*
X167719285Y-76978315D01*
X167700000Y-76975260D01*
X167700000Y-77905025D01*
X167664905Y-77869930D01*
X167585095Y-77823852D01*
X167496078Y-77800000D01*
X167403922Y-77800000D01*
X167314905Y-77823852D01*
X167235095Y-77869930D01*
X167200000Y-77905025D01*
X167200000Y-76975260D01*
X167180714Y-76978315D01*
X167180704Y-76978318D01*
X167008558Y-77034250D01*
X167008552Y-77034252D01*
X166847265Y-77116434D01*
X166700830Y-77222823D01*
X166572823Y-77350830D01*
X166466434Y-77497265D01*
X166384252Y-77658552D01*
X166384251Y-77658555D01*
X166328317Y-77830706D01*
X166300000Y-78009493D01*
X152600500Y-78009493D01*
X152600500Y-78009448D01*
X152584019Y-77905397D01*
X152572171Y-77830591D01*
X152516211Y-77658361D01*
X152516211Y-77658360D01*
X152487740Y-77602484D01*
X152433996Y-77497006D01*
X152405703Y-77458064D01*
X152327558Y-77350505D01*
X152327554Y-77350500D01*
X152199499Y-77222445D01*
X152199494Y-77222441D01*
X152052997Y-77116006D01*
X152052996Y-77116005D01*
X152052994Y-77116004D01*
X152001300Y-77089664D01*
X151891639Y-77033788D01*
X151891636Y-77033787D01*
X151719410Y-76977829D01*
X151540551Y-76949500D01*
X151540546Y-76949500D01*
X151359454Y-76949500D01*
X151359449Y-76949500D01*
X151180589Y-76977829D01*
X151008363Y-77033787D01*
X151008360Y-77033788D01*
X150847002Y-77116006D01*
X150700505Y-77222441D01*
X150700500Y-77222445D01*
X150572445Y-77350500D01*
X150572441Y-77350505D01*
X150466006Y-77497002D01*
X150383788Y-77658360D01*
X150383787Y-77658363D01*
X150327829Y-77830589D01*
X150299500Y-78009448D01*
X146549993Y-78009448D01*
X146521682Y-77830706D01*
X146465748Y-77658555D01*
X146465747Y-77658552D01*
X146383565Y-77497265D01*
X146277176Y-77350830D01*
X146149169Y-77222823D01*
X146002734Y-77116434D01*
X145841447Y-77034252D01*
X145841441Y-77034250D01*
X145669295Y-76978318D01*
X145669285Y-76978315D01*
X145650000Y-76975260D01*
X145650000Y-77905025D01*
X145614905Y-77869930D01*
X145535095Y-77823852D01*
X145446078Y-77800000D01*
X145353922Y-77800000D01*
X145264905Y-77823852D01*
X145185095Y-77869930D01*
X145150000Y-77905025D01*
X145150000Y-76975260D01*
X145130714Y-76978315D01*
X145130704Y-76978318D01*
X144958558Y-77034250D01*
X144958552Y-77034252D01*
X144797265Y-77116434D01*
X144650830Y-77222823D01*
X144522823Y-77350830D01*
X144416434Y-77497265D01*
X144334252Y-77658552D01*
X144334251Y-77658555D01*
X144278317Y-77830706D01*
X144250000Y-78009493D01*
X130550500Y-78009493D01*
X130550500Y-78009448D01*
X130534019Y-77905397D01*
X130522171Y-77830591D01*
X130466211Y-77658361D01*
X130466211Y-77658360D01*
X130437740Y-77602484D01*
X130383996Y-77497006D01*
X130355703Y-77458064D01*
X130277558Y-77350505D01*
X130277554Y-77350500D01*
X130149499Y-77222445D01*
X130149494Y-77222441D01*
X130002997Y-77116006D01*
X130002996Y-77116005D01*
X130002994Y-77116004D01*
X129951300Y-77089664D01*
X129841639Y-77033788D01*
X129841636Y-77033787D01*
X129669410Y-76977829D01*
X129490551Y-76949500D01*
X129490546Y-76949500D01*
X129309454Y-76949500D01*
X129309449Y-76949500D01*
X129130589Y-76977829D01*
X128958363Y-77033787D01*
X128958360Y-77033788D01*
X128797002Y-77116006D01*
X128650505Y-77222441D01*
X128650500Y-77222445D01*
X128522445Y-77350500D01*
X128522441Y-77350505D01*
X128416006Y-77497002D01*
X128333788Y-77658360D01*
X128333787Y-77658363D01*
X128277829Y-77830589D01*
X128249500Y-78009448D01*
X124499993Y-78009448D01*
X124471682Y-77830706D01*
X124415748Y-77658555D01*
X124415747Y-77658552D01*
X124333565Y-77497265D01*
X124227176Y-77350830D01*
X124099169Y-77222823D01*
X123952734Y-77116434D01*
X123791447Y-77034252D01*
X123791441Y-77034250D01*
X123619295Y-76978318D01*
X123619285Y-76978315D01*
X123600000Y-76975260D01*
X123600000Y-77905025D01*
X123564905Y-77869930D01*
X123485095Y-77823852D01*
X123396078Y-77800000D01*
X123303922Y-77800000D01*
X123214905Y-77823852D01*
X123135095Y-77869930D01*
X123100000Y-77905025D01*
X123100000Y-76975260D01*
X123080714Y-76978315D01*
X123080704Y-76978318D01*
X122908558Y-77034250D01*
X122908552Y-77034252D01*
X122747265Y-77116434D01*
X122600830Y-77222823D01*
X122472823Y-77350830D01*
X122366434Y-77497265D01*
X122284252Y-77658552D01*
X122284251Y-77658555D01*
X122228317Y-77830706D01*
X122200000Y-78009493D01*
X117064904Y-78009493D01*
X117041936Y-77969711D01*
X116930015Y-77823852D01*
X116894266Y-77777263D01*
X116894260Y-77777256D01*
X116722743Y-77605739D01*
X116722736Y-77605733D01*
X116530293Y-77458067D01*
X116530292Y-77458066D01*
X116530289Y-77458064D01*
X116320212Y-77336776D01*
X116320205Y-77336773D01*
X116096104Y-77243947D01*
X115861785Y-77181161D01*
X115621289Y-77149500D01*
X115621288Y-77149500D01*
X115378712Y-77149500D01*
X115378711Y-77149500D01*
X115138214Y-77181161D01*
X114903895Y-77243947D01*
X114679794Y-77336773D01*
X114679785Y-77336777D01*
X114469706Y-77458067D01*
X114277263Y-77605733D01*
X114277256Y-77605739D01*
X114105739Y-77777256D01*
X114105733Y-77777263D01*
X113958067Y-77969706D01*
X113836777Y-78179785D01*
X113836773Y-78179794D01*
X113743947Y-78403895D01*
X113681161Y-78638214D01*
X113649500Y-78878711D01*
X108500500Y-78878711D01*
X108500500Y-78009448D01*
X108484019Y-77905397D01*
X108472171Y-77830591D01*
X108416211Y-77658361D01*
X108416211Y-77658360D01*
X108387740Y-77602484D01*
X108333996Y-77497006D01*
X108305703Y-77458064D01*
X108227558Y-77350505D01*
X108227554Y-77350500D01*
X108099499Y-77222445D01*
X108099494Y-77222441D01*
X107952997Y-77116006D01*
X107952996Y-77116005D01*
X107952994Y-77116004D01*
X107901300Y-77089664D01*
X107791639Y-77033788D01*
X107791636Y-77033787D01*
X107619410Y-76977829D01*
X107440551Y-76949500D01*
X107440546Y-76949500D01*
X107259454Y-76949500D01*
X107259449Y-76949500D01*
X107080589Y-76977829D01*
X106908363Y-77033787D01*
X106908360Y-77033788D01*
X106747002Y-77116006D01*
X106600505Y-77222441D01*
X106600500Y-77222445D01*
X106472445Y-77350500D01*
X106472441Y-77350505D01*
X106366006Y-77497002D01*
X106283788Y-77658360D01*
X106283787Y-77658363D01*
X106227829Y-77830589D01*
X106199500Y-78009448D01*
X103500500Y-78009448D01*
X103500500Y-71509448D01*
X106199500Y-71509448D01*
X106199500Y-72490551D01*
X106227829Y-72669410D01*
X106283787Y-72841636D01*
X106283788Y-72841639D01*
X106366006Y-73002997D01*
X106472441Y-73149494D01*
X106472445Y-73149499D01*
X106600500Y-73277554D01*
X106600505Y-73277558D01*
X106728287Y-73370396D01*
X106747006Y-73383996D01*
X106852484Y-73437740D01*
X106908360Y-73466211D01*
X106908363Y-73466212D01*
X106994476Y-73494191D01*
X107080591Y-73522171D01*
X107163429Y-73535291D01*
X107259449Y-73550500D01*
X107259454Y-73550500D01*
X107440551Y-73550500D01*
X107527259Y-73536765D01*
X107619409Y-73522171D01*
X107791639Y-73466211D01*
X107952994Y-73383996D01*
X108099501Y-73277553D01*
X108227553Y-73149501D01*
X108333996Y-73002994D01*
X108416211Y-72841639D01*
X108472171Y-72669409D01*
X108486765Y-72577259D01*
X108500500Y-72490551D01*
X108500500Y-71509448D01*
X122199500Y-71509448D01*
X122199500Y-72490551D01*
X122227829Y-72669410D01*
X122283787Y-72841636D01*
X122283788Y-72841639D01*
X122366006Y-73002997D01*
X122472441Y-73149494D01*
X122472445Y-73149499D01*
X122600500Y-73277554D01*
X122600505Y-73277558D01*
X122728287Y-73370396D01*
X122747006Y-73383996D01*
X122852484Y-73437740D01*
X122908360Y-73466211D01*
X122908363Y-73466212D01*
X122994476Y-73494191D01*
X123080591Y-73522171D01*
X123163429Y-73535291D01*
X123259449Y-73550500D01*
X123259454Y-73550500D01*
X123440551Y-73550500D01*
X123527259Y-73536765D01*
X123619409Y-73522171D01*
X123791639Y-73466211D01*
X123952994Y-73383996D01*
X124099501Y-73277553D01*
X124227553Y-73149501D01*
X124333996Y-73002994D01*
X124416211Y-72841639D01*
X124472171Y-72669409D01*
X124486765Y-72577259D01*
X124500500Y-72490551D01*
X124500500Y-71509448D01*
X128249500Y-71509448D01*
X128249500Y-72490551D01*
X128277829Y-72669410D01*
X128333787Y-72841636D01*
X128333788Y-72841639D01*
X128416006Y-73002997D01*
X128522441Y-73149494D01*
X128522445Y-73149499D01*
X128650500Y-73277554D01*
X128650505Y-73277558D01*
X128778287Y-73370396D01*
X128797006Y-73383996D01*
X128902484Y-73437740D01*
X128958360Y-73466211D01*
X128958363Y-73466212D01*
X129044476Y-73494191D01*
X129130591Y-73522171D01*
X129213429Y-73535291D01*
X129309449Y-73550500D01*
X129309454Y-73550500D01*
X129490551Y-73550500D01*
X129577259Y-73536765D01*
X129669409Y-73522171D01*
X129841639Y-73466211D01*
X130002994Y-73383996D01*
X130149501Y-73277553D01*
X130277553Y-73149501D01*
X130383996Y-73002994D01*
X130466211Y-72841639D01*
X130522171Y-72669409D01*
X130536765Y-72577259D01*
X130550500Y-72490551D01*
X130550500Y-71509448D01*
X144249500Y-71509448D01*
X144249500Y-72490551D01*
X144277829Y-72669410D01*
X144333787Y-72841636D01*
X144333788Y-72841639D01*
X144416006Y-73002997D01*
X144522441Y-73149494D01*
X144522445Y-73149499D01*
X144650500Y-73277554D01*
X144650505Y-73277558D01*
X144778287Y-73370396D01*
X144797006Y-73383996D01*
X144902484Y-73437740D01*
X144958360Y-73466211D01*
X144958363Y-73466212D01*
X145044476Y-73494191D01*
X145130591Y-73522171D01*
X145213429Y-73535291D01*
X145309449Y-73550500D01*
X145309454Y-73550500D01*
X145490551Y-73550500D01*
X145577259Y-73536765D01*
X145669409Y-73522171D01*
X145841639Y-73466211D01*
X146002994Y-73383996D01*
X146149501Y-73277553D01*
X146277553Y-73149501D01*
X146383996Y-73002994D01*
X146466211Y-72841639D01*
X146522171Y-72669409D01*
X146536765Y-72577259D01*
X146550500Y-72490551D01*
X146550500Y-71509448D01*
X150299500Y-71509448D01*
X150299500Y-72490551D01*
X150327829Y-72669410D01*
X150383787Y-72841636D01*
X150383788Y-72841639D01*
X150466006Y-73002997D01*
X150572441Y-73149494D01*
X150572445Y-73149499D01*
X150700500Y-73277554D01*
X150700505Y-73277558D01*
X150828287Y-73370396D01*
X150847006Y-73383996D01*
X150952484Y-73437740D01*
X151008360Y-73466211D01*
X151008363Y-73466212D01*
X151094476Y-73494191D01*
X151180591Y-73522171D01*
X151263429Y-73535291D01*
X151359449Y-73550500D01*
X151359454Y-73550500D01*
X151540551Y-73550500D01*
X151627259Y-73536765D01*
X151719409Y-73522171D01*
X151891639Y-73466211D01*
X152052994Y-73383996D01*
X152199501Y-73277553D01*
X152327553Y-73149501D01*
X152433996Y-73002994D01*
X152516211Y-72841639D01*
X152572171Y-72669409D01*
X152586765Y-72577259D01*
X152600500Y-72490551D01*
X152600500Y-71509448D01*
X166299500Y-71509448D01*
X166299500Y-72490551D01*
X166327829Y-72669410D01*
X166383787Y-72841636D01*
X166383788Y-72841639D01*
X166466006Y-73002997D01*
X166572441Y-73149494D01*
X166572445Y-73149499D01*
X166700500Y-73277554D01*
X166700505Y-73277558D01*
X166828287Y-73370396D01*
X166847006Y-73383996D01*
X166952484Y-73437740D01*
X167008360Y-73466211D01*
X167008363Y-73466212D01*
X167094476Y-73494191D01*
X167180591Y-73522171D01*
X167263429Y-73535291D01*
X167359449Y-73550500D01*
X167359454Y-73550500D01*
X167540551Y-73550500D01*
X167627259Y-73536765D01*
X167719409Y-73522171D01*
X167891639Y-73466211D01*
X168052994Y-73383996D01*
X168199501Y-73277553D01*
X168327553Y-73149501D01*
X168433996Y-73002994D01*
X168516211Y-72841639D01*
X168572171Y-72669409D01*
X168586765Y-72577259D01*
X168600500Y-72490551D01*
X168600500Y-71509448D01*
X172349500Y-71509448D01*
X172349500Y-72490551D01*
X172377829Y-72669410D01*
X172433787Y-72841636D01*
X172433788Y-72841639D01*
X172516006Y-73002997D01*
X172622441Y-73149494D01*
X172622445Y-73149499D01*
X172750500Y-73277554D01*
X172750505Y-73277558D01*
X172878287Y-73370396D01*
X172897006Y-73383996D01*
X173002484Y-73437740D01*
X173058360Y-73466211D01*
X173058363Y-73466212D01*
X173144476Y-73494191D01*
X173230591Y-73522171D01*
X173313429Y-73535291D01*
X173409449Y-73550500D01*
X173409454Y-73550500D01*
X173590551Y-73550500D01*
X173677259Y-73536765D01*
X173769409Y-73522171D01*
X173941639Y-73466211D01*
X174102994Y-73383996D01*
X174249501Y-73277553D01*
X174377553Y-73149501D01*
X174483996Y-73002994D01*
X174566211Y-72841639D01*
X174622171Y-72669409D01*
X174636765Y-72577259D01*
X174650500Y-72490551D01*
X174650500Y-71509448D01*
X188349500Y-71509448D01*
X188349500Y-72490551D01*
X188377829Y-72669410D01*
X188433787Y-72841636D01*
X188433788Y-72841639D01*
X188516006Y-73002997D01*
X188622441Y-73149494D01*
X188622445Y-73149499D01*
X188750500Y-73277554D01*
X188750505Y-73277558D01*
X188878287Y-73370396D01*
X188897006Y-73383996D01*
X189002484Y-73437740D01*
X189058360Y-73466211D01*
X189058363Y-73466212D01*
X189144476Y-73494191D01*
X189230591Y-73522171D01*
X189313429Y-73535291D01*
X189409449Y-73550500D01*
X189409454Y-73550500D01*
X189590551Y-73550500D01*
X189677259Y-73536765D01*
X189769409Y-73522171D01*
X189941639Y-73466211D01*
X190102994Y-73383996D01*
X190249501Y-73277553D01*
X190377553Y-73149501D01*
X190483996Y-73002994D01*
X190566211Y-72841639D01*
X190622171Y-72669409D01*
X190636765Y-72577259D01*
X190650500Y-72490551D01*
X190650500Y-71509448D01*
X190634019Y-71405397D01*
X190622171Y-71330591D01*
X190566211Y-71158361D01*
X190566211Y-71158360D01*
X190537740Y-71102484D01*
X190483996Y-70997006D01*
X190470396Y-70978287D01*
X190377558Y-70850505D01*
X190377554Y-70850500D01*
X190249499Y-70722445D01*
X190249494Y-70722441D01*
X190102997Y-70616006D01*
X190102996Y-70616005D01*
X190102994Y-70616004D01*
X190051300Y-70589664D01*
X189941639Y-70533788D01*
X189941636Y-70533787D01*
X189769410Y-70477829D01*
X189590551Y-70449500D01*
X189590546Y-70449500D01*
X189409454Y-70449500D01*
X189409449Y-70449500D01*
X189230589Y-70477829D01*
X189058363Y-70533787D01*
X189058360Y-70533788D01*
X188897002Y-70616006D01*
X188750505Y-70722441D01*
X188750500Y-70722445D01*
X188622445Y-70850500D01*
X188622441Y-70850505D01*
X188516006Y-70997002D01*
X188433788Y-71158360D01*
X188433787Y-71158363D01*
X188377829Y-71330589D01*
X188349500Y-71509448D01*
X174650500Y-71509448D01*
X174634019Y-71405397D01*
X174622171Y-71330591D01*
X174566211Y-71158361D01*
X174566211Y-71158360D01*
X174537740Y-71102484D01*
X174483996Y-70997006D01*
X174470396Y-70978287D01*
X174377558Y-70850505D01*
X174377554Y-70850500D01*
X174249499Y-70722445D01*
X174249494Y-70722441D01*
X174102997Y-70616006D01*
X174102996Y-70616005D01*
X174102994Y-70616004D01*
X174051300Y-70589664D01*
X173941639Y-70533788D01*
X173941636Y-70533787D01*
X173769410Y-70477829D01*
X173590551Y-70449500D01*
X173590546Y-70449500D01*
X173409454Y-70449500D01*
X173409449Y-70449500D01*
X173230589Y-70477829D01*
X173058363Y-70533787D01*
X173058360Y-70533788D01*
X172897002Y-70616006D01*
X172750505Y-70722441D01*
X172750500Y-70722445D01*
X172622445Y-70850500D01*
X172622441Y-70850505D01*
X172516006Y-70997002D01*
X172433788Y-71158360D01*
X172433787Y-71158363D01*
X172377829Y-71330589D01*
X172349500Y-71509448D01*
X168600500Y-71509448D01*
X168584019Y-71405397D01*
X168572171Y-71330591D01*
X168516211Y-71158361D01*
X168516211Y-71158360D01*
X168487740Y-71102484D01*
X168433996Y-70997006D01*
X168420396Y-70978287D01*
X168327558Y-70850505D01*
X168327554Y-70850500D01*
X168199499Y-70722445D01*
X168199494Y-70722441D01*
X168052997Y-70616006D01*
X168052996Y-70616005D01*
X168052994Y-70616004D01*
X168001300Y-70589664D01*
X167891639Y-70533788D01*
X167891636Y-70533787D01*
X167719410Y-70477829D01*
X167540551Y-70449500D01*
X167540546Y-70449500D01*
X167359454Y-70449500D01*
X167359449Y-70449500D01*
X167180589Y-70477829D01*
X167008363Y-70533787D01*
X167008360Y-70533788D01*
X166847002Y-70616006D01*
X166700505Y-70722441D01*
X166700500Y-70722445D01*
X166572445Y-70850500D01*
X166572441Y-70850505D01*
X166466006Y-70997002D01*
X166383788Y-71158360D01*
X166383787Y-71158363D01*
X166327829Y-71330589D01*
X166299500Y-71509448D01*
X152600500Y-71509448D01*
X152584019Y-71405397D01*
X152572171Y-71330591D01*
X152516211Y-71158361D01*
X152516211Y-71158360D01*
X152487740Y-71102484D01*
X152433996Y-70997006D01*
X152420396Y-70978287D01*
X152327558Y-70850505D01*
X152327554Y-70850500D01*
X152199499Y-70722445D01*
X152199494Y-70722441D01*
X152052997Y-70616006D01*
X152052996Y-70616005D01*
X152052994Y-70616004D01*
X152001300Y-70589664D01*
X151891639Y-70533788D01*
X151891636Y-70533787D01*
X151719410Y-70477829D01*
X151540551Y-70449500D01*
X151540546Y-70449500D01*
X151359454Y-70449500D01*
X151359449Y-70449500D01*
X151180589Y-70477829D01*
X151008363Y-70533787D01*
X151008360Y-70533788D01*
X150847002Y-70616006D01*
X150700505Y-70722441D01*
X150700500Y-70722445D01*
X150572445Y-70850500D01*
X150572441Y-70850505D01*
X150466006Y-70997002D01*
X150383788Y-71158360D01*
X150383787Y-71158363D01*
X150327829Y-71330589D01*
X150299500Y-71509448D01*
X146550500Y-71509448D01*
X146534019Y-71405397D01*
X146522171Y-71330591D01*
X146466211Y-71158361D01*
X146466211Y-71158360D01*
X146437740Y-71102484D01*
X146383996Y-70997006D01*
X146370396Y-70978287D01*
X146277558Y-70850505D01*
X146277554Y-70850500D01*
X146149499Y-70722445D01*
X146149494Y-70722441D01*
X146002997Y-70616006D01*
X146002996Y-70616005D01*
X146002994Y-70616004D01*
X145951300Y-70589664D01*
X145841639Y-70533788D01*
X145841636Y-70533787D01*
X145669410Y-70477829D01*
X145490551Y-70449500D01*
X145490546Y-70449500D01*
X145309454Y-70449500D01*
X145309449Y-70449500D01*
X145130589Y-70477829D01*
X144958363Y-70533787D01*
X144958360Y-70533788D01*
X144797002Y-70616006D01*
X144650505Y-70722441D01*
X144650500Y-70722445D01*
X144522445Y-70850500D01*
X144522441Y-70850505D01*
X144416006Y-70997002D01*
X144333788Y-71158360D01*
X144333787Y-71158363D01*
X144277829Y-71330589D01*
X144249500Y-71509448D01*
X130550500Y-71509448D01*
X130534019Y-71405397D01*
X130522171Y-71330591D01*
X130466211Y-71158361D01*
X130466211Y-71158360D01*
X130437740Y-71102484D01*
X130383996Y-70997006D01*
X130370396Y-70978287D01*
X130277558Y-70850505D01*
X130277554Y-70850500D01*
X130149499Y-70722445D01*
X130149494Y-70722441D01*
X130002997Y-70616006D01*
X130002996Y-70616005D01*
X130002994Y-70616004D01*
X129951300Y-70589664D01*
X129841639Y-70533788D01*
X129841636Y-70533787D01*
X129669410Y-70477829D01*
X129490551Y-70449500D01*
X129490546Y-70449500D01*
X129309454Y-70449500D01*
X129309449Y-70449500D01*
X129130589Y-70477829D01*
X128958363Y-70533787D01*
X128958360Y-70533788D01*
X128797002Y-70616006D01*
X128650505Y-70722441D01*
X128650500Y-70722445D01*
X128522445Y-70850500D01*
X128522441Y-70850505D01*
X128416006Y-70997002D01*
X128333788Y-71158360D01*
X128333787Y-71158363D01*
X128277829Y-71330589D01*
X128249500Y-71509448D01*
X124500500Y-71509448D01*
X124484019Y-71405397D01*
X124472171Y-71330591D01*
X124416211Y-71158361D01*
X124416211Y-71158360D01*
X124387740Y-71102484D01*
X124333996Y-70997006D01*
X124320396Y-70978287D01*
X124227558Y-70850505D01*
X124227554Y-70850500D01*
X124099499Y-70722445D01*
X124099494Y-70722441D01*
X123952997Y-70616006D01*
X123952996Y-70616005D01*
X123952994Y-70616004D01*
X123901300Y-70589664D01*
X123791639Y-70533788D01*
X123791636Y-70533787D01*
X123619410Y-70477829D01*
X123440551Y-70449500D01*
X123440546Y-70449500D01*
X123259454Y-70449500D01*
X123259449Y-70449500D01*
X123080589Y-70477829D01*
X122908363Y-70533787D01*
X122908360Y-70533788D01*
X122747002Y-70616006D01*
X122600505Y-70722441D01*
X122600500Y-70722445D01*
X122472445Y-70850500D01*
X122472441Y-70850505D01*
X122366006Y-70997002D01*
X122283788Y-71158360D01*
X122283787Y-71158363D01*
X122227829Y-71330589D01*
X122199500Y-71509448D01*
X108500500Y-71509448D01*
X108484019Y-71405397D01*
X108472171Y-71330591D01*
X108416211Y-71158361D01*
X108416211Y-71158360D01*
X108387740Y-71102484D01*
X108333996Y-70997006D01*
X108320396Y-70978287D01*
X108227558Y-70850505D01*
X108227554Y-70850500D01*
X108099499Y-70722445D01*
X108099494Y-70722441D01*
X107952997Y-70616006D01*
X107952996Y-70616005D01*
X107952994Y-70616004D01*
X107901300Y-70589664D01*
X107791639Y-70533788D01*
X107791636Y-70533787D01*
X107619410Y-70477829D01*
X107440551Y-70449500D01*
X107440546Y-70449500D01*
X107259454Y-70449500D01*
X107259449Y-70449500D01*
X107080589Y-70477829D01*
X106908363Y-70533787D01*
X106908360Y-70533788D01*
X106747002Y-70616006D01*
X106600505Y-70722441D01*
X106600500Y-70722445D01*
X106472445Y-70850500D01*
X106472441Y-70850505D01*
X106366006Y-70997002D01*
X106283788Y-71158360D01*
X106283787Y-71158363D01*
X106227829Y-71330589D01*
X106199500Y-71509448D01*
X103500500Y-71509448D01*
X103500500Y-65009448D01*
X106199500Y-65009448D01*
X106199500Y-65990551D01*
X106227829Y-66169410D01*
X106283787Y-66341636D01*
X106283788Y-66341639D01*
X106366006Y-66502997D01*
X106472441Y-66649494D01*
X106472445Y-66649499D01*
X106600500Y-66777554D01*
X106600505Y-66777558D01*
X106728287Y-66870396D01*
X106747006Y-66883996D01*
X106852484Y-66937740D01*
X106908360Y-66966211D01*
X106908363Y-66966212D01*
X106994476Y-66994191D01*
X107080591Y-67022171D01*
X107163429Y-67035291D01*
X107259449Y-67050500D01*
X107259454Y-67050500D01*
X107440551Y-67050500D01*
X107527259Y-67036765D01*
X107619409Y-67022171D01*
X107791639Y-66966211D01*
X107952994Y-66883996D01*
X108099501Y-66777553D01*
X108227553Y-66649501D01*
X108333996Y-66502994D01*
X108416211Y-66341639D01*
X108472171Y-66169409D01*
X108489567Y-66059573D01*
X108500500Y-65990551D01*
X108500500Y-65009448D01*
X108478649Y-64871493D01*
X108472171Y-64830591D01*
X108416211Y-64658361D01*
X108416211Y-64658360D01*
X108387740Y-64602484D01*
X108333996Y-64497006D01*
X108320396Y-64478287D01*
X108227558Y-64350505D01*
X108227554Y-64350500D01*
X108099499Y-64222445D01*
X108099494Y-64222441D01*
X107952997Y-64116006D01*
X107952996Y-64116005D01*
X107952994Y-64116004D01*
X107901300Y-64089664D01*
X107791639Y-64033788D01*
X107791636Y-64033787D01*
X107619410Y-63977829D01*
X107440551Y-63949500D01*
X107440546Y-63949500D01*
X107259454Y-63949500D01*
X107259449Y-63949500D01*
X107080589Y-63977829D01*
X106908363Y-64033787D01*
X106908360Y-64033788D01*
X106747002Y-64116006D01*
X106600505Y-64222441D01*
X106600500Y-64222445D01*
X106472445Y-64350500D01*
X106472441Y-64350505D01*
X106366006Y-64497002D01*
X106283788Y-64658360D01*
X106283787Y-64658363D01*
X106227829Y-64830589D01*
X106199500Y-65009448D01*
X103500500Y-65009448D01*
X103500500Y-54724799D01*
X103520185Y-54657760D01*
X103572989Y-54612005D01*
X103642147Y-54602061D01*
X103705703Y-54631086D01*
X103726075Y-54653676D01*
X103801500Y-54761395D01*
X103801505Y-54761401D01*
X103968599Y-54928495D01*
X104045135Y-54982086D01*
X104162165Y-55064032D01*
X104162167Y-55064033D01*
X104162170Y-55064035D01*
X104167898Y-55066706D01*
X104220339Y-55112872D01*
X104239500Y-55179090D01*
X104239500Y-58753330D01*
X104239499Y-58753348D01*
X104239499Y-58919054D01*
X104239498Y-58919054D01*
X104280423Y-59071785D01*
X104309358Y-59121900D01*
X104309359Y-59121904D01*
X104309360Y-59121904D01*
X104359479Y-59208714D01*
X104359481Y-59208717D01*
X104478349Y-59327585D01*
X104478355Y-59327590D01*
X111015139Y-65864374D01*
X111015149Y-65864385D01*
X111019479Y-65868715D01*
X111019480Y-65868716D01*
X111131284Y-65980520D01*
X111131286Y-65980521D01*
X111131290Y-65980524D01*
X111148658Y-65990551D01*
X111268216Y-66059577D01*
X111380019Y-66089534D01*
X111420942Y-66100500D01*
X111420943Y-66100500D01*
X122115347Y-66100500D01*
X122182386Y-66120185D01*
X122228141Y-66172989D01*
X122233278Y-66186182D01*
X122283787Y-66341636D01*
X122283788Y-66341639D01*
X122366006Y-66502997D01*
X122472441Y-66649494D01*
X122472445Y-66649499D01*
X122600500Y-66777554D01*
X122600505Y-66777558D01*
X122728287Y-66870396D01*
X122747006Y-66883996D01*
X122852484Y-66937740D01*
X122908360Y-66966211D01*
X122908363Y-66966212D01*
X122994476Y-66994191D01*
X123080591Y-67022171D01*
X123163429Y-67035291D01*
X123259449Y-67050500D01*
X123259454Y-67050500D01*
X123440551Y-67050500D01*
X123527259Y-67036765D01*
X123619409Y-67022171D01*
X123791639Y-66966211D01*
X123952994Y-66883996D01*
X124099501Y-66777553D01*
X124227553Y-66649501D01*
X124333996Y-66502994D01*
X124416211Y-66341639D01*
X124472171Y-66169409D01*
X124489567Y-66059573D01*
X124500500Y-65990551D01*
X124500500Y-65009448D01*
X128249500Y-65009448D01*
X128249500Y-65990551D01*
X128277829Y-66169410D01*
X128333787Y-66341636D01*
X128333788Y-66341639D01*
X128416006Y-66502997D01*
X128522441Y-66649494D01*
X128522445Y-66649499D01*
X128650500Y-66777554D01*
X128650505Y-66777558D01*
X128778287Y-66870396D01*
X128797006Y-66883996D01*
X128902484Y-66937740D01*
X128958360Y-66966211D01*
X128958363Y-66966212D01*
X129044476Y-66994191D01*
X129130591Y-67022171D01*
X129213429Y-67035291D01*
X129309449Y-67050500D01*
X129309454Y-67050500D01*
X129490551Y-67050500D01*
X129577259Y-67036765D01*
X129669409Y-67022171D01*
X129841639Y-66966211D01*
X130002994Y-66883996D01*
X130149501Y-66777553D01*
X130277553Y-66649501D01*
X130383996Y-66502994D01*
X130466211Y-66341639D01*
X130522171Y-66169409D01*
X130539567Y-66059573D01*
X130550500Y-65990551D01*
X130550500Y-65009448D01*
X130528649Y-64871493D01*
X130522171Y-64830591D01*
X130466211Y-64658361D01*
X130466211Y-64658360D01*
X130437740Y-64602484D01*
X130383996Y-64497006D01*
X130370396Y-64478287D01*
X130277558Y-64350505D01*
X130277554Y-64350500D01*
X130149499Y-64222445D01*
X130149494Y-64222441D01*
X130002997Y-64116006D01*
X130002996Y-64116005D01*
X130002994Y-64116004D01*
X129951300Y-64089664D01*
X129841639Y-64033788D01*
X129841636Y-64033787D01*
X129669410Y-63977829D01*
X129490551Y-63949500D01*
X129490546Y-63949500D01*
X129309454Y-63949500D01*
X129309449Y-63949500D01*
X129130589Y-63977829D01*
X128958363Y-64033787D01*
X128958360Y-64033788D01*
X128797002Y-64116006D01*
X128650505Y-64222441D01*
X128650500Y-64222445D01*
X128522445Y-64350500D01*
X128522441Y-64350505D01*
X128416006Y-64497002D01*
X128333788Y-64658360D01*
X128333787Y-64658363D01*
X128277829Y-64830589D01*
X128249500Y-65009448D01*
X124500500Y-65009448D01*
X124478649Y-64871493D01*
X124472171Y-64830591D01*
X124416211Y-64658361D01*
X124416211Y-64658360D01*
X124387740Y-64602484D01*
X124333996Y-64497006D01*
X124320396Y-64478287D01*
X124227558Y-64350505D01*
X124227554Y-64350500D01*
X124099499Y-64222445D01*
X124099494Y-64222441D01*
X123952997Y-64116006D01*
X123952996Y-64116005D01*
X123952994Y-64116004D01*
X123901300Y-64089664D01*
X123791639Y-64033788D01*
X123791636Y-64033787D01*
X123619410Y-63977829D01*
X123440551Y-63949500D01*
X123440546Y-63949500D01*
X123259454Y-63949500D01*
X123259449Y-63949500D01*
X123080589Y-63977829D01*
X122908363Y-64033787D01*
X122908360Y-64033788D01*
X122747002Y-64116006D01*
X122600505Y-64222441D01*
X122600500Y-64222445D01*
X122472445Y-64350500D01*
X122472441Y-64350505D01*
X122366006Y-64497002D01*
X122283788Y-64658360D01*
X122283787Y-64658363D01*
X122233278Y-64813818D01*
X122193841Y-64871493D01*
X122129482Y-64898692D01*
X122115347Y-64899500D01*
X111800097Y-64899500D01*
X111733058Y-64879815D01*
X111712416Y-64863181D01*
X105476819Y-58627584D01*
X105443334Y-58566261D01*
X105440500Y-58539903D01*
X105440500Y-55179090D01*
X105460185Y-55112051D01*
X105512101Y-55066706D01*
X105517830Y-55064035D01*
X105711401Y-54928495D01*
X105878495Y-54761401D01*
X106008425Y-54575842D01*
X106063002Y-54532217D01*
X106132500Y-54525023D01*
X106194855Y-54556546D01*
X106211575Y-54575842D01*
X106341500Y-54761395D01*
X106341505Y-54761401D01*
X106508599Y-54928495D01*
X106585135Y-54982086D01*
X106702165Y-55064032D01*
X106702167Y-55064033D01*
X106702170Y-55064035D01*
X106707898Y-55066706D01*
X106760339Y-55112872D01*
X106779500Y-55179090D01*
X106779500Y-58293330D01*
X106779499Y-58293348D01*
X106779499Y-58459054D01*
X106779498Y-58459054D01*
X106820423Y-58611785D01*
X106849358Y-58661900D01*
X106849359Y-58661904D01*
X106849360Y-58661904D01*
X106899479Y-58748714D01*
X106899481Y-58748717D01*
X107018349Y-58867585D01*
X107018354Y-58867589D01*
X111631284Y-63480520D01*
X111631286Y-63480521D01*
X111631290Y-63480524D01*
X111768209Y-63559573D01*
X111768216Y-63559577D01*
X111920943Y-63600501D01*
X111920945Y-63600501D01*
X112086654Y-63600501D01*
X112086670Y-63600500D01*
X142599903Y-63600500D01*
X142666942Y-63620185D01*
X142687584Y-63636819D01*
X144213181Y-65162416D01*
X144246666Y-65223739D01*
X144249500Y-65250097D01*
X144249500Y-65990551D01*
X144277829Y-66169410D01*
X144333787Y-66341636D01*
X144333788Y-66341639D01*
X144416006Y-66502997D01*
X144522441Y-66649494D01*
X144522445Y-66649499D01*
X144650500Y-66777554D01*
X144650505Y-66777558D01*
X144778287Y-66870396D01*
X144797006Y-66883996D01*
X144902484Y-66937740D01*
X144958360Y-66966211D01*
X144958363Y-66966212D01*
X145044476Y-66994191D01*
X145130591Y-67022171D01*
X145213429Y-67035291D01*
X145309449Y-67050500D01*
X145309454Y-67050500D01*
X145490551Y-67050500D01*
X145577259Y-67036765D01*
X145669409Y-67022171D01*
X145841639Y-66966211D01*
X146002994Y-66883996D01*
X146149501Y-66777553D01*
X146277553Y-66649501D01*
X146383996Y-66502994D01*
X146466211Y-66341639D01*
X146522171Y-66169409D01*
X146539567Y-66059573D01*
X146550500Y-65990551D01*
X146550500Y-65009448D01*
X150299500Y-65009448D01*
X150299500Y-65990551D01*
X150327829Y-66169410D01*
X150383787Y-66341636D01*
X150383788Y-66341639D01*
X150466006Y-66502997D01*
X150572441Y-66649494D01*
X150572445Y-66649499D01*
X150700500Y-66777554D01*
X150700505Y-66777558D01*
X150828287Y-66870396D01*
X150847006Y-66883996D01*
X150952484Y-66937740D01*
X151008360Y-66966211D01*
X151008363Y-66966212D01*
X151094476Y-66994191D01*
X151180591Y-67022171D01*
X151263429Y-67035291D01*
X151359449Y-67050500D01*
X151359454Y-67050500D01*
X151540551Y-67050500D01*
X151627259Y-67036765D01*
X151719409Y-67022171D01*
X151891639Y-66966211D01*
X152052994Y-66883996D01*
X152199501Y-66777553D01*
X152327553Y-66649501D01*
X152433996Y-66502994D01*
X152516211Y-66341639D01*
X152572171Y-66169409D01*
X152589567Y-66059573D01*
X152600500Y-65990551D01*
X152600500Y-65009448D01*
X152578649Y-64871493D01*
X152572171Y-64830591D01*
X152516211Y-64658361D01*
X152516211Y-64658360D01*
X152487740Y-64602484D01*
X152433996Y-64497006D01*
X152420396Y-64478287D01*
X152327558Y-64350505D01*
X152327554Y-64350500D01*
X152199499Y-64222445D01*
X152199494Y-64222441D01*
X152052997Y-64116006D01*
X152052996Y-64116005D01*
X152052994Y-64116004D01*
X152001300Y-64089664D01*
X151891639Y-64033788D01*
X151891636Y-64033787D01*
X151719410Y-63977829D01*
X151540551Y-63949500D01*
X151540546Y-63949500D01*
X151359454Y-63949500D01*
X151359449Y-63949500D01*
X151180589Y-63977829D01*
X151008363Y-64033787D01*
X151008360Y-64033788D01*
X150847002Y-64116006D01*
X150700505Y-64222441D01*
X150700500Y-64222445D01*
X150572445Y-64350500D01*
X150572441Y-64350505D01*
X150466006Y-64497002D01*
X150383788Y-64658360D01*
X150383787Y-64658363D01*
X150327829Y-64830589D01*
X150299500Y-65009448D01*
X146550500Y-65009448D01*
X146528649Y-64871493D01*
X146522171Y-64830591D01*
X146466211Y-64658361D01*
X146466211Y-64658360D01*
X146437740Y-64602484D01*
X146383996Y-64497006D01*
X146370396Y-64478287D01*
X146277558Y-64350505D01*
X146277554Y-64350500D01*
X146149499Y-64222445D01*
X146149494Y-64222441D01*
X146002997Y-64116006D01*
X146002996Y-64116005D01*
X146002994Y-64116004D01*
X145951300Y-64089664D01*
X145841639Y-64033788D01*
X145841636Y-64033787D01*
X145669410Y-63977829D01*
X145490551Y-63949500D01*
X145490546Y-63949500D01*
X145309454Y-63949500D01*
X145309449Y-63949500D01*
X145130589Y-63977829D01*
X144958363Y-64033787D01*
X144922474Y-64052073D01*
X144853805Y-64064967D01*
X144789065Y-64038688D01*
X144778502Y-64029267D01*
X143561416Y-62812181D01*
X143527931Y-62750858D01*
X143532915Y-62681166D01*
X143574787Y-62625233D01*
X143640251Y-62600816D01*
X143649097Y-62600500D01*
X163649903Y-62600500D01*
X163716942Y-62620185D01*
X163737584Y-62636819D01*
X166263181Y-65162416D01*
X166296666Y-65223739D01*
X166299500Y-65250097D01*
X166299500Y-65990551D01*
X166327829Y-66169410D01*
X166383787Y-66341636D01*
X166383788Y-66341639D01*
X166466006Y-66502997D01*
X166572441Y-66649494D01*
X166572445Y-66649499D01*
X166700500Y-66777554D01*
X166700505Y-66777558D01*
X166828287Y-66870396D01*
X166847006Y-66883996D01*
X166952484Y-66937740D01*
X167008360Y-66966211D01*
X167008363Y-66966212D01*
X167094476Y-66994191D01*
X167180591Y-67022171D01*
X167263429Y-67035291D01*
X167359449Y-67050500D01*
X167359454Y-67050500D01*
X167540551Y-67050500D01*
X167627259Y-67036765D01*
X167719409Y-67022171D01*
X167891639Y-66966211D01*
X168052994Y-66883996D01*
X168199501Y-66777553D01*
X168327553Y-66649501D01*
X168433996Y-66502994D01*
X168516211Y-66341639D01*
X168572171Y-66169409D01*
X168589567Y-66059573D01*
X168600500Y-65990551D01*
X168600500Y-65009448D01*
X172349500Y-65009448D01*
X172349500Y-65990551D01*
X172377829Y-66169410D01*
X172433787Y-66341636D01*
X172433788Y-66341639D01*
X172516006Y-66502997D01*
X172622441Y-66649494D01*
X172622445Y-66649499D01*
X172750500Y-66777554D01*
X172750505Y-66777558D01*
X172878287Y-66870396D01*
X172897006Y-66883996D01*
X173002484Y-66937740D01*
X173058360Y-66966211D01*
X173058363Y-66966212D01*
X173144476Y-66994191D01*
X173230591Y-67022171D01*
X173313429Y-67035291D01*
X173409449Y-67050500D01*
X173409454Y-67050500D01*
X173590551Y-67050500D01*
X173677259Y-67036765D01*
X173769409Y-67022171D01*
X173941639Y-66966211D01*
X174102994Y-66883996D01*
X174249501Y-66777553D01*
X174377553Y-66649501D01*
X174483996Y-66502994D01*
X174566211Y-66341639D01*
X174622171Y-66169409D01*
X174639567Y-66059573D01*
X174650500Y-65990551D01*
X174650500Y-65009448D01*
X174628649Y-64871493D01*
X174622171Y-64830591D01*
X174566211Y-64658361D01*
X174566211Y-64658360D01*
X174537740Y-64602484D01*
X174483996Y-64497006D01*
X174470396Y-64478287D01*
X174377558Y-64350505D01*
X174377554Y-64350500D01*
X174249499Y-64222445D01*
X174249494Y-64222441D01*
X174102997Y-64116006D01*
X174102996Y-64116005D01*
X174102994Y-64116004D01*
X174051300Y-64089664D01*
X173941639Y-64033788D01*
X173941636Y-64033787D01*
X173769410Y-63977829D01*
X173590551Y-63949500D01*
X173590546Y-63949500D01*
X173409454Y-63949500D01*
X173409449Y-63949500D01*
X173230589Y-63977829D01*
X173058363Y-64033787D01*
X173058360Y-64033788D01*
X172897002Y-64116006D01*
X172750505Y-64222441D01*
X172750500Y-64222445D01*
X172622445Y-64350500D01*
X172622441Y-64350505D01*
X172516006Y-64497002D01*
X172433788Y-64658360D01*
X172433787Y-64658363D01*
X172377829Y-64830589D01*
X172349500Y-65009448D01*
X168600500Y-65009448D01*
X168578649Y-64871493D01*
X168572171Y-64830591D01*
X168516211Y-64658361D01*
X168516211Y-64658360D01*
X168487740Y-64602484D01*
X168433996Y-64497006D01*
X168420396Y-64478287D01*
X168327558Y-64350505D01*
X168327554Y-64350500D01*
X168199499Y-64222445D01*
X168199494Y-64222441D01*
X168052997Y-64116006D01*
X168052996Y-64116005D01*
X168052994Y-64116004D01*
X168001300Y-64089664D01*
X167891639Y-64033788D01*
X167891636Y-64033787D01*
X167719410Y-63977829D01*
X167540551Y-63949500D01*
X167540546Y-63949500D01*
X167359454Y-63949500D01*
X167359449Y-63949500D01*
X167180589Y-63977829D01*
X167008363Y-64033787D01*
X166972474Y-64052073D01*
X166903805Y-64064967D01*
X166839065Y-64038688D01*
X166828502Y-64029267D01*
X164437590Y-61638355D01*
X164437588Y-61638352D01*
X164318717Y-61519481D01*
X164318716Y-61519480D01*
X164231904Y-61469360D01*
X164231904Y-61469359D01*
X164231900Y-61469358D01*
X164181785Y-61440423D01*
X164029057Y-61399499D01*
X163870943Y-61399499D01*
X163863347Y-61399499D01*
X163863331Y-61399500D01*
X116760097Y-61399500D01*
X116693058Y-61379815D01*
X116672416Y-61363181D01*
X113096819Y-57787584D01*
X113063334Y-57726261D01*
X113060500Y-57699903D01*
X113060500Y-55179090D01*
X113080185Y-55112051D01*
X113132101Y-55066706D01*
X113137830Y-55064035D01*
X113331401Y-54928495D01*
X113498495Y-54761401D01*
X113628425Y-54575842D01*
X113683002Y-54532217D01*
X113752500Y-54525023D01*
X113814855Y-54556546D01*
X113831575Y-54575842D01*
X113961500Y-54761395D01*
X113961505Y-54761401D01*
X114128599Y-54928495D01*
X114205135Y-54982086D01*
X114322165Y-55064032D01*
X114322167Y-55064033D01*
X114322170Y-55064035D01*
X114327898Y-55066706D01*
X114380339Y-55112872D01*
X114399500Y-55179090D01*
X114399500Y-57913330D01*
X114399499Y-57913348D01*
X114399499Y-58079054D01*
X114399498Y-58079054D01*
X114399499Y-58079057D01*
X114440423Y-58231785D01*
X114444872Y-58239491D01*
X114444875Y-58239501D01*
X114444877Y-58239500D01*
X114519475Y-58368709D01*
X114519481Y-58368717D01*
X114638349Y-58487585D01*
X114638355Y-58487590D01*
X116515139Y-60364374D01*
X116515149Y-60364385D01*
X116519479Y-60368715D01*
X116519480Y-60368716D01*
X116631284Y-60480520D01*
X116718095Y-60530639D01*
X116718097Y-60530641D01*
X116756151Y-60552611D01*
X116768215Y-60559577D01*
X116920943Y-60600500D01*
X173699903Y-60600500D01*
X173766942Y-60620185D01*
X173787583Y-60636818D01*
X179131284Y-65980520D01*
X179131286Y-65980521D01*
X179131290Y-65980524D01*
X179148658Y-65990551D01*
X179268216Y-66059577D01*
X179420943Y-66100501D01*
X179420945Y-66100501D01*
X179586654Y-66100501D01*
X179586670Y-66100500D01*
X188265347Y-66100500D01*
X188332386Y-66120185D01*
X188378141Y-66172989D01*
X188383278Y-66186182D01*
X188433787Y-66341636D01*
X188433788Y-66341639D01*
X188516006Y-66502997D01*
X188622441Y-66649494D01*
X188622445Y-66649499D01*
X188750500Y-66777554D01*
X188750505Y-66777558D01*
X188878287Y-66870396D01*
X188897006Y-66883996D01*
X189002484Y-66937740D01*
X189058360Y-66966211D01*
X189058363Y-66966212D01*
X189144476Y-66994191D01*
X189230591Y-67022171D01*
X189313429Y-67035291D01*
X189409449Y-67050500D01*
X189409454Y-67050500D01*
X189590551Y-67050500D01*
X189677259Y-67036765D01*
X189769409Y-67022171D01*
X189941639Y-66966211D01*
X190102994Y-66883996D01*
X190249501Y-66777553D01*
X190377553Y-66649501D01*
X190483996Y-66502994D01*
X190566211Y-66341639D01*
X190622171Y-66169409D01*
X190639567Y-66059573D01*
X190650500Y-65990551D01*
X190650500Y-65009448D01*
X190628649Y-64871493D01*
X190622171Y-64830591D01*
X190566211Y-64658361D01*
X190566211Y-64658360D01*
X190537740Y-64602484D01*
X190483996Y-64497006D01*
X190470396Y-64478287D01*
X190377558Y-64350505D01*
X190377554Y-64350500D01*
X190249499Y-64222445D01*
X190249494Y-64222441D01*
X190102997Y-64116006D01*
X190102996Y-64116005D01*
X190102994Y-64116004D01*
X190051300Y-64089664D01*
X189941639Y-64033788D01*
X189941636Y-64033787D01*
X189769410Y-63977829D01*
X189590551Y-63949500D01*
X189590546Y-63949500D01*
X189409454Y-63949500D01*
X189409449Y-63949500D01*
X189230589Y-63977829D01*
X189058363Y-64033787D01*
X189058360Y-64033788D01*
X188897002Y-64116006D01*
X188750505Y-64222441D01*
X188750500Y-64222445D01*
X188622445Y-64350500D01*
X188622441Y-64350505D01*
X188516006Y-64497002D01*
X188433788Y-64658360D01*
X188433787Y-64658363D01*
X188383278Y-64813818D01*
X188343841Y-64871493D01*
X188279482Y-64898692D01*
X188265347Y-64899500D01*
X179800098Y-64899500D01*
X179733059Y-64879815D01*
X179712417Y-64863181D01*
X174487590Y-59638355D01*
X174487588Y-59638352D01*
X174368717Y-59519481D01*
X174368716Y-59519480D01*
X174281904Y-59469360D01*
X174281904Y-59469359D01*
X174281900Y-59469358D01*
X174231785Y-59440423D01*
X174079057Y-59399499D01*
X173920943Y-59399499D01*
X173913347Y-59399499D01*
X173913331Y-59399500D01*
X117300097Y-59399500D01*
X117233058Y-59379815D01*
X117212416Y-59363181D01*
X115636819Y-57787584D01*
X115603334Y-57726261D01*
X115600500Y-57699903D01*
X115600500Y-55179090D01*
X115620185Y-55112051D01*
X115672101Y-55066706D01*
X115677830Y-55064035D01*
X115871401Y-54928495D01*
X116038495Y-54761401D01*
X116168425Y-54575842D01*
X116223002Y-54532217D01*
X116292500Y-54525023D01*
X116354855Y-54556546D01*
X116371575Y-54575842D01*
X116501500Y-54761395D01*
X116501505Y-54761401D01*
X116668599Y-54928495D01*
X116745135Y-54982086D01*
X116862165Y-55064032D01*
X116862167Y-55064033D01*
X116862170Y-55064035D01*
X117076337Y-55163903D01*
X117304592Y-55225063D01*
X117475319Y-55240000D01*
X117539999Y-55245659D01*
X117540000Y-55245659D01*
X117540001Y-55245659D01*
X117604681Y-55240000D01*
X117775408Y-55225063D01*
X118003663Y-55163903D01*
X118217830Y-55064035D01*
X118411401Y-54928495D01*
X118578495Y-54761401D01*
X118708425Y-54575842D01*
X118763002Y-54532217D01*
X118832500Y-54525023D01*
X118894855Y-54556546D01*
X118911575Y-54575842D01*
X119041500Y-54761395D01*
X119041505Y-54761401D01*
X119208599Y-54928495D01*
X119285135Y-54982086D01*
X119402165Y-55064032D01*
X119402167Y-55064033D01*
X119402170Y-55064035D01*
X119616337Y-55163903D01*
X119844592Y-55225063D01*
X120015319Y-55240000D01*
X120079999Y-55245659D01*
X120080000Y-55245659D01*
X120080001Y-55245659D01*
X120144681Y-55240000D01*
X120315408Y-55225063D01*
X120543663Y-55163903D01*
X120757830Y-55064035D01*
X120951401Y-54928495D01*
X121073717Y-54806178D01*
X121135036Y-54772696D01*
X121204728Y-54777680D01*
X121260662Y-54819551D01*
X121277577Y-54850528D01*
X121326646Y-54982088D01*
X121326649Y-54982093D01*
X121412809Y-55097187D01*
X121412812Y-55097190D01*
X121527906Y-55183350D01*
X121527913Y-55183354D01*
X121662620Y-55233596D01*
X121662627Y-55233598D01*
X121722155Y-55239999D01*
X121722172Y-55240000D01*
X122370000Y-55240000D01*
X122370000Y-54334560D01*
X122423147Y-54365245D01*
X122552857Y-54400000D01*
X122687143Y-54400000D01*
X122816853Y-54365245D01*
X122870000Y-54334560D01*
X122870000Y-55240000D01*
X123517828Y-55240000D01*
X123517844Y-55239999D01*
X123577372Y-55233598D01*
X123577379Y-55233596D01*
X123712086Y-55183354D01*
X123712093Y-55183350D01*
X123827187Y-55097190D01*
X123827190Y-55097187D01*
X123913350Y-54982093D01*
X123913354Y-54982086D01*
X123962422Y-54850529D01*
X124004293Y-54794595D01*
X124069757Y-54770178D01*
X124138030Y-54785030D01*
X124166285Y-54806181D01*
X124288599Y-54928495D01*
X124365135Y-54982086D01*
X124482165Y-55064032D01*
X124482167Y-55064033D01*
X124482170Y-55064035D01*
X124696337Y-55163903D01*
X124924592Y-55225063D01*
X125095319Y-55240000D01*
X125159999Y-55245659D01*
X125160000Y-55245659D01*
X125160001Y-55245659D01*
X125224681Y-55240000D01*
X125395408Y-55225063D01*
X125623663Y-55163903D01*
X125837830Y-55064035D01*
X126031401Y-54928495D01*
X126198495Y-54761401D01*
X126328425Y-54575842D01*
X126383002Y-54532217D01*
X126452500Y-54525023D01*
X126514855Y-54556546D01*
X126531575Y-54575842D01*
X126661500Y-54761395D01*
X126661505Y-54761401D01*
X126828599Y-54928495D01*
X126905135Y-54982086D01*
X127022165Y-55064032D01*
X127022167Y-55064033D01*
X127022170Y-55064035D01*
X127236337Y-55163903D01*
X127464592Y-55225063D01*
X127635319Y-55240000D01*
X127699999Y-55245659D01*
X127700000Y-55245659D01*
X127700001Y-55245659D01*
X127764681Y-55240000D01*
X127935408Y-55225063D01*
X128163663Y-55163903D01*
X128377830Y-55064035D01*
X128571401Y-54928495D01*
X128738495Y-54761401D01*
X128868425Y-54575842D01*
X128923002Y-54532217D01*
X128992500Y-54525023D01*
X129054855Y-54556546D01*
X129071575Y-54575842D01*
X129201500Y-54761395D01*
X129201505Y-54761401D01*
X129368599Y-54928495D01*
X129445135Y-54982086D01*
X129562165Y-55064032D01*
X129562167Y-55064033D01*
X129562170Y-55064035D01*
X129776337Y-55163903D01*
X130004592Y-55225063D01*
X130175319Y-55240000D01*
X130239999Y-55245659D01*
X130240000Y-55245659D01*
X130240001Y-55245659D01*
X130304681Y-55240000D01*
X130475408Y-55225063D01*
X130703663Y-55163903D01*
X130917830Y-55064035D01*
X131111401Y-54928495D01*
X131278495Y-54761401D01*
X131408425Y-54575842D01*
X131463002Y-54532217D01*
X131532500Y-54525023D01*
X131594855Y-54556546D01*
X131611575Y-54575842D01*
X131741500Y-54761395D01*
X131741505Y-54761401D01*
X131908599Y-54928495D01*
X131985135Y-54982086D01*
X132102165Y-55064032D01*
X132102167Y-55064033D01*
X132102170Y-55064035D01*
X132316337Y-55163903D01*
X132544592Y-55225063D01*
X132715319Y-55240000D01*
X132779999Y-55245659D01*
X132780000Y-55245659D01*
X132780001Y-55245659D01*
X132844681Y-55240000D01*
X133015408Y-55225063D01*
X133243663Y-55163903D01*
X133457830Y-55064035D01*
X133651401Y-54928495D01*
X133773717Y-54806178D01*
X133835036Y-54772696D01*
X133904728Y-54777680D01*
X133960662Y-54819551D01*
X133977577Y-54850528D01*
X134026646Y-54982088D01*
X134026649Y-54982093D01*
X134112809Y-55097187D01*
X134112812Y-55097190D01*
X134227906Y-55183350D01*
X134227913Y-55183354D01*
X134362620Y-55233596D01*
X134362627Y-55233598D01*
X134422155Y-55239999D01*
X134422172Y-55240000D01*
X135070000Y-55240000D01*
X135070000Y-54334560D01*
X135123147Y-54365245D01*
X135252857Y-54400000D01*
X135387143Y-54400000D01*
X135516853Y-54365245D01*
X135570000Y-54334560D01*
X135570000Y-55240000D01*
X136217828Y-55240000D01*
X136217844Y-55239999D01*
X136277372Y-55233598D01*
X136277379Y-55233596D01*
X136412086Y-55183354D01*
X136412093Y-55183350D01*
X136527187Y-55097190D01*
X136527190Y-55097187D01*
X136613350Y-54982093D01*
X136613354Y-54982086D01*
X136662422Y-54850529D01*
X136704293Y-54794595D01*
X136769757Y-54770178D01*
X136838030Y-54785030D01*
X136866285Y-54806181D01*
X136988599Y-54928495D01*
X137065135Y-54982086D01*
X137182165Y-55064032D01*
X137182167Y-55064033D01*
X137182170Y-55064035D01*
X137396337Y-55163903D01*
X137624592Y-55225063D01*
X137795319Y-55240000D01*
X137859999Y-55245659D01*
X137860000Y-55245659D01*
X137860001Y-55245659D01*
X137924681Y-55240000D01*
X138095408Y-55225063D01*
X138323663Y-55163903D01*
X138537830Y-55064035D01*
X138731401Y-54928495D01*
X138898495Y-54761401D01*
X139028425Y-54575842D01*
X139083002Y-54532217D01*
X139152500Y-54525023D01*
X139214855Y-54556546D01*
X139231575Y-54575842D01*
X139361500Y-54761395D01*
X139361505Y-54761401D01*
X139528599Y-54928495D01*
X139605135Y-54982086D01*
X139722165Y-55064032D01*
X139722167Y-55064033D01*
X139722170Y-55064035D01*
X139936337Y-55163903D01*
X140164592Y-55225063D01*
X140335319Y-55240000D01*
X140399999Y-55245659D01*
X140400000Y-55245659D01*
X140400001Y-55245659D01*
X140464681Y-55240000D01*
X140635408Y-55225063D01*
X140863663Y-55163903D01*
X141077830Y-55064035D01*
X141271401Y-54928495D01*
X141438495Y-54761401D01*
X141568425Y-54575842D01*
X141623002Y-54532217D01*
X141692500Y-54525023D01*
X141754855Y-54556546D01*
X141771575Y-54575842D01*
X141901500Y-54761395D01*
X141901505Y-54761401D01*
X142068599Y-54928495D01*
X142145135Y-54982086D01*
X142262165Y-55064032D01*
X142262167Y-55064033D01*
X142262170Y-55064035D01*
X142476337Y-55163903D01*
X142704592Y-55225063D01*
X142875319Y-55240000D01*
X142939999Y-55245659D01*
X142940000Y-55245659D01*
X142940001Y-55245659D01*
X143004681Y-55240000D01*
X143175408Y-55225063D01*
X143403663Y-55163903D01*
X143617830Y-55064035D01*
X143811401Y-54928495D01*
X143978495Y-54761401D01*
X144108425Y-54575842D01*
X144163002Y-54532217D01*
X144232500Y-54525023D01*
X144294855Y-54556546D01*
X144311575Y-54575842D01*
X144441500Y-54761395D01*
X144441505Y-54761401D01*
X144608599Y-54928495D01*
X144685135Y-54982086D01*
X144802165Y-55064032D01*
X144802167Y-55064033D01*
X144802170Y-55064035D01*
X145016337Y-55163903D01*
X145244592Y-55225063D01*
X145415319Y-55240000D01*
X145479999Y-55245659D01*
X145480000Y-55245659D01*
X145480001Y-55245659D01*
X145544681Y-55240000D01*
X145715408Y-55225063D01*
X145943663Y-55163903D01*
X146157830Y-55064035D01*
X146351401Y-54928495D01*
X146473717Y-54806178D01*
X146535036Y-54772696D01*
X146604728Y-54777680D01*
X146660662Y-54819551D01*
X146677577Y-54850528D01*
X146726646Y-54982088D01*
X146726649Y-54982093D01*
X146812809Y-55097187D01*
X146812812Y-55097190D01*
X146927906Y-55183350D01*
X146927913Y-55183354D01*
X147062620Y-55233596D01*
X147062627Y-55233598D01*
X147122155Y-55239999D01*
X147122172Y-55240000D01*
X147770000Y-55240000D01*
X147770000Y-54334560D01*
X147823147Y-54365245D01*
X147952857Y-54400000D01*
X148087143Y-54400000D01*
X148216853Y-54365245D01*
X148270000Y-54334560D01*
X148270000Y-55240000D01*
X148917828Y-55240000D01*
X148917844Y-55239999D01*
X148977372Y-55233598D01*
X148977379Y-55233596D01*
X149112086Y-55183354D01*
X149112093Y-55183350D01*
X149227187Y-55097190D01*
X149227190Y-55097187D01*
X149313350Y-54982093D01*
X149313354Y-54982086D01*
X149362422Y-54850529D01*
X149404293Y-54794595D01*
X149469757Y-54770178D01*
X149538030Y-54785030D01*
X149566285Y-54806181D01*
X149688599Y-54928495D01*
X149765135Y-54982086D01*
X149882165Y-55064032D01*
X149882167Y-55064033D01*
X149882170Y-55064035D01*
X150096337Y-55163903D01*
X150324592Y-55225063D01*
X150495319Y-55240000D01*
X150559999Y-55245659D01*
X150560000Y-55245659D01*
X150560001Y-55245659D01*
X150624681Y-55240000D01*
X150795408Y-55225063D01*
X151023663Y-55163903D01*
X151237830Y-55064035D01*
X151431401Y-54928495D01*
X151598495Y-54761401D01*
X151728425Y-54575842D01*
X151783002Y-54532217D01*
X151852500Y-54525023D01*
X151914855Y-54556546D01*
X151931575Y-54575842D01*
X152061500Y-54761395D01*
X152061505Y-54761401D01*
X152228599Y-54928495D01*
X152305135Y-54982086D01*
X152422165Y-55064032D01*
X152422167Y-55064033D01*
X152422170Y-55064035D01*
X152636337Y-55163903D01*
X152864592Y-55225063D01*
X153035319Y-55240000D01*
X153099999Y-55245659D01*
X153100000Y-55245659D01*
X153100001Y-55245659D01*
X153164681Y-55240000D01*
X153335408Y-55225063D01*
X153563663Y-55163903D01*
X153777830Y-55064035D01*
X153971401Y-54928495D01*
X154138495Y-54761401D01*
X154274035Y-54567830D01*
X154276707Y-54562097D01*
X154322878Y-54509658D01*
X154389091Y-54490500D01*
X160523331Y-54490500D01*
X160523347Y-54490501D01*
X160530943Y-54490501D01*
X160689054Y-54490501D01*
X160689057Y-54490501D01*
X160841785Y-54449577D01*
X160891904Y-54420639D01*
X160978716Y-54370520D01*
X161090520Y-54258716D01*
X161090520Y-54258714D01*
X161100728Y-54248507D01*
X161100729Y-54248504D01*
X163212416Y-52136819D01*
X163273739Y-52103334D01*
X163300097Y-52100500D01*
X172525501Y-52100500D01*
X172592540Y-52120185D01*
X172638295Y-52172989D01*
X172649501Y-52224500D01*
X172649501Y-52397876D01*
X172655908Y-52457483D01*
X172706202Y-52592328D01*
X172706206Y-52592335D01*
X172792452Y-52707544D01*
X172792455Y-52707547D01*
X172907664Y-52793793D01*
X172907671Y-52793797D01*
X173042517Y-52844091D01*
X173042516Y-52844091D01*
X173049444Y-52844835D01*
X173102127Y-52850500D01*
X174897872Y-52850499D01*
X174957483Y-52844091D01*
X175092331Y-52793796D01*
X175207546Y-52707546D01*
X175293796Y-52592331D01*
X175343002Y-52460401D01*
X175384872Y-52404468D01*
X175450337Y-52380050D01*
X175518610Y-52394901D01*
X175546865Y-52416053D01*
X175668917Y-52538105D01*
X175862421Y-52673600D01*
X176076507Y-52773429D01*
X176076516Y-52773433D01*
X176290000Y-52830634D01*
X176290000Y-51933012D01*
X176347007Y-51965925D01*
X176474174Y-52000000D01*
X176605826Y-52000000D01*
X176732993Y-51965925D01*
X176790000Y-51933012D01*
X176790000Y-52830633D01*
X177003483Y-52773433D01*
X177003492Y-52773429D01*
X177217578Y-52673600D01*
X177411082Y-52538105D01*
X177578105Y-52371082D01*
X177708119Y-52185405D01*
X177762696Y-52141781D01*
X177832195Y-52134588D01*
X177894549Y-52166110D01*
X177911269Y-52185405D01*
X178041505Y-52371401D01*
X178208599Y-52538495D01*
X178297734Y-52600908D01*
X178402165Y-52674032D01*
X178402167Y-52674033D01*
X178402170Y-52674035D01*
X178616337Y-52773903D01*
X178616343Y-52773904D01*
X178616344Y-52773905D01*
X178671285Y-52788626D01*
X178844592Y-52835063D01*
X179021034Y-52850500D01*
X179079999Y-52855659D01*
X179080000Y-52855659D01*
X179080001Y-52855659D01*
X179138966Y-52850500D01*
X179315408Y-52835063D01*
X179543663Y-52773903D01*
X179757830Y-52674035D01*
X179951401Y-52538495D01*
X180118495Y-52371401D01*
X180254035Y-52177830D01*
X180353903Y-51963663D01*
X180415063Y-51735408D01*
X180435659Y-51500000D01*
X180415063Y-51264592D01*
X180353903Y-51036337D01*
X180254035Y-50822171D01*
X180248731Y-50814595D01*
X180118494Y-50628597D01*
X179951402Y-50461506D01*
X179951395Y-50461501D01*
X179757834Y-50325967D01*
X179757830Y-50325965D01*
X179757828Y-50325964D01*
X179543663Y-50226097D01*
X179543659Y-50226096D01*
X179543655Y-50226094D01*
X179315413Y-50164938D01*
X179315403Y-50164936D01*
X179080001Y-50144341D01*
X179079999Y-50144341D01*
X178844596Y-50164936D01*
X178844586Y-50164938D01*
X178616344Y-50226094D01*
X178616335Y-50226098D01*
X178402171Y-50325964D01*
X178402169Y-50325965D01*
X178208597Y-50461505D01*
X178041508Y-50628594D01*
X177911269Y-50814595D01*
X177856692Y-50858219D01*
X177787193Y-50865412D01*
X177724839Y-50833890D01*
X177708119Y-50814594D01*
X177578113Y-50628926D01*
X177578108Y-50628920D01*
X177411082Y-50461894D01*
X177217578Y-50326399D01*
X177003492Y-50226570D01*
X177003486Y-50226567D01*
X176790000Y-50169364D01*
X176790000Y-51066988D01*
X176732993Y-51034075D01*
X176605826Y-51000000D01*
X176474174Y-51000000D01*
X176347007Y-51034075D01*
X176290000Y-51066988D01*
X176290000Y-50169364D01*
X176289999Y-50169364D01*
X176076513Y-50226567D01*
X176076507Y-50226570D01*
X175862422Y-50326399D01*
X175862420Y-50326400D01*
X175668926Y-50461886D01*
X175546865Y-50583947D01*
X175485542Y-50617431D01*
X175415850Y-50612447D01*
X175359917Y-50570575D01*
X175343002Y-50539598D01*
X175293797Y-50407671D01*
X175293793Y-50407664D01*
X175207547Y-50292455D01*
X175207544Y-50292452D01*
X175092335Y-50206206D01*
X175092328Y-50206202D01*
X174957482Y-50155908D01*
X174957483Y-50155908D01*
X174897883Y-50149501D01*
X174897881Y-50149500D01*
X174897873Y-50149500D01*
X174897864Y-50149500D01*
X173102129Y-50149500D01*
X173102123Y-50149501D01*
X173042516Y-50155908D01*
X172907671Y-50206202D01*
X172907664Y-50206206D01*
X172792455Y-50292452D01*
X172792452Y-50292455D01*
X172706206Y-50407664D01*
X172706202Y-50407671D01*
X172655908Y-50542517D01*
X172649501Y-50602116D01*
X172649500Y-50602135D01*
X172649500Y-50775500D01*
X172629815Y-50842539D01*
X172577011Y-50888294D01*
X172525500Y-50899500D01*
X162920940Y-50899500D01*
X162880019Y-50910464D01*
X162880019Y-50910465D01*
X162842751Y-50920451D01*
X162768214Y-50940423D01*
X162768209Y-50940426D01*
X162631290Y-51019475D01*
X162631282Y-51019481D01*
X162550863Y-51099901D01*
X162519480Y-51131284D01*
X162519478Y-51131286D01*
X161442550Y-52208215D01*
X160397584Y-53253181D01*
X160336261Y-53286666D01*
X160309903Y-53289500D01*
X154389091Y-53289500D01*
X154322052Y-53269815D01*
X154276711Y-53217909D01*
X154274037Y-53212175D01*
X154274034Y-53212170D01*
X154138494Y-53018597D01*
X153971402Y-52851506D01*
X153971395Y-52851501D01*
X153969965Y-52850500D01*
X153894854Y-52797906D01*
X153777834Y-52715967D01*
X153777830Y-52715965D01*
X153772085Y-52713286D01*
X153563663Y-52616097D01*
X153563659Y-52616096D01*
X153563655Y-52616094D01*
X153335413Y-52554938D01*
X153335403Y-52554936D01*
X153100001Y-52534341D01*
X153099999Y-52534341D01*
X152864596Y-52554936D01*
X152864586Y-52554938D01*
X152636344Y-52616094D01*
X152636335Y-52616098D01*
X152422171Y-52715964D01*
X152422169Y-52715965D01*
X152228597Y-52851505D01*
X152061505Y-53018597D01*
X151931575Y-53204158D01*
X151876998Y-53247783D01*
X151807500Y-53254977D01*
X151745145Y-53223454D01*
X151728425Y-53204158D01*
X151598494Y-53018597D01*
X151431402Y-52851506D01*
X151431401Y-52851505D01*
X151297381Y-52757663D01*
X151253758Y-52703087D01*
X151246565Y-52633588D01*
X151278087Y-52571234D01*
X151280787Y-52568446D01*
X152212417Y-51636819D01*
X152273740Y-51603334D01*
X152300098Y-51600500D01*
X155913331Y-51600500D01*
X155913347Y-51600501D01*
X155920943Y-51600501D01*
X156079054Y-51600501D01*
X156079057Y-51600501D01*
X156231785Y-51559577D01*
X156299466Y-51520501D01*
X156368716Y-51480520D01*
X156480520Y-51368716D01*
X156480520Y-51368714D01*
X156490724Y-51358511D01*
X156490727Y-51358506D01*
X160112416Y-47736819D01*
X160173739Y-47703334D01*
X160200097Y-47700500D01*
X172525501Y-47700500D01*
X172592540Y-47720185D01*
X172638295Y-47772989D01*
X172649501Y-47824500D01*
X172649501Y-47997876D01*
X172655908Y-48057483D01*
X172706202Y-48192328D01*
X172706206Y-48192335D01*
X172792452Y-48307544D01*
X172792455Y-48307547D01*
X172907664Y-48393793D01*
X172907671Y-48393797D01*
X173042517Y-48444091D01*
X173042516Y-48444091D01*
X173049444Y-48444835D01*
X173102127Y-48450500D01*
X174897872Y-48450499D01*
X174957483Y-48444091D01*
X175092331Y-48393796D01*
X175207546Y-48307546D01*
X175293796Y-48192331D01*
X175343002Y-48060401D01*
X175384872Y-48004468D01*
X175450337Y-47980050D01*
X175518610Y-47994901D01*
X175546865Y-48016053D01*
X175668917Y-48138105D01*
X175862421Y-48273600D01*
X176076507Y-48373429D01*
X176076516Y-48373433D01*
X176290000Y-48430634D01*
X176290000Y-47533012D01*
X176347007Y-47565925D01*
X176474174Y-47600000D01*
X176605826Y-47600000D01*
X176732993Y-47565925D01*
X176790000Y-47533012D01*
X176790000Y-48430633D01*
X177003483Y-48373433D01*
X177003492Y-48373429D01*
X177217578Y-48273600D01*
X177411082Y-48138105D01*
X177578105Y-47971082D01*
X177708119Y-47785405D01*
X177762696Y-47741781D01*
X177832195Y-47734588D01*
X177894549Y-47766110D01*
X177911269Y-47785405D01*
X178041505Y-47971401D01*
X178208599Y-48138495D01*
X178305384Y-48206265D01*
X178402165Y-48274032D01*
X178402167Y-48274033D01*
X178402170Y-48274035D01*
X178616337Y-48373903D01*
X178616343Y-48373904D01*
X178616344Y-48373905D01*
X178663697Y-48386593D01*
X178844592Y-48435063D01*
X179021034Y-48450500D01*
X179079999Y-48455659D01*
X179080000Y-48455659D01*
X179080001Y-48455659D01*
X179138966Y-48450500D01*
X179315408Y-48435063D01*
X179543663Y-48373903D01*
X179757830Y-48274035D01*
X179951401Y-48138495D01*
X180118495Y-47971401D01*
X180254035Y-47777830D01*
X180353903Y-47563663D01*
X180415063Y-47335408D01*
X180435659Y-47100000D01*
X180415063Y-46864592D01*
X180362548Y-46668600D01*
X180353905Y-46636344D01*
X180353904Y-46636343D01*
X180353903Y-46636337D01*
X180254035Y-46422171D01*
X180249476Y-46415659D01*
X180118494Y-46228597D01*
X179951402Y-46061506D01*
X179951395Y-46061501D01*
X179757834Y-45925967D01*
X179757830Y-45925965D01*
X179697593Y-45897876D01*
X179543663Y-45826097D01*
X179543659Y-45826096D01*
X179543655Y-45826094D01*
X179315413Y-45764938D01*
X179315403Y-45764936D01*
X179080001Y-45744341D01*
X179079999Y-45744341D01*
X178844596Y-45764936D01*
X178844586Y-45764938D01*
X178616344Y-45826094D01*
X178616335Y-45826098D01*
X178402171Y-45925964D01*
X178402169Y-45925965D01*
X178208597Y-46061505D01*
X178041508Y-46228594D01*
X177911269Y-46414595D01*
X177856692Y-46458219D01*
X177787193Y-46465412D01*
X177724839Y-46433890D01*
X177708119Y-46414594D01*
X177578113Y-46228926D01*
X177578108Y-46228920D01*
X177411082Y-46061894D01*
X177217578Y-45926399D01*
X177003492Y-45826570D01*
X177003486Y-45826567D01*
X176790000Y-45769364D01*
X176790000Y-46666988D01*
X176732993Y-46634075D01*
X176605826Y-46600000D01*
X176474174Y-46600000D01*
X176347007Y-46634075D01*
X176290000Y-46666988D01*
X176290000Y-45769364D01*
X176289999Y-45769364D01*
X176076513Y-45826567D01*
X176076507Y-45826570D01*
X175862422Y-45926399D01*
X175862420Y-45926400D01*
X175668926Y-46061886D01*
X175546865Y-46183947D01*
X175485542Y-46217431D01*
X175415850Y-46212447D01*
X175359917Y-46170575D01*
X175343002Y-46139598D01*
X175293797Y-46007671D01*
X175293793Y-46007664D01*
X175207547Y-45892455D01*
X175207544Y-45892452D01*
X175092335Y-45806206D01*
X175092328Y-45806202D01*
X174957482Y-45755908D01*
X174957483Y-45755908D01*
X174897883Y-45749501D01*
X174897881Y-45749500D01*
X174897873Y-45749500D01*
X174897864Y-45749500D01*
X173102129Y-45749500D01*
X173102123Y-45749501D01*
X173042516Y-45755908D01*
X172907671Y-45806202D01*
X172907664Y-45806206D01*
X172792455Y-45892452D01*
X172792452Y-45892455D01*
X172706206Y-46007664D01*
X172706202Y-46007671D01*
X172655908Y-46142517D01*
X172649501Y-46202116D01*
X172649500Y-46202135D01*
X172649500Y-46375500D01*
X172629815Y-46442539D01*
X172577011Y-46488294D01*
X172525500Y-46499500D01*
X160649097Y-46499500D01*
X160582058Y-46479815D01*
X160536303Y-46427011D01*
X160526359Y-46357853D01*
X160555384Y-46294297D01*
X160561416Y-46287819D01*
X163712416Y-43136819D01*
X163773739Y-43103334D01*
X163800097Y-43100500D01*
X172525501Y-43100500D01*
X172592540Y-43120185D01*
X172638295Y-43172989D01*
X172649501Y-43224500D01*
X172649501Y-43397876D01*
X172655908Y-43457483D01*
X172706202Y-43592328D01*
X172706206Y-43592335D01*
X172792452Y-43707544D01*
X172792455Y-43707547D01*
X172907664Y-43793793D01*
X172907671Y-43793797D01*
X173042517Y-43844091D01*
X173042516Y-43844091D01*
X173049444Y-43844835D01*
X173102127Y-43850500D01*
X174897872Y-43850499D01*
X174957483Y-43844091D01*
X175092331Y-43793796D01*
X175207546Y-43707546D01*
X175293796Y-43592331D01*
X175343002Y-43460401D01*
X175384872Y-43404468D01*
X175450337Y-43380050D01*
X175518610Y-43394901D01*
X175546865Y-43416053D01*
X175668917Y-43538105D01*
X175862421Y-43673600D01*
X176076507Y-43773429D01*
X176076516Y-43773433D01*
X176290000Y-43830634D01*
X176290000Y-42933012D01*
X176347007Y-42965925D01*
X176474174Y-43000000D01*
X176605826Y-43000000D01*
X176732993Y-42965925D01*
X176790000Y-42933012D01*
X176790000Y-43830633D01*
X177003483Y-43773433D01*
X177003492Y-43773429D01*
X177217578Y-43673600D01*
X177411082Y-43538105D01*
X177578105Y-43371082D01*
X177708119Y-43185405D01*
X177762696Y-43141781D01*
X177832195Y-43134588D01*
X177894549Y-43166110D01*
X177911269Y-43185405D01*
X178041505Y-43371401D01*
X178208599Y-43538495D01*
X178305384Y-43606265D01*
X178402165Y-43674032D01*
X178402167Y-43674033D01*
X178402170Y-43674035D01*
X178616337Y-43773903D01*
X178844592Y-43835063D01*
X179021034Y-43850500D01*
X179079999Y-43855659D01*
X179080000Y-43855659D01*
X179080001Y-43855659D01*
X179138966Y-43850500D01*
X179315408Y-43835063D01*
X179543663Y-43773903D01*
X179757830Y-43674035D01*
X179951401Y-43538495D01*
X180118495Y-43371401D01*
X180254035Y-43177830D01*
X180353903Y-42963663D01*
X180415063Y-42735408D01*
X180435659Y-42500000D01*
X180415063Y-42264592D01*
X180368626Y-42091285D01*
X180353905Y-42036344D01*
X180353904Y-42036343D01*
X180353903Y-42036337D01*
X180254035Y-41822171D01*
X180248731Y-41814595D01*
X180118494Y-41628597D01*
X179951402Y-41461506D01*
X179951395Y-41461501D01*
X179757834Y-41325967D01*
X179757830Y-41325965D01*
X179744444Y-41319723D01*
X179543663Y-41226097D01*
X179543659Y-41226096D01*
X179543655Y-41226094D01*
X179315413Y-41164938D01*
X179315403Y-41164936D01*
X179080001Y-41144341D01*
X179079999Y-41144341D01*
X178844596Y-41164936D01*
X178844586Y-41164938D01*
X178616344Y-41226094D01*
X178616335Y-41226098D01*
X178402171Y-41325964D01*
X178402169Y-41325965D01*
X178208597Y-41461505D01*
X178041508Y-41628594D01*
X177911269Y-41814595D01*
X177856692Y-41858219D01*
X177787193Y-41865412D01*
X177724839Y-41833890D01*
X177708119Y-41814594D01*
X177578113Y-41628926D01*
X177578108Y-41628920D01*
X177411082Y-41461894D01*
X177217578Y-41326399D01*
X177003492Y-41226570D01*
X177003486Y-41226567D01*
X176790000Y-41169364D01*
X176790000Y-42066988D01*
X176732993Y-42034075D01*
X176605826Y-42000000D01*
X176474174Y-42000000D01*
X176347007Y-42034075D01*
X176290000Y-42066988D01*
X176290000Y-41169364D01*
X176289999Y-41169364D01*
X176076513Y-41226567D01*
X176076507Y-41226570D01*
X175862422Y-41326399D01*
X175862420Y-41326400D01*
X175668926Y-41461886D01*
X175546865Y-41583947D01*
X175485542Y-41617431D01*
X175415850Y-41612447D01*
X175359917Y-41570575D01*
X175343002Y-41539598D01*
X175293797Y-41407671D01*
X175293793Y-41407664D01*
X175207547Y-41292455D01*
X175207544Y-41292452D01*
X175092335Y-41206206D01*
X175092328Y-41206202D01*
X174957482Y-41155908D01*
X174957483Y-41155908D01*
X174897883Y-41149501D01*
X174897881Y-41149500D01*
X174897873Y-41149500D01*
X174897864Y-41149500D01*
X173102129Y-41149500D01*
X173102123Y-41149501D01*
X173042516Y-41155908D01*
X172907671Y-41206202D01*
X172907664Y-41206206D01*
X172792455Y-41292452D01*
X172792452Y-41292455D01*
X172706206Y-41407664D01*
X172706202Y-41407671D01*
X172655908Y-41542517D01*
X172649501Y-41602116D01*
X172649500Y-41602135D01*
X172649500Y-41775500D01*
X172629815Y-41842539D01*
X172577011Y-41888294D01*
X172525500Y-41899500D01*
X164249097Y-41899500D01*
X164182058Y-41879815D01*
X164136303Y-41827011D01*
X164126359Y-41757853D01*
X164155384Y-41694297D01*
X164161416Y-41687819D01*
X167312416Y-38536819D01*
X167373739Y-38503334D01*
X167400097Y-38500500D01*
X172525501Y-38500500D01*
X172592540Y-38520185D01*
X172638295Y-38572989D01*
X172649501Y-38624500D01*
X172649501Y-38797876D01*
X172655908Y-38857483D01*
X172706202Y-38992328D01*
X172706206Y-38992335D01*
X172792452Y-39107544D01*
X172792455Y-39107547D01*
X172907664Y-39193793D01*
X172907671Y-39193797D01*
X173042517Y-39244091D01*
X173042516Y-39244091D01*
X173049444Y-39244835D01*
X173102127Y-39250500D01*
X174897872Y-39250499D01*
X174957483Y-39244091D01*
X175092331Y-39193796D01*
X175207546Y-39107546D01*
X175293796Y-38992331D01*
X175343002Y-38860401D01*
X175384872Y-38804468D01*
X175450337Y-38780050D01*
X175518610Y-38794901D01*
X175546865Y-38816053D01*
X175668917Y-38938105D01*
X175862421Y-39073600D01*
X176076507Y-39173429D01*
X176076516Y-39173433D01*
X176290000Y-39230634D01*
X176290000Y-38333012D01*
X176347007Y-38365925D01*
X176474174Y-38400000D01*
X176605826Y-38400000D01*
X176732993Y-38365925D01*
X176790000Y-38333012D01*
X176790000Y-39230633D01*
X177003483Y-39173433D01*
X177003492Y-39173429D01*
X177217578Y-39073600D01*
X177411082Y-38938105D01*
X177578105Y-38771082D01*
X177708119Y-38585405D01*
X177762696Y-38541781D01*
X177832195Y-38534588D01*
X177894549Y-38566110D01*
X177911269Y-38585405D01*
X178041505Y-38771401D01*
X178208599Y-38938495D01*
X178305384Y-39006265D01*
X178402165Y-39074032D01*
X178402167Y-39074033D01*
X178402170Y-39074035D01*
X178616337Y-39173903D01*
X178844592Y-39235063D01*
X179021034Y-39250500D01*
X179079999Y-39255659D01*
X179080000Y-39255659D01*
X179080001Y-39255659D01*
X179138966Y-39250500D01*
X179315408Y-39235063D01*
X179543663Y-39173903D01*
X179757830Y-39074035D01*
X179951401Y-38938495D01*
X180118495Y-38771401D01*
X180254035Y-38577830D01*
X180353903Y-38363663D01*
X180415063Y-38135408D01*
X180435659Y-37900000D01*
X180415063Y-37664592D01*
X180358528Y-37453598D01*
X180353905Y-37436344D01*
X180353904Y-37436343D01*
X180353903Y-37436337D01*
X180254035Y-37222171D01*
X180248731Y-37214595D01*
X180118494Y-37028597D01*
X179951402Y-36861506D01*
X179951395Y-36861501D01*
X179757834Y-36725967D01*
X179757830Y-36725965D01*
X179757828Y-36725964D01*
X179543663Y-36626097D01*
X179543659Y-36626096D01*
X179543655Y-36626094D01*
X179315413Y-36564938D01*
X179315403Y-36564936D01*
X179080001Y-36544341D01*
X179079999Y-36544341D01*
X178844596Y-36564936D01*
X178844586Y-36564938D01*
X178616344Y-36626094D01*
X178616335Y-36626098D01*
X178402171Y-36725964D01*
X178402169Y-36725965D01*
X178208597Y-36861505D01*
X178041508Y-37028594D01*
X177911269Y-37214595D01*
X177856692Y-37258219D01*
X177787193Y-37265412D01*
X177724839Y-37233890D01*
X177708119Y-37214594D01*
X177578113Y-37028926D01*
X177578108Y-37028920D01*
X177411082Y-36861894D01*
X177217578Y-36726399D01*
X177003492Y-36626570D01*
X177003486Y-36626567D01*
X176790000Y-36569364D01*
X176790000Y-37466988D01*
X176732993Y-37434075D01*
X176605826Y-37400000D01*
X176474174Y-37400000D01*
X176347007Y-37434075D01*
X176290000Y-37466988D01*
X176290000Y-36569364D01*
X176289999Y-36569364D01*
X176076513Y-36626567D01*
X176076507Y-36626570D01*
X175862422Y-36726399D01*
X175862420Y-36726400D01*
X175668926Y-36861886D01*
X175546865Y-36983947D01*
X175485542Y-37017431D01*
X175415850Y-37012447D01*
X175359917Y-36970575D01*
X175343002Y-36939598D01*
X175293797Y-36807671D01*
X175293793Y-36807664D01*
X175207547Y-36692455D01*
X175207544Y-36692452D01*
X175092335Y-36606206D01*
X175092328Y-36606202D01*
X174957482Y-36555908D01*
X174957483Y-36555908D01*
X174897883Y-36549501D01*
X174897881Y-36549500D01*
X174897873Y-36549500D01*
X174897864Y-36549500D01*
X173102129Y-36549500D01*
X173102123Y-36549501D01*
X173042516Y-36555908D01*
X172907671Y-36606202D01*
X172907664Y-36606206D01*
X172792455Y-36692452D01*
X172792452Y-36692455D01*
X172706206Y-36807664D01*
X172706202Y-36807671D01*
X172655908Y-36942517D01*
X172649501Y-37002116D01*
X172649500Y-37002135D01*
X172649500Y-37175500D01*
X172629815Y-37242539D01*
X172577011Y-37288294D01*
X172525500Y-37299500D01*
X167179057Y-37299500D01*
X167020943Y-37299500D01*
X166868215Y-37340423D01*
X166868214Y-37340423D01*
X166868212Y-37340424D01*
X166868209Y-37340425D01*
X166818096Y-37369359D01*
X166818095Y-37369360D01*
X166792909Y-37383901D01*
X166731285Y-37419479D01*
X166731282Y-37419481D01*
X166650863Y-37499901D01*
X166619480Y-37531284D01*
X166619478Y-37531286D01*
X160690363Y-43460402D01*
X154787584Y-49363181D01*
X154726261Y-49396666D01*
X154699903Y-49399500D01*
X145714589Y-49399500D01*
X145714573Y-49399499D01*
X145706977Y-49399499D01*
X145548862Y-49399499D01*
X145472498Y-49419961D01*
X145396133Y-49440423D01*
X145396128Y-49440426D01*
X145259209Y-49519475D01*
X145259201Y-49519481D01*
X142459481Y-52319201D01*
X142459477Y-52319206D01*
X142435383Y-52360941D01*
X142435382Y-52360943D01*
X142380423Y-52456134D01*
X142359961Y-52532498D01*
X142339498Y-52608864D01*
X142338438Y-52616922D01*
X142334932Y-52616460D01*
X142319814Y-52667948D01*
X142267908Y-52713289D01*
X142262174Y-52715962D01*
X142262169Y-52715965D01*
X142068597Y-52851505D01*
X141901505Y-53018597D01*
X141771575Y-53204158D01*
X141716998Y-53247783D01*
X141647500Y-53254977D01*
X141585145Y-53223454D01*
X141568425Y-53204158D01*
X141438494Y-53018597D01*
X141271402Y-52851506D01*
X141271395Y-52851501D01*
X141269965Y-52850500D01*
X141194854Y-52797906D01*
X141077834Y-52715967D01*
X141077830Y-52715965D01*
X141072085Y-52713286D01*
X140863663Y-52616097D01*
X140863659Y-52616096D01*
X140863655Y-52616094D01*
X140635413Y-52554938D01*
X140635403Y-52554936D01*
X140400001Y-52534341D01*
X140399999Y-52534341D01*
X140164596Y-52554936D01*
X140164586Y-52554938D01*
X139936344Y-52616094D01*
X139936335Y-52616098D01*
X139722171Y-52715964D01*
X139722169Y-52715965D01*
X139528597Y-52851505D01*
X139361505Y-53018597D01*
X139231575Y-53204158D01*
X139176998Y-53247783D01*
X139107500Y-53254977D01*
X139045145Y-53223454D01*
X139028425Y-53204158D01*
X138898494Y-53018597D01*
X138731402Y-52851506D01*
X138731395Y-52851501D01*
X138729965Y-52850500D01*
X138654854Y-52797906D01*
X138537834Y-52715967D01*
X138537830Y-52715965D01*
X138532085Y-52713286D01*
X138323663Y-52616097D01*
X138323659Y-52616096D01*
X138323655Y-52616094D01*
X138095413Y-52554938D01*
X138095403Y-52554936D01*
X137860001Y-52534341D01*
X137859999Y-52534341D01*
X137624596Y-52554936D01*
X137624586Y-52554938D01*
X137396344Y-52616094D01*
X137396335Y-52616098D01*
X137182171Y-52715964D01*
X137182169Y-52715965D01*
X136988600Y-52851503D01*
X136866284Y-52973819D01*
X136804961Y-53007303D01*
X136735269Y-53002319D01*
X136679336Y-52960447D01*
X136662421Y-52929470D01*
X136613354Y-52797913D01*
X136613350Y-52797906D01*
X136527190Y-52682812D01*
X136527187Y-52682809D01*
X136412093Y-52596649D01*
X136412086Y-52596645D01*
X136277379Y-52546403D01*
X136277372Y-52546401D01*
X136217844Y-52540000D01*
X135570000Y-52540000D01*
X135570000Y-53445439D01*
X135516853Y-53414755D01*
X135387143Y-53380000D01*
X135252857Y-53380000D01*
X135123147Y-53414755D01*
X135070000Y-53445439D01*
X135070000Y-52540000D01*
X134422155Y-52540000D01*
X134362627Y-52546401D01*
X134362620Y-52546403D01*
X134227913Y-52596645D01*
X134227906Y-52596649D01*
X134112812Y-52682809D01*
X134112809Y-52682812D01*
X134026649Y-52797906D01*
X134026645Y-52797913D01*
X133977578Y-52929470D01*
X133935707Y-52985404D01*
X133870242Y-53009821D01*
X133801969Y-52994969D01*
X133773715Y-52973819D01*
X133729366Y-52929470D01*
X133651401Y-52851505D01*
X133651397Y-52851502D01*
X133651396Y-52851501D01*
X133457834Y-52715967D01*
X133457830Y-52715965D01*
X133452085Y-52713286D01*
X133243663Y-52616097D01*
X133243659Y-52616096D01*
X133243655Y-52616094D01*
X133015413Y-52554938D01*
X133015403Y-52554936D01*
X132780001Y-52534341D01*
X132779999Y-52534341D01*
X132544596Y-52554936D01*
X132544586Y-52554938D01*
X132316344Y-52616094D01*
X132316335Y-52616098D01*
X132102171Y-52715964D01*
X132102169Y-52715965D01*
X131908597Y-52851505D01*
X131741505Y-53018597D01*
X131611575Y-53204158D01*
X131556998Y-53247783D01*
X131487500Y-53254977D01*
X131425145Y-53223454D01*
X131408425Y-53204158D01*
X131278494Y-53018597D01*
X131111402Y-52851506D01*
X131111395Y-52851501D01*
X131109965Y-52850500D01*
X131034854Y-52797906D01*
X130917834Y-52715967D01*
X130917830Y-52715965D01*
X130912085Y-52713286D01*
X130703663Y-52616097D01*
X130703659Y-52616096D01*
X130703655Y-52616094D01*
X130475413Y-52554938D01*
X130475403Y-52554936D01*
X130240001Y-52534341D01*
X130239999Y-52534341D01*
X130004596Y-52554936D01*
X130004586Y-52554938D01*
X129776344Y-52616094D01*
X129776335Y-52616098D01*
X129562171Y-52715964D01*
X129562169Y-52715965D01*
X129368597Y-52851505D01*
X129201505Y-53018597D01*
X129071575Y-53204158D01*
X129016998Y-53247783D01*
X128947500Y-53254977D01*
X128885145Y-53223454D01*
X128868425Y-53204158D01*
X128738494Y-53018597D01*
X128571402Y-52851506D01*
X128571395Y-52851501D01*
X128569965Y-52850500D01*
X128494854Y-52797906D01*
X128377834Y-52715967D01*
X128377830Y-52715965D01*
X128372085Y-52713286D01*
X128163663Y-52616097D01*
X128163659Y-52616096D01*
X128163655Y-52616094D01*
X127935413Y-52554938D01*
X127935403Y-52554936D01*
X127700001Y-52534341D01*
X127699999Y-52534341D01*
X127464596Y-52554936D01*
X127464586Y-52554938D01*
X127236344Y-52616094D01*
X127236335Y-52616098D01*
X127022171Y-52715964D01*
X127022169Y-52715965D01*
X126828597Y-52851505D01*
X126661505Y-53018597D01*
X126531575Y-53204158D01*
X126476998Y-53247783D01*
X126407500Y-53254977D01*
X126345145Y-53223454D01*
X126328425Y-53204158D01*
X126198494Y-53018597D01*
X126031402Y-52851506D01*
X126031395Y-52851501D01*
X126029965Y-52850500D01*
X125954854Y-52797906D01*
X125837834Y-52715967D01*
X125837830Y-52715965D01*
X125832085Y-52713286D01*
X125623663Y-52616097D01*
X125623659Y-52616096D01*
X125623655Y-52616094D01*
X125395413Y-52554938D01*
X125395403Y-52554936D01*
X125160001Y-52534341D01*
X125159999Y-52534341D01*
X124924596Y-52554936D01*
X124924586Y-52554938D01*
X124696344Y-52616094D01*
X124696335Y-52616098D01*
X124482171Y-52715964D01*
X124482169Y-52715965D01*
X124288600Y-52851503D01*
X124166284Y-52973819D01*
X124104961Y-53007303D01*
X124035269Y-53002319D01*
X123979336Y-52960447D01*
X123962421Y-52929470D01*
X123913354Y-52797913D01*
X123913350Y-52797906D01*
X123827190Y-52682812D01*
X123827187Y-52682809D01*
X123712093Y-52596649D01*
X123712086Y-52596645D01*
X123577379Y-52546403D01*
X123577372Y-52546401D01*
X123517844Y-52540000D01*
X122870000Y-52540000D01*
X122870000Y-53445439D01*
X122816853Y-53414755D01*
X122687143Y-53380000D01*
X122552857Y-53380000D01*
X122423147Y-53414755D01*
X122370000Y-53445439D01*
X122370000Y-52540000D01*
X121722155Y-52540000D01*
X121662627Y-52546401D01*
X121662620Y-52546403D01*
X121527913Y-52596645D01*
X121527906Y-52596649D01*
X121412812Y-52682809D01*
X121412809Y-52682812D01*
X121326649Y-52797906D01*
X121326645Y-52797913D01*
X121277578Y-52929470D01*
X121235707Y-52985404D01*
X121170242Y-53009821D01*
X121101969Y-52994969D01*
X121073715Y-52973819D01*
X121029366Y-52929470D01*
X120951401Y-52851505D01*
X120951397Y-52851502D01*
X120951396Y-52851501D01*
X120757834Y-52715967D01*
X120757830Y-52715965D01*
X120752085Y-52713286D01*
X120543663Y-52616097D01*
X120543659Y-52616096D01*
X120543655Y-52616094D01*
X120315413Y-52554938D01*
X120315403Y-52554936D01*
X120080001Y-52534341D01*
X120079999Y-52534341D01*
X119844596Y-52554936D01*
X119844586Y-52554938D01*
X119616344Y-52616094D01*
X119616335Y-52616098D01*
X119402171Y-52715964D01*
X119402169Y-52715965D01*
X119208597Y-52851505D01*
X119041505Y-53018597D01*
X118911575Y-53204158D01*
X118856998Y-53247783D01*
X118787500Y-53254977D01*
X118725145Y-53223454D01*
X118708425Y-53204158D01*
X118578494Y-53018597D01*
X118411402Y-52851506D01*
X118411395Y-52851501D01*
X118409965Y-52850500D01*
X118334854Y-52797906D01*
X118217834Y-52715967D01*
X118217830Y-52715965D01*
X118212085Y-52713286D01*
X118003663Y-52616097D01*
X118003659Y-52616096D01*
X118003655Y-52616094D01*
X117775413Y-52554938D01*
X117775403Y-52554936D01*
X117540001Y-52534341D01*
X117539999Y-52534341D01*
X117304596Y-52554936D01*
X117304586Y-52554938D01*
X117076344Y-52616094D01*
X117076335Y-52616098D01*
X116862171Y-52715964D01*
X116862169Y-52715965D01*
X116668597Y-52851505D01*
X116501505Y-53018597D01*
X116371575Y-53204158D01*
X116316998Y-53247783D01*
X116247500Y-53254977D01*
X116185145Y-53223454D01*
X116168425Y-53204158D01*
X116038494Y-53018597D01*
X115871402Y-52851506D01*
X115871395Y-52851501D01*
X115869965Y-52850500D01*
X115794854Y-52797906D01*
X115677834Y-52715967D01*
X115677830Y-52715965D01*
X115672085Y-52713286D01*
X115463663Y-52616097D01*
X115463659Y-52616096D01*
X115463655Y-52616094D01*
X115235413Y-52554938D01*
X115235403Y-52554936D01*
X115000001Y-52534341D01*
X114999999Y-52534341D01*
X114764596Y-52554936D01*
X114764586Y-52554938D01*
X114536344Y-52616094D01*
X114536335Y-52616098D01*
X114322171Y-52715964D01*
X114322169Y-52715965D01*
X114128597Y-52851505D01*
X113961505Y-53018597D01*
X113831575Y-53204158D01*
X113776998Y-53247783D01*
X113707500Y-53254977D01*
X113645145Y-53223454D01*
X113628425Y-53204158D01*
X113498494Y-53018597D01*
X113331402Y-52851506D01*
X113331395Y-52851501D01*
X113329965Y-52850500D01*
X113254854Y-52797906D01*
X113137834Y-52715967D01*
X113137830Y-52715965D01*
X113132085Y-52713286D01*
X112923663Y-52616097D01*
X112923659Y-52616096D01*
X112923655Y-52616094D01*
X112695413Y-52554938D01*
X112695403Y-52554936D01*
X112460001Y-52534341D01*
X112459999Y-52534341D01*
X112224596Y-52554936D01*
X112224586Y-52554938D01*
X111996344Y-52616094D01*
X111996335Y-52616098D01*
X111782171Y-52715964D01*
X111782169Y-52715965D01*
X111588600Y-52851503D01*
X111466284Y-52973819D01*
X111404961Y-53007303D01*
X111335269Y-53002319D01*
X111279336Y-52960447D01*
X111262421Y-52929470D01*
X111213354Y-52797913D01*
X111213350Y-52797906D01*
X111127190Y-52682812D01*
X111127187Y-52682809D01*
X111012093Y-52596649D01*
X111012086Y-52596645D01*
X110877379Y-52546403D01*
X110877372Y-52546401D01*
X110817844Y-52540000D01*
X110170000Y-52540000D01*
X110170000Y-53445439D01*
X110116853Y-53414755D01*
X109987143Y-53380000D01*
X109852857Y-53380000D01*
X109723147Y-53414755D01*
X109670000Y-53445439D01*
X109670000Y-52540000D01*
X109022155Y-52540000D01*
X108962627Y-52546401D01*
X108962620Y-52546403D01*
X108827913Y-52596645D01*
X108827906Y-52596649D01*
X108712812Y-52682809D01*
X108712809Y-52682812D01*
X108626649Y-52797906D01*
X108626645Y-52797913D01*
X108577578Y-52929470D01*
X108535707Y-52985404D01*
X108470242Y-53009821D01*
X108401969Y-52994969D01*
X108373715Y-52973819D01*
X108329366Y-52929470D01*
X108251401Y-52851505D01*
X108251397Y-52851502D01*
X108251396Y-52851501D01*
X108057834Y-52715967D01*
X108057830Y-52715965D01*
X108052085Y-52713286D01*
X107843663Y-52616097D01*
X107843659Y-52616096D01*
X107843655Y-52616094D01*
X107615413Y-52554938D01*
X107615403Y-52554936D01*
X107380001Y-52534341D01*
X107379999Y-52534341D01*
X107144596Y-52554936D01*
X107144586Y-52554938D01*
X106916344Y-52616094D01*
X106916335Y-52616098D01*
X106702171Y-52715964D01*
X106702169Y-52715965D01*
X106508597Y-52851505D01*
X106341505Y-53018597D01*
X106211575Y-53204158D01*
X106156998Y-53247783D01*
X106087500Y-53254977D01*
X106025145Y-53223454D01*
X106008425Y-53204158D01*
X105878494Y-53018597D01*
X105711402Y-52851506D01*
X105711395Y-52851501D01*
X105709965Y-52850500D01*
X105634854Y-52797906D01*
X105517834Y-52715967D01*
X105517830Y-52715965D01*
X105512085Y-52713286D01*
X105303663Y-52616097D01*
X105303659Y-52616096D01*
X105303655Y-52616094D01*
X105075413Y-52554938D01*
X105075403Y-52554936D01*
X104840001Y-52534341D01*
X104839999Y-52534341D01*
X104604596Y-52554936D01*
X104604586Y-52554938D01*
X104376344Y-52616094D01*
X104376335Y-52616098D01*
X104162171Y-52715964D01*
X104162169Y-52715965D01*
X103968597Y-52851505D01*
X103801505Y-53018597D01*
X103726075Y-53126324D01*
X103671498Y-53169949D01*
X103602000Y-53177143D01*
X103539645Y-53145620D01*
X103504231Y-53085390D01*
X103500500Y-53055201D01*
X103500500Y-48451903D01*
X103520185Y-48384864D01*
X103572989Y-48339109D01*
X103642147Y-48329165D01*
X103705703Y-48358190D01*
X103731015Y-48389723D01*
X103731271Y-48389556D01*
X103732976Y-48392167D01*
X103733558Y-48392891D01*
X103734079Y-48393854D01*
X103861016Y-48588147D01*
X103861019Y-48588151D01*
X103861021Y-48588153D01*
X104018216Y-48758913D01*
X104018219Y-48758915D01*
X104018222Y-48758918D01*
X104201365Y-48901464D01*
X104201371Y-48901468D01*
X104201374Y-48901470D01*
X104405497Y-49011936D01*
X104519487Y-49051068D01*
X104625015Y-49087297D01*
X104625017Y-49087297D01*
X104625019Y-49087298D01*
X104853951Y-49125500D01*
X104853952Y-49125500D01*
X105086048Y-49125500D01*
X105086049Y-49125500D01*
X105314981Y-49087298D01*
X105534503Y-49011936D01*
X105738626Y-48901470D01*
X105772557Y-48875061D01*
X105851130Y-48813905D01*
X105921784Y-48758913D01*
X106078979Y-48588153D01*
X106205924Y-48393849D01*
X106299157Y-48181300D01*
X106356134Y-47956305D01*
X106364584Y-47854330D01*
X106375300Y-47725006D01*
X106375300Y-47724993D01*
X106356135Y-47493702D01*
X106356133Y-47493691D01*
X106338737Y-47424997D01*
X106744723Y-47424997D01*
X106744723Y-47425002D01*
X106763793Y-47642975D01*
X106763793Y-47642979D01*
X106820422Y-47854322D01*
X106820424Y-47854326D01*
X106820425Y-47854330D01*
X106866661Y-47953484D01*
X106912897Y-48052638D01*
X106937998Y-48088486D01*
X107038402Y-48231877D01*
X107193123Y-48386598D01*
X107372361Y-48512102D01*
X107570670Y-48604575D01*
X107782023Y-48661207D01*
X107964926Y-48677208D01*
X107999998Y-48680277D01*
X108000000Y-48680277D01*
X108000002Y-48680277D01*
X108028254Y-48677805D01*
X108217977Y-48661207D01*
X108429330Y-48604575D01*
X108627639Y-48512102D01*
X108806877Y-48386598D01*
X108961598Y-48231877D01*
X109087102Y-48052639D01*
X109179575Y-47854330D01*
X109236207Y-47642977D01*
X109255277Y-47425000D01*
X109236207Y-47207023D01*
X109179575Y-46995670D01*
X109087102Y-46797362D01*
X109087100Y-46797359D01*
X109087099Y-46797357D01*
X108961599Y-46618124D01*
X108890148Y-46546673D01*
X108806877Y-46463402D01*
X108656138Y-46357853D01*
X108627638Y-46337897D01*
X108520244Y-46287819D01*
X108429330Y-46245425D01*
X108429326Y-46245424D01*
X108429322Y-46245422D01*
X108217977Y-46188793D01*
X108000002Y-46169723D01*
X107999998Y-46169723D01*
X107854682Y-46182436D01*
X107782023Y-46188793D01*
X107782020Y-46188793D01*
X107570677Y-46245422D01*
X107570668Y-46245426D01*
X107372361Y-46337898D01*
X107372357Y-46337900D01*
X107193121Y-46463402D01*
X107038402Y-46618121D01*
X106912900Y-46797357D01*
X106912898Y-46797361D01*
X106820426Y-46995668D01*
X106820422Y-46995677D01*
X106763793Y-47207020D01*
X106763793Y-47207024D01*
X106744723Y-47424997D01*
X106338737Y-47424997D01*
X106299157Y-47268699D01*
X106205924Y-47056151D01*
X106078983Y-46861852D01*
X106078980Y-46861849D01*
X106078979Y-46861847D01*
X105921784Y-46691087D01*
X105921779Y-46691083D01*
X105921777Y-46691081D01*
X105738634Y-46548535D01*
X105738628Y-46548531D01*
X105534504Y-46438064D01*
X105534495Y-46438061D01*
X105314984Y-46362702D01*
X105143282Y-46334050D01*
X105086049Y-46324500D01*
X104853951Y-46324500D01*
X104808164Y-46332140D01*
X104625015Y-46362702D01*
X104405504Y-46438061D01*
X104405495Y-46438064D01*
X104201371Y-46548531D01*
X104201365Y-46548535D01*
X104018222Y-46691081D01*
X104018219Y-46691084D01*
X103861016Y-46861852D01*
X103734072Y-47056155D01*
X103733553Y-47057116D01*
X103733237Y-47057433D01*
X103731271Y-47060444D01*
X103730651Y-47060039D01*
X103684333Y-47106705D01*
X103616116Y-47121812D01*
X103550561Y-47097640D01*
X103508481Y-47041863D01*
X103500500Y-46998096D01*
X103500500Y-43001903D01*
X103520185Y-42934864D01*
X103572989Y-42889109D01*
X103642147Y-42879165D01*
X103705703Y-42908190D01*
X103731015Y-42939723D01*
X103731271Y-42939556D01*
X103732976Y-42942167D01*
X103733558Y-42942891D01*
X103734079Y-42943854D01*
X103861016Y-43138147D01*
X103861019Y-43138151D01*
X103861021Y-43138153D01*
X104018216Y-43308913D01*
X104018219Y-43308915D01*
X104018222Y-43308918D01*
X104201365Y-43451464D01*
X104201371Y-43451468D01*
X104201374Y-43451470D01*
X104405497Y-43561936D01*
X104519487Y-43601068D01*
X104625015Y-43637297D01*
X104625017Y-43637297D01*
X104625019Y-43637298D01*
X104853951Y-43675500D01*
X104853952Y-43675500D01*
X105086048Y-43675500D01*
X105086049Y-43675500D01*
X105314981Y-43637298D01*
X105534503Y-43561936D01*
X105738626Y-43451470D01*
X105921784Y-43308913D01*
X106078979Y-43138153D01*
X106205924Y-42943849D01*
X106299157Y-42731300D01*
X106338738Y-42575000D01*
X106744723Y-42575000D01*
X106755257Y-42695413D01*
X106763793Y-42792975D01*
X106763793Y-42792979D01*
X106820422Y-43004322D01*
X106820424Y-43004326D01*
X106820425Y-43004330D01*
X106865270Y-43100500D01*
X106912897Y-43202638D01*
X106912898Y-43202639D01*
X107038402Y-43381877D01*
X107193123Y-43536598D01*
X107372361Y-43662102D01*
X107570670Y-43754575D01*
X107782023Y-43811207D01*
X107964926Y-43827208D01*
X107999998Y-43830277D01*
X108000000Y-43830277D01*
X108000002Y-43830277D01*
X108028254Y-43827805D01*
X108217977Y-43811207D01*
X108429330Y-43754575D01*
X108627639Y-43662102D01*
X108806877Y-43536598D01*
X108961598Y-43381877D01*
X109087102Y-43202639D01*
X109179575Y-43004330D01*
X109236207Y-42792977D01*
X109255277Y-42575000D01*
X109254474Y-42565826D01*
X109249266Y-42506297D01*
X109245216Y-42459999D01*
X151514341Y-42459999D01*
X151514341Y-42460000D01*
X151534936Y-42695403D01*
X151534938Y-42695413D01*
X151596094Y-42923655D01*
X151596096Y-42923659D01*
X151596097Y-42923663D01*
X151678558Y-43100500D01*
X151695965Y-43137830D01*
X151695967Y-43137834D01*
X151756652Y-43224500D01*
X151831501Y-43331396D01*
X151831506Y-43331402D01*
X151953430Y-43453326D01*
X151986915Y-43514649D01*
X151981931Y-43584341D01*
X151940059Y-43640274D01*
X151909083Y-43657189D01*
X151777669Y-43706203D01*
X151777664Y-43706206D01*
X151662455Y-43792452D01*
X151662452Y-43792455D01*
X151576206Y-43907664D01*
X151576202Y-43907671D01*
X151525908Y-44042517D01*
X151519501Y-44102116D01*
X151519501Y-44102123D01*
X151519500Y-44102135D01*
X151519500Y-45897870D01*
X151519501Y-45897876D01*
X151525908Y-45957483D01*
X151576202Y-46092328D01*
X151576206Y-46092335D01*
X151662452Y-46207544D01*
X151662455Y-46207547D01*
X151777664Y-46293793D01*
X151777671Y-46293797D01*
X151909081Y-46342810D01*
X151965015Y-46384681D01*
X151989432Y-46450145D01*
X151974580Y-46518418D01*
X151953430Y-46546673D01*
X151831503Y-46668600D01*
X151695965Y-46862169D01*
X151695964Y-46862171D01*
X151596098Y-47076335D01*
X151596094Y-47076344D01*
X151534938Y-47304586D01*
X151534936Y-47304596D01*
X151514341Y-47539999D01*
X151514341Y-47540000D01*
X151534936Y-47775403D01*
X151534938Y-47775413D01*
X151596094Y-48003655D01*
X151596096Y-48003659D01*
X151596097Y-48003663D01*
X151695965Y-48217830D01*
X151695967Y-48217834D01*
X151794246Y-48358190D01*
X151831505Y-48411401D01*
X151998599Y-48578495D01*
X152035848Y-48604577D01*
X152192165Y-48714032D01*
X152192167Y-48714033D01*
X152192170Y-48714035D01*
X152406337Y-48813903D01*
X152634592Y-48875063D01*
X152822918Y-48891539D01*
X152869999Y-48895659D01*
X152870000Y-48895659D01*
X152870001Y-48895659D01*
X152909234Y-48892226D01*
X153105408Y-48875063D01*
X153333663Y-48813903D01*
X153547830Y-48714035D01*
X153741401Y-48578495D01*
X153908495Y-48411401D01*
X154044035Y-48217830D01*
X154143903Y-48003663D01*
X154205063Y-47775408D01*
X154225659Y-47540000D01*
X154205063Y-47304592D01*
X154143903Y-47076337D01*
X154044035Y-46862171D01*
X154043808Y-46861847D01*
X153908496Y-46668600D01*
X153858017Y-46618121D01*
X153786567Y-46546671D01*
X153753084Y-46485351D01*
X153758068Y-46415659D01*
X153799939Y-46359725D01*
X153830915Y-46342810D01*
X153962331Y-46293796D01*
X154077546Y-46207546D01*
X154163796Y-46092331D01*
X154214091Y-45957483D01*
X154220500Y-45897873D01*
X154220499Y-44102128D01*
X154214091Y-44042517D01*
X154163796Y-43907669D01*
X154163795Y-43907668D01*
X154163793Y-43907664D01*
X154077547Y-43792455D01*
X154077544Y-43792452D01*
X153962335Y-43706206D01*
X153962328Y-43706202D01*
X153830917Y-43657189D01*
X153774983Y-43615318D01*
X153750566Y-43549853D01*
X153765418Y-43481580D01*
X153786563Y-43453332D01*
X153908495Y-43331401D01*
X154044035Y-43137830D01*
X154143903Y-42923663D01*
X154205063Y-42695408D01*
X154225659Y-42460000D01*
X154223399Y-42434174D01*
X154221539Y-42412918D01*
X154205063Y-42224592D01*
X154154015Y-42034075D01*
X154143905Y-41996344D01*
X154143904Y-41996343D01*
X154143903Y-41996337D01*
X154044035Y-41782171D01*
X154034200Y-41768124D01*
X153908494Y-41588597D01*
X153741402Y-41421506D01*
X153741395Y-41421501D01*
X153547834Y-41285967D01*
X153547830Y-41285965D01*
X153451589Y-41241087D01*
X153333663Y-41186097D01*
X153333659Y-41186096D01*
X153333655Y-41186094D01*
X153105413Y-41124938D01*
X153105403Y-41124936D01*
X152870001Y-41104341D01*
X152869999Y-41104341D01*
X152634596Y-41124936D01*
X152634586Y-41124938D01*
X152406344Y-41186094D01*
X152406335Y-41186098D01*
X152192171Y-41285964D01*
X152192169Y-41285965D01*
X151998597Y-41421505D01*
X151831505Y-41588597D01*
X151695965Y-41782169D01*
X151695964Y-41782171D01*
X151596098Y-41996335D01*
X151596094Y-41996344D01*
X151534938Y-42224586D01*
X151534936Y-42224596D01*
X151514341Y-42459999D01*
X109245216Y-42459999D01*
X109236207Y-42357023D01*
X109179575Y-42145670D01*
X109087102Y-41947362D01*
X109087100Y-41947359D01*
X109087099Y-41947357D01*
X108961599Y-41768124D01*
X108887772Y-41694297D01*
X108806877Y-41613402D01*
X108627639Y-41487898D01*
X108627640Y-41487898D01*
X108627638Y-41487897D01*
X108528484Y-41441661D01*
X108429330Y-41395425D01*
X108429326Y-41395424D01*
X108429322Y-41395422D01*
X108217977Y-41338793D01*
X108000002Y-41319723D01*
X107999998Y-41319723D01*
X107923679Y-41326400D01*
X107782023Y-41338793D01*
X107782020Y-41338793D01*
X107570677Y-41395422D01*
X107570668Y-41395426D01*
X107372361Y-41487898D01*
X107372357Y-41487900D01*
X107193121Y-41613402D01*
X107038402Y-41768121D01*
X106912900Y-41947357D01*
X106912898Y-41947361D01*
X106820426Y-42145668D01*
X106820422Y-42145677D01*
X106763793Y-42357020D01*
X106763793Y-42357024D01*
X106745526Y-42565826D01*
X106744723Y-42575000D01*
X106338738Y-42575000D01*
X106356134Y-42506305D01*
X106356135Y-42506297D01*
X106375300Y-42275006D01*
X106375300Y-42274993D01*
X106356135Y-42043702D01*
X106356133Y-42043691D01*
X106299157Y-41818699D01*
X106205924Y-41606151D01*
X106078983Y-41411852D01*
X106078980Y-41411849D01*
X106078979Y-41411847D01*
X105921784Y-41241087D01*
X105921779Y-41241083D01*
X105921777Y-41241081D01*
X105738634Y-41098535D01*
X105738628Y-41098531D01*
X105534504Y-40988064D01*
X105534495Y-40988061D01*
X105314984Y-40912702D01*
X105143282Y-40884050D01*
X105086049Y-40874500D01*
X104853951Y-40874500D01*
X104808164Y-40882140D01*
X104625015Y-40912702D01*
X104405504Y-40988061D01*
X104405495Y-40988064D01*
X104201371Y-41098531D01*
X104201365Y-41098535D01*
X104018222Y-41241081D01*
X104018219Y-41241084D01*
X103861016Y-41411852D01*
X103734072Y-41606155D01*
X103733553Y-41607116D01*
X103733237Y-41607433D01*
X103731271Y-41610444D01*
X103730651Y-41610039D01*
X103684333Y-41656705D01*
X103616116Y-41671812D01*
X103550561Y-41647640D01*
X103508481Y-41591863D01*
X103500500Y-41548096D01*
X103500500Y-36944799D01*
X103520185Y-36877760D01*
X103572989Y-36832005D01*
X103642147Y-36822061D01*
X103705703Y-36851086D01*
X103726075Y-36873676D01*
X103801500Y-36981395D01*
X103801505Y-36981401D01*
X103968599Y-37148495D01*
X104065384Y-37216265D01*
X104162165Y-37284032D01*
X104162167Y-37284033D01*
X104162170Y-37284035D01*
X104376337Y-37383903D01*
X104604592Y-37445063D01*
X104775319Y-37460000D01*
X104839999Y-37465659D01*
X104840000Y-37465659D01*
X104840001Y-37465659D01*
X104904681Y-37460000D01*
X105075408Y-37445063D01*
X105303663Y-37383903D01*
X105517830Y-37284035D01*
X105711401Y-37148495D01*
X105878495Y-36981401D01*
X106008425Y-36795842D01*
X106063002Y-36752217D01*
X106132500Y-36745023D01*
X106194855Y-36776546D01*
X106211575Y-36795842D01*
X106341500Y-36981395D01*
X106341505Y-36981401D01*
X106508599Y-37148495D01*
X106605384Y-37216265D01*
X106702165Y-37284032D01*
X106702167Y-37284033D01*
X106702170Y-37284035D01*
X106916337Y-37383903D01*
X107144592Y-37445063D01*
X107315319Y-37460000D01*
X107379999Y-37465659D01*
X107380000Y-37465659D01*
X107380001Y-37465659D01*
X107444681Y-37460000D01*
X107615408Y-37445063D01*
X107843663Y-37383903D01*
X108057830Y-37284035D01*
X108251401Y-37148495D01*
X108373717Y-37026178D01*
X108435036Y-36992696D01*
X108504728Y-36997680D01*
X108560662Y-37039551D01*
X108577577Y-37070528D01*
X108626646Y-37202088D01*
X108626649Y-37202093D01*
X108712809Y-37317187D01*
X108712812Y-37317190D01*
X108827906Y-37403350D01*
X108827913Y-37403354D01*
X108962620Y-37453596D01*
X108962627Y-37453598D01*
X109022155Y-37459999D01*
X109022172Y-37460000D01*
X109670000Y-37460000D01*
X109670000Y-36554560D01*
X109723147Y-36585245D01*
X109852857Y-36620000D01*
X109987143Y-36620000D01*
X110116853Y-36585245D01*
X110170000Y-36554560D01*
X110170000Y-37460000D01*
X110817828Y-37460000D01*
X110817844Y-37459999D01*
X110877372Y-37453598D01*
X110877379Y-37453596D01*
X111012086Y-37403354D01*
X111012093Y-37403350D01*
X111127187Y-37317190D01*
X111127190Y-37317187D01*
X111213350Y-37202093D01*
X111213354Y-37202086D01*
X111262422Y-37070529D01*
X111304293Y-37014595D01*
X111369757Y-36990178D01*
X111438030Y-37005030D01*
X111466285Y-37026181D01*
X111588599Y-37148495D01*
X111685384Y-37216265D01*
X111782165Y-37284032D01*
X111782167Y-37284033D01*
X111782170Y-37284035D01*
X111996337Y-37383903D01*
X112224592Y-37445063D01*
X112395319Y-37460000D01*
X112459999Y-37465659D01*
X112460000Y-37465659D01*
X112460001Y-37465659D01*
X112524681Y-37460000D01*
X112695408Y-37445063D01*
X112923663Y-37383903D01*
X113137830Y-37284035D01*
X113331401Y-37148495D01*
X113498495Y-36981401D01*
X113628425Y-36795842D01*
X113683002Y-36752217D01*
X113752500Y-36745023D01*
X113814855Y-36776546D01*
X113831575Y-36795842D01*
X113961500Y-36981395D01*
X113961505Y-36981401D01*
X114128599Y-37148495D01*
X114225384Y-37216265D01*
X114322165Y-37284032D01*
X114322167Y-37284033D01*
X114322170Y-37284035D01*
X114536337Y-37383903D01*
X114764592Y-37445063D01*
X114935319Y-37460000D01*
X114999999Y-37465659D01*
X115000000Y-37465659D01*
X115000001Y-37465659D01*
X115064681Y-37460000D01*
X115235408Y-37445063D01*
X115463663Y-37383903D01*
X115677830Y-37284035D01*
X115871401Y-37148495D01*
X116038495Y-36981401D01*
X116168425Y-36795842D01*
X116223002Y-36752217D01*
X116292500Y-36745023D01*
X116354855Y-36776546D01*
X116371575Y-36795842D01*
X116501500Y-36981395D01*
X116501505Y-36981401D01*
X116668599Y-37148495D01*
X116765384Y-37216265D01*
X116862165Y-37284032D01*
X116862167Y-37284033D01*
X116862170Y-37284035D01*
X117076337Y-37383903D01*
X117304592Y-37445063D01*
X117475319Y-37460000D01*
X117539999Y-37465659D01*
X117540000Y-37465659D01*
X117540001Y-37465659D01*
X117604681Y-37460000D01*
X117775408Y-37445063D01*
X118003663Y-37383903D01*
X118217830Y-37284035D01*
X118411401Y-37148495D01*
X118578495Y-36981401D01*
X118708425Y-36795842D01*
X118763002Y-36752217D01*
X118832500Y-36745023D01*
X118894855Y-36776546D01*
X118911575Y-36795842D01*
X119041500Y-36981395D01*
X119041505Y-36981401D01*
X119208599Y-37148495D01*
X119305384Y-37216265D01*
X119402165Y-37284032D01*
X119402167Y-37284033D01*
X119402170Y-37284035D01*
X119616337Y-37383903D01*
X119844592Y-37445063D01*
X120015319Y-37460000D01*
X120079999Y-37465659D01*
X120080000Y-37465659D01*
X120080001Y-37465659D01*
X120144681Y-37460000D01*
X120315408Y-37445063D01*
X120543663Y-37383903D01*
X120757830Y-37284035D01*
X120951401Y-37148495D01*
X121073717Y-37026178D01*
X121135036Y-36992696D01*
X121204728Y-36997680D01*
X121260662Y-37039551D01*
X121277577Y-37070528D01*
X121326646Y-37202088D01*
X121326649Y-37202093D01*
X121412809Y-37317187D01*
X121412812Y-37317190D01*
X121527906Y-37403350D01*
X121527913Y-37403354D01*
X121662620Y-37453596D01*
X121662627Y-37453598D01*
X121722155Y-37459999D01*
X121722172Y-37460000D01*
X122370000Y-37460000D01*
X122370000Y-36554560D01*
X122423147Y-36585245D01*
X122552857Y-36620000D01*
X122687143Y-36620000D01*
X122816853Y-36585245D01*
X122870000Y-36554560D01*
X122870000Y-37460000D01*
X123517828Y-37460000D01*
X123517844Y-37459999D01*
X123577372Y-37453598D01*
X123577379Y-37453596D01*
X123712086Y-37403354D01*
X123712093Y-37403350D01*
X123827187Y-37317190D01*
X123827190Y-37317187D01*
X123913350Y-37202093D01*
X123913354Y-37202086D01*
X123962422Y-37070529D01*
X124004293Y-37014595D01*
X124069757Y-36990178D01*
X124138030Y-37005030D01*
X124166285Y-37026181D01*
X124288599Y-37148495D01*
X124385384Y-37216265D01*
X124482165Y-37284032D01*
X124482167Y-37284033D01*
X124482170Y-37284035D01*
X124696337Y-37383903D01*
X124924592Y-37445063D01*
X125095319Y-37460000D01*
X125159999Y-37465659D01*
X125160000Y-37465659D01*
X125160001Y-37465659D01*
X125224681Y-37460000D01*
X125395408Y-37445063D01*
X125623663Y-37383903D01*
X125837830Y-37284035D01*
X126031401Y-37148495D01*
X126198495Y-36981401D01*
X126328425Y-36795842D01*
X126383002Y-36752217D01*
X126452500Y-36745023D01*
X126514855Y-36776546D01*
X126531575Y-36795842D01*
X126661500Y-36981395D01*
X126661505Y-36981401D01*
X126828599Y-37148495D01*
X126925384Y-37216265D01*
X127022165Y-37284032D01*
X127022167Y-37284033D01*
X127022170Y-37284035D01*
X127236337Y-37383903D01*
X127464592Y-37445063D01*
X127635319Y-37460000D01*
X127699999Y-37465659D01*
X127700000Y-37465659D01*
X127700001Y-37465659D01*
X127764681Y-37460000D01*
X127935408Y-37445063D01*
X128163663Y-37383903D01*
X128377830Y-37284035D01*
X128571401Y-37148495D01*
X128738495Y-36981401D01*
X128868425Y-36795842D01*
X128923002Y-36752217D01*
X128992500Y-36745023D01*
X129054855Y-36776546D01*
X129071575Y-36795842D01*
X129201500Y-36981395D01*
X129201505Y-36981401D01*
X129368599Y-37148495D01*
X129465384Y-37216265D01*
X129562165Y-37284032D01*
X129562167Y-37284033D01*
X129562170Y-37284035D01*
X129776337Y-37383903D01*
X130004592Y-37445063D01*
X130175319Y-37460000D01*
X130239999Y-37465659D01*
X130240000Y-37465659D01*
X130240001Y-37465659D01*
X130304681Y-37460000D01*
X130475408Y-37445063D01*
X130703663Y-37383903D01*
X130917830Y-37284035D01*
X131111401Y-37148495D01*
X131278495Y-36981401D01*
X131408425Y-36795842D01*
X131463002Y-36752217D01*
X131532500Y-36745023D01*
X131594855Y-36776546D01*
X131611575Y-36795842D01*
X131741500Y-36981395D01*
X131741505Y-36981401D01*
X131908599Y-37148495D01*
X132005384Y-37216265D01*
X132102165Y-37284032D01*
X132102167Y-37284033D01*
X132102170Y-37284035D01*
X132316337Y-37383903D01*
X132544592Y-37445063D01*
X132715319Y-37460000D01*
X132779999Y-37465659D01*
X132780000Y-37465659D01*
X132780001Y-37465659D01*
X132844681Y-37460000D01*
X133015408Y-37445063D01*
X133243663Y-37383903D01*
X133457830Y-37284035D01*
X133651401Y-37148495D01*
X133773717Y-37026178D01*
X133835036Y-36992696D01*
X133904728Y-36997680D01*
X133960662Y-37039551D01*
X133977577Y-37070528D01*
X134026646Y-37202088D01*
X134026649Y-37202093D01*
X134112809Y-37317187D01*
X134112812Y-37317190D01*
X134227906Y-37403350D01*
X134227913Y-37403354D01*
X134362620Y-37453596D01*
X134362627Y-37453598D01*
X134422155Y-37459999D01*
X134422172Y-37460000D01*
X135070000Y-37460000D01*
X135070000Y-36554560D01*
X135123147Y-36585245D01*
X135252857Y-36620000D01*
X135387143Y-36620000D01*
X135516853Y-36585245D01*
X135570000Y-36554560D01*
X135570000Y-37460000D01*
X136217828Y-37460000D01*
X136217844Y-37459999D01*
X136277372Y-37453598D01*
X136277379Y-37453596D01*
X136412086Y-37403354D01*
X136412093Y-37403350D01*
X136527187Y-37317190D01*
X136527190Y-37317187D01*
X136613350Y-37202093D01*
X136613354Y-37202086D01*
X136662422Y-37070529D01*
X136704293Y-37014595D01*
X136769757Y-36990178D01*
X136838030Y-37005030D01*
X136866285Y-37026181D01*
X136988599Y-37148495D01*
X137085384Y-37216265D01*
X137182165Y-37284032D01*
X137182167Y-37284033D01*
X137182170Y-37284035D01*
X137396337Y-37383903D01*
X137624592Y-37445063D01*
X137795319Y-37460000D01*
X137859999Y-37465659D01*
X137860000Y-37465659D01*
X137860001Y-37465659D01*
X137924681Y-37460000D01*
X138095408Y-37445063D01*
X138323663Y-37383903D01*
X138537830Y-37284035D01*
X138731401Y-37148495D01*
X138898495Y-36981401D01*
X139028425Y-36795842D01*
X139083002Y-36752217D01*
X139152500Y-36745023D01*
X139214855Y-36776546D01*
X139231575Y-36795842D01*
X139361500Y-36981395D01*
X139361505Y-36981401D01*
X139528599Y-37148495D01*
X139625384Y-37216265D01*
X139722165Y-37284032D01*
X139722167Y-37284033D01*
X139722170Y-37284035D01*
X139936337Y-37383903D01*
X140164592Y-37445063D01*
X140335319Y-37460000D01*
X140399999Y-37465659D01*
X140400000Y-37465659D01*
X140400001Y-37465659D01*
X140464681Y-37460000D01*
X140635408Y-37445063D01*
X140863663Y-37383903D01*
X141077830Y-37284035D01*
X141271401Y-37148495D01*
X141438495Y-36981401D01*
X141568425Y-36795842D01*
X141623002Y-36752217D01*
X141692500Y-36745023D01*
X141754855Y-36776546D01*
X141771575Y-36795842D01*
X141901500Y-36981395D01*
X141901505Y-36981401D01*
X142068599Y-37148495D01*
X142165384Y-37216265D01*
X142262165Y-37284032D01*
X142262167Y-37284033D01*
X142262170Y-37284035D01*
X142476337Y-37383903D01*
X142704592Y-37445063D01*
X142875319Y-37460000D01*
X142939999Y-37465659D01*
X142940000Y-37465659D01*
X142940001Y-37465659D01*
X143004681Y-37460000D01*
X143175408Y-37445063D01*
X143403663Y-37383903D01*
X143617830Y-37284035D01*
X143811401Y-37148495D01*
X143978495Y-36981401D01*
X144108425Y-36795842D01*
X144163002Y-36752217D01*
X144232500Y-36745023D01*
X144294855Y-36776546D01*
X144311575Y-36795842D01*
X144441500Y-36981395D01*
X144441505Y-36981401D01*
X144608599Y-37148495D01*
X144705384Y-37216265D01*
X144802165Y-37284032D01*
X144802167Y-37284033D01*
X144802170Y-37284035D01*
X145016337Y-37383903D01*
X145244592Y-37445063D01*
X145415319Y-37460000D01*
X145479999Y-37465659D01*
X145480000Y-37465659D01*
X145480001Y-37465659D01*
X145544681Y-37460000D01*
X145715408Y-37445063D01*
X145943663Y-37383903D01*
X146157830Y-37284035D01*
X146351401Y-37148495D01*
X146473717Y-37026178D01*
X146535036Y-36992696D01*
X146604728Y-36997680D01*
X146660662Y-37039551D01*
X146677577Y-37070528D01*
X146726646Y-37202088D01*
X146726649Y-37202093D01*
X146812809Y-37317187D01*
X146812812Y-37317190D01*
X146927906Y-37403350D01*
X146927913Y-37403354D01*
X147062620Y-37453596D01*
X147062627Y-37453598D01*
X147122155Y-37459999D01*
X147122172Y-37460000D01*
X147770000Y-37460000D01*
X147770000Y-36554560D01*
X147823147Y-36585245D01*
X147952857Y-36620000D01*
X148087143Y-36620000D01*
X148216853Y-36585245D01*
X148270000Y-36554560D01*
X148270000Y-37460000D01*
X148917828Y-37460000D01*
X148917844Y-37459999D01*
X148977372Y-37453598D01*
X148977379Y-37453596D01*
X149112086Y-37403354D01*
X149112093Y-37403350D01*
X149227187Y-37317190D01*
X149227190Y-37317187D01*
X149313350Y-37202093D01*
X149313354Y-37202086D01*
X149362422Y-37070529D01*
X149404293Y-37014595D01*
X149469757Y-36990178D01*
X149538030Y-37005030D01*
X149566285Y-37026181D01*
X149688599Y-37148495D01*
X149785384Y-37216265D01*
X149882165Y-37284032D01*
X149882167Y-37284033D01*
X149882170Y-37284035D01*
X150096337Y-37383903D01*
X150324592Y-37445063D01*
X150495319Y-37460000D01*
X150559999Y-37465659D01*
X150560000Y-37465659D01*
X150560001Y-37465659D01*
X150624681Y-37460000D01*
X150795408Y-37445063D01*
X151023663Y-37383903D01*
X151237830Y-37284035D01*
X151431401Y-37148495D01*
X151598495Y-36981401D01*
X151728425Y-36795842D01*
X151783002Y-36752217D01*
X151852500Y-36745023D01*
X151914855Y-36776546D01*
X151931575Y-36795842D01*
X152061500Y-36981395D01*
X152061505Y-36981401D01*
X152228599Y-37148495D01*
X152325384Y-37216265D01*
X152422165Y-37284032D01*
X152422167Y-37284033D01*
X152422170Y-37284035D01*
X152636337Y-37383903D01*
X152864592Y-37445063D01*
X153035319Y-37460000D01*
X153099999Y-37465659D01*
X153100000Y-37465659D01*
X153100001Y-37465659D01*
X153164681Y-37460000D01*
X153335408Y-37445063D01*
X153563663Y-37383903D01*
X153777830Y-37284035D01*
X153971401Y-37148495D01*
X154138495Y-36981401D01*
X154274035Y-36787830D01*
X154373903Y-36573663D01*
X154435063Y-36345408D01*
X154455659Y-36110000D01*
X154435063Y-35874592D01*
X154373903Y-35646337D01*
X154274035Y-35432171D01*
X154268425Y-35424158D01*
X154138494Y-35238597D01*
X153971402Y-35071506D01*
X153971395Y-35071501D01*
X153777834Y-34935967D01*
X153777830Y-34935965D01*
X153706727Y-34902809D01*
X153563663Y-34836097D01*
X153563659Y-34836096D01*
X153563655Y-34836094D01*
X153335413Y-34774938D01*
X153335403Y-34774936D01*
X153100001Y-34754341D01*
X153099999Y-34754341D01*
X152864596Y-34774936D01*
X152864586Y-34774938D01*
X152636344Y-34836094D01*
X152636335Y-34836098D01*
X152422171Y-34935964D01*
X152422169Y-34935965D01*
X152228597Y-35071505D01*
X152061505Y-35238597D01*
X151931575Y-35424158D01*
X151876998Y-35467783D01*
X151807500Y-35474977D01*
X151745145Y-35443454D01*
X151728425Y-35424158D01*
X151598494Y-35238597D01*
X151431402Y-35071506D01*
X151431395Y-35071501D01*
X151237834Y-34935967D01*
X151237830Y-34935965D01*
X151166727Y-34902809D01*
X151023663Y-34836097D01*
X151023659Y-34836096D01*
X151023655Y-34836094D01*
X150795413Y-34774938D01*
X150795403Y-34774936D01*
X150560001Y-34754341D01*
X150559999Y-34754341D01*
X150324596Y-34774936D01*
X150324586Y-34774938D01*
X150096344Y-34836094D01*
X150096335Y-34836098D01*
X149882171Y-34935964D01*
X149882169Y-34935965D01*
X149688600Y-35071503D01*
X149566284Y-35193819D01*
X149504961Y-35227303D01*
X149435269Y-35222319D01*
X149379336Y-35180447D01*
X149362421Y-35149470D01*
X149313354Y-35017913D01*
X149313350Y-35017906D01*
X149227190Y-34902812D01*
X149227187Y-34902809D01*
X149112093Y-34816649D01*
X149112086Y-34816645D01*
X148977379Y-34766403D01*
X148977372Y-34766401D01*
X148917844Y-34760000D01*
X148270000Y-34760000D01*
X148270000Y-35665439D01*
X148216853Y-35634755D01*
X148087143Y-35600000D01*
X147952857Y-35600000D01*
X147823147Y-35634755D01*
X147770000Y-35665439D01*
X147770000Y-34760000D01*
X147122155Y-34760000D01*
X147062627Y-34766401D01*
X147062620Y-34766403D01*
X146927913Y-34816645D01*
X146927906Y-34816649D01*
X146812812Y-34902809D01*
X146812809Y-34902812D01*
X146726649Y-35017906D01*
X146726645Y-35017913D01*
X146677578Y-35149470D01*
X146635707Y-35205404D01*
X146570242Y-35229821D01*
X146501969Y-35214969D01*
X146473715Y-35193819D01*
X146429366Y-35149470D01*
X146351401Y-35071505D01*
X146351397Y-35071502D01*
X146351396Y-35071501D01*
X146157834Y-34935967D01*
X146157830Y-34935965D01*
X146086727Y-34902809D01*
X145943663Y-34836097D01*
X145943659Y-34836096D01*
X145943655Y-34836094D01*
X145715413Y-34774938D01*
X145715403Y-34774936D01*
X145480001Y-34754341D01*
X145479999Y-34754341D01*
X145244596Y-34774936D01*
X145244586Y-34774938D01*
X145016344Y-34836094D01*
X145016335Y-34836098D01*
X144802171Y-34935964D01*
X144802169Y-34935965D01*
X144608597Y-35071505D01*
X144441505Y-35238597D01*
X144311575Y-35424158D01*
X144256998Y-35467783D01*
X144187500Y-35474977D01*
X144125145Y-35443454D01*
X144108425Y-35424158D01*
X143978494Y-35238597D01*
X143811402Y-35071506D01*
X143811395Y-35071501D01*
X143617834Y-34935967D01*
X143617830Y-34935965D01*
X143546727Y-34902809D01*
X143403663Y-34836097D01*
X143403659Y-34836096D01*
X143403655Y-34836094D01*
X143175413Y-34774938D01*
X143175403Y-34774936D01*
X142940001Y-34754341D01*
X142939999Y-34754341D01*
X142704596Y-34774936D01*
X142704586Y-34774938D01*
X142476344Y-34836094D01*
X142476335Y-34836098D01*
X142262171Y-34935964D01*
X142262169Y-34935965D01*
X142068597Y-35071505D01*
X141901505Y-35238597D01*
X141771575Y-35424158D01*
X141716998Y-35467783D01*
X141647500Y-35474977D01*
X141585145Y-35443454D01*
X141568425Y-35424158D01*
X141438494Y-35238597D01*
X141271402Y-35071506D01*
X141271395Y-35071501D01*
X141077834Y-34935967D01*
X141077830Y-34935965D01*
X141006727Y-34902809D01*
X140863663Y-34836097D01*
X140863659Y-34836096D01*
X140863655Y-34836094D01*
X140635413Y-34774938D01*
X140635403Y-34774936D01*
X140400001Y-34754341D01*
X140399999Y-34754341D01*
X140164596Y-34774936D01*
X140164586Y-34774938D01*
X139936344Y-34836094D01*
X139936335Y-34836098D01*
X139722171Y-34935964D01*
X139722169Y-34935965D01*
X139528597Y-35071505D01*
X139361505Y-35238597D01*
X139231575Y-35424158D01*
X139176998Y-35467783D01*
X139107500Y-35474977D01*
X139045145Y-35443454D01*
X139028425Y-35424158D01*
X138898494Y-35238597D01*
X138731402Y-35071506D01*
X138731395Y-35071501D01*
X138537834Y-34935967D01*
X138537830Y-34935965D01*
X138466727Y-34902809D01*
X138323663Y-34836097D01*
X138323659Y-34836096D01*
X138323655Y-34836094D01*
X138095413Y-34774938D01*
X138095403Y-34774936D01*
X137860001Y-34754341D01*
X137859999Y-34754341D01*
X137624596Y-34774936D01*
X137624586Y-34774938D01*
X137396344Y-34836094D01*
X137396335Y-34836098D01*
X137182171Y-34935964D01*
X137182169Y-34935965D01*
X136988600Y-35071503D01*
X136866284Y-35193819D01*
X136804961Y-35227303D01*
X136735269Y-35222319D01*
X136679336Y-35180447D01*
X136662421Y-35149470D01*
X136613354Y-35017913D01*
X136613350Y-35017906D01*
X136527190Y-34902812D01*
X136527187Y-34902809D01*
X136412093Y-34816649D01*
X136412086Y-34816645D01*
X136277379Y-34766403D01*
X136277372Y-34766401D01*
X136217844Y-34760000D01*
X135570000Y-34760000D01*
X135570000Y-35665439D01*
X135516853Y-35634755D01*
X135387143Y-35600000D01*
X135252857Y-35600000D01*
X135123147Y-35634755D01*
X135070000Y-35665439D01*
X135070000Y-34760000D01*
X134422155Y-34760000D01*
X134362627Y-34766401D01*
X134362620Y-34766403D01*
X134227913Y-34816645D01*
X134227906Y-34816649D01*
X134112812Y-34902809D01*
X134112809Y-34902812D01*
X134026649Y-35017906D01*
X134026645Y-35017913D01*
X133977578Y-35149470D01*
X133935707Y-35205404D01*
X133870242Y-35229821D01*
X133801969Y-35214969D01*
X133773715Y-35193819D01*
X133729366Y-35149470D01*
X133651401Y-35071505D01*
X133651397Y-35071502D01*
X133651396Y-35071501D01*
X133457834Y-34935967D01*
X133457830Y-34935965D01*
X133386727Y-34902809D01*
X133243663Y-34836097D01*
X133243659Y-34836096D01*
X133243655Y-34836094D01*
X133015413Y-34774938D01*
X133015403Y-34774936D01*
X132780001Y-34754341D01*
X132779999Y-34754341D01*
X132544596Y-34774936D01*
X132544586Y-34774938D01*
X132316344Y-34836094D01*
X132316335Y-34836098D01*
X132102171Y-34935964D01*
X132102169Y-34935965D01*
X131908597Y-35071505D01*
X131741505Y-35238597D01*
X131611575Y-35424158D01*
X131556998Y-35467783D01*
X131487500Y-35474977D01*
X131425145Y-35443454D01*
X131408425Y-35424158D01*
X131278494Y-35238597D01*
X131111402Y-35071506D01*
X131111395Y-35071501D01*
X130917834Y-34935967D01*
X130917830Y-34935965D01*
X130846727Y-34902809D01*
X130703663Y-34836097D01*
X130703659Y-34836096D01*
X130703655Y-34836094D01*
X130475413Y-34774938D01*
X130475403Y-34774936D01*
X130240001Y-34754341D01*
X130239999Y-34754341D01*
X130004596Y-34774936D01*
X130004586Y-34774938D01*
X129776344Y-34836094D01*
X129776335Y-34836098D01*
X129562171Y-34935964D01*
X129562169Y-34935965D01*
X129368597Y-35071505D01*
X129201505Y-35238597D01*
X129071575Y-35424158D01*
X129016998Y-35467783D01*
X128947500Y-35474977D01*
X128885145Y-35443454D01*
X128868425Y-35424158D01*
X128738494Y-35238597D01*
X128571402Y-35071506D01*
X128571395Y-35071501D01*
X128377834Y-34935967D01*
X128377830Y-34935965D01*
X128306727Y-34902809D01*
X128163663Y-34836097D01*
X128163659Y-34836096D01*
X128163655Y-34836094D01*
X127935413Y-34774938D01*
X127935403Y-34774936D01*
X127700001Y-34754341D01*
X127699999Y-34754341D01*
X127464596Y-34774936D01*
X127464586Y-34774938D01*
X127236344Y-34836094D01*
X127236335Y-34836098D01*
X127022171Y-34935964D01*
X127022169Y-34935965D01*
X126828597Y-35071505D01*
X126661505Y-35238597D01*
X126531575Y-35424158D01*
X126476998Y-35467783D01*
X126407500Y-35474977D01*
X126345145Y-35443454D01*
X126328425Y-35424158D01*
X126198494Y-35238597D01*
X126031402Y-35071506D01*
X126031395Y-35071501D01*
X125837834Y-34935967D01*
X125837830Y-34935965D01*
X125766727Y-34902809D01*
X125623663Y-34836097D01*
X125623659Y-34836096D01*
X125623655Y-34836094D01*
X125395413Y-34774938D01*
X125395403Y-34774936D01*
X125160001Y-34754341D01*
X125159999Y-34754341D01*
X124924596Y-34774936D01*
X124924586Y-34774938D01*
X124696344Y-34836094D01*
X124696335Y-34836098D01*
X124482171Y-34935964D01*
X124482169Y-34935965D01*
X124288600Y-35071503D01*
X124166284Y-35193819D01*
X124104961Y-35227303D01*
X124035269Y-35222319D01*
X123979336Y-35180447D01*
X123962421Y-35149470D01*
X123913354Y-35017913D01*
X123913350Y-35017906D01*
X123827190Y-34902812D01*
X123827187Y-34902809D01*
X123712093Y-34816649D01*
X123712086Y-34816645D01*
X123577379Y-34766403D01*
X123577372Y-34766401D01*
X123517844Y-34760000D01*
X122870000Y-34760000D01*
X122870000Y-35665439D01*
X122816853Y-35634755D01*
X122687143Y-35600000D01*
X122552857Y-35600000D01*
X122423147Y-35634755D01*
X122370000Y-35665439D01*
X122370000Y-34760000D01*
X121722155Y-34760000D01*
X121662627Y-34766401D01*
X121662620Y-34766403D01*
X121527913Y-34816645D01*
X121527906Y-34816649D01*
X121412812Y-34902809D01*
X121412809Y-34902812D01*
X121326649Y-35017906D01*
X121326645Y-35017913D01*
X121277578Y-35149470D01*
X121235707Y-35205404D01*
X121170242Y-35229821D01*
X121101969Y-35214969D01*
X121073715Y-35193819D01*
X121029366Y-35149470D01*
X120951401Y-35071505D01*
X120951397Y-35071502D01*
X120951396Y-35071501D01*
X120757834Y-34935967D01*
X120757830Y-34935965D01*
X120686727Y-34902809D01*
X120543663Y-34836097D01*
X120543659Y-34836096D01*
X120543655Y-34836094D01*
X120315413Y-34774938D01*
X120315403Y-34774936D01*
X120080001Y-34754341D01*
X120079999Y-34754341D01*
X119844596Y-34774936D01*
X119844586Y-34774938D01*
X119616344Y-34836094D01*
X119616335Y-34836098D01*
X119402171Y-34935964D01*
X119402169Y-34935965D01*
X119208597Y-35071505D01*
X119041505Y-35238597D01*
X118911575Y-35424158D01*
X118856998Y-35467783D01*
X118787500Y-35474977D01*
X118725145Y-35443454D01*
X118708425Y-35424158D01*
X118578494Y-35238597D01*
X118411402Y-35071506D01*
X118411395Y-35071501D01*
X118217834Y-34935967D01*
X118217830Y-34935965D01*
X118146727Y-34902809D01*
X118003663Y-34836097D01*
X118003659Y-34836096D01*
X118003655Y-34836094D01*
X117775413Y-34774938D01*
X117775403Y-34774936D01*
X117540001Y-34754341D01*
X117539999Y-34754341D01*
X117304596Y-34774936D01*
X117304586Y-34774938D01*
X117076344Y-34836094D01*
X117076335Y-34836098D01*
X116862171Y-34935964D01*
X116862169Y-34935965D01*
X116668597Y-35071505D01*
X116501505Y-35238597D01*
X116371575Y-35424158D01*
X116316998Y-35467783D01*
X116247500Y-35474977D01*
X116185145Y-35443454D01*
X116168425Y-35424158D01*
X116038494Y-35238597D01*
X115871402Y-35071506D01*
X115871395Y-35071501D01*
X115677834Y-34935967D01*
X115677830Y-34935965D01*
X115606727Y-34902809D01*
X115463663Y-34836097D01*
X115463659Y-34836096D01*
X115463655Y-34836094D01*
X115235413Y-34774938D01*
X115235403Y-34774936D01*
X115000001Y-34754341D01*
X114999999Y-34754341D01*
X114764596Y-34774936D01*
X114764586Y-34774938D01*
X114536344Y-34836094D01*
X114536335Y-34836098D01*
X114322171Y-34935964D01*
X114322169Y-34935965D01*
X114128597Y-35071505D01*
X113961505Y-35238597D01*
X113831575Y-35424158D01*
X113776998Y-35467783D01*
X113707500Y-35474977D01*
X113645145Y-35443454D01*
X113628425Y-35424158D01*
X113498494Y-35238597D01*
X113331402Y-35071506D01*
X113331395Y-35071501D01*
X113137834Y-34935967D01*
X113137830Y-34935965D01*
X113066727Y-34902809D01*
X112923663Y-34836097D01*
X112923659Y-34836096D01*
X112923655Y-34836094D01*
X112695413Y-34774938D01*
X112695403Y-34774936D01*
X112460001Y-34754341D01*
X112459999Y-34754341D01*
X112224596Y-34774936D01*
X112224586Y-34774938D01*
X111996344Y-34836094D01*
X111996335Y-34836098D01*
X111782171Y-34935964D01*
X111782169Y-34935965D01*
X111588600Y-35071503D01*
X111466284Y-35193819D01*
X111404961Y-35227303D01*
X111335269Y-35222319D01*
X111279336Y-35180447D01*
X111262421Y-35149470D01*
X111213354Y-35017913D01*
X111213350Y-35017906D01*
X111127190Y-34902812D01*
X111127187Y-34902809D01*
X111012093Y-34816649D01*
X111012086Y-34816645D01*
X110877379Y-34766403D01*
X110877372Y-34766401D01*
X110817844Y-34760000D01*
X110170000Y-34760000D01*
X110170000Y-35665439D01*
X110116853Y-35634755D01*
X109987143Y-35600000D01*
X109852857Y-35600000D01*
X109723147Y-35634755D01*
X109670000Y-35665439D01*
X109670000Y-34760000D01*
X109022155Y-34760000D01*
X108962627Y-34766401D01*
X108962620Y-34766403D01*
X108827913Y-34816645D01*
X108827906Y-34816649D01*
X108712812Y-34902809D01*
X108712809Y-34902812D01*
X108626649Y-35017906D01*
X108626645Y-35017913D01*
X108577578Y-35149470D01*
X108535707Y-35205404D01*
X108470242Y-35229821D01*
X108401969Y-35214969D01*
X108373715Y-35193819D01*
X108329366Y-35149470D01*
X108251401Y-35071505D01*
X108251397Y-35071502D01*
X108251396Y-35071501D01*
X108057834Y-34935967D01*
X108057830Y-34935965D01*
X107986727Y-34902809D01*
X107843663Y-34836097D01*
X107843659Y-34836096D01*
X107843655Y-34836094D01*
X107615413Y-34774938D01*
X107615403Y-34774936D01*
X107380001Y-34754341D01*
X107379999Y-34754341D01*
X107144596Y-34774936D01*
X107144586Y-34774938D01*
X106916344Y-34836094D01*
X106916335Y-34836098D01*
X106702171Y-34935964D01*
X106702169Y-34935965D01*
X106508597Y-35071505D01*
X106341505Y-35238597D01*
X106211575Y-35424158D01*
X106156998Y-35467783D01*
X106087500Y-35474977D01*
X106025145Y-35443454D01*
X106008425Y-35424158D01*
X105878494Y-35238597D01*
X105711402Y-35071506D01*
X105711395Y-35071501D01*
X105517834Y-34935967D01*
X105517830Y-34935965D01*
X105446727Y-34902809D01*
X105303663Y-34836097D01*
X105303659Y-34836096D01*
X105303655Y-34836094D01*
X105075413Y-34774938D01*
X105075403Y-34774936D01*
X104840001Y-34754341D01*
X104839999Y-34754341D01*
X104604596Y-34774936D01*
X104604586Y-34774938D01*
X104376344Y-34836094D01*
X104376335Y-34836098D01*
X104162171Y-34935964D01*
X104162169Y-34935965D01*
X103968597Y-35071505D01*
X103801505Y-35238597D01*
X103726075Y-35346324D01*
X103671498Y-35389949D01*
X103602000Y-35397143D01*
X103539645Y-35365620D01*
X103504231Y-35305390D01*
X103500500Y-35275201D01*
X103500500Y-28378711D01*
X113649500Y-28378711D01*
X113649500Y-28621288D01*
X113681161Y-28861785D01*
X113743947Y-29096104D01*
X113836773Y-29320205D01*
X113836776Y-29320212D01*
X113958064Y-29530289D01*
X113958066Y-29530292D01*
X113958067Y-29530293D01*
X114105733Y-29722736D01*
X114105739Y-29722743D01*
X114277256Y-29894260D01*
X114277262Y-29894265D01*
X114469711Y-30041936D01*
X114679788Y-30163224D01*
X114903900Y-30256054D01*
X115138211Y-30318838D01*
X115318586Y-30342584D01*
X115378711Y-30350500D01*
X115378712Y-30350500D01*
X115621289Y-30350500D01*
X115669388Y-30344167D01*
X115861789Y-30318838D01*
X116096100Y-30256054D01*
X116320212Y-30163224D01*
X116530289Y-30041936D01*
X116722738Y-29894265D01*
X116894265Y-29722738D01*
X117041936Y-29530289D01*
X117163224Y-29320212D01*
X117256054Y-29096100D01*
X117318838Y-28861789D01*
X117350500Y-28621288D01*
X117350500Y-28378712D01*
X117350500Y-28378711D01*
X179649500Y-28378711D01*
X179649500Y-28621288D01*
X179681161Y-28861785D01*
X179743947Y-29096104D01*
X179836773Y-29320205D01*
X179836776Y-29320212D01*
X179958064Y-29530289D01*
X179958066Y-29530292D01*
X179958067Y-29530293D01*
X180105733Y-29722736D01*
X180105739Y-29722743D01*
X180277256Y-29894260D01*
X180277262Y-29894265D01*
X180469711Y-30041936D01*
X180679788Y-30163224D01*
X180903900Y-30256054D01*
X181138211Y-30318838D01*
X181318586Y-30342584D01*
X181378711Y-30350500D01*
X181378712Y-30350500D01*
X181621289Y-30350500D01*
X181669388Y-30344167D01*
X181861789Y-30318838D01*
X182096100Y-30256054D01*
X182320212Y-30163224D01*
X182530289Y-30041936D01*
X182722738Y-29894265D01*
X182894265Y-29722738D01*
X183041936Y-29530289D01*
X183163224Y-29320212D01*
X183256054Y-29096100D01*
X183318838Y-28861789D01*
X183350500Y-28621288D01*
X183350500Y-28378712D01*
X183318838Y-28138211D01*
X183256054Y-27903900D01*
X183163224Y-27679788D01*
X183041936Y-27469711D01*
X182894265Y-27277262D01*
X182894260Y-27277256D01*
X182722743Y-27105739D01*
X182722736Y-27105733D01*
X182530293Y-26958067D01*
X182530292Y-26958066D01*
X182530289Y-26958064D01*
X182320212Y-26836776D01*
X182299100Y-26828031D01*
X182096104Y-26743947D01*
X181861785Y-26681161D01*
X181621289Y-26649500D01*
X181621288Y-26649500D01*
X181378712Y-26649500D01*
X181378711Y-26649500D01*
X181138214Y-26681161D01*
X180903895Y-26743947D01*
X180679794Y-26836773D01*
X180679785Y-26836777D01*
X180469706Y-26958067D01*
X180277263Y-27105733D01*
X180277256Y-27105739D01*
X180105739Y-27277256D01*
X180105733Y-27277263D01*
X179958067Y-27469706D01*
X179836777Y-27679785D01*
X179836773Y-27679794D01*
X179743947Y-27903895D01*
X179681161Y-28138214D01*
X179649500Y-28378711D01*
X117350500Y-28378711D01*
X117318838Y-28138211D01*
X117256054Y-27903900D01*
X117163224Y-27679788D01*
X117041936Y-27469711D01*
X116894265Y-27277262D01*
X116894260Y-27277256D01*
X116722743Y-27105739D01*
X116722736Y-27105733D01*
X116530293Y-26958067D01*
X116530292Y-26958066D01*
X116530289Y-26958064D01*
X116320212Y-26836776D01*
X116299100Y-26828031D01*
X116096104Y-26743947D01*
X115861785Y-26681161D01*
X115621289Y-26649500D01*
X115621288Y-26649500D01*
X115378712Y-26649500D01*
X115378711Y-26649500D01*
X115138214Y-26681161D01*
X114903895Y-26743947D01*
X114679794Y-26836773D01*
X114679785Y-26836777D01*
X114469706Y-26958067D01*
X114277263Y-27105733D01*
X114277256Y-27105739D01*
X114105739Y-27277256D01*
X114105733Y-27277263D01*
X113958067Y-27469706D01*
X113836777Y-27679785D01*
X113836773Y-27679794D01*
X113743947Y-27903895D01*
X113681161Y-28138214D01*
X113649500Y-28378711D01*
X103500500Y-28378711D01*
X103500500Y-27003750D01*
X103500726Y-26996263D01*
X103506766Y-26896402D01*
X103518271Y-26706201D01*
X103520076Y-26691340D01*
X103521942Y-26681161D01*
X103571780Y-26409197D01*
X103575364Y-26394663D01*
X103617198Y-26260413D01*
X103660696Y-26120822D01*
X103665998Y-26106841D01*
X103783731Y-25845249D01*
X103790676Y-25832016D01*
X103939080Y-25586526D01*
X103947567Y-25574230D01*
X104124480Y-25348417D01*
X104134395Y-25337226D01*
X104337226Y-25134395D01*
X104348417Y-25124480D01*
X104574230Y-24947567D01*
X104586526Y-24939080D01*
X104832016Y-24790676D01*
X104845249Y-24783731D01*
X105106841Y-24665998D01*
X105120822Y-24660696D01*
X105394668Y-24575362D01*
X105409197Y-24571780D01*
X105691344Y-24520075D01*
X105706201Y-24518271D01*
X105996264Y-24500726D01*
X106003751Y-24500500D01*
X106065892Y-24500500D01*
X161449703Y-24500500D01*
X161516742Y-24520185D01*
G37*
%TD.AperFunction*%
%TA.AperFunction,Conductor*%
G36*
X110170000Y-55240000D02*
G01*
X110817828Y-55240000D01*
X110817844Y-55239999D01*
X110877372Y-55233598D01*
X110877379Y-55233596D01*
X111012086Y-55183354D01*
X111012093Y-55183350D01*
X111127187Y-55097190D01*
X111127190Y-55097187D01*
X111213350Y-54982093D01*
X111213354Y-54982086D01*
X111262422Y-54850529D01*
X111304293Y-54794595D01*
X111369757Y-54770178D01*
X111438030Y-54785030D01*
X111466285Y-54806181D01*
X111588599Y-54928495D01*
X111665135Y-54982086D01*
X111782165Y-55064032D01*
X111782167Y-55064033D01*
X111782170Y-55064035D01*
X111787898Y-55066706D01*
X111840339Y-55112872D01*
X111859500Y-55179090D01*
X111859500Y-57913330D01*
X111859499Y-57913348D01*
X111859499Y-58079054D01*
X111859498Y-58079054D01*
X111859499Y-58079057D01*
X111900423Y-58231785D01*
X111904872Y-58239491D01*
X111904875Y-58239501D01*
X111904877Y-58239500D01*
X111979475Y-58368709D01*
X111979481Y-58368717D01*
X112098349Y-58487585D01*
X112098355Y-58487590D01*
X115798584Y-62187819D01*
X115832069Y-62249142D01*
X115827085Y-62318834D01*
X115785213Y-62374767D01*
X115719749Y-62399184D01*
X115710903Y-62399500D01*
X112300098Y-62399500D01*
X112233059Y-62379815D01*
X112212417Y-62363181D01*
X108016819Y-58167583D01*
X107983334Y-58106260D01*
X107980500Y-58079902D01*
X107980500Y-55179090D01*
X108000185Y-55112051D01*
X108052101Y-55066706D01*
X108057830Y-55064035D01*
X108251401Y-54928495D01*
X108373717Y-54806178D01*
X108435036Y-54772696D01*
X108504728Y-54777680D01*
X108560662Y-54819551D01*
X108577577Y-54850528D01*
X108626646Y-54982088D01*
X108626649Y-54982093D01*
X108712809Y-55097187D01*
X108712812Y-55097190D01*
X108827906Y-55183350D01*
X108827913Y-55183354D01*
X108962620Y-55233596D01*
X108962627Y-55233598D01*
X109022155Y-55239999D01*
X109022172Y-55240000D01*
X109670000Y-55240000D01*
X109670000Y-54334560D01*
X109723147Y-54365245D01*
X109852857Y-54400000D01*
X109987143Y-54400000D01*
X110116853Y-54365245D01*
X110170000Y-54334560D01*
X110170000Y-55240000D01*
G37*
%TD.AperFunction*%
%TA.AperFunction,Conductor*%
G36*
X150917941Y-51020185D02*
G01*
X150963696Y-51072989D01*
X150973640Y-51142147D01*
X150944615Y-51205703D01*
X150938583Y-51212181D01*
X150079481Y-52071282D01*
X150079479Y-52071284D01*
X150062612Y-52100500D01*
X150046538Y-52128342D01*
X150000423Y-52208215D01*
X149970684Y-52319203D01*
X149959500Y-52360941D01*
X149959499Y-52360944D01*
X149959499Y-52529046D01*
X149959500Y-52529059D01*
X149959500Y-52600908D01*
X149939815Y-52667947D01*
X149887914Y-52713286D01*
X149882173Y-52715963D01*
X149882169Y-52715965D01*
X149688600Y-52851503D01*
X149566284Y-52973819D01*
X149504961Y-53007303D01*
X149435269Y-53002319D01*
X149379336Y-52960447D01*
X149362421Y-52929470D01*
X149313354Y-52797913D01*
X149313350Y-52797906D01*
X149227190Y-52682812D01*
X149227187Y-52682809D01*
X149112093Y-52596649D01*
X149112086Y-52596645D01*
X148977379Y-52546403D01*
X148977372Y-52546401D01*
X148917844Y-52540000D01*
X148270000Y-52540000D01*
X148270000Y-53445439D01*
X148216853Y-53414755D01*
X148087143Y-53380000D01*
X147952857Y-53380000D01*
X147823147Y-53414755D01*
X147770000Y-53445439D01*
X147770000Y-52540000D01*
X147122155Y-52540000D01*
X147062627Y-52546401D01*
X147062620Y-52546403D01*
X146927913Y-52596645D01*
X146927906Y-52596649D01*
X146812812Y-52682809D01*
X146812809Y-52682812D01*
X146726649Y-52797906D01*
X146726645Y-52797913D01*
X146677578Y-52929470D01*
X146635707Y-52985404D01*
X146570242Y-53009821D01*
X146501969Y-52994969D01*
X146473715Y-52973819D01*
X146429366Y-52929470D01*
X146351401Y-52851505D01*
X146351397Y-52851502D01*
X146351396Y-52851501D01*
X146157831Y-52715965D01*
X146157826Y-52715962D01*
X146152091Y-52713288D01*
X146099653Y-52667113D01*
X146080500Y-52600908D01*
X146080500Y-51220097D01*
X146100185Y-51153058D01*
X146116819Y-51132416D01*
X146212416Y-51036819D01*
X146273739Y-51003334D01*
X146300097Y-51000500D01*
X150850902Y-51000500D01*
X150917941Y-51020185D01*
G37*
%TD.AperFunction*%
%TD*%
M02*
