%TF.GenerationSoftware,KiCad,Pcbnew,8.0.7*%
%TF.CreationDate,2025-04-18T20:19:49+02:00*%
%TF.ProjectId,midi_pedals,6d696469-5f70-4656-9461-6c732e6b6963,rev?*%
%TF.SameCoordinates,Original*%
%TF.FileFunction,Legend,Bot*%
%TF.FilePolarity,Positive*%
%FSLAX46Y46*%
G04 Gerber Fmt 4.6, Leading zero omitted, Abs format (unit mm)*
G04 Created by KiCad (PCBNEW 8.0.7) date 2025-04-18 20:19:49*
%MOMM*%
%LPD*%
G01*
G04 APERTURE LIST*
%ADD10C,0.411825*%
%ADD11C,0.411839*%
%ADD12C,0.400000*%
%ADD13C,0.300000*%
%ADD14C,0.100000*%
%ADD15C,0.150000*%
%ADD16C,0.120000*%
G04 APERTURE END LIST*
D10*
X189552672Y-53088277D02*
X187214183Y-54634152D01*
X185644530Y-52330843D01*
X187983158Y-50784968D01*
X189552672Y-53088277D01*
G36*
X189552672Y-53088277D02*
G01*
X187214183Y-54634152D01*
X185644530Y-52330843D01*
X187983158Y-50784968D01*
X189552672Y-53088277D01*
G37*
X192211405Y-45700699D02*
X191500000Y-46342715D01*
X190848110Y-45642017D01*
X191559515Y-45000000D01*
X192211405Y-45700699D01*
G36*
X192211405Y-45700699D02*
G01*
X191500000Y-46342715D01*
X190848110Y-45642017D01*
X191559515Y-45000000D01*
X192211405Y-45700699D01*
G37*
X193009581Y-50150461D02*
X191793962Y-51945244D01*
X189971784Y-50747841D01*
X191187404Y-48953057D01*
X193009581Y-50150461D01*
G36*
X193009581Y-50150461D02*
G01*
X191793962Y-51945244D01*
X189971784Y-50747841D01*
X191187404Y-48953057D01*
X193009581Y-50150461D01*
G37*
D11*
X190395902Y-47180383D02*
X190076215Y-48741415D01*
X188491404Y-48426733D01*
X188811092Y-46865424D01*
X190395902Y-47180383D01*
G36*
X190395902Y-47180383D02*
G01*
X190076215Y-48741415D01*
X188491404Y-48426733D01*
X188811092Y-46865424D01*
X190395902Y-47180383D01*
G37*
D12*
X218000000Y-68000000D02*
X213393383Y-71139028D01*
X210301632Y-66462051D01*
X214908251Y-63322744D01*
X218000000Y-68000000D01*
D13*
X229569937Y-75152714D02*
X228168540Y-76456494D01*
X226884506Y-75033683D01*
X228285904Y-73729904D01*
X229569937Y-75152714D01*
D12*
X221663822Y-74408492D02*
X219269016Y-78052846D01*
X215679449Y-75621608D01*
X218074255Y-71977253D01*
X221663822Y-74408492D01*
X225839090Y-69655867D02*
X225209170Y-72825489D01*
X222087107Y-72186114D01*
X222716470Y-69016492D01*
X225839090Y-69655867D01*
D14*
X192000000Y-44000000D02*
X191000000Y-44000000D01*
X192000000Y-34000000D02*
X192000000Y-44000000D01*
X191205752Y-34151503D02*
X191872419Y-34294360D01*
X191872419Y-34294360D02*
X191205752Y-34437217D01*
X191824800Y-34922932D02*
X191872419Y-34865789D01*
X191872419Y-34865789D02*
X191872419Y-34751503D01*
X191872419Y-34751503D02*
X191824800Y-34694360D01*
X191824800Y-34694360D02*
X191777180Y-34665789D01*
X191777180Y-34665789D02*
X191681942Y-34637217D01*
X191681942Y-34637217D02*
X191396228Y-34637217D01*
X191396228Y-34637217D02*
X191300990Y-34665789D01*
X191300990Y-34665789D02*
X191253371Y-34694360D01*
X191253371Y-34694360D02*
X191205752Y-34751503D01*
X191205752Y-34751503D02*
X191205752Y-34865789D01*
X191205752Y-34865789D02*
X191253371Y-34922932D01*
X191872419Y-35180075D02*
X190872419Y-35180075D01*
X191491466Y-35237218D02*
X191872419Y-35408646D01*
X191205752Y-35408646D02*
X191586704Y-35180075D01*
X191872419Y-36122932D02*
X191205752Y-36122932D01*
X190872419Y-36122932D02*
X190920038Y-36094360D01*
X190920038Y-36094360D02*
X190967657Y-36122932D01*
X190967657Y-36122932D02*
X190920038Y-36151503D01*
X190920038Y-36151503D02*
X190872419Y-36122932D01*
X190872419Y-36122932D02*
X190967657Y-36122932D01*
X191205752Y-36408646D02*
X191872419Y-36408646D01*
X191300990Y-36408646D02*
X191253371Y-36437217D01*
X191253371Y-36437217D02*
X191205752Y-36494360D01*
X191205752Y-36494360D02*
X191205752Y-36580074D01*
X191205752Y-36580074D02*
X191253371Y-36637217D01*
X191253371Y-36637217D02*
X191348609Y-36665789D01*
X191348609Y-36665789D02*
X191872419Y-36665789D01*
X191872419Y-37208646D02*
X190872419Y-37208646D01*
X191824800Y-37208646D02*
X191872419Y-37151503D01*
X191872419Y-37151503D02*
X191872419Y-37037217D01*
X191872419Y-37037217D02*
X191824800Y-36980074D01*
X191824800Y-36980074D02*
X191777180Y-36951503D01*
X191777180Y-36951503D02*
X191681942Y-36922931D01*
X191681942Y-36922931D02*
X191396228Y-36922931D01*
X191396228Y-36922931D02*
X191300990Y-36951503D01*
X191300990Y-36951503D02*
X191253371Y-36980074D01*
X191253371Y-36980074D02*
X191205752Y-37037217D01*
X191205752Y-37037217D02*
X191205752Y-37151503D01*
X191205752Y-37151503D02*
X191253371Y-37208646D01*
X191205752Y-37751503D02*
X191872419Y-37751503D01*
X191205752Y-37494360D02*
X191729561Y-37494360D01*
X191729561Y-37494360D02*
X191824800Y-37522931D01*
X191824800Y-37522931D02*
X191872419Y-37580074D01*
X191872419Y-37580074D02*
X191872419Y-37665788D01*
X191872419Y-37665788D02*
X191824800Y-37722931D01*
X191824800Y-37722931D02*
X191777180Y-37751503D01*
X191824800Y-38008645D02*
X191872419Y-38065788D01*
X191872419Y-38065788D02*
X191872419Y-38180074D01*
X191872419Y-38180074D02*
X191824800Y-38237217D01*
X191824800Y-38237217D02*
X191729561Y-38265788D01*
X191729561Y-38265788D02*
X191681942Y-38265788D01*
X191681942Y-38265788D02*
X191586704Y-38237217D01*
X191586704Y-38237217D02*
X191539085Y-38180074D01*
X191539085Y-38180074D02*
X191539085Y-38094360D01*
X191539085Y-38094360D02*
X191491466Y-38037217D01*
X191491466Y-38037217D02*
X191396228Y-38008645D01*
X191396228Y-38008645D02*
X191348609Y-38008645D01*
X191348609Y-38008645D02*
X191253371Y-38037217D01*
X191253371Y-38037217D02*
X191205752Y-38094360D01*
X191205752Y-38094360D02*
X191205752Y-38180074D01*
X191205752Y-38180074D02*
X191253371Y-38237217D01*
X191205752Y-38437216D02*
X191205752Y-38665788D01*
X190872419Y-38522931D02*
X191729561Y-38522931D01*
X191729561Y-38522931D02*
X191824800Y-38551502D01*
X191824800Y-38551502D02*
X191872419Y-38608645D01*
X191872419Y-38608645D02*
X191872419Y-38665788D01*
X191872419Y-38865788D02*
X191205752Y-38865788D01*
X191396228Y-38865788D02*
X191300990Y-38894359D01*
X191300990Y-38894359D02*
X191253371Y-38922931D01*
X191253371Y-38922931D02*
X191205752Y-38980073D01*
X191205752Y-38980073D02*
X191205752Y-39037216D01*
X191872419Y-39237217D02*
X191205752Y-39237217D01*
X190872419Y-39237217D02*
X190920038Y-39208645D01*
X190920038Y-39208645D02*
X190967657Y-39237217D01*
X190967657Y-39237217D02*
X190920038Y-39265788D01*
X190920038Y-39265788D02*
X190872419Y-39237217D01*
X190872419Y-39237217D02*
X190967657Y-39237217D01*
X191824800Y-39751502D02*
X191872419Y-39694359D01*
X191872419Y-39694359D02*
X191872419Y-39580074D01*
X191872419Y-39580074D02*
X191824800Y-39522931D01*
X191824800Y-39522931D02*
X191729561Y-39494359D01*
X191729561Y-39494359D02*
X191348609Y-39494359D01*
X191348609Y-39494359D02*
X191253371Y-39522931D01*
X191253371Y-39522931D02*
X191205752Y-39580074D01*
X191205752Y-39580074D02*
X191205752Y-39694359D01*
X191205752Y-39694359D02*
X191253371Y-39751502D01*
X191253371Y-39751502D02*
X191348609Y-39780074D01*
X191348609Y-39780074D02*
X191443847Y-39780074D01*
X191443847Y-39780074D02*
X191539085Y-39494359D01*
X191824800Y-40008645D02*
X191872419Y-40065788D01*
X191872419Y-40065788D02*
X191872419Y-40180074D01*
X191872419Y-40180074D02*
X191824800Y-40237217D01*
X191824800Y-40237217D02*
X191729561Y-40265788D01*
X191729561Y-40265788D02*
X191681942Y-40265788D01*
X191681942Y-40265788D02*
X191586704Y-40237217D01*
X191586704Y-40237217D02*
X191539085Y-40180074D01*
X191539085Y-40180074D02*
X191539085Y-40094360D01*
X191539085Y-40094360D02*
X191491466Y-40037217D01*
X191491466Y-40037217D02*
X191396228Y-40008645D01*
X191396228Y-40008645D02*
X191348609Y-40008645D01*
X191348609Y-40008645D02*
X191253371Y-40037217D01*
X191253371Y-40037217D02*
X191205752Y-40094360D01*
X191205752Y-40094360D02*
X191205752Y-40180074D01*
X191205752Y-40180074D02*
X191253371Y-40237217D01*
X191872419Y-41065788D02*
X191824800Y-41008645D01*
X191824800Y-41008645D02*
X191729561Y-40980074D01*
X191729561Y-40980074D02*
X190872419Y-40980074D01*
X191872419Y-41294360D02*
X191205752Y-41294360D01*
X190872419Y-41294360D02*
X190920038Y-41265788D01*
X190920038Y-41265788D02*
X190967657Y-41294360D01*
X190967657Y-41294360D02*
X190920038Y-41322931D01*
X190920038Y-41322931D02*
X190872419Y-41294360D01*
X190872419Y-41294360D02*
X190967657Y-41294360D01*
X191872419Y-41580074D02*
X191205752Y-41580074D01*
X191300990Y-41580074D02*
X191253371Y-41608645D01*
X191253371Y-41608645D02*
X191205752Y-41665788D01*
X191205752Y-41665788D02*
X191205752Y-41751502D01*
X191205752Y-41751502D02*
X191253371Y-41808645D01*
X191253371Y-41808645D02*
X191348609Y-41837217D01*
X191348609Y-41837217D02*
X191872419Y-41837217D01*
X191348609Y-41837217D02*
X191253371Y-41865788D01*
X191253371Y-41865788D02*
X191205752Y-41922931D01*
X191205752Y-41922931D02*
X191205752Y-42008645D01*
X191205752Y-42008645D02*
X191253371Y-42065788D01*
X191253371Y-42065788D02*
X191348609Y-42094359D01*
X191348609Y-42094359D02*
X191872419Y-42094359D01*
X191872419Y-42380074D02*
X191205752Y-42380074D01*
X190872419Y-42380074D02*
X190920038Y-42351502D01*
X190920038Y-42351502D02*
X190967657Y-42380074D01*
X190967657Y-42380074D02*
X190920038Y-42408645D01*
X190920038Y-42408645D02*
X190872419Y-42380074D01*
X190872419Y-42380074D02*
X190967657Y-42380074D01*
X191205752Y-42580073D02*
X191205752Y-42808645D01*
X190872419Y-42665788D02*
X191729561Y-42665788D01*
X191729561Y-42665788D02*
X191824800Y-42694359D01*
X191824800Y-42694359D02*
X191872419Y-42751502D01*
X191872419Y-42751502D02*
X191872419Y-42808645D01*
X191824800Y-43237216D02*
X191872419Y-43180073D01*
X191872419Y-43180073D02*
X191872419Y-43065788D01*
X191872419Y-43065788D02*
X191824800Y-43008645D01*
X191824800Y-43008645D02*
X191729561Y-42980073D01*
X191729561Y-42980073D02*
X191348609Y-42980073D01*
X191348609Y-42980073D02*
X191253371Y-43008645D01*
X191253371Y-43008645D02*
X191205752Y-43065788D01*
X191205752Y-43065788D02*
X191205752Y-43180073D01*
X191205752Y-43180073D02*
X191253371Y-43237216D01*
X191253371Y-43237216D02*
X191348609Y-43265788D01*
X191348609Y-43265788D02*
X191443847Y-43265788D01*
X191443847Y-43265788D02*
X191539085Y-42980073D01*
X191872419Y-43780074D02*
X190872419Y-43780074D01*
X191824800Y-43780074D02*
X191872419Y-43722931D01*
X191872419Y-43722931D02*
X191872419Y-43608645D01*
X191872419Y-43608645D02*
X191824800Y-43551502D01*
X191824800Y-43551502D02*
X191777180Y-43522931D01*
X191777180Y-43522931D02*
X191681942Y-43494359D01*
X191681942Y-43494359D02*
X191396228Y-43494359D01*
X191396228Y-43494359D02*
X191300990Y-43522931D01*
X191300990Y-43522931D02*
X191253371Y-43551502D01*
X191253371Y-43551502D02*
X191205752Y-43608645D01*
X191205752Y-43608645D02*
X191205752Y-43722931D01*
X191205752Y-43722931D02*
X191253371Y-43780074D01*
D15*
X171637200Y-41166667D02*
X171684819Y-41309524D01*
X171684819Y-41309524D02*
X171684819Y-41547619D01*
X171684819Y-41547619D02*
X171637200Y-41642857D01*
X171637200Y-41642857D02*
X171589580Y-41690476D01*
X171589580Y-41690476D02*
X171494342Y-41738095D01*
X171494342Y-41738095D02*
X171399104Y-41738095D01*
X171399104Y-41738095D02*
X171303866Y-41690476D01*
X171303866Y-41690476D02*
X171256247Y-41642857D01*
X171256247Y-41642857D02*
X171208628Y-41547619D01*
X171208628Y-41547619D02*
X171161009Y-41357143D01*
X171161009Y-41357143D02*
X171113390Y-41261905D01*
X171113390Y-41261905D02*
X171065771Y-41214286D01*
X171065771Y-41214286D02*
X170970533Y-41166667D01*
X170970533Y-41166667D02*
X170875295Y-41166667D01*
X170875295Y-41166667D02*
X170780057Y-41214286D01*
X170780057Y-41214286D02*
X170732438Y-41261905D01*
X170732438Y-41261905D02*
X170684819Y-41357143D01*
X170684819Y-41357143D02*
X170684819Y-41595238D01*
X170684819Y-41595238D02*
X170732438Y-41738095D01*
X170684819Y-42071429D02*
X171684819Y-42309524D01*
X171684819Y-42309524D02*
X170970533Y-42500000D01*
X170970533Y-42500000D02*
X171684819Y-42690476D01*
X171684819Y-42690476D02*
X170684819Y-42928572D01*
X170780057Y-43261905D02*
X170732438Y-43309524D01*
X170732438Y-43309524D02*
X170684819Y-43404762D01*
X170684819Y-43404762D02*
X170684819Y-43642857D01*
X170684819Y-43642857D02*
X170732438Y-43738095D01*
X170732438Y-43738095D02*
X170780057Y-43785714D01*
X170780057Y-43785714D02*
X170875295Y-43833333D01*
X170875295Y-43833333D02*
X170970533Y-43833333D01*
X170970533Y-43833333D02*
X171113390Y-43785714D01*
X171113390Y-43785714D02*
X171684819Y-43214286D01*
X171684819Y-43214286D02*
X171684819Y-43833333D01*
X171637200Y-36566667D02*
X171684819Y-36709524D01*
X171684819Y-36709524D02*
X171684819Y-36947619D01*
X171684819Y-36947619D02*
X171637200Y-37042857D01*
X171637200Y-37042857D02*
X171589580Y-37090476D01*
X171589580Y-37090476D02*
X171494342Y-37138095D01*
X171494342Y-37138095D02*
X171399104Y-37138095D01*
X171399104Y-37138095D02*
X171303866Y-37090476D01*
X171303866Y-37090476D02*
X171256247Y-37042857D01*
X171256247Y-37042857D02*
X171208628Y-36947619D01*
X171208628Y-36947619D02*
X171161009Y-36757143D01*
X171161009Y-36757143D02*
X171113390Y-36661905D01*
X171113390Y-36661905D02*
X171065771Y-36614286D01*
X171065771Y-36614286D02*
X170970533Y-36566667D01*
X170970533Y-36566667D02*
X170875295Y-36566667D01*
X170875295Y-36566667D02*
X170780057Y-36614286D01*
X170780057Y-36614286D02*
X170732438Y-36661905D01*
X170732438Y-36661905D02*
X170684819Y-36757143D01*
X170684819Y-36757143D02*
X170684819Y-36995238D01*
X170684819Y-36995238D02*
X170732438Y-37138095D01*
X170684819Y-37471429D02*
X171684819Y-37709524D01*
X171684819Y-37709524D02*
X170970533Y-37900000D01*
X170970533Y-37900000D02*
X171684819Y-38090476D01*
X171684819Y-38090476D02*
X170684819Y-38328572D01*
X171684819Y-39233333D02*
X171684819Y-38661905D01*
X171684819Y-38947619D02*
X170684819Y-38947619D01*
X170684819Y-38947619D02*
X170827676Y-38852381D01*
X170827676Y-38852381D02*
X170922914Y-38757143D01*
X170922914Y-38757143D02*
X170970533Y-38661905D01*
X171637200Y-50166667D02*
X171684819Y-50309524D01*
X171684819Y-50309524D02*
X171684819Y-50547619D01*
X171684819Y-50547619D02*
X171637200Y-50642857D01*
X171637200Y-50642857D02*
X171589580Y-50690476D01*
X171589580Y-50690476D02*
X171494342Y-50738095D01*
X171494342Y-50738095D02*
X171399104Y-50738095D01*
X171399104Y-50738095D02*
X171303866Y-50690476D01*
X171303866Y-50690476D02*
X171256247Y-50642857D01*
X171256247Y-50642857D02*
X171208628Y-50547619D01*
X171208628Y-50547619D02*
X171161009Y-50357143D01*
X171161009Y-50357143D02*
X171113390Y-50261905D01*
X171113390Y-50261905D02*
X171065771Y-50214286D01*
X171065771Y-50214286D02*
X170970533Y-50166667D01*
X170970533Y-50166667D02*
X170875295Y-50166667D01*
X170875295Y-50166667D02*
X170780057Y-50214286D01*
X170780057Y-50214286D02*
X170732438Y-50261905D01*
X170732438Y-50261905D02*
X170684819Y-50357143D01*
X170684819Y-50357143D02*
X170684819Y-50595238D01*
X170684819Y-50595238D02*
X170732438Y-50738095D01*
X170684819Y-51071429D02*
X171684819Y-51309524D01*
X171684819Y-51309524D02*
X170970533Y-51500000D01*
X170970533Y-51500000D02*
X171684819Y-51690476D01*
X171684819Y-51690476D02*
X170684819Y-51928572D01*
X171018152Y-52738095D02*
X171684819Y-52738095D01*
X170637200Y-52500000D02*
X171351485Y-52261905D01*
X171351485Y-52261905D02*
X171351485Y-52880952D01*
X171637200Y-45766667D02*
X171684819Y-45909524D01*
X171684819Y-45909524D02*
X171684819Y-46147619D01*
X171684819Y-46147619D02*
X171637200Y-46242857D01*
X171637200Y-46242857D02*
X171589580Y-46290476D01*
X171589580Y-46290476D02*
X171494342Y-46338095D01*
X171494342Y-46338095D02*
X171399104Y-46338095D01*
X171399104Y-46338095D02*
X171303866Y-46290476D01*
X171303866Y-46290476D02*
X171256247Y-46242857D01*
X171256247Y-46242857D02*
X171208628Y-46147619D01*
X171208628Y-46147619D02*
X171161009Y-45957143D01*
X171161009Y-45957143D02*
X171113390Y-45861905D01*
X171113390Y-45861905D02*
X171065771Y-45814286D01*
X171065771Y-45814286D02*
X170970533Y-45766667D01*
X170970533Y-45766667D02*
X170875295Y-45766667D01*
X170875295Y-45766667D02*
X170780057Y-45814286D01*
X170780057Y-45814286D02*
X170732438Y-45861905D01*
X170732438Y-45861905D02*
X170684819Y-45957143D01*
X170684819Y-45957143D02*
X170684819Y-46195238D01*
X170684819Y-46195238D02*
X170732438Y-46338095D01*
X170684819Y-46671429D02*
X171684819Y-46909524D01*
X171684819Y-46909524D02*
X170970533Y-47100000D01*
X170970533Y-47100000D02*
X171684819Y-47290476D01*
X171684819Y-47290476D02*
X170684819Y-47528572D01*
X170684819Y-47814286D02*
X170684819Y-48433333D01*
X170684819Y-48433333D02*
X171065771Y-48100000D01*
X171065771Y-48100000D02*
X171065771Y-48242857D01*
X171065771Y-48242857D02*
X171113390Y-48338095D01*
X171113390Y-48338095D02*
X171161009Y-48385714D01*
X171161009Y-48385714D02*
X171256247Y-48433333D01*
X171256247Y-48433333D02*
X171494342Y-48433333D01*
X171494342Y-48433333D02*
X171589580Y-48385714D01*
X171589580Y-48385714D02*
X171637200Y-48338095D01*
X171637200Y-48338095D02*
X171684819Y-48242857D01*
X171684819Y-48242857D02*
X171684819Y-47957143D01*
X171684819Y-47957143D02*
X171637200Y-47861905D01*
X171637200Y-47861905D02*
X171589580Y-47814286D01*
D16*
%TO.C,SW2*%
X174000000Y-43830000D02*
X172670000Y-43830000D01*
X172670000Y-43830000D02*
X172670000Y-42500000D01*
X180410000Y-43830000D02*
X175270000Y-43830000D01*
X175270000Y-43830000D02*
X175270000Y-41170000D01*
X180410000Y-41170000D02*
X175270000Y-41170000D01*
X180410000Y-43830000D02*
X180410000Y-41170000D01*
%TO.C,SW1*%
X174000000Y-39230000D02*
X172670000Y-39230000D01*
X172670000Y-39230000D02*
X172670000Y-37900000D01*
X180410000Y-39230000D02*
X175270000Y-39230000D01*
X175270000Y-39230000D02*
X175270000Y-36570000D01*
X180410000Y-36570000D02*
X175270000Y-36570000D01*
X180410000Y-39230000D02*
X180410000Y-36570000D01*
%TO.C,SW4*%
X174000000Y-52830000D02*
X172670000Y-52830000D01*
X172670000Y-52830000D02*
X172670000Y-51500000D01*
X180410000Y-52830000D02*
X175270000Y-52830000D01*
X175270000Y-52830000D02*
X175270000Y-50170000D01*
X180410000Y-50170000D02*
X175270000Y-50170000D01*
X180410000Y-52830000D02*
X180410000Y-50170000D01*
%TO.C,SW3*%
X174000000Y-48430000D02*
X172670000Y-48430000D01*
X172670000Y-48430000D02*
X172670000Y-47100000D01*
X180410000Y-48430000D02*
X175270000Y-48430000D01*
X175270000Y-48430000D02*
X175270000Y-45770000D01*
X180410000Y-45770000D02*
X175270000Y-45770000D01*
X180410000Y-48430000D02*
X180410000Y-45770000D01*
%TD*%
M02*
