%TF.GenerationSoftware,KiCad,Pcbnew,8.0.7*%
%TF.CreationDate,2025-04-18T20:19:49+02:00*%
%TF.ProjectId,midi_pedals,6d696469-5f70-4656-9461-6c732e6b6963,rev?*%
%TF.SameCoordinates,Original*%
%TF.FileFunction,Soldermask,Top*%
%TF.FilePolarity,Negative*%
%FSLAX46Y46*%
G04 Gerber Fmt 4.6, Leading zero omitted, Abs format (unit mm)*
G04 Created by KiCad (PCBNEW 8.0.7) date 2025-04-18 20:19:49*
%MOMM*%
%LPD*%
G01*
G04 APERTURE LIST*
%ADD10O,1.300000X2.100000*%
%ADD11C,3.200000*%
%ADD12R,1.700000X1.700000*%
%ADD13O,1.700000X1.700000*%
%ADD14O,1.800000X1.800000*%
%ADD15O,1.500000X1.500000*%
%ADD16R,1.700000X3.500000*%
%ADD17R,3.500000X1.700000*%
G04 APERTURE END LIST*
D10*
%TO.C,JACK4*%
X173500000Y-78500000D03*
X189500000Y-78500000D03*
X173500000Y-72000000D03*
X189500000Y-72000000D03*
X173500000Y-65500000D03*
X189500000Y-65500000D03*
%TD*%
%TO.C,JACK3*%
X151450000Y-78500000D03*
X167450000Y-78500000D03*
X151450000Y-72000000D03*
X167450000Y-72000000D03*
X151450000Y-65500000D03*
X167450000Y-65500000D03*
%TD*%
%TO.C,JACK2*%
X129400000Y-78500000D03*
X145400000Y-78500000D03*
X129400000Y-72000000D03*
X145400000Y-72000000D03*
X129400000Y-65500000D03*
X145400000Y-65500000D03*
%TD*%
%TO.C,JACK1*%
X107350000Y-78500000D03*
X123350000Y-78500000D03*
X107350000Y-72000000D03*
X123350000Y-72000000D03*
X107350000Y-65500000D03*
X123350000Y-65500000D03*
%TD*%
D11*
%TO.C,H4*%
X115500000Y-79000000D03*
%TD*%
%TO.C,H3*%
X181500000Y-28500000D03*
%TD*%
%TO.C,H2*%
X115500000Y-28500000D03*
%TD*%
%TO.C,H1*%
X181500000Y-79000000D03*
%TD*%
D12*
%TO.C,SW2*%
X174000000Y-42500000D03*
D13*
X176540000Y-42500000D03*
X179080000Y-42500000D03*
%TD*%
D12*
%TO.C,SW1*%
X174000000Y-37900000D03*
D13*
X176540000Y-37900000D03*
X179080000Y-37900000D03*
%TD*%
D14*
%TO.C,U1*%
X104970000Y-47725000D03*
D15*
X108000000Y-47425000D03*
X108000000Y-42575000D03*
D14*
X104970000Y-42275000D03*
D13*
X104840000Y-53890000D03*
D16*
X104840000Y-54790000D03*
D13*
X107380000Y-53890000D03*
D16*
X107380000Y-54790000D03*
D12*
X109920000Y-53890000D03*
D16*
X109920000Y-54790000D03*
D13*
X112460000Y-53890000D03*
D16*
X112460000Y-54790000D03*
D13*
X115000000Y-53890000D03*
D16*
X115000000Y-54790000D03*
D13*
X117540000Y-53890000D03*
D16*
X117540000Y-54790000D03*
D13*
X120080000Y-53890000D03*
D16*
X120080000Y-54790000D03*
D12*
X122620000Y-53890000D03*
D16*
X122620000Y-54790000D03*
D13*
X125160000Y-53890000D03*
D16*
X125160000Y-54790000D03*
D13*
X127700000Y-53890000D03*
D16*
X127700000Y-54790000D03*
D13*
X130240000Y-53890000D03*
D16*
X130240000Y-54790000D03*
D13*
X132780000Y-53890000D03*
D16*
X132780000Y-54790000D03*
D12*
X135320000Y-53890000D03*
D16*
X135320000Y-54790000D03*
D13*
X137860000Y-53890000D03*
D16*
X137860000Y-54790000D03*
D13*
X140400000Y-53890000D03*
D16*
X140400000Y-54790000D03*
D13*
X142940000Y-53890000D03*
D16*
X142940000Y-54790000D03*
D13*
X145480000Y-53890000D03*
D16*
X145480000Y-54790000D03*
D12*
X148020000Y-53890000D03*
D16*
X148020000Y-54790000D03*
D13*
X150560000Y-53890000D03*
D16*
X150560000Y-54790000D03*
D13*
X153100000Y-53890000D03*
D16*
X153100000Y-54790000D03*
D13*
X153100000Y-36110000D03*
D16*
X153100000Y-35210000D03*
D13*
X150560000Y-36110000D03*
D16*
X150560000Y-35210000D03*
D12*
X148020000Y-36110000D03*
D16*
X148020000Y-35210000D03*
D13*
X145480000Y-36110000D03*
D16*
X145480000Y-35210000D03*
D13*
X142940000Y-36110000D03*
D16*
X142940000Y-35210000D03*
D13*
X140400000Y-36110000D03*
D16*
X140400000Y-35210000D03*
D13*
X137860000Y-36110000D03*
D16*
X137860000Y-35210000D03*
D12*
X135320000Y-36110000D03*
D16*
X135320000Y-35210000D03*
D13*
X132780000Y-36110000D03*
D16*
X132780000Y-35210000D03*
D13*
X130240000Y-36110000D03*
D16*
X130240000Y-35210000D03*
D13*
X127700000Y-36110000D03*
D16*
X127700000Y-35210000D03*
D13*
X125160000Y-36110000D03*
D16*
X125160000Y-35210000D03*
D12*
X122620000Y-36110000D03*
D16*
X122620000Y-35210000D03*
D13*
X120080000Y-36110000D03*
D16*
X120080000Y-35210000D03*
D13*
X117540000Y-36110000D03*
D16*
X117540000Y-35210000D03*
D13*
X115000000Y-36110000D03*
D16*
X115000000Y-35210000D03*
D13*
X112460000Y-36110000D03*
D16*
X112460000Y-35210000D03*
D12*
X109920000Y-36110000D03*
D16*
X109920000Y-35210000D03*
D13*
X107380000Y-36110000D03*
D16*
X107380000Y-35210000D03*
D13*
X104840000Y-36110000D03*
D16*
X104840000Y-35210000D03*
D13*
X152870000Y-47540000D03*
D17*
X153770000Y-47540000D03*
D12*
X152870000Y-45000000D03*
D17*
X153770000Y-45000000D03*
D13*
X152870000Y-42460000D03*
D17*
X153770000Y-42460000D03*
%TD*%
D12*
%TO.C,SW4*%
X174000000Y-51500000D03*
D13*
X176540000Y-51500000D03*
X179080000Y-51500000D03*
%TD*%
D12*
%TO.C,J1*%
X167000000Y-26025000D03*
D13*
X164460000Y-26025000D03*
X161920000Y-26025000D03*
%TD*%
D12*
%TO.C,SW3*%
X174000000Y-47100000D03*
D13*
X176540000Y-47100000D03*
X179080000Y-47100000D03*
%TD*%
M02*
