%TF.GenerationSoftware,KiCad,Pcbnew,8.0.7*%
%TF.CreationDate,2025-04-18T20:19:49+02:00*%
%TF.ProjectId,midi_pedals,6d696469-5f70-4656-9461-6c732e6b6963,rev?*%
%TF.SameCoordinates,Original*%
%TF.FileFunction,Legend,Top*%
%TF.FilePolarity,Positive*%
%FSLAX46Y46*%
G04 Gerber Fmt 4.6, Leading zero omitted, Abs format (unit mm)*
G04 Created by KiCad (PCBNEW 8.0.7) date 2025-04-18 20:19:49*
%MOMM*%
%LPD*%
G01*
G04 APERTURE LIST*
%ADD10C,0.000000*%
%ADD11C,0.200000*%
%ADD12C,0.100000*%
%ADD13C,0.150000*%
%ADD14C,0.120000*%
G04 APERTURE END LIST*
D10*
G36*
X191466972Y-34934739D02*
G01*
X177554092Y-55981137D01*
X156824316Y-41855508D01*
X170737187Y-20807858D01*
X191466972Y-34934739D01*
G37*
G36*
X116844039Y-73507085D02*
G01*
X111065889Y-79909733D01*
X104759601Y-74042724D01*
X110537752Y-67640077D01*
X116844039Y-73507085D01*
G37*
G36*
X167266795Y-76152747D02*
G01*
X151113747Y-87093319D01*
X140337116Y-70693722D01*
X156490169Y-59753146D01*
X167266795Y-76152747D01*
G37*
G36*
X138432336Y-60693022D02*
G01*
X124383052Y-63570209D01*
X121548414Y-49306912D01*
X135600202Y-46429726D01*
X138432336Y-60693022D01*
G37*
D11*
X120107768Y-25411504D02*
X120107768Y-27411504D01*
X121060149Y-26459123D02*
X121155387Y-26649600D01*
X121155387Y-26649600D02*
X121345863Y-26744838D01*
X120107768Y-26459123D02*
X120203006Y-26649600D01*
X120203006Y-26649600D02*
X120393482Y-26744838D01*
X120393482Y-26744838D02*
X120774435Y-26744838D01*
X120774435Y-26744838D02*
X120964911Y-26649600D01*
X120964911Y-26649600D02*
X121060149Y-26459123D01*
X121060149Y-26459123D02*
X121060149Y-25411504D01*
X122203006Y-26744838D02*
X122203006Y-25411504D01*
X122203006Y-24744838D02*
X122107768Y-24840076D01*
X122107768Y-24840076D02*
X122203006Y-24935314D01*
X122203006Y-24935314D02*
X122298244Y-24840076D01*
X122298244Y-24840076D02*
X122203006Y-24744838D01*
X122203006Y-24744838D02*
X122203006Y-24935314D01*
X124012530Y-26744838D02*
X124012530Y-24744838D01*
X124012530Y-26649600D02*
X123822054Y-26744838D01*
X123822054Y-26744838D02*
X123441101Y-26744838D01*
X123441101Y-26744838D02*
X123250625Y-26649600D01*
X123250625Y-26649600D02*
X123155387Y-26554361D01*
X123155387Y-26554361D02*
X123060149Y-26363885D01*
X123060149Y-26363885D02*
X123060149Y-25792457D01*
X123060149Y-25792457D02*
X123155387Y-25601980D01*
X123155387Y-25601980D02*
X123250625Y-25506742D01*
X123250625Y-25506742D02*
X123441101Y-25411504D01*
X123441101Y-25411504D02*
X123822054Y-25411504D01*
X123822054Y-25411504D02*
X124012530Y-25506742D01*
X124964911Y-26744838D02*
X124964911Y-25411504D01*
X124964911Y-24744838D02*
X124869673Y-24840076D01*
X124869673Y-24840076D02*
X124964911Y-24935314D01*
X124964911Y-24935314D02*
X125060149Y-24840076D01*
X125060149Y-24840076D02*
X124964911Y-24744838D01*
X124964911Y-24744838D02*
X124964911Y-24935314D01*
X127441102Y-25411504D02*
X127441102Y-27411504D01*
X127441102Y-25506742D02*
X127631578Y-25411504D01*
X127631578Y-25411504D02*
X128012531Y-25411504D01*
X128012531Y-25411504D02*
X128203007Y-25506742D01*
X128203007Y-25506742D02*
X128298245Y-25601980D01*
X128298245Y-25601980D02*
X128393483Y-25792457D01*
X128393483Y-25792457D02*
X128393483Y-26363885D01*
X128393483Y-26363885D02*
X128298245Y-26554361D01*
X128298245Y-26554361D02*
X128203007Y-26649600D01*
X128203007Y-26649600D02*
X128012531Y-26744838D01*
X128012531Y-26744838D02*
X127631578Y-26744838D01*
X127631578Y-26744838D02*
X127441102Y-26649600D01*
X130012531Y-26649600D02*
X129822055Y-26744838D01*
X129822055Y-26744838D02*
X129441102Y-26744838D01*
X129441102Y-26744838D02*
X129250626Y-26649600D01*
X129250626Y-26649600D02*
X129155388Y-26459123D01*
X129155388Y-26459123D02*
X129155388Y-25697219D01*
X129155388Y-25697219D02*
X129250626Y-25506742D01*
X129250626Y-25506742D02*
X129441102Y-25411504D01*
X129441102Y-25411504D02*
X129822055Y-25411504D01*
X129822055Y-25411504D02*
X130012531Y-25506742D01*
X130012531Y-25506742D02*
X130107769Y-25697219D01*
X130107769Y-25697219D02*
X130107769Y-25887695D01*
X130107769Y-25887695D02*
X129155388Y-26078171D01*
X131822055Y-26744838D02*
X131822055Y-24744838D01*
X131822055Y-26649600D02*
X131631579Y-26744838D01*
X131631579Y-26744838D02*
X131250626Y-26744838D01*
X131250626Y-26744838D02*
X131060150Y-26649600D01*
X131060150Y-26649600D02*
X130964912Y-26554361D01*
X130964912Y-26554361D02*
X130869674Y-26363885D01*
X130869674Y-26363885D02*
X130869674Y-25792457D01*
X130869674Y-25792457D02*
X130964912Y-25601980D01*
X130964912Y-25601980D02*
X131060150Y-25506742D01*
X131060150Y-25506742D02*
X131250626Y-25411504D01*
X131250626Y-25411504D02*
X131631579Y-25411504D01*
X131631579Y-25411504D02*
X131822055Y-25506742D01*
X133631579Y-26744838D02*
X133631579Y-25697219D01*
X133631579Y-25697219D02*
X133536341Y-25506742D01*
X133536341Y-25506742D02*
X133345865Y-25411504D01*
X133345865Y-25411504D02*
X132964912Y-25411504D01*
X132964912Y-25411504D02*
X132774436Y-25506742D01*
X133631579Y-26649600D02*
X133441103Y-26744838D01*
X133441103Y-26744838D02*
X132964912Y-26744838D01*
X132964912Y-26744838D02*
X132774436Y-26649600D01*
X132774436Y-26649600D02*
X132679198Y-26459123D01*
X132679198Y-26459123D02*
X132679198Y-26268647D01*
X132679198Y-26268647D02*
X132774436Y-26078171D01*
X132774436Y-26078171D02*
X132964912Y-25982933D01*
X132964912Y-25982933D02*
X133441103Y-25982933D01*
X133441103Y-25982933D02*
X133631579Y-25887695D01*
X134869674Y-26744838D02*
X134679198Y-26649600D01*
X134679198Y-26649600D02*
X134583960Y-26459123D01*
X134583960Y-26459123D02*
X134583960Y-24744838D01*
X135536341Y-26649600D02*
X135726817Y-26744838D01*
X135726817Y-26744838D02*
X136107769Y-26744838D01*
X136107769Y-26744838D02*
X136298246Y-26649600D01*
X136298246Y-26649600D02*
X136393484Y-26459123D01*
X136393484Y-26459123D02*
X136393484Y-26363885D01*
X136393484Y-26363885D02*
X136298246Y-26173409D01*
X136298246Y-26173409D02*
X136107769Y-26078171D01*
X136107769Y-26078171D02*
X135822055Y-26078171D01*
X135822055Y-26078171D02*
X135631579Y-25982933D01*
X135631579Y-25982933D02*
X135536341Y-25792457D01*
X135536341Y-25792457D02*
X135536341Y-25697219D01*
X135536341Y-25697219D02*
X135631579Y-25506742D01*
X135631579Y-25506742D02*
X135822055Y-25411504D01*
X135822055Y-25411504D02*
X136107769Y-25411504D01*
X136107769Y-25411504D02*
X136298246Y-25506742D01*
X138583961Y-25411504D02*
X139060151Y-26744838D01*
X139060151Y-26744838D02*
X139536342Y-25411504D01*
X140679199Y-24744838D02*
X140869676Y-24744838D01*
X140869676Y-24744838D02*
X141060152Y-24840076D01*
X141060152Y-24840076D02*
X141155390Y-24935314D01*
X141155390Y-24935314D02*
X141250628Y-25125790D01*
X141250628Y-25125790D02*
X141345866Y-25506742D01*
X141345866Y-25506742D02*
X141345866Y-25982933D01*
X141345866Y-25982933D02*
X141250628Y-26363885D01*
X141250628Y-26363885D02*
X141155390Y-26554361D01*
X141155390Y-26554361D02*
X141060152Y-26649600D01*
X141060152Y-26649600D02*
X140869676Y-26744838D01*
X140869676Y-26744838D02*
X140679199Y-26744838D01*
X140679199Y-26744838D02*
X140488723Y-26649600D01*
X140488723Y-26649600D02*
X140393485Y-26554361D01*
X140393485Y-26554361D02*
X140298247Y-26363885D01*
X140298247Y-26363885D02*
X140203009Y-25982933D01*
X140203009Y-25982933D02*
X140203009Y-25506742D01*
X140203009Y-25506742D02*
X140298247Y-25125790D01*
X140298247Y-25125790D02*
X140393485Y-24935314D01*
X140393485Y-24935314D02*
X140488723Y-24840076D01*
X140488723Y-24840076D02*
X140679199Y-24744838D01*
X142203009Y-26554361D02*
X142298247Y-26649600D01*
X142298247Y-26649600D02*
X142203009Y-26744838D01*
X142203009Y-26744838D02*
X142107771Y-26649600D01*
X142107771Y-26649600D02*
X142203009Y-26554361D01*
X142203009Y-26554361D02*
X142203009Y-26744838D01*
X144203009Y-26744838D02*
X143060152Y-26744838D01*
X143631580Y-26744838D02*
X143631580Y-24744838D01*
X143631580Y-24744838D02*
X143441104Y-25030552D01*
X143441104Y-25030552D02*
X143250628Y-25221028D01*
X143250628Y-25221028D02*
X143060152Y-25316266D01*
D12*
X179738095Y-67457419D02*
X179738095Y-68171704D01*
X179738095Y-68171704D02*
X179690476Y-68314561D01*
X179690476Y-68314561D02*
X179595238Y-68409800D01*
X179595238Y-68409800D02*
X179452381Y-68457419D01*
X179452381Y-68457419D02*
X179357143Y-68457419D01*
X180166667Y-68171704D02*
X180642857Y-68171704D01*
X180071429Y-68457419D02*
X180404762Y-67457419D01*
X180404762Y-67457419D02*
X180738095Y-68457419D01*
X181642857Y-68362180D02*
X181595238Y-68409800D01*
X181595238Y-68409800D02*
X181452381Y-68457419D01*
X181452381Y-68457419D02*
X181357143Y-68457419D01*
X181357143Y-68457419D02*
X181214286Y-68409800D01*
X181214286Y-68409800D02*
X181119048Y-68314561D01*
X181119048Y-68314561D02*
X181071429Y-68219323D01*
X181071429Y-68219323D02*
X181023810Y-68028847D01*
X181023810Y-68028847D02*
X181023810Y-67885990D01*
X181023810Y-67885990D02*
X181071429Y-67695514D01*
X181071429Y-67695514D02*
X181119048Y-67600276D01*
X181119048Y-67600276D02*
X181214286Y-67505038D01*
X181214286Y-67505038D02*
X181357143Y-67457419D01*
X181357143Y-67457419D02*
X181452381Y-67457419D01*
X181452381Y-67457419D02*
X181595238Y-67505038D01*
X181595238Y-67505038D02*
X181642857Y-67552657D01*
X182071429Y-68457419D02*
X182071429Y-67457419D01*
X182642857Y-68457419D02*
X182214286Y-67885990D01*
X182642857Y-67457419D02*
X182071429Y-68028847D01*
X183500000Y-67790752D02*
X183500000Y-68457419D01*
X183261905Y-67409800D02*
X183023810Y-68124085D01*
X183023810Y-68124085D02*
X183642857Y-68124085D01*
X157688095Y-67457419D02*
X157688095Y-68171704D01*
X157688095Y-68171704D02*
X157640476Y-68314561D01*
X157640476Y-68314561D02*
X157545238Y-68409800D01*
X157545238Y-68409800D02*
X157402381Y-68457419D01*
X157402381Y-68457419D02*
X157307143Y-68457419D01*
X158116667Y-68171704D02*
X158592857Y-68171704D01*
X158021429Y-68457419D02*
X158354762Y-67457419D01*
X158354762Y-67457419D02*
X158688095Y-68457419D01*
X159592857Y-68362180D02*
X159545238Y-68409800D01*
X159545238Y-68409800D02*
X159402381Y-68457419D01*
X159402381Y-68457419D02*
X159307143Y-68457419D01*
X159307143Y-68457419D02*
X159164286Y-68409800D01*
X159164286Y-68409800D02*
X159069048Y-68314561D01*
X159069048Y-68314561D02*
X159021429Y-68219323D01*
X159021429Y-68219323D02*
X158973810Y-68028847D01*
X158973810Y-68028847D02*
X158973810Y-67885990D01*
X158973810Y-67885990D02*
X159021429Y-67695514D01*
X159021429Y-67695514D02*
X159069048Y-67600276D01*
X159069048Y-67600276D02*
X159164286Y-67505038D01*
X159164286Y-67505038D02*
X159307143Y-67457419D01*
X159307143Y-67457419D02*
X159402381Y-67457419D01*
X159402381Y-67457419D02*
X159545238Y-67505038D01*
X159545238Y-67505038D02*
X159592857Y-67552657D01*
X160021429Y-68457419D02*
X160021429Y-67457419D01*
X160592857Y-68457419D02*
X160164286Y-67885990D01*
X160592857Y-67457419D02*
X160021429Y-68028847D01*
X160926191Y-67457419D02*
X161545238Y-67457419D01*
X161545238Y-67457419D02*
X161211905Y-67838371D01*
X161211905Y-67838371D02*
X161354762Y-67838371D01*
X161354762Y-67838371D02*
X161450000Y-67885990D01*
X161450000Y-67885990D02*
X161497619Y-67933609D01*
X161497619Y-67933609D02*
X161545238Y-68028847D01*
X161545238Y-68028847D02*
X161545238Y-68266942D01*
X161545238Y-68266942D02*
X161497619Y-68362180D01*
X161497619Y-68362180D02*
X161450000Y-68409800D01*
X161450000Y-68409800D02*
X161354762Y-68457419D01*
X161354762Y-68457419D02*
X161069048Y-68457419D01*
X161069048Y-68457419D02*
X160973810Y-68409800D01*
X160973810Y-68409800D02*
X160926191Y-68362180D01*
X135638095Y-67457419D02*
X135638095Y-68171704D01*
X135638095Y-68171704D02*
X135590476Y-68314561D01*
X135590476Y-68314561D02*
X135495238Y-68409800D01*
X135495238Y-68409800D02*
X135352381Y-68457419D01*
X135352381Y-68457419D02*
X135257143Y-68457419D01*
X136066667Y-68171704D02*
X136542857Y-68171704D01*
X135971429Y-68457419D02*
X136304762Y-67457419D01*
X136304762Y-67457419D02*
X136638095Y-68457419D01*
X137542857Y-68362180D02*
X137495238Y-68409800D01*
X137495238Y-68409800D02*
X137352381Y-68457419D01*
X137352381Y-68457419D02*
X137257143Y-68457419D01*
X137257143Y-68457419D02*
X137114286Y-68409800D01*
X137114286Y-68409800D02*
X137019048Y-68314561D01*
X137019048Y-68314561D02*
X136971429Y-68219323D01*
X136971429Y-68219323D02*
X136923810Y-68028847D01*
X136923810Y-68028847D02*
X136923810Y-67885990D01*
X136923810Y-67885990D02*
X136971429Y-67695514D01*
X136971429Y-67695514D02*
X137019048Y-67600276D01*
X137019048Y-67600276D02*
X137114286Y-67505038D01*
X137114286Y-67505038D02*
X137257143Y-67457419D01*
X137257143Y-67457419D02*
X137352381Y-67457419D01*
X137352381Y-67457419D02*
X137495238Y-67505038D01*
X137495238Y-67505038D02*
X137542857Y-67552657D01*
X137971429Y-68457419D02*
X137971429Y-67457419D01*
X138542857Y-68457419D02*
X138114286Y-67885990D01*
X138542857Y-67457419D02*
X137971429Y-68028847D01*
X138923810Y-67552657D02*
X138971429Y-67505038D01*
X138971429Y-67505038D02*
X139066667Y-67457419D01*
X139066667Y-67457419D02*
X139304762Y-67457419D01*
X139304762Y-67457419D02*
X139400000Y-67505038D01*
X139400000Y-67505038D02*
X139447619Y-67552657D01*
X139447619Y-67552657D02*
X139495238Y-67647895D01*
X139495238Y-67647895D02*
X139495238Y-67743133D01*
X139495238Y-67743133D02*
X139447619Y-67885990D01*
X139447619Y-67885990D02*
X138876191Y-68457419D01*
X138876191Y-68457419D02*
X139495238Y-68457419D01*
X113588095Y-67457419D02*
X113588095Y-68171704D01*
X113588095Y-68171704D02*
X113540476Y-68314561D01*
X113540476Y-68314561D02*
X113445238Y-68409800D01*
X113445238Y-68409800D02*
X113302381Y-68457419D01*
X113302381Y-68457419D02*
X113207143Y-68457419D01*
X114016667Y-68171704D02*
X114492857Y-68171704D01*
X113921429Y-68457419D02*
X114254762Y-67457419D01*
X114254762Y-67457419D02*
X114588095Y-68457419D01*
X115492857Y-68362180D02*
X115445238Y-68409800D01*
X115445238Y-68409800D02*
X115302381Y-68457419D01*
X115302381Y-68457419D02*
X115207143Y-68457419D01*
X115207143Y-68457419D02*
X115064286Y-68409800D01*
X115064286Y-68409800D02*
X114969048Y-68314561D01*
X114969048Y-68314561D02*
X114921429Y-68219323D01*
X114921429Y-68219323D02*
X114873810Y-68028847D01*
X114873810Y-68028847D02*
X114873810Y-67885990D01*
X114873810Y-67885990D02*
X114921429Y-67695514D01*
X114921429Y-67695514D02*
X114969048Y-67600276D01*
X114969048Y-67600276D02*
X115064286Y-67505038D01*
X115064286Y-67505038D02*
X115207143Y-67457419D01*
X115207143Y-67457419D02*
X115302381Y-67457419D01*
X115302381Y-67457419D02*
X115445238Y-67505038D01*
X115445238Y-67505038D02*
X115492857Y-67552657D01*
X115921429Y-68457419D02*
X115921429Y-67457419D01*
X116492857Y-68457419D02*
X116064286Y-67885990D01*
X116492857Y-67457419D02*
X115921429Y-68028847D01*
X117445238Y-68457419D02*
X116873810Y-68457419D01*
X117159524Y-68457419D02*
X117159524Y-67457419D01*
X117159524Y-67457419D02*
X117064286Y-67600276D01*
X117064286Y-67600276D02*
X116969048Y-67695514D01*
X116969048Y-67695514D02*
X116873810Y-67743133D01*
D13*
X128424819Y-45761904D02*
X129234342Y-45761904D01*
X129234342Y-45761904D02*
X129329580Y-45714285D01*
X129329580Y-45714285D02*
X129377200Y-45666666D01*
X129377200Y-45666666D02*
X129424819Y-45571428D01*
X129424819Y-45571428D02*
X129424819Y-45380952D01*
X129424819Y-45380952D02*
X129377200Y-45285714D01*
X129377200Y-45285714D02*
X129329580Y-45238095D01*
X129329580Y-45238095D02*
X129234342Y-45190476D01*
X129234342Y-45190476D02*
X128424819Y-45190476D01*
X129424819Y-44190476D02*
X129424819Y-44761904D01*
X129424819Y-44476190D02*
X128424819Y-44476190D01*
X128424819Y-44476190D02*
X128567676Y-44571428D01*
X128567676Y-44571428D02*
X128662914Y-44666666D01*
X128662914Y-44666666D02*
X128710533Y-44761904D01*
X169224819Y-26358333D02*
X169939104Y-26358333D01*
X169939104Y-26358333D02*
X170081961Y-26405952D01*
X170081961Y-26405952D02*
X170177200Y-26501190D01*
X170177200Y-26501190D02*
X170224819Y-26644047D01*
X170224819Y-26644047D02*
X170224819Y-26739285D01*
X170224819Y-25358333D02*
X170224819Y-25929761D01*
X170224819Y-25644047D02*
X169224819Y-25644047D01*
X169224819Y-25644047D02*
X169367676Y-25739285D01*
X169367676Y-25739285D02*
X169462914Y-25834523D01*
X169462914Y-25834523D02*
X169510533Y-25929761D01*
%TO.C,JACK4*%
D12*
X171500000Y-61500000D02*
X191500000Y-61500000D01*
X191500000Y-82500000D01*
X171500000Y-82500000D01*
X171500000Y-61500000D01*
%TO.C,JACK3*%
X149450000Y-61500000D02*
X169450000Y-61500000D01*
X169450000Y-82500000D01*
X149450000Y-82500000D01*
X149450000Y-61500000D01*
%TO.C,JACK2*%
X127400000Y-61500000D02*
X147400000Y-61500000D01*
X147400000Y-82500000D01*
X127400000Y-82500000D01*
X127400000Y-61500000D01*
%TO.C,JACK1*%
X105350000Y-61500000D02*
X125350000Y-61500000D01*
X125350000Y-82500000D01*
X105350000Y-82500000D01*
X105350000Y-61500000D01*
D14*
%TO.C,U1*%
X103470000Y-34500000D02*
X103770000Y-34500000D01*
X103470000Y-55500000D02*
X103470000Y-34500000D01*
X103470000Y-55500000D02*
X103770000Y-55500000D01*
X105870000Y-34500000D02*
X106270000Y-34500000D01*
X105870000Y-55500000D02*
X106270000Y-55500000D01*
X106137000Y-52493000D02*
X103470000Y-52493000D01*
X106137000Y-55500000D02*
X106137000Y-52493000D01*
X108470000Y-34500000D02*
X108870000Y-34500000D01*
X108470000Y-55500000D02*
X108870000Y-55500000D01*
X110970000Y-34500000D02*
X111370000Y-34500000D01*
X110970000Y-55500000D02*
X111370000Y-55500000D01*
X113570000Y-34500000D02*
X113970000Y-34500000D01*
X113570000Y-55500000D02*
X113970000Y-55500000D01*
X116070000Y-34500000D02*
X116470000Y-34500000D01*
X116070000Y-55500000D02*
X116470000Y-55500000D01*
X118570000Y-34500000D02*
X118970000Y-34500000D01*
X118570000Y-55500000D02*
X118970000Y-55500000D01*
X121170000Y-34500000D02*
X121570000Y-34500000D01*
X121170000Y-55500000D02*
X121570000Y-55500000D01*
X123670000Y-34500000D02*
X124070000Y-34500000D01*
X123670000Y-55500000D02*
X124070000Y-55500000D01*
X126270000Y-34500000D02*
X126670000Y-34500000D01*
X126270000Y-55500000D02*
X126670000Y-55500000D01*
X128770000Y-34500000D02*
X129170000Y-34500000D01*
X128770000Y-55500000D02*
X129170000Y-55500000D01*
X131270000Y-34500000D02*
X131670000Y-34500000D01*
X131270000Y-55500000D02*
X131670000Y-55500000D01*
X133870000Y-34500000D02*
X134270000Y-34500000D01*
X133870000Y-55500000D02*
X134270000Y-55500000D01*
X136370000Y-34500000D02*
X136770000Y-34500000D01*
X136370000Y-55500000D02*
X136770000Y-55500000D01*
X138970000Y-34500000D02*
X139370000Y-34500000D01*
X138970000Y-55500000D02*
X139370000Y-55500000D01*
X141470000Y-34500000D02*
X141870000Y-34500000D01*
X141470000Y-55500000D02*
X141870000Y-55500000D01*
X144070000Y-34500000D02*
X144470000Y-34500000D01*
X144070000Y-55500000D02*
X144470000Y-55500000D01*
X146570000Y-34500000D02*
X146970000Y-34500000D01*
X146570000Y-55500000D02*
X146970000Y-55500000D01*
X149070000Y-34500000D02*
X149470000Y-34500000D01*
X149070000Y-55500000D02*
X149470000Y-55500000D01*
X151670000Y-34500000D02*
X152070000Y-34500000D01*
X151670000Y-55500000D02*
X152070000Y-55500000D01*
X154470000Y-34500000D02*
X154470000Y-41300000D01*
X154470000Y-43900000D02*
X154470000Y-43500000D01*
X154470000Y-46500000D02*
X154470000Y-46100000D01*
X154470000Y-48700000D02*
X154470000Y-55500000D01*
%TO.C,J1*%
X160590000Y-24695000D02*
X160590000Y-27355000D01*
X165730000Y-24695000D02*
X160590000Y-24695000D01*
X165730000Y-24695000D02*
X165730000Y-27355000D01*
X165730000Y-27355000D02*
X160590000Y-27355000D01*
X168330000Y-26025000D02*
X168330000Y-27355000D01*
X168330000Y-27355000D02*
X167000000Y-27355000D01*
%TD*%
M02*
