M48
; DRILL file {KiCad 8.0.7} date 2025-04-18T20:19:53+0200
; FORMAT={-:-/ absolute / metric / decimal}
; #@! TF.CreationDate,2025-04-18T20:19:53+02:00
; #@! TF.GenerationSoftware,Kicad,Pcbnew,8.0.7
; #@! TF.FileFunction,Plated,1,2,PTH
FMAT,2
METRIC
; #@! TA.AperFunction,Plated,PTH,ComponentDrill
T1C0.700
; #@! TA.AperFunction,Plated,PTH,ComponentDrill
T2C1.000
; #@! TA.AperFunction,Plated,PTH,ComponentDrill
T3C1.020
%
G90
G05
T2
X161.92Y-26.025
X164.46Y-26.025
X167.0Y-26.025
X174.0Y-37.9
X174.0Y-42.5
X174.0Y-47.1
X174.0Y-51.5
X176.54Y-37.9
X176.54Y-42.5
X176.54Y-47.1
X176.54Y-51.5
X179.08Y-37.9
X179.08Y-42.5
X179.08Y-47.1
X179.08Y-51.5
T3
X104.84Y-36.11
X104.84Y-53.89
X107.38Y-36.11
X107.38Y-53.89
X109.92Y-36.11
X109.92Y-53.89
X112.46Y-36.11
X112.46Y-53.89
X115.0Y-36.11
X115.0Y-53.89
X117.54Y-36.11
X117.54Y-53.89
X120.08Y-36.11
X120.08Y-53.89
X122.62Y-36.11
X122.62Y-53.89
X125.16Y-36.11
X125.16Y-53.89
X127.7Y-36.11
X127.7Y-53.89
X130.24Y-36.11
X130.24Y-53.89
X132.78Y-36.11
X132.78Y-53.89
X135.32Y-36.11
X135.32Y-53.89
X137.86Y-36.11
X137.86Y-53.89
X140.4Y-36.11
X140.4Y-53.89
X142.94Y-36.11
X142.94Y-53.89
X145.48Y-36.11
X145.48Y-53.89
X148.02Y-36.11
X148.02Y-53.89
X150.56Y-36.11
X150.56Y-53.89
X152.87Y-42.46
X152.87Y-45.0
X152.87Y-47.54
X153.1Y-36.11
X153.1Y-53.89
T1
X107.35Y-65.85G85X107.35Y-65.15
G05
X107.35Y-72.35G85X107.35Y-71.65
G05
X107.35Y-78.85G85X107.35Y-78.15
G05
X123.35Y-65.85G85X123.35Y-65.15
G05
X123.35Y-72.35G85X123.35Y-71.65
G05
X123.35Y-78.85G85X123.35Y-78.15
G05
X129.4Y-65.85G85X129.4Y-65.15
G05
X129.4Y-72.35G85X129.4Y-71.65
G05
X129.4Y-78.85G85X129.4Y-78.15
G05
X145.4Y-65.85G85X145.4Y-65.15
G05
X145.4Y-72.35G85X145.4Y-71.65
G05
X145.4Y-78.85G85X145.4Y-78.15
G05
X151.45Y-65.85G85X151.45Y-65.15
G05
X151.45Y-72.35G85X151.45Y-71.65
G05
X151.45Y-78.85G85X151.45Y-78.15
G05
X167.45Y-65.85G85X167.45Y-65.15
G05
X167.45Y-72.35G85X167.45Y-71.65
G05
X167.45Y-78.85G85X167.45Y-78.15
G05
X173.5Y-65.85G85X173.5Y-65.15
G05
X173.5Y-72.35G85X173.5Y-71.65
G05
X173.5Y-78.85G85X173.5Y-78.15
G05
X189.5Y-65.85G85X189.5Y-65.15
G05
X189.5Y-72.35G85X189.5Y-71.65
G05
X189.5Y-78.85G85X189.5Y-78.15
G05
M30
