G04 #@! TF.GenerationSoftware,KiCad,Pcbnew,8.0.7*
G04 #@! TF.CreationDate,2025-03-19T21:22:19+01:00*
G04 #@! TF.ProjectId,drum_machine,6472756d-5f6d-4616-9368-696e652e6b69,rev?*
G04 #@! TF.SameCoordinates,Original*
G04 #@! TF.FileFunction,Soldermask,Top*
G04 #@! TF.FilePolarity,Negative*
%FSLAX46Y46*%
G04 Gerber Fmt 4.6, Leading zero omitted, Abs format (unit mm)*
G04 Created by KiCad (PCBNEW 8.0.7) date 2025-03-19 21:22:19*
%MOMM*%
%LPD*%
G01*
G04 APERTURE LIST*
G04 Aperture macros list*
%AMRoundRect*
0 Rectangle with rounded corners*
0 $1 Rounding radius*
0 $2 $3 $4 $5 $6 $7 $8 $9 X,Y pos of 4 corners*
0 Add a 4 corners polygon primitive as box body*
4,1,4,$2,$3,$4,$5,$6,$7,$8,$9,$2,$3,0*
0 Add four circle primitives for the rounded corners*
1,1,$1+$1,$2,$3*
1,1,$1+$1,$4,$5*
1,1,$1+$1,$6,$7*
1,1,$1+$1,$8,$9*
0 Add four rect primitives between the rounded corners*
20,1,$1+$1,$2,$3,$4,$5,0*
20,1,$1+$1,$4,$5,$6,$7,0*
20,1,$1+$1,$6,$7,$8,$9,0*
20,1,$1+$1,$8,$9,$2,$3,0*%
G04 Aperture macros list end*
%ADD10C,1.600000*%
%ADD11O,1.600000X1.600000*%
%ADD12R,1.500000X1.050000*%
%ADD13O,1.500000X1.050000*%
%ADD14R,1.800000X1.800000*%
%ADD15C,1.800000*%
%ADD16R,1.700000X1.700000*%
%ADD17O,1.700000X1.700000*%
%ADD18C,2.700000*%
%ADD19RoundRect,0.750000X-1.250000X-0.750000X1.250000X-0.750000X1.250000X0.750000X-1.250000X0.750000X0*%
%ADD20R,1.600000X1.600000*%
%ADD21RoundRect,0.750000X1.250000X0.750000X-1.250000X0.750000X-1.250000X-0.750000X1.250000X-0.750000X0*%
%ADD22C,2.000000*%
%ADD23R,2.000000X2.000000*%
G04 APERTURE END LIST*
D10*
X72000000Y-96810000D03*
D11*
X72000000Y-89190000D03*
D12*
X62000000Y-86000000D03*
D13*
X62000000Y-84730000D03*
X62000000Y-83460000D03*
D14*
X72000000Y-102540000D03*
D15*
X72000000Y-100000000D03*
D16*
X97000000Y-134000000D03*
D17*
X97000000Y-136540000D03*
X97000000Y-139080000D03*
D16*
X67000000Y-106000000D03*
D17*
X67000000Y-108540000D03*
X67000000Y-111080000D03*
D10*
X77000000Y-96810000D03*
D11*
X77000000Y-89190000D03*
D16*
X132000000Y-134000000D03*
D17*
X132000000Y-136540000D03*
X132000000Y-139080000D03*
D16*
X77000000Y-134000000D03*
D17*
X77000000Y-136540000D03*
X77000000Y-139080000D03*
D18*
X117500000Y-52000000D03*
D14*
X117000000Y-102540000D03*
D15*
X117000000Y-100000000D03*
D16*
X127000000Y-106000000D03*
D17*
X127000000Y-108540000D03*
X127000000Y-111080000D03*
D16*
X67000000Y-120000000D03*
D17*
X67000000Y-122540000D03*
X67000000Y-125080000D03*
D14*
X162000000Y-106000000D03*
D15*
X162000000Y-108500000D03*
X162000000Y-111000000D03*
D19*
X169000000Y-104100000D03*
X169000000Y-112900000D03*
D14*
X112000000Y-102540000D03*
D15*
X112000000Y-100000000D03*
D12*
X82000000Y-86000000D03*
D13*
X82000000Y-84730000D03*
X82000000Y-83460000D03*
D16*
X107000000Y-120000000D03*
D17*
X107000000Y-122540000D03*
X107000000Y-125080000D03*
D16*
X61000000Y-60000000D03*
D17*
X63540000Y-60000000D03*
X66080000Y-60000000D03*
D16*
X122000000Y-134000000D03*
D17*
X122000000Y-136540000D03*
X122000000Y-139080000D03*
D12*
X67000000Y-86000000D03*
D13*
X67000000Y-84730000D03*
X67000000Y-83460000D03*
D12*
X127000000Y-86000000D03*
D13*
X127000000Y-84730000D03*
X127000000Y-83460000D03*
D16*
X137000000Y-120000000D03*
D17*
X137000000Y-122540000D03*
X137000000Y-125080000D03*
D14*
X97000000Y-102540000D03*
D15*
X97000000Y-100000000D03*
D20*
X48200000Y-89125000D03*
D11*
X48200000Y-91665000D03*
X48200000Y-94205000D03*
X48200000Y-96745000D03*
X48200000Y-99285000D03*
X48200000Y-101825000D03*
X48200000Y-104365000D03*
X48200000Y-106905000D03*
X55820000Y-106905000D03*
X55820000Y-104365000D03*
X55820000Y-101825000D03*
X55820000Y-99285000D03*
X55820000Y-96745000D03*
X55820000Y-94205000D03*
X55820000Y-91665000D03*
X55820000Y-89125000D03*
D16*
X72000000Y-106000000D03*
D17*
X72000000Y-108540000D03*
X72000000Y-111080000D03*
D10*
X137000000Y-96810000D03*
D11*
X137000000Y-89190000D03*
D16*
X72000000Y-120000000D03*
D17*
X72000000Y-122540000D03*
X72000000Y-125080000D03*
D10*
X62000000Y-96810000D03*
D11*
X62000000Y-89190000D03*
D12*
X92000000Y-86000000D03*
D13*
X92000000Y-84730000D03*
X92000000Y-83460000D03*
D16*
X87000000Y-120000000D03*
D17*
X87000000Y-122540000D03*
X87000000Y-125080000D03*
D12*
X102000000Y-86000000D03*
D13*
X102000000Y-84730000D03*
X102000000Y-83460000D03*
D20*
X193200000Y-124125000D03*
D11*
X193200000Y-126665000D03*
X193200000Y-129205000D03*
X193200000Y-131745000D03*
X193200000Y-134285000D03*
X193200000Y-136825000D03*
X193200000Y-139365000D03*
X193200000Y-141905000D03*
X200820000Y-141905000D03*
X200820000Y-139365000D03*
X200820000Y-136825000D03*
X200820000Y-134285000D03*
X200820000Y-131745000D03*
X200820000Y-129205000D03*
X200820000Y-126665000D03*
X200820000Y-124125000D03*
D16*
X132000000Y-106000000D03*
D17*
X132000000Y-108540000D03*
X132000000Y-111080000D03*
D16*
X89000000Y-78000000D03*
D17*
X91540000Y-78000000D03*
X94080000Y-78000000D03*
D16*
X92000000Y-134000000D03*
D17*
X92000000Y-136540000D03*
X92000000Y-139080000D03*
D20*
X36200000Y-61125000D03*
D11*
X36200000Y-63665000D03*
X36200000Y-66205000D03*
X36200000Y-68745000D03*
X36200000Y-71285000D03*
X36200000Y-73825000D03*
X36200000Y-76365000D03*
X36200000Y-78905000D03*
X43820000Y-78905000D03*
X43820000Y-76365000D03*
X43820000Y-73825000D03*
X43820000Y-71285000D03*
X43820000Y-68745000D03*
X43820000Y-66205000D03*
X43820000Y-63665000D03*
X43820000Y-61125000D03*
D12*
X132000000Y-86000000D03*
D13*
X132000000Y-84730000D03*
X132000000Y-83460000D03*
D16*
X117000000Y-134000000D03*
D17*
X117000000Y-136540000D03*
X117000000Y-139080000D03*
D18*
X199000000Y-52000000D03*
D16*
X67000000Y-134000000D03*
D17*
X67000000Y-136540000D03*
X67000000Y-139080000D03*
D16*
X107000000Y-134000000D03*
D17*
X107000000Y-136540000D03*
X107000000Y-139080000D03*
D10*
X107000000Y-96810000D03*
D11*
X107000000Y-89190000D03*
D16*
X102000000Y-120000000D03*
D17*
X102000000Y-122540000D03*
X102000000Y-125080000D03*
D10*
X132000000Y-96810000D03*
D11*
X132000000Y-89190000D03*
D16*
X107000000Y-106000000D03*
D17*
X107000000Y-108540000D03*
X107000000Y-111080000D03*
D16*
X89000000Y-60000000D03*
D17*
X91540000Y-60000000D03*
X94080000Y-60000000D03*
D16*
X102000000Y-106000000D03*
D17*
X102000000Y-108540000D03*
X102000000Y-111080000D03*
D16*
X87000000Y-134000000D03*
D17*
X87000000Y-136540000D03*
X87000000Y-139080000D03*
D16*
X112000000Y-106000000D03*
D17*
X112000000Y-108540000D03*
X112000000Y-111080000D03*
D12*
X107000000Y-86000000D03*
D13*
X107000000Y-84730000D03*
X107000000Y-83460000D03*
D16*
X61000000Y-66000000D03*
D17*
X63540000Y-66000000D03*
X66080000Y-66000000D03*
D16*
X97000000Y-120000000D03*
D17*
X97000000Y-122540000D03*
X97000000Y-125080000D03*
D16*
X77000000Y-106000000D03*
D17*
X77000000Y-108540000D03*
X77000000Y-111080000D03*
D20*
X119125000Y-79800000D03*
D11*
X121665000Y-79800000D03*
X124205000Y-79800000D03*
X126745000Y-79800000D03*
X129285000Y-79800000D03*
X131825000Y-79800000D03*
X134365000Y-79800000D03*
X136905000Y-79800000D03*
X136905000Y-72180000D03*
X134365000Y-72180000D03*
X131825000Y-72180000D03*
X129285000Y-72180000D03*
X126745000Y-72180000D03*
X124205000Y-72180000D03*
X121665000Y-72180000D03*
X119125000Y-72180000D03*
D14*
X177000000Y-120000000D03*
D15*
X177000000Y-122500000D03*
X177000000Y-125000000D03*
D19*
X184000000Y-118100000D03*
X184000000Y-126900000D03*
D18*
X36000000Y-52000000D03*
D16*
X127000000Y-134000000D03*
D17*
X127000000Y-136540000D03*
X127000000Y-139080000D03*
D14*
X133000000Y-65100000D03*
D15*
X133000000Y-62600000D03*
X133000000Y-60100000D03*
D21*
X126000000Y-67000000D03*
X126000000Y-58200000D03*
D12*
X77000000Y-86000000D03*
D13*
X77000000Y-84730000D03*
X77000000Y-83460000D03*
D16*
X92000000Y-106000000D03*
D17*
X92000000Y-108540000D03*
X92000000Y-111080000D03*
D16*
X137000000Y-106000000D03*
D17*
X137000000Y-108540000D03*
X137000000Y-111080000D03*
D16*
X82000000Y-120000000D03*
D17*
X82000000Y-122540000D03*
X82000000Y-125080000D03*
D16*
X142000000Y-59000000D03*
D17*
X139460000Y-59000000D03*
D16*
X127000000Y-120000000D03*
D17*
X127000000Y-122540000D03*
X127000000Y-125080000D03*
D16*
X117000000Y-106000000D03*
D17*
X117000000Y-108540000D03*
X117000000Y-111080000D03*
D16*
X82000000Y-106000000D03*
D17*
X82000000Y-108540000D03*
X82000000Y-111080000D03*
D12*
X122000000Y-86000000D03*
D13*
X122000000Y-84730000D03*
X122000000Y-83460000D03*
D10*
X112000000Y-96810000D03*
D11*
X112000000Y-89190000D03*
D22*
X200394000Y-46160000D03*
X200394000Y-43620000D03*
X200394000Y-41080000D03*
X200394000Y-38540000D03*
D23*
X200394000Y-36000000D03*
D22*
X200394000Y-33460000D03*
X193790000Y-46922000D03*
X191250000Y-46922000D03*
X188710000Y-46922000D03*
X186170000Y-46922000D03*
X183630000Y-46922000D03*
X181090000Y-46922000D03*
X178550000Y-46922000D03*
X176010000Y-46922000D03*
X173470000Y-46922000D03*
D14*
X67000000Y-102540000D03*
D15*
X67000000Y-100000000D03*
D10*
X82000000Y-96810000D03*
D11*
X82000000Y-89190000D03*
D12*
X117000000Y-86000000D03*
D13*
X117000000Y-84730000D03*
X117000000Y-83460000D03*
D14*
X177000000Y-134000000D03*
D15*
X177000000Y-136500000D03*
X177000000Y-139000000D03*
D19*
X184000000Y-132100000D03*
X184000000Y-140900000D03*
D16*
X112000000Y-120000000D03*
D17*
X112000000Y-122540000D03*
X112000000Y-125080000D03*
D14*
X137000000Y-102540000D03*
D15*
X137000000Y-100000000D03*
D10*
X92000000Y-96810000D03*
D11*
X92000000Y-89190000D03*
D14*
X107000000Y-102540000D03*
D15*
X107000000Y-100000000D03*
D10*
X122000000Y-96810000D03*
D11*
X122000000Y-89190000D03*
D20*
X48300000Y-61125000D03*
D11*
X48300000Y-63665000D03*
X48300000Y-66205000D03*
X48300000Y-68745000D03*
X48300000Y-71285000D03*
X48300000Y-73825000D03*
X48300000Y-76365000D03*
X48300000Y-78905000D03*
X55920000Y-78905000D03*
X55920000Y-76365000D03*
X55920000Y-73825000D03*
X55920000Y-71285000D03*
X55920000Y-68745000D03*
X55920000Y-66205000D03*
X55920000Y-63665000D03*
X55920000Y-61125000D03*
D16*
X62000000Y-106000000D03*
D17*
X62000000Y-108540000D03*
X62000000Y-111080000D03*
D14*
X102000000Y-102540000D03*
D15*
X102000000Y-100000000D03*
D14*
X147000000Y-120000000D03*
D15*
X147000000Y-122500000D03*
X147000000Y-125000000D03*
D19*
X154000000Y-118100000D03*
X154000000Y-126900000D03*
D16*
X122000000Y-106000000D03*
D17*
X122000000Y-108540000D03*
X122000000Y-111080000D03*
D12*
X97000000Y-86000000D03*
D13*
X97000000Y-84730000D03*
X97000000Y-83460000D03*
D14*
X82000000Y-102540000D03*
D15*
X82000000Y-100000000D03*
D16*
X62000000Y-120000000D03*
D17*
X62000000Y-122540000D03*
X62000000Y-125080000D03*
D16*
X137000000Y-134000000D03*
D17*
X137000000Y-136540000D03*
X137000000Y-139080000D03*
D20*
X98125000Y-79800000D03*
D11*
X100665000Y-79800000D03*
X103205000Y-79800000D03*
X105745000Y-79800000D03*
X108285000Y-79800000D03*
X110825000Y-79800000D03*
X113365000Y-79800000D03*
X115905000Y-79800000D03*
X115905000Y-72180000D03*
X113365000Y-72180000D03*
X110825000Y-72180000D03*
X108285000Y-72180000D03*
X105745000Y-72180000D03*
X103205000Y-72180000D03*
X100665000Y-72180000D03*
X98125000Y-72180000D03*
D16*
X117000000Y-120000000D03*
D17*
X117000000Y-122540000D03*
X117000000Y-125080000D03*
D14*
X77000000Y-102540000D03*
D15*
X77000000Y-100000000D03*
D10*
X67000000Y-96810000D03*
D11*
X67000000Y-89190000D03*
D10*
X127000000Y-96810000D03*
D11*
X127000000Y-89190000D03*
D10*
X97000000Y-96810000D03*
D11*
X97000000Y-89190000D03*
D16*
X77000000Y-120000000D03*
D17*
X77000000Y-122540000D03*
X77000000Y-125080000D03*
D14*
X147000000Y-134000000D03*
D15*
X147000000Y-136500000D03*
X147000000Y-139000000D03*
D19*
X154000000Y-132100000D03*
X154000000Y-140900000D03*
D10*
X87000000Y-96810000D03*
D11*
X87000000Y-89190000D03*
D16*
X97000000Y-106000000D03*
D17*
X97000000Y-108540000D03*
X97000000Y-111080000D03*
D14*
X147000000Y-106000000D03*
D15*
X147000000Y-108500000D03*
X147000000Y-111000000D03*
D19*
X154000000Y-104100000D03*
X154000000Y-112900000D03*
D20*
X98125000Y-66800000D03*
D11*
X100665000Y-66800000D03*
X103205000Y-66800000D03*
X105745000Y-66800000D03*
X108285000Y-66800000D03*
X110825000Y-66800000D03*
X113365000Y-66800000D03*
X115905000Y-66800000D03*
X115905000Y-59180000D03*
X113365000Y-59180000D03*
X110825000Y-59180000D03*
X108285000Y-59180000D03*
X105745000Y-59180000D03*
X103205000Y-59180000D03*
X100665000Y-59180000D03*
X98125000Y-59180000D03*
D16*
X102000000Y-134000000D03*
D17*
X102000000Y-136540000D03*
X102000000Y-139080000D03*
D16*
X72000000Y-134000000D03*
D17*
X72000000Y-136540000D03*
X72000000Y-139080000D03*
D16*
X89000000Y-72000000D03*
D17*
X91540000Y-72000000D03*
X94080000Y-72000000D03*
D16*
X62000000Y-134000000D03*
D17*
X62000000Y-136540000D03*
X62000000Y-139080000D03*
D16*
X61000000Y-72000000D03*
D17*
X63540000Y-72000000D03*
X66080000Y-72000000D03*
D18*
X36000000Y-147000000D03*
D16*
X92000000Y-120000000D03*
D17*
X92000000Y-122540000D03*
X92000000Y-125080000D03*
D14*
X132000000Y-102540000D03*
D15*
X132000000Y-100000000D03*
D14*
X92000000Y-102540000D03*
D15*
X92000000Y-100000000D03*
D14*
X162000000Y-120000000D03*
D15*
X162000000Y-122500000D03*
X162000000Y-125000000D03*
D19*
X169000000Y-118100000D03*
X169000000Y-126900000D03*
D16*
X87000000Y-106000000D03*
D17*
X87000000Y-108540000D03*
X87000000Y-111080000D03*
D16*
X112000000Y-134000000D03*
D17*
X112000000Y-136540000D03*
X112000000Y-139080000D03*
D16*
X89000000Y-66000000D03*
D17*
X91540000Y-66000000D03*
X94080000Y-66000000D03*
D14*
X62000000Y-102540000D03*
D15*
X62000000Y-100000000D03*
D12*
X137000000Y-86000000D03*
D13*
X137000000Y-84730000D03*
X137000000Y-83460000D03*
D12*
X72000000Y-86000000D03*
D13*
X72000000Y-84730000D03*
X72000000Y-83460000D03*
D16*
X129500000Y-51000000D03*
D17*
X126960000Y-51000000D03*
X124420000Y-51000000D03*
D14*
X87000000Y-102540000D03*
D15*
X87000000Y-100000000D03*
D16*
X122000000Y-120000000D03*
D17*
X122000000Y-122540000D03*
X122000000Y-125080000D03*
D10*
X117000000Y-96810000D03*
D11*
X117000000Y-89190000D03*
D12*
X112000000Y-86000000D03*
D13*
X112000000Y-84730000D03*
X112000000Y-83460000D03*
D16*
X82000000Y-134000000D03*
D17*
X82000000Y-136540000D03*
X82000000Y-139080000D03*
D16*
X61000000Y-78000000D03*
D17*
X63540000Y-78000000D03*
X66080000Y-78000000D03*
D14*
X127000000Y-102540000D03*
D15*
X127000000Y-100000000D03*
D20*
X193200000Y-103125000D03*
D11*
X193200000Y-105665000D03*
X193200000Y-108205000D03*
X193200000Y-110745000D03*
X193200000Y-113285000D03*
X193200000Y-115825000D03*
X193200000Y-118365000D03*
X193200000Y-120905000D03*
X200820000Y-120905000D03*
X200820000Y-118365000D03*
X200820000Y-115825000D03*
X200820000Y-113285000D03*
X200820000Y-110745000D03*
X200820000Y-108205000D03*
X200820000Y-105665000D03*
X200820000Y-103125000D03*
D20*
X36200000Y-89125000D03*
D11*
X36200000Y-91665000D03*
X36200000Y-94205000D03*
X36200000Y-96745000D03*
X36200000Y-99285000D03*
X36200000Y-101825000D03*
X36200000Y-104365000D03*
X36200000Y-106905000D03*
X43820000Y-106905000D03*
X43820000Y-104365000D03*
X43820000Y-101825000D03*
X43820000Y-99285000D03*
X43820000Y-96745000D03*
X43820000Y-94205000D03*
X43820000Y-91665000D03*
X43820000Y-89125000D03*
D16*
X132000000Y-120000000D03*
D17*
X132000000Y-122540000D03*
X132000000Y-125080000D03*
D10*
X102000000Y-96810000D03*
D11*
X102000000Y-89190000D03*
D20*
X36200000Y-122125000D03*
D11*
X36200000Y-124665000D03*
X36200000Y-127205000D03*
X36200000Y-129745000D03*
X36200000Y-132285000D03*
X36200000Y-134825000D03*
X36200000Y-137365000D03*
X36200000Y-139905000D03*
X43820000Y-139905000D03*
X43820000Y-137365000D03*
X43820000Y-134825000D03*
X43820000Y-132285000D03*
X43820000Y-129745000D03*
X43820000Y-127205000D03*
X43820000Y-124665000D03*
X43820000Y-122125000D03*
D18*
X117500000Y-147000000D03*
X199000000Y-147000000D03*
D14*
X162000000Y-134000000D03*
D15*
X162000000Y-136500000D03*
X162000000Y-139000000D03*
D19*
X169000000Y-132100000D03*
X169000000Y-140900000D03*
D14*
X122000000Y-102540000D03*
D15*
X122000000Y-100000000D03*
D14*
X177000000Y-106000000D03*
D15*
X177000000Y-108500000D03*
X177000000Y-111000000D03*
D19*
X184000000Y-104100000D03*
X184000000Y-112900000D03*
D20*
X48200000Y-122125000D03*
D11*
X48200000Y-124665000D03*
X48200000Y-127205000D03*
X48200000Y-129745000D03*
X48200000Y-132285000D03*
X48200000Y-134825000D03*
X48200000Y-137365000D03*
X48200000Y-139905000D03*
X55820000Y-139905000D03*
X55820000Y-137365000D03*
X55820000Y-134825000D03*
X55820000Y-132285000D03*
X55820000Y-129745000D03*
X55820000Y-127205000D03*
X55820000Y-124665000D03*
X55820000Y-122125000D03*
D12*
X87000000Y-86000000D03*
D13*
X87000000Y-84730000D03*
X87000000Y-83460000D03*
D17*
X200130000Y-90890000D03*
X151870000Y-90890000D03*
X151870000Y-73110000D03*
X200130000Y-73110000D03*
X152100000Y-84540000D03*
D16*
X152100000Y-82000000D03*
D17*
X152100000Y-79460000D03*
M02*
