M48
; DRILL file {KiCad 8.0.7} date 2025-03-19T21:22:26+0100
; FORMAT={-:-/ absolute / metric / decimal}
; #@! TF.CreationDate,2025-03-19T21:22:26+01:00
; #@! TF.GenerationSoftware,Kicad,Pcbnew,8.0.7
; #@! TF.FileFunction,Plated,1,2,PTH
FMAT,2
METRIC
; #@! TA.AperFunction,Plated,PTH,ViaDrill
T1C0.300
; #@! TA.AperFunction,Plated,PTH,ComponentDrill
T2C0.750
; #@! TA.AperFunction,Plated,PTH,ComponentDrill
T3C0.800
; #@! TA.AperFunction,Plated,PTH,ComponentDrill
T4C0.900
; #@! TA.AperFunction,Plated,PTH,ComponentDrill
T5C1.000
; #@! TA.AperFunction,Plated,PTH,ComponentDrill
T6C1.020
; #@! TA.AperFunction,Plated,PTH,ComponentDrill
T7C1.200
; #@! TA.AperFunction,Plated,PTH,ComponentDrill
T8C1.300
; #@! TA.AperFunction,Plated,PTH,ComponentDrill
T9C1.800
%
G90
G05
T1
X34.0Y-88.0
X34.0Y-95.0
X34.0Y-141.0
X36.0Y-116.0
X36.328Y-141.43
X38.414Y-112.965
X38.5Y-70.0
X38.5Y-78.0
X39.272Y-117.11
X39.5Y-122.5
X39.669Y-113.199
X40.0Y-66.0
X41.683Y-115.06
X41.685Y-131.845
X41.803Y-140.92
X42.0Y-81.0
X42.006Y-108.28
X44.0Y-86.0
X45.767Y-93.107
X46.066Y-115.403
X46.278Y-113.704
X47.0Y-144.5
X47.205Y-100.325
X47.205Y-102.693
X48.135Y-119.956
X49.13Y-119.608
X51.5Y-66.5
X51.5Y-68.5
X51.5Y-71.0
X52.0Y-83.0
X52.0Y-89.0
X52.5Y-64.0
X53.241Y-71.875
X53.587Y-110.988
X54.021Y-58.191
X54.134Y-105.524
X54.621Y-73.161
X56.99Y-58.208
X57.238Y-91.019
X57.375Y-66.691
X57.543Y-139.723
X58.98Y-97.0
X59.0Y-89.0
X59.58Y-95.266
X61.5Y-63.5
X65.846Y-61.753
X66.044Y-94.051
X66.115Y-67.682
X67.5Y-75.0
X69.947Y-102.39
X71.138Y-58.474
X72.0Y-61.0
X72.0Y-75.0
X72.102Y-92.373
X74.663Y-99.445
X75.079Y-73.595
X76.0Y-65.5
X78.289Y-90.374
X78.303Y-123.623
X82.0Y-69.5
X83.556Y-61.153
X83.935Y-106.959
X84.033Y-94.051
X86.508Y-63.425
X88.27Y-95.267
X98.948Y-98.585
X99.02Y-93.554
X100.145Y-73.59
X102.0Y-77.0
X102.747Y-87.224
X104.219Y-117.706
X104.285Y-93.554
X107.171Y-116.985
X108.062Y-110.198
X110.123Y-131.269
X114.956Y-115.463
X115.0Y-76.0
X116.026Y-69.724
X116.026Y-141.634
X117.669Y-81.991
X119.152Y-120.063
X121.003Y-95.694
X128.393Y-126.492
X128.92Y-113.704
X133.0Y-114.0
X135.868Y-123.623
X140.0Y-143.254
X142.0Y-142.0
X142.3Y-87.0
X142.9Y-88.5
X143.5Y-89.5
X148.0Y-54.0
X150.0Y-54.0
X151.448Y-108.229
X152.0Y-67.0
X152.0Y-89.0
X154.0Y-67.0
X155.0Y-89.0
X156.5Y-69.0
X157.0Y-75.5
X157.0Y-94.5
X157.5Y-89.0
X159.0Y-85.0
X162.0Y-87.0
X165.0Y-112.5
X169.5Y-69.5
X169.5Y-75.0
X169.5Y-95.0
X170.0Y-89.0
X170.0Y-97.0
X171.0Y-51.0
X174.0Y-97.0
X177.0Y-97.0
X177.5Y-114.0
X182.0Y-95.0
X182.164Y-129.219
X182.5Y-69.0
X182.5Y-75.5
X182.5Y-88.5
X184.5Y-95.0
X187.0Y-95.0
X189.72Y-120.063
X190.0Y-96.5
X191.849Y-136.71
X194.5Y-95.0
X195.0Y-69.5
X195.5Y-75.0
X195.5Y-88.5
X196.5Y-124.5
X198.387Y-120.063
T2
X62.0Y-83.46
X62.0Y-84.73
X62.0Y-86.0
X67.0Y-83.46
X67.0Y-84.73
X67.0Y-86.0
X72.0Y-83.46
X72.0Y-84.73
X72.0Y-86.0
X77.0Y-83.46
X77.0Y-84.73
X77.0Y-86.0
X82.0Y-83.46
X82.0Y-84.73
X82.0Y-86.0
X87.0Y-83.46
X87.0Y-84.73
X87.0Y-86.0
X92.0Y-83.46
X92.0Y-84.73
X92.0Y-86.0
X97.0Y-83.46
X97.0Y-84.73
X97.0Y-86.0
X102.0Y-83.46
X102.0Y-84.73
X102.0Y-86.0
X107.0Y-83.46
X107.0Y-84.73
X107.0Y-86.0
X112.0Y-83.46
X112.0Y-84.73
X112.0Y-86.0
X117.0Y-83.46
X117.0Y-84.73
X117.0Y-86.0
X122.0Y-83.46
X122.0Y-84.73
X122.0Y-86.0
X127.0Y-83.46
X127.0Y-84.73
X127.0Y-86.0
X132.0Y-83.46
X132.0Y-84.73
X132.0Y-86.0
X137.0Y-83.46
X137.0Y-84.73
X137.0Y-86.0
T3
X36.2Y-61.125
X36.2Y-63.665
X36.2Y-66.205
X36.2Y-68.745
X36.2Y-71.285
X36.2Y-73.825
X36.2Y-76.365
X36.2Y-78.905
X36.2Y-89.125
X36.2Y-91.665
X36.2Y-94.205
X36.2Y-96.745
X36.2Y-99.285
X36.2Y-101.825
X36.2Y-104.365
X36.2Y-106.905
X36.2Y-122.125
X36.2Y-124.665
X36.2Y-127.205
X36.2Y-129.745
X36.2Y-132.285
X36.2Y-134.825
X36.2Y-137.365
X36.2Y-139.905
X43.82Y-61.125
X43.82Y-63.665
X43.82Y-66.205
X43.82Y-68.745
X43.82Y-71.285
X43.82Y-73.825
X43.82Y-76.365
X43.82Y-78.905
X43.82Y-89.125
X43.82Y-91.665
X43.82Y-94.205
X43.82Y-96.745
X43.82Y-99.285
X43.82Y-101.825
X43.82Y-104.365
X43.82Y-106.905
X43.82Y-122.125
X43.82Y-124.665
X43.82Y-127.205
X43.82Y-129.745
X43.82Y-132.285
X43.82Y-134.825
X43.82Y-137.365
X43.82Y-139.905
X48.2Y-89.125
X48.2Y-91.665
X48.2Y-94.205
X48.2Y-96.745
X48.2Y-99.285
X48.2Y-101.825
X48.2Y-104.365
X48.2Y-106.905
X48.2Y-122.125
X48.2Y-124.665
X48.2Y-127.205
X48.2Y-129.745
X48.2Y-132.285
X48.2Y-134.825
X48.2Y-137.365
X48.2Y-139.905
X48.3Y-61.125
X48.3Y-63.665
X48.3Y-66.205
X48.3Y-68.745
X48.3Y-71.285
X48.3Y-73.825
X48.3Y-76.365
X48.3Y-78.905
X55.82Y-89.125
X55.82Y-91.665
X55.82Y-94.205
X55.82Y-96.745
X55.82Y-99.285
X55.82Y-101.825
X55.82Y-104.365
X55.82Y-106.905
X55.82Y-122.125
X55.82Y-124.665
X55.82Y-127.205
X55.82Y-129.745
X55.82Y-132.285
X55.82Y-134.825
X55.82Y-137.365
X55.82Y-139.905
X55.92Y-61.125
X55.92Y-63.665
X55.92Y-66.205
X55.92Y-68.745
X55.92Y-71.285
X55.92Y-73.825
X55.92Y-76.365
X55.92Y-78.905
X62.0Y-89.19
X62.0Y-96.81
X67.0Y-89.19
X67.0Y-96.81
X72.0Y-89.19
X72.0Y-96.81
X77.0Y-89.19
X77.0Y-96.81
X82.0Y-89.19
X82.0Y-96.81
X87.0Y-89.19
X87.0Y-96.81
X92.0Y-89.19
X92.0Y-96.81
X97.0Y-89.19
X97.0Y-96.81
X98.125Y-59.18
X98.125Y-66.8
X98.125Y-72.18
X98.125Y-79.8
X100.665Y-59.18
X100.665Y-66.8
X100.665Y-72.18
X100.665Y-79.8
X102.0Y-89.19
X102.0Y-96.81
X103.205Y-59.18
X103.205Y-66.8
X103.205Y-72.18
X103.205Y-79.8
X105.745Y-59.18
X105.745Y-66.8
X105.745Y-72.18
X105.745Y-79.8
X107.0Y-89.19
X107.0Y-96.81
X108.285Y-59.18
X108.285Y-66.8
X108.285Y-72.18
X108.285Y-79.8
X110.825Y-59.18
X110.825Y-66.8
X110.825Y-72.18
X110.825Y-79.8
X112.0Y-89.19
X112.0Y-96.81
X113.365Y-59.18
X113.365Y-66.8
X113.365Y-72.18
X113.365Y-79.8
X115.905Y-59.18
X115.905Y-66.8
X115.905Y-72.18
X115.905Y-79.8
X117.0Y-89.19
X117.0Y-96.81
X119.125Y-72.18
X119.125Y-79.8
X121.665Y-72.18
X121.665Y-79.8
X122.0Y-89.19
X122.0Y-96.81
X124.205Y-72.18
X124.205Y-79.8
X126.745Y-72.18
X126.745Y-79.8
X127.0Y-89.19
X127.0Y-96.81
X129.285Y-72.18
X129.285Y-79.8
X131.825Y-72.18
X131.825Y-79.8
X132.0Y-89.19
X132.0Y-96.81
X134.365Y-72.18
X134.365Y-79.8
X136.905Y-72.18
X136.905Y-79.8
X137.0Y-89.19
X137.0Y-96.81
X193.2Y-103.125
X193.2Y-105.665
X193.2Y-108.205
X193.2Y-110.745
X193.2Y-113.285
X193.2Y-115.825
X193.2Y-118.365
X193.2Y-120.905
X193.2Y-124.125
X193.2Y-126.665
X193.2Y-129.205
X193.2Y-131.745
X193.2Y-134.285
X193.2Y-136.825
X193.2Y-139.365
X193.2Y-141.905
X200.82Y-103.125
X200.82Y-105.665
X200.82Y-108.205
X200.82Y-110.745
X200.82Y-113.285
X200.82Y-115.825
X200.82Y-118.365
X200.82Y-120.905
X200.82Y-124.125
X200.82Y-126.665
X200.82Y-129.205
X200.82Y-131.745
X200.82Y-134.285
X200.82Y-136.825
X200.82Y-139.365
X200.82Y-141.905
T4
X62.0Y-100.0
X62.0Y-102.54
X67.0Y-100.0
X67.0Y-102.54
X72.0Y-100.0
X72.0Y-102.54
X77.0Y-100.0
X77.0Y-102.54
X82.0Y-100.0
X82.0Y-102.54
X87.0Y-100.0
X87.0Y-102.54
X92.0Y-100.0
X92.0Y-102.54
X97.0Y-100.0
X97.0Y-102.54
X102.0Y-100.0
X102.0Y-102.54
X107.0Y-100.0
X107.0Y-102.54
X112.0Y-100.0
X112.0Y-102.54
X117.0Y-100.0
X117.0Y-102.54
X122.0Y-100.0
X122.0Y-102.54
X127.0Y-100.0
X127.0Y-102.54
X132.0Y-100.0
X132.0Y-102.54
X137.0Y-100.0
X137.0Y-102.54
T5
X61.0Y-60.0
X61.0Y-66.0
X61.0Y-72.0
X61.0Y-78.0
X62.0Y-106.0
X62.0Y-108.54
X62.0Y-111.08
X62.0Y-120.0
X62.0Y-122.54
X62.0Y-125.08
X62.0Y-134.0
X62.0Y-136.54
X62.0Y-139.08
X63.54Y-60.0
X63.54Y-66.0
X63.54Y-72.0
X63.54Y-78.0
X66.08Y-60.0
X66.08Y-66.0
X66.08Y-72.0
X66.08Y-78.0
X67.0Y-106.0
X67.0Y-108.54
X67.0Y-111.08
X67.0Y-120.0
X67.0Y-122.54
X67.0Y-125.08
X67.0Y-134.0
X67.0Y-136.54
X67.0Y-139.08
X72.0Y-106.0
X72.0Y-108.54
X72.0Y-111.08
X72.0Y-120.0
X72.0Y-122.54
X72.0Y-125.08
X72.0Y-134.0
X72.0Y-136.54
X72.0Y-139.08
X77.0Y-106.0
X77.0Y-108.54
X77.0Y-111.08
X77.0Y-120.0
X77.0Y-122.54
X77.0Y-125.08
X77.0Y-134.0
X77.0Y-136.54
X77.0Y-139.08
X82.0Y-106.0
X82.0Y-108.54
X82.0Y-111.08
X82.0Y-120.0
X82.0Y-122.54
X82.0Y-125.08
X82.0Y-134.0
X82.0Y-136.54
X82.0Y-139.08
X87.0Y-106.0
X87.0Y-108.54
X87.0Y-111.08
X87.0Y-120.0
X87.0Y-122.54
X87.0Y-125.08
X87.0Y-134.0
X87.0Y-136.54
X87.0Y-139.08
X89.0Y-60.0
X89.0Y-66.0
X89.0Y-72.0
X89.0Y-78.0
X91.54Y-60.0
X91.54Y-66.0
X91.54Y-72.0
X91.54Y-78.0
X92.0Y-106.0
X92.0Y-108.54
X92.0Y-111.08
X92.0Y-120.0
X92.0Y-122.54
X92.0Y-125.08
X92.0Y-134.0
X92.0Y-136.54
X92.0Y-139.08
X94.08Y-60.0
X94.08Y-66.0
X94.08Y-72.0
X94.08Y-78.0
X97.0Y-106.0
X97.0Y-108.54
X97.0Y-111.08
X97.0Y-120.0
X97.0Y-122.54
X97.0Y-125.08
X97.0Y-134.0
X97.0Y-136.54
X97.0Y-139.08
X102.0Y-106.0
X102.0Y-108.54
X102.0Y-111.08
X102.0Y-120.0
X102.0Y-122.54
X102.0Y-125.08
X102.0Y-134.0
X102.0Y-136.54
X102.0Y-139.08
X107.0Y-106.0
X107.0Y-108.54
X107.0Y-111.08
X107.0Y-120.0
X107.0Y-122.54
X107.0Y-125.08
X107.0Y-134.0
X107.0Y-136.54
X107.0Y-139.08
X112.0Y-106.0
X112.0Y-108.54
X112.0Y-111.08
X112.0Y-120.0
X112.0Y-122.54
X112.0Y-125.08
X112.0Y-134.0
X112.0Y-136.54
X112.0Y-139.08
X117.0Y-106.0
X117.0Y-108.54
X117.0Y-111.08
X117.0Y-120.0
X117.0Y-122.54
X117.0Y-125.08
X117.0Y-134.0
X117.0Y-136.54
X117.0Y-139.08
X122.0Y-106.0
X122.0Y-108.54
X122.0Y-111.08
X122.0Y-120.0
X122.0Y-122.54
X122.0Y-125.08
X122.0Y-134.0
X122.0Y-136.54
X122.0Y-139.08
X124.42Y-51.0
X126.96Y-51.0
X127.0Y-106.0
X127.0Y-108.54
X127.0Y-111.08
X127.0Y-120.0
X127.0Y-122.54
X127.0Y-125.08
X127.0Y-134.0
X127.0Y-136.54
X127.0Y-139.08
X129.5Y-51.0
X132.0Y-106.0
X132.0Y-108.54
X132.0Y-111.08
X132.0Y-120.0
X132.0Y-122.54
X132.0Y-125.08
X132.0Y-134.0
X132.0Y-136.54
X132.0Y-139.08
X133.0Y-60.1
X133.0Y-62.6
X133.0Y-65.1
X137.0Y-106.0
X137.0Y-108.54
X137.0Y-111.08
X137.0Y-120.0
X137.0Y-122.54
X137.0Y-125.08
X137.0Y-134.0
X137.0Y-136.54
X137.0Y-139.08
X139.46Y-59.0
X142.0Y-59.0
X147.0Y-106.0
X147.0Y-108.5
X147.0Y-111.0
X147.0Y-120.0
X147.0Y-122.5
X147.0Y-125.0
X147.0Y-134.0
X147.0Y-136.5
X147.0Y-139.0
X162.0Y-106.0
X162.0Y-108.5
X162.0Y-111.0
X162.0Y-120.0
X162.0Y-122.5
X162.0Y-125.0
X162.0Y-134.0
X162.0Y-136.5
X162.0Y-139.0
X173.47Y-46.922
X176.01Y-46.922
X177.0Y-106.0
X177.0Y-108.5
X177.0Y-111.0
X177.0Y-120.0
X177.0Y-122.5
X177.0Y-125.0
X177.0Y-134.0
X177.0Y-136.5
X177.0Y-139.0
X178.55Y-46.922
X181.09Y-46.922
X183.63Y-46.922
X186.17Y-46.922
X188.71Y-46.922
X191.25Y-46.922
X193.79Y-46.922
X200.394Y-43.62
X200.394Y-46.16
T6
X151.87Y-73.11
X151.87Y-90.89
X152.1Y-79.46
X152.1Y-82.0
X152.1Y-84.54
X200.13Y-73.11
X200.13Y-90.89
T7
X200.394Y-33.46
X200.394Y-38.54
X200.394Y-41.08
T8
X200.394Y-36.0
T9
X126.15Y-58.2G85X125.85Y-58.2
G05
X126.15Y-67.0G85X125.85Y-67.0
G05
X153.85Y-104.1G85X154.15Y-104.1
G05
X153.85Y-112.9G85X154.15Y-112.9
G05
X153.85Y-118.1G85X154.15Y-118.1
G05
X153.85Y-126.9G85X154.15Y-126.9
G05
X153.85Y-132.1G85X154.15Y-132.1
G05
X153.85Y-140.9G85X154.15Y-140.9
G05
X168.85Y-104.1G85X169.15Y-104.1
G05
X168.85Y-112.9G85X169.15Y-112.9
G05
X168.85Y-118.1G85X169.15Y-118.1
G05
X168.85Y-126.9G85X169.15Y-126.9
G05
X168.85Y-132.1G85X169.15Y-132.1
G05
X168.85Y-140.9G85X169.15Y-140.9
G05
X183.85Y-104.1G85X184.15Y-104.1
G05
X183.85Y-112.9G85X184.15Y-112.9
G05
X183.85Y-118.1G85X184.15Y-118.1
G05
X183.85Y-126.9G85X184.15Y-126.9
G05
X183.85Y-132.1G85X184.15Y-132.1
G05
X183.85Y-140.9G85X184.15Y-140.9
G05
M30
