M48
; DRILL file {KiCad 8.0.6} date 2024-12-01T22:22:07+0100
; FORMAT={-:-/ absolute / metric / decimal}
; #@! TF.CreationDate,2024-12-01T22:22:07+01:00
; #@! TF.GenerationSoftware,Kicad,Pcbnew,8.0.6
; #@! TF.FileFunction,Plated,1,2,PTH
FMAT,2
METRIC
; #@! TA.AperFunction,Plated,PTH,ViaDrill
T1C0.300
; #@! TA.AperFunction,Plated,PTH,ComponentDrill
T2C1.000
; #@! TA.AperFunction,Plated,PTH,ComponentDrill
T3C1.020
; #@! TA.AperFunction,Plated,PTH,ComponentDrill
T4C1.100
; #@! TA.AperFunction,Plated,PTH,ComponentDrill
T5C1.200
; #@! TA.AperFunction,Plated,PTH,ComponentDrill
T6C1.300
%
G90
G05
T1
X104.14Y-76.2
X105.41Y-63.5
X113.03Y-60.325
X114.3Y-49.53
X116.84Y-41.91
X127.0Y-66.04
X129.54Y-25.4
X137.16Y-61.595
X139.7Y-44.45
X139.7Y-59.69
X147.955Y-56.515
X161.29Y-54.61
X163.0Y-22.0
T2
X105.0Y-24.0
X105.0Y-26.54
X105.0Y-29.08
X106.0Y-59.0
X108.54Y-59.0
X110.0Y-24.0
X110.0Y-26.54
X111.08Y-59.0
X115.92Y-59.0
X118.46Y-59.0
X121.0Y-59.0
X123.38Y-23.0
X125.92Y-23.0
X126.0Y-59.0
X128.46Y-23.0
X128.54Y-59.0
X131.0Y-23.0
X131.08Y-59.0
X157.888Y-29.47
X157.888Y-32.01
X157.888Y-34.55
X157.888Y-37.09
X157.888Y-39.63
X157.888Y-42.17
X157.888Y-44.71
X157.888Y-47.25
X157.888Y-49.79
X158.65Y-56.394
X161.19Y-56.394
X166.92Y-22.0
X169.46Y-22.0
X172.0Y-22.0
T3
X104.5Y-35.0
X104.5Y-52.78
X107.04Y-35.0
X107.04Y-52.78
X109.58Y-35.0
X109.58Y-52.78
X112.12Y-35.0
X112.12Y-52.78
X114.66Y-35.0
X114.66Y-52.78
X117.2Y-35.0
X117.2Y-52.78
X119.74Y-35.0
X119.74Y-52.78
X122.28Y-35.0
X122.28Y-52.78
X124.82Y-35.0
X124.82Y-52.78
X127.36Y-35.0
X127.36Y-52.78
X129.9Y-35.0
X129.9Y-52.78
X132.44Y-35.0
X132.44Y-52.78
X134.98Y-35.0
X134.98Y-52.78
X137.52Y-35.0
X137.52Y-52.78
X140.06Y-35.0
X140.06Y-52.78
X142.6Y-35.0
X142.6Y-52.78
X145.14Y-35.0
X145.14Y-52.78
X147.68Y-35.0
X147.68Y-52.78
X150.22Y-35.0
X150.22Y-52.78
X152.53Y-41.35
X152.53Y-43.89
X152.53Y-46.43
X152.76Y-35.0
X152.76Y-52.78
T4
X108.0Y-71.5
X108.05Y-76.5
X111.5Y-64.5
X111.55Y-69.5
X115.0Y-71.5
X115.05Y-76.5
X118.5Y-64.5
X118.55Y-69.5
X122.0Y-71.5
X122.05Y-76.5
X129.0Y-71.5
X129.05Y-76.5
X132.5Y-64.5
X132.55Y-69.5
X135.77Y-23.46
X135.77Y-26.0
X135.77Y-28.54
X136.0Y-71.5
X136.05Y-76.5
X139.5Y-64.5
X139.55Y-69.5
X143.0Y-71.5
X143.05Y-76.5
X146.5Y-64.5
X146.55Y-69.5
X150.0Y-71.5
X150.05Y-76.5
X158.0Y-71.5
X158.05Y-76.5
X160.0Y-64.0
X160.05Y-69.0
X165.0Y-71.5
X165.05Y-76.5
X167.0Y-64.0
X167.05Y-69.0
T5
X163.73Y-56.394
X166.27Y-56.394
X171.35Y-56.394
T6
X168.81Y-56.394
M30
