G04 #@! TF.GenerationSoftware,KiCad,Pcbnew,8.0.6*
G04 #@! TF.CreationDate,2024-12-01T22:21:49+01:00*
G04 #@! TF.ProjectId,pico_piano,7069636f-5f70-4696-916e-6f2e6b696361,rev?*
G04 #@! TF.SameCoordinates,Original*
G04 #@! TF.FileFunction,Legend,Bot*
G04 #@! TF.FilePolarity,Positive*
%FSLAX46Y46*%
G04 Gerber Fmt 4.6, Leading zero omitted, Abs format (unit mm)*
G04 Created by KiCad (PCBNEW 8.0.6) date 2024-12-01 22:21:49*
%MOMM*%
%LPD*%
G01*
G04 APERTURE LIST*
%ADD10C,0.100000*%
%ADD11C,0.120000*%
%ADD12C,2.000000*%
%ADD13R,1.700000X1.700000*%
%ADD14O,1.700000X1.700000*%
%ADD15R,2.000000X2.000000*%
%ADD16O,1.800000X1.800000*%
%ADD17O,1.500000X1.500000*%
%ADD18O,3.500000X3.500000*%
%ADD19R,2.000000X1.905000*%
%ADD20O,2.000000X1.905000*%
G04 APERTURE END LIST*
D10*
X172500000Y-44500000D02*
X170000000Y-44500000D01*
X170000000Y-44000000D01*
X167500000Y-44000000D01*
X167500000Y-43500000D01*
X172500000Y-43500000D01*
X172500000Y-44500000D01*
G36*
X172500000Y-44500000D02*
G01*
X170000000Y-44500000D01*
X170000000Y-44000000D01*
X167500000Y-44000000D01*
X167500000Y-43500000D01*
X172500000Y-43500000D01*
X172500000Y-44500000D01*
G37*
X172500000Y-38250000D02*
X167500000Y-38250000D01*
X167500000Y-37750000D01*
X170000000Y-37750000D01*
X170000000Y-37250000D01*
X172500000Y-37250000D01*
X172500000Y-38250000D01*
G36*
X172500000Y-38250000D02*
G01*
X167500000Y-38250000D01*
X167500000Y-37750000D01*
X170000000Y-37750000D01*
X170000000Y-37250000D01*
X172500000Y-37250000D01*
X172500000Y-38250000D01*
G37*
X172500000Y-28250000D02*
X170000000Y-28250000D01*
X170000000Y-28000000D01*
X167500000Y-28000000D01*
X167500000Y-27500000D01*
X170000000Y-27500000D01*
X170000000Y-27250000D01*
X172500000Y-27250000D01*
X172500000Y-28250000D01*
G36*
X172500000Y-28250000D02*
G01*
X170000000Y-28250000D01*
X170000000Y-28000000D01*
X167500000Y-28000000D01*
X167500000Y-27500000D01*
X170000000Y-27500000D01*
X170000000Y-27250000D01*
X172500000Y-27250000D01*
X172500000Y-28250000D01*
G37*
X172500000Y-34500000D02*
X167500000Y-34500000D01*
X167500000Y-34000000D01*
X170000000Y-34000000D01*
X170000000Y-33500000D01*
X172500000Y-33500000D01*
X172500000Y-34500000D01*
G36*
X172500000Y-34500000D02*
G01*
X167500000Y-34500000D01*
X167500000Y-34000000D01*
X170000000Y-34000000D01*
X170000000Y-33500000D01*
X172500000Y-33500000D01*
X172500000Y-34500000D01*
G37*
X172500000Y-40750000D02*
X170000000Y-40750000D01*
X170000000Y-40375000D01*
X167500000Y-40375000D01*
X167500000Y-40000000D01*
X170000000Y-40000000D01*
X170000000Y-39750000D01*
X172500000Y-39750000D01*
X172500000Y-40750000D01*
G36*
X172500000Y-40750000D02*
G01*
X170000000Y-40750000D01*
X170000000Y-40375000D01*
X167500000Y-40375000D01*
X167500000Y-40000000D01*
X170000000Y-40000000D01*
X170000000Y-39750000D01*
X172500000Y-39750000D01*
X172500000Y-40750000D01*
G37*
X172500000Y-43250000D02*
X167500000Y-43250000D01*
X167500000Y-42750000D01*
X170000000Y-42750000D01*
X170000000Y-42250000D01*
X172500000Y-42250000D01*
X172500000Y-43250000D01*
G36*
X172500000Y-43250000D02*
G01*
X167500000Y-43250000D01*
X167500000Y-42750000D01*
X170000000Y-42750000D01*
X170000000Y-42250000D01*
X172500000Y-42250000D01*
X172500000Y-43250000D01*
G37*
X172500000Y-32000000D02*
X170000000Y-32000000D01*
X170000000Y-31625000D01*
X167500000Y-31625000D01*
X167500000Y-31250000D01*
X170000000Y-31250000D01*
X170000000Y-31000000D01*
X172500000Y-31000000D01*
X172500000Y-32000000D01*
G36*
X172500000Y-32000000D02*
G01*
X170000000Y-32000000D01*
X170000000Y-31625000D01*
X167500000Y-31625000D01*
X167500000Y-31250000D01*
X170000000Y-31250000D01*
X170000000Y-31000000D01*
X172500000Y-31000000D01*
X172500000Y-32000000D01*
G37*
X172500000Y-47000000D02*
X167500000Y-47000000D01*
X167500000Y-46500000D01*
X170000000Y-46500000D01*
X170000000Y-46000000D01*
X172500000Y-46000000D01*
X172500000Y-47000000D01*
G36*
X172500000Y-47000000D02*
G01*
X167500000Y-47000000D01*
X167500000Y-46500000D01*
X170000000Y-46500000D01*
X170000000Y-46000000D01*
X172500000Y-46000000D01*
X172500000Y-47000000D01*
G37*
X172500000Y-52000000D02*
X167500000Y-52000000D01*
X167500000Y-51500000D01*
X170000000Y-51500000D01*
X170000000Y-51000000D01*
X172500000Y-51000000D01*
X172500000Y-52000000D01*
G36*
X172500000Y-52000000D02*
G01*
X167500000Y-52000000D01*
X167500000Y-51500000D01*
X170000000Y-51500000D01*
X170000000Y-51000000D01*
X172500000Y-51000000D01*
X172500000Y-52000000D01*
G37*
X172500000Y-49500000D02*
X170000000Y-49500000D01*
X170000000Y-49125000D01*
X167500000Y-49125000D01*
X167500000Y-48750000D01*
X170000000Y-48750000D01*
X170000000Y-48500000D01*
X172500000Y-48500000D01*
X172500000Y-49500000D01*
G36*
X172500000Y-49500000D02*
G01*
X170000000Y-49500000D01*
X170000000Y-49125000D01*
X167500000Y-49125000D01*
X167500000Y-48750000D01*
X170000000Y-48750000D01*
X170000000Y-48500000D01*
X172500000Y-48500000D01*
X172500000Y-49500000D01*
G37*
X172500000Y-35750000D02*
X170000000Y-35750000D01*
X170000000Y-35250000D01*
X167500000Y-35250000D01*
X167500000Y-34750000D01*
X172500000Y-34750000D01*
X172500000Y-35750000D01*
G36*
X172500000Y-35750000D02*
G01*
X170000000Y-35750000D01*
X170000000Y-35250000D01*
X167500000Y-35250000D01*
X167500000Y-34750000D01*
X172500000Y-34750000D01*
X172500000Y-35750000D01*
G37*
X172500000Y-42000000D02*
X170000000Y-42000000D01*
X170000000Y-41750000D01*
X167500000Y-41750000D01*
X167500000Y-41375000D01*
X170000000Y-41375000D01*
X170000000Y-41000000D01*
X172500000Y-41000000D01*
X172500000Y-42000000D01*
G36*
X172500000Y-42000000D02*
G01*
X170000000Y-42000000D01*
X170000000Y-41750000D01*
X167500000Y-41750000D01*
X167500000Y-41375000D01*
X170000000Y-41375000D01*
X170000000Y-41000000D01*
X172500000Y-41000000D01*
X172500000Y-42000000D01*
G37*
X172500000Y-50750000D02*
X170000000Y-50750000D01*
X170000000Y-50500000D01*
X167500000Y-50500000D01*
X167500000Y-50125000D01*
X170000000Y-50125000D01*
X170000000Y-49750000D01*
X172500000Y-49750000D01*
X172500000Y-50750000D01*
G36*
X172500000Y-50750000D02*
G01*
X170000000Y-50750000D01*
X170000000Y-50500000D01*
X167500000Y-50500000D01*
X167500000Y-50125000D01*
X170000000Y-50125000D01*
X170000000Y-49750000D01*
X172500000Y-49750000D01*
X172500000Y-50750000D01*
G37*
X172500000Y-33250000D02*
X170000000Y-33250000D01*
X170000000Y-33000000D01*
X167500000Y-33000000D01*
X167500000Y-32625000D01*
X170000000Y-32625000D01*
X170000000Y-32250000D01*
X172500000Y-32250000D01*
X172500000Y-33250000D01*
G36*
X172500000Y-33250000D02*
G01*
X170000000Y-33250000D01*
X170000000Y-33000000D01*
X167500000Y-33000000D01*
X167500000Y-32625000D01*
X170000000Y-32625000D01*
X170000000Y-32250000D01*
X172500000Y-32250000D01*
X172500000Y-33250000D01*
G37*
X172500000Y-39500000D02*
X170000000Y-39500000D01*
X170000000Y-39000000D01*
X167500000Y-39000000D01*
X167500000Y-38500000D01*
X172500000Y-38500000D01*
X172500000Y-39500000D01*
G36*
X172500000Y-39500000D02*
G01*
X170000000Y-39500000D01*
X170000000Y-39000000D01*
X167500000Y-39000000D01*
X167500000Y-38500000D01*
X172500000Y-38500000D01*
X172500000Y-39500000D01*
G37*
X172500000Y-48250000D02*
X170000000Y-48250000D01*
X170000000Y-47750000D01*
X167500000Y-47750000D01*
X167500000Y-47250000D01*
X172500000Y-47250000D01*
X172500000Y-48250000D01*
G36*
X172500000Y-48250000D02*
G01*
X170000000Y-48250000D01*
X170000000Y-47750000D01*
X167500000Y-47750000D01*
X167500000Y-47250000D01*
X172500000Y-47250000D01*
X172500000Y-48250000D01*
G37*
X172500000Y-29500000D02*
X167500000Y-29500000D01*
X167500000Y-29000000D01*
X170000000Y-29000000D01*
X170000000Y-28500000D01*
X172500000Y-28500000D01*
X172500000Y-29500000D01*
G36*
X172500000Y-29500000D02*
G01*
X167500000Y-29500000D01*
X167500000Y-29000000D01*
X170000000Y-29000000D01*
X170000000Y-28500000D01*
X172500000Y-28500000D01*
X172500000Y-29500000D01*
G37*
X172500000Y-30750000D02*
X170000000Y-30750000D01*
X170000000Y-30250000D01*
X167500000Y-30250000D01*
X167500000Y-29750000D01*
X172500000Y-29750000D01*
X172500000Y-30750000D01*
G36*
X172500000Y-30750000D02*
G01*
X170000000Y-30750000D01*
X170000000Y-30250000D01*
X167500000Y-30250000D01*
X167500000Y-29750000D01*
X172500000Y-29750000D01*
X172500000Y-30750000D01*
G37*
X172500000Y-27000000D02*
X170000000Y-27000000D01*
X170000000Y-26500000D01*
X167500000Y-26500000D01*
X167500000Y-26000000D01*
X172500000Y-26000000D01*
X172500000Y-27000000D01*
G36*
X172500000Y-27000000D02*
G01*
X170000000Y-27000000D01*
X170000000Y-26500000D01*
X167500000Y-26500000D01*
X167500000Y-26000000D01*
X172500000Y-26000000D01*
X172500000Y-27000000D01*
G37*
X172500000Y-37000000D02*
X170000000Y-37000000D01*
X170000000Y-36750000D01*
X167500000Y-36750000D01*
X167500000Y-36250000D01*
X170000000Y-36250000D01*
X170000000Y-36000000D01*
X172500000Y-36000000D01*
X172500000Y-37000000D01*
G36*
X172500000Y-37000000D02*
G01*
X170000000Y-37000000D01*
X170000000Y-36750000D01*
X167500000Y-36750000D01*
X167500000Y-36250000D01*
X170000000Y-36250000D01*
X170000000Y-36000000D01*
X172500000Y-36000000D01*
X172500000Y-37000000D01*
G37*
X172500000Y-45750000D02*
X170000000Y-45750000D01*
X170000000Y-45500000D01*
X167500000Y-45500000D01*
X167500000Y-45000000D01*
X170000000Y-45000000D01*
X170000000Y-44750000D01*
X172500000Y-44750000D01*
X172500000Y-45750000D01*
G36*
X172500000Y-45750000D02*
G01*
X170000000Y-45750000D01*
X170000000Y-45500000D01*
X167500000Y-45500000D01*
X167500000Y-45000000D01*
X170000000Y-45000000D01*
X170000000Y-44750000D01*
X172500000Y-44750000D01*
X172500000Y-45750000D01*
G37*
X166872419Y-26303884D02*
X165872419Y-26303884D01*
X165872419Y-26303884D02*
X165872419Y-26684836D01*
X165872419Y-26684836D02*
X165920038Y-26780074D01*
X165920038Y-26780074D02*
X165967657Y-26827693D01*
X165967657Y-26827693D02*
X166062895Y-26875312D01*
X166062895Y-26875312D02*
X166205752Y-26875312D01*
X166205752Y-26875312D02*
X166300990Y-26827693D01*
X166300990Y-26827693D02*
X166348609Y-26780074D01*
X166348609Y-26780074D02*
X166396228Y-26684836D01*
X166396228Y-26684836D02*
X166396228Y-26303884D01*
X166872419Y-27303884D02*
X166205752Y-27303884D01*
X165872419Y-27303884D02*
X165920038Y-27256265D01*
X165920038Y-27256265D02*
X165967657Y-27303884D01*
X165967657Y-27303884D02*
X165920038Y-27351503D01*
X165920038Y-27351503D02*
X165872419Y-27303884D01*
X165872419Y-27303884D02*
X165967657Y-27303884D01*
X166824800Y-28208645D02*
X166872419Y-28113407D01*
X166872419Y-28113407D02*
X166872419Y-27922931D01*
X166872419Y-27922931D02*
X166824800Y-27827693D01*
X166824800Y-27827693D02*
X166777180Y-27780074D01*
X166777180Y-27780074D02*
X166681942Y-27732455D01*
X166681942Y-27732455D02*
X166396228Y-27732455D01*
X166396228Y-27732455D02*
X166300990Y-27780074D01*
X166300990Y-27780074D02*
X166253371Y-27827693D01*
X166253371Y-27827693D02*
X166205752Y-27922931D01*
X166205752Y-27922931D02*
X166205752Y-28113407D01*
X166205752Y-28113407D02*
X166253371Y-28208645D01*
X166872419Y-28780074D02*
X166824800Y-28684836D01*
X166824800Y-28684836D02*
X166777180Y-28637217D01*
X166777180Y-28637217D02*
X166681942Y-28589598D01*
X166681942Y-28589598D02*
X166396228Y-28589598D01*
X166396228Y-28589598D02*
X166300990Y-28637217D01*
X166300990Y-28637217D02*
X166253371Y-28684836D01*
X166253371Y-28684836D02*
X166205752Y-28780074D01*
X166205752Y-28780074D02*
X166205752Y-28922931D01*
X166205752Y-28922931D02*
X166253371Y-29018169D01*
X166253371Y-29018169D02*
X166300990Y-29065788D01*
X166300990Y-29065788D02*
X166396228Y-29113407D01*
X166396228Y-29113407D02*
X166681942Y-29113407D01*
X166681942Y-29113407D02*
X166777180Y-29065788D01*
X166777180Y-29065788D02*
X166824800Y-29018169D01*
X166824800Y-29018169D02*
X166872419Y-28922931D01*
X166872419Y-28922931D02*
X166872419Y-28780074D01*
X166872419Y-30303884D02*
X165872419Y-30303884D01*
X165872419Y-30303884D02*
X165872419Y-30684836D01*
X165872419Y-30684836D02*
X165920038Y-30780074D01*
X165920038Y-30780074D02*
X165967657Y-30827693D01*
X165967657Y-30827693D02*
X166062895Y-30875312D01*
X166062895Y-30875312D02*
X166205752Y-30875312D01*
X166205752Y-30875312D02*
X166300990Y-30827693D01*
X166300990Y-30827693D02*
X166348609Y-30780074D01*
X166348609Y-30780074D02*
X166396228Y-30684836D01*
X166396228Y-30684836D02*
X166396228Y-30303884D01*
X166872419Y-31303884D02*
X166205752Y-31303884D01*
X165872419Y-31303884D02*
X165920038Y-31256265D01*
X165920038Y-31256265D02*
X165967657Y-31303884D01*
X165967657Y-31303884D02*
X165920038Y-31351503D01*
X165920038Y-31351503D02*
X165872419Y-31303884D01*
X165872419Y-31303884D02*
X165967657Y-31303884D01*
X166872419Y-32208645D02*
X166348609Y-32208645D01*
X166348609Y-32208645D02*
X166253371Y-32161026D01*
X166253371Y-32161026D02*
X166205752Y-32065788D01*
X166205752Y-32065788D02*
X166205752Y-31875312D01*
X166205752Y-31875312D02*
X166253371Y-31780074D01*
X166824800Y-32208645D02*
X166872419Y-32113407D01*
X166872419Y-32113407D02*
X166872419Y-31875312D01*
X166872419Y-31875312D02*
X166824800Y-31780074D01*
X166824800Y-31780074D02*
X166729561Y-31732455D01*
X166729561Y-31732455D02*
X166634323Y-31732455D01*
X166634323Y-31732455D02*
X166539085Y-31780074D01*
X166539085Y-31780074D02*
X166491466Y-31875312D01*
X166491466Y-31875312D02*
X166491466Y-32113407D01*
X166491466Y-32113407D02*
X166443847Y-32208645D01*
X166205752Y-32684836D02*
X166872419Y-32684836D01*
X166300990Y-32684836D02*
X166253371Y-32732455D01*
X166253371Y-32732455D02*
X166205752Y-32827693D01*
X166205752Y-32827693D02*
X166205752Y-32970550D01*
X166205752Y-32970550D02*
X166253371Y-33065788D01*
X166253371Y-33065788D02*
X166348609Y-33113407D01*
X166348609Y-33113407D02*
X166872419Y-33113407D01*
X166872419Y-33732455D02*
X166824800Y-33637217D01*
X166824800Y-33637217D02*
X166777180Y-33589598D01*
X166777180Y-33589598D02*
X166681942Y-33541979D01*
X166681942Y-33541979D02*
X166396228Y-33541979D01*
X166396228Y-33541979D02*
X166300990Y-33589598D01*
X166300990Y-33589598D02*
X166253371Y-33637217D01*
X166253371Y-33637217D02*
X166205752Y-33732455D01*
X166205752Y-33732455D02*
X166205752Y-33875312D01*
X166205752Y-33875312D02*
X166253371Y-33970550D01*
X166253371Y-33970550D02*
X166300990Y-34018169D01*
X166300990Y-34018169D02*
X166396228Y-34065788D01*
X166396228Y-34065788D02*
X166681942Y-34065788D01*
X166681942Y-34065788D02*
X166777180Y-34018169D01*
X166777180Y-34018169D02*
X166824800Y-33970550D01*
X166824800Y-33970550D02*
X166872419Y-33875312D01*
X166872419Y-33875312D02*
X166872419Y-33732455D01*
X166205752Y-35161027D02*
X166872419Y-35399122D01*
X166872419Y-35399122D02*
X166205752Y-35637217D01*
X165872419Y-36208646D02*
X165872419Y-36303884D01*
X165872419Y-36303884D02*
X165920038Y-36399122D01*
X165920038Y-36399122D02*
X165967657Y-36446741D01*
X165967657Y-36446741D02*
X166062895Y-36494360D01*
X166062895Y-36494360D02*
X166253371Y-36541979D01*
X166253371Y-36541979D02*
X166491466Y-36541979D01*
X166491466Y-36541979D02*
X166681942Y-36494360D01*
X166681942Y-36494360D02*
X166777180Y-36446741D01*
X166777180Y-36446741D02*
X166824800Y-36399122D01*
X166824800Y-36399122D02*
X166872419Y-36303884D01*
X166872419Y-36303884D02*
X166872419Y-36208646D01*
X166872419Y-36208646D02*
X166824800Y-36113408D01*
X166824800Y-36113408D02*
X166777180Y-36065789D01*
X166777180Y-36065789D02*
X166681942Y-36018170D01*
X166681942Y-36018170D02*
X166491466Y-35970551D01*
X166491466Y-35970551D02*
X166253371Y-35970551D01*
X166253371Y-35970551D02*
X166062895Y-36018170D01*
X166062895Y-36018170D02*
X165967657Y-36065789D01*
X165967657Y-36065789D02*
X165920038Y-36113408D01*
X165920038Y-36113408D02*
X165872419Y-36208646D01*
X166777180Y-36970551D02*
X166824800Y-37018170D01*
X166824800Y-37018170D02*
X166872419Y-36970551D01*
X166872419Y-36970551D02*
X166824800Y-36922932D01*
X166824800Y-36922932D02*
X166777180Y-36970551D01*
X166777180Y-36970551D02*
X166872419Y-36970551D01*
X165967657Y-37399122D02*
X165920038Y-37446741D01*
X165920038Y-37446741D02*
X165872419Y-37541979D01*
X165872419Y-37541979D02*
X165872419Y-37780074D01*
X165872419Y-37780074D02*
X165920038Y-37875312D01*
X165920038Y-37875312D02*
X165967657Y-37922931D01*
X165967657Y-37922931D02*
X166062895Y-37970550D01*
X166062895Y-37970550D02*
X166158133Y-37970550D01*
X166158133Y-37970550D02*
X166300990Y-37922931D01*
X166300990Y-37922931D02*
X166872419Y-37351503D01*
X166872419Y-37351503D02*
X166872419Y-37970550D01*
X167857142Y-66433609D02*
X168190475Y-66433609D01*
X168190475Y-66957419D02*
X168190475Y-65957419D01*
X168190475Y-65957419D02*
X167714285Y-65957419D01*
X167333332Y-66957419D02*
X167333332Y-65957419D01*
X167333332Y-65957419D02*
X166761904Y-66957419D01*
X166761904Y-66957419D02*
X166761904Y-65957419D01*
X165761904Y-66957419D02*
X166333332Y-66957419D01*
X166047618Y-66957419D02*
X166047618Y-65957419D01*
X166047618Y-65957419D02*
X166142856Y-66100276D01*
X166142856Y-66100276D02*
X166238094Y-66195514D01*
X166238094Y-66195514D02*
X166333332Y-66243133D01*
X140428571Y-66505038D02*
X140523809Y-66457419D01*
X140523809Y-66457419D02*
X140666666Y-66457419D01*
X140666666Y-66457419D02*
X140809523Y-66505038D01*
X140809523Y-66505038D02*
X140904761Y-66600276D01*
X140904761Y-66600276D02*
X140952380Y-66695514D01*
X140952380Y-66695514D02*
X140999999Y-66885990D01*
X140999999Y-66885990D02*
X140999999Y-67028847D01*
X140999999Y-67028847D02*
X140952380Y-67219323D01*
X140952380Y-67219323D02*
X140904761Y-67314561D01*
X140904761Y-67314561D02*
X140809523Y-67409800D01*
X140809523Y-67409800D02*
X140666666Y-67457419D01*
X140666666Y-67457419D02*
X140571428Y-67457419D01*
X140571428Y-67457419D02*
X140428571Y-67409800D01*
X140428571Y-67409800D02*
X140380952Y-67362180D01*
X140380952Y-67362180D02*
X140380952Y-67028847D01*
X140380952Y-67028847D02*
X140571428Y-67028847D01*
X139952380Y-67457419D02*
X139952380Y-66457419D01*
X139523809Y-67409800D02*
X139380952Y-67457419D01*
X139380952Y-67457419D02*
X139142857Y-67457419D01*
X139142857Y-67457419D02*
X139047619Y-67409800D01*
X139047619Y-67409800D02*
X139000000Y-67362180D01*
X139000000Y-67362180D02*
X138952381Y-67266942D01*
X138952381Y-67266942D02*
X138952381Y-67171704D01*
X138952381Y-67171704D02*
X139000000Y-67076466D01*
X139000000Y-67076466D02*
X139047619Y-67028847D01*
X139047619Y-67028847D02*
X139142857Y-66981228D01*
X139142857Y-66981228D02*
X139333333Y-66933609D01*
X139333333Y-66933609D02*
X139428571Y-66885990D01*
X139428571Y-66885990D02*
X139476190Y-66838371D01*
X139476190Y-66838371D02*
X139523809Y-66743133D01*
X139523809Y-66743133D02*
X139523809Y-66647895D01*
X139523809Y-66647895D02*
X139476190Y-66552657D01*
X139476190Y-66552657D02*
X139428571Y-66505038D01*
X139428571Y-66505038D02*
X139333333Y-66457419D01*
X139333333Y-66457419D02*
X139095238Y-66457419D01*
X139095238Y-66457419D02*
X138952381Y-66505038D01*
X138000000Y-67457419D02*
X138571428Y-67457419D01*
X138285714Y-67457419D02*
X138285714Y-66457419D01*
X138285714Y-66457419D02*
X138380952Y-66600276D01*
X138380952Y-66600276D02*
X138476190Y-66695514D01*
X138476190Y-66695514D02*
X138571428Y-66743133D01*
X119952380Y-67457419D02*
X119952380Y-66457419D01*
X119952380Y-66457419D02*
X119714285Y-66457419D01*
X119714285Y-66457419D02*
X119571428Y-66505038D01*
X119571428Y-66505038D02*
X119476190Y-66600276D01*
X119476190Y-66600276D02*
X119428571Y-66695514D01*
X119428571Y-66695514D02*
X119380952Y-66885990D01*
X119380952Y-66885990D02*
X119380952Y-67028847D01*
X119380952Y-67028847D02*
X119428571Y-67219323D01*
X119428571Y-67219323D02*
X119476190Y-67314561D01*
X119476190Y-67314561D02*
X119571428Y-67409800D01*
X119571428Y-67409800D02*
X119714285Y-67457419D01*
X119714285Y-67457419D02*
X119952380Y-67457419D01*
X118952380Y-67457419D02*
X118952380Y-66457419D01*
X118523809Y-67409800D02*
X118380952Y-67457419D01*
X118380952Y-67457419D02*
X118142857Y-67457419D01*
X118142857Y-67457419D02*
X118047619Y-67409800D01*
X118047619Y-67409800D02*
X118000000Y-67362180D01*
X118000000Y-67362180D02*
X117952381Y-67266942D01*
X117952381Y-67266942D02*
X117952381Y-67171704D01*
X117952381Y-67171704D02*
X118000000Y-67076466D01*
X118000000Y-67076466D02*
X118047619Y-67028847D01*
X118047619Y-67028847D02*
X118142857Y-66981228D01*
X118142857Y-66981228D02*
X118333333Y-66933609D01*
X118333333Y-66933609D02*
X118428571Y-66885990D01*
X118428571Y-66885990D02*
X118476190Y-66838371D01*
X118476190Y-66838371D02*
X118523809Y-66743133D01*
X118523809Y-66743133D02*
X118523809Y-66647895D01*
X118523809Y-66647895D02*
X118476190Y-66552657D01*
X118476190Y-66552657D02*
X118428571Y-66505038D01*
X118428571Y-66505038D02*
X118333333Y-66457419D01*
X118333333Y-66457419D02*
X118095238Y-66457419D01*
X118095238Y-66457419D02*
X117952381Y-66505038D01*
X117000000Y-67457419D02*
X117571428Y-67457419D01*
X117285714Y-67457419D02*
X117285714Y-66457419D01*
X117285714Y-66457419D02*
X117380952Y-66600276D01*
X117380952Y-66600276D02*
X117476190Y-66695514D01*
X117476190Y-66695514D02*
X117571428Y-66743133D01*
X115738094Y-74457419D02*
X115738094Y-73457419D01*
X115738094Y-73457419D02*
X115499999Y-73457419D01*
X115499999Y-73457419D02*
X115357142Y-73505038D01*
X115357142Y-73505038D02*
X115261904Y-73600276D01*
X115261904Y-73600276D02*
X115214285Y-73695514D01*
X115214285Y-73695514D02*
X115166666Y-73885990D01*
X115166666Y-73885990D02*
X115166666Y-74028847D01*
X115166666Y-74028847D02*
X115214285Y-74219323D01*
X115214285Y-74219323D02*
X115261904Y-74314561D01*
X115261904Y-74314561D02*
X115357142Y-74409800D01*
X115357142Y-74409800D02*
X115499999Y-74457419D01*
X115499999Y-74457419D02*
X115738094Y-74457419D01*
X114214285Y-74457419D02*
X114785713Y-74457419D01*
X114499999Y-74457419D02*
X114499999Y-73457419D01*
X114499999Y-73457419D02*
X114595237Y-73600276D01*
X114595237Y-73600276D02*
X114690475Y-73695514D01*
X114690475Y-73695514D02*
X114785713Y-73743133D01*
X108166666Y-74362180D02*
X108214285Y-74409800D01*
X108214285Y-74409800D02*
X108357142Y-74457419D01*
X108357142Y-74457419D02*
X108452380Y-74457419D01*
X108452380Y-74457419D02*
X108595237Y-74409800D01*
X108595237Y-74409800D02*
X108690475Y-74314561D01*
X108690475Y-74314561D02*
X108738094Y-74219323D01*
X108738094Y-74219323D02*
X108785713Y-74028847D01*
X108785713Y-74028847D02*
X108785713Y-73885990D01*
X108785713Y-73885990D02*
X108738094Y-73695514D01*
X108738094Y-73695514D02*
X108690475Y-73600276D01*
X108690475Y-73600276D02*
X108595237Y-73505038D01*
X108595237Y-73505038D02*
X108452380Y-73457419D01*
X108452380Y-73457419D02*
X108357142Y-73457419D01*
X108357142Y-73457419D02*
X108214285Y-73505038D01*
X108214285Y-73505038D02*
X108166666Y-73552657D01*
X107214285Y-74457419D02*
X107785713Y-74457419D01*
X107499999Y-74457419D02*
X107499999Y-73457419D01*
X107499999Y-73457419D02*
X107595237Y-73600276D01*
X107595237Y-73600276D02*
X107690475Y-73695514D01*
X107690475Y-73695514D02*
X107785713Y-73743133D01*
X112380952Y-67362180D02*
X112428571Y-67409800D01*
X112428571Y-67409800D02*
X112571428Y-67457419D01*
X112571428Y-67457419D02*
X112666666Y-67457419D01*
X112666666Y-67457419D02*
X112809523Y-67409800D01*
X112809523Y-67409800D02*
X112904761Y-67314561D01*
X112904761Y-67314561D02*
X112952380Y-67219323D01*
X112952380Y-67219323D02*
X112999999Y-67028847D01*
X112999999Y-67028847D02*
X112999999Y-66885990D01*
X112999999Y-66885990D02*
X112952380Y-66695514D01*
X112952380Y-66695514D02*
X112904761Y-66600276D01*
X112904761Y-66600276D02*
X112809523Y-66505038D01*
X112809523Y-66505038D02*
X112666666Y-66457419D01*
X112666666Y-66457419D02*
X112571428Y-66457419D01*
X112571428Y-66457419D02*
X112428571Y-66505038D01*
X112428571Y-66505038D02*
X112380952Y-66552657D01*
X111952380Y-67457419D02*
X111952380Y-66457419D01*
X111523809Y-67409800D02*
X111380952Y-67457419D01*
X111380952Y-67457419D02*
X111142857Y-67457419D01*
X111142857Y-67457419D02*
X111047619Y-67409800D01*
X111047619Y-67409800D02*
X111000000Y-67362180D01*
X111000000Y-67362180D02*
X110952381Y-67266942D01*
X110952381Y-67266942D02*
X110952381Y-67171704D01*
X110952381Y-67171704D02*
X111000000Y-67076466D01*
X111000000Y-67076466D02*
X111047619Y-67028847D01*
X111047619Y-67028847D02*
X111142857Y-66981228D01*
X111142857Y-66981228D02*
X111333333Y-66933609D01*
X111333333Y-66933609D02*
X111428571Y-66885990D01*
X111428571Y-66885990D02*
X111476190Y-66838371D01*
X111476190Y-66838371D02*
X111523809Y-66743133D01*
X111523809Y-66743133D02*
X111523809Y-66647895D01*
X111523809Y-66647895D02*
X111476190Y-66552657D01*
X111476190Y-66552657D02*
X111428571Y-66505038D01*
X111428571Y-66505038D02*
X111333333Y-66457419D01*
X111333333Y-66457419D02*
X111095238Y-66457419D01*
X111095238Y-66457419D02*
X110952381Y-66505038D01*
X110000000Y-67457419D02*
X110571428Y-67457419D01*
X110285714Y-67457419D02*
X110285714Y-66457419D01*
X110285714Y-66457419D02*
X110380952Y-66600276D01*
X110380952Y-66600276D02*
X110476190Y-66695514D01*
X110476190Y-66695514D02*
X110571428Y-66743133D01*
X122690475Y-73933609D02*
X122357142Y-73933609D01*
X122214285Y-74457419D02*
X122690475Y-74457419D01*
X122690475Y-74457419D02*
X122690475Y-73457419D01*
X122690475Y-73457419D02*
X122214285Y-73457419D01*
X121261904Y-74457419D02*
X121833332Y-74457419D01*
X121547618Y-74457419D02*
X121547618Y-73457419D01*
X121547618Y-73457419D02*
X121642856Y-73600276D01*
X121642856Y-73600276D02*
X121738094Y-73695514D01*
X121738094Y-73695514D02*
X121833332Y-73743133D01*
X165857142Y-73933609D02*
X166190475Y-73933609D01*
X166190475Y-74457419D02*
X166190475Y-73457419D01*
X166190475Y-73457419D02*
X165714285Y-73457419D01*
X165333332Y-74457419D02*
X165333332Y-73457419D01*
X165333332Y-73457419D02*
X164761904Y-74457419D01*
X164761904Y-74457419D02*
X164761904Y-73457419D01*
X164380951Y-73457419D02*
X163761904Y-73457419D01*
X163761904Y-73457419D02*
X164095237Y-73838371D01*
X164095237Y-73838371D02*
X163952380Y-73838371D01*
X163952380Y-73838371D02*
X163857142Y-73885990D01*
X163857142Y-73885990D02*
X163809523Y-73933609D01*
X163809523Y-73933609D02*
X163761904Y-74028847D01*
X163761904Y-74028847D02*
X163761904Y-74266942D01*
X163761904Y-74266942D02*
X163809523Y-74362180D01*
X163809523Y-74362180D02*
X163857142Y-74409800D01*
X163857142Y-74409800D02*
X163952380Y-74457419D01*
X163952380Y-74457419D02*
X164238094Y-74457419D01*
X164238094Y-74457419D02*
X164333332Y-74409800D01*
X164333332Y-74409800D02*
X164380951Y-74362180D01*
X143714285Y-74171704D02*
X143238095Y-74171704D01*
X143809523Y-74457419D02*
X143476190Y-73457419D01*
X143476190Y-73457419D02*
X143142857Y-74457419D01*
X142285714Y-74457419D02*
X142857142Y-74457419D01*
X142571428Y-74457419D02*
X142571428Y-73457419D01*
X142571428Y-73457419D02*
X142666666Y-73600276D01*
X142666666Y-73600276D02*
X142761904Y-73695514D01*
X142761904Y-73695514D02*
X142857142Y-73743133D01*
X160857142Y-66433609D02*
X161190475Y-66433609D01*
X161190475Y-66957419D02*
X161190475Y-65957419D01*
X161190475Y-65957419D02*
X160714285Y-65957419D01*
X160333332Y-66957419D02*
X160333332Y-65957419D01*
X160333332Y-65957419D02*
X159761904Y-66957419D01*
X159761904Y-66957419D02*
X159761904Y-65957419D01*
X159095237Y-65957419D02*
X158999999Y-65957419D01*
X158999999Y-65957419D02*
X158904761Y-66005038D01*
X158904761Y-66005038D02*
X158857142Y-66052657D01*
X158857142Y-66052657D02*
X158809523Y-66147895D01*
X158809523Y-66147895D02*
X158761904Y-66338371D01*
X158761904Y-66338371D02*
X158761904Y-66576466D01*
X158761904Y-66576466D02*
X158809523Y-66766942D01*
X158809523Y-66766942D02*
X158857142Y-66862180D01*
X158857142Y-66862180D02*
X158904761Y-66909800D01*
X158904761Y-66909800D02*
X158999999Y-66957419D01*
X158999999Y-66957419D02*
X159095237Y-66957419D01*
X159095237Y-66957419D02*
X159190475Y-66909800D01*
X159190475Y-66909800D02*
X159238094Y-66862180D01*
X159238094Y-66862180D02*
X159285713Y-66766942D01*
X159285713Y-66766942D02*
X159333332Y-66576466D01*
X159333332Y-66576466D02*
X159333332Y-66338371D01*
X159333332Y-66338371D02*
X159285713Y-66147895D01*
X159285713Y-66147895D02*
X159238094Y-66052657D01*
X159238094Y-66052657D02*
X159190475Y-66005038D01*
X159190475Y-66005038D02*
X159095237Y-65957419D01*
X150404761Y-73933609D02*
X150261904Y-73981228D01*
X150261904Y-73981228D02*
X150214285Y-74028847D01*
X150214285Y-74028847D02*
X150166666Y-74124085D01*
X150166666Y-74124085D02*
X150166666Y-74266942D01*
X150166666Y-74266942D02*
X150214285Y-74362180D01*
X150214285Y-74362180D02*
X150261904Y-74409800D01*
X150261904Y-74409800D02*
X150357142Y-74457419D01*
X150357142Y-74457419D02*
X150738094Y-74457419D01*
X150738094Y-74457419D02*
X150738094Y-73457419D01*
X150738094Y-73457419D02*
X150404761Y-73457419D01*
X150404761Y-73457419D02*
X150309523Y-73505038D01*
X150309523Y-73505038D02*
X150261904Y-73552657D01*
X150261904Y-73552657D02*
X150214285Y-73647895D01*
X150214285Y-73647895D02*
X150214285Y-73743133D01*
X150214285Y-73743133D02*
X150261904Y-73838371D01*
X150261904Y-73838371D02*
X150309523Y-73885990D01*
X150309523Y-73885990D02*
X150404761Y-73933609D01*
X150404761Y-73933609D02*
X150738094Y-73933609D01*
X149214285Y-74457419D02*
X149785713Y-74457419D01*
X149499999Y-74457419D02*
X149499999Y-73457419D01*
X149499999Y-73457419D02*
X149595237Y-73600276D01*
X149595237Y-73600276D02*
X149690475Y-73695514D01*
X149690475Y-73695514D02*
X149785713Y-73743133D01*
X147928570Y-67171704D02*
X147452380Y-67171704D01*
X148023808Y-67457419D02*
X147690475Y-66457419D01*
X147690475Y-66457419D02*
X147357142Y-67457419D01*
X147023808Y-67457419D02*
X147023808Y-66457419D01*
X146595237Y-67409800D02*
X146452380Y-67457419D01*
X146452380Y-67457419D02*
X146214285Y-67457419D01*
X146214285Y-67457419D02*
X146119047Y-67409800D01*
X146119047Y-67409800D02*
X146071428Y-67362180D01*
X146071428Y-67362180D02*
X146023809Y-67266942D01*
X146023809Y-67266942D02*
X146023809Y-67171704D01*
X146023809Y-67171704D02*
X146071428Y-67076466D01*
X146071428Y-67076466D02*
X146119047Y-67028847D01*
X146119047Y-67028847D02*
X146214285Y-66981228D01*
X146214285Y-66981228D02*
X146404761Y-66933609D01*
X146404761Y-66933609D02*
X146499999Y-66885990D01*
X146499999Y-66885990D02*
X146547618Y-66838371D01*
X146547618Y-66838371D02*
X146595237Y-66743133D01*
X146595237Y-66743133D02*
X146595237Y-66647895D01*
X146595237Y-66647895D02*
X146547618Y-66552657D01*
X146547618Y-66552657D02*
X146499999Y-66505038D01*
X146499999Y-66505038D02*
X146404761Y-66457419D01*
X146404761Y-66457419D02*
X146166666Y-66457419D01*
X146166666Y-66457419D02*
X146023809Y-66505038D01*
X145071428Y-67457419D02*
X145642856Y-67457419D01*
X145357142Y-67457419D02*
X145357142Y-66457419D01*
X145357142Y-66457419D02*
X145452380Y-66600276D01*
X145452380Y-66600276D02*
X145547618Y-66695514D01*
X145547618Y-66695514D02*
X145642856Y-66743133D01*
X129333333Y-73933609D02*
X129666666Y-73933609D01*
X129666666Y-74457419D02*
X129666666Y-73457419D01*
X129666666Y-73457419D02*
X129190476Y-73457419D01*
X128285714Y-74457419D02*
X128857142Y-74457419D01*
X128571428Y-74457419D02*
X128571428Y-73457419D01*
X128571428Y-73457419D02*
X128666666Y-73600276D01*
X128666666Y-73600276D02*
X128761904Y-73695514D01*
X128761904Y-73695514D02*
X128857142Y-73743133D01*
X133547618Y-66933609D02*
X133880951Y-66933609D01*
X133880951Y-67457419D02*
X133880951Y-66457419D01*
X133880951Y-66457419D02*
X133404761Y-66457419D01*
X133023808Y-67457419D02*
X133023808Y-66457419D01*
X132595237Y-67409800D02*
X132452380Y-67457419D01*
X132452380Y-67457419D02*
X132214285Y-67457419D01*
X132214285Y-67457419D02*
X132119047Y-67409800D01*
X132119047Y-67409800D02*
X132071428Y-67362180D01*
X132071428Y-67362180D02*
X132023809Y-67266942D01*
X132023809Y-67266942D02*
X132023809Y-67171704D01*
X132023809Y-67171704D02*
X132071428Y-67076466D01*
X132071428Y-67076466D02*
X132119047Y-67028847D01*
X132119047Y-67028847D02*
X132214285Y-66981228D01*
X132214285Y-66981228D02*
X132404761Y-66933609D01*
X132404761Y-66933609D02*
X132499999Y-66885990D01*
X132499999Y-66885990D02*
X132547618Y-66838371D01*
X132547618Y-66838371D02*
X132595237Y-66743133D01*
X132595237Y-66743133D02*
X132595237Y-66647895D01*
X132595237Y-66647895D02*
X132547618Y-66552657D01*
X132547618Y-66552657D02*
X132499999Y-66505038D01*
X132499999Y-66505038D02*
X132404761Y-66457419D01*
X132404761Y-66457419D02*
X132166666Y-66457419D01*
X132166666Y-66457419D02*
X132023809Y-66505038D01*
X131071428Y-67457419D02*
X131642856Y-67457419D01*
X131357142Y-67457419D02*
X131357142Y-66457419D01*
X131357142Y-66457419D02*
X131452380Y-66600276D01*
X131452380Y-66600276D02*
X131547618Y-66695514D01*
X131547618Y-66695514D02*
X131642856Y-66743133D01*
X158857142Y-73933609D02*
X159190475Y-73933609D01*
X159190475Y-74457419D02*
X159190475Y-73457419D01*
X159190475Y-73457419D02*
X158714285Y-73457419D01*
X158333332Y-74457419D02*
X158333332Y-73457419D01*
X158333332Y-73457419D02*
X157761904Y-74457419D01*
X157761904Y-74457419D02*
X157761904Y-73457419D01*
X157333332Y-73552657D02*
X157285713Y-73505038D01*
X157285713Y-73505038D02*
X157190475Y-73457419D01*
X157190475Y-73457419D02*
X156952380Y-73457419D01*
X156952380Y-73457419D02*
X156857142Y-73505038D01*
X156857142Y-73505038D02*
X156809523Y-73552657D01*
X156809523Y-73552657D02*
X156761904Y-73647895D01*
X156761904Y-73647895D02*
X156761904Y-73743133D01*
X156761904Y-73743133D02*
X156809523Y-73885990D01*
X156809523Y-73885990D02*
X157380951Y-74457419D01*
X157380951Y-74457419D02*
X156761904Y-74457419D01*
X136214285Y-73505038D02*
X136309523Y-73457419D01*
X136309523Y-73457419D02*
X136452380Y-73457419D01*
X136452380Y-73457419D02*
X136595237Y-73505038D01*
X136595237Y-73505038D02*
X136690475Y-73600276D01*
X136690475Y-73600276D02*
X136738094Y-73695514D01*
X136738094Y-73695514D02*
X136785713Y-73885990D01*
X136785713Y-73885990D02*
X136785713Y-74028847D01*
X136785713Y-74028847D02*
X136738094Y-74219323D01*
X136738094Y-74219323D02*
X136690475Y-74314561D01*
X136690475Y-74314561D02*
X136595237Y-74409800D01*
X136595237Y-74409800D02*
X136452380Y-74457419D01*
X136452380Y-74457419D02*
X136357142Y-74457419D01*
X136357142Y-74457419D02*
X136214285Y-74409800D01*
X136214285Y-74409800D02*
X136166666Y-74362180D01*
X136166666Y-74362180D02*
X136166666Y-74028847D01*
X136166666Y-74028847D02*
X136357142Y-74028847D01*
X135214285Y-74457419D02*
X135785713Y-74457419D01*
X135499999Y-74457419D02*
X135499999Y-73457419D01*
X135499999Y-73457419D02*
X135595237Y-73600276D01*
X135595237Y-73600276D02*
X135690475Y-73695514D01*
X135690475Y-73695514D02*
X135785713Y-73743133D01*
D11*
X136920000Y-23460000D02*
X139460000Y-23460000D01*
X136920000Y-26000000D02*
X139460000Y-26000000D01*
X136920000Y-28540000D02*
X139460000Y-28540000D01*
X139460000Y-20880000D02*
X139460000Y-31120000D01*
X139460000Y-20880000D02*
X155350000Y-20880000D01*
X139460000Y-31120000D02*
X155350000Y-31120000D01*
X155350000Y-20880000D02*
X155350000Y-31120000D01*
X108670000Y-22670000D02*
X110000000Y-22670000D01*
X108670000Y-24000000D02*
X108670000Y-22670000D01*
X108670000Y-25270000D02*
X111330000Y-25270000D01*
X108670000Y-27870000D02*
X108670000Y-25270000D01*
X108670000Y-27870000D02*
X111330000Y-27870000D01*
X111330000Y-27870000D02*
X111330000Y-25270000D01*
%LPC*%
D12*
X167000000Y-64000000D03*
X167050000Y-69000000D03*
X139500000Y-64500000D03*
X139550000Y-69500000D03*
X118500000Y-64500000D03*
X118550000Y-69500000D03*
X115000000Y-71500000D03*
X115050000Y-76500000D03*
X108000000Y-71500000D03*
X108050000Y-76500000D03*
D13*
X172000000Y-22000000D03*
D14*
X169460000Y-22000000D03*
X166920000Y-22000000D03*
D12*
X111500000Y-64500000D03*
X111550000Y-69500000D03*
X122000000Y-71500000D03*
X122050000Y-76500000D03*
X165000000Y-71500000D03*
X165050000Y-76500000D03*
X158650000Y-56394000D03*
X161190000Y-56394000D03*
X163730000Y-56394000D03*
X166270000Y-56394000D03*
D15*
X168810000Y-56394000D03*
D12*
X171350000Y-56394000D03*
X157888000Y-49790000D03*
X157888000Y-47250000D03*
X157888000Y-44710000D03*
X157888000Y-42170000D03*
X157888000Y-39630000D03*
X157888000Y-37090000D03*
X157888000Y-34550000D03*
X157888000Y-32010000D03*
X157888000Y-29470000D03*
X143000000Y-71500000D03*
X143050000Y-76500000D03*
X160000000Y-64000000D03*
X160050000Y-69000000D03*
D13*
X105000000Y-29080000D03*
D14*
X105000000Y-26540000D03*
X105000000Y-24000000D03*
D13*
X121000000Y-59000000D03*
D14*
X118460000Y-59000000D03*
X115920000Y-59000000D03*
D12*
X150000000Y-71500000D03*
X150050000Y-76500000D03*
X146500000Y-64500000D03*
X146550000Y-69500000D03*
D13*
X131079999Y-59000000D03*
D14*
X128539999Y-59000000D03*
X125999999Y-59000000D03*
D12*
X129000000Y-71500000D03*
X129050000Y-76500000D03*
D16*
X104630000Y-46615000D03*
D17*
X107660000Y-46315000D03*
X107660000Y-41465000D03*
D16*
X104630000Y-41165000D03*
D14*
X104500000Y-52780000D03*
X107040000Y-52780000D03*
D13*
X109580000Y-52780000D03*
D14*
X112120000Y-52780000D03*
X114660000Y-52780000D03*
X117200000Y-52780000D03*
X119740000Y-52780000D03*
D13*
X122280000Y-52780000D03*
D14*
X124820000Y-52780000D03*
X127360000Y-52780000D03*
X129900000Y-52780000D03*
X132440000Y-52780000D03*
D13*
X134980000Y-52780000D03*
D14*
X137520000Y-52780000D03*
X140060000Y-52780000D03*
X142600000Y-52780000D03*
X145140000Y-52780000D03*
D13*
X147680000Y-52780000D03*
D14*
X150220000Y-52780000D03*
X152760000Y-52780000D03*
X152760000Y-35000000D03*
X150220000Y-35000000D03*
D13*
X147680000Y-35000000D03*
D14*
X145140000Y-35000000D03*
X142600000Y-35000000D03*
X140060000Y-35000000D03*
X137520000Y-35000000D03*
D13*
X134980000Y-35000000D03*
D14*
X132440000Y-35000000D03*
X129900000Y-35000000D03*
X127360000Y-35000000D03*
X124820000Y-35000000D03*
D13*
X122280000Y-35000000D03*
D14*
X119740000Y-35000000D03*
X117200000Y-35000000D03*
X114660000Y-35000000D03*
X112120000Y-35000000D03*
D13*
X109580000Y-35000000D03*
D14*
X107040000Y-35000000D03*
X104500000Y-35000000D03*
X152530000Y-46430000D03*
D13*
X152530000Y-43890000D03*
D14*
X152530000Y-41350000D03*
D12*
X132500000Y-64500000D03*
X132550000Y-69500000D03*
D13*
X123380000Y-23000000D03*
D14*
X125920000Y-23000000D03*
X128460000Y-23000000D03*
X131000000Y-23000000D03*
D12*
X158000000Y-71500000D03*
X158050000Y-76500000D03*
X136000000Y-71500000D03*
X136050000Y-76500000D03*
D13*
X111079999Y-59000000D03*
D14*
X108539999Y-59000000D03*
X105999999Y-59000000D03*
D18*
X152430000Y-26000000D03*
D19*
X135770000Y-28540000D03*
D20*
X135770000Y-26000000D03*
X135770000Y-23460000D03*
D13*
X110000000Y-24000000D03*
D14*
X110000000Y-26540000D03*
%LPD*%
M02*
