G04 #@! TF.GenerationSoftware,KiCad,Pcbnew,8.0.6*
G04 #@! TF.CreationDate,2024-12-01T22:21:49+01:00*
G04 #@! TF.ProjectId,pico_piano,7069636f-5f70-4696-916e-6f2e6b696361,rev?*
G04 #@! TF.SameCoordinates,Original*
G04 #@! TF.FileFunction,Profile,NP*
%FSLAX46Y46*%
G04 Gerber Fmt 4.6, Leading zero omitted, Abs format (unit mm)*
G04 Created by KiCad (PCBNEW 8.0.6) date 2024-12-01 22:21:49*
%MOMM*%
%LPD*%
G01*
G04 APERTURE LIST*
G04 #@! TA.AperFunction,Profile*
%ADD10C,0.050000*%
G04 #@! TD*
G04 APERTURE END LIST*
D10*
X172600000Y-25900000D02*
X172600000Y-52100000D01*
X116550000Y-22500000D02*
G75*
G02*
X113450000Y-22500000I-1550000J0D01*
G01*
X113450000Y-22500000D02*
G75*
G02*
X116550000Y-22500000I1550000J0D01*
G01*
X172550000Y-75000000D02*
G75*
G02*
X169450000Y-75000000I-1550000J0D01*
G01*
X169450000Y-75000000D02*
G75*
G02*
X172550000Y-75000000I1550000J0D01*
G01*
X104000000Y-20000000D02*
X173000000Y-20000000D01*
X161550000Y-60000000D02*
G75*
G02*
X158450000Y-60000000I-1550000J0D01*
G01*
X158450000Y-60000000D02*
G75*
G02*
X161550000Y-60000000I1550000J0D01*
G01*
X174000000Y-77000000D02*
G75*
G02*
X173000000Y-78000000I-1000000J0D01*
G01*
X161550000Y-22500000D02*
G75*
G02*
X158450000Y-22500000I-1550000J0D01*
G01*
X158450000Y-22500000D02*
G75*
G02*
X161550000Y-22500000I1550000J0D01*
G01*
X103000000Y-21000000D02*
G75*
G02*
X104000000Y-20000000I1000000J0D01*
G01*
X104000000Y-78000000D02*
G75*
G02*
X103000000Y-77000000I0J1000000D01*
G01*
X174000000Y-24500000D02*
X174000000Y-21000000D01*
X173000000Y-20000000D02*
G75*
G02*
X174000000Y-21000000I0J-1000000D01*
G01*
X174000000Y-53500000D02*
X174000000Y-77000000D01*
X174000000Y-24500000D02*
X172600000Y-25900000D01*
X103000000Y-77000000D02*
X103000000Y-55000000D01*
X103000000Y-55000000D02*
X103000000Y-21000000D01*
X172600000Y-52100000D02*
X174000000Y-53500000D01*
X173000000Y-78000000D02*
X104000000Y-78000000D01*
M02*
