%TF.GenerationSoftware,KiCad,Pcbnew,8.0.6*%
%TF.CreationDate,2024-12-01T22:22:22+01:00*%
%TF.ProjectId,pico_piano,7069636f-5f70-4696-916e-6f2e6b696361,rev?*%
%TF.SameCoordinates,Original*%
%TF.FileFunction,Drillmap*%
%TF.FilePolarity,Positive*%
%FSLAX45Y45*%
G04 Gerber Fmt 4.5, Leading zero omitted, Abs format (unit mm)*
G04 Created by KiCad (PCBNEW 8.0.6) date 2024-12-01 22:22:22*
%MOMM*%
%LPD*%
G01*
G04 APERTURE LIST*
%ADD10C,0.050000*%
%ADD11C,0.200000*%
%ADD12C,0.150000*%
%ADD13C,0.180000*%
%ADD14C,0.350000*%
G04 APERTURE END LIST*
D10*
X17260000Y-2590000D02*
X17260000Y-5210000D01*
X11655000Y-2250000D02*
G75*
G02*
X11345000Y-2250000I-155000J0D01*
G01*
X11345000Y-2250000D02*
G75*
G02*
X11655000Y-2250000I155000J0D01*
G01*
X17255000Y-7500000D02*
G75*
G02*
X16945000Y-7500000I-155000J0D01*
G01*
X16945000Y-7500000D02*
G75*
G02*
X17255000Y-7500000I155000J0D01*
G01*
X10400000Y-2000000D02*
X17300000Y-2000000D01*
X16155000Y-6000000D02*
G75*
G02*
X15845000Y-6000000I-155000J0D01*
G01*
X15845000Y-6000000D02*
G75*
G02*
X16155000Y-6000000I155000J0D01*
G01*
X17400000Y-7700000D02*
G75*
G02*
X17300000Y-7800000I-100000J0D01*
G01*
X16155000Y-2250000D02*
G75*
G02*
X15845000Y-2250000I-155000J0D01*
G01*
X15845000Y-2250000D02*
G75*
G02*
X16155000Y-2250000I155000J0D01*
G01*
X10300000Y-2100000D02*
G75*
G02*
X10400000Y-2000000I100000J0D01*
G01*
X10400000Y-7800000D02*
G75*
G02*
X10300000Y-7700000I0J100000D01*
G01*
X17400000Y-2450000D02*
X17400000Y-2100000D01*
X17300000Y-2000000D02*
G75*
G02*
X17400000Y-2100000I0J-100000D01*
G01*
X17400000Y-5350000D02*
X17400000Y-7700000D01*
X17400000Y-2450000D02*
X17260000Y-2590000D01*
X10300000Y-7700000D02*
X10300000Y-5500000D01*
X10300000Y-5500000D02*
X10300000Y-2100000D01*
X17260000Y-5210000D02*
X17400000Y-5350000D01*
X17300000Y-7800000D02*
X10400000Y-7800000D01*
D11*
D12*
X10691000Y-4071500D02*
X10841000Y-4221500D01*
X10841000Y-4071500D02*
X10691000Y-4221500D01*
X10691000Y-4556500D02*
X10841000Y-4706500D01*
X10841000Y-4556500D02*
X10691000Y-4706500D01*
D13*
X10553000Y-4116500D02*
G75*
G02*
X10373000Y-4116500I-90000J0D01*
G01*
X10373000Y-4116500D02*
G75*
G02*
X10553000Y-4116500I90000J0D01*
G01*
X10553000Y-4661500D02*
G75*
G02*
X10373000Y-4661500I-90000J0D01*
G01*
X10373000Y-4661500D02*
G75*
G02*
X10553000Y-4661500I90000J0D01*
G01*
D14*
X15243000Y-2425000D02*
X15243000Y-2775000D01*
X15068000Y-2600000D02*
X15418000Y-2600000D01*
D11*
X10558277Y-8113984D02*
X10558277Y-7913984D01*
X10558277Y-7913984D02*
X10605896Y-7913984D01*
X10605896Y-7913984D02*
X10634467Y-7923508D01*
X10634467Y-7923508D02*
X10653515Y-7942555D01*
X10653515Y-7942555D02*
X10663039Y-7961603D01*
X10663039Y-7961603D02*
X10672563Y-7999698D01*
X10672563Y-7999698D02*
X10672563Y-8028269D01*
X10672563Y-8028269D02*
X10663039Y-8066365D01*
X10663039Y-8066365D02*
X10653515Y-8085412D01*
X10653515Y-8085412D02*
X10634467Y-8104460D01*
X10634467Y-8104460D02*
X10605896Y-8113984D01*
X10605896Y-8113984D02*
X10558277Y-8113984D01*
X10758277Y-8113984D02*
X10758277Y-7980650D01*
X10758277Y-8018746D02*
X10767801Y-7999698D01*
X10767801Y-7999698D02*
X10777324Y-7990174D01*
X10777324Y-7990174D02*
X10796372Y-7980650D01*
X10796372Y-7980650D02*
X10815420Y-7980650D01*
X10882086Y-8113984D02*
X10882086Y-7980650D01*
X10882086Y-7913984D02*
X10872563Y-7923508D01*
X10872563Y-7923508D02*
X10882086Y-7933031D01*
X10882086Y-7933031D02*
X10891610Y-7923508D01*
X10891610Y-7923508D02*
X10882086Y-7913984D01*
X10882086Y-7913984D02*
X10882086Y-7933031D01*
X11005896Y-8113984D02*
X10986848Y-8104460D01*
X10986848Y-8104460D02*
X10977324Y-8085412D01*
X10977324Y-8085412D02*
X10977324Y-7913984D01*
X11110658Y-8113984D02*
X11091610Y-8104460D01*
X11091610Y-8104460D02*
X11082086Y-8085412D01*
X11082086Y-8085412D02*
X11082086Y-7913984D01*
X11339229Y-8113984D02*
X11339229Y-7913984D01*
X11339229Y-7913984D02*
X11405896Y-8056841D01*
X11405896Y-8056841D02*
X11472562Y-7913984D01*
X11472562Y-7913984D02*
X11472562Y-8113984D01*
X11653515Y-8113984D02*
X11653515Y-8009222D01*
X11653515Y-8009222D02*
X11643991Y-7990174D01*
X11643991Y-7990174D02*
X11624943Y-7980650D01*
X11624943Y-7980650D02*
X11586848Y-7980650D01*
X11586848Y-7980650D02*
X11567801Y-7990174D01*
X11653515Y-8104460D02*
X11634467Y-8113984D01*
X11634467Y-8113984D02*
X11586848Y-8113984D01*
X11586848Y-8113984D02*
X11567801Y-8104460D01*
X11567801Y-8104460D02*
X11558277Y-8085412D01*
X11558277Y-8085412D02*
X11558277Y-8066365D01*
X11558277Y-8066365D02*
X11567801Y-8047317D01*
X11567801Y-8047317D02*
X11586848Y-8037793D01*
X11586848Y-8037793D02*
X11634467Y-8037793D01*
X11634467Y-8037793D02*
X11653515Y-8028269D01*
X11748753Y-7980650D02*
X11748753Y-8180650D01*
X11748753Y-7990174D02*
X11767801Y-7980650D01*
X11767801Y-7980650D02*
X11805896Y-7980650D01*
X11805896Y-7980650D02*
X11824943Y-7990174D01*
X11824943Y-7990174D02*
X11834467Y-7999698D01*
X11834467Y-7999698D02*
X11843991Y-8018746D01*
X11843991Y-8018746D02*
X11843991Y-8075888D01*
X11843991Y-8075888D02*
X11834467Y-8094936D01*
X11834467Y-8094936D02*
X11824943Y-8104460D01*
X11824943Y-8104460D02*
X11805896Y-8113984D01*
X11805896Y-8113984D02*
X11767801Y-8113984D01*
X11767801Y-8113984D02*
X11748753Y-8104460D01*
X11929705Y-8094936D02*
X11939229Y-8104460D01*
X11939229Y-8104460D02*
X11929705Y-8113984D01*
X11929705Y-8113984D02*
X11920182Y-8104460D01*
X11920182Y-8104460D02*
X11929705Y-8094936D01*
X11929705Y-8094936D02*
X11929705Y-8113984D01*
X11929705Y-7990174D02*
X11939229Y-7999698D01*
X11939229Y-7999698D02*
X11929705Y-8009222D01*
X11929705Y-8009222D02*
X11920182Y-7999698D01*
X11920182Y-7999698D02*
X11929705Y-7990174D01*
X11929705Y-7990174D02*
X11929705Y-8009222D01*
D12*
X10147500Y-8367500D02*
X10297500Y-8517500D01*
X10297500Y-8367500D02*
X10147500Y-8517500D01*
D11*
X10663039Y-8533984D02*
X10548753Y-8533984D01*
X10605896Y-8533984D02*
X10605896Y-8333984D01*
X10605896Y-8333984D02*
X10586848Y-8362555D01*
X10586848Y-8362555D02*
X10567801Y-8381603D01*
X10567801Y-8381603D02*
X10548753Y-8391127D01*
X10748753Y-8514936D02*
X10758277Y-8524460D01*
X10758277Y-8524460D02*
X10748753Y-8533984D01*
X10748753Y-8533984D02*
X10739229Y-8524460D01*
X10739229Y-8524460D02*
X10748753Y-8514936D01*
X10748753Y-8514936D02*
X10748753Y-8533984D01*
X10939229Y-8333984D02*
X10843991Y-8333984D01*
X10843991Y-8333984D02*
X10834467Y-8429222D01*
X10834467Y-8429222D02*
X10843991Y-8419698D01*
X10843991Y-8419698D02*
X10863039Y-8410174D01*
X10863039Y-8410174D02*
X10910658Y-8410174D01*
X10910658Y-8410174D02*
X10929705Y-8419698D01*
X10929705Y-8419698D02*
X10939229Y-8429222D01*
X10939229Y-8429222D02*
X10948753Y-8448270D01*
X10948753Y-8448270D02*
X10948753Y-8495889D01*
X10948753Y-8495889D02*
X10939229Y-8514936D01*
X10939229Y-8514936D02*
X10929705Y-8524460D01*
X10929705Y-8524460D02*
X10910658Y-8533984D01*
X10910658Y-8533984D02*
X10863039Y-8533984D01*
X10863039Y-8533984D02*
X10843991Y-8524460D01*
X10843991Y-8524460D02*
X10834467Y-8514936D01*
X11072563Y-8333984D02*
X11091610Y-8333984D01*
X11091610Y-8333984D02*
X11110658Y-8343508D01*
X11110658Y-8343508D02*
X11120182Y-8353031D01*
X11120182Y-8353031D02*
X11129705Y-8372079D01*
X11129705Y-8372079D02*
X11139229Y-8410174D01*
X11139229Y-8410174D02*
X11139229Y-8457793D01*
X11139229Y-8457793D02*
X11129705Y-8495889D01*
X11129705Y-8495889D02*
X11120182Y-8514936D01*
X11120182Y-8514936D02*
X11110658Y-8524460D01*
X11110658Y-8524460D02*
X11091610Y-8533984D01*
X11091610Y-8533984D02*
X11072563Y-8533984D01*
X11072563Y-8533984D02*
X11053515Y-8524460D01*
X11053515Y-8524460D02*
X11043991Y-8514936D01*
X11043991Y-8514936D02*
X11034467Y-8495889D01*
X11034467Y-8495889D02*
X11024944Y-8457793D01*
X11024944Y-8457793D02*
X11024944Y-8410174D01*
X11024944Y-8410174D02*
X11034467Y-8372079D01*
X11034467Y-8372079D02*
X11043991Y-8353031D01*
X11043991Y-8353031D02*
X11053515Y-8343508D01*
X11053515Y-8343508D02*
X11072563Y-8333984D01*
X11263039Y-8333984D02*
X11282086Y-8333984D01*
X11282086Y-8333984D02*
X11301134Y-8343508D01*
X11301134Y-8343508D02*
X11310658Y-8353031D01*
X11310658Y-8353031D02*
X11320182Y-8372079D01*
X11320182Y-8372079D02*
X11329705Y-8410174D01*
X11329705Y-8410174D02*
X11329705Y-8457793D01*
X11329705Y-8457793D02*
X11320182Y-8495889D01*
X11320182Y-8495889D02*
X11310658Y-8514936D01*
X11310658Y-8514936D02*
X11301134Y-8524460D01*
X11301134Y-8524460D02*
X11282086Y-8533984D01*
X11282086Y-8533984D02*
X11263039Y-8533984D01*
X11263039Y-8533984D02*
X11243991Y-8524460D01*
X11243991Y-8524460D02*
X11234467Y-8514936D01*
X11234467Y-8514936D02*
X11224943Y-8495889D01*
X11224943Y-8495889D02*
X11215420Y-8457793D01*
X11215420Y-8457793D02*
X11215420Y-8410174D01*
X11215420Y-8410174D02*
X11224943Y-8372079D01*
X11224943Y-8372079D02*
X11234467Y-8353031D01*
X11234467Y-8353031D02*
X11243991Y-8343508D01*
X11243991Y-8343508D02*
X11263039Y-8333984D01*
X11415420Y-8533984D02*
X11415420Y-8400650D01*
X11415420Y-8419698D02*
X11424943Y-8410174D01*
X11424943Y-8410174D02*
X11443991Y-8400650D01*
X11443991Y-8400650D02*
X11472563Y-8400650D01*
X11472563Y-8400650D02*
X11491610Y-8410174D01*
X11491610Y-8410174D02*
X11501134Y-8429222D01*
X11501134Y-8429222D02*
X11501134Y-8533984D01*
X11501134Y-8429222D02*
X11510658Y-8410174D01*
X11510658Y-8410174D02*
X11529705Y-8400650D01*
X11529705Y-8400650D02*
X11558277Y-8400650D01*
X11558277Y-8400650D02*
X11577324Y-8410174D01*
X11577324Y-8410174D02*
X11586848Y-8429222D01*
X11586848Y-8429222D02*
X11586848Y-8533984D01*
X11682086Y-8533984D02*
X11682086Y-8400650D01*
X11682086Y-8419698D02*
X11691610Y-8410174D01*
X11691610Y-8410174D02*
X11710658Y-8400650D01*
X11710658Y-8400650D02*
X11739229Y-8400650D01*
X11739229Y-8400650D02*
X11758277Y-8410174D01*
X11758277Y-8410174D02*
X11767801Y-8429222D01*
X11767801Y-8429222D02*
X11767801Y-8533984D01*
X11767801Y-8429222D02*
X11777324Y-8410174D01*
X11777324Y-8410174D02*
X11796372Y-8400650D01*
X11796372Y-8400650D02*
X11824943Y-8400650D01*
X11824943Y-8400650D02*
X11843991Y-8410174D01*
X11843991Y-8410174D02*
X11853515Y-8429222D01*
X11853515Y-8429222D02*
X11853515Y-8533984D01*
X12243991Y-8324460D02*
X12072563Y-8581603D01*
X12501134Y-8333984D02*
X12520182Y-8333984D01*
X12520182Y-8333984D02*
X12539229Y-8343508D01*
X12539229Y-8343508D02*
X12548753Y-8353031D01*
X12548753Y-8353031D02*
X12558277Y-8372079D01*
X12558277Y-8372079D02*
X12567801Y-8410174D01*
X12567801Y-8410174D02*
X12567801Y-8457793D01*
X12567801Y-8457793D02*
X12558277Y-8495889D01*
X12558277Y-8495889D02*
X12548753Y-8514936D01*
X12548753Y-8514936D02*
X12539229Y-8524460D01*
X12539229Y-8524460D02*
X12520182Y-8533984D01*
X12520182Y-8533984D02*
X12501134Y-8533984D01*
X12501134Y-8533984D02*
X12482086Y-8524460D01*
X12482086Y-8524460D02*
X12472563Y-8514936D01*
X12472563Y-8514936D02*
X12463039Y-8495889D01*
X12463039Y-8495889D02*
X12453515Y-8457793D01*
X12453515Y-8457793D02*
X12453515Y-8410174D01*
X12453515Y-8410174D02*
X12463039Y-8372079D01*
X12463039Y-8372079D02*
X12472563Y-8353031D01*
X12472563Y-8353031D02*
X12482086Y-8343508D01*
X12482086Y-8343508D02*
X12501134Y-8333984D01*
X12653515Y-8514936D02*
X12663039Y-8524460D01*
X12663039Y-8524460D02*
X12653515Y-8533984D01*
X12653515Y-8533984D02*
X12643991Y-8524460D01*
X12643991Y-8524460D02*
X12653515Y-8514936D01*
X12653515Y-8514936D02*
X12653515Y-8533984D01*
X12786848Y-8333984D02*
X12805896Y-8333984D01*
X12805896Y-8333984D02*
X12824944Y-8343508D01*
X12824944Y-8343508D02*
X12834467Y-8353031D01*
X12834467Y-8353031D02*
X12843991Y-8372079D01*
X12843991Y-8372079D02*
X12853515Y-8410174D01*
X12853515Y-8410174D02*
X12853515Y-8457793D01*
X12853515Y-8457793D02*
X12843991Y-8495889D01*
X12843991Y-8495889D02*
X12834467Y-8514936D01*
X12834467Y-8514936D02*
X12824944Y-8524460D01*
X12824944Y-8524460D02*
X12805896Y-8533984D01*
X12805896Y-8533984D02*
X12786848Y-8533984D01*
X12786848Y-8533984D02*
X12767801Y-8524460D01*
X12767801Y-8524460D02*
X12758277Y-8514936D01*
X12758277Y-8514936D02*
X12748753Y-8495889D01*
X12748753Y-8495889D02*
X12739229Y-8457793D01*
X12739229Y-8457793D02*
X12739229Y-8410174D01*
X12739229Y-8410174D02*
X12748753Y-8372079D01*
X12748753Y-8372079D02*
X12758277Y-8353031D01*
X12758277Y-8353031D02*
X12767801Y-8343508D01*
X12767801Y-8343508D02*
X12786848Y-8333984D01*
X13034467Y-8333984D02*
X12939229Y-8333984D01*
X12939229Y-8333984D02*
X12929706Y-8429222D01*
X12929706Y-8429222D02*
X12939229Y-8419698D01*
X12939229Y-8419698D02*
X12958277Y-8410174D01*
X12958277Y-8410174D02*
X13005896Y-8410174D01*
X13005896Y-8410174D02*
X13024944Y-8419698D01*
X13024944Y-8419698D02*
X13034467Y-8429222D01*
X13034467Y-8429222D02*
X13043991Y-8448270D01*
X13043991Y-8448270D02*
X13043991Y-8495889D01*
X13043991Y-8495889D02*
X13034467Y-8514936D01*
X13034467Y-8514936D02*
X13024944Y-8524460D01*
X13024944Y-8524460D02*
X13005896Y-8533984D01*
X13005896Y-8533984D02*
X12958277Y-8533984D01*
X12958277Y-8533984D02*
X12939229Y-8524460D01*
X12939229Y-8524460D02*
X12929706Y-8514936D01*
X13139229Y-8533984D02*
X13177325Y-8533984D01*
X13177325Y-8533984D02*
X13196372Y-8524460D01*
X13196372Y-8524460D02*
X13205896Y-8514936D01*
X13205896Y-8514936D02*
X13224944Y-8486365D01*
X13224944Y-8486365D02*
X13234467Y-8448270D01*
X13234467Y-8448270D02*
X13234467Y-8372079D01*
X13234467Y-8372079D02*
X13224944Y-8353031D01*
X13224944Y-8353031D02*
X13215420Y-8343508D01*
X13215420Y-8343508D02*
X13196372Y-8333984D01*
X13196372Y-8333984D02*
X13158277Y-8333984D01*
X13158277Y-8333984D02*
X13139229Y-8343508D01*
X13139229Y-8343508D02*
X13129706Y-8353031D01*
X13129706Y-8353031D02*
X13120182Y-8372079D01*
X13120182Y-8372079D02*
X13120182Y-8419698D01*
X13120182Y-8419698D02*
X13129706Y-8438746D01*
X13129706Y-8438746D02*
X13139229Y-8448270D01*
X13139229Y-8448270D02*
X13158277Y-8457793D01*
X13158277Y-8457793D02*
X13196372Y-8457793D01*
X13196372Y-8457793D02*
X13215420Y-8448270D01*
X13215420Y-8448270D02*
X13224944Y-8438746D01*
X13224944Y-8438746D02*
X13234467Y-8419698D01*
X13424944Y-8533984D02*
X13310658Y-8533984D01*
X13367801Y-8533984D02*
X13367801Y-8333984D01*
X13367801Y-8333984D02*
X13348753Y-8362555D01*
X13348753Y-8362555D02*
X13329706Y-8381603D01*
X13329706Y-8381603D02*
X13310658Y-8391127D01*
X13501134Y-8333984D02*
X13501134Y-8372079D01*
X13577325Y-8333984D02*
X13577325Y-8372079D01*
X13872563Y-8610174D02*
X13863039Y-8600650D01*
X13863039Y-8600650D02*
X13843991Y-8572079D01*
X13843991Y-8572079D02*
X13834468Y-8553031D01*
X13834468Y-8553031D02*
X13824944Y-8524460D01*
X13824944Y-8524460D02*
X13815420Y-8476841D01*
X13815420Y-8476841D02*
X13815420Y-8438746D01*
X13815420Y-8438746D02*
X13824944Y-8391127D01*
X13824944Y-8391127D02*
X13834468Y-8362555D01*
X13834468Y-8362555D02*
X13843991Y-8343508D01*
X13843991Y-8343508D02*
X13863039Y-8314936D01*
X13863039Y-8314936D02*
X13872563Y-8305412D01*
X13939229Y-8353031D02*
X13948753Y-8343508D01*
X13948753Y-8343508D02*
X13967801Y-8333984D01*
X13967801Y-8333984D02*
X14015420Y-8333984D01*
X14015420Y-8333984D02*
X14034468Y-8343508D01*
X14034468Y-8343508D02*
X14043991Y-8353031D01*
X14043991Y-8353031D02*
X14053515Y-8372079D01*
X14053515Y-8372079D02*
X14053515Y-8391127D01*
X14053515Y-8391127D02*
X14043991Y-8419698D01*
X14043991Y-8419698D02*
X13929706Y-8533984D01*
X13929706Y-8533984D02*
X14053515Y-8533984D01*
X14291610Y-8533984D02*
X14291610Y-8333984D01*
X14377325Y-8533984D02*
X14377325Y-8429222D01*
X14377325Y-8429222D02*
X14367801Y-8410174D01*
X14367801Y-8410174D02*
X14348753Y-8400650D01*
X14348753Y-8400650D02*
X14320182Y-8400650D01*
X14320182Y-8400650D02*
X14301134Y-8410174D01*
X14301134Y-8410174D02*
X14291610Y-8419698D01*
X14501134Y-8533984D02*
X14482087Y-8524460D01*
X14482087Y-8524460D02*
X14472563Y-8514936D01*
X14472563Y-8514936D02*
X14463039Y-8495889D01*
X14463039Y-8495889D02*
X14463039Y-8438746D01*
X14463039Y-8438746D02*
X14472563Y-8419698D01*
X14472563Y-8419698D02*
X14482087Y-8410174D01*
X14482087Y-8410174D02*
X14501134Y-8400650D01*
X14501134Y-8400650D02*
X14529706Y-8400650D01*
X14529706Y-8400650D02*
X14548753Y-8410174D01*
X14548753Y-8410174D02*
X14558277Y-8419698D01*
X14558277Y-8419698D02*
X14567801Y-8438746D01*
X14567801Y-8438746D02*
X14567801Y-8495889D01*
X14567801Y-8495889D02*
X14558277Y-8514936D01*
X14558277Y-8514936D02*
X14548753Y-8524460D01*
X14548753Y-8524460D02*
X14529706Y-8533984D01*
X14529706Y-8533984D02*
X14501134Y-8533984D01*
X14682087Y-8533984D02*
X14663039Y-8524460D01*
X14663039Y-8524460D02*
X14653515Y-8505412D01*
X14653515Y-8505412D02*
X14653515Y-8333984D01*
X14834468Y-8524460D02*
X14815420Y-8533984D01*
X14815420Y-8533984D02*
X14777325Y-8533984D01*
X14777325Y-8533984D02*
X14758277Y-8524460D01*
X14758277Y-8524460D02*
X14748753Y-8505412D01*
X14748753Y-8505412D02*
X14748753Y-8429222D01*
X14748753Y-8429222D02*
X14758277Y-8410174D01*
X14758277Y-8410174D02*
X14777325Y-8400650D01*
X14777325Y-8400650D02*
X14815420Y-8400650D01*
X14815420Y-8400650D02*
X14834468Y-8410174D01*
X14834468Y-8410174D02*
X14843991Y-8429222D01*
X14843991Y-8429222D02*
X14843991Y-8448270D01*
X14843991Y-8448270D02*
X14748753Y-8467317D01*
X14920182Y-8524460D02*
X14939230Y-8533984D01*
X14939230Y-8533984D02*
X14977325Y-8533984D01*
X14977325Y-8533984D02*
X14996372Y-8524460D01*
X14996372Y-8524460D02*
X15005896Y-8505412D01*
X15005896Y-8505412D02*
X15005896Y-8495889D01*
X15005896Y-8495889D02*
X14996372Y-8476841D01*
X14996372Y-8476841D02*
X14977325Y-8467317D01*
X14977325Y-8467317D02*
X14948753Y-8467317D01*
X14948753Y-8467317D02*
X14929706Y-8457793D01*
X14929706Y-8457793D02*
X14920182Y-8438746D01*
X14920182Y-8438746D02*
X14920182Y-8429222D01*
X14920182Y-8429222D02*
X14929706Y-8410174D01*
X14929706Y-8410174D02*
X14948753Y-8400650D01*
X14948753Y-8400650D02*
X14977325Y-8400650D01*
X14977325Y-8400650D02*
X14996372Y-8410174D01*
X15072563Y-8610174D02*
X15082087Y-8600650D01*
X15082087Y-8600650D02*
X15101134Y-8572079D01*
X15101134Y-8572079D02*
X15110658Y-8553031D01*
X15110658Y-8553031D02*
X15120182Y-8524460D01*
X15120182Y-8524460D02*
X15129706Y-8476841D01*
X15129706Y-8476841D02*
X15129706Y-8438746D01*
X15129706Y-8438746D02*
X15120182Y-8391127D01*
X15120182Y-8391127D02*
X15110658Y-8362555D01*
X15110658Y-8362555D02*
X15101134Y-8343508D01*
X15101134Y-8343508D02*
X15082087Y-8314936D01*
X15082087Y-8314936D02*
X15072563Y-8305412D01*
X15434468Y-8610174D02*
X15424944Y-8600650D01*
X15424944Y-8600650D02*
X15405896Y-8572079D01*
X15405896Y-8572079D02*
X15396372Y-8553031D01*
X15396372Y-8553031D02*
X15386849Y-8524460D01*
X15386849Y-8524460D02*
X15377325Y-8476841D01*
X15377325Y-8476841D02*
X15377325Y-8438746D01*
X15377325Y-8438746D02*
X15386849Y-8391127D01*
X15386849Y-8391127D02*
X15396372Y-8362555D01*
X15396372Y-8362555D02*
X15405896Y-8343508D01*
X15405896Y-8343508D02*
X15424944Y-8314936D01*
X15424944Y-8314936D02*
X15434468Y-8305412D01*
X15510658Y-8400650D02*
X15510658Y-8533984D01*
X15510658Y-8419698D02*
X15520182Y-8410174D01*
X15520182Y-8410174D02*
X15539230Y-8400650D01*
X15539230Y-8400650D02*
X15567801Y-8400650D01*
X15567801Y-8400650D02*
X15586849Y-8410174D01*
X15586849Y-8410174D02*
X15596372Y-8429222D01*
X15596372Y-8429222D02*
X15596372Y-8533984D01*
X15720182Y-8533984D02*
X15701134Y-8524460D01*
X15701134Y-8524460D02*
X15691611Y-8514936D01*
X15691611Y-8514936D02*
X15682087Y-8495889D01*
X15682087Y-8495889D02*
X15682087Y-8438746D01*
X15682087Y-8438746D02*
X15691611Y-8419698D01*
X15691611Y-8419698D02*
X15701134Y-8410174D01*
X15701134Y-8410174D02*
X15720182Y-8400650D01*
X15720182Y-8400650D02*
X15748753Y-8400650D01*
X15748753Y-8400650D02*
X15767801Y-8410174D01*
X15767801Y-8410174D02*
X15777325Y-8419698D01*
X15777325Y-8419698D02*
X15786849Y-8438746D01*
X15786849Y-8438746D02*
X15786849Y-8495889D01*
X15786849Y-8495889D02*
X15777325Y-8514936D01*
X15777325Y-8514936D02*
X15767801Y-8524460D01*
X15767801Y-8524460D02*
X15748753Y-8533984D01*
X15748753Y-8533984D02*
X15720182Y-8533984D01*
X15843992Y-8400650D02*
X15920182Y-8400650D01*
X15872563Y-8333984D02*
X15872563Y-8505412D01*
X15872563Y-8505412D02*
X15882087Y-8524460D01*
X15882087Y-8524460D02*
X15901134Y-8533984D01*
X15901134Y-8533984D02*
X15920182Y-8533984D01*
X16139230Y-8400650D02*
X16139230Y-8600650D01*
X16139230Y-8410174D02*
X16158277Y-8400650D01*
X16158277Y-8400650D02*
X16196373Y-8400650D01*
X16196373Y-8400650D02*
X16215420Y-8410174D01*
X16215420Y-8410174D02*
X16224944Y-8419698D01*
X16224944Y-8419698D02*
X16234468Y-8438746D01*
X16234468Y-8438746D02*
X16234468Y-8495889D01*
X16234468Y-8495889D02*
X16224944Y-8514936D01*
X16224944Y-8514936D02*
X16215420Y-8524460D01*
X16215420Y-8524460D02*
X16196373Y-8533984D01*
X16196373Y-8533984D02*
X16158277Y-8533984D01*
X16158277Y-8533984D02*
X16139230Y-8524460D01*
X16348753Y-8533984D02*
X16329706Y-8524460D01*
X16329706Y-8524460D02*
X16320182Y-8505412D01*
X16320182Y-8505412D02*
X16320182Y-8333984D01*
X16510658Y-8533984D02*
X16510658Y-8429222D01*
X16510658Y-8429222D02*
X16501134Y-8410174D01*
X16501134Y-8410174D02*
X16482087Y-8400650D01*
X16482087Y-8400650D02*
X16443992Y-8400650D01*
X16443992Y-8400650D02*
X16424944Y-8410174D01*
X16510658Y-8524460D02*
X16491611Y-8533984D01*
X16491611Y-8533984D02*
X16443992Y-8533984D01*
X16443992Y-8533984D02*
X16424944Y-8524460D01*
X16424944Y-8524460D02*
X16415420Y-8505412D01*
X16415420Y-8505412D02*
X16415420Y-8486365D01*
X16415420Y-8486365D02*
X16424944Y-8467317D01*
X16424944Y-8467317D02*
X16443992Y-8457793D01*
X16443992Y-8457793D02*
X16491611Y-8457793D01*
X16491611Y-8457793D02*
X16510658Y-8448270D01*
X16577325Y-8400650D02*
X16653515Y-8400650D01*
X16605896Y-8333984D02*
X16605896Y-8505412D01*
X16605896Y-8505412D02*
X16615420Y-8524460D01*
X16615420Y-8524460D02*
X16634468Y-8533984D01*
X16634468Y-8533984D02*
X16653515Y-8533984D01*
X16796373Y-8524460D02*
X16777325Y-8533984D01*
X16777325Y-8533984D02*
X16739230Y-8533984D01*
X16739230Y-8533984D02*
X16720182Y-8524460D01*
X16720182Y-8524460D02*
X16710658Y-8505412D01*
X16710658Y-8505412D02*
X16710658Y-8429222D01*
X16710658Y-8429222D02*
X16720182Y-8410174D01*
X16720182Y-8410174D02*
X16739230Y-8400650D01*
X16739230Y-8400650D02*
X16777325Y-8400650D01*
X16777325Y-8400650D02*
X16796373Y-8410174D01*
X16796373Y-8410174D02*
X16805896Y-8429222D01*
X16805896Y-8429222D02*
X16805896Y-8448270D01*
X16805896Y-8448270D02*
X16710658Y-8467317D01*
X16977325Y-8533984D02*
X16977325Y-8333984D01*
X16977325Y-8524460D02*
X16958277Y-8533984D01*
X16958277Y-8533984D02*
X16920182Y-8533984D01*
X16920182Y-8533984D02*
X16901135Y-8524460D01*
X16901135Y-8524460D02*
X16891611Y-8514936D01*
X16891611Y-8514936D02*
X16882087Y-8495889D01*
X16882087Y-8495889D02*
X16882087Y-8438746D01*
X16882087Y-8438746D02*
X16891611Y-8419698D01*
X16891611Y-8419698D02*
X16901135Y-8410174D01*
X16901135Y-8410174D02*
X16920182Y-8400650D01*
X16920182Y-8400650D02*
X16958277Y-8400650D01*
X16958277Y-8400650D02*
X16977325Y-8410174D01*
X17053516Y-8610174D02*
X17063039Y-8600650D01*
X17063039Y-8600650D02*
X17082087Y-8572079D01*
X17082087Y-8572079D02*
X17091611Y-8553031D01*
X17091611Y-8553031D02*
X17101135Y-8524460D01*
X17101135Y-8524460D02*
X17110658Y-8476841D01*
X17110658Y-8476841D02*
X17110658Y-8438746D01*
X17110658Y-8438746D02*
X17101135Y-8391127D01*
X17101135Y-8391127D02*
X17091611Y-8362555D01*
X17091611Y-8362555D02*
X17082087Y-8343508D01*
X17082087Y-8343508D02*
X17063039Y-8314936D01*
X17063039Y-8314936D02*
X17053516Y-8305412D01*
D13*
X10297500Y-8712500D02*
G75*
G02*
X10117500Y-8712500I-90000J0D01*
G01*
X10117500Y-8712500D02*
G75*
G02*
X10297500Y-8712500I90000J0D01*
G01*
D11*
X10663039Y-8803984D02*
X10548753Y-8803984D01*
X10605896Y-8803984D02*
X10605896Y-8603984D01*
X10605896Y-8603984D02*
X10586848Y-8632555D01*
X10586848Y-8632555D02*
X10567801Y-8651603D01*
X10567801Y-8651603D02*
X10548753Y-8661127D01*
X10748753Y-8784936D02*
X10758277Y-8794460D01*
X10758277Y-8794460D02*
X10748753Y-8803984D01*
X10748753Y-8803984D02*
X10739229Y-8794460D01*
X10739229Y-8794460D02*
X10748753Y-8784936D01*
X10748753Y-8784936D02*
X10748753Y-8803984D01*
X10872563Y-8689698D02*
X10853515Y-8680174D01*
X10853515Y-8680174D02*
X10843991Y-8670650D01*
X10843991Y-8670650D02*
X10834467Y-8651603D01*
X10834467Y-8651603D02*
X10834467Y-8642079D01*
X10834467Y-8642079D02*
X10843991Y-8623031D01*
X10843991Y-8623031D02*
X10853515Y-8613508D01*
X10853515Y-8613508D02*
X10872563Y-8603984D01*
X10872563Y-8603984D02*
X10910658Y-8603984D01*
X10910658Y-8603984D02*
X10929705Y-8613508D01*
X10929705Y-8613508D02*
X10939229Y-8623031D01*
X10939229Y-8623031D02*
X10948753Y-8642079D01*
X10948753Y-8642079D02*
X10948753Y-8651603D01*
X10948753Y-8651603D02*
X10939229Y-8670650D01*
X10939229Y-8670650D02*
X10929705Y-8680174D01*
X10929705Y-8680174D02*
X10910658Y-8689698D01*
X10910658Y-8689698D02*
X10872563Y-8689698D01*
X10872563Y-8689698D02*
X10853515Y-8699222D01*
X10853515Y-8699222D02*
X10843991Y-8708746D01*
X10843991Y-8708746D02*
X10834467Y-8727793D01*
X10834467Y-8727793D02*
X10834467Y-8765889D01*
X10834467Y-8765889D02*
X10843991Y-8784936D01*
X10843991Y-8784936D02*
X10853515Y-8794460D01*
X10853515Y-8794460D02*
X10872563Y-8803984D01*
X10872563Y-8803984D02*
X10910658Y-8803984D01*
X10910658Y-8803984D02*
X10929705Y-8794460D01*
X10929705Y-8794460D02*
X10939229Y-8784936D01*
X10939229Y-8784936D02*
X10948753Y-8765889D01*
X10948753Y-8765889D02*
X10948753Y-8727793D01*
X10948753Y-8727793D02*
X10939229Y-8708746D01*
X10939229Y-8708746D02*
X10929705Y-8699222D01*
X10929705Y-8699222D02*
X10910658Y-8689698D01*
X11072563Y-8603984D02*
X11091610Y-8603984D01*
X11091610Y-8603984D02*
X11110658Y-8613508D01*
X11110658Y-8613508D02*
X11120182Y-8623031D01*
X11120182Y-8623031D02*
X11129705Y-8642079D01*
X11129705Y-8642079D02*
X11139229Y-8680174D01*
X11139229Y-8680174D02*
X11139229Y-8727793D01*
X11139229Y-8727793D02*
X11129705Y-8765889D01*
X11129705Y-8765889D02*
X11120182Y-8784936D01*
X11120182Y-8784936D02*
X11110658Y-8794460D01*
X11110658Y-8794460D02*
X11091610Y-8803984D01*
X11091610Y-8803984D02*
X11072563Y-8803984D01*
X11072563Y-8803984D02*
X11053515Y-8794460D01*
X11053515Y-8794460D02*
X11043991Y-8784936D01*
X11043991Y-8784936D02*
X11034467Y-8765889D01*
X11034467Y-8765889D02*
X11024944Y-8727793D01*
X11024944Y-8727793D02*
X11024944Y-8680174D01*
X11024944Y-8680174D02*
X11034467Y-8642079D01*
X11034467Y-8642079D02*
X11043991Y-8623031D01*
X11043991Y-8623031D02*
X11053515Y-8613508D01*
X11053515Y-8613508D02*
X11072563Y-8603984D01*
X11263039Y-8603984D02*
X11282086Y-8603984D01*
X11282086Y-8603984D02*
X11301134Y-8613508D01*
X11301134Y-8613508D02*
X11310658Y-8623031D01*
X11310658Y-8623031D02*
X11320182Y-8642079D01*
X11320182Y-8642079D02*
X11329705Y-8680174D01*
X11329705Y-8680174D02*
X11329705Y-8727793D01*
X11329705Y-8727793D02*
X11320182Y-8765889D01*
X11320182Y-8765889D02*
X11310658Y-8784936D01*
X11310658Y-8784936D02*
X11301134Y-8794460D01*
X11301134Y-8794460D02*
X11282086Y-8803984D01*
X11282086Y-8803984D02*
X11263039Y-8803984D01*
X11263039Y-8803984D02*
X11243991Y-8794460D01*
X11243991Y-8794460D02*
X11234467Y-8784936D01*
X11234467Y-8784936D02*
X11224943Y-8765889D01*
X11224943Y-8765889D02*
X11215420Y-8727793D01*
X11215420Y-8727793D02*
X11215420Y-8680174D01*
X11215420Y-8680174D02*
X11224943Y-8642079D01*
X11224943Y-8642079D02*
X11234467Y-8623031D01*
X11234467Y-8623031D02*
X11243991Y-8613508D01*
X11243991Y-8613508D02*
X11263039Y-8603984D01*
X11415420Y-8803984D02*
X11415420Y-8670650D01*
X11415420Y-8689698D02*
X11424943Y-8680174D01*
X11424943Y-8680174D02*
X11443991Y-8670650D01*
X11443991Y-8670650D02*
X11472563Y-8670650D01*
X11472563Y-8670650D02*
X11491610Y-8680174D01*
X11491610Y-8680174D02*
X11501134Y-8699222D01*
X11501134Y-8699222D02*
X11501134Y-8803984D01*
X11501134Y-8699222D02*
X11510658Y-8680174D01*
X11510658Y-8680174D02*
X11529705Y-8670650D01*
X11529705Y-8670650D02*
X11558277Y-8670650D01*
X11558277Y-8670650D02*
X11577324Y-8680174D01*
X11577324Y-8680174D02*
X11586848Y-8699222D01*
X11586848Y-8699222D02*
X11586848Y-8803984D01*
X11682086Y-8803984D02*
X11682086Y-8670650D01*
X11682086Y-8689698D02*
X11691610Y-8680174D01*
X11691610Y-8680174D02*
X11710658Y-8670650D01*
X11710658Y-8670650D02*
X11739229Y-8670650D01*
X11739229Y-8670650D02*
X11758277Y-8680174D01*
X11758277Y-8680174D02*
X11767801Y-8699222D01*
X11767801Y-8699222D02*
X11767801Y-8803984D01*
X11767801Y-8699222D02*
X11777324Y-8680174D01*
X11777324Y-8680174D02*
X11796372Y-8670650D01*
X11796372Y-8670650D02*
X11824943Y-8670650D01*
X11824943Y-8670650D02*
X11843991Y-8680174D01*
X11843991Y-8680174D02*
X11853515Y-8699222D01*
X11853515Y-8699222D02*
X11853515Y-8803984D01*
X12243991Y-8594460D02*
X12072563Y-8851603D01*
X12501134Y-8603984D02*
X12520182Y-8603984D01*
X12520182Y-8603984D02*
X12539229Y-8613508D01*
X12539229Y-8613508D02*
X12548753Y-8623031D01*
X12548753Y-8623031D02*
X12558277Y-8642079D01*
X12558277Y-8642079D02*
X12567801Y-8680174D01*
X12567801Y-8680174D02*
X12567801Y-8727793D01*
X12567801Y-8727793D02*
X12558277Y-8765889D01*
X12558277Y-8765889D02*
X12548753Y-8784936D01*
X12548753Y-8784936D02*
X12539229Y-8794460D01*
X12539229Y-8794460D02*
X12520182Y-8803984D01*
X12520182Y-8803984D02*
X12501134Y-8803984D01*
X12501134Y-8803984D02*
X12482086Y-8794460D01*
X12482086Y-8794460D02*
X12472563Y-8784936D01*
X12472563Y-8784936D02*
X12463039Y-8765889D01*
X12463039Y-8765889D02*
X12453515Y-8727793D01*
X12453515Y-8727793D02*
X12453515Y-8680174D01*
X12453515Y-8680174D02*
X12463039Y-8642079D01*
X12463039Y-8642079D02*
X12472563Y-8623031D01*
X12472563Y-8623031D02*
X12482086Y-8613508D01*
X12482086Y-8613508D02*
X12501134Y-8603984D01*
X12653515Y-8784936D02*
X12663039Y-8794460D01*
X12663039Y-8794460D02*
X12653515Y-8803984D01*
X12653515Y-8803984D02*
X12643991Y-8794460D01*
X12643991Y-8794460D02*
X12653515Y-8784936D01*
X12653515Y-8784936D02*
X12653515Y-8803984D01*
X12786848Y-8603984D02*
X12805896Y-8603984D01*
X12805896Y-8603984D02*
X12824944Y-8613508D01*
X12824944Y-8613508D02*
X12834467Y-8623031D01*
X12834467Y-8623031D02*
X12843991Y-8642079D01*
X12843991Y-8642079D02*
X12853515Y-8680174D01*
X12853515Y-8680174D02*
X12853515Y-8727793D01*
X12853515Y-8727793D02*
X12843991Y-8765889D01*
X12843991Y-8765889D02*
X12834467Y-8784936D01*
X12834467Y-8784936D02*
X12824944Y-8794460D01*
X12824944Y-8794460D02*
X12805896Y-8803984D01*
X12805896Y-8803984D02*
X12786848Y-8803984D01*
X12786848Y-8803984D02*
X12767801Y-8794460D01*
X12767801Y-8794460D02*
X12758277Y-8784936D01*
X12758277Y-8784936D02*
X12748753Y-8765889D01*
X12748753Y-8765889D02*
X12739229Y-8727793D01*
X12739229Y-8727793D02*
X12739229Y-8680174D01*
X12739229Y-8680174D02*
X12748753Y-8642079D01*
X12748753Y-8642079D02*
X12758277Y-8623031D01*
X12758277Y-8623031D02*
X12767801Y-8613508D01*
X12767801Y-8613508D02*
X12786848Y-8603984D01*
X12920182Y-8603984D02*
X13053515Y-8603984D01*
X13053515Y-8603984D02*
X12967801Y-8803984D01*
X13167801Y-8603984D02*
X13186848Y-8603984D01*
X13186848Y-8603984D02*
X13205896Y-8613508D01*
X13205896Y-8613508D02*
X13215420Y-8623031D01*
X13215420Y-8623031D02*
X13224944Y-8642079D01*
X13224944Y-8642079D02*
X13234467Y-8680174D01*
X13234467Y-8680174D02*
X13234467Y-8727793D01*
X13234467Y-8727793D02*
X13224944Y-8765889D01*
X13224944Y-8765889D02*
X13215420Y-8784936D01*
X13215420Y-8784936D02*
X13205896Y-8794460D01*
X13205896Y-8794460D02*
X13186848Y-8803984D01*
X13186848Y-8803984D02*
X13167801Y-8803984D01*
X13167801Y-8803984D02*
X13148753Y-8794460D01*
X13148753Y-8794460D02*
X13139229Y-8784936D01*
X13139229Y-8784936D02*
X13129706Y-8765889D01*
X13129706Y-8765889D02*
X13120182Y-8727793D01*
X13120182Y-8727793D02*
X13120182Y-8680174D01*
X13120182Y-8680174D02*
X13129706Y-8642079D01*
X13129706Y-8642079D02*
X13139229Y-8623031D01*
X13139229Y-8623031D02*
X13148753Y-8613508D01*
X13148753Y-8613508D02*
X13167801Y-8603984D01*
X13329706Y-8803984D02*
X13367801Y-8803984D01*
X13367801Y-8803984D02*
X13386848Y-8794460D01*
X13386848Y-8794460D02*
X13396372Y-8784936D01*
X13396372Y-8784936D02*
X13415420Y-8756365D01*
X13415420Y-8756365D02*
X13424944Y-8718270D01*
X13424944Y-8718270D02*
X13424944Y-8642079D01*
X13424944Y-8642079D02*
X13415420Y-8623031D01*
X13415420Y-8623031D02*
X13405896Y-8613508D01*
X13405896Y-8613508D02*
X13386848Y-8603984D01*
X13386848Y-8603984D02*
X13348753Y-8603984D01*
X13348753Y-8603984D02*
X13329706Y-8613508D01*
X13329706Y-8613508D02*
X13320182Y-8623031D01*
X13320182Y-8623031D02*
X13310658Y-8642079D01*
X13310658Y-8642079D02*
X13310658Y-8689698D01*
X13310658Y-8689698D02*
X13320182Y-8708746D01*
X13320182Y-8708746D02*
X13329706Y-8718270D01*
X13329706Y-8718270D02*
X13348753Y-8727793D01*
X13348753Y-8727793D02*
X13386848Y-8727793D01*
X13386848Y-8727793D02*
X13405896Y-8718270D01*
X13405896Y-8718270D02*
X13415420Y-8708746D01*
X13415420Y-8708746D02*
X13424944Y-8689698D01*
X13501134Y-8603984D02*
X13501134Y-8642079D01*
X13577325Y-8603984D02*
X13577325Y-8642079D01*
X13872563Y-8880174D02*
X13863039Y-8870650D01*
X13863039Y-8870650D02*
X13843991Y-8842079D01*
X13843991Y-8842079D02*
X13834468Y-8823031D01*
X13834468Y-8823031D02*
X13824944Y-8794460D01*
X13824944Y-8794460D02*
X13815420Y-8746841D01*
X13815420Y-8746841D02*
X13815420Y-8708746D01*
X13815420Y-8708746D02*
X13824944Y-8661127D01*
X13824944Y-8661127D02*
X13834468Y-8632555D01*
X13834468Y-8632555D02*
X13843991Y-8613508D01*
X13843991Y-8613508D02*
X13863039Y-8584936D01*
X13863039Y-8584936D02*
X13872563Y-8575412D01*
X13939229Y-8623031D02*
X13948753Y-8613508D01*
X13948753Y-8613508D02*
X13967801Y-8603984D01*
X13967801Y-8603984D02*
X14015420Y-8603984D01*
X14015420Y-8603984D02*
X14034468Y-8613508D01*
X14034468Y-8613508D02*
X14043991Y-8623031D01*
X14043991Y-8623031D02*
X14053515Y-8642079D01*
X14053515Y-8642079D02*
X14053515Y-8661127D01*
X14053515Y-8661127D02*
X14043991Y-8689698D01*
X14043991Y-8689698D02*
X13929706Y-8803984D01*
X13929706Y-8803984D02*
X14053515Y-8803984D01*
X14291610Y-8803984D02*
X14291610Y-8603984D01*
X14377325Y-8803984D02*
X14377325Y-8699222D01*
X14377325Y-8699222D02*
X14367801Y-8680174D01*
X14367801Y-8680174D02*
X14348753Y-8670650D01*
X14348753Y-8670650D02*
X14320182Y-8670650D01*
X14320182Y-8670650D02*
X14301134Y-8680174D01*
X14301134Y-8680174D02*
X14291610Y-8689698D01*
X14501134Y-8803984D02*
X14482087Y-8794460D01*
X14482087Y-8794460D02*
X14472563Y-8784936D01*
X14472563Y-8784936D02*
X14463039Y-8765889D01*
X14463039Y-8765889D02*
X14463039Y-8708746D01*
X14463039Y-8708746D02*
X14472563Y-8689698D01*
X14472563Y-8689698D02*
X14482087Y-8680174D01*
X14482087Y-8680174D02*
X14501134Y-8670650D01*
X14501134Y-8670650D02*
X14529706Y-8670650D01*
X14529706Y-8670650D02*
X14548753Y-8680174D01*
X14548753Y-8680174D02*
X14558277Y-8689698D01*
X14558277Y-8689698D02*
X14567801Y-8708746D01*
X14567801Y-8708746D02*
X14567801Y-8765889D01*
X14567801Y-8765889D02*
X14558277Y-8784936D01*
X14558277Y-8784936D02*
X14548753Y-8794460D01*
X14548753Y-8794460D02*
X14529706Y-8803984D01*
X14529706Y-8803984D02*
X14501134Y-8803984D01*
X14682087Y-8803984D02*
X14663039Y-8794460D01*
X14663039Y-8794460D02*
X14653515Y-8775412D01*
X14653515Y-8775412D02*
X14653515Y-8603984D01*
X14834468Y-8794460D02*
X14815420Y-8803984D01*
X14815420Y-8803984D02*
X14777325Y-8803984D01*
X14777325Y-8803984D02*
X14758277Y-8794460D01*
X14758277Y-8794460D02*
X14748753Y-8775412D01*
X14748753Y-8775412D02*
X14748753Y-8699222D01*
X14748753Y-8699222D02*
X14758277Y-8680174D01*
X14758277Y-8680174D02*
X14777325Y-8670650D01*
X14777325Y-8670650D02*
X14815420Y-8670650D01*
X14815420Y-8670650D02*
X14834468Y-8680174D01*
X14834468Y-8680174D02*
X14843991Y-8699222D01*
X14843991Y-8699222D02*
X14843991Y-8718270D01*
X14843991Y-8718270D02*
X14748753Y-8737317D01*
X14920182Y-8794460D02*
X14939230Y-8803984D01*
X14939230Y-8803984D02*
X14977325Y-8803984D01*
X14977325Y-8803984D02*
X14996372Y-8794460D01*
X14996372Y-8794460D02*
X15005896Y-8775412D01*
X15005896Y-8775412D02*
X15005896Y-8765889D01*
X15005896Y-8765889D02*
X14996372Y-8746841D01*
X14996372Y-8746841D02*
X14977325Y-8737317D01*
X14977325Y-8737317D02*
X14948753Y-8737317D01*
X14948753Y-8737317D02*
X14929706Y-8727793D01*
X14929706Y-8727793D02*
X14920182Y-8708746D01*
X14920182Y-8708746D02*
X14920182Y-8699222D01*
X14920182Y-8699222D02*
X14929706Y-8680174D01*
X14929706Y-8680174D02*
X14948753Y-8670650D01*
X14948753Y-8670650D02*
X14977325Y-8670650D01*
X14977325Y-8670650D02*
X14996372Y-8680174D01*
X15072563Y-8880174D02*
X15082087Y-8870650D01*
X15082087Y-8870650D02*
X15101134Y-8842079D01*
X15101134Y-8842079D02*
X15110658Y-8823031D01*
X15110658Y-8823031D02*
X15120182Y-8794460D01*
X15120182Y-8794460D02*
X15129706Y-8746841D01*
X15129706Y-8746841D02*
X15129706Y-8708746D01*
X15129706Y-8708746D02*
X15120182Y-8661127D01*
X15120182Y-8661127D02*
X15110658Y-8632555D01*
X15110658Y-8632555D02*
X15101134Y-8613508D01*
X15101134Y-8613508D02*
X15082087Y-8584936D01*
X15082087Y-8584936D02*
X15072563Y-8575412D01*
X15434468Y-8880174D02*
X15424944Y-8870650D01*
X15424944Y-8870650D02*
X15405896Y-8842079D01*
X15405896Y-8842079D02*
X15396372Y-8823031D01*
X15396372Y-8823031D02*
X15386849Y-8794460D01*
X15386849Y-8794460D02*
X15377325Y-8746841D01*
X15377325Y-8746841D02*
X15377325Y-8708746D01*
X15377325Y-8708746D02*
X15386849Y-8661127D01*
X15386849Y-8661127D02*
X15396372Y-8632555D01*
X15396372Y-8632555D02*
X15405896Y-8613508D01*
X15405896Y-8613508D02*
X15424944Y-8584936D01*
X15424944Y-8584936D02*
X15434468Y-8575412D01*
X15510658Y-8670650D02*
X15510658Y-8803984D01*
X15510658Y-8689698D02*
X15520182Y-8680174D01*
X15520182Y-8680174D02*
X15539230Y-8670650D01*
X15539230Y-8670650D02*
X15567801Y-8670650D01*
X15567801Y-8670650D02*
X15586849Y-8680174D01*
X15586849Y-8680174D02*
X15596372Y-8699222D01*
X15596372Y-8699222D02*
X15596372Y-8803984D01*
X15720182Y-8803984D02*
X15701134Y-8794460D01*
X15701134Y-8794460D02*
X15691611Y-8784936D01*
X15691611Y-8784936D02*
X15682087Y-8765889D01*
X15682087Y-8765889D02*
X15682087Y-8708746D01*
X15682087Y-8708746D02*
X15691611Y-8689698D01*
X15691611Y-8689698D02*
X15701134Y-8680174D01*
X15701134Y-8680174D02*
X15720182Y-8670650D01*
X15720182Y-8670650D02*
X15748753Y-8670650D01*
X15748753Y-8670650D02*
X15767801Y-8680174D01*
X15767801Y-8680174D02*
X15777325Y-8689698D01*
X15777325Y-8689698D02*
X15786849Y-8708746D01*
X15786849Y-8708746D02*
X15786849Y-8765889D01*
X15786849Y-8765889D02*
X15777325Y-8784936D01*
X15777325Y-8784936D02*
X15767801Y-8794460D01*
X15767801Y-8794460D02*
X15748753Y-8803984D01*
X15748753Y-8803984D02*
X15720182Y-8803984D01*
X15843992Y-8670650D02*
X15920182Y-8670650D01*
X15872563Y-8603984D02*
X15872563Y-8775412D01*
X15872563Y-8775412D02*
X15882087Y-8794460D01*
X15882087Y-8794460D02*
X15901134Y-8803984D01*
X15901134Y-8803984D02*
X15920182Y-8803984D01*
X16139230Y-8670650D02*
X16139230Y-8870650D01*
X16139230Y-8680174D02*
X16158277Y-8670650D01*
X16158277Y-8670650D02*
X16196373Y-8670650D01*
X16196373Y-8670650D02*
X16215420Y-8680174D01*
X16215420Y-8680174D02*
X16224944Y-8689698D01*
X16224944Y-8689698D02*
X16234468Y-8708746D01*
X16234468Y-8708746D02*
X16234468Y-8765889D01*
X16234468Y-8765889D02*
X16224944Y-8784936D01*
X16224944Y-8784936D02*
X16215420Y-8794460D01*
X16215420Y-8794460D02*
X16196373Y-8803984D01*
X16196373Y-8803984D02*
X16158277Y-8803984D01*
X16158277Y-8803984D02*
X16139230Y-8794460D01*
X16348753Y-8803984D02*
X16329706Y-8794460D01*
X16329706Y-8794460D02*
X16320182Y-8775412D01*
X16320182Y-8775412D02*
X16320182Y-8603984D01*
X16510658Y-8803984D02*
X16510658Y-8699222D01*
X16510658Y-8699222D02*
X16501134Y-8680174D01*
X16501134Y-8680174D02*
X16482087Y-8670650D01*
X16482087Y-8670650D02*
X16443992Y-8670650D01*
X16443992Y-8670650D02*
X16424944Y-8680174D01*
X16510658Y-8794460D02*
X16491611Y-8803984D01*
X16491611Y-8803984D02*
X16443992Y-8803984D01*
X16443992Y-8803984D02*
X16424944Y-8794460D01*
X16424944Y-8794460D02*
X16415420Y-8775412D01*
X16415420Y-8775412D02*
X16415420Y-8756365D01*
X16415420Y-8756365D02*
X16424944Y-8737317D01*
X16424944Y-8737317D02*
X16443992Y-8727793D01*
X16443992Y-8727793D02*
X16491611Y-8727793D01*
X16491611Y-8727793D02*
X16510658Y-8718270D01*
X16577325Y-8670650D02*
X16653515Y-8670650D01*
X16605896Y-8603984D02*
X16605896Y-8775412D01*
X16605896Y-8775412D02*
X16615420Y-8794460D01*
X16615420Y-8794460D02*
X16634468Y-8803984D01*
X16634468Y-8803984D02*
X16653515Y-8803984D01*
X16796373Y-8794460D02*
X16777325Y-8803984D01*
X16777325Y-8803984D02*
X16739230Y-8803984D01*
X16739230Y-8803984D02*
X16720182Y-8794460D01*
X16720182Y-8794460D02*
X16710658Y-8775412D01*
X16710658Y-8775412D02*
X16710658Y-8699222D01*
X16710658Y-8699222D02*
X16720182Y-8680174D01*
X16720182Y-8680174D02*
X16739230Y-8670650D01*
X16739230Y-8670650D02*
X16777325Y-8670650D01*
X16777325Y-8670650D02*
X16796373Y-8680174D01*
X16796373Y-8680174D02*
X16805896Y-8699222D01*
X16805896Y-8699222D02*
X16805896Y-8718270D01*
X16805896Y-8718270D02*
X16710658Y-8737317D01*
X16977325Y-8803984D02*
X16977325Y-8603984D01*
X16977325Y-8794460D02*
X16958277Y-8803984D01*
X16958277Y-8803984D02*
X16920182Y-8803984D01*
X16920182Y-8803984D02*
X16901135Y-8794460D01*
X16901135Y-8794460D02*
X16891611Y-8784936D01*
X16891611Y-8784936D02*
X16882087Y-8765889D01*
X16882087Y-8765889D02*
X16882087Y-8708746D01*
X16882087Y-8708746D02*
X16891611Y-8689698D01*
X16891611Y-8689698D02*
X16901135Y-8680174D01*
X16901135Y-8680174D02*
X16920182Y-8670650D01*
X16920182Y-8670650D02*
X16958277Y-8670650D01*
X16958277Y-8670650D02*
X16977325Y-8680174D01*
X17053516Y-8880174D02*
X17063039Y-8870650D01*
X17063039Y-8870650D02*
X17082087Y-8842079D01*
X17082087Y-8842079D02*
X17091611Y-8823031D01*
X17091611Y-8823031D02*
X17101135Y-8794460D01*
X17101135Y-8794460D02*
X17110658Y-8746841D01*
X17110658Y-8746841D02*
X17110658Y-8708746D01*
X17110658Y-8708746D02*
X17101135Y-8661127D01*
X17101135Y-8661127D02*
X17091611Y-8632555D01*
X17091611Y-8632555D02*
X17082087Y-8613508D01*
X17082087Y-8613508D02*
X17063039Y-8584936D01*
X17063039Y-8584936D02*
X17053516Y-8575412D01*
X10197500Y-8912500D02*
X10197500Y-9112500D01*
X10097500Y-9012500D02*
X10297500Y-9012500D01*
X10539229Y-8903984D02*
X10663039Y-8903984D01*
X10663039Y-8903984D02*
X10596372Y-8980174D01*
X10596372Y-8980174D02*
X10624944Y-8980174D01*
X10624944Y-8980174D02*
X10643991Y-8989698D01*
X10643991Y-8989698D02*
X10653515Y-8999222D01*
X10653515Y-8999222D02*
X10663039Y-9018270D01*
X10663039Y-9018270D02*
X10663039Y-9065889D01*
X10663039Y-9065889D02*
X10653515Y-9084936D01*
X10653515Y-9084936D02*
X10643991Y-9094460D01*
X10643991Y-9094460D02*
X10624944Y-9103984D01*
X10624944Y-9103984D02*
X10567801Y-9103984D01*
X10567801Y-9103984D02*
X10548753Y-9094460D01*
X10548753Y-9094460D02*
X10539229Y-9084936D01*
X10748753Y-9084936D02*
X10758277Y-9094460D01*
X10758277Y-9094460D02*
X10748753Y-9103984D01*
X10748753Y-9103984D02*
X10739229Y-9094460D01*
X10739229Y-9094460D02*
X10748753Y-9084936D01*
X10748753Y-9084936D02*
X10748753Y-9103984D01*
X10939229Y-8903984D02*
X10843991Y-8903984D01*
X10843991Y-8903984D02*
X10834467Y-8999222D01*
X10834467Y-8999222D02*
X10843991Y-8989698D01*
X10843991Y-8989698D02*
X10863039Y-8980174D01*
X10863039Y-8980174D02*
X10910658Y-8980174D01*
X10910658Y-8980174D02*
X10929705Y-8989698D01*
X10929705Y-8989698D02*
X10939229Y-8999222D01*
X10939229Y-8999222D02*
X10948753Y-9018270D01*
X10948753Y-9018270D02*
X10948753Y-9065889D01*
X10948753Y-9065889D02*
X10939229Y-9084936D01*
X10939229Y-9084936D02*
X10929705Y-9094460D01*
X10929705Y-9094460D02*
X10910658Y-9103984D01*
X10910658Y-9103984D02*
X10863039Y-9103984D01*
X10863039Y-9103984D02*
X10843991Y-9094460D01*
X10843991Y-9094460D02*
X10834467Y-9084936D01*
X11072563Y-8903984D02*
X11091610Y-8903984D01*
X11091610Y-8903984D02*
X11110658Y-8913508D01*
X11110658Y-8913508D02*
X11120182Y-8923031D01*
X11120182Y-8923031D02*
X11129705Y-8942079D01*
X11129705Y-8942079D02*
X11139229Y-8980174D01*
X11139229Y-8980174D02*
X11139229Y-9027793D01*
X11139229Y-9027793D02*
X11129705Y-9065889D01*
X11129705Y-9065889D02*
X11120182Y-9084936D01*
X11120182Y-9084936D02*
X11110658Y-9094460D01*
X11110658Y-9094460D02*
X11091610Y-9103984D01*
X11091610Y-9103984D02*
X11072563Y-9103984D01*
X11072563Y-9103984D02*
X11053515Y-9094460D01*
X11053515Y-9094460D02*
X11043991Y-9084936D01*
X11043991Y-9084936D02*
X11034467Y-9065889D01*
X11034467Y-9065889D02*
X11024944Y-9027793D01*
X11024944Y-9027793D02*
X11024944Y-8980174D01*
X11024944Y-8980174D02*
X11034467Y-8942079D01*
X11034467Y-8942079D02*
X11043991Y-8923031D01*
X11043991Y-8923031D02*
X11053515Y-8913508D01*
X11053515Y-8913508D02*
X11072563Y-8903984D01*
X11263039Y-8903984D02*
X11282086Y-8903984D01*
X11282086Y-8903984D02*
X11301134Y-8913508D01*
X11301134Y-8913508D02*
X11310658Y-8923031D01*
X11310658Y-8923031D02*
X11320182Y-8942079D01*
X11320182Y-8942079D02*
X11329705Y-8980174D01*
X11329705Y-8980174D02*
X11329705Y-9027793D01*
X11329705Y-9027793D02*
X11320182Y-9065889D01*
X11320182Y-9065889D02*
X11310658Y-9084936D01*
X11310658Y-9084936D02*
X11301134Y-9094460D01*
X11301134Y-9094460D02*
X11282086Y-9103984D01*
X11282086Y-9103984D02*
X11263039Y-9103984D01*
X11263039Y-9103984D02*
X11243991Y-9094460D01*
X11243991Y-9094460D02*
X11234467Y-9084936D01*
X11234467Y-9084936D02*
X11224943Y-9065889D01*
X11224943Y-9065889D02*
X11215420Y-9027793D01*
X11215420Y-9027793D02*
X11215420Y-8980174D01*
X11215420Y-8980174D02*
X11224943Y-8942079D01*
X11224943Y-8942079D02*
X11234467Y-8923031D01*
X11234467Y-8923031D02*
X11243991Y-8913508D01*
X11243991Y-8913508D02*
X11263039Y-8903984D01*
X11415420Y-9103984D02*
X11415420Y-8970650D01*
X11415420Y-8989698D02*
X11424943Y-8980174D01*
X11424943Y-8980174D02*
X11443991Y-8970650D01*
X11443991Y-8970650D02*
X11472563Y-8970650D01*
X11472563Y-8970650D02*
X11491610Y-8980174D01*
X11491610Y-8980174D02*
X11501134Y-8999222D01*
X11501134Y-8999222D02*
X11501134Y-9103984D01*
X11501134Y-8999222D02*
X11510658Y-8980174D01*
X11510658Y-8980174D02*
X11529705Y-8970650D01*
X11529705Y-8970650D02*
X11558277Y-8970650D01*
X11558277Y-8970650D02*
X11577324Y-8980174D01*
X11577324Y-8980174D02*
X11586848Y-8999222D01*
X11586848Y-8999222D02*
X11586848Y-9103984D01*
X11682086Y-9103984D02*
X11682086Y-8970650D01*
X11682086Y-8989698D02*
X11691610Y-8980174D01*
X11691610Y-8980174D02*
X11710658Y-8970650D01*
X11710658Y-8970650D02*
X11739229Y-8970650D01*
X11739229Y-8970650D02*
X11758277Y-8980174D01*
X11758277Y-8980174D02*
X11767801Y-8999222D01*
X11767801Y-8999222D02*
X11767801Y-9103984D01*
X11767801Y-8999222D02*
X11777324Y-8980174D01*
X11777324Y-8980174D02*
X11796372Y-8970650D01*
X11796372Y-8970650D02*
X11824943Y-8970650D01*
X11824943Y-8970650D02*
X11843991Y-8980174D01*
X11843991Y-8980174D02*
X11853515Y-8999222D01*
X11853515Y-8999222D02*
X11853515Y-9103984D01*
X12243991Y-8894460D02*
X12072563Y-9151603D01*
X12501134Y-8903984D02*
X12520182Y-8903984D01*
X12520182Y-8903984D02*
X12539229Y-8913508D01*
X12539229Y-8913508D02*
X12548753Y-8923031D01*
X12548753Y-8923031D02*
X12558277Y-8942079D01*
X12558277Y-8942079D02*
X12567801Y-8980174D01*
X12567801Y-8980174D02*
X12567801Y-9027793D01*
X12567801Y-9027793D02*
X12558277Y-9065889D01*
X12558277Y-9065889D02*
X12548753Y-9084936D01*
X12548753Y-9084936D02*
X12539229Y-9094460D01*
X12539229Y-9094460D02*
X12520182Y-9103984D01*
X12520182Y-9103984D02*
X12501134Y-9103984D01*
X12501134Y-9103984D02*
X12482086Y-9094460D01*
X12482086Y-9094460D02*
X12472563Y-9084936D01*
X12472563Y-9084936D02*
X12463039Y-9065889D01*
X12463039Y-9065889D02*
X12453515Y-9027793D01*
X12453515Y-9027793D02*
X12453515Y-8980174D01*
X12453515Y-8980174D02*
X12463039Y-8942079D01*
X12463039Y-8942079D02*
X12472563Y-8923031D01*
X12472563Y-8923031D02*
X12482086Y-8913508D01*
X12482086Y-8913508D02*
X12501134Y-8903984D01*
X12653515Y-9084936D02*
X12663039Y-9094460D01*
X12663039Y-9094460D02*
X12653515Y-9103984D01*
X12653515Y-9103984D02*
X12643991Y-9094460D01*
X12643991Y-9094460D02*
X12653515Y-9084936D01*
X12653515Y-9084936D02*
X12653515Y-9103984D01*
X12853515Y-9103984D02*
X12739229Y-9103984D01*
X12796372Y-9103984D02*
X12796372Y-8903984D01*
X12796372Y-8903984D02*
X12777325Y-8932555D01*
X12777325Y-8932555D02*
X12758277Y-8951603D01*
X12758277Y-8951603D02*
X12739229Y-8961127D01*
X12920182Y-8903984D02*
X13043991Y-8903984D01*
X13043991Y-8903984D02*
X12977325Y-8980174D01*
X12977325Y-8980174D02*
X13005896Y-8980174D01*
X13005896Y-8980174D02*
X13024944Y-8989698D01*
X13024944Y-8989698D02*
X13034467Y-8999222D01*
X13034467Y-8999222D02*
X13043991Y-9018270D01*
X13043991Y-9018270D02*
X13043991Y-9065889D01*
X13043991Y-9065889D02*
X13034467Y-9084936D01*
X13034467Y-9084936D02*
X13024944Y-9094460D01*
X13024944Y-9094460D02*
X13005896Y-9103984D01*
X13005896Y-9103984D02*
X12948753Y-9103984D01*
X12948753Y-9103984D02*
X12929706Y-9094460D01*
X12929706Y-9094460D02*
X12920182Y-9084936D01*
X13110658Y-8903984D02*
X13243991Y-8903984D01*
X13243991Y-8903984D02*
X13158277Y-9103984D01*
X13348753Y-8989698D02*
X13329706Y-8980174D01*
X13329706Y-8980174D02*
X13320182Y-8970650D01*
X13320182Y-8970650D02*
X13310658Y-8951603D01*
X13310658Y-8951603D02*
X13310658Y-8942079D01*
X13310658Y-8942079D02*
X13320182Y-8923031D01*
X13320182Y-8923031D02*
X13329706Y-8913508D01*
X13329706Y-8913508D02*
X13348753Y-8903984D01*
X13348753Y-8903984D02*
X13386848Y-8903984D01*
X13386848Y-8903984D02*
X13405896Y-8913508D01*
X13405896Y-8913508D02*
X13415420Y-8923031D01*
X13415420Y-8923031D02*
X13424944Y-8942079D01*
X13424944Y-8942079D02*
X13424944Y-8951603D01*
X13424944Y-8951603D02*
X13415420Y-8970650D01*
X13415420Y-8970650D02*
X13405896Y-8980174D01*
X13405896Y-8980174D02*
X13386848Y-8989698D01*
X13386848Y-8989698D02*
X13348753Y-8989698D01*
X13348753Y-8989698D02*
X13329706Y-8999222D01*
X13329706Y-8999222D02*
X13320182Y-9008746D01*
X13320182Y-9008746D02*
X13310658Y-9027793D01*
X13310658Y-9027793D02*
X13310658Y-9065889D01*
X13310658Y-9065889D02*
X13320182Y-9084936D01*
X13320182Y-9084936D02*
X13329706Y-9094460D01*
X13329706Y-9094460D02*
X13348753Y-9103984D01*
X13348753Y-9103984D02*
X13386848Y-9103984D01*
X13386848Y-9103984D02*
X13405896Y-9094460D01*
X13405896Y-9094460D02*
X13415420Y-9084936D01*
X13415420Y-9084936D02*
X13424944Y-9065889D01*
X13424944Y-9065889D02*
X13424944Y-9027793D01*
X13424944Y-9027793D02*
X13415420Y-9008746D01*
X13415420Y-9008746D02*
X13405896Y-8999222D01*
X13405896Y-8999222D02*
X13386848Y-8989698D01*
X13501134Y-8903984D02*
X13501134Y-8942079D01*
X13577325Y-8903984D02*
X13577325Y-8942079D01*
X13872563Y-9180174D02*
X13863039Y-9170650D01*
X13863039Y-9170650D02*
X13843991Y-9142079D01*
X13843991Y-9142079D02*
X13834468Y-9123031D01*
X13834468Y-9123031D02*
X13824944Y-9094460D01*
X13824944Y-9094460D02*
X13815420Y-9046841D01*
X13815420Y-9046841D02*
X13815420Y-9008746D01*
X13815420Y-9008746D02*
X13824944Y-8961127D01*
X13824944Y-8961127D02*
X13834468Y-8932555D01*
X13834468Y-8932555D02*
X13843991Y-8913508D01*
X13843991Y-8913508D02*
X13863039Y-8884936D01*
X13863039Y-8884936D02*
X13872563Y-8875412D01*
X14053515Y-9103984D02*
X13939229Y-9103984D01*
X13996372Y-9103984D02*
X13996372Y-8903984D01*
X13996372Y-8903984D02*
X13977325Y-8932555D01*
X13977325Y-8932555D02*
X13958277Y-8951603D01*
X13958277Y-8951603D02*
X13939229Y-8961127D01*
X14291610Y-9103984D02*
X14291610Y-8903984D01*
X14377325Y-9103984D02*
X14377325Y-8999222D01*
X14377325Y-8999222D02*
X14367801Y-8980174D01*
X14367801Y-8980174D02*
X14348753Y-8970650D01*
X14348753Y-8970650D02*
X14320182Y-8970650D01*
X14320182Y-8970650D02*
X14301134Y-8980174D01*
X14301134Y-8980174D02*
X14291610Y-8989698D01*
X14501134Y-9103984D02*
X14482087Y-9094460D01*
X14482087Y-9094460D02*
X14472563Y-9084936D01*
X14472563Y-9084936D02*
X14463039Y-9065889D01*
X14463039Y-9065889D02*
X14463039Y-9008746D01*
X14463039Y-9008746D02*
X14472563Y-8989698D01*
X14472563Y-8989698D02*
X14482087Y-8980174D01*
X14482087Y-8980174D02*
X14501134Y-8970650D01*
X14501134Y-8970650D02*
X14529706Y-8970650D01*
X14529706Y-8970650D02*
X14548753Y-8980174D01*
X14548753Y-8980174D02*
X14558277Y-8989698D01*
X14558277Y-8989698D02*
X14567801Y-9008746D01*
X14567801Y-9008746D02*
X14567801Y-9065889D01*
X14567801Y-9065889D02*
X14558277Y-9084936D01*
X14558277Y-9084936D02*
X14548753Y-9094460D01*
X14548753Y-9094460D02*
X14529706Y-9103984D01*
X14529706Y-9103984D02*
X14501134Y-9103984D01*
X14682087Y-9103984D02*
X14663039Y-9094460D01*
X14663039Y-9094460D02*
X14653515Y-9075412D01*
X14653515Y-9075412D02*
X14653515Y-8903984D01*
X14834468Y-9094460D02*
X14815420Y-9103984D01*
X14815420Y-9103984D02*
X14777325Y-9103984D01*
X14777325Y-9103984D02*
X14758277Y-9094460D01*
X14758277Y-9094460D02*
X14748753Y-9075412D01*
X14748753Y-9075412D02*
X14748753Y-8999222D01*
X14748753Y-8999222D02*
X14758277Y-8980174D01*
X14758277Y-8980174D02*
X14777325Y-8970650D01*
X14777325Y-8970650D02*
X14815420Y-8970650D01*
X14815420Y-8970650D02*
X14834468Y-8980174D01*
X14834468Y-8980174D02*
X14843991Y-8999222D01*
X14843991Y-8999222D02*
X14843991Y-9018270D01*
X14843991Y-9018270D02*
X14748753Y-9037317D01*
X14910658Y-9180174D02*
X14920182Y-9170650D01*
X14920182Y-9170650D02*
X14939230Y-9142079D01*
X14939230Y-9142079D02*
X14948753Y-9123031D01*
X14948753Y-9123031D02*
X14958277Y-9094460D01*
X14958277Y-9094460D02*
X14967801Y-9046841D01*
X14967801Y-9046841D02*
X14967801Y-9008746D01*
X14967801Y-9008746D02*
X14958277Y-8961127D01*
X14958277Y-8961127D02*
X14948753Y-8932555D01*
X14948753Y-8932555D02*
X14939230Y-8913508D01*
X14939230Y-8913508D02*
X14920182Y-8884936D01*
X14920182Y-8884936D02*
X14910658Y-8875412D01*
X15272563Y-9180174D02*
X15263039Y-9170650D01*
X15263039Y-9170650D02*
X15243991Y-9142079D01*
X15243991Y-9142079D02*
X15234468Y-9123031D01*
X15234468Y-9123031D02*
X15224944Y-9094460D01*
X15224944Y-9094460D02*
X15215420Y-9046841D01*
X15215420Y-9046841D02*
X15215420Y-9008746D01*
X15215420Y-9008746D02*
X15224944Y-8961127D01*
X15224944Y-8961127D02*
X15234468Y-8932555D01*
X15234468Y-8932555D02*
X15243991Y-8913508D01*
X15243991Y-8913508D02*
X15263039Y-8884936D01*
X15263039Y-8884936D02*
X15272563Y-8875412D01*
X15348753Y-8970650D02*
X15348753Y-9103984D01*
X15348753Y-8989698D02*
X15358277Y-8980174D01*
X15358277Y-8980174D02*
X15377325Y-8970650D01*
X15377325Y-8970650D02*
X15405896Y-8970650D01*
X15405896Y-8970650D02*
X15424944Y-8980174D01*
X15424944Y-8980174D02*
X15434468Y-8999222D01*
X15434468Y-8999222D02*
X15434468Y-9103984D01*
X15558277Y-9103984D02*
X15539230Y-9094460D01*
X15539230Y-9094460D02*
X15529706Y-9084936D01*
X15529706Y-9084936D02*
X15520182Y-9065889D01*
X15520182Y-9065889D02*
X15520182Y-9008746D01*
X15520182Y-9008746D02*
X15529706Y-8989698D01*
X15529706Y-8989698D02*
X15539230Y-8980174D01*
X15539230Y-8980174D02*
X15558277Y-8970650D01*
X15558277Y-8970650D02*
X15586849Y-8970650D01*
X15586849Y-8970650D02*
X15605896Y-8980174D01*
X15605896Y-8980174D02*
X15615420Y-8989698D01*
X15615420Y-8989698D02*
X15624944Y-9008746D01*
X15624944Y-9008746D02*
X15624944Y-9065889D01*
X15624944Y-9065889D02*
X15615420Y-9084936D01*
X15615420Y-9084936D02*
X15605896Y-9094460D01*
X15605896Y-9094460D02*
X15586849Y-9103984D01*
X15586849Y-9103984D02*
X15558277Y-9103984D01*
X15682087Y-8970650D02*
X15758277Y-8970650D01*
X15710658Y-8903984D02*
X15710658Y-9075412D01*
X15710658Y-9075412D02*
X15720182Y-9094460D01*
X15720182Y-9094460D02*
X15739230Y-9103984D01*
X15739230Y-9103984D02*
X15758277Y-9103984D01*
X15977325Y-8970650D02*
X15977325Y-9170650D01*
X15977325Y-8980174D02*
X15996372Y-8970650D01*
X15996372Y-8970650D02*
X16034468Y-8970650D01*
X16034468Y-8970650D02*
X16053515Y-8980174D01*
X16053515Y-8980174D02*
X16063039Y-8989698D01*
X16063039Y-8989698D02*
X16072563Y-9008746D01*
X16072563Y-9008746D02*
X16072563Y-9065889D01*
X16072563Y-9065889D02*
X16063039Y-9084936D01*
X16063039Y-9084936D02*
X16053515Y-9094460D01*
X16053515Y-9094460D02*
X16034468Y-9103984D01*
X16034468Y-9103984D02*
X15996372Y-9103984D01*
X15996372Y-9103984D02*
X15977325Y-9094460D01*
X16186849Y-9103984D02*
X16167801Y-9094460D01*
X16167801Y-9094460D02*
X16158277Y-9075412D01*
X16158277Y-9075412D02*
X16158277Y-8903984D01*
X16348753Y-9103984D02*
X16348753Y-8999222D01*
X16348753Y-8999222D02*
X16339230Y-8980174D01*
X16339230Y-8980174D02*
X16320182Y-8970650D01*
X16320182Y-8970650D02*
X16282087Y-8970650D01*
X16282087Y-8970650D02*
X16263039Y-8980174D01*
X16348753Y-9094460D02*
X16329706Y-9103984D01*
X16329706Y-9103984D02*
X16282087Y-9103984D01*
X16282087Y-9103984D02*
X16263039Y-9094460D01*
X16263039Y-9094460D02*
X16253515Y-9075412D01*
X16253515Y-9075412D02*
X16253515Y-9056365D01*
X16253515Y-9056365D02*
X16263039Y-9037317D01*
X16263039Y-9037317D02*
X16282087Y-9027793D01*
X16282087Y-9027793D02*
X16329706Y-9027793D01*
X16329706Y-9027793D02*
X16348753Y-9018270D01*
X16415420Y-8970650D02*
X16491611Y-8970650D01*
X16443992Y-8903984D02*
X16443992Y-9075412D01*
X16443992Y-9075412D02*
X16453515Y-9094460D01*
X16453515Y-9094460D02*
X16472563Y-9103984D01*
X16472563Y-9103984D02*
X16491611Y-9103984D01*
X16634468Y-9094460D02*
X16615420Y-9103984D01*
X16615420Y-9103984D02*
X16577325Y-9103984D01*
X16577325Y-9103984D02*
X16558277Y-9094460D01*
X16558277Y-9094460D02*
X16548753Y-9075412D01*
X16548753Y-9075412D02*
X16548753Y-8999222D01*
X16548753Y-8999222D02*
X16558277Y-8980174D01*
X16558277Y-8980174D02*
X16577325Y-8970650D01*
X16577325Y-8970650D02*
X16615420Y-8970650D01*
X16615420Y-8970650D02*
X16634468Y-8980174D01*
X16634468Y-8980174D02*
X16643992Y-8999222D01*
X16643992Y-8999222D02*
X16643992Y-9018270D01*
X16643992Y-9018270D02*
X16548753Y-9037317D01*
X16815420Y-9103984D02*
X16815420Y-8903984D01*
X16815420Y-9094460D02*
X16796373Y-9103984D01*
X16796373Y-9103984D02*
X16758277Y-9103984D01*
X16758277Y-9103984D02*
X16739230Y-9094460D01*
X16739230Y-9094460D02*
X16729706Y-9084936D01*
X16729706Y-9084936D02*
X16720182Y-9065889D01*
X16720182Y-9065889D02*
X16720182Y-9008746D01*
X16720182Y-9008746D02*
X16729706Y-8989698D01*
X16729706Y-8989698D02*
X16739230Y-8980174D01*
X16739230Y-8980174D02*
X16758277Y-8970650D01*
X16758277Y-8970650D02*
X16796373Y-8970650D01*
X16796373Y-8970650D02*
X16815420Y-8980174D01*
X16891611Y-9180174D02*
X16901135Y-9170650D01*
X16901135Y-9170650D02*
X16920182Y-9142079D01*
X16920182Y-9142079D02*
X16929706Y-9123031D01*
X16929706Y-9123031D02*
X16939230Y-9094460D01*
X16939230Y-9094460D02*
X16948754Y-9046841D01*
X16948754Y-9046841D02*
X16948754Y-9008746D01*
X16948754Y-9008746D02*
X16939230Y-8961127D01*
X16939230Y-8961127D02*
X16929706Y-8932555D01*
X16929706Y-8932555D02*
X16920182Y-8913508D01*
X16920182Y-8913508D02*
X16901135Y-8884936D01*
X16901135Y-8884936D02*
X16891611Y-8875412D01*
M02*
